<svg id="图层_1" xmlns="http://www.w3.org/2000/svg" viewBox="0 0 65 65"><style>.st2{fill:#00b46b}</style><radialGradient id="Oval-6-Copy-3_2_" cx="-271.102" cy="455.122" r=".637" gradientTransform="matrix(0 101.8666 101.0097 0 -45955.746 27610.836)" gradientUnits="userSpaceOnUse"><stop offset="0" stop-color="#00dd8e"/><stop offset=".763" stop-color="#00b46b"/><stop offset="1" stop-color="#00bf47"/></radialGradient><ellipse id="Oval-6-Copy-3_1_" cx="32.5" cy="32.5" rx="32.5" ry="32.5" fill="url(#Oval-6-Copy-3_2_)"/><g id="XMLID_1_"><path id="XMLID_36_" d="M44.7 45.9H20.3c-1.1 0-2-.9-2-2V18c0-1.1.9-2 2-2h24.3c1.1 0 2 .9 2 2v25.9c.1 1.1-.8 2-1.9 2z" fill="#fff"/><path id="XMLID_34_" class="st2" d="M21.9 23.4c0-.5.4-.9.9-.9h5.4c.5 0 .9.4.9.9s-.4.9-.9.9h-5.4c-.5 0-.9-.4-.9-.9z"/><path id="XMLID_31_" class="st2" d="M21.8 36.5c0-.5.4-.9.9-.9h14.8c.5 0 .9.4.9.9s-.4.9-.9.9H22.7c-.5 0-.9-.4-.9-.9z"/><path id="XMLID_5_" class="st2" d="M21.9 30c0-.5.4-.9.9-.9h10.7c.5 0 .9.4.9.9s-.4.9-.9.9H22.8c-.5 0-.9-.4-.9-.9z"/><path id="XMLID_4_" class="st2" d="M36.3 15.9v7.9l3.3-1.1 2.8 1.1v-7.9z"/></g><radialGradient id="Oval-6-Copy-4_2_" cx="-264.197" cy="464.344" r="1.151" gradientTransform="matrix(56.3191 15.2012 15.0733 -56.7969 7920.573 30442.287)" gradientUnits="userSpaceOnUse"><stop offset="0" stop-color="#00941a" stop-opacity="0"/><stop offset="1" stop-color="#00bf61" stop-opacity=".84"/></radialGradient><path id="Oval-6-Copy-4_1_" d="M32.5 64.8C50.4 64.8 65 50.3 65 32.4c0-1.3 0-1.9-.1-2.6-.1-.6-.1-1.3-.2-1.7-.9-2.2-3.4 1.1-14.5 4.3C34.3 37 34 47.3 29.2 50c-9.8 5.6-10.8 0-15.9-4.1-5.6-4.6-11.8-2-9.1 2.7 5.7 9.7 16.3 16.2 28.3 16.2z" fill="url(#Oval-6-Copy-4_2_)"/><radialGradient id="Oval-6-Copy-5_2_" cx="-253.034" cy="456.932" r=".649" gradientTransform="matrix(34.6002 -46.4016 -46.0113 -34.8937 29825.727 4247.124)" gradientUnits="userSpaceOnUse"><stop offset="0" stop-color="#00f142" stop-opacity="0"/><stop offset=".986" stop-color="#00e9b5" stop-opacity=".84"/></radialGradient><path id="Oval-6-Copy-5_1_" d="M32.5 65C50.4 65 65 50.5 65 32.5c0-1.3 0-1.9-.1-2.6-.1-.6-.1-1.3-.2-1.7-.9-2.2-1.3 11-8.3 11-17.8 0-11.3 13.5-24.7 5-9.3-5.9-8.5 16.2-19.8 5.1S1.6 44 4.3 48.7C9.9 58.5 20.5 65 32.5 65z" fill="url(#Oval-6-Copy-5_2_)"/></svg>