<svg id="图层_1" xmlns="http://www.w3.org/2000/svg" viewBox="0 0 65 65"><style>.st1{fill:#fff}</style><radialGradient id="Oval-6-Copy-6_2_" cx="-727.246" cy="71.165" r="1" gradientTransform="matrix(0 64.915 -64.3689 0 4596.83 47203.754)" gradientUnits="userSpaceOnUse"><stop offset="0" stop-color="#823fff"/><stop offset=".763" stop-color="#586be6"/><stop offset="1" stop-color="#3f71ff"/></radialGradient><ellipse id="Oval-6-Copy-6_1_" cx="32.5" cy="32.5" rx="32.5" ry="32.5" fill="url(#Oval-6-Copy-6_2_)"/><g id="XMLID_75_"><path class="st1" d="M21.7 26.3l-5.1-4.2 1.2-1.6 4.1 3.4 11.5-5.5 6.3 4.6 8.5-4 .8 1.8-9.5 4.6-6.3-4.6z"/><path id="XMLID_33_" class="st1" d="M43.5 18.1l2.6 4.3 5.4-2.7z"/></g><path id="XMLID_234_" class="st1" d="M38.6 30.2l-5-4.5-12.4 4.5-4.4-3.2v17.2c0 1.4 1.2 2.5 2.6 2.5h24.8c1.4 0 2.6-1.1 2.6-2.5V26.7l-8.2 3.5z"/><radialGradient id="Oval-6-Copy-7_2_" cx="-714.723" cy="84.302" r="1.806" gradientTransform="matrix(35.8896 9.687 -9.6055 36.1941 26501.328 3925.179)" gradientUnits="userSpaceOnUse"><stop offset="0" stop-color="#2d00ba" stop-opacity="0"/><stop offset="1" stop-color="#9f94ff" stop-opacity=".84"/></radialGradient><path id="Oval-6-Copy-7_1_" d="M32.5 64.8C50.4 64.8 65 50.3 65 32.4c0-1.3 0-1.9-.1-2.6-.1-.6-.1-1.3-.2-1.7-.9-2.2-3.4 1.1-14.5 4.3C34.3 37 34 47.3 29.2 50c-9.8 5.6-10.8 0-15.9-4.1-5.6-4.6-11.8-2-9.1 2.7 5.7 9.7 16.3 16.2 28.3 16.2z" fill="url(#Oval-6-Copy-7_2_)"/><radialGradient id="Oval-6-Copy-8_2_" cx="-728.386" cy="97.465" r="1.019" gradientTransform="matrix(22.0491 -29.5696 29.3209 22.2362 13249.213 -23661.09)" gradientUnits="userSpaceOnUse"><stop offset="0" stop-color="#b794ff" stop-opacity="0"/><stop offset="1" stop-color="#9e6aff" stop-opacity=".84"/></radialGradient><path id="Oval-6-Copy-8_1_" d="M32.5 65C50.4 65 65 50.5 65 32.5c0-1.3 0-1.9-.1-2.6-.1-.6-.1-1.3-.2-1.7-.9-2.2-1.3 11-8.3 11-17.8 0-11.3 13.5-24.7 5-9.3-5.9-8.5 16.2-19.8 5.1S1.6 44 4.3 48.7C9.9 58.5 20.5 65 32.5 65z" fill="url(#Oval-6-Copy-8_2_)"/></svg>