<svg xmlns="http://www.w3.org/2000/svg" viewBox="0 0 65 65"><radialGradient id="a" cx="-265.449" cy="448.469" r=".637" gradientTransform="matrix(0 101.8666 101.0097 0 -45283.746 27034.967)" gradientUnits="userSpaceOnUse"><stop offset="0" stop-color="#ff6907"/><stop offset=".763" stop-color="#fb9c00"/><stop offset="1" stop-color="#ffbd55"/></radialGradient><ellipse cx="32.5" cy="32.5" rx="32.5" ry="32.5" fill="url(#a)"/><path d="M41 20.5c-5.3-5.4-14-5.3-19.4.1-5.2 5.3-5.2 13.9 0 19.2 4.3 4.3 10.8 5.1 15.9 2.5.6-.3 1.2-.2 1.7.3l2.6 2.6c.6.6 1.6.6 2.2 0l2.2-2.2c.6-.6.6-1.6 0-2.2l-2.6-2.6c-.4-.4-.5-1.1-.3-1.7 2.8-5.3 2-11.7-2.3-16z" fill="#fff"/><path d="M31.5 22.5c4.3 0 7.8 3.5 7.8 7.8S35.8 38 31.5 38s-7.8-3.5-7.8-7.8 3.5-7.7 7.8-7.7z" fill="#f39800"/><path fill="#f7f8f8" d="M25.7 30.5l2.1-1.7 2.3 2.4 5.5-5.1 1.8 2-7.3 6.6z"/><radialGradient id="b" cx="-267.817" cy="460.002" r=".834" gradientTransform="matrix(34.3643 -47.4967 -47.0972 -34.6558 30908.576 3274.248)" gradientUnits="userSpaceOnUse"><stop offset="0" stop-color="#ff9203" stop-opacity="0"/><stop offset="1" stop-color="#d48200" stop-opacity=".84"/></radialGradient><path d="M32.5 64.8C50.4 64.8 65 50.3 65 32.4c0-1.3 0-1.9-.1-2.6-.1-.6-.1-1.3-.2-1.7-.9-2.2-3.4 1.1-14.5 4.3C34.3 37 34 47.3 29.2 50c-9.8 5.6-10.8 0-15.9-4.1-5.6-4.6-11.8-2-9.1 2.7 5.7 9.7 16.3 16.2 28.3 16.2z" fill="url(#b)"/><radialGradient id="c" cx="-267.977" cy="460.3" r=".649" gradientTransform="matrix(34.6002 -46.4016 -46.0113 -34.8937 30497.727 3671.257)" gradientUnits="userSpaceOnUse"><stop offset="0" stop-color="#ffb703" stop-opacity="0"/><stop offset="1" stop-color="#ffdd6a" stop-opacity=".84"/></radialGradient><path d="M32.5 65C50.4 65 65 50.5 65 32.5c0-1.3 0-1.9-.1-2.6-.1-.6-.1-1.3-.2-1.7-.9-2.2-1.3 11-8.3 11-17.8 0-11.3 13.5-24.7 5-9.3-5.9-8.5 16.2-19.8 5.1S1.6 44 4.3 48.7C9.9 58.5 20.5 65 32.5 65z" fill="url(#c)"/></svg>