<svg id="图层_1" xmlns="http://www.w3.org/2000/svg" viewBox="0 0 65 65"><style>.st1{fill:#fff}.st2{fill:#e83828}</style><radialGradient id="Oval-6-Copy-6_1_" cx="-265.449" cy="450.132" r=".637" gradientTransform="matrix(0 101.8666 101.0097 0 -45451.746 27034.967)" gradientUnits="userSpaceOnUse"><stop offset="0" stop-color="#f95625"/><stop offset=".763" stop-color="#fb4a29"/><stop offset="1" stop-color="#e9005b"/></radialGradient><ellipse id="Oval-6-Copy-6_2_" cx="32.5" cy="32.5" rx="32.5" ry="32.5" fill="url(#Oval-6-Copy-6_1_)"/><g id="XMLID_8_"><path id="XMLID_2_" class="st1" d="M41.6 46.3H19.4c-1.1 0-2-.9-2-2V20.7c0-1.1.9-2 2-2h22.2c1.1 0 2 .9 2 2v23.6c0 1.1-.9 2-2 2z"/><path id="XMLID_19_" class="st1" d="M44.6 15.8H24.3c-1.2 0-2.2.7-2.7 1.7h20.5c1.6 0 3 1.3 3 3v21.7c0 .4-.1.9-.3 1.2 1.5-.1 2.7-1.4 2.7-2.9V18.8c0-1.6-1.3-3-2.9-3z"/><path id="XMLID_7_" class="st2" d="M24.5 39.2c-.5 0-1-.4-1-1v-4.8c0-.5.4-1 1-1 .5 0 1 .4 1 1v4.8c0 .6-.5 1-1 1z"/><path id="XMLID_14_" class="st2" d="M30.6 39.2c-.5 0-1-.4-1-1v-2.5c0-.5.4-1 1-1 .5 0 1 .4 1 1v2.5c0 .6-.5 1-1 1z"/><path id="XMLID_15_" class="st2" d="M37.1 39.2c-.5 0-1-.4-1-1v-8c0-.5.4-1 1-1 .5 0 1 .4 1 1v8c0 .6-.5 1-1 1z"/><path id="XMLID_16_" fill="none" stroke="#e83828" stroke-width="1.5" stroke-miterlimit="10" d="M23 29.1l6.2-3.1 2.7 3.5 7.4-4.3"/></g><radialGradient id="Oval-6-Copy-7_1_" cx="-266.118" cy="457.675" r=".834" gradientTransform="matrix(34.3643 -47.4967 -47.0972 -34.6558 30740.576 3274.248)" gradientUnits="userSpaceOnUse"><stop offset="0" stop-color="#bf2a00" stop-opacity="0"/><stop offset="1" stop-color="#ff5a3f" stop-opacity=".84"/></radialGradient><path id="Oval-6-Copy-7_2_" d="M32.5 64.8C50.4 64.8 65 50.3 65 32.4c0-1.3 0-1.9-.1-2.6-.1-.6-.1-1.3-.2-1.7-.9-2.2-3.4 1.1-14.5 4.3C34.3 37 34 47.3 29.2 50c-9.8 5.6-10.8 0-15.9-4.1-5.6-4.6-11.8-2-9.1 2.7 5.7 9.7 16.3 16.2 28.3 16.2z" fill="url(#Oval-6-Copy-7_1_)"/><radialGradient id="Oval-6-Copy-8_1_" cx="-270.027" cy="452.835" r=".913" gradientTransform="matrix(55.721 14.5928 14.4701 -56.1937 8540.337 29431.195)" gradientUnits="userSpaceOnUse"><stop offset="0" stop-color="#ff8415" stop-opacity="0"/><stop offset="1" stop-color="#ff94a0" stop-opacity=".84"/></radialGradient><path id="Oval-6-Copy-8_2_" d="M32.5 65C50.4 65 65 50.5 65 32.5c0-1.3 0-1.9-.1-2.6-.1-.6-.1-1.3-.2-1.7-.9-2.2-1.3 11-8.3 11-17.8 0-11.3 13.5-24.7 5-9.3-5.9-8.5 16.2-19.8 5.1S1.6 44 4.3 48.7C9.9 58.5 20.5 65 32.5 65z" fill="url(#Oval-6-Copy-8_1_)"/></svg>