<svg id="图层_1" xmlns="http://www.w3.org/2000/svg" viewBox="0 0 65 65"><style>.st2{fill:#0776ff}.st3{fill:none;stroke:#0776ff;stroke-width:1.5;stroke-miterlimit:10}</style><radialGradient id="Oval-6-Copy-6_1_" cx="-265.449" cy="451.796" r=".637" gradientTransform="matrix(0 101.8666 101.0097 0 -45619.746 27034.969)" gradientUnits="userSpaceOnUse"><stop offset="0" stop-color="#0776ff"/><stop offset=".763" stop-color="#0089fb"/><stop offset="1" stop-color="#3f81ff"/></radialGradient><ellipse id="Oval-6-Copy-6_4_" cx="32.5" cy="32.5" rx="32.5" ry="32.5" fill="url(#Oval-6-Copy-6_1_)"/><g id="XMLID_10_"><path id="XMLID_21_" d="M44.8 46H20c-1.1 0-2-.9-2-2V17.6c0-1.1.9-2 2-2h24.8c1.1 0 2 .9 2 2V44c0 1.1-.9 2-2 2z" fill="#fff"/><path id="XMLID_13_" class="st2" d="M21.7 29c0-.5.4-.9.9-.9h5.6c.5 0 .9.4.9.9s-.4.9-.9.9h-5.6c-.5 0-.9-.4-.9-.9z"/><path id="XMLID_12_" class="st2" d="M21.9 22.9c0-.5.4-.9.9-.9h15.1c.5 0 .9.4.9.9s-.4.9-.9.9H22.8c-.5 0-.9-.4-.9-.9z"/><path id="XMLID_9_" class="st2" d="M21.7 34.6c0-.5.4-.9.9-.9h2.2c.5 0 .9.4.9.9s-.4.9-.9.9h-2.2c-.5 0-.9-.4-.9-.9z"/><path id="XMLID_11_" class="st3" d="M36.1 38.4c-2.5 0-4.5-2-4.5-4.5s2-4.5 4.5-4.5 4.5 2 4.5 4.5-2 4.5-4.5 4.5z"/><path id="XMLID_18_" class="st3" d="M39.4 36.7l4.1 3.9-4.1-3.9z"/></g><radialGradient id="Oval-6-Copy-8_1_" cx="-264.469" cy="455.635" r=".649" gradientTransform="matrix(34.6002 -46.4016 -46.0113 -34.8937 30161.727 3671.258)" gradientUnits="userSpaceOnUse"><stop offset="0" stop-color="#032aff" stop-opacity="0"/><stop offset="1" stop-color="#00bbfb" stop-opacity=".84"/></radialGradient><path id="Oval-6-Copy-8_4_" d="M32.5 65C50.4 65 65 50.5 65 32.5c0-1.3 0-1.9-.1-2.6-.1-.6-.1-1.3-.2-1.7-.9-2.2-1.3 11-8.3 11-17.8 0-11.3 13.5-24.7 5-9.3-5.9-8.5 16.2-19.8 5.1S1.6 44 4.3 48.7C9.9 58.5 20.5 65 32.5 65z" fill="url(#Oval-6-Copy-8_1_)"/><radialGradient id="Oval-6-Copy-7_1_" cx="-264.42" cy="455.347" r=".834" gradientTransform="matrix(34.3643 -47.4967 -47.0972 -34.6558 30572.576 3274.25)" gradientUnits="userSpaceOnUse"><stop offset="0" stop-color="#94adff" stop-opacity="0"/><stop offset="1" stop-color="#002dff" stop-opacity=".84"/></radialGradient><path id="Oval-6-Copy-7_4_" d="M32.5 64.8C50.4 64.8 65 50.3 65 32.4c0-1.3 0-1.9-.1-2.6-.1-.6-.1-1.3-.2-1.7-.9-2.2-3.4 1.1-14.5 4.3C34.3 37 34 47.3 29.2 50c-9.8 5.6-10.8 0-15.9-4.1-5.6-4.6-11.8-2-9.1 2.7 5.7 9.7 16.3 16.2 28.3 16.2z" fill="url(#Oval-6-Copy-7_1_)"/></svg>