<?xml version="1.0" encoding="utf-8"?>
<!-- Generator: Adobe Illustrator 21.0.0, SVG Export Plug-In . SVG Version: 6.00 Build 0)  -->
<svg version="1.1" id="图层_1" xmlns="http://www.w3.org/2000/svg" xmlns:xlink="http://www.w3.org/1999/xlink" x="0px" y="0px"
	 viewBox="0 0 52 52" style="enable-background:new 0 0 52 52;" xml:space="preserve">
<style type="text/css">
	.st0{fill:#E89450;}
	.st1{fill:#FFFFFF;}
</style>
<title>单据维护6</title>
<desc>Created with Sketch.</desc>
<g id="画板" transform="translate(-821.000000, -384.000000)">
	<g id="单据维护6" transform="translate(821.000000, 384.000000)">
		<path id="矩形" class="st0" d="M5,0h42c2.8,0,5,2.2,5,5v42c0,2.8-2.2,5-5,5H5c-2.8,0-5-2.2-5-5V5C0,2.2,2.2,0,5,0z"/>
		<path id="合并形状" class="st1" d="M10,14c0-1.1,0.9-2,2-2h15.8c0.7,0,1.4,0.4,1.8,1l2.2,4l8.3,0c1.1,0,2,0.9,2,2v18
			c0,1.1-0.9,2-2,2H12c-1.1,0-2-0.9-2-2V14z"/>
		<path id="矩形_1_" class="st0" d="M15.5,25h9c0.3,0,0.5,0.2,0.5,0.5v1c0,0.3-0.2,0.5-0.5,0.5h-9c-0.3,0-0.5-0.2-0.5-0.5v-1
			C15,25.2,15.2,25,15.5,25z"/>
		<path id="矩形_2_" class="st0" d="M19,12v8c-1-0.9-1.7-1.4-2-1.4c-0.3,0-1,0.5-2,1.4v-8H19z"/>
		<path id="矩形-copy-2" class="st0" d="M15.5,31h4c0.3,0,0.5,0.2,0.5,0.5v1c0,0.3-0.2,0.5-0.5,0.5h-4c-0.3,0-0.5-0.2-0.5-0.5v-1
			C15,31.2,15.2,31,15.5,31z"/>
		<path id="形状" class="st0" d="M33.8,23c2.9,0,2.9,2.2,2.9,3.5s-1.2,3.6-2.9,3.6c-1.7,0-2.9-2.3-2.9-3.6
			C30.8,25.2,30.8,23,33.8,23z M33.6,35.7c-2.2,0-4.2-1-5.6-2.6c0.2-0.5,0.4-1,0.8-1.3c0.7-0.6,2.9-1.5,2.9-1.5l1.4,2.6l0.2-0.6
			l-0.4-0.8l0.8-0.8l0.8,0.8l-0.3,0.8l0.2,0.6l1.4-2.6c0,0,2.2,1,2.9,1.5c0.3,0.2,0.6,0.7,0.7,1.1C38,34.6,35.9,35.7,33.6,35.7
			L33.6,35.7z"/>
	</g>
</g>
</svg>
