<?xml version="1.0" encoding="utf-8"?>
<!-- Generator: Adobe Illustrator 21.0.0, SVG Export Plug-In . SVG Version: 6.00 Build 0)  -->
<svg version="1.1" id="图层_1" xmlns="http://www.w3.org/2000/svg" xmlns:xlink="http://www.w3.org/1999/xlink" x="0px" y="0px"
	 viewBox="0 0 52 52" style="enable-background:new 0 0 52 52;" xml:space="preserve">
<style type="text/css">
	.st0{fill:#FFFFFF;}
	.st1{fill:#009788;}
</style>
<title>业务设置2</title>
<desc>Created with Sketch.</desc>
<g id="画板" transform="translate(-389.000000, -686.000000)">
	<g id="业务设置2" transform="translate(389.000000, 686.000000)">
		<path id="形状" class="st0" d="M28.8,27c0,0.3-0.2,0.6-0.5,0.6h-1c-0.1,0.2-0.2,0.6-0.4,0.9l0.7,0.6c0.2,0.2,0.2,0.6,0,0.8
			l-0.8,0.8c-0.2,0.2-0.5,0.2-0.8,0l-0.7-0.7c-0.3,0.2-0.7,0.3-0.9,0.4v1c0,0.3-0.3,0.5-0.6,0.5h-1.1c-0.3,0-0.6-0.2-0.6-0.5v-1
			c-0.2-0.1-0.6-0.2-0.9-0.4l-0.6,0.7c-0.2,0.2-0.6,0.2-0.8,0l-0.8-0.8c-0.2-0.2-0.2-0.5,0-0.8l0.7-0.7c-0.2-0.3-0.3-0.7-0.4-0.9h-1
			c-0.3,0-0.5-0.3-0.5-0.6v-1.1c0-0.3,0.2-0.6,0.5-0.6h1c0.1-0.2,0.2-0.6,0.4-0.9l-0.7-0.6c-0.2-0.2-0.2-0.6,0-0.8l0.8-0.8
			c0.2-0.2,0.5-0.2,0.8,0l0.7,0.7c0.3-0.2,0.7-0.3,0.9-0.4v-1c0-0.3,0.3-0.5,0.6-0.5H24c0.3,0,0.6,0.2,0.6,0.5v1
			c0.2,0.1,0.6,0.2,0.9,0.4l0.6-0.7c0.2-0.2,0.6-0.2,0.8,0l0.8,0.8c0.2,0.2,0.2,0.5,0,0.8l-0.7,0.7c0.2,0.3,0.3,0.7,0.4,0.9h1
			c0.3,0,0.5,0.3,0.5,0.6V27z M23.4,24c-1.3,0-2.4,1.1-2.4,2.4c0,1.3,1.1,2.4,2.4,2.4c1.3,0,2.4-1.1,2.4-2.4
			C25.8,25.1,24.8,24,23.4,24z"/>
		<path id="形状_1_" class="st0" d="M28.8,27c0,0.3-0.2,0.6-0.5,0.6h-1c-0.1,0.2-0.2,0.6-0.4,0.9l0.7,0.6c0.2,0.2,0.2,0.6,0,0.8
			l-0.8,0.8c-0.2,0.2-0.5,0.2-0.8,0l-0.7-0.7c-0.3,0.2-0.7,0.3-0.9,0.4v1c0,0.3-0.3,0.5-0.6,0.5h-1.1c-0.3,0-0.6-0.2-0.6-0.5v-1
			c-0.2-0.1-0.6-0.2-0.9-0.4l-0.6,0.7c-0.2,0.2-0.6,0.2-0.8,0l-0.8-0.8c-0.2-0.2-0.2-0.5,0-0.8l0.7-0.7c-0.2-0.3-0.3-0.7-0.4-0.9h-1
			c-0.3,0-0.5-0.3-0.5-0.6v-1.1c0-0.3,0.2-0.6,0.5-0.6h1c0.1-0.2,0.2-0.6,0.4-0.9l-0.7-0.6c-0.2-0.2-0.2-0.6,0-0.8l0.8-0.8
			c0.2-0.2,0.5-0.2,0.8,0l0.7,0.7c0.3-0.2,0.7-0.3,0.9-0.4v-1c0-0.3,0.3-0.5,0.6-0.5H24c0.3,0,0.6,0.2,0.6,0.5v1
			c0.2,0.1,0.6,0.2,0.9,0.4l0.6-0.7c0.2-0.2,0.6-0.2,0.8,0l0.8,0.8c0.2,0.2,0.2,0.5,0,0.8l-0.7,0.7c0.2,0.3,0.3,0.7,0.4,0.9h1
			c0.3,0,0.5,0.3,0.5,0.6V27z M23.4,24c-1.3,0-2.4,1.1-2.4,2.4c0,1.3,1.1,2.4,2.4,2.4c1.3,0,2.4-1.1,2.4-2.4
			C25.8,25.1,24.8,24,23.4,24z"/>
		<path id="矩形" class="st1" d="M5,0h42c2.8,0,5,2.2,5,5v42c0,2.8-2.2,5-5,5H5c-2.8,0-5-2.2-5-5V5C0,2.2,2.2,0,5,0z"/>
		<path id="矩形_1_" class="st0" d="M14,13h25c1.1,0,2,0.9,2,2v25c0,1.1-0.9,2-2,2H14c-1.1,0-2-0.9-2-2V15C12,13.9,12.9,13,14,13z
			"/>
		<rect id="矩形_2_" x="18" y="11" class="st1" width="17" height="6"/>
		<path id="合并形状" class="st0" d="M28.3,11c0.5,0,1,0.3,1.2,0.7l2.5,0c1.1,0,2,0.9,2,2V16H19v-2.3c0-1.1,0.9-2,2-2l2.5,0
			c0.2-0.4,0.7-0.7,1.2-0.7H28.3z"/>
		<circle id="椭圆形" class="st1" cx="26.5" cy="13.5" r="1.5"/>
		<path id="形状_2_" class="st1" d="M31,28.7c0,0.4-0.3,0.8-0.7,0.8h-1.2c-0.1,0.2-0.3,0.8-0.5,1.1l0.9,0.8c0.3,0.3,0.3,0.7,0,1
			l-1,1c-0.3,0.3-0.7,0.3-1,0l-0.8-0.9c-0.4,0.2-0.9,0.4-1.1,0.5v1.2c0,0.4-0.4,0.7-0.8,0.7h-1.4c-0.4,0-0.8-0.3-0.8-0.7v-1.2
			c-0.2-0.1-0.8-0.3-1.1-0.5l-0.8,0.9c-0.3,0.3-0.7,0.3-1,0l-1-1c-0.3-0.3-0.3-0.7,0-1l0.9-0.8c-0.2-0.4-0.4-0.9-0.5-1.1h-1.2
			c-0.4,0-0.7-0.4-0.7-0.8v-1.4c0-0.4,0.3-0.8,0.7-0.8h1.2c0.1-0.2,0.3-0.8,0.5-1.1l-0.9-0.8c-0.3-0.3-0.3-0.7,0-1l1-1
			c0.3-0.3,0.7-0.3,1,0l0.8,0.9c0.4-0.2,0.9-0.4,1.1-0.5v-1.2c0-0.4,0.4-0.7,0.8-0.7h1.4c0.4,0,0.8,0.3,0.8,0.7v1.2
			c0.2,0.1,0.8,0.3,1.1,0.5l0.8-0.9c0.3-0.3,0.7-0.3,1,0l1,1c0.3,0.3,0.3,0.7,0,1l-0.9,0.8c0.2,0.4,0.4,0.9,0.5,1.1h1.2
			c0.4,0,0.7,0.4,0.7,0.8V28.7z M24,25c-1.7,0-3,1.3-3,3c0,1.7,1.3,3,3,3c1.7,0,3-1.3,3-3C27,26.3,25.7,25,24,25z"/>
		<path id="形状_3_" class="st1" d="M36.8,32.8c0,0.2-0.2,0.4-0.3,0.4h-0.6c-0.1,0.1-0.1,0.4-0.2,0.6l0.4,0.4
			c0.1,0.1,0.1,0.4,0,0.5l-0.5,0.5c-0.1,0.1-0.3,0.1-0.5,0l-0.4-0.4c-0.2,0.1-0.4,0.2-0.6,0.2v0.6c0,0.2-0.2,0.3-0.4,0.3h-0.7
			c-0.2,0-0.4-0.2-0.4-0.3v-0.6c-0.1-0.1-0.4-0.1-0.6-0.2l-0.4,0.4c-0.1,0.1-0.4,0.1-0.5,0l-0.5-0.5c-0.1-0.1-0.1-0.3,0-0.5l0.4-0.4
			c-0.1-0.2-0.2-0.4-0.2-0.6h-0.6c-0.2,0-0.3-0.2-0.3-0.4v-0.7c0-0.2,0.2-0.4,0.3-0.4h0.6c0.1-0.1,0.1-0.4,0.2-0.6l-0.4-0.4
			c-0.1-0.1-0.1-0.4,0-0.5l0.5-0.5c0.1-0.1,0.3-0.1,0.5,0l0.4,0.4c0.2-0.1,0.4-0.2,0.6-0.2v-0.6c0-0.2,0.2-0.3,0.4-0.3h0.7
			c0.2,0,0.4,0.2,0.4,0.3v0.6c0.1,0.1,0.4,0.1,0.6,0.2l0.4-0.4c0.1-0.1,0.4-0.1,0.5,0l0.5,0.5c0.1,0.1,0.1,0.3,0,0.5l-0.4,0.4
			c0.1,0.2,0.2,0.4,0.2,0.6h0.6c0.2,0,0.3,0.2,0.3,0.4V32.8z M33.4,30.9c-0.8,0-1.5,0.7-1.5,1.5c0,0.8,0.7,1.5,1.5,1.5
			c0.8,0,1.5-0.7,1.5-1.5C34.9,31.6,34.3,30.9,33.4,30.9z"/>
	</g>
</g>
</svg>
