<?xml version="1.0" encoding="utf-8"?>
<!-- Generator: Adobe Illustrator 21.0.0, SVG Export Plug-In . SVG Version: 6.00 Build 0)  -->
<svg version="1.1" id="图层_1" xmlns="http://www.w3.org/2000/svg" xmlns:xlink="http://www.w3.org/1999/xlink" x="0px" y="0px"
	 viewBox="0 0 52 52" style="enable-background:new 0 0 52 52;" xml:space="preserve">
<style type="text/css">
	.st0{fill:#E9696F;}
	.st1{fill:#FFFFFF;}
	.st2{fill:#E9696F;stroke:#FFFFFF;stroke-width:1.5;}
</style>
<title>业务设置7</title>
<desc>Created with Sketch.</desc>
<g id="画板" transform="translate(-938.000000, -686.000000)">
	<g id="业务设置7" transform="translate(938.000000, 686.000000)">
		<path id="矩形" class="st0" d="M5,0h42c2.8,0,5,2.2,5,5v42c0,2.8-2.2,5-5,5H5c-2.8,0-5-2.2-5-5V5C0,2.2,2.2,0,5,0z"/>
		<path id="形状" class="st1" d="M26,22.4V12H14.3C13,12,12,12.9,12,14.1v24.9c0,1.1,1,2.1,2.3,2.1h23.3c1.3,0,2.3-0.9,2.3-2.1
			V24.1H28.3C26.7,24.1,26,23.6,26,22.4z"/>
		<path id="三角形" class="st1" d="M29.5,12.5l9.9,9c0.1,0.1,0.1,0.3,0,0.4C39.4,22,39.3,22,39.2,22H30c-0.6,0-1-0.4-1-1v-8.3
			c0-0.2,0.1-0.3,0.3-0.3C29.4,12.4,29.4,12.4,29.5,12.5z"/>
		<path id="路径" class="st2" d="M23.2,37.5h-1.4c-3.6,0-6.6-3-6.6-6.7V30c0-3.7,3-6.7,6.6-6.7h0.8v4.3h-0.8
			c-1.3,0-2.4,1.1-2.4,2.5v0.8c0,1.4,1.1,2.5,2.4,2.5h1.3l-0.6-1.6c-0.2-0.4,0-0.9,0.3-1.1c0.4-0.3,0.8-0.3,1.2,0l5.4,4.2
			c0.2,0.2,0.4,0.5,0.4,0.8c0,0.3-0.1,0.6-0.4,0.8L24,40.5c-0.2,0.1-0.4,0.2-0.6,0.2c-0.2,0-0.4-0.1-0.6-0.2
			c-0.3-0.3-0.5-0.7-0.3-1.1L23.2,37.5z"/>
	</g>
</g>
</svg>
