<?xml version="1.0" encoding="utf-8"?>
<!-- Generator: Adobe Illustrator 21.0.0, SVG Export Plug-In . SVG Version: 6.00 Build 0)  -->
<svg version="1.1" id="图层_1" xmlns="http://www.w3.org/2000/svg" xmlns:xlink="http://www.w3.org/1999/xlink" x="0px" y="0px"
	 viewBox="0 0 52 52" style="enable-background:new 0 0 52 52;" xml:space="preserve">
<style type="text/css">
	.st0{fill:#007ABC;}
	.st1{fill:#FFFFFF;}
</style>
<title>业务处理3</title>
<desc>Created with Sketch.</desc>
<g id="画板" transform="translate(-511.000000, -815.000000)">
	<g id="业务处理3" transform="translate(511.000000, 815.000000)">
		<path id="矩形" class="st0" d="M5,0h42c2.8,0,5,2.2,5,5v42c0,2.8-2.2,5-5,5H5c-2.8,0-5-2.2-5-5V5C0,2.2,2.2,0,5,0z"/>
		<path id="形状" class="st1" d="M32,23.6c-4.7,0-8.6,3.5-9.3,8h-4.5c-0.6,0-1.1-0.5-1.1-1.1V16.2h11.4c0.6,1.4,1.9,2.4,3.5,2.4
			c2.1,0,3.8-1.7,3.8-3.8S34.1,11,32,11c-1.6,0-2.9,1-3.5,2.4H10v2.8h4.2v14.3c0,2.2,1.8,3.9,3.9,3.9h4.5c0.7,4.5,4.6,8,9.3,8
			c5.2,0,9.4-4.2,9.4-9.4S37.2,23.6,32,23.6z M37.1,34c0,0.2-0.1,0.3-0.3,0.3h-3.4v3.4c0,0.2-0.1,0.3-0.3,0.3h-2
			c-0.2,0-0.3-0.1-0.3-0.3v-3.4h-3.4c-0.2,0-0.3-0.1-0.3-0.3v-2c0-0.2,0.1-0.3,0.3-0.3h3.4v-3.4c0-0.2,0.1-0.3,0.3-0.3h2
			c0.2,0,0.3,0.1,0.3,0.3v3.4h3.4c0.2,0,0.3,0.1,0.3,0.3V34z"/>
	</g>
</g>
</svg>
