<?xml version="1.0" encoding="utf-8"?>
<!-- Generator: Adobe Illustrator 21.0.0, SVG Export Plug-In . SVG Version: 6.00 Build 0)  -->
<svg version="1.1" id="图层_1" xmlns="http://www.w3.org/2000/svg" xmlns:xlink="http://www.w3.org/1999/xlink" x="0px" y="0px"
	 viewBox="0 0 52 52" style="enable-background:new 0 0 52 52;" xml:space="preserve">
<style type="text/css">
	.st0{fill:#E9696F;}
	.st1{fill:#FFFFFF;}
</style>
<title>报表查询7</title>
<desc>Created with Sketch.</desc>
<g id="画板" transform="translate(-938.000000, -222.000000)">
	<g id="报表查询7" transform="translate(938.000000, 222.000000)">
		<path id="矩形" class="st0" d="M5,0h42c2.8,0,5,2.2,5,5v42c0,2.8-2.2,5-5,5H5c-2.8,0-5-2.2-5-5V5C0,2.2,2.2,0,5,0z"/>
		<path id="形状" class="st1" d="M22.3,32.3c-0.1-0.1-0.1-0.1-0.2-0.1c0.7-1.1,1.2-2.5,1.2-3.9c0-4-3.2-7.2-7.2-7.2
			c-4,0-7.2,3.2-7.2,7.2c0,4,3.2,7.2,7.2,7.2c1.4,0,2.8-0.4,3.9-1.2c0,0.1,0.1,0.1,0.1,0.2l3.7,3.7c0.1,0.1,0.6,0.8,1.7-0.2
			c1.1-0.9,0.5-1.6,0.3-1.8L22.3,32.3z M16.2,33.2c-2.7,0-4.9-2.2-4.9-4.9c0-2.7,2.2-4.9,4.9-4.9s4.9,2.2,4.9,4.9
			C21.1,30.9,18.9,33.2,16.2,33.2"/>
		<path id="矩形_1_" class="st1" d="M11.5,12h29c0.3,0,0.5,0.2,0.5,0.5v4c0,0.3-0.2,0.5-0.5,0.5h-29c-0.3,0-0.5-0.2-0.5-0.5v-4
			C11,12.2,11.2,12,11.5,12z"/>
		<path id="矩形_2_" class="st1" d="M26.5,21h14c0.3,0,0.5,0.2,0.5,0.5v2c0,0.3-0.2,0.5-0.5,0.5h-14c-0.3,0-0.5-0.2-0.5-0.5v-2
			C26,21.2,26.2,21,26.5,21z"/>
		<path id="矩形_3_" class="st1" d="M26.5,28h14c0.3,0,0.5,0.2,0.5,0.5v2c0,0.3-0.2,0.5-0.5,0.5h-14c-0.3,0-0.5-0.2-0.5-0.5v-2
			C26,28.2,26.2,28,26.5,28z"/>
		<path id="矩形_4_" class="st1" d="M29.5,35h11c0.3,0,0.5,0.2,0.5,0.5v2c0,0.3-0.2,0.5-0.5,0.5h-11c-0.3,0-0.5-0.2-0.5-0.5v-2
			C29,35.2,29.2,35,29.5,35z"/>
	</g>
</g>
</svg>
