<?xml version="1.0" encoding="utf-8"?>
<!-- Generator: Adobe Illustrator 21.0.0, SVG Export Plug-In . SVG Version: 6.00 Build 0)  -->
<svg version="1.1" id="图层_1" xmlns="http://www.w3.org/2000/svg" xmlns:xlink="http://www.w3.org/1999/xlink" x="0px" y="0px"
	 viewBox="0 0 52 52" style="enable-background:new 0 0 52 52;" xml:space="preserve">
<style type="text/css">
	.st0{fill:#FFFFFF;}
	.st1{fill:#319FD6;}
</style>
<title>单据维护1</title>
<desc>Created with Sketch.</desc>
<g id="单据维护1" transform="translate(274.000000, 384.000000)">
	<g id="业务设置2">
		<path id="形状" class="st0" d="M-245.2-357c0,0.3-0.2,0.6-0.5,0.6h-1c-0.1,0.2-0.2,0.6-0.4,0.9l0.7,0.6c0.2,0.2,0.2,0.6,0,0.8
			l-0.8,0.8c-0.2,0.2-0.5,0.2-0.8,0l-0.7-0.7c-0.3,0.2-0.7,0.3-0.9,0.4v1c0,0.3-0.3,0.5-0.6,0.5h-1.1c-0.3,0-0.6-0.2-0.6-0.5v-1
			c-0.2-0.1-0.6-0.2-0.9-0.4l-0.6,0.7c-0.2,0.2-0.6,0.2-0.8,0l-0.8-0.8c-0.2-0.2-0.2-0.5,0-0.8l0.7-0.7c-0.2-0.3-0.3-0.7-0.4-0.9h-1
			c-0.3,0-0.5-0.3-0.5-0.6v-1.1c0-0.3,0.2-0.6,0.5-0.6h1c0.1-0.2,0.2-0.6,0.4-0.9l-0.7-0.6c-0.2-0.2-0.2-0.6,0-0.8l0.8-0.8
			c0.2-0.2,0.5-0.2,0.8,0l0.7,0.7c0.3-0.2,0.7-0.3,0.9-0.4v-1c0-0.3,0.3-0.5,0.6-0.5h1.1c0.3,0,0.6,0.2,0.6,0.5v1
			c0.2,0.1,0.6,0.2,0.9,0.4l0.6-0.7c0.2-0.2,0.6-0.2,0.8,0l0.8,0.8c0.2,0.2,0.2,0.5,0,0.8l-0.7,0.7c0.2,0.3,0.3,0.7,0.4,0.9h1
			c0.3,0,0.5,0.3,0.5,0.6V-357z M-250.6-360c-1.3,0-2.4,1.1-2.4,2.4c0,1.3,1.1,2.4,2.4,2.4c1.3,0,2.4-1.1,2.4-2.4
			C-248.2-358.9-249.2-360-250.6-360z"/>
		<path id="形状_1_" class="st0" d="M-245.2-357c0,0.3-0.2,0.6-0.5,0.6h-1c-0.1,0.2-0.2,0.6-0.4,0.9l0.7,0.6
			c0.2,0.2,0.2,0.6,0,0.8l-0.8,0.8c-0.2,0.2-0.5,0.2-0.8,0l-0.7-0.7c-0.3,0.2-0.7,0.3-0.9,0.4v1c0,0.3-0.3,0.5-0.6,0.5h-1.1
			c-0.3,0-0.6-0.2-0.6-0.5v-1c-0.2-0.1-0.6-0.2-0.9-0.4l-0.6,0.7c-0.2,0.2-0.6,0.2-0.8,0l-0.8-0.8c-0.2-0.2-0.2-0.5,0-0.8l0.7-0.7
			c-0.2-0.3-0.3-0.7-0.4-0.9h-1c-0.3,0-0.5-0.3-0.5-0.6v-1.1c0-0.3,0.2-0.6,0.5-0.6h1c0.1-0.2,0.2-0.6,0.4-0.9l-0.7-0.6
			c-0.2-0.2-0.2-0.6,0-0.8l0.8-0.8c0.2-0.2,0.5-0.2,0.8,0l0.7,0.7c0.3-0.2,0.7-0.3,0.9-0.4v-1c0-0.3,0.3-0.5,0.6-0.5h1.1
			c0.3,0,0.6,0.2,0.6,0.5v1c0.2,0.1,0.6,0.2,0.9,0.4l0.6-0.7c0.2-0.2,0.6-0.2,0.8,0l0.8,0.8c0.2,0.2,0.2,0.5,0,0.8l-0.7,0.7
			c0.2,0.3,0.3,0.7,0.4,0.9h1c0.3,0,0.5,0.3,0.5,0.6V-357z M-250.6-360c-1.3,0-2.4,1.1-2.4,2.4c0,1.3,1.1,2.4,2.4,2.4
			c1.3,0,2.4-1.1,2.4-2.4C-248.2-358.9-249.2-360-250.6-360z"/>
		<path id="矩形" class="st1" d="M-269-384h42c2.8,0,5,2.2,5,5v42c0,2.8-2.2,5-5,5h-42c-2.8,0-5-2.2-5-5v-42
			C-274-381.8-271.8-384-269-384z"/>
		<path id="矩形_1_" class="st0" d="M-260-372h24c1.1,0,2,0.9,2,2v24c0,1.1-0.9,2-2,2h-24c-1.1,0-2-0.9-2-2v-24
			C-262-371.1-261.1-372-260-372z"/>
		<path id="形状_2_" class="st1" d="M-240.2-360.4l-1.4,1.4l-3.4-3.4l1.4-1.4c0.5-0.5,1,0,1,0l2.4,2.4
			C-240.2-361.4-239.7-360.9-240.2-360.4z M-255-349l4-0.7l-3.3-3.3L-255-349z M-250.3-350l8.3-8.3l-3.7-3.7l-8.3,8.3L-250.3-350z"
			/>
		<rect id="矩形_2_" x="-258" y="-375" class="st1" width="20" height="8"/>
		<path id="合并形状" class="st0" d="M-254-374h12c1.1,0,2,0.9,2,2v4l0,0h-16v-4C-256-373.1-255.1-374-254-374z"/>
	</g>
</g>
</svg>
