<?xml version="1.0" encoding="utf-8"?>
<!-- Generator: Adobe Illustrator 21.0.0, SVG Export Plug-In . SVG Version: 6.00 Build 0)  -->
<svg version="1.1" id="图层_1" xmlns="http://www.w3.org/2000/svg" xmlns:xlink="http://www.w3.org/1999/xlink" x="0px" y="0px"
	 viewBox="0 0 52 52" style="enable-background:new 0 0 52 52;" xml:space="preserve">
<style type="text/css">
	.st0{fill:#319FD6;}
	.st1{fill:#FFFFFF;}
</style>
<title>业务设置1</title>
<desc>Created with Sketch.</desc>
<g id="画板" transform="translate(-274.000000, -686.000000)">
	<g id="业务设置1" transform="translate(274.000000, 686.000000)">
		<path id="矩形" class="st0" d="M5,0h42c2.8,0,5,2.2,5,5v42c0,2.8-2.2,5-5,5H5c-2.8,0-5-2.2-5-5V5C0,2.2,2.2,0,5,0z"/>
		<path id="合并形状" class="st1" d="M40,12c1.1,0,2,0.9,2,2v16.7l-1.3-0.5c-1.5-0.5-3.1,0.1-3.7,1.5l-0.1,0.2l-0.8,1.9
			c0,0,0,0.1,0,0.1c-0.3,0.8-0.2,1.5,0.1,2.2l0,0l-5.6,0c-1.4,0-2.5,1.1-2.5,2.5l0,0v0.8c0,0.2,0,0.4,0.1,0.6L12,40
			c-1.1,0-2-0.9-2-2V14c0-1.1,0.9-2,2-2H40z"/>
		<path id="矩形_1_" class="st0" d="M16,17h6c0.6,0,1,0.4,1,1v1c0,0.6-0.4,1-1,1h-6c-0.6,0-1-0.4-1-1v-1C15,17.4,15.4,17,16,17z"
			/>
		<path id="矩形_2_" class="st0" d="M16,24h17c0.6,0,1,0.4,1,1v1c0,0.6-0.4,1-1,1H16c-0.6,0-1-0.4-1-1v-1C15,24.4,15.4,24,16,24z"
			/>
		<path id="矩形_3_" class="st0" d="M16,31h7c0.6,0,1,0.4,1,1v1c0,0.6-0.4,1-1,1h-7c-0.6,0-1-0.4-1-1v-1C15,31.4,15.4,31,16,31z"
			/>
		<path id="路径" class="st1" d="M31,38.5v1c0,0.3,0.1,0.5,0.2,0.7c0.2,0.2,0.4,0.3,0.6,0.3h9.3l-2.2,2.3
			c-0.2,0.2-0.3,0.4-0.3,0.7c0,0.3,0.1,0.5,0.3,0.7l0.6,0.6c0.2,0.2,0.4,0.3,0.7,0.3c0.3,0,0.5-0.1,0.7-0.3l4.9-5
			c0.2-0.2,0.3-0.4,0.3-0.7c0-0.3-0.1-0.5-0.3-0.7l-4.9-5c-0.2-0.2-0.4-0.3-0.7-0.3c-0.3,0-0.5,0.1-0.7,0.3l-0.6,0.6
			c-0.2,0.2-0.3,0.4-0.3,0.7s0.1,0.5,0.3,0.7l2.2,2.3h-9.3c-0.3,0-0.5,0.1-0.6,0.3C31.1,38,31,38.2,31,38.5z"/>
	</g>
</g>
</svg>
