<?xml version="1.0" encoding="utf-8"?>
<!-- Generator: Adobe Illustrator 21.0.0, SVG Export Plug-In . SVG Version: 6.00 Build 0)  -->
<svg version="1.1" id="图层_1" xmlns="http://www.w3.org/2000/svg" xmlns:xlink="http://www.w3.org/1999/xlink" x="0px" y="0px"
	 viewBox="0 0 52 52" style="enable-background:new 0 0 52 52;" xml:space="preserve">
<style type="text/css">
	.st0{fill:#009788;}
	.st1{fill:#FFFFFF;}
</style>
<title>单据维护2</title>
<desc>Created with Sketch.</desc>
<g id="画板" transform="translate(-389.000000, -384.000000)">
	<g id="单据维护2" transform="translate(389.000000, 384.000000)">
		<path id="矩形" class="st0" d="M5,0h42c2.8,0,5,2.2,5,5v42c0,2.8-2.2,5-5,5H5c-2.8,0-5-2.2-5-5V5C0,2.2,2.2,0,5,0z"/>
		<g id="编组-4" transform="translate(13.000000, 12.000000)">
			<path id="形状结合" class="st1" d="M13,0v10.3c0,1.2,0.6,1.7,2.2,1.7l0,0H26v14.8c0,1.1-1,2.1-2.2,2.1l0,0l-8.8,0
				c1.1-1.3,2.9-3.2,3.4-3.9c1.7,1.2,4,1.1,5.5-0.5l0.3-0.3c1.3-1.3,1.3-4,1.3-5.3c0-0.4-0.3-0.2-0.3-0.2l-0.1,0.1
				c-0.4,0.4-2.2,2.2-2.4,2.4c-0.2,0.2-1,0.2-1,0.2l-0.1,0c-0.4,0-2-0.3-2.3-0.5c-0.3-0.3-0.5-2.5-0.5-2.5s-0.1-0.6,0.2-0.9l0.4-0.4
				c0.7-0.7,2.1-2.1,2.1-2.1s0.3-0.3-0.1-0.3c-1.3,0-4,0-5.3,1.3l-0.3,0.3c-1.5,1.5-1.6,3.8-0.5,5.5l-5.1,4.5
				c-0.4,0.4-0.9,1.5-0.7,2.5l-7.4,0C1,28.9,0,28,0,26.8l0,0V2.1C0,0.9,1,0,2.2,0l0,0H13z"/>
			<polygon id="路径" class="st0" points="10.6,6.8 8,6.3 6.7,3.9 5.5,6.3 2.9,6.8 4.7,8.8 4.4,11.6 6.7,10.4 9.1,11.6 8.8,8.8 
							"/>
			<path id="路径_1_" class="st1" d="M13,28.2c-0.4,0-0.8-0.4-0.8-0.8c0-0.4,0.4-0.8,0.8-0.8c0.4,0,0.8,0.4,0.8,0.8
				C13.8,27.9,13.4,28.2,13,28.2z"/>
			<path id="三角形" class="st1" d="M15.9,0.5l9.5,8.7c0.1,0.1,0.1,0.3,0,0.4c-0.1,0.1-0.1,0.1-0.2,0.1h-8.8c-0.6,0-1-0.4-1-1v-8
				c0-0.2,0.1-0.3,0.3-0.3C15.8,0.4,15.9,0.4,15.9,0.5z"/>
		</g>
	</g>
</g>
</svg>
