<?xml version="1.0" encoding="utf-8"?>
<!-- Generator: Adobe Illustrator 21.0.0, SVG Export Plug-In . SVG Version: 6.00 Build 0)  -->
<svg version="1.1" id="图层_1" xmlns="http://www.w3.org/2000/svg" xmlns:xlink="http://www.w3.org/1999/xlink" x="0px" y="0px"
	 viewBox="0 0 52 52" style="enable-background:new 0 0 52 52;" xml:space="preserve">
<style type="text/css">
	.st0{fill:#54698D;}
	.st1{fill:#FFFFFF;}
</style>
<title>icon-ywsz4</title>
<desc>Created with Sketch.</desc>
<g id="画板" transform="translate(-614.000000, -686.000000)">
	<g id="icon-ywsz4" transform="translate(614.000000, 686.000000)">
		<path id="矩形" class="st0" d="M5,0h42c2.8,0,5,2.2,5,5v42c0,2.8-2.2,5-5,5H5c-2.8,0-5-2.2-5-5V5C0,2.2,2.2,0,5,0z"/>
		<g id="分组-2" transform="translate(11.000000, 12.000000)">
			<path id="合并形状" class="st1" d="M12.9,0c3.7,0,6.7,3.7,6.7,8.3c0,3-2.9,6.2-3.2,7c-0.2,0.8-0.3,1.4,0,1.7
				c0.1,0.1,0.2,0.1,0.2,0.2c-2,1.9-3.3,4.6-3.3,7.5c0,0.3,0,0.7,0.1,1l-10.9,0C1.1,25.8,0,25,0,23.6l0,0V23c0-1.3,0.9-2.4,2.1-2.8
				l0,0l5.1-2.3c0,0,1.4-0.4,1.8-0.9c0.3-0.3,0.3-1.2,0-1.8c-0.3-0.6-2.9-4-2.9-6.8C6.1,3.7,9.2,0,12.9,0z"/>
			<circle id="椭圆形-copy" class="st1" cx="24.3" cy="24.3" r="7.7"/>
			<path id="路径" class="st0" d="M29.9,22.9c-0.1-0.3-0.5-0.5-0.8-0.2L27,24.8c-0.3,0.3-0.8,0.3-1.1,0l-1.1-1.1
				c-0.3-0.3-0.3-0.8,0-1.1l2.1-2.1c0.3-0.3,0.1-0.7-0.2-0.8c-1.3-0.2-2.6,0.1-3.6,1.1c-1.1,1.1-1.4,2.6-1,4c0.1,0.2,0,0.5-0.1,0.6
				l-2.2,2.2c-0.3,0.3-0.3,0.8,0,1.1l1.1,1.1c0.3,0.3,0.8,0.3,1.1,0l2.2-2.2c0.2-0.2,0.4-0.2,0.6-0.1c1.4,0.4,2.9,0.1,3.9-1
				C29.7,25.4,30.1,24.1,29.9,22.9z"/>
		</g>
	</g>
</g>
</svg>
