<?xml version="1.0" encoding="utf-8"?>
<!-- Generator: Adobe Illustrator 21.0.0, SVG Export Plug-In . SVG Version: 6.00 Build 0)  -->
<svg version="1.1" id="图层_1" xmlns="http://www.w3.org/2000/svg" xmlns:xlink="http://www.w3.org/1999/xlink" x="0px" y="0px"
	 viewBox="0 0 52 52" style="enable-background:new 0 0 52 52;" xml:space="preserve">
<style type="text/css">
	.st0{fill:#007ABC;}
	.st1{fill:#FFFFFF;}
</style>
<title>基础档案3</title>
<desc>Created with Sketch.</desc>
<g id="画板" transform="translate(-511.000000, -540.000000)">
	<g id="基础档案3" transform="translate(511.000000, 540.000000)">
		<path id="矩形" class="st0" d="M5,0h42c2.8,0,5,2.2,5,5v42c0,2.8-2.2,5-5,5H5c-2.8,0-5-2.2-5-5V5C0,2.2,2.2,0,5,0z"/>
		<g id="编组" transform="translate(10.000000, 13.000000)">
			<path id="形状" class="st1" d="M27.4,5c0-1.7-1.6-1.7-1.6-1.7L6.2,1.2c0,0-1.6,0-1.6,1.7v3.8h22.7V5z M30.6,6.7l-1-1v2.7H2.3
				V5.7l-1,1c-1,1-1.7,1.2-1.3,3.3s2.2,13.4,2.5,15c0.3,1.7,2,1.7,2,1.7h22.8c0,0,1.7,0,2-1.7c0.3-1.6,2.1-12.9,2.6-15
				C32.3,7.9,31.6,7.6,30.6,6.7L30.6,6.7z M22.5,15.6c0,0,0,1.7-1.6,1.7h-9.8c-1.6,0-1.6-1.7-1.6-1.7v-3.3h2.3v2.7h8.4v-2.7h2.3
				L22.5,15.6L22.5,15.6z"/>
			<path id="路径-copy" class="st1" d="M25.5,0c0,0,1.3,0,1.3,1.3v1.3L9.4,1.1C9.4,1.1,9.3,1,9.3,1c0,0,0-0.1,0.1-0.1L25.5,0
				L25.5,0z"/>
		</g>
	</g>
</g>
</svg>
