<?xml version="1.0" encoding="utf-8"?>
<!-- Generator: Adobe Illustrator 21.0.0, SVG Export Plug-In . SVG Version: 6.00 Build 0)  -->
<svg version="1.1" id="图层_1" xmlns="http://www.w3.org/2000/svg" xmlns:xlink="http://www.w3.org/1999/xlink" x="0px" y="0px"
	 viewBox="0 0 52 52" style="enable-background:new 0 0 52 52;" xml:space="preserve">
<style type="text/css">
	.st0{fill:#E89450;}
	.st1{fill:#FFFFFF;}
</style>
<title>报表查询6</title>
<desc>Created with Sketch.</desc>
<g id="画板" transform="translate(-821.000000, -222.000000)">
	<g id="报表查询6" transform="translate(821.000000, 222.000000)">
		<path id="矩形" class="st0" d="M5,0h42c2.8,0,5,2.2,5,5v42c0,2.8-2.2,5-5,5H5c-2.8,0-5-2.2-5-5V5C0,2.2,2.2,0,5,0z"/>
		<path id="合并形状" class="st1" d="M14,12h24c1.1,0,2,0.9,2,2v24c0,1.1-0.9,2-2,2H14c-1.1,0-2-0.9-2-2V14
			C12,12.9,12.9,12,14,12z"/>
		<path id="形状" class="st0" d="M34.5,33.3c0,0,0-0.1,0-0.1c0.7-0.2,1.4-0.6,1.9-1.2c1.4-1.6,1.3-4-0.3-5.5
			c-1.6-1.4-4-1.3-5.4,0.3c-1.4,1.6-1.3,4,0.3,5.5c0.6,0.5,1.3,0.8,2,0.9c0,0,0,0.1,0,0.1l0.2,2.8c0,0.1,0,0.5,0.8,0.6
			c0.8,0,0.8-0.5,0.8-0.6L34.5,33.3z M31.8,31.4c-1.1-1-1.2-2.6-0.2-3.7c1-1.1,2.7-1.2,3.7-0.2c1.1,1,1.2,2.6,0.2,3.7
			C34.5,32.3,32.8,32.4,31.8,31.4"/>
		<polygon id="路径" class="st0" points="23,19.1 20.3,18.5 19,16 17.7,18.5 15,19.1 16.9,21.2 16.5,24 19,22.8 21.5,24 
			21.1,21.2 		"/>
		<path id="合并形状-copy-2" class="st0" d="M16.5,28h9c0.3,0,0.5,0.2,0.5,0.5v1c0,0.3-0.2,0.5-0.5,0.5h-9
			c-0.3,0-0.5-0.2-0.5-0.5v-1C16,28.2,16.2,28,16.5,28z"/>
		<path id="合并形状-copy-2_1_" class="st0" d="M16.5,33h11c0.3,0,0.5,0.2,0.5,0.5v1c0,0.3-0.2,0.5-0.5,0.5h-11
			c-0.3,0-0.5-0.2-0.5-0.5v-1C16,33.2,16.2,33,16.5,33z"/>
		<path id="合并形状-copy-3" class="st0" d="M25.5,19h10c0.3,0,0.5,0.2,0.5,0.5v1c0,0.3-0.2,0.5-0.5,0.5h-10
			c-0.3,0-0.5-0.2-0.5-0.5v-1C25,19.2,25.2,19,25.5,19z"/>
	</g>
</g>
</svg>
