<?xml version="1.0" encoding="utf-8"?>
<!-- Generator: Adobe Illustrator 21.0.0, SVG Export Plug-In . SVG Version: 6.00 Build 0)  -->
<svg version="1.1" id="图层_1" xmlns="http://www.w3.org/2000/svg" xmlns:xlink="http://www.w3.org/1999/xlink" x="0px" y="0px"
	 viewBox="0 0 52 52" style="enable-background:new 0 0 52 52;" xml:space="preserve">
<style type="text/css">
	.st0{fill:#54698D;}
	.st1{fill:#FFFFFF;}
	.st2{fill:#54698D;stroke:#FFFFFF;}
</style>
<title>业务处理4</title>
<desc>Created with Sketch.</desc>
<g id="画板" transform="translate(-614.000000, -815.000000)">
	<g id="业务处理4" transform="translate(614.000000, 815.000000)">
		<path id="矩形" class="st0" d="M5,0h42c2.8,0,5,2.2,5,5v42c0,2.8-2.2,5-5,5H5c-2.8,0-5-2.2-5-5V5C0,2.2,2.2,0,5,0z"/>
		<path id="路径" class="st1" d="M37.4,21.6c0-0.1,0-0.2,0-0.3c0-5.1-4.2-9.3-9.3-9.3c-3.7,0-6.9,2.2-8.4,5.3
			c-0.6-0.3-1.4-0.5-2.2-0.5c-2.4,0-4.3,1.7-4.7,4C10,21.7,8,24.4,8,27.6c0,4,3.2,7.2,7.2,7.2h22.2v0c3.6,0,6.6-3,6.6-6.6
			C44,24.5,41.1,21.6,37.4,21.6z"/>
		<path id="形状" class="st2" d="M27.5,36.7c-6.2-1-9.8-4.9-11-10.6L16,23.9l1.4,1.8c2.3,3,5.5,4.5,10.1,4.6v-4.5l8.2,7.7
			l-8.2,7.7V36.7z"/>
	</g>
</g>
</svg>
