<?xml version="1.0" encoding="utf-8"?>
<!-- Generator: Adobe Illustrator 21.0.0, SVG Export Plug-In . SVG Version: 6.00 Build 0)  -->
<svg version="1.1" id="图层_1" xmlns="http://www.w3.org/2000/svg" xmlns:xlink="http://www.w3.org/1999/xlink" x="0px" y="0px"
	 viewBox="0 0 52 52" style="enable-background:new 0 0 52 52;" xml:space="preserve">
<style type="text/css">
	.st0{fill:#FFFFFF;}
	.st1{fill:#4B8B45;}
</style>
<title>报表查询5</title>
<desc>Created with Sketch.</desc>
<g id="画板" transform="translate(-719.000000, -222.000000)">
	<g id="报表查询5" transform="translate(719.000000, 222.000000)">
		<path id="形状" class="st0" d="M28.8,27c0,0.3-0.2,0.6-0.5,0.6h-1c-0.1,0.2-0.2,0.6-0.4,0.9l0.7,0.6c0.2,0.2,0.2,0.6,0,0.8
			l-0.8,0.8c-0.2,0.2-0.5,0.2-0.8,0l-0.7-0.7c-0.3,0.2-0.7,0.3-0.9,0.4v1c0,0.3-0.3,0.5-0.6,0.5h-1.1c-0.3,0-0.6-0.2-0.6-0.5v-1
			c-0.2-0.1-0.6-0.2-0.9-0.4l-0.6,0.7c-0.2,0.2-0.6,0.2-0.8,0l-0.8-0.8c-0.2-0.2-0.2-0.5,0-0.8l0.7-0.7c-0.2-0.3-0.3-0.7-0.4-0.9h-1
			c-0.3,0-0.5-0.3-0.5-0.6v-1.1c0-0.3,0.2-0.6,0.5-0.6h1c0.1-0.2,0.2-0.6,0.4-0.9l-0.7-0.6c-0.2-0.2-0.2-0.6,0-0.8l0.8-0.8
			c0.2-0.2,0.5-0.2,0.8,0l0.7,0.7c0.3-0.2,0.7-0.3,0.9-0.4v-1c0-0.3,0.3-0.5,0.6-0.5H24c0.3,0,0.6,0.2,0.6,0.5v1
			c0.2,0.1,0.6,0.2,0.9,0.4l0.6-0.7c0.2-0.2,0.6-0.2,0.8,0l0.8,0.8c0.2,0.2,0.2,0.5,0,0.8l-0.7,0.7c0.2,0.3,0.3,0.7,0.4,0.9h1
			c0.3,0,0.5,0.3,0.5,0.6V27z M23.4,24c-1.3,0-2.4,1.1-2.4,2.4c0,1.3,1.1,2.4,2.4,2.4c1.3,0,2.4-1.1,2.4-2.4
			C25.8,25.1,24.8,24,23.4,24z"/>
		<path id="形状_1_" class="st0" d="M28.8,27c0,0.3-0.2,0.6-0.5,0.6h-1c-0.1,0.2-0.2,0.6-0.4,0.9l0.7,0.6c0.2,0.2,0.2,0.6,0,0.8
			l-0.8,0.8c-0.2,0.2-0.5,0.2-0.8,0l-0.7-0.7c-0.3,0.2-0.7,0.3-0.9,0.4v1c0,0.3-0.3,0.5-0.6,0.5h-1.1c-0.3,0-0.6-0.2-0.6-0.5v-1
			c-0.2-0.1-0.6-0.2-0.9-0.4l-0.6,0.7c-0.2,0.2-0.6,0.2-0.8,0l-0.8-0.8c-0.2-0.2-0.2-0.5,0-0.8l0.7-0.7c-0.2-0.3-0.3-0.7-0.4-0.9h-1
			c-0.3,0-0.5-0.3-0.5-0.6v-1.1c0-0.3,0.2-0.6,0.5-0.6h1c0.1-0.2,0.2-0.6,0.4-0.9l-0.7-0.6c-0.2-0.2-0.2-0.6,0-0.8l0.8-0.8
			c0.2-0.2,0.5-0.2,0.8,0l0.7,0.7c0.3-0.2,0.7-0.3,0.9-0.4v-1c0-0.3,0.3-0.5,0.6-0.5H24c0.3,0,0.6,0.2,0.6,0.5v1
			c0.2,0.1,0.6,0.2,0.9,0.4l0.6-0.7c0.2-0.2,0.6-0.2,0.8,0l0.8,0.8c0.2,0.2,0.2,0.5,0,0.8l-0.7,0.7c0.2,0.3,0.3,0.7,0.4,0.9h1
			c0.3,0,0.5,0.3,0.5,0.6V27z M23.4,24c-1.3,0-2.4,1.1-2.4,2.4c0,1.3,1.1,2.4,2.4,2.4c1.3,0,2.4-1.1,2.4-2.4
			C25.8,25.1,24.8,24,23.4,24z"/>
		<path id="矩形" class="st1" d="M5,0h42c2.8,0,5,2.2,5,5v42c0,2.8-2.2,5-5,5H5c-2.8,0-5-2.2-5-5V5C0,2.2,2.2,0,5,0z"/>
		<path id="合并形状" class="st0" d="M38,12c1.1,0,2,0.9,2,2l0,1.5c-3.1,2.7-8,4.5-13.5,4.5C20.4,20,15,17.8,12,14.5l0-0.5
			c0-1.1,0.9-2,2-2H38z"/>
		<path id="合并形状_1_" class="st0" d="M26.5,21.2c5.5,0,10.4-1.7,13.5-4.2L40,38c0,1.1-0.9,2-2,2H14c-1.1,0-2-0.9-2-2l0-22
			C15,19.1,20.4,21.2,26.5,21.2z"/>
		<path id="形状_2_" class="st1" d="M37.5,37c0,0-0.1-0.1-0.1-0.1c0.5-0.8,0.8-1.8,0.8-2.8c0-2.8-2.3-5.1-5.1-5.1
			c-2.8,0-5.1,2.3-5.1,5.1c0,2.8,2.3,5.1,5.1,5.1c1,0,2-0.3,2.8-0.8c0,0,0.1,0.1,0.1,0.1l2.6,2.6c0,0,0.5,0.5,1.2-0.1
			c0.8-0.7,0.4-1.1,0.2-1.2L37.5,37z M33.1,37.6c-1.9,0-3.5-1.6-3.5-3.5c0-1.9,1.6-3.5,3.5-3.5s3.5,1.6,3.5,3.5
			C36.6,36.1,35,37.6,33.1,37.6"/>
		<path id="矩形_1_" class="st1" d="M16.5,25h16c0.3,0,0.5,0.2,0.5,0.5v1c0,0.3-0.2,0.5-0.5,0.5h-16c-0.3,0-0.5-0.2-0.5-0.5v-1
			C16,25.2,16.2,25,16.5,25z"/>
		<path id="矩形_2_" class="st1" d="M16.5,31h9c0.3,0,0.5,0.2,0.5,0.5v1c0,0.3-0.2,0.5-0.5,0.5h-9c-0.3,0-0.5-0.2-0.5-0.5v-1
			C16,31.2,16.2,31,16.5,31z"/>
		<circle id="椭圆形" class="st1" cx="26" cy="20" r="3"/>
	</g>
</g>
</svg>
