<?xml version="1.0" encoding="utf-8"?>
<!-- Generator: Adobe Illustrator 21.0.0, SVG Export Plug-In . SVG Version: 6.00 Build 0)  -->
<svg version="1.1" id="图层_1" xmlns="http://www.w3.org/2000/svg" xmlns:xlink="http://www.w3.org/1999/xlink" x="0px" y="0px"
	 viewBox="0 0 52 52" style="enable-background:new 0 0 52 52;" xml:space="preserve">
<style type="text/css">
	.st0{fill:#54698D;}
	.st1{fill:#FFFFFF;}
</style>
<title>单据维护4</title>
<desc>Created with Sketch.</desc>
<g id="画板" transform="translate(-614.000000, -384.000000)">
	<g id="单据维护4" transform="translate(614.000000, 384.000000)">
		<path id="矩形" class="st0" d="M5,0h42c2.8,0,5,2.2,5,5v42c0,2.8-2.2,5-5,5H5c-2.8,0-5-2.2-5-5V5C0,2.2,2.2,0,5,0z"/>
		<path id="形状" class="st1" d="M23.7,24.3c7.5,0,13.7-2,13.7-4.4v-3.5c0-2.4-6.1-4.4-13.7-4.4S10,14,10,16.4v3.5
			C10,22.3,16.1,24.3,23.7,24.3z M44.1,28.9c0,0-2,1.7-2.2,1.9c-0.2,0.2-0.8,0.1-0.8,0.1s-1.7-0.3-1.9-0.6S39,28.2,39,28.2
			s0-0.5,0.3-0.7l2.2-1.9c0,0,0.3-0.2-0.1-0.3C40.3,25.2,38.1,25,37,26l-0.2,0.2c-1.4,1.2-1.6,3.1-0.7,4.6l-6.7,5.2
			c-0.5,0.5-1.3,1.8-0.3,3.1c1,1.3,2.4,0.7,3,0.3c0,0,6.2-5.9,6.1-5.9l0,0c1.3,1.2,3.2,1.3,4.5,0.1l0.2-0.2c1.1-1,1.3-3.2,1.4-4.3
			C44.4,28.7,44.1,28.9,44.1,28.9L44.1,28.9z M30.8,38.5c-0.5,0-0.9-0.4-0.9-0.9s0.4-0.9,0.9-0.9c0.5,0,0.9,0.4,0.9,0.9
			S31.3,38.5,30.8,38.5z M28,34.7c-1.3,0.1-2.8,0.2-4.3,0.2c-7.5,0-13.7-2-13.7-4.4v5.3c0,2.4,6.1,4.4,13.7,4.4c1,0,2.1,0,3-0.1
			c-0.1-0.1-0.2-0.2-0.3-0.3c-1.4-1.4-0.6-3.1,0-3.7L28,34.7L28,34.7z M23.7,32.2c2.8,0,5.5-0.3,7.7-0.8l2.6-2.4
			c-0.7-1-1-2.2-0.8-3.4c-2.5,0.8-5.8,1.2-9.5,1.2C16.1,27,10,25,10,22.6v5.3C10,30.3,16.1,32.2,23.7,32.2z"/>
	</g>
</g>
</svg>
