<?xml version="1.0" encoding="utf-8"?>
<!-- Generator: Adobe Illustrator 21.0.0, SVG Export Plug-In . SVG Version: 6.00 Build 0)  -->
<svg version="1.1" id="图层_1" xmlns="http://www.w3.org/2000/svg" xmlns:xlink="http://www.w3.org/1999/xlink" x="0px" y="0px"
	 viewBox="0 0 52 52" style="enable-background:new 0 0 52 52;" xml:space="preserve">
<style type="text/css">
	.st0{fill:#007ABC;}
	.st1{fill:#FFFFFF;}
</style>
<title>单据维护3</title>
<desc>Created with Sketch.</desc>
<g id="画板" transform="translate(-501.000000, -384.000000)">
	<g id="单据维护3" transform="translate(501.000000, 384.000000)">
		<path id="矩形" class="st0" d="M5,0h42c2.8,0,5,2.2,5,5v42c0,2.8-2.2,5-5,5H5c-2.8,0-5-2.2-5-5V5C0,2.2,2.2,0,5,0z"/>
		<path id="合并形状" class="st1" d="M12.9,32.3L26,37.8l1.7-0.7c0.3,0.9,0.8,1.7,1.4,2.4l-2.7,1.1c-0.1,0.1-0.4,0.1-0.5,0.1
			c-0.3,0-0.4,0-0.5-0.1l-13.5-5.7c-0.5-0.3-0.9-0.8-0.9-1.3c0-0.8,0.6-1.4,1.4-1.4C12.6,32.2,12.8,32.2,12.9,32.3z M12.9,25
			L26,30.3l1.9-0.8c-0.5,1.1-0.8,2.3-0.9,3.5l-0.5,0.2c-0.1,0.1-0.4,0.1-0.5,0.1c-0.3,0-0.4,0-0.5-0.1l-13.6-5.7
			c-0.5-0.3-0.9-0.8-0.9-1.3c0-0.8,0.6-1.4,1.4-1.4C12.6,24.8,12.8,24.8,12.9,25z M26.5,12.1l13.6,5.7c0.5,0.3,0.9,0.8,0.9,1.3
			c0,0.5-0.4,1-0.9,1.3l-13.6,5.7c-0.1,0.1-0.3,0.1-0.4,0.1l-0.1,0c-0.3,0-0.4,0-0.5-0.1l-13.6-5.7c-0.5-0.3-0.9-0.8-0.9-1.3
			c0-0.5,0.4-1.1,0.9-1.3l13.6-5.7c0.1-0.1,0.3-0.1,0.4-0.1l0.1,0C26.3,12,26.4,12,26.5,12.1z"/>
		<path id="形状" class="st1" d="M38,25c-4.4,0-8,3.6-8,8s3.6,8,8,8s8-3.6,8-8S42.4,25,38,25z M44.1,30.3c0.4,0.8,0.6,1.7,0.6,2.7
			s-0.2,1.8-0.6,2.7h-3c0.1-0.8,0.2-1.7,0.2-2.7s-0.1-1.8-0.2-2.7H44.1z M36,33c0-1,0.1-1.9,0.2-2.7h3.6C39.9,31.1,40,32,40,33
			s-0.1,1.9-0.2,2.7h-3.6C36.1,34.9,36,34,36,33L36,33z M43.3,29h-2.5c-0.3-1-0.7-1.9-1.2-2.5C41.1,26.9,42.4,27.8,43.3,29L43.3,29z
			 M38,27c0.6,0,1.1,0.8,1.5,2h-3C36.9,27.8,37.4,27,38,27z M36.4,26.5c-0.5,0.6-0.9,1.4-1.2,2.5h-2.5
			C33.6,27.8,34.9,26.9,36.4,26.5L36.4,26.5z M31.9,30.3h3c-0.1,0.8-0.2,1.7-0.2,2.7s0.1,1.8,0.2,2.7h-3c-0.4-0.8-0.6-1.7-0.6-2.7
			C31.3,32.1,31.5,31.2,31.9,30.3L31.9,30.3z M32.7,37h2.5c0.3,1,0.7,1.9,1.2,2.5C34.9,39.1,33.6,38.2,32.7,37z M38,39
			c-0.6,0-1.1-0.8-1.5-2h3C39.1,38.2,38.6,39,38,39z M39.6,39.5c0.5-0.6,0.9-1.4,1.2-2.5h2.5C42.4,38.2,41.1,39.1,39.6,39.5
			L39.6,39.5z"/>
	</g>
</g>
</svg>
