<?xml version="1.0" encoding="utf-8"?>
<!-- Generator: Adobe Illustrator 21.0.0, SVG Export Plug-In . SVG Version: 6.00 Build 0)  -->
<svg version="1.1" id="图层_1" xmlns="http://www.w3.org/2000/svg" xmlns:xlink="http://www.w3.org/1999/xlink" x="0px" y="0px"
	 viewBox="0 0 52 52" style="enable-background:new 0 0 52 52;" xml:space="preserve">
<style type="text/css">
	.st0{fill:#E89450;}
	.st1{fill:#FFFFFF;}
</style>
<title>业务处理6</title>
<desc>Created with Sketch.</desc>
<g id="画板" transform="translate(-821.000000, -815.000000)">
	<g id="业务处理6" transform="translate(821.000000, 815.000000)">
		<g id="业务设置3-copy">
			<path id="矩形" class="st0" d="M5,0h42c2.8,0,5,2.2,5,5v42c0,2.8-2.2,5-5,5H5c-2.8,0-5-2.2-5-5V5C0,2.2,2.2,0,5,0z"/>
			<path id="合并形状" class="st1" d="M16.8,36l0-17c0-1.1,0.9-2,2-2l0,0H36v-3c0-1.1-0.9-2-2-2H12c-1.1,0-2,0.9-2,2v20
				c0,1.1,0.9,2,2,2H16.8z"/>
			<path id="合并形状_1_" class="st1" d="M39,18c1.1,0,2,0.9,2,2v14.3l-11,0c-0.5,0-0.9,0.4-1,0.9l0,0.1V40h-9c-1.1,0-2-0.9-2-2
				V20c0-1.1,0.9-2,2-2H39z"/>
			<path id="合并形状_2_" class="st0" d="M23.5,23h12c0.3,0,0.5,0.2,0.5,0.5v1c0,0.3-0.2,0.5-0.5,0.5h-12
				c-0.3,0-0.5-0.2-0.5-0.5v-1C23,23.2,23.2,23,23.5,23z"/>
			<path id="合并形状-copy-2" class="st0" d="M23.5,28h8c0.3,0,0.5,0.2,0.5,0.5v1c0,0.3-0.2,0.5-0.5,0.5h-8
				c-0.3,0-0.5-0.2-0.5-0.5v-1C23,28.2,23.2,28,23.5,28z"/>
			<path id="合并形状-copy-3" class="st0" d="M23.5,33h3c0.3,0,0.5,0.2,0.5,0.5v1c0,0.3-0.2,0.5-0.5,0.5h-3
				c-0.3,0-0.5-0.2-0.5-0.5v-1C23,33.2,23.2,33,23.5,33z"/>
		</g>
		<circle id="椭圆形" class="st1" cx="32.5" cy="37.5" r="1.5"/>
		<circle id="椭圆形-copy-3" class="st1" cx="38.5" cy="37.5" r="1.5"/>
	</g>
</g>
</svg>
