<?xml version="1.0" encoding="utf-8"?>
<!-- Generator: Adobe Illustrator 21.0.0, SVG Export Plug-In . SVG Version: 6.00 Build 0)  -->
<svg version="1.1" id="图层_1" xmlns="http://www.w3.org/2000/svg" xmlns:xlink="http://www.w3.org/1999/xlink" x="0px" y="0px"
	 viewBox="0 0 52 52" style="enable-background:new 0 0 52 52;" xml:space="preserve">
<style type="text/css">
	.st0{fill:#E9696F;}
	.st1{fill:#FFFFFF;}
</style>
<title>单据维护7</title>
<desc>Created with Sketch.</desc>
<g id="画板" transform="translate(-938.000000, -384.000000)">
	<g id="单据维护7" transform="translate(938.000000, 384.000000)">
		<path id="矩形" class="st0" d="M5,0h42c2.8,0,5,2.2,5,5v42c0,2.8-2.2,5-5,5H5c-2.8,0-5-2.2-5-5V5C0,2.2,2.2,0,5,0z"/>
		<path id="合并形状" class="st1" d="M39,12c1.1,0,2,0.9,2,2l0,12.1c-1-0.4-2.1-0.6-3.2-0.6c-5,0-9,3.9-9,8.7
			c0,2.7,1.3,5.2,3.3,6.8L13,41c-1.1,0-2-0.9-2-2V14c0-1.1,0.9-2,2-2H39z"/>
		<path id="形状" class="st1" d="M43.2,29.4h-2.2v-0.8c0-0.4-0.3-0.8-0.7-0.8h-3c-0.4,0-0.7,0.3-0.7,0.8v0.8h-2.2
			c-0.8,0-1.5,0.7-1.5,1.5v1.9h11.8v-1.9C44.6,30,44,29.4,43.2,29.4z M37.3,29.4V29c0-0.2,0.2-0.4,0.4-0.4h2.2
			c0.2,0,0.4,0.2,0.4,0.4l0,0.4H37.3z M39.5,33.9c0-0.1,0-0.3-0.1-0.4h-1.3C38,33.6,38,33.8,38,33.9c0,0.4,0.3,0.8,0.7,0.8
			C39.1,34.6,39.5,34.3,39.5,33.9L39.5,33.9z M40.2,33.9c0,0.8-0.7,1.5-1.5,1.5c-0.8,0-1.5-0.7-1.5-1.5c0-0.1,0-0.3,0.1-0.4h-4.5
			v4.1c0,0.8,0.7,1.5,1.5,1.5h8.9c0.8,0,1.5-0.7,1.5-1.5v-4.1h-4.5C40.2,33.6,40.2,33.8,40.2,33.9z"/>
		<path id="形状_1_" class="st0" d="M20.8,20c2.9,0,2.9,2.2,2.9,3.5s-1.2,3.6-2.9,3.6c-1.7,0-2.9-2.3-2.9-3.6
			C17.8,22.2,17.8,20,20.8,20z M20.6,32.7c-2.2,0-4.2-1-5.6-2.6c0.2-0.5,0.4-1,0.8-1.3c0.7-0.6,2.9-1.5,2.9-1.5l1.4,2.6l0.2-0.6
			l-0.4-0.8l0.8-0.8l0.8,0.8l-0.3,0.8l0.2,0.6l1.4-2.6c0,0,2.2,1,2.9,1.5c0.3,0.2,0.6,0.7,0.7,1.1C25,31.6,22.9,32.7,20.6,32.7
			L20.6,32.7z"/>
		<path id="矩形_1_" class="st0" d="M29,17h7c0.6,0,1,0.4,1,1v0.9c0,0.6-0.4,1-1,1h-7c-0.6,0-1-0.4-1-1V18C28,17.4,28.4,17,29,17z
			"/>
	</g>
</g>
</svg>
