<?xml version="1.0" encoding="utf-8"?>
<!-- Generator: Adobe Illustrator 21.0.0, SVG Export Plug-In . SVG Version: 6.00 Build 0)  -->
<svg version="1.1" id="图层_1" xmlns="http://www.w3.org/2000/svg" xmlns:xlink="http://www.w3.org/1999/xlink" x="0px" y="0px"
	 viewBox="0 0 52 52" style="enable-background:new 0 0 52 52;" xml:space="preserve">
<style type="text/css">
	.st0{fill:#E9696F;}
	.st1{fill:#FFFFFF;}
</style>
<title>基础档案7</title>
<desc>Created with Sketch.</desc>
<g id="画板" transform="translate(-938.000000, -540.000000)">
	<g id="基础档案7" transform="translate(938.000000, 540.000000)">
		<path id="矩形" class="st0" d="M5,0h42c2.8,0,5,2.2,5,5v42c0,2.8-2.2,5-5,5H5c-2.8,0-5-2.2-5-5V5C0,2.2,2.2,0,5,0z"/>
		<path id="矩形_1_" class="st1" d="M12,12h28c1.1,0,2,0.9,2,2v25c0,1.1-0.9,2-2,2H12c-1.1,0-2-0.9-2-2V14C10,12.9,10.9,12,12,12z
			"/>
		<path id="矩形_2_" class="st0" d="M15,20h22c0.6,0,1,0.4,1,1v15c0,0.6-0.4,1-1,1H15c-0.6,0-1-0.4-1-1V21C14,20.4,14.4,20,15,20z
			"/>
		<path id="矩形_3_" class="st1" d="M18,23h2c0.6,0,1,0.4,1,1v1c0,0.6-0.4,1-1,1h-2c-0.6,0-1-0.4-1-1v-1C17,23.4,17.4,23,18,23z"
			/>
		<path id="矩形_4_" class="st1" d="M25,23h9c0.6,0,1,0.4,1,1v1c0,0.6-0.4,1-1,1h-9c-0.6,0-1-0.4-1-1v-1C24,23.4,24.4,23,25,23z"
			/>
		<path id="矩形-copy-3" class="st1" d="M18,29h16c0.6,0,1,0.4,1,1v8c0,0.6-0.4,1-1,1H18c-0.6,0-1-0.4-1-1v-8
			C17,29.4,17.4,29,18,29z"/>
		<circle id="椭圆形" class="st0" cx="30.5" cy="15.5" r="1.5"/>
		<circle id="椭圆形_1_" class="st0" cx="36.5" cy="15.5" r="1.5"/>
	</g>
</g>
</svg>
