<?xml version="1.0" encoding="utf-8"?>
<!-- Generator: Adobe Illustrator 21.0.0, SVG Export Plug-In . SVG Version: 6.00 Build 0)  -->
<svg version="1.1" id="图层_1" xmlns="http://www.w3.org/2000/svg" xmlns:xlink="http://www.w3.org/1999/xlink" x="0px" y="0px"
	 viewBox="0 0 52 52" style="enable-background:new 0 0 52 52;" xml:space="preserve">
<style type="text/css">
	.st0{fill:#009788;}
	.st1{fill:#FFFFFF;}
	.st2{fill:#007ABC;}
</style>
<title>基础档案2</title>
<desc>Created with Sketch.</desc>
<g id="画板" transform="translate(-389.000000, -540.000000)">
	<g id="基础档案2" transform="translate(389.000000, 540.000000)">
		<path id="矩形" class="st0" d="M5,0h42c2.8,0,5,2.2,5,5v42c0,2.8-2.2,5-5,5H5c-2.8,0-5-2.2-5-5V5C0,2.2,2.2,0,5,0z"/>
		<path id="矩形_1_" class="st1" d="M12,12h28c1.1,0,2,0.9,2,2v25c0,1.1-0.9,2-2,2H12c-1.1,0-2-0.9-2-2V14C10,12.9,10.9,12,12,12z
			"/>
		<path id="矩形-copy" class="st2" d="M33,30h4c0.6,0,1,0.4,1,1v3c0,0.6-0.4,1-1,1h-4c-0.6,0-1-0.4-1-1v-3C32,30.4,32.4,30,33,30z
			"/>
		<path id="矩形_2_" class="st0" d="M27,15h10c0.6,0,1,0.4,1,1v1c0,0.6-0.4,1-1,1H27c-0.6,0-1-0.4-1-1v-1C26,15.4,26.4,15,27,15z"
			/>
		<path id="矩形_3_" class="st0" d="M15,20h22c0.6,0,1,0.4,1,1v15c0,0.6-0.4,1-1,1H15c-0.6,0-1-0.4-1-1V21C14,20.4,14.4,20,15,20z
			"/>
		<path id="矩形_4_" class="st1" d="M30,24h4c0.6,0,1,0.4,1,1v1c0,0.6-0.4,1-1,1h-4c-0.6,0-1-0.4-1-1v-1C29,24.4,29.4,24,30,24z"
			/>
		<path id="矩形_5_" class="st1" d="M30,30h4c0.6,0,1,0.4,1,1v1c0,0.6-0.4,1-1,1h-4c-0.6,0-1-0.4-1-1v-1C29,30.4,29.4,30,30,30z"
			/>
		<circle id="椭圆形" class="st0" cx="15.5" cy="16.5" r="1.5"/>
		<circle id="椭圆形_1_" class="st0" cx="21.5" cy="16.5" r="1.5"/>
		<path id="路径" class="st1" d="M25.3,30.2l-1.8-0.7c0,0-0.3-0.1-0.5-0.3c-0.1-0.1-0.1-0.3,0-0.5c0.1-0.2,1-1.3,1-2.2
			c0-1.4-0.9-2.6-2.1-2.6c-1.2,0-2.1,1.2-2.1,2.6c0,0.9,0.8,1.9,0.9,2.1c0.1,0.2,0.1,0.5,0,0.6c-0.1,0.1-0.6,0.3-0.6,0.3l-1.6,0.7
			c-0.4,0.1-0.7,0.5-0.7,0.9v0.2c0,0.4,0.4,0.7,0.8,0.7h2.7h0.9h2.8c0.4,0,0.8-0.3,0.8-0.7v-0.2C26,30.7,25.7,30.4,25.3,30.2
			L25.3,30.2z"/>
	</g>
</g>
</svg>
