<?xml version="1.0" encoding="utf-8"?>
<!-- Generator: Adobe Illustrator 21.0.0, SVG Export Plug-In . SVG Version: 6.00 Build 0)  -->
<svg version="1.1" id="图层_1" xmlns="http://www.w3.org/2000/svg" xmlns:xlink="http://www.w3.org/1999/xlink" x="0px" y="0px"
	 viewBox="0 0 52 52" style="enable-background:new 0 0 52 52;" xml:space="preserve">
<style type="text/css">
	.st0{fill:#E89450;}
	.st1{fill:#FFFFFF;}
</style>
<title>业务设置6</title>
<desc>Created with Sketch.</desc>
<g id="画板" transform="translate(-821.000000, -686.000000)">
	<g id="业务设置6" transform="translate(821.000000, 686.000000)">
		<path id="矩形" class="st0" d="M5,0h42c2.8,0,5,2.2,5,5v42c0,2.8-2.2,5-5,5H5c-2.8,0-5-2.2-5-5V5C0,2.2,2.2,0,5,0z"/>
		<path id="合并形状" class="st1" d="M37.9,36l0-21c0-1.1-0.9-2-2-2l0,0l-18.9,0V13c0-1.1,0.9-2,2-2h20c1.1,0,2,0.9,2,2v21
			c0,1.1-0.9,2-2,2H37.9z"/>
		<path id="合并形状_1_" class="st1" d="M13,15h20c1.1,0,2,0.9,2,2v21c0,1.1-0.9,2-2,2H13c-1.1,0-2-0.9-2-2V17
			C11,15.9,11.9,15,13,15z"/>
		<path id="形状" class="st0" d="M30,28.3c0,0.4-0.3,0.9-0.8,0.9h-1.3c-0.1,0.3-0.3,0.8-0.5,1.2l0.9,0.9c0.3,0.3,0.3,0.8,0,1.1
			l-1.1,1.1c-0.3,0.3-0.8,0.3-1.1,0l-0.9-0.9c-0.4,0.2-1,0.4-1.2,0.5v1.3c0,0.4-0.4,0.8-0.9,0.8h-1.5c-0.4,0-0.9-0.3-0.9-0.8v-1.3
			c-0.3-0.1-0.8-0.3-1.2-0.5l-0.9,0.9c-0.3,0.3-0.8,0.3-1.1,0l-1.1-1.1c-0.3-0.3-0.3-0.8,0-1.1l0.9-0.9c-0.2-0.4-0.4-1-0.5-1.2h-1.3
			c-0.4,0-0.8-0.4-0.8-0.9v-1.5c0-0.4,0.3-0.9,0.8-0.9h1.3c0.1-0.3,0.3-0.8,0.5-1.2l-0.9-0.9c-0.3-0.3-0.3-0.8,0-1.1l1.1-1.1
			c0.3-0.3,0.8-0.3,1.1,0l0.9,0.9c0.4-0.2,1-0.4,1.2-0.5v-1.3c0-0.4,0.4-0.8,0.9-0.8h1.5c0.4,0,0.9,0.3,0.9,0.8v1.3
			c0.3,0.1,0.8,0.3,1.2,0.5l0.9-0.9c0.3-0.3,0.8-0.3,1.1,0l1.1,1.1c0.3,0.3,0.3,0.8,0,1.1l-0.9,0.9c0.2,0.4,0.4,1,0.5,1.2h1.3
			c0.4,0,0.8,0.4,0.8,0.9V28.3z M22.5,24.3c-1.8,0-3.2,1.4-3.2,3.2c0,1.8,1.4,3.2,3.2,3.2c1.8,0,3.2-1.4,3.2-3.2
			C25.7,25.7,24.3,24.3,22.5,24.3z"/>
		<path id="形状_1_" class="st0" d="M25,27.8v-0.6c0-0.1,0-0.2-0.1-0.2c-0.1-0.1-0.1-0.1-0.2-0.1h-1.6v-1.6c0-0.1,0-0.2-0.1-0.2
			C23,25,22.9,25,22.8,25h-0.6c-0.1,0-0.2,0-0.2,0.1c-0.1,0.1-0.1,0.1-0.1,0.2v1.6h-1.6c-0.1,0-0.2,0-0.2,0.1C20,27,20,27.1,20,27.2
			v0.6c0,0.1,0,0.2,0.1,0.2c0.1,0.1,0.1,0.1,0.2,0.1h1.6v1.6c0,0.1,0,0.2,0.1,0.2C22,30,22.1,30,22.2,30h0.6c0.1,0,0.2,0,0.2-0.1
			c0.1-0.1,0.1-0.1,0.1-0.2v-1.6h1.6c0.1,0,0.2,0,0.2-0.1C25,28,25,27.9,25,27.8L25,27.8z"/>
	</g>
</g>
</svg>
