<?xml version="1.0" encoding="utf-8"?>
<!-- Generator: Adobe Illustrator 21.0.0, SVG Export Plug-In . SVG Version: 6.00 Build 0)  -->
<svg version="1.1" id="图层_1" xmlns="http://www.w3.org/2000/svg" xmlns:xlink="http://www.w3.org/1999/xlink" x="0px" y="0px"
	 viewBox="0 0 52 52" style="enable-background:new 0 0 52 52;" xml:space="preserve">
<style type="text/css">
	.st0{fill:#319FD6;}
	.st1{fill:#FFFFFF;}
</style>
<title>报表查询1</title>
<desc>Created with Sketch.</desc>
<g id="_x32_004方案">
	<g id="画板" transform="translate(-274.000000, -222.000000)">
		<g id="报表查询1" transform="translate(274.000000, 222.000000)">
			<path id="矩形" class="st0" d="M5,0h42c2.8,0,5,2.2,5,5v42c0,2.8-2.2,5-5,5H5c-2.8,0-5-2.2-5-5V5C0,2.2,2.2,0,5,0z"/>
			<path id="合并形状" class="st1" d="M39,12c1.1,0,2,0.9,2,2l0,13.1c-1.2-0.6-2.5-1-3.9-1l0-4.6c0-0.6-0.4-1-1-1l0,0H14.9
				c-0.6,0-1,0.4-1,1l0,0v13.9c0,0.6,0.4,1,1,1l0,0l12.7,0c0.2,1.4,0.8,2.6,1.6,3.7L12,40c-1.1,0-2-0.9-2-2V14c0-1.1,0.9-2,2-2H39z"
				/>
			<path id="形状" class="st1" d="M41.8,39c0,0-0.1-0.1-0.1-0.1c0.6-1,1-2.2,1-3.5c0-3.5-2.8-6.4-6.3-6.4c-3.5,0-6.3,2.9-6.3,6.4
				c0,3.5,2.8,6.4,6.3,6.4c1.3,0,2.5-0.4,3.4-1c0,0,0.1,0.1,0.1,0.1l3.3,3.2c0.1,0.1,0.6,0.7,1.5-0.2s0.4-1.4,0.3-1.6L41.8,39z
				 M36.3,39.8c-2.4,0-4.3-2-4.3-4.4c0-2.4,1.9-4.4,4.3-4.4s4.3,2,4.3,4.4C40.7,37.8,38.7,39.8,36.3,39.8"/>
			<path id="矩形_1_" class="st1" d="M18,24h12c0.6,0,1,0.4,1,1v1c0,0.6-0.4,1-1,1H18c-0.6,0-1-0.4-1-1v-1C17,24.4,17.4,24,18,24z
				"/>
			<path id="矩形_2_" class="st1" d="M18,30h9c0.6,0,1,0.4,1,1v1c0,0.6-0.4,1-1,1h-9c-0.6,0-1-0.4-1-1v-1C17,30.4,17.4,30,18,30z"
				/>
			<circle id="椭圆形" class="st0" cx="15.5" cy="16.5" r="1.5"/>
			<circle id="椭圆形_1_" class="st0" cx="21.5" cy="16.5" r="1.5"/>
		</g>
	</g>
</g>
</svg>
