<?xml version="1.0" encoding="utf-8"?>
<!-- Generator: Adobe Illustrator 21.0.0, SVG Export Plug-In . SVG Version: 6.00 Build 0)  -->
<svg version="1.1" id="图层_1" xmlns="http://www.w3.org/2000/svg" xmlns:xlink="http://www.w3.org/1999/xlink" x="0px" y="0px"
	 viewBox="0 0 52 52" style="enable-background:new 0 0 52 52;" xml:space="preserve">
<style type="text/css">
	.st0{fill:#E9696F;}
	.st1{fill:#FFFFFF;}
</style>
<title>业务处理7</title>
<desc>Created with Sketch.</desc>
<g id="画板" transform="translate(-938.000000, -815.000000)">
	<g id="业务处理7" transform="translate(938.000000, 815.000000)">
		<path id="矩形" class="st0" d="M5,0h42c2.8,0,5,2.2,5,5v42c0,2.8-2.2,5-5,5H5c-2.8,0-5-2.2-5-5V5C0,2.2,2.2,0,5,0z"/>
		<path id="矩形_1_" class="st1" d="M11,13h25c0.6,0,1,0.4,1,1v3c0,0.6-0.4,1-1,1H11c-0.6,0-1-0.4-1-1v-3C10,13.4,10.4,13,11,13z"
			/>
		<path id="矩形_2_" class="st1" d="M11,23h16c0.6,0,1,0.4,1,1v3c0,0.6-0.4,1-1,1H11c-0.6,0-1-0.4-1-1v-3C10,23.4,10.4,23,11,23z"
			/>
		<path id="矩形_3_" class="st1" d="M11,33h12c0.6,0,1,0.4,1,1v3c0,0.6-0.4,1-1,1H11c-0.6,0-1-0.4-1-1v-3C10,33.4,10.4,33,11,33z"
			/>
		<g id="对号" transform="translate(28.000000, 25.000000)">
			<circle id="椭圆形" class="st1" cx="7.5" cy="7.5" r="7.5"/>
			<path id="路径" class="st0" d="M12,5.3c0,0.2-0.1,0.3-0.2,0.4L7.6,9.8l-0.8,0.8c-0.1,0.1-0.2,0.2-0.4,0.2
				c-0.2,0-0.3-0.1-0.4-0.2L5.3,9.8L3.2,7.8C3.1,7.7,3,7.5,3,7.4C3,7.2,3.1,7.1,3.2,7L4,6.2c0.1-0.1,0.2-0.2,0.4-0.2
				c0.2,0,0.3,0.1,0.4,0.2l1.7,1.7l3.8-3.7C10.4,4.1,10.5,4,10.7,4c0.2,0,0.3,0.1,0.4,0.2l0.8,0.8C11.9,5,12,5.2,12,5.3z"/>
		</g>
	</g>
</g>
</svg>
