<?xml version="1.0" encoding="utf-8"?>
<!-- Generator: Adobe Illustrator 21.0.0, SVG Export Plug-In . SVG Version: 6.00 Build 0)  -->
<svg version="1.1" id="图层_1" xmlns="http://www.w3.org/2000/svg" xmlns:xlink="http://www.w3.org/1999/xlink" x="0px" y="0px"
	 viewBox="0 0 52 52" style="enable-background:new 0 0 52 52;" xml:space="preserve">
<style type="text/css">
	.st0{fill:#E89450;}
	.st1{fill:#FFFFFF;}
</style>
<title>业务设置6备份</title>
<desc>Created with Sketch.</desc>
<g id="画板" transform="translate(-821.000000, -540.000000)">
	<g id="业务设置6备份" transform="translate(821.000000, 540.000000)">
		<path id="矩形" class="st0" d="M5,0h42c2.8,0,5,2.2,5,5v42c0,2.8-2.2,5-5,5H5c-2.8,0-5-2.2-5-5V5C0,2.2,2.2,0,5,0z"/>
		<g id="编组-3" transform="translate(12.000000, 12.000000)">
			<path id="形状结合" class="st1" d="M26,0c1.1,0,2,0.9,2,2v14.9l-1-2c-0.2-0.5-0.7-0.9-1.3-0.9l-0.1,0c-0.6,0-1.2,0.4-1.5,0.9
				l0,0l-1.8,3.5L18.4,19c-0.6,0.1-1.1,0.5-1.3,1.1l0,0l0,0c-0.2,0.6,0,1.2,0.4,1.6l0,0l2.8,2.6L19.6,28c0,0,0,0,0,0L5,28.1V0H26z"
				/>
			<path id="合并形状" class="st0" d="M18,0h5v7.5c-1.1-1.1-1.9-1.7-2.5-1.7S19.1,6.4,18,7.5V0z"/>
			<path id="合并形状_1_" class="st1" d="M2,0h1l0,0v28.1H2c-1.1,0-2-0.9-2-2V2C0,0.9,0.9,0,2,0z"/>
			<path id="路径" class="st1" d="M28.3,28c-0.2,0-0.3,0-0.5-0.1l-2.3-1.2l-2.3,1.2C23,27.9,22.9,28,22.7,28
				c-0.2,0-0.4-0.1-0.6-0.2c-0.3-0.3-0.5-0.7-0.4-1.1l0.5-2.6l-1.8-1.8c-0.3-0.3-0.4-0.7-0.3-1.1l0,0c0.1-0.4,0.5-0.7,0.9-0.8
				l2.5-0.5l1.1-2.4c0.2-0.4,0.6-0.6,0.9-0.6c0.4,0,0.8,0.3,0.9,0.6l1.1,2.4l2.5,0.5c0.4,0.1,0.7,0.4,0.8,0.8c0.1,0.4,0,0.8-0.3,1.1
				l0,0l-1.8,1.8l0.5,2.6c0.1,0.4-0.1,0.8-0.4,1.1C28.7,27.9,28.5,28,28.3,28z"/>
		</g>
	</g>
</g>
</svg>
