<?xml version="1.0" encoding="utf-8"?>
<!-- Generator: Adobe Illustrator 21.0.0, SVG Export Plug-In . SVG Version: 6.00 Build 0)  -->
<svg version="1.1" id="图层_1" xmlns="http://www.w3.org/2000/svg" xmlns:xlink="http://www.w3.org/1999/xlink" x="0px" y="0px"
	 viewBox="0 0 52 52" style="enable-background:new 0 0 52 52;" xml:space="preserve">
<style type="text/css">
	.st0{fill:#FFFFFF;}
	.st1{fill:#4B8B45;}
</style>
<title>单据维护5</title>
<desc>Created with Sketch.</desc>
<g id="画板" transform="translate(-719.000000, -384.000000)">
	<g id="单据维护5" transform="translate(719.000000, 384.000000)">
		<path id="形状" class="st0" d="M28.8,27c0,0.3-0.2,0.6-0.5,0.6h-1c-0.1,0.2-0.2,0.6-0.4,0.9l0.7,0.6c0.2,0.2,0.2,0.6,0,0.8
			l-0.8,0.8c-0.2,0.2-0.5,0.2-0.8,0l-0.7-0.7c-0.3,0.2-0.7,0.3-0.9,0.4v1c0,0.3-0.3,0.5-0.6,0.5h-1.1c-0.3,0-0.6-0.2-0.6-0.5v-1
			c-0.2-0.1-0.6-0.2-0.9-0.4l-0.6,0.7c-0.2,0.2-0.6,0.2-0.8,0l-0.8-0.8c-0.2-0.2-0.2-0.5,0-0.8l0.7-0.7c-0.2-0.3-0.3-0.7-0.4-0.9h-1
			c-0.3,0-0.5-0.3-0.5-0.6v-1.1c0-0.3,0.2-0.6,0.5-0.6h1c0.1-0.2,0.2-0.6,0.4-0.9l-0.7-0.6c-0.2-0.2-0.2-0.6,0-0.8l0.8-0.8
			c0.2-0.2,0.5-0.2,0.8,0l0.7,0.7c0.3-0.2,0.7-0.3,0.9-0.4v-1c0-0.3,0.3-0.5,0.6-0.5H24c0.3,0,0.6,0.2,0.6,0.5v1
			c0.2,0.1,0.6,0.2,0.9,0.4l0.6-0.7c0.2-0.2,0.6-0.2,0.8,0l0.8,0.8c0.2,0.2,0.2,0.5,0,0.8l-0.7,0.7c0.2,0.3,0.3,0.7,0.4,0.9h1
			c0.3,0,0.5,0.3,0.5,0.6V27z M23.4,24c-1.3,0-2.4,1.1-2.4,2.4c0,1.3,1.1,2.4,2.4,2.4c1.3,0,2.4-1.1,2.4-2.4
			C25.8,25.1,24.8,24,23.4,24z"/>
		<path id="形状_1_" class="st0" d="M28.8,27c0,0.3-0.2,0.6-0.5,0.6h-1c-0.1,0.2-0.2,0.6-0.4,0.9l0.7,0.6c0.2,0.2,0.2,0.6,0,0.8
			l-0.8,0.8c-0.2,0.2-0.5,0.2-0.8,0l-0.7-0.7c-0.3,0.2-0.7,0.3-0.9,0.4v1c0,0.3-0.3,0.5-0.6,0.5h-1.1c-0.3,0-0.6-0.2-0.6-0.5v-1
			c-0.2-0.1-0.6-0.2-0.9-0.4l-0.6,0.7c-0.2,0.2-0.6,0.2-0.8,0l-0.8-0.8c-0.2-0.2-0.2-0.5,0-0.8l0.7-0.7c-0.2-0.3-0.3-0.7-0.4-0.9h-1
			c-0.3,0-0.5-0.3-0.5-0.6v-1.1c0-0.3,0.2-0.6,0.5-0.6h1c0.1-0.2,0.2-0.6,0.4-0.9l-0.7-0.6c-0.2-0.2-0.2-0.6,0-0.8l0.8-0.8
			c0.2-0.2,0.5-0.2,0.8,0l0.7,0.7c0.3-0.2,0.7-0.3,0.9-0.4v-1c0-0.3,0.3-0.5,0.6-0.5H24c0.3,0,0.6,0.2,0.6,0.5v1
			c0.2,0.1,0.6,0.2,0.9,0.4l0.6-0.7c0.2-0.2,0.6-0.2,0.8,0l0.8,0.8c0.2,0.2,0.2,0.5,0,0.8l-0.7,0.7c0.2,0.3,0.3,0.7,0.4,0.9h1
			c0.3,0,0.5,0.3,0.5,0.6V27z M23.4,24c-1.3,0-2.4,1.1-2.4,2.4c0,1.3,1.1,2.4,2.4,2.4c1.3,0,2.4-1.1,2.4-2.4
			C25.8,25.1,24.8,24,23.4,24z"/>
		<path id="矩形" class="st1" d="M5,0h42c2.8,0,5,2.2,5,5v42c0,2.8-2.2,5-5,5H5c-2.8,0-5-2.2-5-5V5C0,2.2,2.2,0,5,0z"/>
		<path id="矩形_1_" class="st0" d="M14,13h24c1.1,0,2,0.9,2,2v24c0,1.1-0.9,2-2,2H14c-1.1,0-2-0.9-2-2V15C12,13.9,12.9,13,14,13z
			"/>
		<rect id="矩形_2_" x="16" y="9" class="st1" width="20" height="8"/>
		<path id="合并形状" class="st0" d="M20,10h12c1.1,0,2,0.9,2,2v4l0,0H18v-4C18,10.9,18.9,10,20,10z"/>
		<path id="形状_2_" class="st1" d="M25.5,22v5.6c0,0.5,0.3,0.9,0.9,0.9H32c0,3.6-2.9,6.5-6.5,6.5S19,32.1,19,28.5
			S21.9,22,25.5,22z M27,21c3.3,0,6,2.7,6,6h-6V21z"/>
	</g>
</g>
</svg>
