<?xml version="1.0" encoding="utf-8"?>
<!-- Generator: Adobe Illustrator 21.0.0, SVG Export Plug-In . SVG Version: 6.00 Build 0)  -->
<svg version="1.1" id="图层_1" xmlns="http://www.w3.org/2000/svg" xmlns:xlink="http://www.w3.org/1999/xlink" x="0px" y="0px"
	 viewBox="0 0 52 52" style="enable-background:new 0 0 52 52;" xml:space="preserve">
<style type="text/css">
	.st0{fill:#009788;}
	.st1{fill:#FFFFFF;}
</style>
<title>报表查询2</title>
<desc>Created with Sketch.</desc>
<g id="报表查询2" transform="translate(389.000000, 222.000000)">
	<g id="档案8">
		<path id="矩形" class="st0" d="M-384-222h42c2.8,0,5,2.2,5,5v42c0,2.8-2.2,5-5,5h-42c-2.8,0-5-2.2-5-5v-42
			C-389-219.8-386.8-222-384-222z"/>
	</g>
	<path id="形状" class="st1" d="M-374.7-210h23.4c0.7,0.1,1.2,0.6,1.2,1.2v4.8l-2.6-2.1v-1.5h-20.7v16.6l-2.6-1.3v-16.6
		C-376-209.4-375.4-210-374.7-210z M-348.2-186.8c0.5,0.4,0,0.9,0,0.9l-5.2,5.7c0,0-0.5,0.7-1.4,0c-0.4-0.4-2.3-2-2.3-2
		s-0.6-0.5-1.5-0.6h-11.6c0,0-0.5,0.2-0.9-0.2c-0.4-0.4-6.1-5.4-7.7-6.8c-0.3-0.4,0-1.2,0-1.2s1.1-2.1,4,0c1.8,1.3,4.5,3.4,4.5,3.4
		h6.8l1.9-1.3c0,0,0.5-0.4,0-0.4c-1.5-0.1-3.6-0.3-4.5-0.4c-1-0.2-1.6-1.1-1.6-2c0-1.4,1.6-1.6,1.6-1.6h10.1c0,0,0.4,0,0.8,0.4
		C-354.7-192.6-348.6-187.2-348.2-186.8z"/>
	<path id="矩形_1_" class="st1" d="M-369.5-204h12c0.3,0,0.5,0.2,0.5,0.5v1c0,0.3-0.2,0.5-0.5,0.5h-12c-0.3,0-0.5-0.2-0.5-0.5v-1
		C-370-203.8-369.8-204-369.5-204z"/>
	<path id="矩形_2_" class="st1" d="M-369.5-199h6c0.3,0,0.5,0.2,0.5,0.5v1c0,0.3-0.2,0.5-0.5,0.5h-6c-0.3,0-0.5-0.2-0.5-0.5v-1
		C-370-198.8-369.8-199-369.5-199z"/>
	<path id="形状_1_" class="st1" d="M-345.5-192.4c0,0.2-0.1,0.5-0.3,0.6c-0.2,0.2-0.4,0.3-0.6,0.3c-0.2,0-0.5-0.1-0.6-0.3
		l-2.4-2.4c-0.8,0.6-1.7,0.9-2.8,0.9c-0.7,0-1.3-0.1-1.9-0.4c-0.6-0.3-1.1-0.6-1.6-1c-0.4-0.4-0.8-1-1-1.6c-0.3-0.6-0.4-1.2-0.4-1.9
		s0.1-1.3,0.4-1.9c0.3-0.6,0.6-1.1,1-1.6c0.4-0.4,1-0.8,1.6-1c0.6-0.3,1.2-0.4,1.9-0.4s1.3,0.1,1.9,0.4c0.6,0.3,1.1,0.6,1.6,1
		c0.4,0.4,0.8,1,1,1.6c0.3,0.6,0.4,1.2,0.4,1.9c0,1-0.3,1.9-0.9,2.8l2.4,2.4C-345.6-192.8-345.5-192.6-345.5-192.4z M-349.9-195.9
		c0.6-0.6,0.9-1.3,0.9-2.2c0-0.9-0.3-1.6-0.9-2.2c-0.6-0.6-1.3-0.9-2.2-0.9c-0.9,0-1.6,0.3-2.2,0.9c-0.6,0.6-0.9,1.3-0.9,2.2
		c0,0.9,0.3,1.6,0.9,2.2c0.6,0.6,1.3,0.9,2.2,0.9S-350.6-195.3-349.9-195.9z M-349.9-198.4v0.4c0,0.1,0,0.1-0.1,0.2
		c0,0-0.1,0.1-0.2,0.1h-1.5v1.5c0,0.1,0,0.1-0.1,0.2c0,0-0.1,0.1-0.2,0.1h-0.4c-0.1,0-0.1,0-0.2-0.1c0,0-0.1-0.1-0.1-0.2v-1.5h-1.5
		c-0.1,0-0.1,0-0.2-0.1c0,0-0.1-0.1-0.1-0.2v-0.4c0-0.1,0-0.1,0.1-0.2c0,0,0.1-0.1,0.2-0.1h1.5v-1.5c0-0.1,0-0.1,0.1-0.2
		c0,0,0.1-0.1,0.2-0.1h0.4c0.1,0,0.1,0,0.2,0.1c0,0,0.1,0.1,0.1,0.2v1.5h1.5c0.1,0,0.1,0,0.2,0.1
		C-349.9-198.5-349.9-198.4-349.9-198.4L-349.9-198.4z"/>
</g>
</svg>
