<?xml version="1.0" encoding="utf-8"?>
<!-- Generator: Adobe Illustrator 21.0.0, SVG Export Plug-In . SVG Version: 6.00 Build 0)  -->
<svg version="1.1" id="图层_1" xmlns="http://www.w3.org/2000/svg" xmlns:xlink="http://www.w3.org/1999/xlink" x="0px" y="0px"
	 viewBox="0 0 52 52" style="enable-background:new 0 0 52 52;" xml:space="preserve">
<style type="text/css">
	.st0{fill:#319FD6;}
	.st1{fill:#FFFFFF;}
</style>
<title>基础档案1</title>
<desc>Created with Sketch.</desc>
<g id="画板" transform="translate(-274.000000, -540.000000)">
	<g id="基础档案1" transform="translate(274.000000, 540.000000)">
		<path id="矩形" class="st0" d="M5,0h42c2.8,0,5,2.2,5,5v42c0,2.8-2.2,5-5,5H5c-2.8,0-5-2.2-5-5V5C0,2.2,2.2,0,5,0z"/>
		<g id="编组-5" transform="translate(11.000000, 13.000000)">
			<path id="合并形状" class="st1" d="M28,7.2c0.6,0,1,0.4,1,1l0,2.9c-1.3-0.7-2.9-1.2-4.5-1.2c-5,0-9.1,3.9-9.1,8.6
				c0,3.4,2,6.3,5,7.7L1,26.3c-0.6,0-1-0.4-1-1v-17c0-0.6,0.4-1,1-1H28z"/>
			<path id="矩形_1_" class="st1" d="M3.7,2.7h22.5c0.6,0,1,0.4,1,1v2.6l0,0H2.7V3.7C2.7,3.2,3.2,2.7,3.7,2.7z"/>
			<path id="矩形-copy-4" class="st1" d="M6.4,0h16.1c0.6,0,1,0.4,1,1v0.8l0,0H5.4V1C5.4,0.4,5.9,0,6.4,0z"/>
		</g>
		<path id="形状" class="st1" d="M40.9,27c-1.3-1.3-3.1-2-4.9-2c-1.9,0-3.6,0.7-4.9,2c-1.3,1.3-2.1,3.1-2.1,5c0,1.9,0.7,3.6,2.1,5
			c1.3,1.3,3.1,2,4.9,2c1.9,0,3.6-0.7,4.9-2c1.3-1.3,2.1-3.1,2.1-5C43,30.1,42.3,28.4,40.9,27L40.9,27z"/>
		<path id="路径" class="st0" d="M39,31h-2v-2c0-0.6-0.4-1-1-1s-1,0.4-1,1v2h-2c-0.6,0-1,0.4-1,1s0.4,1,1,1h2v2c0,0.6,0.4,1,1,1
			s1-0.4,1-1v-2h2c0.6,0,1-0.4,1-1S39.6,31,39,31z"/>
	</g>
</g>
</svg>
