<?xml version="1.0" encoding="utf-8"?>
<!-- Generator: Adobe Illustrator 21.0.0, SVG Export Plug-In . SVG Version: 6.00 Build 0)  -->
<svg version="1.1" id="图层_1" xmlns="http://www.w3.org/2000/svg" xmlns:xlink="http://www.w3.org/1999/xlink" x="0px" y="0px"
	 viewBox="0 0 52 52" style="enable-background:new 0 0 52 52;" xml:space="preserve">
<style type="text/css">
	.st0{fill:#54698D;}
	.st1{fill:#FFFFFF;}
</style>
<title>报表查询4</title>
<desc>Created with Sketch.</desc>
<g id="画板" transform="translate(-614.000000, -222.000000)">
	<g id="报表查询4" transform="translate(614.000000, 222.000000)">
		<path id="矩形" class="st0" d="M5,0h42c2.8,0,5,2.2,5,5v42c0,2.8-2.2,5-5,5H5c-2.8,0-5-2.2-5-5V5C0,2.2,2.2,0,5,0z"/>
		<g id="分组" transform="translate(12.000000, 12.000000)">
			<path id="形状" class="st1" d="M26.1,0H1.9C0.8,0,0,0.7,0,1.5v25.1C0,27.3,0.8,28,1.9,28h24.3c1,0,1.9-0.7,1.9-1.5V1.5
				C28,0.7,27.2,0,26.1,0z M24.8,8.3c0,0.3-0.2,0.5-0.5,0.6c-0.3,0.1-0.7,0-0.9-0.1l-1.2-0.9l-5.3,4c-0.1,0.1-0.2,0.1-0.3,0.2
				c-0.3,0.1-0.7,0-1-0.2l-4.5-3.4l-5.2,3.9c-0.4,0.3-0.9,0.3-1.3,0c-0.4-0.3-0.4-0.7,0-1L10.4,7c0.4-0.3,0.9-0.3,1.3,0l4.5,3.4
				l4.7-3.5l-1.4-1c-0.2-0.2-0.3-0.4-0.2-0.7c0.1-0.2,0.4-0.4,0.8-0.4H24c0.5,0,0.8,0.3,0.8,0.6V8.3z"/>
			<path id="矩形_1_" class="st0" d="M6.5,16h16.7c0.3,0,0.5,0.2,0.5,0.5v1.1c0,0.3-0.2,0.5-0.5,0.5H6.5c-0.3,0-0.5-0.2-0.5-0.5
				v-1.1C6,16.2,6.2,16,6.5,16z"/>
			<path id="矩形_2_" class="st0" d="M13.5,22h9.4c0.3,0,0.5,0.2,0.5,0.5v1.1c0,0.3-0.2,0.5-0.5,0.5h-9.4c-0.3,0-0.5-0.2-0.5-0.5
				v-1.1C13,22.2,13.2,22,13.5,22z"/>
		</g>
	</g>
</g>
</svg>
