<?xml version="1.0" encoding="utf-8"?>
<!-- Generator: Adobe Illustrator 21.0.0, SVG Export Plug-In . SVG Version: 6.00 Build 0)  -->
<svg version="1.1" id="图层_1" xmlns="http://www.w3.org/2000/svg" xmlns:xlink="http://www.w3.org/1999/xlink" x="0px" y="0px"
	 viewBox="0 0 52 52" style="enable-background:new 0 0 52 52;" xml:space="preserve">
<style type="text/css">
	.st0{fill:#7E8BE5;}
	.st1{fill:#FFFFFF;}
</style>
<title>单据维护8</title>
<desc>Created with Sketch.</desc>
<g id="画板" transform="translate(-1038.000000, -384.000000)">
	<g id="单据维护8" transform="translate(1038.000000, 384.000000)">
		<g id="档案8">
			<path id="矩形" class="st0" d="M5,0h42c2.8,0,5,2.2,5,5v42c0,2.8-2.2,5-5,5H5c-2.8,0-5-2.2-5-5V5C0,2.2,2.2,0,5,0z"/>
		</g>
		<g id="委托贷款展期维护" transform="translate(10.000000, 12.000000)">
			<path id="形状" class="st1" d="M4.5,0h24.2c0.7,0.1,1.2,0.6,1.2,1.3v19l-2.7-2.1V2.6H5.9v17.2l-2.7-1.4V1.3
				C3.1,0.6,3.7,0,4.5,0z M31.8,23.9c0.5,0.4,0,0.9,0,0.9l-5.4,5.8c0,0-0.5,0.7-1.5,0c-0.4-0.4-2.3-2-2.3-2S22,28.1,21,28H9
				c0,0-0.5,0.2-1-0.2c-0.4-0.4-6.3-5.6-7.9-7c-0.3-0.5,0-1.2,0-1.2s1.1-2.1,4.2,0C6.1,20.9,9,23.1,9,23.1h7l2-1.4
				c0,0,0.5-0.4,0-0.4c-1.6-0.1-3.7-0.3-4.6-0.5c-1-0.2-1.7-1.1-1.7-2c0-1.5,1.7-1.7,1.7-1.7h10.4c0,0,0.4,0,0.9,0.4
				C25.1,18,31.3,23.5,31.8,23.9z M21,12.5c0.5,0.5,0.8,1.3,0.6,2.1c-0.2,0.7-0.8,1.3-1.6,1.6c-0.8,0.2-1.6,0-2.1-0.6l-2-2
				c-1.9,0.6-3.8,0-5.1-1.5s-1.4-3.6-0.5-5.2c0.1-0.1,0.2-0.2,0.4-0.2c0.2,0,0.3,0,0.5,0.1l2,2l1.1-1.1l-2-2C12.1,5.6,12,5.3,12,5.2
				c0-0.1,0.2-0.3,0.2-0.4c1.7-0.9,3.8-0.7,5.3,0.5s2.1,3.2,1.5,5.1L21,12.5L21,12.5z"/>
		</g>
	</g>
</g>
</svg>
