<?xml version="1.0" encoding="utf-8"?>
<!-- Generator: Adobe Illustrator 21.0.0, SVG Export Plug-In . SVG Version: 6.00 Build 0)  -->
<svg version="1.1" id="图层_1" xmlns="http://www.w3.org/2000/svg" xmlns:xlink="http://www.w3.org/1999/xlink" x="0px" y="0px"
	 viewBox="0 0 52 52" style="enable-background:new 0 0 52 52;" xml:space="preserve">
<style type="text/css">
	.st0{fill:#7E8BE5;}
	.st1{fill:#FFFFFF;}
</style>
<title>业务设置8</title>
<desc>Created with Sketch.</desc>
<g id="画板" transform="translate(-1038.000000, -686.000000)">
	<g id="业务设置8" transform="translate(1038.000000, 686.000000)">
		<path id="矩形" class="st0" d="M5,0h42c2.8,0,5,2.2,5,5v42c0,2.8-2.2,5-5,5H5c-2.8,0-5-2.2-5-5V5C0,2.2,2.2,0,5,0z"/>
		<path id="矩形_1_" class="st1" d="M13,12h26c1.1,0,2,0.9,2,2v23.2c0,1.1-0.9,2-2,2H13c-1.1,0-2-0.9-2-2V14
			C11,12.9,11.9,12,13,12z"/>
		<path id="矩形_2_" class="st0" d="M18,18h9c0.6,0,1,0.4,1,1v3.5c0,0.6-0.4,1-1,1h-9c-0.6,0-1-0.4-1-1V19C17,18.4,17.4,18,18,18z
			"/>
		<path id="矩形_3_" class="st0" d="M18,27h7c0.6,0,1,0.4,1,1v1c0,0.6-0.4,1-1,1h-7c-0.6,0-1-0.4-1-1v-1C17,27.4,17.4,27,18,27z"
			/>
		<g id="分组-2" transform="translate(26.000000, 25.000000)">
			<path id="合并形状" class="st0" d="M13.8,11.7l-3.3-1.3c0,0-0.6-0.2-0.9-0.5c-0.2-0.2-0.1-0.5,0-1c0.1-0.5,1.8-2.4,1.8-4.1
				C11.4,2.2,9.6,0,7.5,0C5.3,0,3.6,2.2,3.6,4.8c0,1.7,1.5,3.6,1.7,4c0.2,0.4,0.1,0.9,0,1.1c-0.2,0.2-1,0.5-1,0.5l-3,1.3
				C0.5,11.9,0,12.6,0,13.3v0.4C0,14.5,0.7,15,1.5,15h5h1.7h5.3c0.8,0,1.5-0.5,1.5-1.3v-0.4C15,12.6,14.5,11.9,13.8,11.7L13.8,11.7z
				"/>
		</g>
	</g>
</g>
</svg>
