<?xml version="1.0" encoding="utf-8"?>
<!-- Generator: Adobe Illustrator 21.0.0, SVG Export Plug-In . SVG Version: 6.00 Build 0)  -->
<svg version="1.1" id="图层_1" xmlns="http://www.w3.org/2000/svg" xmlns:xlink="http://www.w3.org/1999/xlink" x="0px" y="0px"
	 viewBox="0 0 52 52" style="enable-background:new 0 0 52 52;" xml:space="preserve">
<style type="text/css">
	.st0{fill:#7E8BE5;}
	.st1{fill:#FFFFFF;}
</style>
<title>业务处理8</title>
<desc>Created with Sketch.</desc>
<g id="画板" transform="translate(-1038.000000, -815.000000)">
	<g id="业务处理8" transform="translate(1038.000000, 815.000000)">
		<path id="矩形" class="st0" d="M5,0h42c2.8,0,5,2.2,5,5v42c0,2.8-2.2,5-5,5H5c-2.8,0-5-2.2-5-5V5C0,2.2,2.2,0,5,0z"/>
		<path id="形状结合" class="st1" d="M39,12c1.1,0,2,0.9,2,2v12L27.6,40H13c-1.1,0-2-0.9-2-2V14c0-1.1,0.9-2,2-2H39z"/>
		<path id="形状" class="st1" d="M42.8,31.9L41.7,33L39,30.3l1.1-1.1c0.4-0.4,0.8,0,0.8,0l1.9,1.9C42.8,31.1,43.2,31.5,42.8,31.9z
			 M30,42l3-0.5L30.5,39L30,42z M31,38l3,3l7-7l-3-3L31,38L31,38z"/>
		<path id="矩形_1_" class="st0" d="M16,16h6c0.6,0,1,0.4,1,1v1c0,0.6-0.4,1-1,1h-6c-0.6,0-1-0.4-1-1v-1C15,16.4,15.4,16,16,16z"
			/>
		<path id="矩形_2_" class="st0" d="M16,23h18c0.6,0,1,0.4,1,1v1c0,0.6-0.4,1-1,1H16c-0.6,0-1-0.4-1-1v-1C15,23.4,15.4,23,16,23z"
			/>
		<path id="矩形_3_" class="st0" d="M16,30h10c0.6,0,1,0.4,1,1v1c0,0.6-0.4,1-1,1H16c-0.6,0-1-0.4-1-1v-1C15,30.4,15.4,30,16,30z"
			/>
	</g>
</g>
</svg>
