<?xml version="1.0" encoding="utf-8"?>
<!-- Generator: Adobe Illustrator 21.0.0, SVG Export Plug-In . SVG Version: 6.00 Build 0)  -->
<svg version="1.1" id="图层_1" xmlns="http://www.w3.org/2000/svg" xmlns:xlink="http://www.w3.org/1999/xlink" x="0px" y="0px"
	 viewBox="0 0 52 52" style="enable-background:new 0 0 52 52;" xml:space="preserve">
<style type="text/css">
	.st0{fill:#319FD6;}
	.st1{fill:#FFFFFF;}
</style>
<title>业务处理1</title>
<desc>Created with Sketch.</desc>
<g id="画板" transform="translate(-274.000000, -815.000000)">
	<g id="业务处理1" transform="translate(274.000000, 815.000000)">
		<path id="矩形" class="st0" d="M5,0h42c2.8,0,5,2.2,5,5v42c0,2.8-2.2,5-5,5H5c-2.8,0-5-2.2-5-5V5C0,2.2,2.2,0,5,0z"/>
		<path id="形状结合" class="st1" d="M40,16c1.1,0,2,0.9,2,2l0,9.5c-1.3-0.9-2.8-1.5-4.5-1.5c-4.1,0-7.5,3.4-7.5,7.5
			c0,2.2,0.9,4.1,2.4,5.5L12,39c-1.1,0-2-0.9-2-2V18c0-1.1,0.9-2,2-2H40z"/>
		<g id="对号" transform="translate(31.000000, 27.000000)">
			<circle id="椭圆形" class="st1" cx="6.5" cy="6.5" r="6.5"/>
			<path id="路径" class="st0" d="M11,4.3c0,0.2-0.1,0.3-0.2,0.4L6.6,8.8L5.8,9.6C5.7,9.7,5.6,9.8,5.4,9.8c-0.2,0-0.3-0.1-0.4-0.2
				L4.3,8.8L2.2,6.8C2.1,6.7,2,6.5,2,6.4C2,6.2,2.1,6.1,2.2,6L3,5.2c0.1-0.1,0.2-0.2,0.4-0.2c0.2,0,0.3,0.1,0.4,0.2l1.7,1.7l3.8-3.7
				C9.4,3.1,9.5,3,9.7,3C9.8,3,9.9,3.1,10,3.2l0.8,0.8C10.9,4,11,4.2,11,4.3z"/>
		</g>
		<path id="路径_1_" class="st0" d="M25,29.3l-2.7-1c0,0-0.5-0.2-0.7-0.4c-0.1-0.1-0.1-0.4,0-0.8c0.1-0.4,1.5-1.9,1.5-3.3
			c0-2.1-1.4-3.9-3.1-3.9c-1.7,0-3.1,1.7-3.1,3.9c0,1.3,1.2,2.9,1.4,3.2c0.1,0.3,0.1,0.7,0,0.9c-0.2,0.2-0.8,0.4-0.8,0.4L15,29.4
			c-0.6,0.2-1,0.7-1,1.3V31c0,0.6,0.5,1,1.2,1h4h1.4h4.3c0.6,0,1.2-0.4,1.2-1v-0.3C26,30.1,25.6,29.5,25,29.3L25,29.3z"/>
		<path id="矩形_1_" class="st1" d="M13,12h26c0.6,0,1,0.4,1,1v2l0,0H12v-2C12,12.4,12.4,12,13,12z"/>
	</g>
</g>
</svg>
