<?xml version="1.0" encoding="utf-8"?>
<!-- Generator: Adobe Illustrator 21.0.0, SVG Export Plug-In . SVG Version: 6.00 Build 0)  -->
<svg version="1.1" id="图层_1" xmlns="http://www.w3.org/2000/svg" xmlns:xlink="http://www.w3.org/1999/xlink" x="0px" y="0px"
	 viewBox="0 0 52 52" style="enable-background:new 0 0 52 52;" xml:space="preserve">
<style type="text/css">
	.st0{fill:#007ABC;}
	.st1{fill:#FFFFFF;}
</style>
<title>业务设置3</title>
<desc>Created with Sketch.</desc>
<g id="画板" transform="translate(-511.000000, -686.000000)">
	<g id="业务设置3" transform="translate(511.000000, 686.000000)">
		<path id="矩形" class="st0" d="M5,0h42c2.8,0,5,2.2,5,5v42c0,2.8-2.2,5-5,5H5c-2.8,0-5-2.2-5-5V5C0,2.2,2.2,0,5,0z"/>
		<path id="合并形状" class="st1" d="M25.4,12c0.8,0,1.6,0.6,1.6,1.4v2.5c0.5,0.2,1.5,0.6,2.3,1l1.6-1.7c0.5-0.5,1.4-0.6,2,0
			l2,2c0.5,0.5,0.5,1.4,0,2l-1.7,1.7c0.4,0.7,0.7,1.8,1,2.3h2.5c0.8,0,1.4,0.8,1.4,1.6V26l-6.8,0c-0.2-3.5-3.2-6.3-6.7-6.3
			c-3.7,0-6.8,3-6.8,6.7c0,2.8,1.8,5.3,4.3,6.3l0,7.2c-0.5-0.2-1-0.7-1-1.3v-2.5c-0.5-0.2-1.5-0.6-2.3-1l-1.6,1.7
			c-0.5,0.5-1.4,0.6-2,0l-2-2c-0.5-0.5-0.5-1.4,0-2l1.7-1.7c-0.4-0.7-0.7-1.8-1-2.3h-2.5c-0.8,0-1.4-0.8-1.4-1.6v-2.8
			c0-0.8,0.6-1.6,1.4-1.6h2.5c0.2-0.5,0.6-1.5,1-2.3l-1.7-1.6c-0.5-0.5-0.6-1.4,0-2l2-2c0.5-0.5,1.4-0.5,2,0l1.7,1.7
			c0.7-0.4,1.8-0.7,2.3-1v-2.5c0-0.8,0.8-1.4,1.6-1.4H25.4z"/>
		<path id="矩形_1_" class="st1" d="M25,27h16c0.6,0,1,0.4,1,1v1c0,0.6-0.4,1-1,1H25c-0.6,0-1-0.4-1-1v-1C24,27.4,24.4,27,25,27z"
			/>
		<path id="矩形_2_" class="st1" d="M25,33h16c0.6,0,1,0.4,1,1v1c0,0.6-0.4,1-1,1H25c-0.6,0-1-0.4-1-1v-1C24,33.4,24.4,33,25,33z"
			/>
		<path id="矩形_3_" class="st1" d="M25,39h12c0.6,0,1,0.4,1,1v1c0,0.6-0.4,1-1,1H25c-0.6,0-1-0.4-1-1v-1C24,39.4,24.4,39,25,39z"
			/>
	</g>
</g>
</svg>
