<?xml version="1.0" encoding="utf-8"?>
<!-- Generator: Adobe Illustrator 21.0.0, SVG Export Plug-In . SVG Version: 6.00 Build 0)  -->
<svg version="1.1" id="图层_1" xmlns="http://www.w3.org/2000/svg" xmlns:xlink="http://www.w3.org/1999/xlink" x="0px" y="0px"
	 viewBox="0 0 52 52" style="enable-background:new 0 0 52 52;" xml:space="preserve">
<style type="text/css">
	.st0{fill:#4B8B45;}
	.st1{fill:#FFFFFF;}
</style>
<title>基础档案5</title>
<desc>Created with Sketch.</desc>
<g id="画板" transform="translate(-714.000000, -540.000000)">
	<g id="基础档案5" transform="translate(714.000000, 540.000000)">
		<path id="矩形" class="st0" d="M5,0h42c2.8,0,5,2.2,5,5v42c0,2.8-2.2,5-5,5H5c-2.8,0-5-2.2-5-5V5C0,2.2,2.2,0,5,0z"/>
		<path id="合并形状" class="st1" d="M17,17v20c0,0.6,0.4,1,1,1l0,0h17v1.3c0,0.9-0.7,1.6-1.7,1.7l-0.2,0H14.8
			c-1,0-1.8-0.8-1.8-1.7l0,0V18.7c0-0.9,0.8-1.7,1.8-1.7l0,0H17z"/>
		<path id="形状" class="st1" d="M30,20.6V12h-9.2c-1,0-1.8,0.8-1.8,1.7v20.6c0,0.9,0.8,1.7,1.8,1.7h18.3c1,0,1.8-0.8,1.8-1.7V22
			h-9.2C30.5,22,30,21.6,30,20.6z"/>
		<path id="三角形" class="st1" d="M32.5,12.4l7.9,7c0.1,0.1,0.1,0.3,0,0.4C40.4,20,40.3,20,40.2,20H33c-0.6,0-1-0.4-1-1v-6.3
			c0-0.2,0.1-0.3,0.3-0.3C32.4,12.4,32.4,12.4,32.5,12.4z"/>
		<path id="矩形_1_" class="st0" d="M24,23h2c0.6,0,1,0.4,1,1v2c0,0.6-0.4,1-1,1h-2c-0.6,0-1-0.4-1-1v-2C23,23.4,23.4,23,24,23z"
			/>
		<path id="矩形-copy-6" class="st0" d="M30,23h2c0.6,0,1,0.4,1,1v2c0,0.6-0.4,1-1,1h-2c-0.6,0-1-0.4-1-1v-2
			C29,23.4,29.4,23,30,23z"/>
		<path id="矩形-copy-7" class="st0" d="M24,28h2c0.6,0,1,0.4,1,1v2c0,0.6-0.4,1-1,1h-2c-0.6,0-1-0.4-1-1v-2
			C23,28.4,23.4,28,24,28z"/>
	</g>
</g>
</svg>
