<?xml version="1.0" encoding="utf-8"?>
<!-- Generator: Adobe Illustrator 21.0.0, SVG Export Plug-In . SVG Version: 6.00 Build 0)  -->
<svg version="1.1" id="图层_1" xmlns="http://www.w3.org/2000/svg" xmlns:xlink="http://www.w3.org/1999/xlink" x="0px" y="0px"
	 viewBox="0 0 52 52" style="enable-background:new 0 0 52 52;" xml:space="preserve">
<style type="text/css">
	.st0{fill:#7E8BE5;}
	.st1{fill:#FFFFFF;}
</style>
<title>基础档案8</title>
<desc>Created with Sketch.</desc>
<g id="画板" transform="translate(-1038.000000, -540.000000)">
	<g id="基础档案8" transform="translate(1038.000000, 540.000000)">
		<path id="矩形" class="st0" d="M5,0h42c2.8,0,5,2.2,5,5v42c0,2.8-2.2,5-5,5H5c-2.8,0-5-2.2-5-5V5C0,2.2,2.2,0,5,0z"/>
		<path id="形状" class="st1" d="M19.6,14L19.6,14c-0.1-1.1-0.8-2-1.6-2h-5.5c-0.8,0-1.4,0.9-1.5,2h0v7.5h0v2.1c0,0,0,0.1,0,0.1
			v14.2h0c0.1,1.1,0.8,2,1.5,2h5.5c0.8,0,1.4-0.9,1.5-2h0v-0.2h0V21.3h0v-1.9c0,0,0-0.1,0-0.1v-5c0,0,0-0.1,0-0.1V14z M30.2,14
			L30.2,14c-0.1-1.1-0.9-2-1.7-2h-6.1c-0.9,0-1.6,0.9-1.7,2h0v7.5h0v2.1c0,0,0,0.1,0,0.1v14.2h0c0.1,1.1,0.8,2,1.7,2h6.1
			c0.9,0,1.6-0.9,1.7-2h0v-0.2h0V21.3h0v-1.9c0,0,0-0.1,0-0.1v-5c0,0,0-0.1,0-0.1V14L30.2,14z M23.1,15.4h4.8v12.8h-4.8V15.4z
			 M26.7,36.5c-0.8,0.5-1.8,0.5-2.6,0c-0.8-0.5-1.3-1.4-1.3-2.4c0-1,0.5-1.9,1.3-2.4c0.8-0.5,1.8-0.5,2.6,0c0.8,0.5,1.3,1.4,1.3,2.4
			C28,35.1,27.5,36,26.7,36.5L26.7,36.5z M26,33c-0.4-0.2-0.8-0.2-1.2,0c-0.4,0.2-0.6,0.7-0.6,1.1c0,0.7,0.5,1.3,1.2,1.3
			c0.7,0,1.2-0.6,1.2-1.3C26.7,33.6,26.4,33.2,26,33z M41,19.3v-5c0,0,0-0.1,0-0.1V14h0c-0.1-1.1-0.8-2-1.7-2h-6.1
			c-0.9,0-1.6,0.9-1.7,2h0v7.5h0v2.1c0,0,0,0.1,0,0.1v14.2h0c0.1,1.1,0.8,2,1.7,2h6.1c0.9,0,1.6-0.9,1.7-2h0v-0.2h0V21.3h0L41,19.3
			C41,19.4,41,19.4,41,19.3z M33.8,15.4h4.8v12.8h-4.8V15.4z M37.5,36.5c-0.8,0.5-1.8,0.5-2.6,0c-0.8-0.5-1.3-1.4-1.3-2.4
			c0-1,0.5-1.9,1.3-2.4c0.8-0.5,1.8-0.5,2.6,0c0.8,0.5,1.3,1.4,1.3,2.4C38.8,35.1,38.3,36,37.5,36.5L37.5,36.5z M36.7,33
			c-0.4-0.2-0.8-0.2-1.2,0c-0.4,0.2-0.6,0.7-0.6,1.1c0,0.5,0.2,0.9,0.6,1.1c0.6,0.4,1.3,0.1,1.7-0.5S37.3,33.3,36.7,33L36.7,33z"/>
	</g>
</g>
</svg>
