<?xml version="1.0" encoding="utf-8"?>
<!-- Generator: Adobe Illustrator 21.0.0, SVG Export Plug-In . SVG Version: 6.00 Build 0)  -->
<svg version="1.1" id="图层_1" xmlns="http://www.w3.org/2000/svg" xmlns:xlink="http://www.w3.org/1999/xlink" x="0px" y="0px"
	 viewBox="0 0 52 52" style="enable-background:new 0 0 52 52;" xml:space="preserve">
<style type="text/css">
	.st0{fill:#4B8B45;}
	.st1{fill:#FFFFFF;}
</style>
<title>业务处理5</title>
<desc>Created with Sketch.</desc>
<g id="画板" transform="translate(-719.000000, -815.000000)">
	<g id="业务处理5" transform="translate(719.000000, 815.000000)">
		<path id="矩形" class="st0" d="M5,0h42c2.8,0,5,2.2,5,5v42c0,2.8-2.2,5-5,5H5c-2.8,0-5-2.2-5-5V5C0,2.2,2.2,0,5,0z"/>
		<path id="合并形状" class="st1" d="M29.9,39.3l-16.9,0c-1.1,0-2-0.9-2-2V15c0-1.1,0.9-2,2-2h25c1.1,0,2,0.9,2,2l0,10.5
			c-0.7-0.2-1.4-0.3-2.2-0.3c-4.7,0-8.5,3.6-8.5,8c0,1.5,0.4,2.8,1.2,4C30.6,37.6,30.3,38.4,29.9,39.3z"/>
		<path id="形状" class="st1" d="M37,38.5c-0.9,0-1.8-0.2-2.6-0.6c-0.5-0.2-3,1.4-3.4,1c-0.5-0.4,1.1-2.8,0.8-3.3
			c-0.5-0.8-0.8-1.8-0.8-2.9c0-3.2,2.7-5.7,6-5.7c3.3,0,6,2.6,6,5.7S40.3,38.5,37,38.5z"/>
		<path id="形状_1_" class="st0" d="M40.9,30.7l-0.7,0.7l-1.6-1.6l0.7-0.7c0.2-0.2,0.4,0,0.4,0l1.1,1.1
			C40.9,30.2,41.1,30.4,40.9,30.7z M34,36l2.3-0.4l-1.9-1.9L34,36z M34.8,33.6l1.7,1.7l3.8-3.8l-1.7-1.7L34.8,33.6L34.8,33.6z"/>
		<path id="矩形_1_" class="st0" d="M16.5,19h10c0.3,0,0.5,0.2,0.5,0.5v1c0,0.3-0.2,0.5-0.5,0.5h-10c-0.3,0-0.5-0.2-0.5-0.5v-1
			C16,19.2,16.2,19,16.5,19z"/>
		<path id="矩形_2_" class="st0" d="M16.5,31h10c0.3,0,0.5,0.2,0.5,0.5v1c0,0.3-0.2,0.5-0.5,0.5h-10c-0.3,0-0.5-0.2-0.5-0.5v-1
			C16,31.2,16.2,31,16.5,31z"/>
		<path id="矩形_3_" class="st0" d="M16.5,25h5c0.3,0,0.5,0.2,0.5,0.5v1c0,0.3-0.2,0.5-0.5,0.5h-5c-0.3,0-0.5-0.2-0.5-0.5v-1
			C16,25.2,16.2,25,16.5,25z"/>
	</g>
</g>
</svg>
