<?xml version="1.0" encoding="utf-8"?>
<!-- Generator: Adobe Illustrator 21.0.0, SVG Export Plug-In . SVG Version: 6.00 Build 0)  -->
<svg version="1.1" id="图层_1" xmlns="http://www.w3.org/2000/svg" xmlns:xlink="http://www.w3.org/1999/xlink" x="0px" y="0px"
	 viewBox="0 0 52 52" style="enable-background:new 0 0 52 52;" xml:space="preserve">
<style type="text/css">
	.st0{fill:#007ABC;}
	.st1{fill:#FFFFFF;}
</style>
<title>报表查询3</title>
<desc>Created with Sketch.</desc>
<g id="画板" transform="translate(-501.000000, -222.000000)">
	<g id="报表查询3" transform="translate(501.000000, 222.000000)">
		<path id="矩形" class="st0" d="M5,0h42c2.8,0,5,2.2,5,5v42c0,2.8-2.2,5-5,5H5c-2.8,0-5-2.2-5-5V5C0,2.2,2.2,0,5,0z"/>
		<path id="合并形状" class="st1" d="M23.7,12c0.7,0,1.3,0.6,1.3,1.3l0,0v2.6h11.5c1.4,0,2.5,1.2,2.5,2.6l0,0l0,8.3
			c-1.1-0.5-2.3-0.8-3.5-0.8c-4.7,0-8.5,3.8-8.5,8.5c0,1.7,0.5,3.2,1.3,4.5l-14.7,0c-1.4,0-2.5-1.2-2.5-2.6l0,0V13.3
			c0-0.7,0.6-1.3,1.3-1.3l0,0H23.7z"/>
		<path id="路径" class="st0" d="M36.1,25H13.9c-0.5,0-0.9-0.4-0.9-0.9c0-0.5,0.4-0.9,0.9-0.9h1.9l2.5-4.4
			c0.5-0.8,1.5-1.1,2.3-0.6l8.6,5h7c0.5,0,0.9,0.4,0.9,0.9C37,24.6,36.6,25,36.1,25L36.1,25z"/>
		<path id="矩形_1_" class="st0" d="M17,32h4c0.6,0,1,0.4,1,1v1c0,0.6-0.4,1-1,1h-4c-0.6,0-1-0.4-1-1v-1C16,32.4,16.4,32,17,32z"
			/>
		<path id="路径_1_" class="st0" d="M21.6,25h14.9c0.3,0,0.6-0.3,0.6-0.6c0-0.3-0.3-0.6-0.6-0.6h-1.2l-1.7-3.1
			c-0.3-0.6-1-0.8-1.6-0.5l-5.8,3.6h-4.6c-0.3,0-0.6,0.3-0.6,0.6C21,24.7,21.3,25,21.6,25L21.6,25z"/>
		<path id="形状" class="st1" d="M40.8,38c0,0-0.1-0.1-0.1-0.1c0.6-1,1-2.2,1-3.5c0-3.5-2.8-6.4-6.3-6.4c-3.5,0-6.3,2.9-6.3,6.4
			c0,3.5,2.8,6.4,6.3,6.4c1.3,0,2.5-0.4,3.4-1c0,0,0.1,0.1,0.1,0.1l3.3,3.2c0.1,0.1,0.6,0.7,1.5-0.2s0.4-1.4,0.3-1.6L40.8,38z
			 M35.3,38.8c-2.4,0-4.3-2-4.3-4.4c0-2.4,1.9-4.4,4.3-4.4s4.3,2,4.3,4.4C39.7,36.8,37.7,38.8,35.3,38.8"/>
	</g>
</g>
</svg>
