<?xml version="1.0" encoding="utf-8"?>
<!-- Generator: Adobe Illustrator 21.0.0, SVG Export Plug-In . SVG Version: 6.00 Build 0)  -->
<svg version="1.1" id="图层_1" xmlns="http://www.w3.org/2000/svg" xmlns:xlink="http://www.w3.org/1999/xlink" x="0px" y="0px"
	 viewBox="0 0 52 52" style="enable-background:new 0 0 52 52;" xml:space="preserve">
<style type="text/css">
	.st0{fill:#7E8BE5;}
	.st1{fill-opacity:0;}
	.st2{fill:#FFFFFF;}
</style>
<title>报表查询8</title>
<desc>Created with Sketch.</desc>
<g id="画板" transform="translate(-1038.000000, -222.000000)">
	<g id="报表查询8" transform="translate(1038.000000, 222.000000)">
		<g id="档案8">
			<path id="矩形" class="st0" d="M5,0h42c2.8,0,5,2.2,5,5v42c0,2.8-2.2,5-5,5H5c-2.8,0-5-2.2-5-5V5C0,2.2,2.2,0,5,0z"/>
			<g id="报表分析" transform="translate(11.000000, 10.000000)">
				<rect id="矩形_1_" class="st1" width="30" height="30"/>
				<path id="形状" class="st2" d="M21.7,27.2h0.1c-1.4-0.2-2.2-0.8-2.6-1.3h-7.4c-0.4,0.6-1.2,1.2-2.6,1.3h0.1
					c-0.4,0-0.8,0.4-0.8,0.8c0,0.4,0.4,0.8,0.8,0.8h12.4c0.4,0,0.8-0.4,0.8-0.8C22.5,27.6,22.1,27.2,21.7,27.2z M27.9,2.1H3.2
					C2,2.1,1.1,3,1.1,4.2v18.6c0,1,0.9,1.8,1.9,1.8h25.2c1,0,1.8-0.8,1.9-1.8l0-3.5V4.2C30,3,29.1,2.1,27.9,2.1z M17.2,22.6
					c0,0.3-0.2,0.5-0.5,0.5h-2.4c-0.3,0-0.5-0.2-0.5-0.5v-0.3c0-0.3,0.2-0.5,0.5-0.5h2.4c0.3,0,0.5,0.2,0.5,0.5V22.6z M28.3,19.7
					c0,0.2-0.2,0.4-0.4,0.4H3.2c-0.2,0-0.4-0.2-0.4-0.4V4.2C2.8,4,3,3.8,3.2,3.8h24.7c0.2,0,0.4,0.2,0.4,0.4V19.7z M21.6,11.3h0.9
					l0,0c0-0.3,0-0.6-0.1-0.9L21.6,11.3z M19.4,6l-2.9,3v0.9L20,6.4C19.8,6.3,19.6,6.1,19.4,6z M18.1,5.5l-1.6,1.6v0.9l2.3-2.3
					C18.6,5.6,18.4,5.6,18.1,5.5z M16.5,5.3L16.5,5.3l0,0.9l0.9-0.9C17.1,5.3,16.8,5.3,16.5,5.3z M18.8,11.3l3-3
					c-0.1-0.2-0.2-0.4-0.4-0.6l-3.5,3.5H18.8z M21,7.3c-0.1-0.1-0.1-0.2-0.2-0.2c-0.1-0.1-0.2-0.2-0.2-0.2l-4,4v0.5h0.5L21,7.3z
					 M20.6,11.3l1.7-1.7c-0.1-0.2-0.1-0.5-0.2-0.7l-2.3,2.3L20.6,11.3L20.6,11.3z M15.4,6.3c-3.3,0-6.1,2.7-6.1,6.1
					c0,3.3,2.7,6.1,6.1,6.1c3.3,0,6.1-2.7,6.1-6.1h-6.1V6.3z"/>
			</g>
		</g>
	</g>
</g>
</svg>
