<?xml version="1.0" encoding="utf-8"?>
<!-- Generator: Adobe Illustrator 21.0.0, SVG Export Plug-In . SVG Version: 6.00 Build 0)  -->
<svg version="1.1" id="图层_1" xmlns="http://www.w3.org/2000/svg" xmlns:xlink="http://www.w3.org/1999/xlink" x="0px" y="0px"
	 viewBox="0 0 52 52" style="enable-background:new 0 0 52 52;" xml:space="preserve">
<style type="text/css">
	.st0{fill:#4B8B45;}
	.st1{fill:#FFFFFF;}
</style>
<title>业务设置5</title>
<desc>Created with Sketch.</desc>
<g id="画板" transform="translate(-714.000000, -686.000000)">
	<g id="业务设置5" transform="translate(714.000000, 686.000000)">
		<path id="矩形" class="st0" d="M5,0h42c2.8,0,5,2.2,5,5v42c0,2.8-2.2,5-5,5H5c-2.8,0-5-2.2-5-5V5C0,2.2,2.2,0,5,0z"/>
		<path id="形状" class="st1" d="M26,22.7V12H14.3C13,12,12,13,12,14.1v25.7c0,1.2,1,2.1,2.3,2.1h23.3c1.3,0,2.3-1,2.3-2.1V24.5
			H28.3C26.7,24.5,26,24,26,22.7z"/>
		<path id="三角形" class="st1" d="M29.5,12.5l9.9,9c0.1,0.1,0.1,0.3,0,0.4C39.4,22,39.3,22,39.2,22H30c-0.6,0-1-0.4-1-1v-8.3
			c0-0.2,0.1-0.3,0.3-0.3C29.4,12.4,29.4,12.4,29.5,12.5z"/>
		<path id="形状_1_" class="st0" d="M20.4,37.5L19.6,40L15,34.7l6.8-1.5l-0.7,2.2c0.1,0,0.2,0.1,0.3,0.1c4,1.4,8.2-0.2,10.6-3.5
			C30.1,36.6,25.1,39.1,20.4,37.5z M22.3,31.9l0.5-2.2c-0.1,0-0.2-0.1-0.4-0.1c-4.2-1-8.3,0.9-10.4,4.4c1.5-4.7,6.4-7.6,11.3-6.5
			l0.6-2.5l5.1,4.8L22.3,31.9L22.3,31.9z"/>
	</g>
</g>
</svg>
