<?xml version="1.0" encoding="utf-8"?>
<!-- Generator: Adobe Illustrator 21.0.0, SVG Export Plug-In . SVG Version: 6.00 Build 0)  -->
<svg version="1.1" id="图层_1" xmlns="http://www.w3.org/2000/svg" xmlns:xlink="http://www.w3.org/1999/xlink" x="0px" y="0px"
	 viewBox="0 0 52 52" style="enable-background:new 0 0 52 52;" xml:space="preserve">
<style type="text/css">
	.st0{fill:#54698D;}
	.st1{fill:#FFFFFF;}
</style>
<title>基础档案4</title>
<desc>Created with Sketch.</desc>
<g id="画板" transform="translate(-614.000000, -540.000000)">
	<g id="基础档案4" transform="translate(614.000000, 540.000000)">
		<path id="矩形" class="st0" d="M5,0h42c2.8,0,5,2.2,5,5v42c0,2.8-2.2,5-5,5H5c-2.8,0-5-2.2-5-5V5C0,2.2,2.2,0,5,0z"/>
		<g id="编组-2" transform="translate(10.000000, 13.000000)">
			<path id="矩形_1_" class="st1" d="M2,0h28c1.1,0,2,0.9,2,2v22.8c0,1.1-0.9,2-2,2H2c-1.1,0-2-0.9-2-2V2C0,0.9,0.9,0,2,0z"/>
			<path id="矩形_2_" class="st0" d="M5,5.2h7c0.6,0,1,0.4,1,1V12c0,0.6-0.4,1-1,1H5c-0.6,0-1-0.4-1-1V6.2C4,5.6,4.4,5.2,5,5.2z"
				/>
			<path id="矩形-copy" class="st0" d="M23,17.5h4c0.6,0,1,0.4,1,1v3.2c0,0.6-0.4,1-1,1h-4c-0.6,0-1-0.4-1-1v-3.2
				C22,18,22.4,17.5,23,17.5z"/>
			<path id="矩形_3_" class="st0" d="M17.4,6.2h10.2c0.2,0,0.4,0.2,0.4,0.4v1.3c0,0.2-0.2,0.4-0.4,0.4H17.4
				c-0.2,0-0.4-0.2-0.4-0.4V6.6C17,6.4,17.2,6.2,17.4,6.2z"/>
			<path id="矩形_4_" class="st0" d="M17.4,10.3h6.2c0.2,0,0.4,0.2,0.4,0.4V12c0,0.2-0.2,0.4-0.4,0.4h-6.2c-0.2,0-0.4-0.2-0.4-0.4
				v-1.3C17,10.5,17.2,10.3,17.4,10.3z"/>
			<path id="矩形_5_" class="st0" d="M4.4,19.6h14.2c0.2,0,0.4,0.2,0.4,0.4v1.3c0,0.2-0.2,0.4-0.4,0.4H4.4c-0.2,0-0.4-0.2-0.4-0.4
				V20C4,19.8,4.2,19.6,4.4,19.6z"/>
		</g>
	</g>
</g>
</svg>
