<?xml version="1.0" encoding="utf-8"?>
<!-- Generator: Adobe Illustrator 22.1.0, SVG Export Plug-In . SVG Version: 6.00 Build 0)  -->
<svg version="1.1" id="图层_1" xmlns="http://www.w3.org/2000/svg" xmlns:xlink="http://www.w3.org/1999/xlink" x="0px" y="0px"
	 viewBox="0 0 1000 1000" style="enable-background:new 0 0 1000 1000;" xml:space="preserve">
<style type="text/css">
	.st0{fill:url(#SVGID_1_);}
	.st1{fill:#555E60;}
	.st2{fill:#EDF5F7;}
	.st3{fill:#90A6B4;}
	.st4{fill:#DC544F;}
</style>
<g>
	<g>
		<linearGradient id="SVGID_1_" gradientUnits="userSpaceOnUse" x1="500.2306" y1="49.5388" x2="500.2306" y2="952.4768">
			<stop  offset="0" style="stop-color:#F9F9F9"/>
			<stop  offset="1" style="stop-color:#EDEDED"/>
		</linearGradient>
		<path class="st0" d="M800.4,950H200.1C117.2,950,50,882.8,50,799.9V199.6c0-82.9,67.2-150.1,150.1-150.1h600.3
			c82.9,0,150.1,67.2,150.1,150.1v600.3C950.5,882.8,883.3,950,800.4,950z"/>
	</g>
	<g>
		<path class="st1" d="M762.3,731.6H230.3c-15.7,0-28.3-12.7-28.3-28.3V333.4c0-15.7,12.7-28.3,28.3-28.3h532.1
			c15.7,0,28.3,12.7,28.3,28.3v369.8C790.7,718.9,778,731.6,762.3,731.6z"/>
		<rect x="248.3" y="305.1" class="st2" width="496" height="398.7"/>
		<path class="st3" d="M577.5,328.3H415.1c-0.8,0-1.5-0.3-1.8-0.7c-1-1.3-1.5-2.5-1.5-3.8c0-0.1,0-0.2,0-0.2l4.9-17.7
			c0.1-9.3,12-16.9,26.6-16.9h22.6l-6.5-16.2c0-0.1-0.1-0.2-0.1-0.3c-0.1-3.2,1.8-6.1,5.2-8.4c3.5-2.3,8.1-3.5,13.1-3.5h37.6
			c10.2,0,18.4,5.3,18.4,11.9c0,0.1,0,0.2-0.1,0.3l-6.5,16.2h22.5c14.6,0,26.5,7.6,26.6,16.9l4.9,17.7c0,0.1,0,0.2,0,0.2
			c0,1.3-0.5,2.6-1.5,3.8C579,328,578.3,328.3,577.5,328.3z"/>
		<g>
			<rect x="366.5" y="360.7" class="st3" width="37.1" height="9.3"/>
			<rect x="366.5" y="374.6" class="st3" width="37.1" height="9.3"/>
			<rect x="366.5" y="388.5" class="st3" width="37.1" height="9.3"/>
			<rect x="440.7" y="360.7" class="st3" width="37.1" height="9.3"/>
			<rect x="440.7" y="374.6" class="st3" width="37.1" height="9.3"/>
			<rect x="440.7" y="388.5" class="st3" width="37.1" height="9.3"/>
			<rect x="514.8" y="360.7" class="st3" width="37.1" height="9.3"/>
			<rect x="514.8" y="374.6" class="st3" width="37.1" height="9.3"/>
			<rect x="514.8" y="388.5" class="st3" width="37.1" height="9.3"/>
			<rect x="589" y="360.7" class="st3" width="37.1" height="9.3"/>
			<rect x="589" y="374.6" class="st3" width="37.1" height="9.3"/>
			<rect x="589" y="388.5" class="st3" width="37.1" height="9.3"/>
		</g>
		<rect x="278.7" y="423.5" class="st3" width="438.9" height="5.5"/>
		<rect x="278.7" y="463.1" class="st3" width="438.9" height="5.5"/>
		<rect x="278.7" y="502.6" class="st3" width="438.9" height="5.5"/>
		<rect x="278.7" y="542.1" class="st3" width="438.9" height="5.5"/>
		<rect x="278.7" y="581.7" class="st3" width="438.9" height="5.5"/>
		<rect x="278.7" y="621.2" class="st3" width="438.9" height="5.5"/>
		<rect x="278.7" y="662.1" class="st3" width="438.9" height="5.5"/>
		
			<rect x="164.9" y="542.8" transform="matrix(-1.836970e-16 1 -1 -1.836970e-16 826.9935 264.0785)" class="st3" width="233.1" height="5.5"/>
		
			<rect x="284.9" y="542.8" transform="matrix(-1.836970e-16 1 -1 -1.836970e-16 946.9454 144.1266)" class="st3" width="233.1" height="5.5"/>
		
			<rect x="404.1" y="544.1" transform="matrix(-1.836970e-16 1 -1 -1.836970e-16 1066.1555 24.9163)" class="st3" width="233.1" height="2.8"/>
		
			<rect x="418.1" y="544.1" transform="matrix(-1.836970e-16 1 -1 -1.836970e-16 1080.1548 10.9171)" class="st3" width="233.1" height="2.8"/>
		
			<rect x="432.1" y="544.1" transform="matrix(-1.836970e-16 1 -1 -1.836970e-16 1094.1539 -3.0821)" class="st3" width="233.1" height="2.8"/>
		
			<rect x="446.1" y="544.1" transform="matrix(-1.836970e-16 1 -1 -1.836970e-16 1108.1532 -17.0813)" class="st3" width="233.1" height="2.8"/>
		
			<rect x="460.1" y="544.1" transform="matrix(-1.836970e-16 1 -1 -1.836970e-16 1122.1523 -31.0805)" class="st3" width="233.1" height="2.8"/>
		
			<rect x="474.1" y="544.1" transform="matrix(-1.836970e-16 1 -1 -1.836970e-16 1136.1516 -45.0797)" class="st4" width="233.1" height="2.8"/>
		
			<rect x="488.1" y="544.1" transform="matrix(-1.836970e-16 1 -1 -1.836970e-16 1150.1508 -59.0789)" class="st3" width="233.1" height="2.8"/>
		
			<rect x="502.1" y="544.1" transform="matrix(-1.836970e-16 1 -1 -1.836970e-16 1164.15 -73.0781)" class="st3" width="233.1" height="2.8"/>
		
			<rect x="516.1" y="544.1" transform="matrix(-1.836970e-16 1 -1 -1.836970e-16 1178.1492 -87.0773)" class="st3" width="233.1" height="2.8"/>
		
			<rect x="530.1" y="544.1" transform="matrix(-1.836970e-16 1 -1 -1.836970e-16 1192.1484 -101.0765)" class="st4" width="233.1" height="2.8"/>
		
			<rect x="544.1" y="544.1" transform="matrix(-1.836970e-16 1 -1 -1.836970e-16 1206.1476 -115.0757)" class="st3" width="233.1" height="2.8"/>
		
			<rect x="558.1" y="544.1" transform="matrix(-1.836970e-16 1 -1 -1.836970e-16 1220.1467 -129.0749)" class="st4" width="233.1" height="2.8"/>
		
			<rect x="572.1" y="544.1" transform="matrix(-1.836970e-16 1 -1 -1.836970e-16 1234.146 -143.0741)" class="st3" width="233.1" height="2.8"/>
		
			<rect x="586.1" y="544.1" transform="matrix(-1.836970e-16 1 -1 -1.836970e-16 1248.1451 -157.0733)" class="st3" width="233.1" height="2.8"/>
		
			<rect x="598.4" y="542.8" transform="matrix(-1.836970e-16 1 -1 -1.836970e-16 1260.4558 -169.3838)" class="st3" width="233.1" height="5.5"/>
	</g>
</g>
</svg>
