<?xml version="1.0" encoding="utf-8"?>
<!-- Generator: Adobe Illustrator 22.1.0, SVG Export Plug-In . SVG Version: 6.00 Build 0)  -->
<svg version="1.1" id="图层_1" xmlns="http://www.w3.org/2000/svg" xmlns:xlink="http://www.w3.org/1999/xlink" x="0px" y="0px"
	 viewBox="0 0 1000 1000" style="enable-background:new 0 0 1000 1000;" xml:space="preserve">
<style type="text/css">
	.st0{fill:url(#SVGID_1_);}
	.st1{fill:#555E60;}
	.st2{fill:#90A6B4;}
	.st3{fill:#EDF5F7;}
	.st4{opacity:0.5;fill:#90A6B4;}
	.st5{fill:#DC544F;}
</style>
<g>
	<g>
		<linearGradient id="SVGID_1_" gradientUnits="userSpaceOnUse" x1="500.4163" y1="50.1267" x2="500.4163" y2="952.4752">
			<stop  offset="0" style="stop-color:#F9F9F9"/>
			<stop  offset="1" style="stop-color:#EDEDED"/>
		</linearGradient>
		<path class="st0" d="M800.4,950H200.5c-82.8,0-150-67.1-150-150V200.1c0-82.8,67.1-150,150-150h599.9c82.8,0,150,67.1,150,150V800
			C950.4,882.9,883.2,950,800.4,950z"/>
	</g>
	<g>
		<rect x="415.4" y="389.6" class="st1" width="161.6" height="177.7"/>
		<polygon class="st2" points="480.6,305.1 320.4,305.1 415.4,389.6 577,389.6 		"/>
		<polygon class="st3" points="320.4,305.1 230.5,389.6 230.5,567.2 415.4,567.2 415.4,389.6 		"/>
		<path class="st2" d="M734.8,638.2H266c-19.6,0-35.5-15.9-35.5-35.5v-35.5h539.9v35.5C770.3,622.3,754.4,638.2,734.8,638.2z"/>
		<rect x="653.5" y="638.2" class="st1" width="116.9" height="132.1"/>
		<path class="st1" d="M446.5,638.2c-16.4,0-29.7,13.3-29.7,29.7l0,0c0,11.6,6.6,21.6,16.3,26.5l-1.1,12.4l-111.9-57.3
			c-14.6-7.5-32.5-1.7-39.9,12.9l0,0c-7.5,14.6-1.7,32.5,12.9,39.9L425,769.9c0.5,0.3,1.1,0.4,1.7,0.4l0,0.1h226.8v-72.8v-4.4v-55
			H446.5z"/>
		<path class="st3" d="M431.7,765.8l0-0.2l-4.9,0.1l-131.6-67.4c-6-3.1-10.4-8.2-12.4-14.6c-2.1-6.4-1.5-13.2,1.5-19.1
			c4.3-8.4,12.9-13.6,22.3-13.6c4,0,7.8,0.9,11.4,2.8l118,60.4l1.9-22.4l-2.8-1.4c-8.5-4.3-13.8-12.9-13.8-22.4
			c0-13.8,11.2-25.1,25.1-25.1h202.3v122.9H431.7z"/>
		<path class="st2" d="M565.6,707H432.1l1.1-12.7h132.3c3.5,0,6.4,2.9,6.4,6.4l0,0C571.9,704.2,569.1,707,565.6,707z"/>
		<path class="st1" d="M770.3,537c-0.7-22.9-24.4-26.2-24.4-26.2V378.3c0,0-4-89.2-92.1-91c-0.7,0,24-57.5,24-57.5h-51h-4h-51
			c0,0,24.8,57.5,24,57.5c-88.1,1.8-92.1,91-92.1,91v132.5c0,0-23.7,3.3-24.4,26.2c-0.7,22.9,17.5,30.2,17.5,30.2h126h4h126
			C752.9,567.2,771.1,559.9,770.3,537z"/>
		<path class="st3" d="M498.6,559.9c-3.2-1.8-12.3-8.1-11.9-22.7c0.2-7,3.2-12.2,9-15.7c4.5-2.8,9.1-3.5,9.1-3.5l6.3-0.9V378.5
			c0.1-1.8,1.6-22,12.4-42c14.6-27.1,39-41.2,72.5-41.9h3.8l2.2-3.3c2.1-3.3,1-6.2-0.2-9.3c-0.6-1.6-1.5-3.8-2.7-6.7
			c-2-4.8-4.8-11.5-8.3-19.8c-2.8-6.6-5.6-13.2-7.8-18.4h83.8c-2.2,5.2-5,11.8-7.8,18.4c-3.5,8.3-6.3,15-8.3,19.8
			c-1.2,2.9-2.1,5.2-2.7,6.7c-1.2,3.1-2.3,6-0.2,9.3l2.2,3.3l3.9,0c33.5,0.7,57.9,14.8,72.5,41.9c10.8,20,12.3,40.2,12.4,42v138.7
			l6.3,0.8c0.4,0.1,5,0.9,9.5,3.7c5.6,3.6,8.4,8.6,8.6,15.5c0.2,7.3-1.8,13.3-6.1,18c-2.2,2.4-4.5,3.9-5.8,4.7H498.6z"/>
		<path class="st4" d="M751.2,559.9c1.3-0.7,3.6-2.2,5.8-4.7c4.3-4.7,6.3-10.8,6.1-18c-0.2-6.9-3-11.9-8.6-15.5
			c-4.5-2.9-9.1-3.7-9.5-3.7l-6.3-0.8V378.5c-0.1-1.8-1.6-22.1-12.4-42c0,0,0-0.1,0-0.1c-5.7,42.9-23.4,99.5-72.4,151.1
			c-33.1,34.9-63.5,57.6-88.9,72.4H751.2z"/>
		<rect x="303.6" y="407.1" class="st1" width="33.1" height="40.8"/>
		<rect x="294.9" y="492.2" class="st1" width="51" height="75.7"/>
		<circle class="st2" cx="689" cy="731.6" r="11.8"/>
		<g>
			<path class="st5" d="M620.6,349.4h7.2v14.4c10,0.5,18.2,3.7,24.7,9.3c7,6,11.2,15.1,13,27H655c-1.4-9.1-4.9-16-10.2-20.5
				c-4.6-3.9-10.2-6-17-6.5v50.3l20.9,7.5c12.6,6.3,18.9,15.3,18.9,27c0,12.3-4.2,21.6-12.4,27.7c-6.7,4.9-15.8,7.5-27.4,8.1V509
				h-7.2v-15.4c-11.6-0.7-20.5-4.4-26.8-11.2c-6.7-7-10.7-17.4-12.1-31h10.7c1.2,11.2,4.4,19.5,9.3,24.7c4.4,4.7,10.7,7.4,18.9,8.1
				v-52.9l-17.9-6.3c-12.6-6.3-18.8-15.3-18.8-27.2c0-11.2,3.9-19.8,11.7-25.8c6.3-5.1,14.7-7.9,24.9-8.2V349.4z M620.6,373.1
				c-7.4,0.4-13.1,2.1-17.5,5.6c-5.6,4.2-8.4,10.5-8.4,18.9c0,8.6,6.3,15.4,18.9,20.5l7,2.6V373.1z M627.8,484.2
				c8.9-0.5,16-2.8,21-6.8c5.3-4.6,7.9-10.9,7.9-19.1c0-9.1-6.3-16.1-18.8-21l-10.2-3.5V484.2z"/>
		</g>
	</g>
</g>
</svg>
