<?xml version="1.0" encoding="utf-8"?>
<!-- Generator: Adobe Illustrator 22.1.0, SVG Export Plug-In . SVG Version: 6.00 Build 0)  -->
<svg version="1.1" id="图层_1" xmlns="http://www.w3.org/2000/svg" xmlns:xlink="http://www.w3.org/1999/xlink" x="0px" y="0px"
	 viewBox="0 0 1000 1000" style="enable-background:new 0 0 1000 1000;" xml:space="preserve">
<style type="text/css">
	.st0{fill:url(#SVGID_1_);}
	.st1{fill:#90A6B4;}
	.st2{fill:#DC544F;}
	.st3{fill:#FFFFFF;}
	.st4{fill:#555E60;}
</style>
<g>
	<g>
		<linearGradient id="SVGID_1_" gradientUnits="userSpaceOnUse" x1="500.125" y1="49.5236" x2="500.125" y2="951.7485">
			<stop  offset="0" style="stop-color:#F9F9F9"/>
			<stop  offset="1" style="stop-color:#EDEDED"/>
		</linearGradient>
		<path class="st0" d="M800,949.3H200.2c-82.8,0-150-67.1-150-150V199.5c0-82.8,67.1-150,150-150H800c82.8,0,150,67.1,150,150v599.8
			C950,882.1,882.9,949.3,800,949.3z"/>
	</g>
	<g>
		<path class="st1" d="M714.7,499.4c0-30.5,19.1-56.3,45.9-66.6c-6.4-25.1-16.3-48.8-29.2-70.5c-26.3,11.7-58,6.9-79.5-14.7
			c-21.5-21.5-26.3-53.3-14.6-79.5c-21.8-12.9-45.5-22.8-70.6-29.2c-10.4,26.8-36.2,45.9-66.6,45.9c-30.5,0-56.3-19.1-66.6-45.9
			c-25.1,6.4-48.8,16.3-70.5,29.2c11.7,26.3,6.9,58-14.6,79.5c-21.5,21.5-53.3,26.3-79.5,14.7c-13,21.7-22.9,45.4-29.2,70.5
			c26.8,10.4,45.9,36.2,45.9,66.6c0,30.5-19.1,56.3-45.9,66.6c6.4,25.1,16.3,48.8,29.2,70.5c26.3-11.7,58-6.9,79.5,14.7
			c21.5,21.5,26.3,53.3,14.6,79.5c21.8,12.9,45.5,22.8,70.6,29.2c10.4-26.8,36.2-45.9,66.6-45.9c30.5,0,56.3,19.1,66.6,45.9
			c25.1-6.4,48.8-16.3,70.5-29.2c-11.7-26.3-6.9-58,14.6-79.5c21.5-21.5,53.3-26.3,79.5-14.7c13-21.7,22.9-45.4,29.2-70.5
			C733.8,555.7,714.7,529.9,714.7,499.4z"/>
		<circle class="st2" cx="500.1" cy="499.4" r="166.2"/>
		<circle class="st3" cx="500.1" cy="499.4" r="157.2"/>
		<path class="st4" d="M446.6,400.6c25,0,45.3,20.3,45.3,45.3l0,0v45.3h-45.3c-25,0-45.3-20.3-45.3-45.3
			C401.3,420.9,421.6,400.6,446.6,400.6z M446.6,507.6h45.3v45.3c0,25-20.3,45.3-45.3,45.3c-25,0-45.3-20.3-45.3-45.3
			S421.6,507.6,446.6,507.6z M553.7,400.6c25,0,45.3,20.3,45.3,45.3c0,25-20.3,45.3-45.3,45.3h-45.3v-45.3
			C508.4,420.9,528.6,400.6,553.7,400.6L553.7,400.6z M508.4,507.6h45.3c25,0,45.3,20.3,45.3,45.3s-20.3,45.3-45.3,45.3
			s-45.3-20.3-45.3-45.3V507.6z"/>
	</g>
</g>
</svg>
