<?xml version="1.0" encoding="utf-8"?>
<!-- Generator: Adobe Illustrator 22.1.0, SVG Export Plug-In . SVG Version: 6.00 Build 0)  -->
<svg version="1.1" id="图层_1" xmlns="http://www.w3.org/2000/svg" xmlns:xlink="http://www.w3.org/1999/xlink" x="0px" y="0px"
	 viewBox="0 0 1000 1000" style="enable-background:new 0 0 1000 1000;" xml:space="preserve">
<style type="text/css">
	.st0{fill:url(#SVGID_1_);}
	.st1{fill:#555E60;}
	.st2{fill:#EDF5F7;}
	.st3{fill:#90A6B4;}
	.st4{opacity:0.5;fill:#90A6B4;}
	.st5{fill:#DC544F;}
</style>
<g>
	<g>
		<linearGradient id="SVGID_1_" gradientUnits="userSpaceOnUse" x1="500.1676" y1="50.0421" x2="500.1676" y2="952.1815">
			<stop  offset="0" style="stop-color:#F9F9F9"/>
			<stop  offset="1" style="stop-color:#EDEDED"/>
		</linearGradient>
		<path class="st0" d="M800.1,949.7H200.3c-82.8,0-149.9-67.1-149.9-149.9V200C50.3,117.2,117.5,50,200.3,50h599.8
			C882.9,50,950,117.2,950,200v599.8C950,882.6,882.9,949.7,800.1,949.7z"/>
	</g>
	<g>
		<path class="st1" d="M244.2,720.6h511.9c17.5,0,31.7-14.2,31.7-31.7c0-1-0.1-2-0.2-3V279.2H275.9v409.3h0c0,0.2,0,0.3,0,0.5
			C275.9,706.4,261.7,720.6,244.2,720.6z"/>
		<path class="st2" d="M784.8,282v403.9c0.1,1.2,0.2,2.1,0.2,3c0,15.9-12.9,28.8-28.8,28.8H263.2c8.7-5.8,14.7-15.4,15.4-26.4h0.1
			l0-2.9V282H784.8z"/>
		<path class="st3" d="M275.7,685.9V294.2h-15.1v407.7h-10.7V311.8h-15.6v390.2h-10.7V323.8h-10.9v362.1c-0.1,1-0.2,2-0.2,3
			c0,17.5,14.2,31.7,31.7,31.7c17.5,0,31.7-14.2,31.7-31.7C275.9,687.9,275.8,686.9,275.7,685.9z"/>
		<rect x="315.8" y="317.3" class="st1" width="441.8" height="60.1"/>
		<rect x="324.4" y="343.1" class="st2" width="424.7" height="8.6"/>
		<rect x="320.1" y="428.9" class="st4" width="167.3" height="145.8"/>
		<rect x="320.1" y="428.9" class="st3" width="4.3" height="145.8"/>
		
			<rect x="403.8" y="491.1" transform="matrix(-1.836970e-16 1 -1 -1.836970e-16 978.4921 166.6759)" class="st3" width="4.3" height="163"/>
		<rect x="315.8" y="617.6" class="st3" width="195.4" height="8.6"/>
		<rect x="315.8" y="634.8" class="st3" width="195.4" height="8.6"/>
		<rect x="315.8" y="651.9" class="st3" width="76.4" height="8.6"/>
		<rect x="545.2" y="617.6" class="st3" width="195.4" height="8.6"/>
		<rect x="545.2" y="634.8" class="st3" width="195.4" height="8.6"/>
		<rect x="545.2" y="651.9" class="st3" width="76.4" height="8.6"/>
		<polygon class="st5" points="338.8,546.2 335.8,543.2 380,498.9 405.7,520.3 455.8,466 459,468.9 406.1,526.2 380.3,504.7 		"/>
		<polygon class="st5" points="448.8,458.9 466,476.1 466,458.9 		"/>
		<path class="st3" d="M648.3,424.6c-41.5,0-75.1,33.6-75.1,75.1s33.6,75.1,75.1,75.1s75.1-33.6,75.1-75.1S689.7,424.6,648.3,424.6z
			 M648.3,557.6c-32,0-57.9-25.9-57.9-57.9c0-32,25.9-57.9,57.9-57.9c32,0,57.9,25.9,57.9,57.9C706.2,531.6,680.3,557.6,648.3,557.6
			z"/>
		<path class="st1" d="M595.5,523.6c-3.4-7.5-5.2-15.7-5.2-23.9c0-14.1,5.2-27.7,14.5-38.3l43.4,38.3l-55.8-50.2
			c-12.4,13.8-19.3,31.7-19.3,50.2c0,10.8,2.3,21.4,6.8,31.2l68.3-31.2L595.5,523.6z"/>
	</g>
</g>
</svg>
