<?xml version="1.0" encoding="utf-8"?>
<!-- Generator: Adobe Illustrator 22.1.0, SVG Export Plug-In . SVG Version: 6.00 Build 0)  -->
<svg version="1.1" id="图层_1" xmlns="http://www.w3.org/2000/svg" xmlns:xlink="http://www.w3.org/1999/xlink" x="0px" y="0px"
	 viewBox="0 0 1000 1000" style="enable-background:new 0 0 1000 1000;" xml:space="preserve">
<style type="text/css">
	.st0{fill:url(#SVGID_1_);}
	.st1{fill:#90A6B4;}
	.st2{fill:#555E60;}
	.st3{fill:#EDF5F7;}
</style>
<g>
	<g>
		<linearGradient id="SVGID_1_" gradientUnits="userSpaceOnUse" x1="500.3508" y1="49.5388" x2="500.3508" y2="952.4768">
			<stop  offset="0" style="stop-color:#F9F9F9"/>
			<stop  offset="1" style="stop-color:#EDEDED"/>
		</linearGradient>
		<path class="st0" d="M800.5,950H200.2c-82.9,0-150.1-67.2-150.1-150.1V199.6c0-82.9,67.2-150.1,150.1-150.1h600.3
			c82.9,0,150.1,67.2,150.1,150.1v600.3C950.6,882.8,883.4,950,800.5,950z"/>
	</g>
	<g>
		<rect x="251.2" y="236.6" class="st1" width="400.4" height="535.5"/>
		<rect x="293.1" y="199.4" class="st2" width="400.4" height="535.5"/>
		
			<rect x="232.4" y="273.8" transform="matrix(-1.836970e-16 1 -1 -1.836970e-16 960.4129 -26.1506)" class="st3" width="521.7" height="386.7"/>
		<path class="st1" d="M333.8,269.7v198.4H462V269.7H333.8z M456.7,464H339.2V273.8h117.5V464z"/>
		<rect x="350.4" y="298.6" class="st1" width="99.2" height="4.1"/>
		<rect x="350.4" y="315.2" class="st1" width="99.2" height="4.1"/>
		<rect x="350.4" y="331.7" class="st1" width="99.2" height="4.1"/>
		<rect x="350.4" y="348.2" class="st1" width="99.2" height="4.1"/>
		<rect x="350.4" y="364.8" class="st1" width="99.2" height="4.1"/>
		<rect x="350.4" y="381.3" class="st1" width="99.2" height="4.1"/>
		<rect x="350.4" y="397.8" class="st1" width="99.2" height="4.1"/>
		<rect x="350.4" y="414.4" class="st1" width="99.2" height="4.1"/>
		<rect x="350.4" y="430.9" class="st1" width="99.2" height="4.1"/>
		<rect x="474.4" y="410.2" class="st1" width="12.4" height="4.5"/>
		<rect x="474.4" y="428" class="st1" width="12.4" height="4.5"/>
		<rect x="474.4" y="445.8" class="st1" width="12.4" height="4.5"/>
		<rect x="474.4" y="463.7" class="st1" width="12.4" height="4.5"/>
		<rect x="499.2" y="410.2" class="st1" width="165.4" height="4.5"/>
		<rect x="499.2" y="428" class="st1" width="165.4" height="4.5"/>
		<rect x="499.2" y="445.8" class="st1" width="165.4" height="4.5"/>
		<rect x="499.2" y="463.7" class="st1" width="165.4" height="4.5"/>
		<path class="st1" d="M680.4,735.4c4,1.7,7.5,4,10.6,7c3.1,3,5.5,6.5,7.2,10.6s2.5,8.4,2.5,12.9c0,4.6-0.8,8.9-2.5,12.9
			s-4.1,7.6-7.2,10.6c-3.1,3-6.7,5.4-10.6,7.2c-4,1.8-8.3,2.7-13.1,2.7c-4.6,0-8.9-0.9-12.9-2.7s-7.7-4.2-10.8-7.2
			s-5.5-6.5-7.2-10.6c-1.7-4.1-2.5-8.4-2.5-12.9c0-4.6,0.8-8.9,2.5-12.9s4.1-7.6,7.2-10.6s6.7-5.3,10.8-7s8.4-2.5,12.9-2.5
			C672.1,732.9,676.4,733.7,680.4,735.4z M530.6,736.1c4.1,1.7,7.6,4,10.6,7c3,3,5.4,6.5,7.2,10.6c1.8,4.1,2.7,8.4,2.7,12.9
			c0,4.6-0.9,8.9-2.7,12.9s-4.2,7.6-7.2,10.6c-3,3-6.5,5.4-10.6,7.2c-4.1,1.8-8.4,2.7-12.9,2.7s-8.9-0.9-13.1-2.7
			c-4.2-1.8-7.8-4.2-10.8-7.2c-3-3-5.4-6.5-7.2-10.6c-1.8-4.1-2.7-8.4-2.7-12.9c0-4.6,0.9-8.9,2.7-12.9c1.8-4.1,4.2-7.6,7.2-10.6
			c3-3,6.6-5.3,10.8-7c4.2-1.7,8.6-2.5,13.1-2.5S526.5,734.5,530.6,736.1z M703.2,529.4c0.7-4.8,1.4-9.3,2.2-13.7
			c0.5-3.6,1-7.1,1.4-10.6c0.5-3.5,1-6.2,1.4-8.1c0.5-1.7,1.1-3.7,1.8-6.1c0.7-2.4,1.9-4.7,3.6-6.8s4-4,6.8-5.4
			c2.9-1.4,6.7-2.2,11.5-2.2h12.2h9h7.2h7.9c5.5,0,9.9,1.6,13.1,4.7c3.2,3.1,4.9,7.1,4.9,11.9c0,2.4-0.3,5-0.9,7.9
			c-0.6,2.9-1.7,5.6-3.2,8.1s-3.5,4.7-5.9,6.5s-5.4,2.7-9,2.7h-27c-5.8,29.7-10.9,56.7-15.5,80.9c-1.9,10.3-3.8,20.6-5.8,30.7
			c-1.9,10.2-3.7,19.4-5.2,27.7s-2.9,15.2-4,20.7c-1.1,5.5-1.7,9-2,10.4c-0.7,3.6-1.7,7.4-3.1,11.5c-1.3,4.1-3.1,7.9-5.2,11.3
			c-2.2,3.5-4.9,6.3-8.1,8.5c-3.2,2.2-7.3,3.2-12,3.2h-19.8h-34.5h-42.1h-41.4h-33.4h-17.3c-6.7,0-11.2-1.7-13.5-5.2
			c-2.3-3.5-3.4-7.6-3.4-12.4c0-9.8,5.8-14.7,17.3-14.7h181.2l5.4-32.4h-89.2h-33.4h-30.6h-23.4h-12.2c-7,0-12.8-1.9-17.6-5.6
			c-4.8-3.7-8.8-10.4-11.9-20c-1.4-4.6-3.5-10.8-6.3-18.7c-2.8-7.9-5.6-15.9-8.5-23.9c-2.9-8-5.5-15.4-7.7-22.1
			c-2.3-6.7-3.8-11.1-4.5-13.3c-0.7-2.2-1.1-4.7-1.3-7.7s0.6-5.8,2.2-8.5c1.6-2.6,4.2-4.9,7.9-6.7c3.7-1.8,8.9-2.7,15.6-2.7H703.2z"
			/>
		<path class="st2" d="M675.5,725.5c4,1.7,7.5,4,10.6,7s5.5,6.5,7.2,10.6s2.5,8.4,2.5,12.9c0,4.6-0.8,8.9-2.5,12.9
			s-4.1,7.6-7.2,10.6s-6.7,5.4-10.6,7.2s-8.3,2.7-13.1,2.7c-4.6,0-8.9-0.9-12.9-2.7c-4.1-1.8-7.7-4.2-10.8-7.2
			c-3.1-3-5.5-6.5-7.2-10.6s-2.5-8.4-2.5-12.9c0-4.6,0.8-8.9,2.5-12.9s4.1-7.6,7.2-10.6s6.7-5.3,10.8-7c4.1-1.7,8.4-2.5,12.9-2.5
			C667.1,723,671.5,723.9,675.5,725.5z M525.7,726.3c4.1,1.7,7.6,4,10.6,7c3,3,5.4,6.5,7.2,10.6c1.8,4.1,2.7,8.4,2.7,12.9
			c0,4.6-0.9,8.9-2.7,12.9s-4.2,7.6-7.2,10.6c-3,3-6.5,5.4-10.6,7.2c-4.1,1.8-8.4,2.7-12.9,2.7c-4.6,0-8.9-0.9-13.1-2.7
			c-4.2-1.8-7.8-4.2-10.8-7.2c-3-3-5.4-6.5-7.2-10.6c-1.8-4.1-2.7-8.4-2.7-12.9c0-4.6,0.9-8.9,2.7-12.9c1.8-4.1,4.2-7.6,7.2-10.6
			c3-3,6.6-5.3,10.8-7c4.2-1.7,8.6-2.5,13.1-2.5C517.3,723.7,521.6,724.6,525.7,726.3z M698.3,519.5c0.7-4.8,1.4-9.3,2.2-13.7
			c0.5-3.6,1-7.1,1.4-10.6c0.5-3.5,1-6.2,1.4-8.1c0.5-1.7,1.1-3.7,1.8-6.1c0.7-2.4,1.9-4.7,3.6-6.8s4-4,6.8-5.4
			c2.9-1.4,6.7-2.2,11.5-2.2h12.2h9h7.2h7.9c5.5,0,9.9,1.6,13.1,4.7s4.9,7.1,4.9,11.9c0,2.4-0.3,5-0.9,7.9s-1.7,5.6-3.2,8.1
			s-3.5,4.7-5.9,6.5c-2.4,1.8-5.4,2.7-9,2.7h-27c-5.8,29.7-10.9,56.7-15.5,80.9c-1.9,10.3-3.8,20.6-5.8,30.7
			c-1.9,10.2-3.7,19.4-5.2,27.7s-2.9,15.2-4,20.7s-1.7,9-2,10.4c-0.7,3.6-1.7,7.4-3.1,11.5s-3.1,7.9-5.2,11.3
			c-2.2,3.5-4.9,6.3-8.1,8.5c-3.2,2.2-7.3,3.2-12,3.2h-19.8h-34.5h-42.1h-41.4h-33.4h-17.3c-6.7,0-11.2-1.7-13.5-5.2
			c-2.3-3.5-3.4-7.6-3.4-12.4c0-9.8,5.8-14.7,17.3-14.7h181.2l5.4-32.4h-89.2h-33.4h-30.6h-23.4h-12.2c-7,0-12.8-1.9-17.6-5.6
			c-4.8-3.7-8.8-10.4-11.9-20c-1.4-4.6-3.5-10.8-6.3-18.7c-2.8-7.9-5.6-15.9-8.5-23.9c-2.9-8-5.5-15.4-7.7-22.1
			c-2.3-6.7-3.8-11.1-4.5-13.3c-0.7-2.2-1.1-4.7-1.3-7.7s0.6-5.8,2.2-8.5c1.6-2.6,4.2-4.9,7.9-6.7c3.7-1.8,8.9-2.7,15.6-2.7H698.3z"
			/>
	</g>
</g>
</svg>
