<?xml version="1.0" encoding="utf-8"?>
<!-- Generator: Adobe Illustrator 22.1.0, SVG Export Plug-In . SVG Version: 6.00 Build 0)  -->
<svg version="1.1" id="图层_1" xmlns="http://www.w3.org/2000/svg" xmlns:xlink="http://www.w3.org/1999/xlink" x="0px" y="0px"
	 viewBox="0 0 1000 1000" style="enable-background:new 0 0 1000 1000;" xml:space="preserve">
<style type="text/css">
	.st0{fill:url(#SVGID_1_);}
	.st1{fill:#555E60;}
	.st2{fill:#EDF5F7;}
	.st3{fill:#90A6B4;}
	.st4{fill:#DC544F;}
</style>
<g>
	<g>
		<linearGradient id="SVGID_1_" gradientUnits="userSpaceOnUse" x1="500.1699" y1="49.5388" x2="500.1699" y2="951.6736">
			<stop  offset="0" style="stop-color:#F9F9F9"/>
			<stop  offset="1" style="stop-color:#EDEDED"/>
		</linearGradient>
		<path class="st0" d="M800.1,949.2H200.3c-82.8,0-149.9-67.1-149.9-149.9V199.5c0-82.8,67.1-149.9,149.9-149.9h599.8
			c82.8,0,149.9,67.1,149.9,149.9v599.8C950,882.1,882.9,949.2,800.1,949.2z"/>
	</g>
	<g>
		<path class="st1" d="M666.7,800.8H276.9c-14.9,0-26.9-12.1-26.9-26.9V259c0-14.9,12.1-26.9,26.9-26.9h389.8
			c14.9,0,26.9,12.1,26.9,26.9v514.8C693.7,788.7,681.6,800.8,666.7,800.8z"/>
		<path class="st2" d="M276.9,795.2c-11.8,0-21.4-9.6-21.4-21.4V259c0-11.8,9.6-21.4,21.4-21.4h389.8c11.8,0,21.4,9.6,21.4,21.4
			v514.8c0,11.8-9.6,21.4-21.4,21.4H276.9z"/>
		<path class="st1" d="M481.8,363.6h-86.2c-2.7,0-4.9-2.2-4.9-4.9v0c0-2.7,2.2-4.9,4.9-4.9h86.2c2.7,0,4.9,2.2,4.9,4.9v0
			C486.6,361.4,484.4,363.6,481.8,363.6z"/>
		<path class="st1" d="M621.3,389.4H395.5c-2.7,0-4.9-2.2-4.9-4.9l0,0c0-2.7,2.2-4.9,4.9-4.9h225.8c2.7,0,4.9,2.2,4.9,4.9l0,0
			C626.2,387.2,624,389.4,621.3,389.4z"/>
		<path class="st1" d="M577.3,444.5H395.5c-2.7,0-4.9-2.2-4.9-4.9l0,0c0-2.7,2.2-4.9,4.9-4.9h181.7c2.7,0,4.9,2.2,4.9,4.9l0,0
			C582.2,442.3,580,444.5,577.3,444.5z"/>
		<path class="st1" d="M481.8,503.2h-86.2c-2.7,0-4.9-2.2-4.9-4.9l0,0c0-2.7,2.2-4.9,4.9-4.9h86.2c2.7,0,4.9,2.2,4.9,4.9l0,0
			C486.6,501,484.4,503.2,481.8,503.2z"/>
		<path class="st1" d="M621.3,528.9H395.5c-2.7,0-4.9-2.2-4.9-4.9l0,0c0-2.7,2.2-4.9,4.9-4.9h225.8c2.7,0,4.9,2.2,4.9,4.9l0,0
			C626.2,526.7,624,528.9,621.3,528.9z"/>
		<path class="st1" d="M577.3,584H395.5c-2.7,0-4.9-2.2-4.9-4.9l0,0c0-2.7,2.2-4.9,4.9-4.9h181.7c2.7,0,4.9,2.2,4.9,4.9l0,0
			C582.2,581.8,580,584,577.3,584z"/>
		<path class="st1" d="M481.8,639.1h-86.2c-2.7,0-4.9-2.2-4.9-4.9l0,0c0-2.7,2.2-4.9,4.9-4.9h86.2c2.7,0,4.9,2.2,4.9,4.9l0,0
			C486.6,636.9,484.4,639.1,481.8,639.1z"/>
		<path class="st1" d="M621.3,664.8H395.5c-2.7,0-4.9-2.2-4.9-4.9l0,0c0-2.7,2.2-4.9,4.9-4.9h225.8c2.7,0,4.9,2.2,4.9,4.9l0,0
			C626.2,662.7,624,664.8,621.3,664.8z"/>
		<path class="st1" d="M577.3,719.9H395.5c-2.7,0-4.9-2.2-4.9-4.9v0c0-2.7,2.2-4.9,4.9-4.9h181.7c2.7,0,4.9,2.2,4.9,4.9v0
			C582.2,717.7,580,719.9,577.3,719.9z"/>
		<rect x="303.4" y="421.9" class="st1" width="29.1" height="34"/>
		<g>
			<path class="st1" d="M317.5,392.5h-12.7c-3.6,0-6.5-2.9-6.5-6.5v-26.4c0-3.6,2.9-6.5,6.5-6.5h26.4c3.6,0,6.5,2.9,6.5,6.5v4.2
				h-7.9V361h-23.7v23.7h11.3V392.5z"/>
			<path class="st1" d="M327.7,387.7l-12.3-12.3c-1.4-1.4-1.4-3.7,0-5.1c1.4-1.4,3.7-1.4,5.1,0l7.1,7.1l16.8-16.8
				c1.4-1.4,3.7-1.4,5.1,0c1.4,1.4,1.4,3.7,0,5.1L327.7,387.7z"/>
		</g>
		<g>
			<path class="st1" d="M317.5,530.1h-12.7c-3.6,0-6.5-2.9-6.5-6.5v-26.4c0-3.6,2.9-6.5,6.5-6.5h26.4c3.6,0,6.5,2.9,6.5,6.5v4.2
				h-7.9v-2.8h-23.7v23.7h11.3V530.1z"/>
			<path class="st1" d="M327.7,525.3L315.4,513c-1.4-1.4-1.4-3.7,0-5.1c1.4-1.4,3.7-1.4,5.1,0l7.1,7.1l16.8-16.8
				c1.4-1.4,3.7-1.4,5.1,0c1.4,1.4,1.4,3.7,0,5.1L327.7,525.3z"/>
		</g>
		<rect x="303.4" y="559.5" class="st1" width="29.1" height="34"/>
		<rect x="303.4" y="697.1" class="st1" width="29.1" height="34"/>
		<g>
			<path class="st1" d="M317.5,667.7h-12.7c-3.6,0-6.5-2.9-6.5-6.5v-26.4c0-3.6,2.9-6.5,6.5-6.5h26.4c3.6,0,6.5,2.9,6.5,6.5v4.2
				h-7.9v-2.8h-23.7v23.7h11.3V667.7z"/>
			<path class="st1" d="M327.7,662.9l-12.3-12.3c-1.4-1.4-1.4-3.7,0-5.1c1.4-1.4,3.7-1.4,5.1,0l7.1,7.1l16.8-16.8
				c1.4-1.4,3.7-1.4,5.1,0s1.4,3.7,0,5.1L327.7,662.9z"/>
		</g>
		<circle class="st1" cx="633.9" cy="668.5" r="135.9"/>
		<circle class="st3" cx="651.2" cy="668.5" r="135.9"/>
		<g>
			<path class="st4" d="M702.6,601.6l-35.9,61H695v13.5h-32.9v18.6H695v13.7h-32.9v27.1h-16.9v-27.1H611v-13.7h34.2v-18.6H611v-13.5
				h29.1l-35.5-61h19.1c16.6,30.3,26.7,49.5,30.3,57.7h0.3c1.2-3.3,4.5-10.1,9.9-20.2l20.3-37.4H702.6z"/>
		</g>
		<path class="st4" d="M547.1,257.1H396.6c-0.7,0-1.4-0.3-1.7-0.7c-0.9-1.2-1.4-2.4-1.4-3.6c0-0.1,0-0.1,0-0.2l4.5-16.4
			c0.1-8.7,11.1-15.7,24.6-15.7h21l-6.1-15c0-0.1-0.1-0.2-0.1-0.3c-0.1-2.9,1.6-5.7,4.8-7.7c3.2-2.1,7.5-3.3,12.1-3.3h34.8
			c9.4,0,17.1,4.9,17.1,11c0,0.1,0,0.2-0.1,0.3l-6.1,15H521c13.5,0,24.6,7,24.6,15.7l4.5,16.4c0,0.1,0,0.1,0,0.2
			c0,1.2-0.5,2.4-1.4,3.6C548.4,256.9,547.8,257.1,547.1,257.1z"/>
	</g>
</g>
</svg>
