<?xml version="1.0" encoding="utf-8"?>
<!-- Generator: Adobe Illustrator 22.1.0, SVG Export Plug-In . SVG Version: 6.00 Build 0)  -->
<svg version="1.1" id="图层_1" xmlns="http://www.w3.org/2000/svg" xmlns:xlink="http://www.w3.org/1999/xlink" x="0px" y="0px"
	 viewBox="0 0 1000 1000" style="enable-background:new 0 0 1000 1000;" xml:space="preserve">
<style type="text/css">
	.st0{fill:url(#SVGID_1_);}
	.st1{fill:#555E60;}
	.st2{fill:#EDF5F7;}
	.st3{fill:#90A6B4;}
	.st4{fill:#DC544F;}
</style>
<g>
	<g>
		<linearGradient id="SVGID_1_" gradientUnits="userSpaceOnUse" x1="500.0349" y1="49.9302" x2="500.0349" y2="952.4758">
			<stop  offset="0" style="stop-color:#F9F9F9"/>
			<stop  offset="1" style="stop-color:#EDEDED"/>
		</linearGradient>
		<path class="st0" d="M800.1,950H200c-82.8,0-150-67.2-150-150v-600c0-82.8,67.2-150,150-150h600c82.8,0,150,67.2,150,150v600
			C950.1,882.8,882.9,950,800.1,950z"/>
	</g>
	<g>
		<rect x="224.5" y="354.9" class="st1" width="551.1" height="350.7"/>
		<rect x="232.4" y="354.9" class="st2" width="535.2" height="350.7"/>
		<polygon class="st1" points="775.6,354.9 224.5,354.9 224.5,310.1 256,278.5 409.1,278.5 435.4,307.5 775.6,307.5 		"/>
		<rect x="224.5" y="705.6" class="st3" width="551.1" height="15.8"/>
		<rect x="248.2" y="328.6" class="st3" width="503.6" height="26.4"/>
		<path class="st3" d="M601.9,623c-9.6,0-17.8,5.9-20.8,14.8H415.7c-2.2-5.9-7.4-11.1-13.3-13.3V448.7c8.9-3,14.8-11.1,14.8-20.8
			c0-12.6-9.6-22.2-22.2-22.2c-12.6,0-22.2,9.6-22.2,22.2c0,9.6,5.9,17.8,14.8,20.8v175.8c-8.9,3-14.8,11.1-14.8,20.8
			c0,12.6,9.6,22.2,22.2,22.2c9.6,0,17.8-5.9,20.8-14.8h166.1c3,8.9,11.1,14.8,20.8,14.8c12.6,0,22.2-9.6,22.2-22.2
			C624.8,632.6,614.5,623,601.9,623z"/>
		<path class="st1" d="M579.6,605.9h14.8V435.3H431.3v14.8h148.3V605.9z"/>
		<path class="st1" d="M539.6,605.9h14.8V477.6H431.3v14.8h108.3V605.9L539.6,605.9z"/>
		<path class="st4" d="M498.8,605.9h14.8v-85.3h-82.3v14.8h67.5V605.9z"/>
	</g>
</g>
</svg>
