<?xml version="1.0" encoding="utf-8"?>
<!-- Generator: Adobe Illustrator 22.1.0, SVG Export Plug-In . SVG Version: 6.00 Build 0)  -->
<svg version="1.1" id="图层_1" xmlns="http://www.w3.org/2000/svg" xmlns:xlink="http://www.w3.org/1999/xlink" x="0px" y="0px"
	 viewBox="0 0 1000 1000" style="enable-background:new 0 0 1000 1000;" xml:space="preserve">
<style type="text/css">
	.st0{fill:url(#SVGID_1_);}
	.st1{fill:#555E60;}
	.st2{fill:#EDF5F7;}
	.st3{fill:#90A6B4;}
	.st4{fill:#FFFFFF;}
	.st5{fill:#DC544F;}
</style>
<g>
	<g>
		<linearGradient id="SVGID_1_" gradientUnits="userSpaceOnUse" x1="500.004" y1="49.5236" x2="500.004" y2="951.9911">
			<stop  offset="0" style="stop-color:#F9F9F9"/>
			<stop  offset="1" style="stop-color:#EDEDED"/>
		</linearGradient>
		<path class="st0" d="M800,949.5H200c-82.8,0-150-67.2-150-150v-600c0-82.8,67.2-150,150-150h600c82.8,0,150,67.2,150,150v600
			C950,882.4,882.8,949.5,800,949.5z"/>
	</g>
	<g>
		<rect x="234.6" y="250.9" class="st1" width="462.4" height="484.9"/>
		
			<rect x="234.6" y="270.3" transform="matrix(-1.836970e-16 1 -1 -1.836970e-16 959.2252 27.6108)" class="st2" width="462.4" height="446.2"/>
		<g>
			<polygon class="st3" points="350.9,651.8 309.3,610.2 343.9,575.5 372.7,576.5 386.6,590.4 398.4,576.5 413.3,575.5 428.2,590.4 
				443,575.5 455.9,576.5 468.8,589.4 483.7,578.5 585.9,577.5 590.9,652.8 			"/>
			<polygon class="st1" points="600.8,613.5 600.8,652.8 350.9,651.8 309.3,610.2 			"/>
			<path class="st3" d="M604.5,541.8c-31.9,31.9-38.3,79.6-19.3,117.9c4.8,9.7,11.2,18.7,19.3,26.8c39.9,40,104.7,40,144.7,0
				c40-39.9,40-104.7,0-144.7C709.2,501.9,644.4,501.9,604.5,541.8z"/>
			<path class="st1" d="M701.6,594.2c-8.8,8.8-10.6,22-5.3,32.6c1.3,2.7,3.1,5.2,5.3,7.4c11,11,29,11,40,0c11-11,11-29,0-40
				C730.6,583.1,712.7,583.1,701.6,594.2z"/>
			<path class="st4" d="M712.9,605.4c-3.9,3.9-4.6,9.6-2.3,14.3c0.6,1.2,1.4,2.3,2.3,3.2c4.8,4.8,12.7,4.8,17.5,0s4.8-12.7,0-17.5
				S717.7,600.6,712.9,605.4z"/>
		</g>
		<path class="st5" d="M369.9,408.8h-83.6c0,0-1-16.6-1-22.1c-0.3-1.5,3.5-7.8,9.8-9.9c2.3-0.8,4.6-1.4,7.1-2
			c2.4-0.6,4.5-1.5,6.4-2.7c1.5-0.9,2.6-1.8,3.4-2.6c0.8-0.8,1.4-1.7,1.7-2.5c0.3-0.8,0.5-1.7,0.5-2.6c0-0.9,0-1.9-0.1-2.9
			c-0.1-1.7-0.7-3-1.6-3.9c-0.9-0.9-2-1.9-3.2-2.9c-0.6-0.5-1-1.2-1.5-2c-0.4-0.9-0.8-1.8-1.2-2.7c-0.4-1-0.7-2.1-1-3.3
			c-0.5-0.1-1-0.4-1.5-0.7c-0.4-0.3-0.9-0.8-1.4-1.5c-0.5-0.6-0.9-1.6-1.3-2.7c-0.3-1.2-0.5-2.3-0.4-3.2c0.1-1,0.3-1.8,0.6-2.5
			c0.3-0.8,0.7-1.5,1.3-2.2c-0.1-2.7,0.1-5.3,0.4-8c0.3-2.2,0.8-4.6,1.5-7.2c0.7-2.5,1.8-4.8,3.2-6.8c1.3-1.9,2.8-3.5,4.5-4.7
			c1.6-1.2,3.3-2.2,5-2.9c1.7-0.7,3.4-1.2,5.1-1.5c1.7-0.3,3.4-0.4,5-0.4c2,0,4,0.2,5.8,0.7c1.9,0.5,3.6,1.1,5.2,1.9
			c1.6,0.8,3.1,1.6,4.3,2.6c1.3,1,2.3,1.9,3,2.9c1.8,2.2,3.1,4.7,4,7.4c0.9,2.7,1.5,5.2,1.8,7.6c0.4,2.8,0.6,5.6,0.5,8.4
			c0.5,0.3,0.9,0.7,1.2,1.3c0.3,0.5,0.5,1.1,0.7,1.9c0.2,0.8,0.2,1.7,0.1,2.8c-0.2,1.5-0.5,2.6-1,3.5c-0.4,0.9-1,1.6-1.5,2
			c-0.6,0.6-1.3,1-2,1.2c-0.3,1.1-0.6,2.2-0.9,3.3c-0.3,0.9-0.8,1.8-1.2,2.7c-0.5,0.9-1,1.6-1.5,2c-0.6,0.6-1.2,1-1.8,1.4
			c-0.6,0.4-1,0.8-1.5,1.2c-0.4,0.4-0.8,0.9-1,1.5c-0.3,0.6-0.5,1.3-0.6,2.2c-0.2,1-0.3,2.1-0.2,3.2c0.1,1.1,0.4,2.2,0.8,3.3
			c0.5,1.1,1.3,2.1,2.4,3.1c1.1,1,2.6,1.9,4.5,2.6c1.8,0.7,3.7,1.3,5.7,1.8c2.1,0.5,4.1,1.2,6,1.9c1.9,0.7,3.7,1.7,5.2,2.8
			c1.5,1.1,3.5,3.2,4.4,7C369.8,387.6,369.9,408.8,369.9,408.8z"/>
		<rect x="291" y="431.4" class="st3" width="344" height="16.9"/>
		<rect x="291" y="465.2" class="st3" width="344" height="16.9"/>
		<rect x="291" y="499.1" class="st3" width="67.7" height="16.9"/>
		<rect x="482.7" y="329.9" class="st3" width="152.2" height="16.9"/>
		<rect x="482.7" y="363.7" class="st3" width="152.2" height="16.9"/>
	</g>
</g>
</svg>
