<?xml version="1.0" encoding="utf-8"?>
<!-- Generator: Adobe Illustrator 22.1.0, SVG Export Plug-In . SVG Version: 6.00 Build 0)  -->
<svg version="1.1" id="图层_1" xmlns="http://www.w3.org/2000/svg" xmlns:xlink="http://www.w3.org/1999/xlink" x="0px" y="0px"
	 viewBox="0 0 1000 1000" style="enable-background:new 0 0 1000 1000;" xml:space="preserve">
<style type="text/css">
	.st0{fill:url(#SVGID_1_);}
	.st1{fill:#90A6B4;}
	.st2{fill:#555E60;}
	.st3{fill:#EDF5F7;}
	.st4{fill:#DC544F;}
</style>
<g>
	<g>
		<linearGradient id="SVGID_1_" gradientUnits="userSpaceOnUse" x1="500.119" y1="50.0421" x2="500.119" y2="952.279">
			<stop  offset="0" style="stop-color:#F9F9F9"/>
			<stop  offset="1" style="stop-color:#EDEDED"/>
		</linearGradient>
		<path class="st0" d="M800,949.8H200.2c-82.8,0-150-67.1-150-150V200c0-82.8,67.1-150,150-150H800c82.8,0,150,67.1,150,150v599.8
			C950,882.7,882.9,949.8,800,949.8z"/>
	</g>
	<g>
		<path class="st1" d="M759.6,303.5c0-27.3-22.1-49.4-49.4-49.4s-49.4,22.1-49.4,49.4c0,1.6,0.1,3.1,0.2,4.7V482h98.3V308.1
			C759.5,306.6,759.6,305.1,759.6,303.5z"/>
		<path class="st2" d="M710.2,254.1H290c-27.3,0-49.4,22.1-49.4,49.4c0,1.6,0.1,3.1,0.2,4.7v424.2h419.9V304.2h0c0-0.2,0-0.5,0-0.7
			C660.8,276.2,682.9,254.1,710.2,254.1z"/>
		<path class="st3" d="M245.3,727.9V308.1c-0.2-1.8-0.2-3.2-0.2-4.7c0-24.8,20.2-44.9,44.9-44.9h390.5c-13.6,9-22.9,24-24.1,41.2
			h-0.1l0,4.5v423.7H245.3z"/>
		<path class="st1" d="M290,365.8v4.5v31.3v4.5v31.3v4.5v31.3v4.5v31.3v4.5v31.3v4.5v31.3v4.5v31.3v4.5v31.3v4.5v26.8v4.5h312.9
			v-4.5v-26.8v-4.5v-31.3v-4.5v-31.3v-4.5v-31.3v-4.5v-31.3v-4.5v-31.3v-4.5v-31.3v-4.5v-31.3v-4.5v-31.3v-4.5H290z M294.5,370.3
			h152v31.3h-152V370.3z M294.5,406.1h152v31.3h-152V406.1z M294.5,441.8h152v31.3h-152V441.8z M294.5,477.6h152v31.3h-152V477.6z
			 M294.5,513.3h152v31.3h-152V513.3z M294.5,549.1h152v31.3h-152V549.1z M294.5,584.8h152v31.3h-152V584.8z M294.5,620.6h152v31.3
			h-152V620.6z M294.5,683.2v-26.8h152v26.8H294.5z M598.5,683.2H451v-26.8h147.5V683.2z M598.5,651.9H451v-31.3h147.5V651.9z
			 M598.5,616.1H451v-31.3h147.5V616.1z M598.5,580.4H451v-31.3h147.5V580.4z M598.5,544.6H451v-31.3h147.5V544.6z M598.5,508.9H451
			v-31.3h147.5V508.9z M598.5,473.1H451v-31.3h147.5V473.1z M598.5,437.3H451v-31.3h147.5V437.3z M598.5,401.6H451v-31.3h147.5
			V401.6z"/>
		<rect x="290" y="330.1" class="st1" width="80.5" height="17.9"/>
		<circle class="st2" cx="634.2" cy="620.6" r="125.2"/>
		<rect x="406.3" y="330.1" class="st1" width="80.5" height="17.9"/>
		<rect x="522.5" y="330.1" class="st1" width="80.5" height="17.9"/>
		<circle class="st1" cx="634.2" cy="620.6" r="116.2"/>
		<circle class="st3" cx="634.2" cy="620.6" r="111.7"/>
		<g>
			<path class="st4" d="M632.1,548.8h9.9v13.1c9.6,0.6,17.1,3.4,22.8,8c6.5,5.1,10.5,13.6,12.1,25.1h-16.9c-1-6.9-3.5-11.8-7.5-14.7
				c-2.7-2.1-6.2-3.4-10.5-3.8V613c11.8,4.5,18.7,7.2,20.3,7.8c11,6.2,16.6,15,16.6,26.5c0,11.3-4.3,19.8-12.6,25.5
				c-6.4,4.2-14.4,6.5-24.3,7.2v14.1h-9.9v-14.1c-10.9-0.6-19.2-3.8-24.9-9.4c-6.7-6.4-10.4-16-11.3-29.1h17.2
				c0.6,8.6,2.7,14.8,6.5,18.5c2.9,2.9,7,4.6,12.5,5.3v-39l-18-6.7c-11.2-5.9-16.8-14.7-16.8-26.5c0-10.4,4-18.4,12-23.9
				c6.1-4.5,13.6-6.9,22.8-7.3V548.8z M632.1,576.3c-4.5,0.3-8.1,1.6-10.9,3.5c-4.5,2.9-6.5,7.3-6.5,13.4c0,6.5,5.6,11.8,16.8,16
				c0.2,0,0.3,0.2,0.6,0.2V576.3z M642,665.4c5.1-0.6,9.3-2.1,12.8-4.3c4.5-3.2,6.9-7.5,6.9-13.1c0-7.3-5.6-13.1-16.8-16.9
				c-1-0.3-1.9-0.8-2.9-1.1V665.4z"/>
		</g>
	</g>
</g>
</svg>
