<?xml version="1.0" encoding="utf-8"?>
<!-- Generator: Adobe Illustrator 22.1.0, SVG Export Plug-In . SVG Version: 6.00 Build 0)  -->
<svg version="1.1" id="图层_1" xmlns="http://www.w3.org/2000/svg" xmlns:xlink="http://www.w3.org/1999/xlink" x="0px" y="0px"
	 viewBox="0 0 1000 1000" style="enable-background:new 0 0 1000 1000;" xml:space="preserve">
<style type="text/css">
	.st0{fill:url(#SVGID_1_);}
	.st1{fill:#555E60;}
	.st2{fill:#EDF5F7;}
	.st3{fill:#90A6B4;}
	.st4{fill:#DC544F;}
</style>
<g>
	<g>
		<linearGradient id="SVGID_1_" gradientUnits="userSpaceOnUse" x1="499.9645" y1="49.5388" x2="499.9645" y2="952.4768">
			<stop  offset="0" style="stop-color:#F9F9F9"/>
			<stop  offset="1" style="stop-color:#EDEDED"/>
		</linearGradient>
		<path class="st0" d="M800.1,950H199.8c-82.9,0-150.1-67.2-150.1-150.1V199.6c0-82.9,67.2-150.1,150.1-150.1h600.3
			c82.9,0,150.1,67.2,150.1,150.1v600.3C950.2,882.8,883,950,800.1,950z"/>
	</g>
	<g>
		<path class="st1" d="M778.5,349.4H291.9c-15.7,0-28.5,12.8-28.5,28.5v334.4c0,15.7,12.8,28.5,28.5,28.5h486.6
			c15.7,0,28.5-12.8,28.5-28.5V377.9C807,362.2,794.3,349.4,778.5,349.4z"/>
		<g>
			<path class="st1" d="M692.7,259.3l-476.9,96.6c-15.4,3.1-25.4,18.2-22.3,33.6l66.4,327.7c3.1,15.4,18.2,25.4,33.6,22.3
				l476.9-96.6c15.4-3.1,25.4-18.2,22.3-33.6l-66.4-327.7C723.1,266.2,708.1,256.2,692.7,259.3z"/>
			<path class="st2" d="M292,732.3c-11.5,2.3-22.7-5.1-25-16.6L200.7,388c-2.3-11.5,5.1-22.7,16.6-25l476.9-96.6
				c11.5-2.3,22.7,5.1,25,16.6l66.4,327.7c2.3,11.5-5.1,22.7-16.6,25L292,732.3z"/>
			
				<rect x="207.9" y="408" transform="matrix(0.9801 -0.1984 0.1984 0.9801 -76.4417 103.8027)" class="st3" width="543.6" height="50.6"/>
			<path class="st4" d="M375.5,518.8c-0.8-3.9,1.7-7.6,5.6-8.4l13.5-2.7c3.9-0.8,7.7,1.7,8.5,5.6l4.2,20.5c0.8,3.9-1.7,7.7-5.6,8.4
				l-13.5,2.7c-3.9,0.8-7.7-1.7-8.5-5.6L375.5,518.8z"/>
			<path class="st4" d="M327.4,528.5c-0.8-3.9,1.7-7.6,5.6-8.4l13.5-2.7c3.9-0.8,7.7,1.7,8.5,5.6l4.2,20.5c0.8,3.9-1.7,7.7-5.6,8.4
				l-13.5,2.7c-3.9,0.8-7.7-1.7-8.5-5.6L327.4,528.5L327.4,528.5L327.4,528.5z"/>
			<path class="st4" d="M278.9,538.3c-0.8-3.9,1.7-7.6,5.6-8.4l13.5-2.7c3.9-0.8,7.7,1.7,8.5,5.6l4.2,20.5c0.8,3.9-1.7,7.7-5.6,8.4
				l-13.5,2.7c-3.9,0.8-7.7-1.7-8.5-5.6L278.9,538.3L278.9,538.3z"/>
			<path class="st3" d="M687,599.2l0.1-1l-4.9,1l-0.1,1l4.2-0.9C686.9,599.2,687,599.2,687,599.2 M687.4,595.9l0.1-1.3l-4.9,1
				l-0.2,2.5c0,0,0.8-1.1,2.4-1.7C685.1,596.4,687.4,595.9,687.4,595.9 M693.6,577.8c0.8-0.6,1.3-1.7,1.4-2.8c0-1.2-0.5-2.1-1.5-2.2
				c-0.1,0-2.4,0.3-2.4,0.3l-0.4,0l0,0.2l0.1,0.3l-0.1,5l0,0.2l0.6-0.1C692.1,578.5,693,578.3,693.6,577.8 M669.2,589.7
				c0.4-0.1,0.7-0.4,0.9-0.9c0.3-0.6,0.3-2,0.4-2.4c0.1-1.6-0.2-2.6-1.1-2.4c-1.1,0.2-1.2,1.6-1.3,3.2c0,0.6,0,1.1,0.1,1.6
				C668.4,589.9,669.1,589.8,669.2,589.7 M696.2,604.1l2.5-0.5l0.3-2.6l-2.5,0.5L696.2,604.1z M702.9,583.1c0.4-0.1,1-0.5,1.2-0.9
				c0.1-0.2,0.2-0.5,0.2-0.9c0-0.5,0-1,0.1-1.4c0-0.3,0-0.6,0-0.9c-0.2-1.1-0.6-1.6-1.3-1.5c-1.1,0.2-1.3,1.6-1.3,3.2
				c0,0.6,0,1.1,0.1,1.6C702.2,583.2,702.8,583.1,702.9,583.1 M697.3,592.6l-0.3,2.9c0,0,0.8-0.6,1.4-0.8c0.5-0.3,1.3-0.5,1.3-0.5
				l0.2-2.1L697.3,592.6L697.3,592.6z M717.2,547.4l-26.3,5.3c-3.7,0.8-6.8,4.5-7,8.5l-0.4,15.1c-0.5-0.2-1.3,0-1.7,0.1l0.4-15.1
				c0.1-2.9,1.6-5.8,3.9-7.6l-24.7,5c-3.7,0.8-6.8,4.5-7,8.5l-0.4,14.7c-0.6,0.2-1.4,0.4-1.7,0.5l0.4-15.1c0.1-2.9,1.6-5.8,3.9-7.6
				l-20.3,4.1c-3.7,0.8-6.8,4.5-7,8.5l-1.7,56.1c-0.1,3.9,2.8,6.5,6.6,5.8l20.8-4.2c-0.6-0.2-1.1-0.6-1.6-1
				c-1.6-1.3-2.4-3.3-2.3-5.6l0.7-24.9l1.7-0.4l-0.7,25.1c-0.1,3.9,2.8,6.5,6.6,5.8l25.1-5.1c-0.6-0.2-1.1-0.6-1.6-1
				c-1.6-1.3-2.4-3.3-2.3-5.6l0.1-4.4l1.7-0.4l-0.1,4.7c-0.1,3.9,2.8,6.5,6.6,5.8l26.3-5.3c3.7-0.8,6.9-4.5,7-8.5l1.7-56.1
				C723.9,549.3,720.9,546.7,717.2,547.4 M703,575.3c0.6,0.1,1,0.4,1.4,0.7c0-0.1,0-0.3,0-0.4l0.1-0.1c1.6-0.5,2-0.7,3.6-1.4
				l0.1,0.2c-0.1,1.4-0.1,2.7-0.1,4c-0.1,2.8,0,4.2,0,5.6l-0.1,0.1c-1.6,0.3-2.1,0.4-3.6,0.8l-0.1-0.1c0-0.2,0-0.4,0.1-0.6
				c-0.5,0.5-1,1-1.6,1.2c-0.6,0.1-1.2,0.2-2,0.1c-2.3-0.4-2.4-2.7-2.3-4s0.2-2.7,1.1-3.8C700.6,575.8,702.2,575.1,703,575.3
				 M686.8,577l0-5.1c0,0,0-0.4,0-0.6c0.5,0,1.6-0.3,4.6-0.9l1.1-0.2c2.3-0.5,4.2-0.8,5.5,0.3c0.5,0.5,0.8,1.1,0.9,1.7
				c0.1,0.5,0.2,1,0.1,1.5c0,1.8-0.7,3.5-1.8,4.7c-1.7,1.8-4.1,2.3-6.3,2.7l-0.2,0c-0.1,0.1-0.3,0.4-0.3,0.4c0,0.1-0.1,2.3-0.1,2.3
				s0,3,0,3.5c-0.4,0-1.5,0.2-4,0.8C686.3,587.8,686.8,577,686.8,577 M675.3,587c0-3.1,0-4.2-0.1-5.8l0.1-0.1
				c1.5-0.5,1.9-0.7,3.5-1.3l0.2,0.1l0,1c0.2-0.2,0.5-0.4,0.8-0.7c0.7-0.5,1.6-0.8,2.1-0.9c0.8-0.2,1.6-0.1,2.1,0.7
				c0.5,0.7,0.4,1.7,0.4,3.6l0,1c0,2.1,0,2.5,0,4l-0.1,0.1c-1.4,0.3-1.8,0.4-3.4,0.7l-0.1-0.1c0-0.6,0-1.2,0.1-1.9l0-0.8
				c0-1.4,0-2.9-0.1-3.3c-0.1-0.3-0.1-1-0.8-0.8c-0.3,0.1-0.6,0.3-1,0.5c-0.1,0.7-0.1,2.7-0.1,3.6c0,1.9,0,2.1,0,3l-0.1,0.1
				c-1.4,0.3-1.8,0.4-3.4,0.8l-0.1-0.1C675.3,589.3,675.3,588.2,675.3,587 M678.4,595.4l-0.2,2.2l-4.8,1l-0.5,0.5
				c-0.2,0.3-0.3,0.2-0.5,0.4c-0.2,0.2-0.8,0.6-1.5,0.7l-1.5,0.3l0.2-2.2l0.5-0.1c0.4-0.1,0.6-0.2,0.8-0.3c0.1-0.1,0.3-0.4,0.4-0.8
				l0.5-1.7l3.5-0.7l-0.4,1.3L678.4,595.4L678.4,595.4z M646.2,590.3c-0.1,1.8-0.3,3.8-2.1,5.5c-1,0.9-2.7,1.7-4.6,2.1
				c-1.5,0.3-4.1,0.6-5.3-0.8c-0.4-0.4-0.7-1-0.8-1.7l-0.2-2.5l0-0.8l0.2-9.2c0,0,0-0.5,0-0.6c0.1,0,0.7,0,4.5-0.9l0,0.1
				c-0.1,1.1-0.5,9.3-0.5,9.3l0.1,2.4l0.1,0.4c0.3,1.1,1.2,1.6,2.4,1.4c0.8-0.2,1.4-0.5,1.9-1.1c0.8-1,0.9-2.3,0.9-4.1
				c0,0,0.1-9,0.1-9.4c0.3,0,1.1-0.1,3.8-0.7l0,0.1c-0.1,1.1-0.5,9.7-0.5,9.7L646.2,590.3L646.2,590.3z M657.5,589l0,1
				c0,2.1,0,2.5,0,4l-0.1,0.1c-1.4,0.3-1.8,0.4-3.4,0.7l-0.1-0.1c0-0.6,0-1.2,0.1-1.9l0.1-0.9c0-1.4,0-2.9-0.1-3.3
				c0-0.3-0.1-1-0.8-0.8c-0.3,0.1-0.6,0.3-1,0.5c-0.1,0.7-0.1,2.7-0.1,3.6c0,1.9,0,2.1,0,3l-0.1,0.1c-1.4,0.3-1.9,0.4-3.4,0.8
				l-0.1-0.1l0.2-3.4c0-3.1,0-4.2-0.1-5.8l0.1-0.1c1.5-0.5,1.9-0.7,3.5-1.3l0.2,0.1l-0.1,1c0.2-0.2,0.5-0.4,0.8-0.7
				c0.7-0.5,1.6-0.8,2.1-0.9c0.8-0.2,1.6-0.1,2.1,0.7C657.6,586.1,657.5,587.1,657.5,589 M663,587.3c0,0.7-0.1,1.4,0,2
				c0,1.4-0.1,1.9,0,2.3c0,0.3,0,0.6,0,1.3l0,0.1l0,0.1l-1.8,0.4c-0.5,0.1-1,0.3-1.8,0.4l-0.1,0l-0.1,0c0.1-0.8,0.1-1.1,0.2-1.4
				c0.1-0.3,0.1-0.6,0.1-1.4c0-1.1,0-1.9,0-2.5c0-0.6-0.1-1.2-0.1-1.8l0-0.1l0-0.1c0.8-0.3,1.3-0.5,1.8-0.6c0.5-0.2,1-0.4,1.8-0.7
				l0.1,0l0,0.1L663,587.3 M662.6,584.5c-0.8,0.8-2.1,1.2-2.9,0.9c-0.8-0.3-0.9-1.2-0.1-2c0.8-0.8,2.1-1.2,2.9-0.9
				C663.3,582.8,663.4,583.7,662.6,584.5 M664.6,587.9c0-1.3,0.2-2.7,1.1-3.8c1.2-1.6,3-2.1,3.8-2.2c1.3-0.3,2.6-0.2,3.5,0.5
				c0.6,0.5,1.1,1.4,1.1,3.5c0,0.6-0.1,2.3-0.8,3.4c-0.9,1.5-2.4,2.2-4,2.6c-0.6,0.1-1.5,0.2-2.2,0.1
				C664.6,591.6,664.5,589.3,664.6,587.9 M676.9,611l-3.9,0.8c-0.3,0.1-0.6,0.1-0.9,0.1c-0.3,0-0.5-0.1-0.7-0.3
				c-0.2-0.2-0.5-0.4-0.4-0.9l0.4-4l-1.9,0.4l0.2-2.3l1.9-0.4l0.1-1.8l-1.9,0.4l0.2-2.2l8.6-1.7l-0.2,2.2l-3.4,0.7l-0.2,1.8l3.5-0.7
				l-0.2,2.2l-3.5,0.7l-0.3,3c0,0.3,0.9,0.2,1.2,0.1l1.7-0.6L676.9,611L676.9,611z M683.9,609.6l-2.3,0.5c-0.7,0.1-1.2,0.3-1.6,0.3
				c-0.3,0-0.7,0.1-1,0c-0.3-0.2-0.6-0.3-0.7-0.6c0-0.2,0-0.7,0-1.2l1.4-14.7l3-0.6l-0.1,1.6c0,0,0.8-0.9,1.4-1.4
				c0.6-0.4,2.1-0.9,2.1-0.9l4.8-1l-0.5,5.8c-0.1,1-0.3,1.6-0.4,2c-0.1,0.3-0.3,0.6-0.7,0.9c-0.4,0.3-0.7,0.5-1.1,0.6
				c-0.3,0.1-0.8,0.2-1.4,0.3l-4.7,0.9l-0.4,4.6c0,0.5,0,0.7,0,0.8c0.1,0.1,0.3,0.2,0.5,0.1l2-0.6L683.9,609.6L683.9,609.6z
				 M690.2,602.3c0,0.4-0.1,0.7-0.3,1.1c-0.3,0.3-0.6,0.7-1.5,0.9l-1.7,0.4l0.3,1.5c0.1,0.4,0.2,0.4,0.2,0.4c0.1,0,0.2,0.1,0.2,0.1
				l0.5-0.1l1.5-0.4l-0.2,2.3l-1.8,0.4c-1.2,0.3-2.2,0.4-2.6,0.2c-0.4-0.1-0.4-0.4-0.5-0.8l-1.1-5.8l2.9-0.6l0.2,1.2l0.7-0.1
				c0.2,0,0.4-0.1,0.5-0.2c0.1-0.1,0.1-0.2,0.2-0.4l0.1-1l2.3-0.5L690.2,602.3z M701.5,606.1l-3.1,0.6l0.1-0.7l-6.3,1.3l0.2-2.2
				l0.6-0.1l1.1-11.6l0.2-2.3l3.2-0.6l-0.1,1.2c0,0,0.7-0.8,1.5-1.1c0.6-0.3,3.9-1.1,5-1.3l3.4-0.7l0.3,1.2c0,0.2,0.2,0.3,0.6,0.2
				l0.7-0.1l-0.2,2.2l-1.8,0.4c-1.5,0.4-2.3-0.1-2.4-0.9l-0.3-1.2l-0.1,1.1l-1.1,0.2l-1.1,11.5l0.9-0.2l-0.3,2.4l-0.9,0.2
				L701.5,606.1L701.5,606.1z M713.6,593.6l-3.4,0.7l-0.2,1.8l3.4-0.7l-0.2,1.9l-3.7,0.7l-0.5,0.9l1.5-0.3l0.8,2.2
				c0.1,0.2,0.1,0.4,0.2,0.5c0.1,0.1,0.6,0,0.8-0.1l0.4-0.1l-0.2,2.4l-1.1,0.2c-0.2,0-0.4,0.1-0.8,0.1c-0.3,0.1-0.6-0.1-0.9-0.2
				c-0.2-0.1-0.6-0.3-0.8-0.7l-0.8-2.2l-1.2,2.6c-0.4,0.8-1,1.5-2.2,1.8l-2.3,0.5l0.2-2.1l0.9-0.2c0.3-0.1,0.5-0.2,0.6-0.3
				c0.2-0.1,0.3-0.2,0.4-0.5l1.7-4l-3.2,0.7l0.2-1.9l3.7-0.7l0.2-1.8l-3.6,0.7l0.2-2.2l10.1-2L713.6,593.6L713.6,593.6z
				 M714.4,586.8l-0.1,0.2l-0.8,2.5c-0.3,0.8-0.9,1.6-2.1,1.8l-2.1,0.4l0.2-2.1l0.4-0.1c0.2,0,0.4-0.1,0.5-0.2
				c0.1-0.1,0.1-0.1,0.2-0.3l0.5-1.3c0.7-1.8,0.8-2.5,1.6-4.5c-0.6-2-0.8-2.6-1.2-3.9c-0.3-0.8-0.5-1.5-0.8-2.3
				c-0.5-1.6-0.4-1.4-0.9-2.4l0-0.2l0.1-0.1c1.6-0.5,1.6-0.6,3.3-1.3l0.2,0.1l1.1,4.4l0.1,0.3c0.5-2.2,0.6-1.7,1.2-4.5l0-0.1
				l0.1-0.1c1.5-0.5,1.8-0.6,3.4-1.3l0.1,0.1C719.2,571.8,714.9,584.7,714.4,586.8 M696.6,600.1c0,0,0.9-0.7,1.3-0.9
				c0.5-0.2,1.3-0.5,1.3-0.5l0.2-2.1l-2.5,0.5L696.6,600.1L696.6,600.1z"/>
		</g>
		<path class="st3" d="M751,404l-7.3,0.9l41.7,205.9c2.3,11.5-5.1,22.7-16.6,25L292,732.3c-11.2,2.3-22.1-4.8-24.8-15.7l-6.5,4
			c4.5,13.5,18.4,21.8,32.7,19l476.9-96.6c15.4-3.1,25.4-18.2,22.3-33.6L751,404z"/>
	</g>
</g>
</svg>
