<?xml version="1.0" encoding="utf-8"?>
<!-- Generator: Adobe Illustrator 22.1.0, SVG Export Plug-In . SVG Version: 6.00 Build 0)  -->
<svg version="1.1" id="图层_1" xmlns="http://www.w3.org/2000/svg" xmlns:xlink="http://www.w3.org/1999/xlink" x="0px" y="0px"
	 viewBox="0 0 1000 1000" style="enable-background:new 0 0 1000 1000;" xml:space="preserve">
<style type="text/css">
	.st0{fill:url(#SVGID_1_);}
	.st1{fill:#555E60;}
	.st2{fill:#EDF5F7;}
	.st3{fill:#90A6B4;}
	.st4{fill:#DC544F;}
</style>
<g>
	<g>
		<linearGradient id="SVGID_1_" gradientUnits="userSpaceOnUse" x1="500.2151" y1="49.9302" x2="500.2151" y2="951.9744">
			<stop  offset="0" style="stop-color:#F9F9F9"/>
			<stop  offset="1" style="stop-color:#EDEDED"/>
		</linearGradient>
		<path class="st0" d="M800.1,949.5H200.4c-82.8,0-149.9-67.1-149.9-149.9V199.9c0-82.8,67.1-149.9,149.9-149.9h599.7
			c82.8,0,149.9,67.1,149.9,149.9v599.7C950,882.4,882.9,949.5,800.1,949.5z"/>
	</g>
	<g>
		<rect x="224.2" y="376.7" class="st1" width="518.5" height="329.9"/>
		<rect x="231.6" y="376.7" class="st2" width="503.6" height="329.9"/>
		<polygon class="st1" points="742.7,376.7 224.2,376.7 224.2,334.5 253.8,304.7 397.8,304.7 422.6,332 742.7,332 		"/>
		<rect x="224.2" y="706.6" class="st3" width="518.5" height="14.9"/>
		<rect x="246.5" y="300.3" class="st3" width="65.5" height="76.4"/>
		<rect x="312.1" y="300.3" class="st1" width="14.4" height="76.4"/>
		<rect x="326.7" y="287" class="st3" width="65.5" height="89.7"/>
		<rect x="392.3" y="287" class="st1" width="14.4" height="89.7"/>
		<rect x="406.9" y="251.6" class="st3" width="309.2" height="125.1"/>
		<path class="st1" d="M802.1,573.3c-1.4-6.7-7.7-13.4-14.4-14.9l-4.8-1c-11.5-3.4-22.1-11.5-28.8-22.6c-6.7-11.5-8.2-24.5-5.3-36.5
			l1.4-4.8c1.9-6.7-0.5-15.4-5.8-20.2c0,0-4.8-3.8-17.8-11.5c-13.4-7.7-19.2-9.6-19.2-9.6c-6.2-2.4-15.4,0-20.2,4.8l-3.4,3.4
			c-9.1,8.6-21.1,13.4-34.1,13.4s-25.4-4.8-34.6-13.4l-3.4-3.8c-4.8-4.8-13.9-7.2-20.2-4.8c0,0-5.8,1.9-19.2,9.6
			c-13,8.2-17.8,12-17.8,12c-5.3,4.3-7.7,13.4-5.8,19.7l1.4,4.8c2.9,12,1.4,25-5.3,36.5c-6.7,11.5-17.3,19.2-28.8,23l-4.8,1
			c-6.7,1.4-13,8.2-14.4,14.9c0,0-1,6.2-1,21.1c0,15.4,1,21.1,1,21.1c1.4,6.7,7.7,13.4,14.4,14.9l4.8,1c12,3.4,22.6,11.5,28.8,23
			c6.7,11.5,8.2,24.5,5.3,36.5l-1.4,4.8c-1.9,6.7,0.5,15.4,5.8,20.2c0,0,4.8,3.8,17.8,11.5c13.4,7.7,19.2,9.6,19.2,9.6
			c6.2,2.4,15.4,0,20.2-4.8l3.4-3.4c9.1-8.6,21.1-13.4,34.6-13.4c13.4,0,25.4,5.3,34.6,13.9l3.4,3.4c4.8,4.8,13.9,7.2,20.2,4.8
			c0,0,5.8-1.9,19.2-9.6c13.4-7.7,17.8-11.5,17.8-11.5c5.3-4.3,7.7-13.4,5.8-20.2l-1.4-4.8c-2.9-12-1.4-25,5.3-36.5
			c6.7-11.5,17.3-19.2,28.8-23l4.8-1c6.7-1.4,13-8.2,14.4-14.9c0,0,1-6.2,1-21.1C803,579.6,802.1,573.3,802.1,573.3L802.1,573.3z
			 M649.4,655.9c-33.6,0-61-27.4-61-61s27.4-61,61.4-61c33.6,0,61.4,27.4,61.4,61.4C710.9,628.5,683.5,655.9,649.4,655.9
			L649.4,655.9z"/>
		<g>
			<path class="st3" d="M811.5,582.8c-1.2-5.6-5.7-11.1-11-13.6c0.7,1.4,1.2,2.8,1.5,4.2c0,0,1,6.2,1.4,21.6c0,14.9-1,21.1-1,21.1
				c-1.4,6.7-7.7,13.4-14.4,14.9l-4.8,1c-11.5,3.8-22.1,11.5-28.8,23c-6.7,11.5-8.2,24.5-5.3,36.5l1.4,4.8
				c1.9,6.7-0.5,15.8-5.8,20.2c0,0-4.3,3.8-17.8,11.5c-13.4,7.7-19.2,9.6-19.2,9.6c-6.2,2.4-15.4,0-20.2-4.8l-3.4-3.4
				c-9.1-8.6-21.1-13.9-34.6-13.9s-25.4,4.8-34.6,13.4l-3.4,3.4c-4.8,4.8-13.9,7.2-20.2,4.8c0,0-5.8-1.9-19.2-9.6
				c-5.6-3.3-9.6-5.9-12.4-7.8c1.1,2.2,2.4,4.2,4.1,5.7c0,0,4.8,3.8,17.8,11.5c13.4,7.7,19.2,9.6,19.2,9.6c6.2,2.4,15.4,0,20.2-4.8
				l3.4-3.4c9.1-8.6,21.1-13.4,34.6-13.4s25.4,5.3,34.6,13.9l3.4,3.4c4.8,4.8,13.9,7.2,20.2,4.8c0,0,5.8-1.9,19.2-9.6
				c13.4-7.7,17.8-11.5,17.8-11.5c5.3-4.3,7.7-13.4,5.8-20.2l-1.4-4.8c-2.9-12-1.4-25,5.3-36.5c6.7-11.5,17.3-19.2,28.8-23l4.8-1
				c6.7-1.4,13-8.2,14.4-14.9c0,0,1-6.2,1-21.1C812.5,589,811.5,582.8,811.5,582.8z"/>
			<path class="st3" d="M611.4,642.5C603,632,598,618.8,598,604.4c0-33.6,27.4-61,61.4-61c14.5,0,27.8,5.1,38.4,13.6
				c-11.3-14.1-28.6-23-47.9-23c-34.1,0-61.4,27.4-61.4,61C588.5,614.1,597.4,631.3,611.4,642.5z"/>
			<path class="st3" d="M750.2,493.7l-1.4,4.8c-2.9,12-1.4,25,5.3,36.5c3.4,5.6,7.9,10.5,12.9,14.4c-1.2-1.6-2.4-3.2-3.4-4.9
				c-6.7-11.5-8.2-24.5-5.3-36.5l1.4-4.8c1.9-6.7-0.5-15.4-5.8-20.2c0,0-1.6-1.3-5.3-3.8C750.8,483.7,751.5,489.1,750.2,493.7z"/>
			<path class="st3" d="M516.5,631.4l-4.8-1c-1.2-0.2-2.3-0.7-3.4-1.2c2.6,5.1,7.5,9.6,12.9,10.7l4.8,1c5.6,1.6,10.8,4.2,15.5,7.7
				C535.1,640.2,526.3,634.2,516.5,631.4z"/>
		</g>
		<circle class="st4" cx="649.6" cy="597.2" r="22.2"/>
	</g>
</g>
</svg>
