<?xml version="1.0" encoding="utf-8"?>
<!-- Generator: Adobe Illustrator 22.1.0, SVG Export Plug-In . SVG Version: 6.00 Build 0)  -->
<svg version="1.1" id="图层_1" xmlns="http://www.w3.org/2000/svg" xmlns:xlink="http://www.w3.org/1999/xlink" x="0px" y="0px"
	 viewBox="0 0 1000 1000" style="enable-background:new 0 0 1000 1000;" xml:space="preserve">
<style type="text/css">
	.st0{fill:url(#SVGID_1_);}
	.st1{fill:#555E60;}
	.st2{fill:#EDF5F7;}
	.st3{fill:#3E4546;}
	.st4{fill:#DC544F;}
	.st5{fill:#90A6B4;}
</style>
<g>
	<g>
		<linearGradient id="SVGID_1_" gradientUnits="userSpaceOnUse" x1="499.9216" y1="49.9302" x2="499.9216" y2="952.4758">
			<stop  offset="0" style="stop-color:#F9F9F9"/>
			<stop  offset="1" style="stop-color:#EDEDED"/>
		</linearGradient>
		<path class="st0" d="M799.9,950h-600c-82.8,0-150-67.2-150-150v-600c0-82.8,67.2-150,150-150h600c82.8,0,150,67.2,150,150v600
			C950,882.8,882.8,950,799.9,950z"/>
	</g>
	<g>
		<path class="st1" d="M714.3,697.3H225.2c-12.8,0-23.2-10.4-23.2-23.2V325.9c0-12.8,10.4-23.2,23.2-23.2h489.1
			c12.8,0,23.2,10.4,23.2,23.2v348.2C737.5,686.9,727.1,697.3,714.3,697.3z"/>
		<path class="st2" d="M692.6,687.9H246.8c-11.8,0-21.4-9.6-21.4-21.4v-333c0-11.8,9.6-21.4,21.4-21.4h445.8
			c11.8,0,21.4,9.6,21.4,21.4v333C714,678.3,704.4,687.9,692.6,687.9z"/>
		<g>
			<path class="st3" d="M797.9,318.4c0-4.8-3.9-8.7-8.7-8.7h-12.7c-4.8,0-8.7,3.9-8.7,8.7v333.6c0,0.8,0.1,1.6,0.3,2.3
				c1.3,9.2,6.7,42.9,14.7,42.9c8,0,13.4-33.7,14.7-42.9c0.2-0.7,0.3-1.5,0.3-2.3V318.4z"/>
			<path class="st4" d="M797.9,342v-23.6c0-4.8-3.9-8.7-8.7-8.7h-12.7c-4.8,0-8.7,3.9-8.7,8.7V342H797.9z"/>
			<rect x="767.8" y="331.8" class="st5" width="30.1" height="8.9"/>
		</g>
		<rect x="267.7" y="373.1" class="st5" width="173.8" height="4.7"/>
		<rect x="267.7" y="401.3" class="st5" width="328.9" height="4.7"/>
		<rect x="267.7" y="429.5" class="st5" width="399.3" height="4.7"/>
		<rect x="267.7" y="457.7" class="st5" width="399.3" height="4.7"/>
		<rect x="267.7" y="485.9" class="st5" width="399.3" height="4.7"/>
		<rect x="267.7" y="514.1" class="st5" width="399.3" height="4.7"/>
		<rect x="267.7" y="542.2" class="st5" width="399.3" height="4.7"/>
		<rect x="267.7" y="570.4" class="st5" width="399.3" height="4.7"/>
		<rect x="267.7" y="598.6" class="st5" width="399.3" height="4.7"/>
	</g>
</g>
</svg>
