<?xml version="1.0" encoding="utf-8"?>
<!-- Generator: Adobe Illustrator 22.1.0, SVG Export Plug-In . SVG Version: 6.00 Build 0)  -->
<svg version="1.1" id="图层_1" xmlns="http://www.w3.org/2000/svg" xmlns:xlink="http://www.w3.org/1999/xlink" x="0px" y="0px"
	 viewBox="0 0 1000 1000" style="enable-background:new 0 0 1000 1000;" xml:space="preserve">
<style type="text/css">
	.st0{fill:url(#SVGID_1_);}
	.st1{fill:#555E60;}
	.st2{fill:#EDF5F7;}
	.st3{fill:#DC544F;}
	.st4{fill:#90A6B4;}
</style>
<g>
	<g>
		<linearGradient id="SVGID_1_" gradientUnits="userSpaceOnUse" x1="500.1475" y1="50.1267" x2="500.1475" y2="952.4752">
			<stop  offset="0" style="stop-color:#F9F9F9"/>
			<stop  offset="1" style="stop-color:#EDEDED"/>
		</linearGradient>
		<path class="st0" d="M800.1,950H200.2c-82.8,0-150-67.1-150-150V200.1c0-82.8,67.1-150,150-150h599.9c82.8,0,150,67.1,150,150V800
			C950.1,882.9,882.9,950,800.1,950z"/>
	</g>
	<g>
		<path class="st1" d="M641.1,211.4H346.8l-97,97v416.9c0,12.3,10,22.3,22.3,22.3h369.1c12.3,0,22.3-10,22.3-22.3V233.7
			C663.5,221.4,653.5,211.4,641.1,211.4z"/>
		<path class="st2" d="M272.1,740.4c-8.3,0-15-6.7-15-15V311.5l92.8-92.8h291.3c8.3,0,15,6.7,15,15v491.6c0,8.3-6.8,15-15,15H272.1z
			"/>
		<path class="st3" d="M529.3,391.1l-4.2,12.7h-83.1c-10.2,0-17.8,7.6-17.8,17.8s7.6,17.8,17.8,17.8c10.2,0,17.8-7.6,17.8-17.8h81.4
			c0,10.2,8.5,17.8,17.8,17.8s17.8-7.6,17.8-17.8s-8.5-17.8-17.8-17.8h-16.1l33.9-98.4h20.4c4.2,0,8.5-4.2,8.5-9.3s-4.2-9.3-8.5-9.3
			h-26.3c-4.2,0-7.6,2.5-8.5,5.9l-5.1,14.4H427.5c-4.2,0-8.5,4.2-8.5,9.3c0,1.7,0,2.5,0.8,4.2l26.3,59.4c1.7,2.5,4.2,5.1,7.6,5.1
			L529.3,391.1z M459.8,368.2l-18.7-42.4h110.3l-16.1,47.5L459.8,368.2z"/>
		<path class="st4" d="M249.7,308.4v416.9c0,12.3,10,22.3,22.3,22.3h3.2V308.4H249.7z"/>
		<path class="st1" d="M324.4,308.4c12.3,0,22.3-10,22.3-22.3v-74.7l-97,97H324.4z"/>
		<path class="st4" d="M359.6,497.4h-51.1c-4.2,0-7.7-3.4-7.7-7.7l0,0c0-4.2,3.4-7.7,7.7-7.7h51.1c4.2,0,7.7,3.4,7.7,7.7l0,0
			C367.2,494,363.8,497.4,359.6,497.4z"/>
		<path class="st4" d="M558.8,497.4h-143c-4.2,0-7.7-3.4-7.7-7.7l0,0c0-4.2,3.4-7.7,7.7-7.7h143c4.2,0,7.7,3.4,7.7,7.7l0,0
			C566.4,494,563,497.4,558.8,497.4z"/>
		<path class="st4" d="M344.2,548.5h-35.8c-4.2,0-7.7-3.4-7.7-7.7l0,0c0-4.2,3.4-7.7,7.7-7.7h35.8c4.2,0,7.7,3.4,7.7,7.7l0,0
			C351.9,545.1,348.4,548.5,344.2,548.5z"/>
		<path class="st4" d="M517.9,548.5H395.3c-4.2,0-7.7-3.4-7.7-7.7l0,0c0-4.2,3.4-7.7,7.7-7.7h122.6c4.2,0,7.7,3.4,7.7,7.7l0,0
			C525.6,545.1,522.1,548.5,517.9,548.5z"/>
		<path class="st4" d="M507.7,599.6H308.5c-4.2,0-7.7-3.4-7.7-7.7l0,0c0-4.2,3.4-7.7,7.7-7.7h199.2c4.2,0,7.7,3.4,7.7,7.7l0,0
			C515.3,596.1,511.9,599.6,507.7,599.6z"/>
		<path class="st4" d="M374.9,650.7h-66.4c-4.2,0-7.7-3.4-7.7-7.7l0,0c0-4.2,3.4-7.7,7.7-7.7h66.4c4.2,0,7.7,3.4,7.7,7.7l0,0
			C382.5,647.2,379.1,650.7,374.9,650.7z"/>
		<path class="st4" d="M436.2,650.7h-15.3c-4.2,0-7.7-3.4-7.7-7.7l0,0c0-4.2,3.4-7.7,7.7-7.7h15.3c4.2,0,7.7,3.4,7.7,7.7l0,0
			C443.8,647.2,440.4,650.7,436.2,650.7z"/>
		<polygon class="st1" points="623.1,788.7 500.3,719.6 500.3,577.6 623.1,646.7 		"/>
		<g>
			<polygon class="st2" points="627.7,784.1 504.9,715 504.9,573 627.7,642.1 			"/>
			<polygon class="st4" points="627.7,642.1 504.9,573 627.7,500.1 750.6,573 			"/>
			<polygon class="st1" points="627.7,642.1 574,611.4 693,538.5 750.6,573 			"/>
			<polygon class="st4" points="750.6,715 627.7,784.1 627.7,642.1 750.6,573 			"/>
		</g>
	</g>
</g>
</svg>
