<?xml version="1.0" encoding="utf-8"?>
<!-- Generator: Adobe Illustrator 22.1.0, SVG Export Plug-In . SVG Version: 6.00 Build 0)  -->
<svg version="1.1" id="图层_1" xmlns="http://www.w3.org/2000/svg" xmlns:xlink="http://www.w3.org/1999/xlink" x="0px" y="0px"
	 viewBox="0 0 1000 1000" style="enable-background:new 0 0 1000 1000;" xml:space="preserve">
<style type="text/css">
	.st0{fill:url(#SVGID_1_);}
	.st1{fill:#555E60;}
	.st2{fill:#90A6B4;}
	.st3{fill:#DC544F;}
</style>
<g>
	<g>
		<linearGradient id="SVGID_1_" gradientUnits="userSpaceOnUse" x1="499.875" y1="50.1267" x2="499.875" y2="952.853">
			<stop  offset="0" style="stop-color:#F9F9F9"/>
			<stop  offset="1" style="stop-color:#EDEDED"/>
		</linearGradient>
		<path class="st0" d="M800,950.4H199.8c-82.9,0-150-67.2-150-150V200.2c0-82.9,67.2-150,150-150H800c82.9,0,150,67.2,150,150v600.2
			C950,883.2,882.8,950.4,800,950.4z"/>
	</g>
	<g>
		
			<rect x="172.1" y="364.2" transform="matrix(-0.4183 0.9083 -0.9083 -0.4183 733.7253 273.6728)" class="st1" width="214.3" height="15.1"/>
		
			<rect x="267.8" y="366.7" transform="matrix(0.4183 0.9083 -0.9083 0.4183 558.0599 -122.8153)" class="st1" width="214.3" height="15.1"/>
		
			<rect x="519.4" y="404.6" transform="matrix(-0.4183 0.9083 -0.9083 -0.4183 1263.0486 15.4108)" class="st1" width="214.3" height="15.1"/>
		<polygon class="st1" points="773.9,508.8 684.3,314.2 667.1,313.1 760.2,515.1 		"/>
		<path class="st2" d="M770.7,325.3L235.1,268c-4.9-0.5-8.5-5-8-9.9h0c0.5-4.9,5-8.5,9.9-8l535.7,57.3c4.9,0.5,8.5,5,8,9.9v0
			C780.1,322.2,775.7,325.8,770.7,325.3z"/>
		<rect x="480.7" y="218.9" class="st2" width="36.9" height="524.8"/>
		<path class="st1" d="M551,743.7c-49.3,0-51.8,0-51.8,0s-2.5,0-51.8,0s-54.8,37.9-54.8,37.9h106.7h106.7
			C605.8,781.6,600.3,743.7,551,743.7z"/>
		<polygon class="st3" points="726.9,510 621.7,510 639.2,462.6 709.4,462.6 		"/>
		<path class="st2" d="M568.5,505c-0.4,2-0.6,4-0.6,6c0,31.9,47.7,57.8,106.7,57.8s106.7-25.9,106.7-57.8c0-2-0.2-4-0.6-6H568.5z"/>
		<path class="st2" d="M219.1,462.6c-0.4,2-0.6,4-0.6,6c0,31.9,47.7,57.8,106.7,57.8s106.7-25.9,106.7-57.8c0-2-0.2-4-0.6-6H219.1z"
			/>
		<circle class="st1" cx="499.4" cy="285.5" r="27.7"/>
	</g>
</g>
</svg>
