<?xml version="1.0" encoding="utf-8"?>
<!-- Generator: Adobe Illustrator 22.1.0, SVG Export Plug-In . SVG Version: 6.00 Build 0)  -->
<svg version="1.1" id="图层_1" xmlns="http://www.w3.org/2000/svg" xmlns:xlink="http://www.w3.org/1999/xlink" x="0px" y="0px"
	 viewBox="0 0 1000 1000" style="enable-background:new 0 0 1000 1000;" xml:space="preserve">
<style type="text/css">
	.st0{fill:url(#SVGID_1_);}
	.st1{fill:#555E60;}
	.st2{fill:#EDF5F7;}
	.st3{fill:#90A6B4;}
	.st4{fill:#DC544F;}
	.st5{opacity:0.5;fill:#90A6B4;}
</style>
<g>
	<g>
		<linearGradient id="SVGID_1_" gradientUnits="userSpaceOnUse" x1="499.8171" y1="49.9302" x2="499.8171" y2="952.7725">
			<stop  offset="0" style="stop-color:#F9F9F9"/>
			<stop  offset="1" style="stop-color:#EDEDED"/>
		</linearGradient>
		<path class="st0" d="M799.9,950.3H199.7c-82.9,0-150.1-67.2-150.1-150.1V200c0-82.9,67.2-150.1,150.1-150.1h600.2
			C882.8,49.9,950,117.1,950,200v600.2C950,883.1,882.8,950.3,799.9,950.3z"/>
	</g>
	<g>
		<path class="st1" d="M673.4,199.2H358.2L254.3,303.1v446.4c0,13.2,10.7,23.9,23.9,23.9h395.2c13.2,0,23.9-10.7,23.9-23.9V223.1
			C697.3,209.9,686.6,199.2,673.4,199.2z"/>
		<path class="st2" d="M278.2,768c-10.2,0-18.5-8.3-18.5-18.5V305.4l100.7-100.7h312.9c10.2,0,18.5,8.3,18.5,18.5v526.4
			c0,10.2-8.3,18.5-18.5,18.5H278.2z"/>
		<path class="st3" d="M254.3,303.1v446.4c0,13.2,10.7,23.9,23.9,23.9h3.4V303.1H254.3z"/>
		<path class="st1" d="M334.3,303.1c13.2,0,23.9-10.7,23.9-23.9v-80L254.3,303.1H334.3z"/>
		<circle class="st3" cx="360.9" cy="377" r="24.6"/>
		<circle class="st4" cx="360.9" cy="464.5" r="24.6"/>
		<circle class="st3" cx="360.9" cy="552" r="24.6"/>
		<circle class="st4" cx="360.9" cy="639.5" r="24.6"/>
		<rect x="412.9" y="363.3" class="st1" width="202.4" height="16.4"/>
		<polygon class="st1" points="434.7,472.7 412.9,472.7 412.9,456.3 451.2,456.3 		"/>
		<rect x="412.9" y="538.3" class="st5" width="202.4" height="38.3"/>
		<polygon class="st5" points="604.3,489.1 423.8,489.1 456.6,450.8 571.5,450.8 		"/>
		<rect x="412.9" y="642.2" class="st1" width="32.8" height="16.4"/>
		<g>
			<path class="st1" d="M584.8,475.3c42.1,42.1,43.4,109.7,3.9,153.4c1.4-1.3,2.8-2.6,4.1-3.9c43.5-43.5,43.5-114,0-157.5
				s-114-43.5-157.5,0c-1.3,1.3-2.6,2.7-3.9,4.1C475.1,431.8,542.6,433.1,584.8,475.3z"/>
			<path class="st1" d="M440.7,619.4c-42.1-42.1-43.4-109.7-3.9-153.4c-1.4,1.3-2.8,2.6-4.1,3.9c-43.5,43.5-43.5,114,0,157.5
				s114,43.5,157.5,0c1.3-1.3,2.6-2.7,3.9-4.1C550.3,662.8,482.8,661.5,440.7,619.4z"/>
			
				<rect x="592.1" y="623.7" transform="matrix(0.7071 0.7071 -0.7071 0.7071 627.1296 -249.6469)" class="st1" width="45.6" height="17"/>
			
				<rect x="601.8" y="692.3" transform="matrix(0.7071 0.7071 -0.7071 0.7071 707.4221 -282.9051)" class="st3" width="186.8" height="40.4"/>
			<path class="st3" d="M598.1,461.9c-43.5-43.5-114-43.5-157.5,0c-43.5,43.5-43.5,114,0,157.5s114,43.5,157.5,0
				C641.6,575.9,641.6,505.4,598.1,461.9z M446,614.1c-40.5-40.5-40.5-106.3,0-146.8s106.3-40.5,146.8,0s40.5,106.3,0,146.8
				S486.5,654.6,446,614.1z"/>
			
				<ellipse transform="matrix(0.7071 -0.7071 0.7071 0.7071 -327.8161 766.9893)" class="st1" cx="761.9" cy="779.2" rx="20.2" ry="10.4"/>
		</g>
	</g>
</g>
</svg>
