<?xml version="1.0" encoding="utf-8"?>
<!-- Generator: Adobe Illustrator 22.1.0, SVG Export Plug-In . SVG Version: 6.00 Build 0)  -->
<svg version="1.1" id="图层_1" xmlns="http://www.w3.org/2000/svg" xmlns:xlink="http://www.w3.org/1999/xlink" x="0px" y="0px"
	 viewBox="0 0 1000 1000" style="enable-background:new 0 0 1000 1000;" xml:space="preserve">
<style type="text/css">
	.st0{fill:url(#SVGID_1_);}
	.st1{fill:#555E60;}
	.st2{fill:#EDF5F7;}
	.st3{fill:#90A6B4;}
	.st4{fill:#DC544F;}
</style>
<g>
	<g>
		<linearGradient id="SVGID_1_" gradientUnits="userSpaceOnUse" x1="499.9767" y1="50.0421" x2="499.9767" y2="952.5642">
			<stop  offset="0" style="stop-color:#F9F9F9"/>
			<stop  offset="1" style="stop-color:#EDEDED"/>
		</linearGradient>
		<path class="st0" d="M800,950.1H200c-82.8,0-150-67.2-150-150V200c0-82.8,67.2-150,150-150h600c82.8,0,150,67.2,150,150v600
			C950,882.9,882.8,950.1,800,950.1z"/>
	</g>
	<g>
		<rect x="240.1" y="233.9" class="st1" width="429.5" height="504.4"/>
		
			<rect x="207.6" y="276.4" transform="matrix(-1.836970e-16 1 -1 -1.836970e-16 941.0193 31.2667)" class="st2" width="494.5" height="419.5"/>
		<path class="st3" d="M287.7,332.5v4.8v33.4v4.8v33.4v4.8v33.4v4.8v33.4v4.8v33.4v4.8v33.4v4.8V600v4.8v33.4v4.8v28.7v4.8h334.4
			v-4.8V643v-4.8v-33.4V600v-33.4v-4.8v-33.4v-4.8v-33.4v-4.8v-33.4v-4.8v-33.4v-4.8v-33.4v-4.8v-33.4v-4.8H287.7z M292.4,337.3
			h162.4v33.4H292.4V337.3z M292.4,375.5h162.4v33.4H292.4V375.5z M292.4,413.7h162.4v33.4H292.4V413.7z M292.4,451.9h162.4v33.4
			H292.4V451.9z M292.4,490.2h162.4v33.4H292.4V490.2z M292.4,528.4h162.4v33.4H292.4V528.4z M292.4,566.6h162.4V600H292.4V566.6z
			 M292.4,604.8h162.4v33.4H292.4V604.8z M292.4,671.7V643h162.4v28.7H292.4z M617.3,671.7H459.6V643h157.7V671.7z M617.3,638.3
			H459.6v-33.4h157.7V638.3z M617.3,600H459.6v-33.4h157.7V600z M617.3,561.8H459.6v-33.4h157.7V561.8z M617.3,523.6H459.6v-33.4
			h157.7V523.6z M617.3,485.4H459.6v-33.4h157.7V485.4z M617.3,447.2H459.6v-33.4h157.7V447.2z M617.3,408.9H459.6v-33.4h157.7
			V408.9z M617.3,370.7H459.6v-33.4h157.7V370.7z"/>
		<rect x="287.7" y="294.3" class="st3" width="86" height="19.1"/>
		<rect x="411.9" y="294.3" class="st3" width="86" height="19.1"/>
		<rect x="536.1" y="294.3" class="st3" width="86" height="19.1"/>
		<polygon class="st1" points="742,753.2 742,740.1 730.8,740.1 730.8,613 746.1,613 746.1,598.1 640.6,558.6 624.1,558.6 
			518.5,598.1 518.5,613 533.8,613 533.8,740.1 522.6,740.1 522.6,753.2 504.8,753.2 504.8,766.2 759.8,766.2 759.8,753.2 		"/>
		<polygon class="st4" points="664.4,666.3 664.4,677.9 639.3,677.9 639.3,691.2 664.4,691.2 664.4,702.9 639.3,702.9 639.3,732 
			625.3,732 625.3,702.9 600.2,702.9 600.2,691.2 625.3,691.2 625.3,677.9 600.2,677.9 600.2,666.3 623.8,666.3 585.5,617.3 
			602.6,617.3 632.3,654.5 662.1,617.3 679.2,617.3 640.8,666.3 		"/>
	</g>
</g>
</svg>
