<?xml version="1.0" encoding="utf-8"?>
<!-- Generator: Adobe Illustrator 22.1.0, SVG Export Plug-In . SVG Version: 6.00 Build 0)  -->
<svg version="1.1" id="图层_1" xmlns="http://www.w3.org/2000/svg" xmlns:xlink="http://www.w3.org/1999/xlink" x="0px" y="0px"
	 viewBox="0 0 1000 1000" style="enable-background:new 0 0 1000 1000;" xml:space="preserve">
<style type="text/css">
	.st0{fill:url(#SVGID_1_);}
	.st1{fill:#90A6B4;}
	.st2{fill:#555E60;}
	.st3{fill:#EDF5F7;}
	.st4{fill:#FF6C6C;}
</style>
<g>
	<g>
		<linearGradient id="SVGID_1_" gradientUnits="userSpaceOnUse" x1="499.7306" y1="49.5388" x2="499.7306" y2="952.4768">
			<stop  offset="0" style="stop-color:#F9F9F9"/>
			<stop  offset="1" style="stop-color:#EDEDED"/>
		</linearGradient>
		<path class="st0" d="M799.9,950H199.6c-82.9,0-150.1-67.2-150.1-150.1V199.6c0-82.9,67.2-150.1,150.1-150.1h600.3
			c82.9,0,150.1,67.2,150.1,150.1v600.3C950,882.8,882.8,950,799.9,950z"/>
	</g>
	<g>
		<rect x="266.2" y="194.4" class="st1" width="467.1" height="610.7"/>
		<rect x="496.8" y="194.4" class="st2" width="5.9" height="610.7"/>
		<path class="st3" d="M685.9,378.8H313.6c-26.2,0-47.4-21.2-47.4-47.4V206.8h467.1v124.6C733.3,357.6,712.1,378.8,685.9,378.8z"/>
		<path class="st2" d="M685.9,366.5H313.6c-26.2,0-47.4-21.2-47.4-47.4V194.4h467.1V319C733.3,345.2,712.1,366.5,685.9,366.5z"/>
		<polygon class="st3" points="470.7,442.3 463.2,452.5 463.2,317.5 470.7,328.3 		"/>
		<polygon class="st3" points="536.3,453 528.7,442.3 528.7,328.3 536.3,318.1 		"/>
		<path class="st3" d="M499.7,334.2c-20.3,0-36.8-16.5-36.8-36.8c0-20.3,16.5-36.8,36.8-36.8s36.8,16.5,36.8,36.8
			C536.6,317.7,520,334.2,499.7,334.2z M499.7,276.7c-11.4,0-20.7,9.3-20.7,20.7c0,11.4,9.3,20.7,20.7,20.7s20.7-9.3,20.7-20.7
			C520.4,286,511.1,276.7,499.7,276.7z"/>
		<path class="st3" d="M499.7,511.1c-20.3,0-36.8-16.5-36.8-36.8c0-20.3,16.5-36.8,36.8-36.8s36.8,16.5,36.8,36.8
			C536.6,494.5,520,511.1,499.7,511.1z M499.7,453.5c-11.4,0-20.7,9.3-20.7,20.7c0,11.4,9.3,20.7,20.7,20.7s20.7-9.3,20.7-20.7
			C520.4,462.8,511.1,453.5,499.7,453.5z"/>
		<g>
			<path class="st4" d="M535.2,732.4 M563.2,745.7c-3.8-0.6-6.4-1.9-9.5-3.2v0.6c0-0.6-1.3,0-0.6-0.6c-0.6,0-1.3,0.6-1.9-0.6
				c-1.3-1.3-1.9-1.9-3.8-1.9c0,0.6-0.6,0.6-0.6,0.6c0-0.6,0.6-0.6,0.6-1.3c-1.3-0.6-1.9-1.9-3.8-1.9l-0.6,0.6
				c-0.6-0.6-0.6-0.6-1.3-0.6c0.6-1.9-1.9-2.5-3.8-3.2c0.6-1.3-1.3-0.6-0.6-1.9c-0.6-0.6-0.6,0.6-0.6,0.6h-0.6c0,0.6,0,1.9-0.6,1.9
				c-0.6-1.3-1.9-0.6-1.9-1.3V733h0.6c-0.6-0.6-0.6-1.3,0-1.9c0-0.6-0.6,0.6-1.3,0.6c-0.6,0.6,0.6,0.6,0,0.6c0,0,0-0.6-0.6-0.6
				c-0.6,0.6-0.6,1.3-0.6,1.9c1.3,0,1.3,0.6,1.9,1.3c0-0.6,0-0.6,0.6-0.6v1.3c1.9,1.3,4.5,3.2,7,4.5c0.6-1.9,1.9,0.6,2.5-0.6
				c0,0.6,0.6,0.6,0.6,0.6c-0.6,0-0.6,0.6-0.6,1.3c1.9-0.6,1.9,0.6,3.2,1.3c0.6-0.6-0.6-0.6,0-1.3c0.6,1.3,0.6,1.9,0.6,3.2
				c1.9,0.6,3.2,0.6,5.1,1.9c0.6-0.6-0.6-0.6-0.6-1.9c0.6-0.6,0,0.6,0.6,0.6c0.6-0.6,0.6-0.6,0.6-1.9c0.6,0.6,1.9,1.3,0.6,1.9
				c0,0,0-0.6-0.6-0.6c0,0.6,0.6,1.3,0.6,1.9c1.9-0.6,1.9,0.6,3.2,0.6c0-0.6,0.6-0.6,0.6-1.3c0,0,0.6,0.6,0.6,1.3h1.3
				c-0.6,0.6,0,0.6,0,1.3c1.3,0,1.9,0.6,2.5,0.6s1.3,0,1.9,0.6c-0.6-0.6,0.6-1.3,0.6-1.9c0.6,0-0.6,1.3,0.6,0.6
				c0.6-0.6-0.6-0.6-0.6-1.3h1.3v-0.6c-0.6,0-1.3,0.6-1.9,0.6C563.8,746.4,563.2,746.4,563.2,745.7 M551.1,742.6
				C551.1,742.6,550.5,743.2,551.1,742.6C550.5,742.6,551.1,742.6,551.1,742.6 M577.2,749.6C577.2,750.2,577.2,749.6,577.2,749.6
				 M577.2,749.6v-1.3c-1.3-0.6-2.5-0.6-4.5,0c0-0.6-0.6-0.6-1.3-0.6c0,0.6,0.6,0.6,0,0.6s-0.6-0.6-0.6-0.6c-0.6,0.6-1.9,0.6-1.9,0
				v3.2c0.6,0.6,0.6,1.3,1.9,0.6c0.6-0.6-0.6,0-0.6-0.6c1.3,0,3.8-0.6,3.2,0.6v-0.6l-1.3,1.3c1.9,0,3.8,0.6,4.5-0.6v1.3
				C576.5,752.1,576.5,750.2,577.2,749.6"/>
			<path class="st4" d="M567,748.3c0.6-1.3,2.5-0.6,0-1.3c0,1.3-0.6,1.9-0.6,2.5c0,0-1.3,0.6-0.6,0.6c1.3-0.6,1.3,0.6,2.5,0.6v-1.9
				C568.3,748.9,567.6,748.3,567,748.3z M526.9,727.3c1.3,0.6,1.3,0,1.3,0v-0.6h-0.6C528.2,727.3,526.9,727.3,526.9,727.3z
				 M629.3,614.8c-0.6,1.3-1.9,3.8,0,3.8c0.6,0.6,0-0.6,0.6-0.6c0.6,1.3-0.6,0.6,0,1.3c1.9,1.3,2.5,3.8,5.7,3.8
				c0,0.6-1.3-0.6-0.6,0.6c0.6,0,0.6,0.6,0.6,1.3h0.6c0,1.3,2.5,1.3,1.3,1.9c0.6,0,0.6-0.6,1.3,0c0,0-0.6-0.6,0-0.6
				c0.6,0.6,0.6,0,0.6,0c0,0.6,0.6,0.6,0.6,1.9h-0.6v0.6c0.6,0,0.6,0,1.9-0.6c0,0.6-0.6,0.6-1.3,0.6c0.6,0.6,0.6,0.6,1.3,1.9
				l4.5-1.3c-0.6,0-0.6,0.6-0.6,0l-1.9-1.9c-0.6-0.6-0.6,0.6-0.6,0c0,0,0.6,0,0.6-0.6l-0.6-0.6c-0.6-0.6-0.6,0.6-1.3,0h0.6
				c0-0.6-0.6-0.6-0.6-1.9h-1.3V623c-3.8-1.9-3.8-6.4-8.9-6.4c0,0,0.6,0.6,0,0.6c0.6-0.6-0.6-1.3,0-1.9c0.6,0.6,0.6-0.6,1.3,0.6
				c0-1.3-1.9-2.5-3.2-1.9C628.7,614.8,629.3,614.1,629.3,614.8L629.3,614.8z M545.4,719.7c0,0.6,0,0.6-0.6,0.6
				c-0.6,0.6,0.6,0,0.6,0.6c0.6,0,0-0.6,0.6-0.6c0.6,0.6-0.6,0.6-0.6,1.9c0.6-0.6,0.6,0.6,1.3,0.6c0-0.6,0-1.3,0.6-1.3
				C546.6,720.3,546,719.7,545.4,719.7z M625.5,616C625.5,616.7,626.1,616.7,625.5,616C626.1,616.7,626.1,616,625.5,616z
				 M576.5,752.7h0.6c-0.6-1.3,0.6-1.3,0.6-1.9C578.4,750.2,576.5,750.8,576.5,752.7z M533.9,732.4h0.6
				C534.6,731.8,534.6,732.4,533.9,732.4z M527.6,727.9v1.3c0.6,0,0.6-0.6,0.6-1.3C527.6,728.6,528.2,727.3,527.6,727.9z"/>
			<path class="st4" d="M598.1,729.2c-1.3,0.6-3.8,0.6-4.5,1.9c-0.6-0.6-1.3,0-1.9,0.6c-2.5-0.6-6.4,0.6-9.5,0.6c0,0,0,0.6-0.6,0.6
				c0-0.6,0.6-0.6,0.6-0.6c-2.5,0-4.5-0.6-6.4,0.6v-0.6c-1.3,0-1.9,0-3.2-0.6c-0.6,0.6-0.6,0.6-0.6,1.3c0-0.6-0.6-0.6-0.6-0.6
				c0.6,0,0.6-0.6,0.6-0.6c-1.3,0-1.9-0.6-3.2-0.6c0,0.6,0.6,0.6,0,0.6c-0.6-0.6-1.9-1.3-3.2-1.9c0,0.6,0.6,0.6,0,0.6
				c0,0-0.6,0.6-0.6,0c0,0,0.6,0,0.6-0.6c-1.3,0-1.9-0.6-3.8-0.6c-0.6,0,0,0.6-0.6,0.6c0,0-0.6,0.6-0.6,0c0.6,0,0.6,0,0.6-0.6
				c-0.6-0.6-1.9,0.6-2.5,0c0-0.6,1.3,0.6,0.6-0.6c-2.5-0.6-3.8-2.5-6.4-3.2c0,0.6-0.6,0.6-0.6,0.6c-0.6-0.6,0.6-0.6,0.6-1.3
				c-2.5-1.3-4.5-2.5-6.4-4.5v1.3H546l1.9,1.9c0.6-0.6-0.6,0-0.6-0.6h0.6c0,0.6,0.6,1.3,0.6,1.9c0.6,0,0.6-0.6,0.6-0.6
				c0.6,1.3,1.9,2.5,5.1,2.5c-0.6,0.6,0,0.6,0,0.6c0.6,0,1.3,0.6,1.9,0.6c0-0.6,0.6-0.6,1.3-0.6c-0.6,0-0.6,0.6-0.6,1.3
				c0.6,0,1.9,0,1.9,0.6c0.6,0.6,0-0.6,0.6-0.6c-0.6,0.6,0.6,0,0.6,0.6c3.8,0.6,8.9,3.8,13.4,2.5c0.6,0,0,0.6,0.6,0.6
				c0.6,0,0.6-0.6,1.3-0.6v0.6c1.3-0.6,2.5,0,3.8,0.6c-0.6-0.6,0.6-0.6,0.6-1.3c-0.6,0-0.6,0.6-1.3,0c0.6-0.6,0.6-0.6,1.3-0.6
				c0,0.6,0.6,0,0.6,0.6v1.9c-0.6,0-0.6,0-0.6,0.6c2.5,0,5.1-0.6,8.3-0.6c0-0.6-0.6-0.6,0-0.6v0.6c0.6-0.6,3.2-0.6,3.8-1.3
				c0,0,0,0.6,0.6,0.6c3.8-1.3,7.6-1.9,10.8-3.8c1.3,0,3.8-0.6,3.8-1.9c0,0,0,0.6,0.6,0.6c1.9-1.3,3.8-1.9,5.7-3.8l1.3-1.3
				c0.6-0.6-0.6,0.6-0.6-0.6c1.3,0.6,1.9,0,1.9-0.6c0.6,0,0,0.6,0,0.6c0.6,0,0.6-1.3,1.9-0.6c0.6-0.6-0.6-0.6,0-1.3l0.6,0.6l0.6-0.6
				h0.6v-0.6h0.6V719c1.9-0.6,3.2-3.2,5.1-4.5c0-1.9,1.9-1.9,1.9-3.8h2.5c0-0.6,0.6-1.9,0-3.2c1.3,0.6,1.9-0.6,1.9-0.6
				c3.2-5.7,5.1-9.5,7-16.5c-1.3-0.6-1.3,1.3-2.5,0.6c-1.9,7.6-3.8,11.4-7.6,16.5c0,0.6,0.6,2.5,0,3.2c-0.6-0.6-0.6-0.6-1.9-0.6
				c-3.8,4.5-7.6,8.9-12.1,12.1v0.6c-1.9-0.6-3.2,0.6-3.8,1.9c-3.2,0.6-5.1,3.2-8.9,3.8c0,0.6,0.6,0.6,0,0.6c-0.6-0.6-3.2,0-3.8,1.3
				C598.1,730.5,598.8,729.2,598.1,729.2L598.1,729.2z M526.3,726c0.6,0.6,0,1.3,0.6,1.3C526.9,727.3,526.9,726,526.3,726z M581,707
				c0.6,0.6,0.6,0.6,1.3,0.6C582.2,707,582.2,707,581,707z M620.4,631.3v-0.6C619.8,630.7,619.8,631.3,620.4,631.3z M595,617.3
				c-1.3-0.6-0.6,0.6-1.3,0.6v-1.3c-3.2,0-3.8,0-6.4-0.6c-0.6,0.6-0.6,0.6-1.9,0.6v-1.3h-1.3c0.6,0.6,0,0.6,0.6,1.9
				c0.6,0,1.9,0.6,1.9,0c0.6,0.6,2.5,0,3.2,0.6c-0.6-0.6,0.6-1.3,1.9-0.6v0.6c-0.6,0-1.3-0.6-1.3,0.6c1.9-0.6,1.9,0.6,3.8,0.6
				C593.7,618,595,618,595,617.3L595,617.3z M602.6,621.1c0,0.6,1.3,1.3,2.5,1.3c0-0.6,0-0.6,0.6-0.6c-0.6,0-0.6,0-0.6-0.6v-1.3
				c-0.6,0.6-2.5-0.6-3.2-1.3c-0.6,0-0.6,0.6-0.6,0.6c0-0.6-1.3-0.6-1.9,0c0.6-1.3-1.3,0-3.2,0c0-0.6-0.6-0.6,0-1.3
				c-0.6,0-0.6-0.6-1.3-0.6v1.9c1.3-0.6,1.9,0.6,3.2,0C599.4,621.1,600.7,621.1,602.6,621.1v-0.6c0,0.6,0.6,0.6,0.6,1.3
				C602.6,621.8,603.2,620.5,602.6,621.1z M605.1,621.1c0,0.6-0.6,0.6-0.6,0H605.1z M612.8,624.3c0,0.6-0.6,0.6-0.6,1.3
				C611.5,624.9,612.8,623.7,612.8,624.3c-1.9-0.6-1.3-1.9-3.2-1.3c0.6,0.6,1.3,0.6,1.3,0.6l-0.6,0.6c0.6,0.6,1.3,1.3,2.5,1.9
				c0-0.6,0-0.6,1.3-0.6c-0.6-0.6-0.6-0.6,0-1.3C612.8,624.9,614,623.7,612.8,624.3z"/>
			<path class="st4" d="M607.7,621.1c0,0.6,0.6,0.6,0.6,1.3h-0.6c-0.6,0.6,0,0.6,0,0.6c0.6,0.6,0.6-0.6,1.3-0.6
				c0,0.6,0.6,0.6,1.9,1.3c0.6-0.6-0.6-0.6-0.6-1.9C608.9,622.4,608.3,621.1,607.7,621.1z M541.6,632.6
				C541.6,632.6,540.9,632.6,541.6,632.6C540.9,632.6,540.9,632.6,541.6,632.6C540.9,633.2,540.9,633.2,541.6,632.6z M582.9,614.8
				H581c0,0.6,0.6,0.6,0,0.6c0.6,0,1.3,0.6,0.6,0.6c0-0.6,0-0.6-0.6-0.6s-1.9,0-1.9,0.6c-0.6-0.6-3.8-0.6-4.5,0
				c0,0.6,0.6,0.6-0.6,0.6c-0.6,0,0.6-0.6-0.6-0.6c-0.6,0-0.6,0.6-1.3,0.6c-0.6-1.3-3.8-0.6-5.1,0c-0.6,0.6,0.6,0,0.6,0.6
				c-0.6-0.6,0,0.6-0.6,0.6c0.6-1.3,0,0-0.6-0.6c0,0.6,0.6,1.3,0,1.3v-1.3c-3.2,0-3.8,1.9-7,1.9c0.6,0.6-0.6,0.6-0.6,0.6
				c-4.5,1.9-8.3,3.8-11.4,6.4v0.6c0,0.6-0.6,1.3-0.6,1.9c5.1-2.5,8.9-6.4,15.3-7.6c0.6-0.6,2.5-0.6,2.5-1.9c0,0.6,0,0.6,0.6,0.6
				c1.9-1.3,5.7-0.6,7.6-1.9c1.9,0.6,5.1-0.6,8.3-0.6h1.9c0-0.6-0.6-0.6-0.6-0.6C582.2,616,582.9,615.4,582.9,614.8z M542.2,632.6
				 M625.5,635.1c0.6-0.6-0.6,0-0.6-0.6c0,0.6-0.6,0.6-0.6,1.3C625.5,635.1,624.8,634.5,625.5,635.1z M620.4,632.6
				c0.6,0.6,1.9,0.6,1.9,1.3c0.6-0.6,0.6-1.3,0.6-1.9c-0.6,1.3-0.6-1.9-2.5-1.3l1.3,1.3C621,631.3,620.4,631.9,620.4,632.6z
				 M614,626.9c0.6,0,0,0.6,0.6,1.3c0.6,0,1.3,0.6,1.9,0.6s0-0.6,0.6-0.6v-1.3c-0.6,0-0.6-0.6-1.9-0.6v-0.6
				c-0.6,0.6-0.6-0.6-0.6-0.6c-0.6,0.6,0,0.6,0,0.6C615.3,626.2,614,625.6,614,626.9z"/>
			<path class="st4" d="M620.4,630C620.4,630,620.4,630.7,620.4,630C620.4,630.7,620.4,630,620.4,630z M541.6,632.6
				c0,0.6-0.6,0.6-0.6,0.6L541.6,632.6c-1.3,0-1.3,0.6-1.9,1.3c0,0.6,0.6,1.3,0,1.3c-0.6-1.9-1.3,1.3-2.5,1.3
				c0.6,1.3-1.9,1.9-0.6,3.2c-0.6,0.6,0-0.6-0.6-0.6v1.3c-1.3-0.6-0.6,1.3-1.9,1.3c0,0.6-0.6,0.6-0.6,1.9c0.6,0,0.6-0.6,0.6,0v0.6
				c-0.6,0-1.3,0.6-1.9,0.6c0,0,0.6-1.3,0-0.6c0,1.3-0.6,1.3-1.3,1.9c0.6,0,1.3-0.6,1.3,0c-0.6,0-0.6,0-0.6,0.6
				c3.8-3.2,5.7-8.3,9.5-11.4c-0.6,0-0.6-0.6-0.6-1.3h0.6L541.6,632.6C541.6,633.2,541.6,633.2,541.6,632.6z M624.2,633.8
				C623.6,633.8,623.6,633.8,624.2,633.8l-1.9-0.6c0,0.6,0.6,0.6,0.6,1.3C623.6,635.1,623.6,634.5,624.2,633.8z M619.8,629.4
				c-1.3,0-1.9,0-2.5-0.6c0.6,0.6-0.6,0-0.6,0.6s2.5,0.6,2.5,1.3C619.1,629.4,619.8,629.4,619.8,629.4z M584.2,750.8v0.6
				c0.6-0.6,0.6,0.6,0.6,0C584.2,751.5,584.2,751.5,584.2,750.8z M541.6,634.5c0-0.6,0-1.3,0.6-1.3h-0.6V634.5z"/>
			<path class="st4" d="M512.9,648.5c0,0-0.6-0.6,0-1.3C513.6,647.2,512.9,649.1,512.9,648.5c0-1.9,1.3-1.9,1.3-3.8
				c0-0.6-0.6-1.3-0.6-1.3v-0.6c0.6,0,0,0.6,1.3,0.6c0.6-0.6-0.6,0-0.6-0.6v-0.6h-0.6c0-0.6-0.6-0.6-0.6-1.3c0,0.6,0.6,0,0.6,0.6
				c0.6,0.6,0-0.6,0.6-0.6l1.3,0.6h-0.6c0,0,0,0.6,0.6,0.6c1.9-4.5,4.5-8.9,7.6-12.1v-1.3h0.6c0-1.9,1.9-1.9,2.5-3.8h1.9
				c0-1.3,1.3-2.5,3.2-3.2c1.9-1.3,2.5-3.2,4.5-3.8c0.6-0.6,0.6-1.3,1.3-1.9c1.3,0.6,0.6-0.6,1.9-0.6c1.9-2.5,6.4-3.8,8.9-6.4
				c6.4-1.9,12.1-5.7,20.3-6.4c0.6-0.6-0.6-0.6,0-0.6c5.1,0.6,12.1-0.6,19.1-0.6c0-0.6,0-0.6,0.6-0.6c-0.6,0.6,0.6,0.6,0.6,0.6
				c1.9-0.6,3.8,0.6,4.5,0c0.6,0.6,3.8,1.9,3.8,0v1.3c0.6,0,1.9,0,1.9,0.6c0.6-0.6-0.6-0.6-0.6-1.3c0.6,0.6,0-0.6,0.6-0.6
				c0.6,0.6-0.6,0-0.6,0.6c0.6,0,0.6,0.6,0.6,0.6c1.9,0,3.8,0.6,5.1,1.3c0,0,0-0.6,0.6-0.6c-0.6-0.6,0.6-0.6-0.6-1.9h0.6
				c0,0.6,0,0.6,0.6,0.6c-0.6,0.6-0.6,0.6-0.6,1.9c0.6,0.6,0-0.6,0.6-0.6c0,0,0.6-0.6,0.6,0c0,0-0.6,0-0.6,0.6c0.6,0,0.6,0,0.6,0.6
				c0.6,0.6,0.6-0.6,0.6-0.6v2.5c7,1.9,12.1,6.4,18.4,9.5c0-0.6,0.6-0.6,1.3-0.6v0.6h0.6c0.6-1.3,0.6-3.2,0.6-4.5
				c-1.3,0.6-1.3-1.3-2.5-0.6c0.6-0.6,0-0.6,0-0.6c-5.1-2.5-8.9-5.1-14-7.6c-0.6,0,0,0.6-0.6,0.6v-0.6c-1.9,0-3.8-1.9-5.7-1.3
				c0.6,0,0.6,0,0.6,0.6c-0.6,0.6-1.9,0.6-2.5,0.6c0-0.6,0.6-0.6,0.6-1.3c0.6-0.6-0.6,0.6,0.6,0.6c0-0.6,0.6,0,0.6-0.6
				c-3.2-0.6-6.4-1.9-9.5-1.9c0,0.6,0,0.6-0.6,0.6c0.6-0.6-0.6-0.6-1.9-0.6c0,0.6-0.6,0.6-1.3,0.6v-1.9c-1.9-0.6-3.8,1.3-4.5-0.6
				c-1.3,0.6-1.3,0-2.5,0.6c-1.3-0.6-4.5,0-7,0.6c0,0.6-1.3,0.6-0.6,1.3h-0.6c0-0.6,0.6-0.6,0.6-0.6c-3.8-0.6-5.1,0.6-8.3,0.6
				c-1.3-0.6-1.9-0.6-1.9,0c-1.9-0.6-5.1,0.6-6.4,1.9c-0.6,0.6,0-0.6-0.6-0.6c-1.9,0.6-3.8,0.6-5.1,1.9c0,0.6,0.6,0.6,0,0.6
				c-0.6-1.3-1.9,0-1.9,0c0,0.6,0.6,1.3,0,1.3s0.6-1.9-0.6-1.3l-1.9,1.3c-12.1,5.1-20.3,12.1-28,21c0,0.6,0.6,0.6,0.6,0.6
				c-0.6,0,0,1.3-0.6,0.6c0-0.6,0.6-0.6,0-0.6v1.3c-1.3,0-2.5,0-2.5,0.6v0.6c-0.6,0-0.6,0-1.3,0.6c0,0.6,0,1.3-0.6,1.9
				c0,0.6,0,0.6-0.6,1.3l-0.6,0.6c0,0.6,0,1.3-0.6,1.9c0.6,0.6,0-1.3,0.6-0.6c0,0.6-0.6,1.3-0.6,1.9l0,0h-1.3
				c-0.6,1.9-1.3,3.8-1.9,5.1c0.6,0,0.6,1.3,0,1.9c0,0,0-0.6-0.6-0.6c0,0,0,0.6,0.6,0.6c-0.6,0-0.6,2.5-1.9,1.9c0-1.3,0-1.3,0.6-2.5
				h-0.6c0,0.6,0.6,1.9-0.6,1.9c0,0.6,0.6,0.6,0.6,1.3h-1.3c0.6,0.6-0.6,0.6-0.6,1.3c0.6,0,0.6,0.6,1.3,0.6c0.6-0.6,0-1.3,0.6-1.3
				c-0.6,1.3-0.6,1.9,0,3.2c-0.6,0-1.3,0.6-1.3,0c-0.6-0.6,0.6-0.6,0.6-0.6c-1.3,0.6-0.6-0.6-1.9-0.6c0.6,1.9-0.6,1.9,0,3.8h-0.6
				c0,3.2-1.3,5.1-1.9,8.3c-0.6,3.2,0,3.8-0.6,7h3.8C508.5,659.3,511,654.8,512.9,648.5z M514.2,642.1 M645.2,710.1
				c-0.6,0.6,0.6,0,0.6,0.6c-0.6,0-0.6,0.6-1.3,0.6c-0.6,1.3-0.6,2.5-0.6,4.5l-0.6-0.6c0.6,0,0.6,0,0.6-0.6
				c-0.6,1.3-1.9,1.9-2.5,3.8c-0.6,0.6,0.6,0.6,0.6,1.3c0,0-0.6,0-0.6-0.6c-0.6,0.6-1.9,1.9-1.9,3.2c-0.6,0.6-0.6,0-0.6,0
				c0,0.6,0,1.3-1.3,1.3c-0.6,1.9-3.8,3.2-3.2,5.1l-1.9-1.3v0.6c-3.2,0.6-4.5,3.8-7.6,5.1c-0.6,0-1.3,0.6-1.9,0.6v0.6
				c-4.5,2.5-8.9,4.5-12.7,7c-0.6-0.6-2.5,0.6-3.2,1.3c0,0,0-0.6-0.6-0.6c-1.9,1.3-5.1,1.9-7.6,1.9c-0.6,0.6,0.6,0.6,0.6,1.3
				c-0.6,0-0.6,0.6-1.3,0c0.6,0,0.6,0,0.6-0.6c-0.6,0.6,0-0.6-0.6-0.6c-1.3,0.6-4.5,0-5.1,1.3c-0.6-0.6-3.2,0-3.8,0
				c0.6,0.6-0.6,0.6,0,1.9c0,0,0,0.6-0.6,0.6c0.6-0.6-0.6-0.6-0.6-0.6c-0.6-0.6,0.6-0.6,0.6-0.6c-1.3,0-0.6,1.9-2.5,1.3
				c0-0.6-0.6-0.6,0-0.6c0.6-0.6,0,1.3,0.6,0.6v-1.9c-0.6-0.6-1.3,0.6-1.9,0c0,0.6-1.9,0.6-1.9,0.6c0,0.6,0.6,1.3,0,1.3
				c-0.6-1.3-0.6,0.6-0.6,0.6c-0.6-0.6,0.6-0.6,0.6-1.9H581c0,0.6,1.3,0.6,1.3,0.6s0,0.6-0.6,0.6s0-0.6-0.6-0.6
				c0.6,0.6,0.6,1.3,0,1.9h1.9l-0.6,0.6c0,0.6,0,0.6,0.6,0.6c0-0.6,1.3-0.6,1.3-1.3c2.5,0,4.5-0.6,5.7,0c1.3,0,3.2-0.6,4.5-0.6v0.6
				h0.6v-1.3c0.6,0,0.6-0.6,1.3-0.6c0.6,0.6-0.6,0.6-0.6,0.6c1.3-0.6,3.2-0.6,3.8-1.3c0.6,0,0.6,0,0.6,0.6c0.6,0,0.6-0.6,1.9-0.6
				c0,0.6,0,0.6,0.6,0.6c0.6-0.6,1.3-0.6,2.5-0.6c0-0.6-0.6-1.3,0-1.3c0.6,1.3,1.9,0.6,2.5,0.6l-0.6-0.6v-1.3
				c0.6-0.6,0.6,0.6,1.9,0.6c0,0.6,0,1.3-0.6,1.3c0.6,0,1.3,0,1.9-0.6h0.6c1.3-0.6,3.2-1.3,4.5-1.9c0,0.6,0.6,0.6,0.6,0v-0.6
				c1.3-0.6,3.2-1.3,4.5-2.5h1.3v-1.3c0,0,0.6,0,0.6-0.6c0,0,0.6,0,0.6-0.6c0.6,0,1.3-0.6,1.9-0.6c0-0.6-0.6-0.6,0-1.3
				c0,0.6,0,0.6,0.6,0.6c3.2-1.3,5.1-3.8,7.6-5.1c0.6-0.6-0.6,0-0.6-0.6c0.6-0.6,0,0.6,0.6,0.6c0-0.6-0.6-1.3,0-1.3
				s-0.6,1.3,0.6,0.6c2.5-3.8,6.4-5.7,8.9-9.5c-0.6,0-0.6,0.6-0.6,0c0.6,0,0.6-0.6,0.6-0.6v0.6c1.3-0.6,1.9-1.9,2.5-3.8
				c0.6-0.6,0.6-0.6,1.3-0.6c0.6-0.6,0-1.3,0.6-1.9s1.3-0.6,1.9-1.3s0.6-1.9,0.6-2.5s0.6,0,0.6-0.6v-0.6l1.3-1.3
				c0.6-1.3,0.6-3.2,1.3-3.8c0.6,0,0.6,0,0.6-0.6s-0.6-1.3,0-1.9c0-0.6,0.6-0.6,0.6-0.6V700c0,0,0.6,0,0.6-0.6v-1.3l0.6-0.6
				c0-1.3,0-2.5,0.6-3.8l0.6-0.6c0.6-2.5,0.6-5.7,1.3-7.6l-3.8-0.6C652.8,696.2,650.3,705.1,645.2,710.1L645.2,710.1z M589.9,750.2
				c0,0-0.6,0-0.6-0.6h0.6C589.9,749.6,590.5,750.2,589.9,750.2z M578.4,748.9c0.6,0.6-0.6,0-0.6,0.6h1.3
				C579.1,749.6,579.1,748.9,578.4,748.9z"/>
			<path class="st4" d="M523.7,662.5c0.6,0,1.3-0.6,1.9-0.6v-1.9C524.4,659.9,524.4,661.8,523.7,662.5z M606.4,746.4 M529.5,646.6
				c-0.6,0.6,0,1.3,0,1.9h-1.3c-1.3,3.8-3.2,6.4-3.8,10.8h1.3c0,0,0-0.6,0.6-0.6c0-0.6-0.6-1.9,0-1.9h0.6c0.6-0.6,0,0.6,0.6,0.6
				c0-0.6,0.6-0.6,0.6-1.9c1.9-1.9,1.9-5.1,3.8-7c-0.6-0.6,0-0.6,0-1.9H529.5z M542.2,632.6C542.2,631.9,542.2,631.9,542.2,632.6
				C542.2,631.9,542.2,631.9,542.2,632.6C542.2,631.9,542.2,631.9,542.2,632.6z M544.7,628.1c-0.6,0.6,0.6,0,0.6,0.6
				C544.1,629.4,545.4,628.1,544.7,628.1c-0.6,0.6,0,1.3-0.6,1.3h-0.6c0,0.6-0.6,0.6-0.6,0.6v2.5c1.3-0.6,1.9-1.9,3.2-2.5
				c-0.6-1.3,0-1.9,0-3.2C545.4,626.9,546,628.1,544.7,628.1z M499.6,709.5c0,0,0,0.6,0.6,0.6L499.6,709.5z M501.5,706.3
				c-0.6-3.8-1.3-7-3.2-9.5v-1.3c0,0,0.6,0,0.6-0.6v-1.3c-0.6,0-0.6,1.3-0.6,0.6c0.6-4.5-1.9-8.9-2.5-13.4c-0.6-0.6,0,0.6-0.6,0.6
				c0-0.6,1.3-2.5,0-2.5v1.9c-0.6,0-0.6,0.6-0.6,0.6c0-0.6-0.6-0.6-0.6-0.6c-0.6,0.6-0.6,1.3-1.3,0.6c0.6,0.6,0.6,1.3,0.6,2.5
				c0.6,0.6,1.3,0,1.3,0.6s-1.3,0-0.6,0.6c1.3,2.5,1.3,6.4,3.2,7.6c-0.6,1.3,0.6,4.5,1.3,5.1c0,0.6-0.6,0.6-0.6,0.6l3.2,11.4
				C500.2,708.2,500.2,707,501.5,706.3z M584.2,701.2C584.2,701.9,584.2,701.9,584.2,701.2C584.8,701.9,584.2,701.9,584.2,701.2z"/>
			<path class="st4" d="M525.7,718.4c10.8-1.9,21-5.1,31.8-7.6c0.6-0.6,0-0.6,0.6-0.6c1.3,0.6,3.2-0.6,4.5-0.6
				c0.6-0.6,0-0.6,0.6-0.6c2.5,0.6,7.6-1.9,12.1-2.5v-0.6h1.3c0.6-0.6,0.6-1.3,1.3-2.5c0.6,0,0.6,1.3,0,1.3c2.5,0.6,3.2-0.6,5.1-0.6
				c0.6-0.6-1.3,0-0.6-0.6c-0.6-0.6,0,0.6-0.6,0.6c-0.6-0.6,0.6,0,0.6-0.6h-3.2c0-1.3,0.6-1.3,1.3-1.9c0.6,1.3,1.9,0.6,3.2,0.6v-0.6
				c0-0.6,0-0.6-0.6-0.6c0,0.6,0,0.6-0.6,0.6c-0.6,0.6,0.6,0,0.6,0.6c-0.6-0.6-1.3,0-1.3-0.6c0-0.6,0.6-0.6,0.6-0.6
				c-1.3,0.6-3.2,1.3-5.1,1.3c0.6,1.3-1.9,0.6-0.6,1.3c-0.6,0-1.3-0.6-0.6-0.6c-1.3,0-2.5,0.6-1.9,1.3c0-0.6,0-0.6,0.6-0.6
				c-0.6,0.6,0,1.3-0.6,1.3c-0.6-0.6-0.6-0.6-1.3-0.6c0-0.6,0.6-0.6,0.6-0.6c-1.3-0.6-1.3,0.6-1.9,0.6c-1.3-0.6-4.5,1.3-6.4,1.3
				c-0.6,0.6,0,0.6-0.6,0.6c-0.6,0.6-1.3-0.6-1.3-0.6c0,1.3-1.3,1.3-1.9,1.9c-0.6-0.6,0.6-0.6,0.6-1.3c-0.6,0.6-1.3,1.3-2.5,0.6
				c-0.6,0.6-1.3,0.6-2.5,0.6c-4.5,1.3-8.9,2.5-14,3.2c-0.6,0.6,0,0.6-0.6,1.3c0-0.6-0.6-0.6-0.6-0.6h-0.6c0-0.6-0.6-0.6-1.3-0.6
				c-14,4.5-17.2,3.8-31.8,7.6c0.6,0,0.6,0,0.6,0.6c-1.3,0.6-0.6-0.6-1.9-0.6c-0.6,0.6-0.6,1.3-1.3,2.5c-1.3-1.3,0-2.5-0.6-4.5
				c-0.6,0.6-1.3,1.3-1.3,0.6c0-0.6,0.6-0.6,1.3-0.6v-1.3c-0.6,0-0.6,0.6-0.6,0.6c0.6-2.5-1.3-5.1-1.3-7.6c-0.6-0.6-0.6,0-0.6-0.6
				s-0.6-0.6-0.6-0.6c0,1.9-1.3,1.9-1.3,3.2l1.9,7.6c0.6,0.6,1.3,0,1.3,0.6c-0.6,0.6,0,0.6-0.6,0.6c-0.6,0-0.6-0.6-0.6-0.6
				c0,1.3,0,2.5,1.3,3.2c-1.3,0.6,0,1.9,0,2.5c8.3-1.9,3.8-0.6,12.1-2.5l3.2-1.3C520.6,719.7,522.5,719,525.7,718.4
				c0-0.6-1.9-0.6-1.3-1.3C525,717.8,525.7,717.8,525.7,718.4z M577.8,702.5c0.6,0.6,1.3,0.6,1.3,0.6c-0.6,0.6-1.3,0.6-1.9,1.3
				C577.8,703.1,577.8,703.1,577.8,702.5z M574,705.1C574,705.7,574,705.7,574,705.1C574,705.7,573.3,705.1,574,705.1z M678.3,667.5
				c-2.5-2.5-1.3-7.6-3.8-10.8c1.3-1.9-1.3-3.8-0.6-6.4c-1.3-0.6,0,1.3-0.6,1.3c0.6-2.5-0.6-5.1-2.5-6.4c0.6-0.6,0,0.6,1.3,0.6
				c-0.6-1.3-0.6-4.5-1.9-5.1c1.3-2.5-1.3-5.1-1.3-7.6c-0.6-0.6-0.6,0-0.6-0.6c0.6-0.6,0-1.9,0-3.8h-1.9h-0.6v1.3h-0.6
				c0,0.6,0,1.3,0.6,1.3c0.6-0.6,0-1.9,0.6-1.9c0,0.6,0,1.3,1.3,1.3c-1.3,0-0.6,1.9-1.9,1.3c1.3,4.5,2.5,8.3,3.2,12.7
				c0.6,0.6,0.6,0,0.6,0.6c0,0.6-0.6,0.6-0.6,1.3s0,0.6,0.6,1.3c0,0,0.6,0,0-0.6h0.6c0,0.6-0.6,0.6-1.3,0.6
				c1.3,4.5,2.5,8.9,3.8,12.7c0.6,0,0-1.3,0.6-1.3c0,0.6,1.3,0,1.3,0.6c0,0.6,0,0.6-0.6,0.6c0,0,1.3,0.6,0.6,1.3
				c-0.6,0,0-1.3-0.6-0.6c-1.3,4.5,2.5,8.3,2.5,13.4c1.3,0.6,0-1.3,0.6-1.3c1.3,0.6,0.6,1.9,0,2.5c-3.8-1.3-7,2.5-11.4,1.9
				c0,0,0,1.3-1.3,1.3c-0.6-0.6,0.6,0,0.6-0.6c-0.6,0-1.3,0.6-1.3,0.6H663c0,0.6-1.3,0.6-1.3,0.6c-0.6,0.6,0.6,0,0.6,0.6
				c-1.9-0.6-5.1,0.6-7,1.3c0-0.6-1.3,0.6-2.5,0c-0.6,0,0,1.3-0.6,1.3c0,0,0-1.3-1.3-0.6v0.6c-3.2,0-5.7,2.5-7.6,1.3
				c-1.3,1.3-5.1,1.3-6.4,2.5c-6.4,0.6-10.2,2.5-15.3,3.2c-0.6,0,0,1.3-0.6,1.3s-0.6-0.6-0.6-1.3c-0.6,0.6-1.3,0-1.9,0.6
				c-1.3,0.6-1.3,2.5-2.5,1.9c0.6-0.6,1.3,0,0.6-0.6c-1.9,0-3.8,1.3-4.5,0.6c-1.9,1.3-3.8,1.9-6.4,1.9c-5.7,1.3-11.4,3.8-16.5,4.5
				c-0.6,0.6,0,0.6-0.6,0.6c0-0.6-0.6-0.6-1.3-0.6c0,0.6-0.6,1.3-0.6,0.6c0,0.6,0.6,1.3,0.6,1.9c-0.6,0-0.6,0.6-0.6,0.6
				s0-0.6-1.3-0.6c0.6,1.3-1.3,0-1.3,1.3c2.5,0.6,4.5-0.6,7.6-1.3c0.6,0,0-1.3,0.6-1.3c0.6,0,0,0.6,0.6,0.6
				c13.4-3.8,27.3-7,40.1-10.8c0.6-0.6,0-0.6,0.6-0.6c3.2,1.3,7-1.3,10.8-1.9c0.6-0.6-0.6-1.3-0.6-1.3c0.6,0,1.3,0,1.3,1.3
				c3.8,0,7-1.3,10.2-3.2c0,0,0-1.3,0.6-1.3c0,0.6,1.3,0,0.6,1.3c1.3,0,1.3-0.6,2.5-0.6h5.1c8.3-2.5,8.3-3.2,17.2-5.1
				C680.2,675.2,678.9,672.6,678.3,667.5L678.3,667.5z M666.2,634.5c0.6,0,0.6,0,0.6,1.3C666.2,635.8,666.2,635.1,666.2,634.5z
				 M666.2,629.4c0.6,0,1.3,0,1.3,0.6C666.2,630,666.2,630,666.2,629.4z M670.6,651.6c0-1.3-0.6-1.3-0.6-2.5c0,0.6,0,0.6,1.3,0.6
				C671.3,650.4,671.3,651.6,670.6,651.6z M676.3,666.3h0.6c0,0.6,0,0.6-0.6,1.3h-0.6C675.7,666.9,676.3,666.9,676.3,666.3z
				 M675.1,665h0.6v1.3C675.1,665.6,674.4,665.6,675.1,665z M676.3,668.2c0-0.6-0.6-0.6-0.6-0.6v-0.6
				C675.7,667.5,676.3,667.5,676.3,668.2c1.3-0.6,0-1.9,1.3-1.3v1.3C676.3,667.5,677,668.2,676.3,668.2z M677,671.4
				c0.6-0.6,0.6-1.3,0.6-1.3C677.6,670.7,677,670.7,677,671.4z M592.4,700.6c-0.6,0-1.3-0.6-0.6-1.3h0.6V700.6z M595,698.7v-0.6
				c0.6,0,0.6,0.6,0.6,0.6H595z M652.2,684.1c0-0.6-0.6-0.6-1.3-1.3C651.5,682.8,652.8,683.4,652.2,684.1z M657.9,683.4
				c-0.6,0.6-1.3,0-0.6-0.6h0.6V683.4z M642,635.8h0.6C642,635.1,642,635.1,642,635.8z M513.6,669.5c0,0-0.6-0.6,0-0.6h-0.6l1.3-0.6
				c-2.5,1.3-7,1.3-8.9,2.5c-0.6,0-0.6-0.6-0.6-0.6c-0.6,0.6,0,0.6-0.6,0.6c-0.6-1.3-2.5,0-2.5,0.6s0.6-0.6,0.6,0.6v0.6h-1.3
				c0.6-1.3-0.6-0.6-0.6-1.3c-1.3,0.6-3.2,0-3.2,1.3c0-0.6,0-1.3-0.6-0.6c0,0.6-0.6,0.6-1.3,1.3c-1.3-1.3-1.9,0.6-3.2,0v0.6
				c0.6,0,0.6,0.6,1.3,0.6v0.6c1.3,0,0-0.6,0.6-0.6v1.3h1.3c-0.6,0-0.6-0.6-0.6-1.3c0.6,0,0.6,0,1.3,0.6c0,0,0.6-0.6,1.3-0.6
				c0,0.6,0.6,1.3,0.6,0.6c0.6,0,0-1.3,0.6-1.3s0.6,0.6,0.6,1.3c1.3-0.6,2.5-0.6,3.8-0.6c0.6,0,0.6-0.6,0.6-1.3c0.6,0,0,0.6,0.6,0.6
				c0.6-0.6,0.6-1.3,1.3-1.9h0.6c-0.6,0-0.6,0-0.6,1.3c0.6-0.6,2.5-0.6,3.2-0.6c0.6-0.6-0.6-0.6,0-0.6c1.3,1.3,1.9-0.6,3.8-1.3h0.6
				v-0.6h0.6C512.9,670.1,512.9,670.1,513.6,669.5C512.9,670.1,512.9,669.5,513.6,669.5z M497.7,673.9c0.6,0,0.6,0.6,0.6,1.3
				C498.3,674.5,498.3,673.9,497.7,673.9z M500.2,674.5c-0.6,0-0.6-0.6-0.6-0.6h0.6V674.5z M502.1,672c0.6,0,1.3,0,1.9,0.6
				C503.4,672.6,502.8,672.6,502.1,672z M505.9,673.3c-0.6,0-1.3,0-1.3-0.6C505.3,672.6,506.6,672.6,505.9,673.3z M511.7,670.1
				 M512.3,669.5H511c0-0.6,0-0.6,1.3-0.6V669.5z M581,651h0.6H581z"/>
			<path class="st4" d="M664.3,631.3C664.9,631.3,664.9,631.3,664.3,631.3C664.9,631.3,664.9,631.3,664.3,631.3z M664.9,629.4
				c-0.6,0,0-0.6-0.6-0.6c-1.3-0.6-1.3,0.6-1.9,0.6v0.6C664.3,630,664.9,629.4,664.9,629.4z M665.5,628.8c-0.6,0,0,0.6,0,0.6
				C664.9,629.4,665.5,629.4,665.5,628.8z M514.8,670.1h-1.9l0.6,1.3c0,0,0-0.6,0.6-0.6C514.2,670.7,514.8,670.7,514.8,670.1z
				 M578.4,652.3c0.6,0,1.3,0,1.3-0.6L578.4,652.3C579.1,652.3,578.4,652.3,578.4,652.3z"/>
			<path class="st4" d="M546,660.6c-3.2,0.6-7,2.5-10.8,2.5c-2.5,0.6-5.7,1.3-8.3,2.5c-0.6,0.6,0,0.6-0.6,0.6
				c-3.8-0.6-7,1.9-10.8,2.5c-0.6,0.6,0.6,0,0.6,1.3c0,0-1.3,0-1.3-0.6h-1.9c1.3,0,1.3,0.6,1.9,0.6c0,0,0-0.6,0.6-0.6v1.3h1.3
				c-0.6-0.6-1.3-0.6-1.3-0.6c1.3,0,0.6,1.3,1.3,0.6s-0.6,0-0.6-1.3c1.9,1.3,4.5,0.6,5.7-0.6c0.6,1.3,1.9-0.6,3.2,0
				c0.6-0.6-0.6,0-0.6-1.3h1.3c0,0.6,0,0.6,0.6,0.6c1.3,0,2.5-1.3,4.5-1.3c14.6-4.5,29.2-7.6,43.9-11.4H574v-1.3
				c-0.6,0-0.6,0-0.6-0.6c-0.6,0-1.9,0.6-3.2,0.6C562.5,656.1,554.3,658.6,546,660.6z M526.9,666.9c0-0.6,0.6-0.6,0.6-0.6
				C528.2,666.3,527.6,667.5,526.9,666.9z M573.3,652.9h1.3v-0.6C573.3,651.6,573.3,652.3,573.3,652.9z M579.7,651.6
				C580.3,651.6,580.3,651.6,579.7,651.6C580.3,651.6,579.7,651.6,579.7,651.6z M664.9,630.7h0.6V630L664.9,630.7
				C664.9,630,664.9,630,664.9,630.7z M577.2,652.3c-0.6,0.6,0,0.6-0.6,0.6h-1.9c0,0.6,0.6,1.3,0.6,1.3s-0.6-0.6,0-1.3
				c0.6,1.3,1.3,0.6,1.9,1.3c0.6-0.6,0.6-0.6,1.3-0.6v-0.6c-0.6-0.6-1.3,1.3-1.3,0.6s1.3-0.6,1.3-1.3c0.6,0,0.6,0,0.6,0.6
				c0,0,0-0.6-0.6-0.6h-0.6C578.4,651.6,577.2,652.3,577.2,652.3z M636.9,636.4 M580.3,653.6h-0.6c0,0.6,0.6,1.3,0.6,1.3V653.6z
				 M579.7,652.3c0.6,0,0.6-0.6,1.3-1.3C580.3,652.3,579.7,652.3,579.7,652.3 M581,651C581,651,581,651.6,581,651
				C581,651.6,581,651.6,581,651 M669.3,649.1C669.3,649.1,670,649.1,669.3,649.1C669.3,648.5,669.3,649.1,669.3,649.1 M663.6,631.3
				c0-0.6,0-0.6-0.6-0.6h-0.6c-0.6,0.6,1.3,0.6,0.6,1.3c-0.6,0-1.3,0-0.6-1.3c-3.8,0.6-7,2.5-11.4,2.5l-3.2,1.3
				c-1.3,0.6-3.2,0.6-4.5,1.3h0.6v0.6c-1.3-0.6-0.6,0.6-1.9,0.6c0-0.6,0.6-0.6,0.6-1.3c-1.3,0-2.5,0.6-3.8,0.6v0.6
				c0,0-0.6,0-0.6-0.6c-0.6,0.6,0.6,0,0.6,1.3c-0.6,0,0-0.6-1.3-0.6c-18.4,4.5-36.2,9.5-54.7,14.6v0.6h-0.6c1.3,0.6-1.3,1.3,0,2.5
				c0.6,0,0-1.3,0.6-1.3c1.3,0.6,1.9-0.6,2.5,0c0.6-0.6,0.6,0,0-1.3h1.3v1.3c0,0,0.6,0,1.3-0.6c0-0.6-1.3,0-1.3-0.6h1.3
				c0,0-0.6,0-0.6,1.3c1.3-0.6,1.9-0.6,3.2,0c0.6,0,0.6-0.6,0.6-1.3c1.3,1.3,3.2-0.6,5.1-0.6c14.6-4.5,29.9-8.3,44.5-12.1
				c0.6-1.3,0-1.3-0.6-1.9c0.6,0,0.6-0.6,0.6-0.6v1.3c6.4-1.3,12.7-3.2,19.1-5.1c1.3-0.6,2.5-1.3,4.5-1.3c-0.6,0-1.9,0-3.2,0.6
				C662.4,631.9,663,631.3,663.6,631.3 M656,633.8v-1.3h1.3C657.3,633.2,656.6,633.2,656,633.8 M658.5,631.9
				C659.2,631.9,659.2,631.9,658.5,631.9C659.2,631.9,658.5,631.9,658.5,631.9 M575.2,654.8C574.6,654.2,574.6,654.8,575.2,654.8
				C574.6,654.8,575.2,655.5,575.2,654.8 M513.6,668.8C512.9,668.8,512.9,668.8,513.6,668.8 M491.3,677.1v-2.5c0,0,0-0.6-1.3-0.6
				C490.7,675.2,490.7,675.8,491.3,677.1 M491.3,674.5C492,674.5,492,674.5,491.3,674.5C492,674.5,492,674.5,491.3,674.5
				C492,674.5,492,674.5,491.3,674.5 M513.6,671.4C513.6,672,513.6,672,513.6,671.4C513.6,672,513.6,672,513.6,671.4"/>
		</g>
	</g>
</g>
</svg>
