<?xml version="1.0" encoding="utf-8"?>
<!-- Generator: Adobe Illustrator 22.1.0, SVG Export Plug-In . SVG Version: 6.00 Build 0)  -->
<svg version="1.1" id="图层_1" xmlns="http://www.w3.org/2000/svg" xmlns:xlink="http://www.w3.org/1999/xlink" x="0px" y="0px"
	 viewBox="0 0 1000 1000" style="enable-background:new 0 0 1000 1000;" xml:space="preserve">
<style type="text/css">
	.st0{fill:url(#SVGID_1_);}
	.st1{fill:#555E60;}
	.st2{fill:#EDF5F7;}
	.st3{fill:#90A6B4;}
	.st4{fill:#DC544F;}
</style>
<g>
	<g>
		<linearGradient id="SVGID_1_" gradientUnits="userSpaceOnUse" x1="499.7646" y1="49.5236" x2="499.7646" y2="952.4712">
			<stop  offset="0" style="stop-color:#F9F9F9"/>
			<stop  offset="1" style="stop-color:#EDEDED"/>
		</linearGradient>
		<path class="st0" d="M799.9,950H199.6c-82.9,0-150.1-67.2-150.1-150.1V199.6c0-82.9,67.2-150.1,150.1-150.1h600.3
			c82.9,0,150.1,67.2,150.1,150.1v600.3C950,882.8,882.8,950,799.9,950z"/>
	</g>
	<g>
		<path class="st1" d="M637.4,231.1H285.3c-11.8,0-21.5,9.7-21.5,21.5v483.2c0,11.8,9.7,21.5,21.5,21.5h352.1
			c11.8,0,21.5-9.7,21.5-21.5V252.5C658.9,240.7,649.2,231.1,637.4,231.1z"/>
		
			<rect x="226.7" y="327" transform="matrix(-1.836970e-16 1 -1 -1.836970e-16 955.4958 32.781)" class="st2" width="469.3" height="334.2"/>
		<rect x="324.6" y="295.1" class="st3" width="273.5" height="71.1"/>
		<rect x="324.6" y="403.6" class="st3" width="127.4" height="119.2"/>
		<rect x="466.8" y="403.6" class="st3" width="127.4" height="119.2"/>
		<rect x="324.6" y="536.7" class="st3" width="127.4" height="119.2"/>
		<rect x="466.8" y="536.7" class="st3" width="127.4" height="119.2"/>
		<circle class="st2" cx="611.7" cy="634.9" r="68.2"/>
		<g>
			<path class="st1" d="M753.7,619.3c-1.3-6.2-7.1-12.4-13.3-13.8l-4.4-0.9c-10.7-3.1-20.5-10.7-26.7-20.9
				c-6.2-10.7-7.6-22.7-4.9-33.8l1.3-4.4c1.8-6.2-0.4-14.2-5.3-18.7c0,0-4.4-3.6-16.5-10.7c-12.4-7.1-17.8-8.9-17.8-8.9
				c-5.8-2.2-14.2,0-18.7,4.4l-3.1,3.1c-8.4,8-19.6,12.4-31.6,12.4c-12,0-23.6-4.4-32-12.4l-3.1-3.6c-4.4-4.4-12.9-6.7-18.7-4.4
				c0,0-5.3,1.8-17.8,8.9c-12,7.6-16.5,11.1-16.5,11.1c-4.9,4-7.1,12.4-5.3,18.2l1.3,4.4c2.7,11.1,1.3,23.1-4.9,33.8
				c-6.2,10.7-16,17.8-26.7,21.3l-4.4,0.9c-6.2,1.3-12,7.6-13.3,13.8c0,0-0.9,5.8-0.9,19.6c0,14.2,0.9,19.6,0.9,19.6
				c1.3,6.2,7.1,12.4,13.3,13.8l4.4,0.9c11.1,3.1,20.9,10.7,26.7,21.3c6.2,10.7,7.6,22.7,4.9,33.8l-1.3,4.4
				c-1.8,6.2,0.4,14.2,5.3,18.7c0,0,4.4,3.6,16.5,10.7c12.4,7.1,17.8,8.9,17.8,8.9c5.8,2.2,14.2,0,18.7-4.4l3.1-3.1
				c8.4-8,19.6-12.4,32-12.4c12.4,0,23.6,4.9,32,12.9l3.1,3.1c4.4,4.4,12.9,6.7,18.7,4.4c0,0,5.3-1.8,17.8-8.9
				c12.4-7.1,16.5-10.7,16.5-10.7c4.9-4,7.1-12.4,5.3-18.7l-1.3-4.4c-2.7-11.1-1.3-23.1,4.9-33.8c6.2-10.7,16-17.8,26.7-21.3
				l4.4-0.9c6.2-1.3,12-7.6,13.3-13.8c0,0,0.9-5.8,0.9-19.6C754.6,625.1,753.7,619.3,753.7,619.3L753.7,619.3z M612.3,695.8
				c-31.1,0-56.5-25.3-56.5-56.5s25.3-56.5,56.9-56.5c31.1,0,56.9,25.3,56.9,56.9C669.2,670.4,643.9,695.8,612.3,695.8L612.3,695.8z
				"/>
			<g>
				<path class="st3" d="M762.5,628.1c-1.1-5.2-5.3-10.3-10.2-12.6c0.6,1.3,1.2,2.6,1.4,3.9c0,0,0.9,5.8,1.3,20
					c0,13.8-0.9,19.6-0.9,19.6c-1.3,6.2-7.1,12.4-13.3,13.8l-4.4,0.9c-10.7,3.6-20.5,10.7-26.7,21.3c-6.2,10.7-7.6,22.7-4.9,33.8
					l1.3,4.4c1.8,6.2-0.4,14.7-5.3,18.7c0,0-4,3.6-16.5,10.7c-12.4,7.1-17.8,8.9-17.8,8.9c-5.8,2.2-14.2,0-18.7-4.4l-3.1-3.1
					c-8.4-8-19.6-12.9-32-12.9c-12.4,0-23.6,4.4-32,12.4l-3.1,3.1c-4.4,4.4-12.9,6.7-18.7,4.4c0,0-5.3-1.8-17.8-8.9
					c-5.2-3.1-8.9-5.5-11.5-7.2c1,2,2.3,3.9,3.8,5.3c0,0,4.4,3.6,16.5,10.7c12.4,7.1,17.8,8.9,17.8,8.9c5.8,2.2,14.2,0,18.7-4.4
					l3.1-3.1c8.4-8,19.6-12.4,32-12.4s23.6,4.9,32,12.9l3.1,3.1c4.4,4.4,12.9,6.7,18.7,4.4c0,0,5.3-1.8,17.8-8.9
					c12.5-7.1,16.5-10.7,16.5-10.7c4.9-4,7.1-12.4,5.3-18.7l-1.3-4.4c-2.7-11.1-1.3-23.1,4.9-33.8c6.2-10.7,16-17.8,26.7-21.3
					l4.4-0.9c6.2-1.3,12-7.6,13.3-13.8c0,0,0.9-5.8,0.9-19.6C763.4,633.8,762.5,628.1,762.5,628.1z"/>
				<path class="st3" d="M577,683.3c-7.8-9.7-12.4-21.9-12.4-35.3c0-31.1,25.3-56.5,56.9-56.5c13.4,0,25.8,4.7,35.6,12.6
					c-10.5-13-26.5-21.3-44.3-21.3c-31.6,0-56.9,25.3-56.9,56.5C555.8,657.1,564.1,673,577,683.3z"/>
				<path class="st3" d="M705.7,545.5l-1.3,4.4c-2.7,11.1-1.3,23.1,4.9,33.8c3.2,5.2,7.3,9.7,11.9,13.3c-1.1-1.5-2.2-3-3.2-4.5
					c-6.2-10.7-7.6-22.7-4.9-33.8l1.3-4.4c1.8-6.2-0.4-14.2-5.3-18.7c0,0-1.5-1.2-4.9-3.5C706.2,536.3,706.9,541.3,705.7,545.5z"/>
				<path class="st3" d="M489.1,673.1l-4.4-0.9c-1.1-0.2-2.1-0.6-3.1-1.1c2.4,4.7,7,8.9,11.9,9.9l4.4,0.9c5.2,1.4,10,3.9,14.3,7.1
					C506.4,681.2,498.2,675.6,489.1,673.1z"/>
			</g>
			<circle class="st1" cx="612.5" cy="641.4" r="20.5"/>
		</g>
		<path class="st1" d="M398.9,598L416,581c3.1-3.1,3.1-8.2,0-11.4c-3.2-3.2-8.2-3.2-11.3,0l-17.1,17.1l-17.1-17.1
			c-3.1-3.1-8.2-3.1-11.3,0c-3.2,3.2-3.2,8.2,0,11.3l17.1,17.1l-17.1,17.1c-3.1,3.1-3.1,8.2,0,11.3c3.2,3.2,8.2,3.2,11.3,0
			l17.1-17.1l17.1,17.1c3.1,3.1,8.2,3.1,11.3,0c3.2-3.2,3.2-8.2,0-11.3L398.9,598L398.9,598z"/>
		<path class="st1" d="M419.2,453H395v-24.2c0-4.3-3.6-8-8-8c-4.5,0-8,3.6-8,8V453h-24.2c-4.3,0-8,3.6-8,8c0,4.5,3.6,8,8,8H379v24.2
			c0,4.3,3.6,8,8,8c4.5,0,8-3.6,8-8v-24.2h24.2c4.3,0,8-3.6,8-8C427.2,456.6,423.6,453,419.2,453L419.2,453z"/>
		<path class="st1" d="M563.6,453h-64.4c-4.3,0-8,3.6-8,8c0,4.5,3.6,8,8,8h64.4c4.3,0,8-3.6,8-8C571.6,456.6,568.1,453,563.6,453
			L563.6,453z"/>
		<g>
			<path class="st1" d="M535.4,609.4c-2.5-1.4-5.6-1.4-8,0c-2.5,1.4-4,4.1-4,7v0c0,2.9,1.5,5.5,4,7c2.5,1.4,5.6,1.4,8,0
				c2.5-1.4,4-4.1,4-7C539.5,613.5,537.9,610.8,535.4,609.4z"/>
			<path class="st1" d="M527.4,575.1c2.5,1.4,5.6,1.4,8,0c2.5-1.4,4-4.1,4-7c0-2.9-1.5-5.5-4-7c-2.5-1.4-5.6-1.4-8,0
				c-2.5,1.4-4,4.1-4,7C523.4,571,524.9,573.6,527.4,575.1z"/>
			<path class="st1" d="M563.6,584.2L563.6,584.2l-64.4,0c-4.3,0-8,3.6-8,8c0,4.5,3.6,8,8,8h64.4c4.3,0,8-3.6,8-8
				C571.6,587.8,568.1,584.2,563.6,584.2z"/>
		</g>
		<path class="st4" d="M442.4,311.1l-3.2-3l3.8-3.7h12.2l-7.4,6.7H442.4z M446.8,335.7l3.6-3.1l3.1,3.1l-2,21.8l-3.6,3.4l-3.1-3.4
			L446.8,335.7z M448.8,312.3l7.3-6.6l-2.1,23.3l-3.7,3.6l-3-3.6L448.8,312.3z"/>
		<path class="st4" d="M482.1,331.7v-19.4l3.4-3.4l3.4,3.4v15.5L482.1,331.7z M482.1,352.9v-19.4l6.8,3.4v16l-3.4,3.4L482.1,352.9z
			 M483.6,332.6l6.3-3.7h16.4l6.4,3.7l-6.4,3.1H490L483.6,332.6z M486.5,307.8l3.5-3.5h16.4l3.5,3.5l-3.5,3.3H490L486.5,307.8z
			 M486.5,357.3l3.5-3.3h16.4l3.5,3.3l-3.5,3.5H490L486.5,357.3z M507.4,327.8v-15.5l3.4-3.4l3.4,3.4v19.4
			C514.2,331.7,507.4,327.8,507.4,327.8z M507.4,352.9v-16.1l6.8-3.4v19.4l-3.4,3.4L507.4,352.9L507.4,352.9z"/>
		<path class="st4" d="M552.6,354.1l3.5,3.9l-1.8,1.7c-0.9,0.8-2,1.2-4,1.2h-16.5l-3.1-3.3l4.3-3.5H552.6z M554.8,329.3l3.3,3.3
			l-3.8,3.5h-17.5l-3.4-3.5l3.9-3.3L554.8,329.3L554.8,329.3z M538.8,311.1l-3.2-3.3l3.8-3.5h16.7c0.8,0,1.3,0.1,1.4,0.1
			c0.6,0.1,1.5,0.7,2.3,1.5l1.1,1.4l-4.5,3.8H538.8z M555.2,337.1l3.8-3.6l1.5,1.5c0.8,0.9,1.2,1.6,1.2,2.5c0,0.4,0.1,0.8,0,1.3
			l-1.2,13.2c-0.1,1.5-0.5,2.2-1.7,3.3l-2,1.7l-3.2-3.6L555.2,337.1z M557.4,312.1l4.4-3.7l1.1,1.2c0.7,0.8,1.1,1.5,1.1,2.4
			c0,0.3,0,0.9-0.1,1.9l-1.1,12.3c-0.1,1.6-0.4,2.2-1.3,3.1l-2.5,2.4l-3.2-3.2L557.4,312.1z"/>
	</g>
</g>
</svg>
