<?xml version="1.0" encoding="utf-8"?>
<!-- Generator: Adobe Illustrator 22.1.0, SVG Export Plug-In . SVG Version: 6.00 Build 0)  -->
<svg version="1.1" id="图层_1" xmlns="http://www.w3.org/2000/svg" xmlns:xlink="http://www.w3.org/1999/xlink" x="0px" y="0px"
	 viewBox="0 0 1000 1000" style="enable-background:new 0 0 1000 1000;" xml:space="preserve">
<style type="text/css">
	.st0{fill:url(#SVGID_1_);}
	.st1{fill:#555E60;}
	.st2{fill:#EDF5F7;}
	.st3{fill:#90A6B4;}
	.st4{fill:#DC544F;}
</style>
<g>
	<g>
		<linearGradient id="SVGID_1_" gradientUnits="userSpaceOnUse" x1="500.0744" y1="50.1267" x2="500.0744" y2="952.453">
			<stop  offset="0" style="stop-color:#F9F9F9"/>
			<stop  offset="1" style="stop-color:#EDEDED"/>
		</linearGradient>
		<path class="st0" d="M800,950H200.1c-82.8,0-150-67.1-150-150V200.1c0-82.8,67.1-150,150-150H800c82.8,0,150,67.1,150,150V800
			C950,882.8,882.9,950,800,950z"/>
	</g>
	<g>
		<rect x="219.3" y="299.3" class="st1" width="523" height="397.3"/>
		
			<rect x="287.3" y="241.6" transform="matrix(-1.836970e-16 1 -1 -1.836970e-16 978.7828 17.1217)" class="st2" width="387.1" height="512.7"/>
		<g>
			<rect x="344" y="334.9" class="st3" width="39.1" height="9.8"/>
			<rect x="344" y="349.6" class="st3" width="39.1" height="9.8"/>
			<rect x="344" y="364.2" class="st3" width="39.1" height="9.8"/>
			<rect x="422.2" y="334.9" class="st3" width="39.1" height="9.8"/>
			<rect x="422.2" y="349.6" class="st3" width="39.1" height="9.8"/>
			<rect x="422.2" y="364.2" class="st3" width="39.1" height="9.8"/>
			<rect x="500.4" y="334.9" class="st3" width="39.1" height="9.8"/>
			<rect x="500.4" y="349.6" class="st3" width="39.1" height="9.8"/>
			<rect x="500.4" y="364.2" class="st3" width="39.1" height="9.8"/>
			<rect x="578.6" y="334.9" class="st3" width="39.1" height="9.8"/>
			<rect x="578.6" y="349.6" class="st3" width="39.1" height="9.8"/>
			<rect x="578.6" y="364.2" class="st3" width="39.1" height="9.8"/>
		</g>
		<rect x="251.4" y="401.1" class="st3" width="462.8" height="5.7"/>
		<rect x="251.4" y="442.8" class="st3" width="462.8" height="5.7"/>
		<rect x="251.4" y="484.5" class="st3" width="462.8" height="5.7"/>
		<rect x="251.4" y="526.2" class="st3" width="462.8" height="5.7"/>
		<rect x="251.4" y="567.8" class="st3" width="462.8" height="5.7"/>
		<rect x="251.4" y="609.5" class="st3" width="462.8" height="5.7"/>
		<rect x="251.4" y="652.6" class="st3" width="462.8" height="5.7"/>
		
			<rect x="131.4" y="526.9" transform="matrix(-1.836970e-16 1 -1 -1.836970e-16 784.0811 275.4425)" class="st3" width="245.8" height="5.7"/>
		
			<rect x="257.9" y="526.9" transform="matrix(-1.836970e-16 1 -1 -1.836970e-16 910.5493 148.9743)" class="st3" width="245.8" height="5.7"/>
		
			<rect x="383.6" y="528.3" transform="matrix(-1.836970e-16 1 -1 -1.836970e-16 1036.2356 23.2878)" class="st3" width="245.8" height="3"/>
		
			<rect x="398.4" y="528.3" transform="matrix(-1.836970e-16 1 -1 -1.836970e-16 1050.9954 8.5281)" class="st3" width="245.8" height="3"/>
		
			<rect x="413.1" y="528.3" transform="matrix(-1.836970e-16 1 -1 -1.836970e-16 1065.755 -6.2317)" class="st3" width="245.8" height="3"/>
		
			<rect x="427.9" y="528.3" transform="matrix(-1.836970e-16 1 -1 -1.836970e-16 1080.5148 -20.9914)" class="st3" width="245.8" height="3"/>
		
			<rect x="442.6" y="528.3" transform="matrix(-1.836970e-16 1 -1 -1.836970e-16 1095.2745 -35.7511)" class="st3" width="245.8" height="3"/>
		
			<rect x="457.4" y="528.3" transform="matrix(-1.836970e-16 1 -1 -1.836970e-16 1110.0342 -50.5108)" class="st4" width="245.8" height="3"/>
		
			<rect x="472.2" y="528.3" transform="matrix(-1.836970e-16 1 -1 -1.836970e-16 1124.7939 -65.2705)" class="st3" width="245.8" height="3"/>
		
			<rect x="486.9" y="528.3" transform="matrix(-1.836970e-16 1 -1 -1.836970e-16 1139.5536 -80.0302)" class="st3" width="245.8" height="3"/>
		
			<rect x="501.7" y="528.3" transform="matrix(-1.836970e-16 1 -1 -1.836970e-16 1154.3134 -94.7899)" class="st3" width="245.8" height="3"/>
		
			<rect x="516.4" y="528.3" transform="matrix(-1.836970e-16 1 -1 -1.836970e-16 1169.073 -109.5497)" class="st4" width="245.8" height="3"/>
		
			<rect x="531.2" y="528.3" transform="matrix(-1.836970e-16 1 -1 -1.836970e-16 1183.8328 -124.3094)" class="st3" width="245.8" height="3"/>
		
			<rect x="546" y="528.3" transform="matrix(-1.836970e-16 1 -1 -1.836970e-16 1198.5925 -139.0691)" class="st4" width="245.8" height="3"/>
		
			<rect x="560.7" y="528.3" transform="matrix(-1.836970e-16 1 -1 -1.836970e-16 1213.3522 -153.8288)" class="st3" width="245.8" height="3"/>
		
			<rect x="575.5" y="528.3" transform="matrix(-1.836970e-16 1 -1 -1.836970e-16 1228.1119 -168.5885)" class="st3" width="245.8" height="3"/>
		
			<rect x="588.5" y="526.9" transform="matrix(-1.836970e-16 1 -1 -1.836970e-16 1241.0913 -181.5677)" class="st3" width="245.8" height="5.7"/>
		<g>
			<circle class="st2" cx="661.4" cy="572.6" r="150.3"/>
			<path class="st1" d="M750.4,526.6l-9.5,9.6c-10.2,10.2-26.6,10.2-36.8,0c0,0,0,0,0,0c-10.2-10.2-10.2-26.8,0-37l9.5-9.6
				c5.3-5.3,1.7-11.5-7.7-10c-10,1.6-19.2,6.3-26.4,13.4c-11.4,11.5-16.3,28-12.9,43.8l-80,80.3c-10.2,10.2-10.2,26.8,0,37
				c10.1,10.2,26.6,10.2,36.8,0.1c0,0,0,0,0.1-0.1l80-80.3c25.8,5.5,51.1-11,56.5-36.7c0.2-0.9,0.4-1.8,0.5-2.7
				C761.9,524.9,755.7,521.3,750.4,526.6z"/>
			<path class="st4" d="M611.1,641.8c-3.4,3.4-8.9,3.4-12.3,0c0,0,0,0,0,0c-3.4-3.4-3.4-8.9,0-12.3c3.4-3.4,8.9-3.4,12.3,0
				S614.5,638.4,611.1,641.8z"/>
			<polygon class="st1" points="602.4,528.2 632.5,558.5 644.8,546.1 614.7,515.9 607.9,502.9 586.4,487.5 574.2,499.9 589.5,521.4 
				602.4,528.2 			"/>
			<path class="st1" d="M703.2,592.4c-1.7-1.7-4.4-1.7-6.1,0c0,0,0,0,0,0l-18.4,18.5c-1.7,1.7-1.7,4.5,0,6.2l43.5,43.7
				c6.8,6.8,17.8,6.8,24.5,0c0,0,0,0,0,0c6.8-6.8,6.8-17.8,0-24.7L703.2,592.4z"/>
		</g>
	</g>
</g>
</svg>
