<?xml version="1.0" encoding="utf-8"?>
<!-- Generator: Adobe Illustrator 22.1.0, SVG Export Plug-In . SVG Version: 6.00 Build 0)  -->
<svg version="1.1" id="图层_1" xmlns="http://www.w3.org/2000/svg" xmlns:xlink="http://www.w3.org/1999/xlink" x="0px" y="0px"
	 viewBox="0 0 1000 1000" style="enable-background:new 0 0 1000 1000;" xml:space="preserve">
<style type="text/css">
	.st0{fill:url(#SVGID_1_);}
	.st1{fill:#555E60;}
	.st2{fill:#EDF5F7;}
	.st3{fill:#90A6B4;}
	.st4{fill:#DC544F;}
</style>
<g>
	<g>
		<linearGradient id="SVGID_1_" gradientUnits="userSpaceOnUse" x1="499.7732" y1="50.1267" x2="499.7732" y2="953.0573">
			<stop  offset="0" style="stop-color:#F9F9F9"/>
			<stop  offset="1" style="stop-color:#EDEDED"/>
		</linearGradient>
		<path class="st0" d="M799.9,950.6H199.6c-82.9,0-150.1-67.2-150.1-150.1V200.2c0-82.9,67.2-150.1,150.1-150.1h600.3
			c82.9,0,150.1,67.2,150.1,150.1v600.3C950,883.4,882.8,950.6,799.9,950.6z"/>
	</g>
	<g>
		<path class="st1" d="M575.3,711.3V289.4c0-33.4,27.1-60.7,60.4-61c-0.2,0-0.4,0-0.6,0H293.9c-33.5,0-61,27.4-61,61v421.9
			c0,33.5,27.4,61,61,61h341.3c0.2,0,0.4,0,0.6,0C602.4,771.9,575.3,744.6,575.3,711.3z"/>
		<path class="st2" d="M293.9,765.5c-29.9,0-54.2-24.3-54.2-54.2V289.4c0-29.9,24.3-54.2,54.2-54.2h301.9
			c-16.5,12.4-27.3,32.1-27.3,54.2v421.9c0,22.1,10.7,41.8,27.3,54.2H293.9z"/>
		<path class="st3" d="M640.2,228.4h-3.9c-33.5,0-61,27.4-61,61v44.8h125.9v-44.8C701.2,255.9,673.7,228.4,640.2,228.4z"/>
		<path class="st1" d="M751.9,399.6H519.5c-8.1,0-14.7,6.6-14.7,14.7v343.2c0,8.1,6.6,14.7,14.7,14.7h232.4
			c8.1,0,14.7-6.6,14.7-14.7V414.4C766.7,406.3,760,399.6,751.9,399.6z"/>
		
			<rect x="469.6" y="475.2" transform="matrix(-1.836970e-16 1 -1 -1.836970e-16 1221.6926 -49.7755)" class="st2" width="332.3" height="221.6"/>
		<rect x="545.1" y="445" class="st3" width="181.3" height="50.4"/>
		<rect x="545.1" y="525.5" class="st3" width="45.3" height="45.3"/>
		<rect x="613.1" y="525.5" class="st3" width="45.3" height="45.3"/>
		<rect x="681.1" y="525.5" class="st3" width="45.3" height="45.3"/>
		<rect x="545.1" y="591" class="st3" width="45.3" height="45.3"/>
		<rect x="613.1" y="591" class="st3" width="45.3" height="45.3"/>
		<rect x="681.1" y="591" class="st3" width="45.3" height="45.3"/>
		<rect x="545.1" y="656.5" class="st3" width="45.3" height="45.3"/>
		<rect x="615.6" y="656.5" class="st3" width="110.8" height="45.3"/>
		<g>
			<path class="st3" d="M326,434.9h-50.4c-4.2,0-7.6-3.4-7.6-7.6l0,0c0-4.2,3.4-7.6,7.6-7.6H326c4.2,0,7.6,3.4,7.6,7.6l0,0
				C333.6,431.5,330.2,434.9,326,434.9z"/>
			<path class="st3" d="M482.1,434.9H381.4c-4.2,0-7.6-3.4-7.6-7.6l0,0c0-4.2,3.4-7.6,7.6-7.6h100.7c4.2,0,7.6,3.4,7.6,7.6l0,0
				C489.7,431.5,486.3,434.9,482.1,434.9z"/>
			<path class="st3" d="M310.9,485.2h-35.2c-4.2,0-7.6-3.4-7.6-7.6v0c0-4.2,3.4-7.6,7.6-7.6h35.2c4.2,0,7.6,3.4,7.6,7.6v0
				C318.5,481.8,315.1,485.2,310.9,485.2z"/>
			<path class="st3" d="M482.1,485.2H361.3c-4.2,0-7.6-3.4-7.6-7.6v0c0-4.2,3.4-7.6,7.6-7.6h120.9c4.2,0,7.6,3.4,7.6,7.6v0
				C489.7,481.8,486.3,485.2,482.1,485.2z"/>
			<path class="st3" d="M341.2,586h-65.5c-4.2,0-7.6-3.4-7.6-7.6l0,0c0-4.2,3.4-7.6,7.6-7.6h65.5c4.2,0,7.6,3.4,7.6,7.6l0,0
				C348.7,582.6,345.3,586,341.2,586z"/>
			<path class="st3" d="M401.6,586h-15.1c-4.2,0-7.6-3.4-7.6-7.6l0,0c0-4.2,3.4-7.6,7.6-7.6h15.1c4.2,0,7.6,3.4,7.6,7.6l0,0
				C409.1,582.6,405.7,586,401.6,586z"/>
		</g>
		<g>
			<path class="st3" d="M462,641.4H275.7c-4.2,0-7.6-3.4-7.6-7.6v0c0-4.2,3.4-7.6,7.6-7.6H462c4.2,0,7.6,3.4,7.6,7.6v0
				C469.6,638,466.2,641.4,462,641.4z"/>
			<path class="st3" d="M326,691.7h-50.4c-4.2,0-7.6-3.4-7.6-7.6l0,0c0-4.2,3.4-7.6,7.6-7.6H326c4.2,0,7.6,3.4,7.6,7.6l0,0
				C333.6,688.3,330.2,691.7,326,691.7z"/>
			<path class="st3" d="M441.9,691.7h-60.4c-4.2,0-7.6-3.4-7.6-7.6l0,0c0-4.2,3.4-7.6,7.6-7.6h60.4c4.2,0,7.6,3.4,7.6,7.6l0,0
				C449.4,688.3,446,691.7,441.9,691.7z"/>
		</g>
		<path class="st4" d="M388,409.3v-25.1c-10.3-2.3-20.3-7.1-28-13.6l-6.3-5.3l16.3-24.2l7.7,5.7c8.6,6.4,16.6,9.3,25,9.3
			c3.2,0,10.5-0.5,10.5-5c0-3.1-10.2-7.1-16.9-9.7c-14.8-5.8-35-13.8-35-35.4c0-15.7,10.2-27.8,26.7-32.2v-23.2h28v22.9
			c10.9,2.7,18.1,8.5,23.3,13.6l6.2,6.1l-18.8,20.9l-6.7-5.4c-6.5-5.2-10.4-7.3-18.4-7.3c-2,0-8.7,0.3-8.7,4.3
			c1.1,2,9.9,5.4,15.2,7.4c15.5,5.9,36.7,14,36.7,37.1c0,16.2-11.3,29-28.8,33.5v25.5H388z"/>
	</g>
</g>
</svg>
