<?xml version="1.0" encoding="utf-8"?>
<!-- Generator: Adobe Illustrator 22.1.0, SVG Export Plug-In . SVG Version: 6.00 Build 0)  -->
<svg version="1.1" id="图层_1" xmlns="http://www.w3.org/2000/svg" xmlns:xlink="http://www.w3.org/1999/xlink" x="0px" y="0px"
	 viewBox="0 0 1000 1000" style="enable-background:new 0 0 1000 1000;" xml:space="preserve">
<style type="text/css">
	.st0{fill:url(#SVGID_1_);}
	.st1{fill:#90A6B4;}
	.st2{fill:#555E60;}
	.st3{fill:#EDF5F7;}
	.st4{fill:#DC544F;}
</style>
<g>
	<g>
		<linearGradient id="SVGID_1_" gradientUnits="userSpaceOnUse" x1="500.1562" y1="50.0421" x2="500.1562" y2="952.2042">
			<stop  offset="0" style="stop-color:#F9F9F9"/>
			<stop  offset="1" style="stop-color:#EDEDED"/>
		</linearGradient>
		<path class="st0" d="M800.1,949.7H200.3c-82.8,0-149.9-67.1-149.9-149.9V200C50.3,117.2,117.4,50,200.3,50h599.8
			C882.9,50,950,117.2,950,200v599.8C950,882.6,882.9,949.7,800.1,949.7z"/>
	</g>
	<g>
		<polygon class="st1" points="731.5,274.8 268.8,274.8 263.9,248.3 736.4,248.3 		"/>
		<polygon class="st1" points="740.6,319 259.8,319 255.1,282.7 745.2,282.7 		"/>
		<path class="st2" d="M691.8,742.9h-393c-29,0-52.6-23.5-52.6-52.6v-360h507.8v350.4C754.1,715,726.2,742.9,691.8,742.9z"/>
		<path class="st3" d="M298.8,738.1c-26.3,0-47.8-21.4-47.8-47.8V335.1h498.1v345.5c0,31.6-25.7,57.4-57.4,57.4H298.8z"/>
		<g>
			<path class="st4" d="M519.8,673.8 M558,692c-5.2-0.9-8.7-2.6-13-4.3v0.9c0-0.9-1.7,0-0.9-0.9c-0.9,0-1.7,0.9-2.6-0.9
				c-1.7-1.7-2.6-2.6-5.2-2.6c0,0.9-0.9,0.9-0.9,0.9c0-0.9,0.9-0.9,0.9-1.7c-1.7-0.9-2.6-2.6-5.2-2.6l-0.9,0.9
				c-0.9-0.9-0.9-0.9-1.7-0.9c0.9-2.6-2.6-3.5-5.2-4.3c0.9-1.7-1.7-0.9-0.9-2.6c-0.9-0.9-0.9,0.9-0.9,0.9h-0.9c0,0.9,0,2.6-0.9,2.6
				c-0.9-1.7-2.6-0.9-2.6-1.7v-0.9h0.9c-0.9-0.9-0.9-1.7,0-2.6c0-0.9-0.9,0.9-1.7,0.9c-0.9,0.9,0.9,0.9,0,0.9c0,0,0-0.9-0.9-0.9
				c-0.9,0.9-0.9,1.7-0.9,2.6c1.7,0,1.7,0.9,2.6,1.7c0-0.9,0-0.9,0.9-0.9v1.7c2.6,1.7,6.1,4.3,9.5,6.1c0.9-2.6,2.6,0.9,3.5-0.9
				c0,0.9,0.9,0.9,0.9,0.9c-0.9,0-0.9,0.9-0.9,1.7c2.6-0.9,2.6,0.9,4.3,1.7c0.9-0.9-0.9-0.9,0-1.7c0.9,1.7,0.9,2.6,0.9,4.3
				c2.6,0.9,4.3,0.9,6.9,2.6c0.9-0.9-0.9-0.9-0.9-2.6c0.9-0.9,0,0.9,0.9,0.9c0.9-0.9,0.9-0.9,0.9-2.6c0.9,0.9,2.6,1.7,0.9,2.6
				c0,0,0-0.9-0.9-0.9c0,0.9,0.9,1.7,0.9,2.6c2.6-0.9,2.6,0.9,4.3,0.9c0-0.9,0.9-0.9,0.9-1.7c0,0,0.9,0.9,0.9,1.7h1.7
				c-0.9,0.9,0,0.9,0,1.7c1.7,0,2.6,0.9,3.5,0.9s1.7,0,2.6,0.9c-0.9-0.9,0.9-1.7,0.9-2.6c0.9,0-0.9,1.7,0.9,0.9
				c0.9-0.9-0.9-0.9-0.9-1.7h1.7v-0.9c-0.9,0-1.7,0.9-2.6,0.9C558.9,692.9,558,692.9,558,692 M541.5,687.7
				C541.5,687.7,540.6,688.5,541.5,687.7C540.6,687.7,541.5,687.7,541.5,687.7 M577.1,697.2C577.1,698.1,577.1,697.2,577.1,697.2
				 M577.1,697.2v-1.7c-1.7-0.9-3.5-0.9-6.1,0c0-0.9-0.9-0.9-1.7-0.9c0,0.9,0.9,0.9,0,0.9s-0.9-0.9-0.9-0.9c-0.9,0.9-2.6,0.9-2.6,0
				v4.3c0.9,0.9,0.9,1.7,2.6,0.9c0.9-0.9-0.9,0-0.9-0.9c1.7,0,5.2-0.9,4.3,0.9v-0.9l-1.7,1.7c2.6,0,5.2,0.9,6.1-0.9v1.7
				C576.2,700.7,576.2,698.1,577.1,697.2"/>
			<path class="st4" d="M563.2,695.5c0.9-1.7,3.5-0.9,0-1.7c0,1.7-0.9,2.6-0.9,3.5c0,0-1.7,0.9-0.9,0.9c1.7-0.9,1.7,0.9,3.5,0.9
				v-2.6C564.9,696.3,564.1,695.5,563.2,695.5z M508.5,666.8c1.7,0.9,1.7,0,1.7,0V666h-0.9C510.3,666.8,508.5,666.8,508.5,666.8z
				 M648.2,513.3c-0.9,1.7-2.6,5.2,0,5.2c0.9,0.9,0-0.9,0.9-0.9c0.9,1.7-0.9,0.9,0,1.7c2.6,1.7,3.5,5.2,7.8,5.2
				c0,0.9-1.7-0.9-0.9,0.9c0.9,0,0.9,0.9,0.9,1.7h0.9c0,1.7,3.5,1.7,1.7,2.6c0.9,0,0.9-0.9,1.7,0c0,0-0.9-0.9,0-0.9
				c0.9,0.9,0.9,0,0.9,0c0,0.9,0.9,0.9,0.9,2.6h-0.9v0.9c0.9,0,0.9,0,2.6-0.9c0,0.9-0.9,0.9-1.7,0.9c0.9,0.9,0.9,0.9,1.7,2.6
				l6.1-1.7c-0.9,0-0.9,0.9-0.9,0l-2.6-2.6c-0.9-0.9-0.9,0.9-0.9,0c0,0,0.9,0,0.9-0.9l-0.9-0.9c-0.9-0.9-0.9,0.9-1.7,0h0.9
				c0-0.9-0.9-0.9-0.9-2.6H663v-1.7c-5.2-2.6-5.2-8.7-12.1-8.7c0,0,0.9,0.9,0,0.9c0.9-0.9-0.9-1.7,0-2.6c0.9,0.9,0.9-0.9,1.7,0.9
				c0-1.7-2.6-3.5-4.3-2.6C647.3,513.3,648.2,512.4,648.2,513.3L648.2,513.3z M533.7,656.4c0,0.9,0,0.9-0.9,0.9
				c-0.9,0.9,0.9,0,0.9,0.9c0.9,0,0-0.9,0.9-0.9c0.9,0.9-0.9,0.9-0.9,2.6c0.9-0.9,0.9,0.9,1.7,0.9c0-0.9,0-1.7,0.9-1.7
				C535.4,657.3,534.6,656.4,533.7,656.4z M643,515C643,515.9,643.9,515.9,643,515C643.9,515.9,643.9,515,643,515z M576.2,701.5h0.9
				c-0.9-1.7,0.9-1.7,0.9-2.6C578.8,698.1,576.2,698.9,576.2,701.5z M518.1,673.8h0.9C518.9,672.9,518.9,673.8,518.1,673.8z
				 M509.4,667.7v1.7c0.9,0,0.9-0.9,0.9-1.7C509.4,668.6,510.3,666.8,509.4,667.7z"/>
			<path class="st4" d="M605.7,669.4c-1.7,0.9-5.2,0.9-6.1,2.6c-0.9-0.9-1.7,0-2.6,0.9c-3.5-0.9-8.7,0.9-13,0.9c0,0,0,0.9-0.9,0.9
				c0-0.9,0.9-0.9,0.9-0.9c-3.5,0-6.1-0.9-8.7,0.9v-0.9c-1.7,0-2.6,0-4.3-0.9c-0.9,0.9-0.9,0.9-0.9,1.7c0-0.9-0.9-0.9-0.9-0.9
				c0.9,0,0.9-0.9,0.9-0.9c-1.7,0-2.6-0.9-4.3-0.9c0,0.9,0.9,0.9,0,0.9c-0.9-0.9-2.6-1.7-4.3-2.6c0,0.9,0.9,0.9,0,0.9
				c0,0-0.9,0.9-0.9,0c0,0,0.9,0,0.9-0.9c-1.7,0-2.6-0.9-5.2-0.9c-0.9,0,0,0.9-0.9,0.9c0,0-0.9,0.9-0.9,0c0.9,0,0.9,0,0.9-0.9
				c-0.9-0.9-2.6,0.9-3.5,0c0-0.9,1.7,0.9,0.9-0.9c-3.5-0.9-5.2-3.5-8.7-4.3c0,0.9-0.9,0.9-0.9,0.9c-0.9-0.9,0.9-0.9,0.9-1.7
				c-3.5-1.7-6.1-3.5-8.7-6.1v1.7h-0.9l2.6,2.6c0.9-0.9-0.9,0-0.9-0.9h0.9c0,0.9,0.9,1.7,0.9,2.6c0.9,0,0.9-0.9,0.9-0.9
				c0.9,1.7,2.6,3.5,6.9,3.5c-0.9,0.9,0,0.9,0,0.9c0.9,0,1.7,0.9,2.6,0.9c0-0.9,0.9-0.9,1.7-0.9c-0.9,0-0.9,0.9-0.9,1.7
				c0.9,0,2.6,0,2.6,0.9c0.9,0.9,0-0.9,0.9-0.9c-0.9,0.9,0.9,0,0.9,0.9c5.2,0.9,12.1,5.2,18.2,3.5c0.9,0,0,0.9,0.9,0.9
				s0.9-0.9,1.7-0.9v0.9c1.7-0.9,3.5,0,5.2,0.9c-0.9-0.9,0.9-0.9,0.9-1.7c-0.9,0-0.9,0.9-1.7,0c0.9-0.9,0.9-0.9,1.7-0.9
				c0,0.9,0.9,0,0.9,0.9v2.6c-0.9,0-0.9,0-0.9,0.9c3.5,0,6.9-0.9,11.3-0.9c0-0.9-0.9-0.9,0-0.9v0.9c0.9-0.9,4.3-0.9,5.2-1.7
				c0,0,0,0.9,0.9,0.9c5.2-1.7,10.4-2.6,14.7-5.2c1.7,0,5.2-0.9,5.2-2.6c0,0,0,0.9,0.9,0.9c2.6-1.7,5.2-2.6,7.8-5.2l1.7-1.7
				c0.9-0.9-0.9,0.9-0.9-0.9c1.7,0.9,2.6,0,2.6-0.9c0.9,0,0,0.9,0,0.9c0.9,0,0.9-1.7,2.6-0.9c0.9-0.9-0.9-0.9,0-1.7l0.9,0.9l0.9-0.9
				h0.9v-0.9h0.9v-0.9c2.6-0.9,4.3-4.3,6.9-6.1c0-2.6,2.6-2.6,2.6-5.2h3.5c0-0.9,0.9-2.6,0-4.3c1.7,0.9,2.6-0.9,2.6-0.9
				c4.3-7.8,6.9-13,9.5-22.6c-1.7-0.9-1.7,1.7-3.5,0.9c-2.6,10.4-5.2,15.6-10.4,22.6c0,0.9,0.9,3.5,0,4.3c-0.9-0.9-0.9-0.9-2.6-0.9
				c-5.2,6.1-10.4,12.1-16.5,16.5v0.9c-2.6-0.9-4.3,0.9-5.2,2.6c-4.3,0.9-6.9,4.3-12.1,5.2c0,0.9,0.9,0.9,0,0.9
				c-0.9-0.9-4.3,0-5.2,1.7C605.7,671.2,606.6,669.4,605.7,669.4L605.7,669.4z M507.7,665.1c0.9,0.9,0,1.7,0.9,1.7
				C508.5,666.8,508.5,665.1,507.7,665.1z M582.3,639.1c0.9,0.9,0.9,0.9,1.7,0.9C584,639.1,584,639.1,582.3,639.1z M636.1,535.8V535
				C635.2,535,635.2,535.8,636.1,535.8z M601.4,516.7c-1.7-0.9-0.9,0.9-1.7,0.9v-1.7c-4.3,0-5.2,0-8.7-0.9c-0.9,0.9-0.9,0.9-2.6,0.9
				v-1.7h-1.7c0.9,0.9,0,0.9,0.9,2.6c0.9,0,2.6,0.9,2.6,0c0.9,0.9,3.5,0,4.3,0.9c-0.9-0.9,0.9-1.7,2.6-0.9v0.9
				c-0.9,0-1.7-0.9-1.7,0.9c2.6-0.9,2.6,0.9,5.2,0.9C599.6,517.6,601.4,517.6,601.4,516.7L601.4,516.7z M611.8,521.9
				c0,0.9,1.7,1.7,3.5,1.7c0-0.9,0-0.9,0.9-0.9c-0.9,0-0.9,0-0.9-0.9v-1.7c-0.9,0.9-3.5-0.9-4.3-1.7c-0.9,0-0.9,0.9-0.9,0.9
				c0-0.9-1.7-0.9-2.6,0c0.9-1.7-1.7,0-4.3,0c0-0.9-0.9-0.9,0-1.7c-0.9,0-0.9-0.9-1.7-0.9v2.6c1.7-0.9,2.6,0.9,4.3,0
				C607.4,521.9,609.2,521.9,611.8,521.9v-0.9c0,0.9,0.9,0.9,0.9,1.7C611.8,522.8,612.6,521.1,611.8,521.9z M615.2,521.9
				c0,0.9-0.9,0.9-0.9,0H615.2z M625.7,526.3c0,0.9-0.9,0.9-0.9,1.7C623.9,527.1,625.7,525.4,625.7,526.3c-2.6-0.9-1.7-2.6-4.3-1.7
				c0.9,0.9,1.7,0.9,1.7,0.9l-0.9,0.9c0.9,0.9,1.7,1.7,3.5,2.6c0-0.9,0-0.9,1.7-0.9c-0.9-0.9-0.9-0.9,0-1.7
				C625.7,527.1,627.4,525.4,625.7,526.3z"/>
			<path class="st4" d="M618.7,521.9c0,0.9,0.9,0.9,0.9,1.7h-0.9c-0.9,0.9,0,0.9,0,0.9c0.9,0.9,0.9-0.9,1.7-0.9
				c0,0.9,0.9,0.9,2.6,1.7c0.9-0.9-0.9-0.9-0.9-2.6C620.5,523.7,619.6,521.9,618.7,521.9z M528.5,537.6
				C528.5,537.6,527.6,537.6,528.5,537.6C527.6,537.6,527.6,537.6,528.5,537.6C527.6,538.4,527.6,538.4,528.5,537.6z M584.9,513.3
				h-2.6c0,0.9,0.9,0.9,0,0.9c0.9,0,1.7,0.9,0.9,0.9c0-0.9,0-0.9-0.9-0.9s-2.6,0-2.6,0.9c-0.9-0.9-5.2-0.9-6.1,0
				c0,0.9,0.9,0.9-0.9,0.9c-0.9,0,0.9-0.9-0.9-0.9c-0.9,0-0.9,0.9-1.7,0.9c-0.9-1.7-5.2-0.9-6.9,0c-0.9,0.9,0.9,0,0.9,0.9
				c-0.9-0.9,0,0.9-0.9,0.9c0.9-1.7,0,0-0.9-0.9c0,0.9,0.9,1.7,0,1.7v-1.7c-4.3,0-5.2,2.6-9.5,2.6c0.9,0.9-0.9,0.9-0.9,0.9
				c-6.1,2.6-11.3,5.2-15.6,8.7v0.9c0,0.9-0.9,1.7-0.9,2.6c6.9-3.5,12.1-8.7,20.8-10.4c0.9-0.9,3.5-0.9,3.5-2.6c0,0.9,0,0.9,0.9,0.9
				c2.6-1.7,7.8-0.9,10.4-2.6c2.6,0.9,6.9-0.9,11.3-0.9h2.6c0-0.9-0.9-0.9-0.9-0.9C584,515,584.9,514.1,584.9,513.3z M529.4,537.6
				 M643,541c0.9-0.9-0.9,0-0.9-0.9c0,0.9-0.9,0.9-0.9,1.7C643,541,642.1,540.2,643,541z M636.1,537.6c0.9,0.9,2.6,0.9,2.6,1.7
				c0.9-0.9,0.9-1.7,0.9-2.6c-0.9,1.7-0.9-2.6-3.5-1.7l1.7,1.7C636.9,535.8,636.1,536.7,636.1,537.6z M627.4,529.7
				c0.9,0,0,0.9,0.9,1.7c0.9,0,1.7,0.9,2.6,0.9s0-0.9,0.9-0.9v-1.7c-0.9,0-0.9-0.9-2.6-0.9V528c-0.9,0.9-0.9-0.9-0.9-0.9
				c-0.9,0.9,0,0.9,0,0.9C629.1,528.9,627.4,528,627.4,529.7z"/>
			<path class="st4" d="M636.1,534.1C636.1,534.1,636.1,535,636.1,534.1C636.1,535,636.1,534.1,636.1,534.1z M528.5,537.6
				c0,0.9-0.9,0.9-0.9,0.9L528.5,537.6c-1.7,0-1.7,0.9-2.6,1.7c0,0.9,0.9,1.7,0,1.7c-0.9-2.6-1.7,1.7-3.5,1.7
				c0.9,1.7-2.6,2.6-0.9,4.3c-0.9,0.9,0-0.9-0.9-0.9v1.7c-1.7-0.9-0.9,1.7-2.6,1.7c0,0.9-0.9,0.9-0.9,2.6c0.9,0,0.9-0.9,0.9,0v0.9
				c-0.9,0-1.7,0.9-2.6,0.9c0,0,0.9-1.7,0-0.9c0,1.7-0.9,1.7-1.7,2.6c0.9,0,1.7-0.9,1.7,0c-0.9,0-0.9,0-0.9,0.9
				c5.2-4.3,7.8-11.3,13-15.6c-0.9,0-0.9-0.9-0.9-1.7h0.9L528.5,537.6C528.5,538.4,528.5,538.4,528.5,537.6z M641.3,539.3
				C640.4,539.3,640.4,539.3,641.3,539.3l-2.6-0.9c0,0.9,0.9,0.9,0.9,1.7C640.4,541,640.4,540.2,641.3,539.3z M635.2,533.2
				c-1.7,0-2.6,0-3.5-0.9c0.9,0.9-0.9,0-0.9,0.9s3.5,0.9,3.5,1.7C634.3,533.2,635.2,533.2,635.2,533.2z M586.6,698.9v0.9
				c0.9-0.9,0.9,0.9,0.9,0C586.6,699.8,586.6,699.8,586.6,698.9z M528.5,540.2c0-0.9,0-1.7,0.9-1.7h-0.9V540.2z"/>
			<path class="st4" d="M489.4,559.2c0,0-0.9-0.9,0-1.7C490.3,557.5,489.4,560.1,489.4,559.2c0-2.6,1.7-2.6,1.7-5.2
				c0-0.9-0.9-1.7-0.9-1.7v-0.9c0.9,0,0,0.9,1.7,0.9c0.9-0.9-0.9,0-0.9-0.9v-0.9h-0.9c0-0.9-0.9-0.9-0.9-1.7c0,0.9,0.9,0,0.9,0.9
				c0.9,0.9,0-0.9,0.9-0.9l1.7,0.9H492c0,0,0,0.9,0.9,0.9c2.6-6.1,6.1-12.1,10.4-16.5v-1.7h0.9c0-2.6,2.6-2.6,3.5-5.2h2.6
				c0-1.7,1.7-3.5,4.3-4.3c2.6-1.7,3.5-4.3,6.1-5.2c0.9-0.9,0.9-1.7,1.7-2.6c1.7,0.9,0.9-0.9,2.6-0.9c2.6-3.5,8.7-5.2,12.1-8.7
				c8.7-2.6,16.5-7.8,27.8-8.7c0.9-0.9-0.9-0.9,0-0.9c6.9,0.9,16.5-0.9,26-0.9c0-0.9,0-0.9,0.9-0.9c-0.9,0.9,0.9,0.9,0.9,0.9
				c2.6-0.9,5.2,0.9,6.1,0c0.9,0.9,5.2,2.6,5.2,0v1.7c0.9,0,2.6,0,2.6,0.9c0.9-0.9-0.9-0.9-0.9-1.7c0.9,0.9,0-0.9,0.9-0.9
				c0.9,0.9-0.9,0-0.9,0.9c0.9,0,0.9,0.9,0.9,0.9c2.6,0,5.2,0.9,6.9,1.7c0,0,0-0.9,0.9-0.9c-0.9-0.9,0.9-0.9-0.9-2.6h0.9
				c0,0.9,0,0.9,0.9,0.9c-0.9,0.9-0.9,0.9-0.9,2.6c0.9,0.9,0-0.9,0.9-0.9c0,0,0.9-0.9,0.9,0c0,0-0.9,0-0.9,0.9c0.9,0,0.9,0,0.9,0.9
				c0.9,0.9,0.9-0.9,0.9-0.9v3.5c9.5,2.6,16.5,8.7,25.2,13c0-0.9,0.9-0.9,1.7-0.9v0.9h0.9c0.9-1.7,0.9-4.3,0.9-6.1
				c-1.7,0.9-1.7-1.7-3.5-0.9c0.9-0.9,0-0.9,0-0.9c-6.9-3.5-12.1-6.9-19.1-10.4c-0.9,0,0,0.9-0.9,0.9v-0.9c-2.6,0-5.2-2.6-7.8-1.7
				c0.9,0,0.9,0,0.9,0.9c-0.9,0.9-2.6,0.9-3.5,0.9c0-0.9,0.9-0.9,0.9-1.7c0.9-0.9-0.9,0.9,0.9,0.9c0-0.9,0.9,0,0.9-0.9
				c-4.3-0.9-8.7-2.6-13-2.6c0,0.9,0,0.9-0.9,0.9c0.9-0.9-0.9-0.9-2.6-0.9c0,0.9-0.9,0.9-1.7,0.9v-2.6c-2.6-0.9-5.2,1.7-6.1-0.9
				c-1.7,0.9-1.7,0-3.5,0.9c-1.7-0.9-6.1,0-9.5,0.9c0,0.9-1.7,0.9-0.9,1.7h-0.9c0-0.9,0.9-0.9,0.9-0.9c-5.2-0.9-6.9,0.9-11.3,0.9
				c-1.7-0.9-2.6-0.9-2.6,0c-2.6-0.9-6.9,0.9-8.7,2.6c-0.9,0.9,0-0.9-0.9-0.9c-2.6,0.9-5.2,0.9-6.9,2.6c0,0.9,0.9,0.9,0,0.9
				c-0.9-1.7-2.6,0-2.6,0c0,0.9,0.9,1.7,0,1.7s0.9-2.6-0.9-1.7l-2.6,1.7c-16.5,6.9-27.8,16.5-38.2,28.6c0,0.9,0.9,0.9,0.9,0.9
				c-0.9,0,0,1.7-0.9,0.9c0-0.9,0.9-0.9,0-0.9v1.7c-1.7,0-3.5,0-3.5,0.9v0.9c-0.9,0-0.9,0-1.7,0.9c0,0.9,0,1.7-0.9,2.6
				c0,0.9,0,0.9-0.9,1.7l-0.9,0.9c0,0.9,0,1.7-0.9,2.6c0.9,0.9,0-1.7,0.9-0.9c0,0.9-0.9,1.7-0.9,2.6l0,0h-1.7
				c-0.9,2.6-1.7,5.2-2.6,6.9c0.9,0,0.9,1.7,0,2.6c0,0,0-0.9-0.9-0.9c0,0,0,0.9,0.9,0.9c-0.9,0-0.9,3.5-2.6,2.6c0-1.7,0-1.7,0.9-3.5
				H486c0,0.9,0.9,2.6-0.9,2.6c0,0.9,0.9,0.9,0.9,1.7h-1.7c0.9,0.9-0.9,0.9-0.9,1.7c0.9,0,0.9,0.9,1.7,0.9c0.9-0.9,0-1.7,0.9-1.7
				c-0.9,1.7-0.9,2.6,0,4.3c-0.9,0-1.7,0.9-1.7,0c-0.9-0.9,0.9-0.9,0.9-0.9c-1.7,0.9-0.9-0.9-2.6-0.9c0.9,2.6-0.9,2.6,0,5.2h-0.9
				c0,4.3-1.7,6.9-2.6,11.3s0,5.2-0.9,9.5h5.2C483.4,574,486.8,567.9,489.4,559.2z M491.2,550.6 M669.9,643.4
				c-0.9,0.9,0.9,0,0.9,0.9c-0.9,0-0.9,0.9-1.7,0.9c-0.9,1.7-0.9,3.5-0.9,6.1l-0.9-0.9c0.9,0,0.9,0,0.9-0.9
				c-0.9,1.7-2.6,2.6-3.5,5.2c-0.9,0.9,0.9,0.9,0.9,1.7c0,0-0.9,0-0.9-0.9c-0.9,0.9-2.6,2.6-2.6,4.3c-0.9,0.9-0.9,0-0.9,0
				c0,0.9,0,1.7-1.7,1.7c-0.9,2.6-5.2,4.3-4.3,6.9l-2.6-1.7v0.9c-4.3,0.9-6.1,5.2-10.4,6.9c-0.9,0-1.7,0.9-2.6,0.9v0.9
				c-6.1,3.5-12.1,6.1-17.4,9.5c-0.9-0.9-3.5,0.9-4.3,1.7c0,0,0-0.9-0.9-0.9c-2.6,1.7-6.9,2.6-10.4,2.6c-0.9,0.9,0.9,0.9,0.9,1.7
				c-0.9,0-0.9,0.9-1.7,0c0.9,0,0.9,0,0.9-0.9c-0.9,0.9,0-0.9-0.9-0.9c-1.7,0.9-6.1,0-6.9,1.7c-0.9-0.9-4.3,0-5.2,0
				c0.9,0.9-0.9,0.9,0,2.6c0,0,0,0.9-0.9,0.9c0.9-0.9-0.9-0.9-0.9-0.9c-0.9-0.9,0.9-0.9,0.9-0.9c-1.7,0-0.9,2.6-3.5,1.7
				c0-0.9-0.9-0.9,0-0.9c0.9-0.9,0,1.7,0.9,0.9V692c-0.9-0.9-1.7,0.9-2.6,0c0,0.9-2.6,0.9-2.6,0.9c0,0.9,0.9,1.7,0,1.7
				c-0.9-1.7-0.9,0.9-0.9,0.9c-0.9-0.9,0.9-0.9,0.9-2.6h-2.6c0,0.9,1.7,0.9,1.7,0.9s0,0.9-0.9,0.9s0-0.9-0.9-0.9
				c0.9,0.9,0.9,1.7,0,2.6h2.6l-0.9,0.9c0,0.9,0,0.9,0.9,0.9c0-0.9,1.7-0.9,1.7-1.7c3.5,0,6.1-0.9,7.8,0c1.7,0,4.3-0.9,6.1-0.9v0.9
				h0.9v-1.7c0.9,0,0.9-0.9,1.7-0.9c0.9,0.9-0.9,0.9-0.9,0.9c1.7-0.9,4.3-0.9,5.2-1.7c0.9,0,0.9,0,0.9,0.9c0.9,0,0.9-0.9,2.6-0.9
				c0,0.9,0,0.9,0.9,0.9c0.9-0.9,1.7-0.9,3.5-0.9c0-0.9-0.9-1.7,0-1.7c0.9,1.7,2.6,0.9,3.5,0.9l-0.9-0.9v-1.7
				c0.9-0.9,0.9,0.9,2.6,0.9c0,0.9,0,1.7-0.9,1.7c0.9,0,1.7,0,2.6-0.9h0.9c1.7-0.9,4.3-1.7,6.1-2.6c0,0.9,0.9,0.9,0.9,0v-0.9
				c1.7-0.9,4.3-1.7,6.1-3.5h1.7v-1.7c0,0,0.9,0,0.9-0.9c0,0,0.9,0,0.9-0.9c0.9,0,1.7-0.9,2.6-0.9c0-0.9-0.9-0.9,0-1.7
				c0,0.9,0,0.9,0.9,0.9c4.3-1.7,6.9-5.2,10.4-6.9c0.9-0.9-0.9,0-0.9-0.9c0.9-0.9,0,0.9,0.9,0.9c0-0.9-0.9-1.7,0-1.7
				s-0.9,1.7,0.9,0.9c3.5-5.2,8.7-7.8,12.1-13c-0.9,0-0.9,0.9-0.9,0c0.9,0,0.9-0.9,0.9-0.9v0.9c1.7-0.9,2.6-2.6,3.5-5.2
				c0.9-0.9,0.9-0.9,1.7-0.9c0.9-0.9,0-1.7,0.9-2.6s1.7-0.9,2.6-1.7s0.9-2.6,0.9-3.5c0-0.9,0.9,0,0.9-0.9v-0.9l1.7-1.7
				c0.9-1.7,0.9-4.3,1.7-5.2c0.9,0,0.9,0,0.9-0.9s-0.9-1.7,0-2.6c0-0.9,0.9-0.9,0.9-0.9v-1.7c0,0,0.9,0,0.9-0.9v-1.7l0.9-0.9
				c0-1.7,0-3.5,0.9-5.2l0.9-0.9c0.9-3.5,0.9-7.8,1.7-10.4l-5.2-0.9C680.3,624.3,676.8,636.5,669.9,643.4L669.9,643.4z M594.4,698.1
				c0,0-0.9,0-0.9-0.9h0.9C594.4,697.2,595.3,698.1,594.4,698.1z M578.8,696.3c0.9,0.9-0.9,0-0.9,0.9h1.7
				C579.7,697.2,579.7,696.3,578.8,696.3z"/>
			<path class="st4" d="M504.2,578.3c0.9,0,1.7-0.9,2.6-0.9v-2.6C505.1,574.9,505.1,577.5,504.2,578.3z M617,692.9 M512,556.6
				c-0.9,0.9,0,1.7,0,2.6h-1.7c-1.7,5.2-4.3,8.7-5.2,14.7h1.7c0,0,0-0.9,0.9-0.9c0-0.9-0.9-2.6,0-2.6h0.9c0.9-0.9,0,0.9,0.9,0.9
				c0-0.9,0.9-0.9,0.9-2.6c2.6-2.6,2.6-6.9,5.2-9.5c-0.9-0.9,0-0.9,0-2.6H512z M529.4,537.6C529.4,536.7,529.4,536.7,529.4,537.6
				C529.4,536.7,529.4,536.7,529.4,537.6C529.4,536.7,529.4,536.7,529.4,537.6z M532.8,531.5c-0.9,0.9,0.9,0,0.9,0.9
				C532,533.2,533.7,531.5,532.8,531.5c-0.9,0.9,0,1.7-0.9,1.7h-0.9c0,0.9-0.9,0.9-0.9,0.9v3.5c1.7-0.9,2.6-2.6,4.3-3.5
				c-0.9-1.7,0-2.6,0-4.3C533.7,529.7,534.6,531.5,532.8,531.5z M471.2,642.5c0,0,0,0.9,0.9,0.9L471.2,642.5z M473.8,638.2
				c-0.9-5.2-1.7-9.5-4.3-13v-1.7c0,0,0.9,0,0.9-0.9v-1.7c-0.9,0-0.9,1.7-0.9,0.9c0.9-6.1-2.6-12.1-3.5-18.2c-0.9-0.9,0,0.9-0.9,0.9
				c0-0.9,1.7-3.5,0-3.5v2.6c-0.9,0-0.9,0.9-0.9,0.9c0-0.9-0.9-0.9-0.9-0.9c-0.9,0.9-0.9,1.7-1.7,0.9c0.9,0.9,0.9,1.7,0.9,3.5
				c0.9,0.9,1.7,0,1.7,0.9s-1.7,0-0.9,0.9c1.7,3.5,1.7,8.7,4.3,10.4c-0.9,1.7,0.9,6.1,1.7,6.9c0,0.9-0.9,0.9-0.9,0.9l4.3,15.6
				C472.1,640.8,472.1,639.1,473.8,638.2z M586.6,631.3C586.6,632.1,586.6,632.1,586.6,631.3C587.5,632.1,586.6,632.1,586.6,631.3z"
				/>
			<path class="st4" d="M506.8,654.7c14.7-2.6,28.6-6.9,43.4-10.4c0.9-0.9,0-0.9,0.9-0.9c1.7,0.9,4.3-0.9,6.1-0.9
				c0.9-0.9,0-0.9,0.9-0.9c3.5,0.9,10.4-2.6,16.5-3.5v-0.9h1.7c0.9-0.9,0.9-1.7,1.7-3.5c0.9,0,0.9,1.7,0,1.7
				c3.5,0.9,4.3-0.9,6.9-0.9c0.9-0.9-1.7,0-0.9-0.9c-0.9-0.9,0,0.9-0.9,0.9c-0.9-0.9,0.9,0,0.9-0.9h-4.3c0-1.7,0.9-1.7,1.7-2.6
				c0.9,1.7,2.6,0.9,4.3,0.9v-0.9c0-0.9,0-0.9-0.9-0.9c0,0.9,0,0.9-0.9,0.9c-0.9,0.9,0.9,0,0.9,0.9c-0.9-0.9-1.7,0-1.7-0.9
				s0.9-0.9,0.9-0.9c-1.7,0.9-4.3,1.7-6.9,1.7c0.9,1.7-2.6,0.9-0.9,1.7c-0.9,0-1.7-0.9-0.9-0.9c-1.7,0-3.5,0.9-2.6,1.7
				c0-0.9,0-0.9,0.9-0.9c-0.9,0.9,0,1.7-0.9,1.7c-0.9-0.9-0.9-0.9-1.7-0.9c0-0.9,0.9-0.9,0.9-0.9c-1.7-0.9-1.7,0.9-2.6,0.9
				c-1.7-0.9-6.1,1.7-8.7,1.7c-0.9,0.9,0,0.9-0.9,0.9c-0.9,0.9-1.7-0.9-1.7-0.9c0,1.7-1.7,1.7-2.6,2.6c-0.9-0.9,0.9-0.9,0.9-1.7
				c-0.9,0.9-1.7,1.7-3.5,0.9c-0.9,0.9-1.7,0.9-3.5,0.9c-6.1,1.7-12.1,3.5-19.1,4.3c-0.9,0.9,0,0.9-0.9,1.7c0-0.9-0.9-0.9-0.9-0.9
				h-0.9c0-0.9-0.9-0.9-1.7-0.9c-19.1,6.1-23.4,5.2-43.4,10.4c0.9,0,0.9,0,0.9,0.9c-1.7,0.9-0.9-0.9-2.6-0.9
				c-0.9,0.9-0.9,1.7-1.7,3.5c-1.7-1.7,0-3.5-0.9-6.1c-0.9,0.9-1.7,1.7-1.7,0.9s0.9-0.9,1.7-0.9v-1.7c-0.9,0-0.9,0.9-0.9,0.9
				c0.9-3.5-1.7-6.9-1.7-10.4c-0.9-0.9-0.9,0-0.9-0.9s-0.9-0.9-0.9-0.9c0,2.6-1.7,2.6-1.7,4.3l2.6,10.4c0.9,0.9,1.7,0,1.7,0.9
				c-0.9,0.9,0,0.9-0.9,0.9s-0.9-0.9-0.9-0.9c0,1.7,0,3.5,1.7,4.3c-1.7,0.9,0,2.6,0,3.5c11.3-2.6,5.2-0.9,16.5-3.5l4.3-1.7
				C499.9,656.4,502.5,655.5,506.8,654.7c0-0.9-2.6-0.9-1.7-1.7C505.9,653.8,506.8,653.8,506.8,654.7z M577.9,633
				c0.9,0.9,1.7,0.9,1.7,0.9c-0.9,0.9-1.7,0.9-2.6,1.7C577.9,633.9,577.9,633.9,577.9,633z M572.7,636.5
				C572.7,637.3,572.7,637.3,572.7,636.5C572.7,637.3,571.9,636.5,572.7,636.5z M715,585.3c-3.5-3.5-1.7-10.4-5.2-14.7
				c1.7-2.6-1.7-5.2-0.9-8.7c-1.7-0.9,0,1.7-0.9,1.7c0.9-3.5-0.9-6.9-3.5-8.7c0.9-0.9,0,0.9,1.7,0.9c-0.9-1.7-0.9-6.1-2.6-6.9
				c1.7-3.5-1.7-6.9-1.7-10.4c-0.9-0.9-0.9,0-0.9-0.9c0.9-0.9,0-2.6,0-5.2h-2.6h-0.9v1.7h-0.9c0,0.9,0,1.7,0.9,1.7
				c0.9-0.9,0-2.6,0.9-2.6c0,0.9,0,1.7,1.7,1.7c-1.7,0-0.9,2.6-2.6,1.7c1.7,6.1,3.5,11.3,4.3,17.4c0.9,0.9,0.9,0,0.9,0.9
				s-0.9,0.9-0.9,1.7s0,0.9,0.9,1.7c0,0,0.9,0,0-0.9h0.9c0,0.9-0.9,0.9-1.7,0.9c1.7,6.1,3.5,12.1,5.2,17.4c0.9,0,0-1.7,0.9-1.7
				c0,0.9,1.7,0,1.7,0.9s0,0.9-0.9,0.9c0,0,1.7,0.9,0.9,1.7c-0.9,0,0-1.7-0.9-0.9c-1.7,6.1,3.5,11.3,3.5,18.2c1.7,0.9,0-1.7,0.9-1.7
				c1.7,0.9,0.9,2.6,0,3.5c-5.2-1.7-9.5,3.5-15.6,2.6c0,0,0,1.7-1.7,1.7c-0.9-0.9,0.9,0,0.9-0.9c-0.9,0-1.7,0.9-1.7,0.9h-0.9
				c0,0.9-1.7,0.9-1.7,0.9c-0.9,0.9,0.9,0,0.9,0.9c-2.6-0.9-6.9,0.9-9.5,1.7c0-0.9-1.7,0.9-3.5,0c-0.9,0,0,1.7-0.9,1.7
				c0,0,0-1.7-1.7-0.9v0.9c-4.3,0-7.8,3.5-10.4,1.7c-1.7,1.7-6.9,1.7-8.7,3.5c-8.7,0.9-13.9,3.5-20.8,4.3c-0.9,0,0,1.7-0.9,1.7
				s-0.9-0.9-0.9-1.7c-0.9,0.9-1.7,0-2.6,0.9c-1.7,0.9-1.7,3.5-3.5,2.6c0.9-0.9,1.7,0,0.9-0.9c-2.6,0-5.2,1.7-6.1,0.9
				c-2.6,1.7-5.2,2.6-8.7,2.6c-7.8,1.7-15.6,5.2-22.6,6.1c-0.9,0.9,0,0.9-0.9,0.9c0-0.9-0.9-0.9-1.7-0.9c0,0.9-0.9,1.7-0.9,0.9
				c0,0.9,0.9,1.7,0.9,2.6c-0.9,0-0.9,0.9-0.9,0.9s0-0.9-1.7-0.9c0.9,1.7-1.7,0-1.7,1.7c3.5,0.9,6.1-0.9,10.4-1.7
				c0.9,0,0-1.7,0.9-1.7s0,0.9,0.9,0.9c18.2-5.2,37.3-9.5,54.7-14.7c0.9-0.9,0-0.9,0.9-0.9c4.3,1.7,9.5-1.7,14.7-2.6
				c0.9-0.9-0.9-1.7-0.9-1.7c0.9,0,1.7,0,1.7,1.7c5.2,0,9.5-1.7,13.9-4.3c0,0,0-1.7,0.9-1.7c0,0.9,1.7,0,0.9,1.7
				c1.7,0,1.7-0.9,3.5-0.9h6.9c11.3-3.5,11.3-4.3,23.4-6.9C717.6,595.7,715.9,592.2,715,585.3L715,585.3z M698.5,540.2
				c0.9,0,0.9,0,0.9,1.7C698.5,541.9,698.5,541,698.5,540.2z M698.5,533.2c0.9,0,1.7,0,1.7,0.9C698.5,534.1,698.5,534.1,698.5,533.2
				z M704.6,563.6c0-1.7-0.9-1.7-0.9-3.5c0,0.9,0,0.9,1.7,0.9C705.5,561.8,705.5,563.6,704.6,563.6z M712.4,583.5h0.9
				c0,0.9,0,0.9-0.9,1.7h-0.9C711.6,584.4,712.4,584.4,712.4,583.5z M710.7,581.8h0.9v1.7C710.7,582.7,709.8,582.7,710.7,581.8z
				 M712.4,586.1c0-0.9-0.9-0.9-0.9-0.9v-0.9C711.6,585.3,712.4,585.3,712.4,586.1c1.7-0.9,0-2.6,1.7-1.7v1.7
				C712.4,585.3,713.3,586.1,712.4,586.1z M713.3,590.5c0.9-0.9,0.9-1.7,0.9-1.7C714.2,589.6,713.3,589.6,713.3,590.5z M597.9,630.4
				c-0.9,0-1.7-0.9-0.9-1.7h0.9V630.4z M601.4,627.8v-0.9c0.9,0,0.9,0.9,0.9,0.9H601.4z M679.4,607.8c0-0.9-0.9-0.9-1.7-1.7
				C678.6,606.1,680.3,607,679.4,607.8z M687.3,607c-0.9,0.9-1.7,0-0.9-0.9h0.9V607z M665.6,541.9h0.9
				C665.6,541,665.6,541,665.6,541.9z M490.3,587.9c0,0-0.9-0.9,0-0.9h-0.9l1.7-0.9c-3.5,1.7-9.5,1.7-12.1,3.5
				c-0.9,0-0.9-0.9-0.9-0.9c-0.9,0.9,0,0.9-0.9,0.9c-0.9-1.7-3.5,0-3.5,0.9s0.9-0.9,0.9,0.9v0.9H473c0.9-1.7-0.9-0.9-0.9-1.7
				c-1.7,0.9-4.3,0-4.3,1.7c0-0.9,0-1.7-0.9-0.9c0,0.9-0.9,0.9-1.7,1.7c-1.7-1.7-2.6,0.9-4.3,0v0.9c0.9,0,0.9,0.9,1.7,0.9v0.9
				c1.7,0,0-0.9,0.9-0.9v1.7h1.7c-0.9,0-0.9-0.9-0.9-1.7c0.9,0,0.9,0,1.7,0.9c0,0,0.9-0.9,1.7-0.9c0,0.9,0.9,1.7,0.9,0.9
				c0.9,0,0-1.7,0.9-1.7s0.9,0.9,0.9,1.7c1.7-0.9,3.5-0.9,5.2-0.9c0.9,0,0.9-0.9,0.9-1.7c0.9,0,0,0.9,0.9,0.9
				c0.9-0.9,0.9-1.7,1.7-2.6h0.9c-0.9,0-0.9,0-0.9,1.7c0.9-0.9,3.5-0.9,4.3-0.9c0.9-0.9-0.9-0.9,0-0.9c1.7,1.7,2.6-0.9,5.2-1.7h0.9
				v-0.9h0.9C489.4,588.7,489.4,588.7,490.3,587.9C489.4,588.7,489.4,587.9,490.3,587.9z M468.6,593.9c0.9,0,0.9,0.9,0.9,1.7
				C469.5,594.8,469.5,593.9,468.6,593.9z M472.1,594.8c-0.9,0-0.9-0.9-0.9-0.9h0.9V594.8z M474.7,591.3c0.9,0,1.7,0,2.6,0.9
				C476.4,592.2,475.6,592.2,474.7,591.3z M479.9,593.1c-0.9,0-1.7,0-1.7-0.9C479,592.2,480.8,592.2,479.9,593.1z M487.7,588.7
				 M488.6,587.9h-1.7c0-0.9,0-0.9,1.7-0.9V587.9z M582.3,562.7h0.9H582.3z"/>
			<path class="st4" d="M695.9,535.8C696.8,535.8,696.8,535.8,695.9,535.8C696.8,535.8,696.8,535.8,695.9,535.8z M696.8,533.2
				c-0.9,0,0-0.9-0.9-0.9c-1.7-0.9-1.7,0.9-2.6,0.9v0.9C695.9,534.1,696.8,533.2,696.8,533.2z M697.7,532.3c-0.9,0,0,0.9,0,0.9
				C696.8,533.2,697.7,533.2,697.7,532.3z M492,588.7h-2.6l0.9,1.7c0,0,0-0.9,0.9-0.9C491.2,589.6,492,589.6,492,588.7z
				 M578.8,564.4c0.9,0,1.7,0,1.7-0.9L578.8,564.4C579.7,564.4,578.8,564.4,578.8,564.4z"/>
			<path class="st4" d="M534.6,575.7c-4.3,0.9-9.5,3.5-14.7,3.5c-3.5,0.9-7.8,1.7-11.3,3.5c-0.9,0.9,0,0.9-0.9,0.9
				c-5.2-0.9-9.5,2.6-14.7,3.5c-0.9,0.9,0.9,0,0.9,1.7c0,0-1.7,0-1.7-0.9h-2.6c1.7,0,1.7,0.9,2.6,0.9c0,0,0-0.9,0.9-0.9v1.7h1.7
				c-0.9-0.9-1.7-0.9-1.7-0.9c1.7,0,0.9,1.7,1.7,0.9s-0.9,0-0.9-1.7c2.6,1.7,6.1,0.9,7.8-0.9c0.9,1.7,2.6-0.9,4.3,0
				c0.9-0.9-0.9,0-0.9-1.7h1.7c0,0.9,0,0.9,0.9,0.9c1.7,0,3.5-1.7,6.1-1.7c20-6.1,39.9-10.4,59.9-15.6h-0.9v-1.7
				c-0.9,0-0.9,0-0.9-0.9c-0.9,0-2.6,0.9-4.3,0.9C557.1,569.7,545.8,573.1,534.6,575.7z M508.5,584.4c0-0.9,0.9-0.9,0.9-0.9
				C510.3,583.5,509.4,585.3,508.5,584.4z M571.9,565.3h1.7v-0.9C571.9,563.6,571.9,564.4,571.9,565.3z M580.5,563.6
				C581.4,563.6,581.4,563.6,580.5,563.6C581.4,563.6,580.5,563.6,580.5,563.6z M696.8,535h0.9v-0.9L696.8,535
				C696.8,534.1,696.8,534.1,696.8,535z M577.1,564.4c-0.9,0.9,0,0.9-0.9,0.9h-2.6c0,0.9,0.9,1.7,0.9,1.7s-0.9-0.9,0-1.7
				c0.9,1.7,1.7,0.9,2.6,1.7c0.9-0.9,0.9-0.9,1.7-0.9v-0.9c-0.9-0.9-1.7,1.7-1.7,0.9s1.7-0.9,1.7-1.7c0.9,0,0.9,0,0.9,0.9
				c0,0,0-0.9-0.9-0.9h-0.9C578.8,563.6,577.1,564.4,577.1,564.4z M658.6,542.8 M581.4,566.2h-0.9c0,0.9,0.9,1.7,0.9,1.7V566.2z
				 M580.5,564.4c0.9,0,0.9-0.9,1.7-1.7C581.4,564.4,580.5,564.4,580.5,564.4 M582.3,562.7C582.3,562.7,582.3,563.6,582.3,562.7
				C582.3,563.6,582.3,563.6,582.3,562.7 M702.9,560.1C702.9,560.1,703.7,560.1,702.9,560.1C702.9,559.2,702.9,560.1,702.9,560.1
				 M695.1,535.8c0-0.9,0-0.9-0.9-0.9h-0.9c-0.9,0.9,1.7,0.9,0.9,1.7c-0.9,0-1.7,0-0.9-1.7c-5.2,0.9-9.5,3.5-15.6,3.5l-4.3,1.7
				c-1.7,0.9-4.3,0.9-6.1,1.7h0.9v0.9c-1.7-0.9-0.9,0.9-2.6,0.9c0-0.9,0.9-0.9,0.9-1.7c-1.7,0-3.5,0.9-5.2,0.9v0.9
				c0,0-0.9,0-0.9-0.9c-0.9,0.9,0.9,0,0.9,1.7c-0.9,0,0-0.9-1.7-0.9c-25.2,6.1-49.5,13-74.6,20v0.9H584c1.7,0.9-1.7,1.7,0,3.5
				c0.9,0,0-1.7,0.9-1.7c1.7,0.9,2.6-0.9,3.5,0c0.9-0.9,0.9,0,0-1.7h1.7v1.7c0,0,0.9,0,1.7-0.9c0-0.9-1.7,0-1.7-0.9h1.7
				c0,0-0.9,0-0.9,1.7c1.7-0.9,2.6-0.9,4.3,0c0.9,0,0.9-0.9,0.9-1.7c1.7,1.7,4.3-0.9,6.9-0.9c20-6.1,40.8-11.3,60.7-16.5
				c0.9-1.7,0-1.7-0.9-2.6c0.9,0,0.9-0.9,0.9-0.9v1.7c8.7-1.7,17.4-4.3,26-6.9c1.7-0.9,3.5-1.7,6.1-1.7c-0.9,0-2.6,0-4.3,0.9
				C693.3,536.7,694.2,535.8,695.1,535.8 M684.7,539.3v-1.7h1.7C686.4,538.4,685.5,538.4,684.7,539.3 M688.1,536.7
				C689,536.7,689,536.7,688.1,536.7C689,536.7,688.1,536.7,688.1,536.7 M574.5,567.9C573.6,567.1,573.6,567.9,574.5,567.9
				C573.6,567.9,574.5,568.8,574.5,567.9 M490.3,587C489.4,587,489.4,587,490.3,587 M459.9,598.3v-3.5c0,0,0-0.9-1.7-0.9
				C459.1,595.7,459.1,596.6,459.9,598.3 M459.9,594.8C460.8,594.8,460.8,594.8,459.9,594.8C460.8,594.8,460.8,594.8,459.9,594.8
				C460.8,594.8,460.8,594.8,459.9,594.8 M490.3,590.5C490.3,591.3,490.3,591.3,490.3,590.5C490.3,591.3,490.3,591.3,490.3,590.5"/>
		</g>
		<rect x="299.2" y="380.8" class="st1" width="291.4" height="13.2"/>
		<rect x="299.2" y="413.2" class="st1" width="291.4" height="13.2"/>
		<rect x="299.2" y="445.6" class="st1" width="211.9" height="13.2"/>
		<rect x="299.2" y="478" class="st1" width="136.9" height="13.2"/>
		<path class="st1" d="M301.5,516.5v2.5v17.7v2.5V557v2.5v17.7v2.5v17.7v2.5v17.7v2.5V638v2.5v17.7v2.5v17.7v2.5v15.2v2.5h134.6
			v-2.5V681v-2.5v-17.7v-2.5v-17.7V638v-17.7v-2.5V600v-2.5v-17.7v-2.5v-17.7V557v-17.7v-2.5v-17.7v-2.5H301.5z M303.5,519.1h65.4
			v17.7h-65.4V519.1z M303.5,539.3h65.4V557h-65.4V539.3z M303.5,559.6h65.4v17.7h-65.4V559.6z M303.5,579.8h65.4v17.7h-65.4V579.8z
			 M303.5,600h65.4v17.7h-65.4V600z M303.5,620.3h65.4V638h-65.4V620.3z M303.5,640.5h65.4v17.7h-65.4V640.5z M303.5,660.8h65.4
			v17.7h-65.4V660.8z M303.5,696.2V681h65.4v15.2H303.5z M434.2,696.2h-63.4V681h63.4V696.2z M434.2,678.5h-63.4v-17.7h63.4V678.5z
			 M434.2,658.2h-63.4v-17.7h63.4V658.2z M434.2,638h-63.4v-17.7h63.4V638z M434.2,617.8h-63.4V600h63.4V617.8z M434.2,597.5h-63.4
			v-17.7h63.4V597.5z M434.2,577.3h-63.4v-17.7h63.4V577.3z M434.2,557h-63.4v-17.7h63.4V557z M434.2,536.8h-63.4v-17.7h63.4V536.8z
			"/>
	</g>
</g>
</svg>
