<?xml version="1.0" encoding="utf-8"?>
<!-- Generator: Adobe Illustrator 22.1.0, SVG Export Plug-In . SVG Version: 6.00 Build 0)  -->
<svg version="1.1" id="图层_1" xmlns="http://www.w3.org/2000/svg" xmlns:xlink="http://www.w3.org/1999/xlink" x="0px" y="0px"
	 viewBox="0 0 1000 1000" style="enable-background:new 0 0 1000 1000;" xml:space="preserve">
<style type="text/css">
	.st0{fill:url(#SVGID_1_);}
	.st1{fill:#90A6B4;}
	.st2{fill:#555E60;}
	.st3{fill:#EDF5F7;}
	.st4{fill:#2D3742;}
	.st5{fill:#DC544F;}
</style>
<g>
	<g>
		<linearGradient id="SVGID_1_" gradientUnits="userSpaceOnUse" x1="499.9466" y1="50.0421" x2="499.9466" y2="952.6248">
			<stop  offset="0" style="stop-color:#F9F9F9"/>
			<stop  offset="1" style="stop-color:#EDEDED"/>
		</linearGradient>
		<path class="st0" d="M800,950.1H199.9c-82.9,0-150-67.2-150-150V200.1c0-82.9,67.2-150,150-150H800c82.9,0,150,67.2,150,150v600.1
			C950,883,882.8,950.1,800,950.1z"/>
	</g>
	<g>
		<rect x="262.1" y="260.2" class="st1" width="409.5" height="547.6"/>
		<rect x="309.9" y="217.2" class="st2" width="409.5" height="547.6"/>
		<rect x="300.1" y="226.9" class="st3" width="409.5" height="547.6"/>
		<path class="st4" d="M682.5,257.3l4.9-54.3c0.5-5.7-4-10.6-9.7-10.6h-97.3c-5.7,0-10.2,4.9-9.7,10.6l5,54.3H682.5z"/>
		<path class="st1" d="M613.4,325.7c0.4,2.7-0.7,5.3-2.8,6.8c-4.1,2.9-6.3,6.8-6.3,10.9c0,9.5,11.8,18.2,24.8,18.2
			c13,0,24.8-8.7,24.8-18.2c0-4.1-2.2-7.9-6.3-10.9c-2.1-1.5-3.2-4.2-2.8-6.8l11.7-76l-5.6-0.2L639,324.8c-0.8,4.8,1.2,9.6,5.1,12.4
			c1.5,1.1,3.9,3.3,3.9,6.1c0,5.6-8.4,12.4-18.9,12.4c-10.5,0-18.9-6.8-18.9-12.4c0-2.9,2.4-5.1,3.9-6.1c3.9-2.8,5.9-7.6,5.1-12.4
			L608,249.5l-6.3,0.2L613.4,325.7z"/>
		<path class="st1" d="M674.6,722.5h-330c-0.5,0-1-0.1-1.3-0.3c-0.4-0.2-0.5-0.5-0.5-0.8v-7.1c0-0.3,0.2-0.6,0.5-0.8
			c0.4-0.2,0.8-0.3,1.3-0.3h314.4V540.3c0-0.3,0.2-0.6,0.5-0.8c0.4-0.2,0.8-0.3,1.3-0.3h11.8c0.5,0,1,0.1,1.3,0.3
			c0.4,0.2,0.5,0.5,0.5,0.8V722.5z"/>
		<path class="st1" d="M560.6,700.7h-62.2V542.5c0-0.9,0.5-1.7,1.6-2.4c1.1-0.7,2.5-1,4-1h51c1.4,0,2.9,0.3,4,1
			c1.1,0.7,1.6,1.5,1.6,2.4L560.6,700.7z"/>
		<path class="st1" d="M638.3,700.7h-62.2V589.1c0-0.9,0.5-1.7,1.6-2.4c1.1-0.7,2.5-1,4-1h51c1.4,0,2.9,0.3,4,1
			c1.1,0.7,1.6,1.5,1.6,2.4V700.7z"/>
		<path class="st1" d="M482.8,635.7v65h-62.2v-65c0-0.9,0.5-1.7,1.6-2.4c1.1-0.7,2.5-1,4-1h51c1.4,0,2.9,0.3,4,1
			S482.8,634.9,482.8,635.7L482.8,635.7z"/>
		<path class="st5" d="M405,682.3v18.4h-62.2v-18.4c0-0.9,0.5-1.7,1.6-2.4c1.1-0.7,2.5-1,4-1h51c1.4,0,2.9,0.3,4,1
			C404.5,680.6,405,681.5,405,682.3L405,682.3z"/>
		<path class="st1" d="M346.7,293.9v202.9h131.1V293.9H346.7z M472.3,492.6H352.1V298.2h120.1V492.6z"/>
		<rect x="363.6" y="323.5" class="st1" width="101.5" height="4.2"/>
		<rect x="363.6" y="340.4" class="st1" width="101.5" height="4.2"/>
		<rect x="363.6" y="357.4" class="st1" width="101.5" height="4.2"/>
		<rect x="363.6" y="374.3" class="st1" width="101.5" height="4.2"/>
		<rect x="363.6" y="391.2" class="st1" width="101.5" height="4.2"/>
		<rect x="363.6" y="408.1" class="st1" width="101.5" height="4.2"/>
		<rect x="363.6" y="425" class="st1" width="101.5" height="4.2"/>
		<rect x="363.6" y="441.9" class="st1" width="101.5" height="4.2"/>
		<rect x="363.6" y="458.8" class="st1" width="101.5" height="4.2"/>
		<rect x="490.4" y="437.7" class="st1" width="12.7" height="4.6"/>
		<rect x="490.4" y="455.9" class="st1" width="12.7" height="4.6"/>
		<rect x="490.4" y="474.1" class="st1" width="12.7" height="4.6"/>
		<rect x="490.4" y="492.3" class="st1" width="12.7" height="4.6"/>
		<rect x="515.8" y="437.7" class="st1" width="169.1" height="4.6"/>
		<rect x="515.8" y="455.9" class="st1" width="169.1" height="4.6"/>
		<rect x="515.8" y="474.1" class="st1" width="169.1" height="4.6"/>
		<rect x="515.8" y="492.3" class="st1" width="169.1" height="4.6"/>
	</g>
</g>
</svg>
