<?xml version="1.0" encoding="utf-8"?>
<!-- Generator: Adobe Illustrator 22.1.0, SVG Export Plug-In . SVG Version: 6.00 Build 0)  -->
<svg version="1.1" id="图层_1" xmlns="http://www.w3.org/2000/svg" xmlns:xlink="http://www.w3.org/1999/xlink" x="0px" y="0px"
	 viewBox="0 0 1000 1000" style="enable-background:new 0 0 1000 1000;" xml:space="preserve">
<style type="text/css">
	.st0{fill:url(#SVGID_1_);}
	.st1{fill:#555E60;}
	.st2{fill:#EDF5F7;}
	.st3{fill:#90A6B4;}
	.st4{fill:#DC544F;}
</style>
<g>
	<g>
		<linearGradient id="SVGID_1_" gradientUnits="userSpaceOnUse" x1="500.0119" y1="49.5236" x2="500.0119" y2="951.9752">
			<stop  offset="0" style="stop-color:#F9F9F9"/>
			<stop  offset="1" style="stop-color:#EDEDED"/>
		</linearGradient>
		<path class="st0" d="M800,949.5H200c-82.8,0-150-67.2-150-150v-600c0-82.8,67.2-150,150-150h600c82.8,0,150,67.2,150,150v600
			C950,882.3,882.8,949.5,800,949.5z"/>
	</g>
	<g>
		<g>
			<path class="st1" d="M758.9,383.3c0,0,22.6,232.3-63.4,330.4S505.5,826.8,505.5,826.8L676,409L758.9,383.3z"/>
			<path class="st2" d="M316.9,200.8L504,234l191.6,179.5c0,0,12.1,220.2-39.2,313.8S507,826.8,507,826.8s-137.3-134.3-172-340.9
				S316.9,200.8,316.9,200.8z"/>
			<polygon class="st3" points="377.3,163.1 558.3,196.3 505.5,234 316.9,200.8 			"/>
			<polygon class="st3" points="758.9,383.3 697.1,413.5 505.5,234 558.3,196.3 			"/>
		</g>
		<g>
			<path class="st1" d="M588.5,636c-1.6-7.7-8.8-15.4-16.5-17l-5.5-1.1c-13.2-3.8-25.3-13.2-33-25.8c-7.7-13.2-9.3-28-6-41.8
				l1.6-5.5c2.2-7.7-0.5-17.6-6.6-23.1c0,0-5.5-4.4-20.3-13.2c-15.4-8.8-22-11-22-11c-7.1-2.7-17.6,0-23.1,5.5l-3.8,3.8
				c-10.4,9.9-24.2,15.4-39,15.4c-14.8,0-29.1-5.5-39.6-15.4l-3.8-4.4c-5.5-5.5-15.9-8.2-23.1-5.5c0,0-6.6,2.2-22,11
				c-14.8,9.3-20.3,13.7-20.3,13.7c-6,4.9-8.8,15.4-6.6,22.5l1.6,5.5c3.3,13.7,1.6,28.6-6,41.8c-7.7,13.2-19.8,22-33,26.4L256,619
				c-7.7,1.6-14.8,9.3-16.5,17c0,0-1.1,7.1-1.1,24.2c0,17.6,1.1,24.2,1.1,24.2c1.6,7.7,8.8,15.4,16.5,17l5.5,1.1
				c13.7,3.8,25.8,13.2,33,26.4c7.7,13.2,9.3,28,6,41.8l-1.6,5.5c-2.2,7.7,0.5,17.6,6.6,23.1c0,0,5.5,4.4,20.3,13.2
				c15.4,8.8,22,11,22,11c7.1,2.7,17.6,0,23.1-5.5l3.8-3.8c10.4-9.9,24.2-15.4,39.6-15.4c15.4,0,29.1,6,39.6,15.9l3.8,3.8
				c5.5,5.5,15.9,8.2,23.1,5.5c0,0,6.6-2.2,22-11c15.4-8.8,20.3-13.2,20.3-13.2c6-4.9,8.8-15.4,6.6-23.1l-1.6-5.5
				c-3.3-13.7-1.6-28.6,6-41.8c7.7-13.2,19.8-22,33-26.4l5.5-1.1c7.7-1.6,14.8-9.3,16.5-17c0,0,1.1-7.1,1.1-24.2
				C589.6,643.2,588.5,636,588.5,636L588.5,636z M413.7,730.6c-38.5,0-69.8-31.3-69.8-69.8s31.3-69.8,70.3-69.8
				c38.5,0,70.3,31.3,70.3,70.3C484.1,699.2,452.7,730.6,413.7,730.6L413.7,730.6z"/>
			<g>
				<path class="st3" d="M599.3,646.9c-1.4-6.4-6.5-12.7-12.6-15.6c0.8,1.6,1.4,3.2,1.8,4.8c0,0,1.1,7.1,1.6,24.7
					c0,17-1.1,24.2-1.1,24.2c-1.6,7.7-8.8,15.4-16.5,17l-5.5,1.1c-13.2,4.4-25.3,13.2-33,26.4c-7.7,13.2-9.3,28-6,41.8l1.6,5.5
					c2.2,7.7-0.5,18.1-6.6,23.1c0,0-4.9,4.4-20.3,13.2c-15.4,8.8-22,11-22,11c-7.1,2.7-17.6,0-23.1-5.5l-3.8-3.8
					c-10.4-9.9-24.2-15.9-39.6-15.9s-29.1,5.5-39.6,15.4l-3.8,3.8c-5.5,5.5-15.9,8.2-23.1,5.5c0,0-6.6-2.2-22-11
					c-6.4-3.8-11-6.7-14.2-8.9c1.2,2.5,2.8,4.8,4.7,6.6c0,0,5.5,4.4,20.3,13.2c15.4,8.8,22,11,22,11c7.1,2.7,17.6,0,23.1-5.5
					l3.8-3.8c10.4-9.9,24.2-15.4,39.6-15.4c15.4,0,29.1,6,39.6,15.9l3.8,3.8c5.5,5.5,15.9,8.2,23.1,5.5c0,0,6.6-2.2,22-11
					c15.4-8.8,20.3-13.2,20.3-13.2c6-4.9,8.8-15.4,6.6-23.1l-1.6-5.5c-3.3-13.7-1.6-28.6,6-41.8c7.7-13.2,19.8-22,33-26.4l5.5-1.1
					c7.7-1.6,14.8-9.3,16.5-17c0,0,1.1-7.1,1.1-24.2C600.4,654,599.3,646.9,599.3,646.9z"/>
				<path class="st3" d="M370.1,715.2c-9.6-12-15.4-27.1-15.4-43.6c0-38.5,31.3-69.8,70.3-69.8c16.6,0,31.9,5.8,44,15.5
					c-13-16.1-32.8-26.4-54.8-26.4c-39,0-70.3,31.3-70.3,69.8C343.9,682.8,354.2,702.4,370.1,715.2z"/>
				<path class="st3" d="M529.1,544.8l-1.6,5.5c-3.3,13.7-1.6,28.6,6,41.8c3.9,6.4,9,12,14.8,16.5c-1.4-1.8-2.7-3.6-3.9-5.6
					c-7.7-13.2-9.3-28-6-41.8l1.6-5.5c2.2-7.7-0.5-17.6-6.6-23.1c0,0-1.9-1.5-6.1-4.3C529.8,533.4,530.6,539.6,529.1,544.8z"/>
				<path class="st3" d="M261.5,702.5l-5.5-1.1c-1.3-0.3-2.6-0.8-3.9-1.4c3,5.9,8.6,11,14.7,12.3l5.5,1.1c6.4,1.8,12.4,4.8,17.7,8.8
					C282.8,712.6,272.7,705.7,261.5,702.5z"/>
			</g>
			<circle class="st4" cx="413.9" cy="663.4" r="25.4"/>
		</g>
	</g>
</g>
</svg>
