<?xml version="1.0" encoding="utf-8"?>
<!-- Generator: Adobe Illustrator 22.1.0, SVG Export Plug-In . SVG Version: 6.00 Build 0)  -->
<svg version="1.1" id="图层_1" xmlns="http://www.w3.org/2000/svg" xmlns:xlink="http://www.w3.org/1999/xlink" x="0px" y="0px"
	 viewBox="0 0 1000 1000" style="enable-background:new 0 0 1000 1000;" xml:space="preserve">
<style type="text/css">
	.st0{fill:url(#SVGID_1_);}
	.st1{fill:#555E60;}
	.st2{fill:#90A6B4;}
	.st3{fill:#EDF5F7;}
	.st4{fill:#DC544F;}
</style>
<g>
	<g>
		<linearGradient id="SVGID_1_" gradientUnits="userSpaceOnUse" x1="499.7306" y1="49.5388" x2="499.7306" y2="952.4768">
			<stop  offset="0" style="stop-color:#F9F9F9"/>
			<stop  offset="1" style="stop-color:#EDEDED"/>
		</linearGradient>
		<path class="st0" d="M799.9,950H199.6c-82.9,0-150.1-67.2-150.1-150.1V199.6c0-82.9,67.2-150.1,150.1-150.1h600.3
			c82.9,0,150.1,67.2,150.1,150.1v600.3C950,882.8,882.8,950,799.9,950z"/>
	</g>
	<g>
		<path class="st1" d="M786.4,725.1H295.5V378.5c0-10.1,8.2-18.2,18.2-18.2h452.8c11,0,19.8,8.9,19.8,19.8V725.1z"/>
		<rect x="322.7" y="330.3" class="st2" width="60.9" height="90.5"/>
		<rect x="383.7" y="330.3" class="st1" width="13.4" height="90.5"/>
		<rect x="397.3" y="314.6" class="st2" width="60.9" height="106.3"/>
		<rect x="458.3" y="314.6" class="st1" width="13.4" height="106.3"/>
		<rect x="471.8" y="272.5" class="st2" width="287.5" height="449.1"/>
		<polygon class="st1" points="786.4,727 295.5,727 213.1,408.5 245.9,375.5 405.1,375.5 432.5,405.7 704,405.7 		"/>
		<polygon class="st3" points="298.3,722.9 217.9,409.5 247.6,379.7 403.3,379.7 430.7,409.8 701.1,409.8 780.4,722.9 		"/>
		<path class="st1" d="M633.1,627.6H478.2c-7.3,0-13.2-5.9-13.2-13.2v-96.1c0-7.3,5.9-13.2,13.2-13.2h154.9
			c7.3,0,13.2,5.9,13.2,13.2v96.1C646.3,621.7,640.4,627.6,633.1,627.6z"/>
		<path class="st3" d="M478.2,625.2c-5.9,0-10.8-4.8-10.8-10.8v-96.1c0-5.9,4.8-10.8,10.8-10.8h154.9c5.9,0,10.8,4.8,10.8,10.8v96.1
			c0,5.9-4.8,10.8-10.8,10.8H478.2z"/>
		<path class="st4" d="M626.4,545.2H485.8c-2,0-3.6-1.6-3.6-3.6l0,0c0-2,1.6-3.6,3.6-3.6h140.5c2,0,3.6,1.6,3.6,3.6l0,0
			C630,543.6,628.4,545.2,626.4,545.2z"/>
		<path class="st4" d="M575.5,569.4h-89.7c-2,0-3.6-1.6-3.6-3.6l0,0c0-2,1.6-3.6,3.6-3.6h89.7c2,0,3.6,1.6,3.6,3.6l0,0
			C579.1,567.8,577.5,569.4,575.5,569.4z"/>
		<path class="st4" d="M626.4,569.4h-26.7c-2,0-3.6-1.6-3.6-3.6l0,0c0-2,1.6-3.6,3.6-3.6h26.7c2,0,3.6,1.6,3.6,3.6l0,0
			C630,567.8,628.4,569.4,626.4,569.4z"/>
		<path class="st4" d="M510.1,593.7h-24.2c-2,0-3.6-1.6-3.6-3.6l0,0c0-2,1.6-3.6,3.6-3.6h24.2c2,0,3.6,1.6,3.6,3.6l0,0
			C513.7,592,512.1,593.7,510.1,593.7z"/>
		<path class="st4" d="M604.6,593.7h-67.8c-2,0-3.6-1.6-3.6-3.6l0,0c0-2,1.6-3.6,3.6-3.6h67.8c2,0,3.6,1.6,3.6,3.6l0,0
			C608.2,592,606.6,593.7,604.6,593.7z"/>
	</g>
</g>
</svg>
