<?xml version="1.0" encoding="utf-8"?>
<!-- Generator: Adobe Illustrator 22.1.0, SVG Export Plug-In . SVG Version: 6.00 Build 0)  -->
<svg version="1.1" id="图层_1" xmlns="http://www.w3.org/2000/svg" xmlns:xlink="http://www.w3.org/1999/xlink" x="0px" y="0px"
	 viewBox="0 0 1000 1000" style="enable-background:new 0 0 1000 1000;" xml:space="preserve">
<style type="text/css">
	.st0{fill:url(#SVGID_1_);}
	.st1{fill:#555E60;}
	.st2{fill:#EDF5F7;}
	.st3{opacity:0.5;fill:#90A6B4;}
	.st4{fill:#90A6B4;}
	.st5{fill:#DC544F;}
</style>
<g>
	<g>
		<linearGradient id="SVGID_1_" gradientUnits="userSpaceOnUse" x1="499.9863" y1="49.5236" x2="499.9863" y2="952.0266">
			<stop  offset="0" style="stop-color:#F9F9F9"/>
			<stop  offset="1" style="stop-color:#EDEDED"/>
		</linearGradient>
		<path class="st0" d="M800,949.6H200c-82.8,0-150-67.2-150-150v-600c0-82.8,67.2-150,150-150h600c82.8,0,150,67.2,150,150v600
			C950,882.4,882.8,949.6,800,949.6z"/>
	</g>
	<g>
		<path class="st1" d="M731.8,277.9H268.1c-16.4,0-29.8,13.3-29.8,29.8v383.8c0,16.4,13.3,29.8,29.8,29.8h463.7
			c16.4,0,29.8-13.3,29.8-29.8V307.7C761.6,291.2,748.3,277.9,731.8,277.9z"/>
		<path class="st2" d="M245.4,693.1V391.7c0-10.9,8.9-19.8,19.8-19.8h469.6c10.9,0,19.8,8.9,19.8,19.8v301.5
			c0,10.9-8.9,19.8-19.8,19.8H265.2C254.3,712.9,245.4,704,245.4,693.1z"/>
		<path class="st3" d="M614.7,668.2V433.3c0-4.4,3.6-7.9,7.9-7.9h17.4c4.4,0,7.9,3.6,7.9,7.9v234.8c0,4.4-3.6,7.9-7.9,7.9h-17.4
			C618.3,676.1,614.7,672.5,614.7,668.2z"/>
		<path class="st3" d="M479.1,668.3V433.5c0-4.4,3.6-7.9,7.9-7.9h17.4c4.4,0,7.9,3.6,7.9,7.9v234.8c0,4.4-3.6,7.9-7.9,7.9H487
			C482.7,676.3,479.1,672.7,479.1,668.3z"/>
		<path class="st3" d="M343.5,668.5V433.6c0-4.4,3.6-7.9,7.9-7.9h17.4c4.4,0,7.9,3.6,7.9,7.9v234.8c0,4.4-3.6,7.9-7.9,7.9h-17.4
			C347.1,676.4,343.5,672.8,343.5,668.5z"/>
		<circle class="st4" cx="495.8" cy="479.4" r="35.8"/>
		<circle class="st2" cx="304.1" cy="326.1" r="18.9"/>
		<circle class="st2" cx="374.8" cy="326.1" r="18.9"/>
		<circle class="st2" cx="445.5" cy="326.1" r="18.9"/>
		<path class="st1" d="M495.8,501.7c-17.5,0-32-12.5-35.2-29.1c-0.4,2.2-0.7,4.4-0.7,6.7c0,19.8,16,35.8,35.8,35.8
			c19.8,0,35.8-16,35.8-35.8c0-2.3-0.2-4.5-0.7-6.7C527.8,489.2,513.2,501.7,495.8,501.7z"/>
		<circle class="st4" cx="361.4" cy="474.9" r="35.8"/>
		<circle class="st5" cx="630.1" cy="600.3" r="35.8"/>
		<path class="st1" d="M361.4,497.3c-17.5,0-32-12.5-35.2-29.1c-0.4,2.2-0.7,4.4-0.7,6.7c0,19.8,16,35.8,35.8,35.8
			s35.8-16,35.8-35.8c0-2.3-0.2-4.5-0.7-6.7C393.4,484.7,378.9,497.3,361.4,497.3z"/>
	</g>
</g>
</svg>
