<?xml version="1.0" encoding="utf-8"?>
<!-- Generator: Adobe Illustrator 22.1.0, SVG Export Plug-In . SVG Version: 6.00 Build 0)  -->
<svg version="1.1" id="图层_1" xmlns="http://www.w3.org/2000/svg" xmlns:xlink="http://www.w3.org/1999/xlink" x="0px" y="0px"
	 viewBox="0 0 1000 1000" style="enable-background:new 0 0 1000 1000;" xml:space="preserve">
<style type="text/css">
	.st0{fill:url(#SVGID_1_);}
	.st1{fill:#555E60;}
	.st2{fill:#EDF5F7;}
	.st3{fill:#90A6B4;}
	.st4{fill:#DC544F;}
</style>
<g>
	<g>
		<linearGradient id="SVGID_1_" gradientUnits="userSpaceOnUse" x1="500" y1="50" x2="500" y2="952.4755">
			<stop  offset="0" style="stop-color:#F9F9F9"/>
			<stop  offset="1" style="stop-color:#EDEDED"/>
		</linearGradient>
		<path class="st0" d="M800,950H200c-82.8,0-150-67.2-150-150V200c0-82.8,67.2-150,150-150h600c82.8,0,150,67.2,150,150v600
			C950,882.8,882.8,950,800,950z"/>
	</g>
	<g>
		<path class="st1" d="M659.5,216.8H372.8l-94.5,94.5v406c0,12,9.7,21.8,21.8,21.8h359.4c12,0,21.8-9.7,21.8-21.8V238.5
			C681.2,226.5,671.5,216.8,659.5,216.8z"/>
		<path class="st2" d="M300,734.1c-9.3,0-16.8-7.5-16.8-16.8v-404l91.6-91.6h284.6c9.3,0,16.8,7.5,16.8,16.8v478.8
			c0,9.3-7.5,16.8-16.8,16.8H300z"/>
		<path class="st3" d="M278.3,311.3v406c0,12,9.7,21.8,21.8,21.8h3.1V311.3H278.3z"/>
		<path class="st1" d="M351,311.3c12,0,21.8-9.7,21.8-21.8v-72.8l-94.5,94.5H351z"/>
		<circle class="st3" cx="375.3" cy="378.4" r="22.4"/>
		<circle class="st4" cx="375.3" cy="458" r="22.4"/>
		<circle class="st3" cx="375.3" cy="537.6" r="22.4"/>
		<circle class="st4" cx="375.3" cy="617.2" r="22.4"/>
		<rect x="422.5" y="366" class="st3" width="184.1" height="14.9"/>
		<rect x="422.5" y="450.6" class="st3" width="98" height="14.9"/>
		<polygon class="st3" points="523,545.1 424,545.1 424,530.2 536.7,530.2 		"/>
		<rect x="422.5" y="619.7" class="st3" width="29.8" height="14.9"/>
		<g>
			<path class="st1" d="M785.2,575.4c-1.5-6.9-7.9-13.7-14.7-15.2l-4.9-1c-11.8-3.4-22.6-11.8-29.5-23.1c-6.9-11.8-8.3-25-5.4-37.3
				l1.5-4.9c2-6.9-0.5-15.7-5.9-20.6c0,0-4.9-3.9-18.2-11.8c-13.7-7.9-19.6-9.8-19.6-9.8c-6.4-2.5-15.7,0-20.6,4.9l-3.4,3.4
				c-9.3,8.8-21.6,13.7-34.9,13.7s-26-4.9-35.4-13.7l-3.4-3.9c-4.9-4.9-14.2-7.4-20.6-4.9c0,0-5.9,2-19.6,9.8
				c-13.3,8.3-18.2,12.3-18.2,12.3c-5.4,4.4-7.9,13.7-5.9,20.1l1.5,4.9c2.9,12.3,1.5,25.5-5.4,37.3s-17.7,19.6-29.5,23.6l-4.9,1
				c-6.9,1.5-13.3,8.3-14.7,15.2c0,0-1,6.4-1,21.6c0,15.7,1,21.6,1,21.6c1.5,6.9,7.9,13.7,14.7,15.2l4.9,1
				c12.3,3.4,23.1,11.8,29.5,23.6c6.9,11.8,8.3,25,5.4,37.3l-1.5,4.9c-2,6.9,0.5,15.7,5.9,20.6c0,0,4.9,3.9,18.2,11.8
				c13.7,7.9,19.6,9.8,19.6,9.8c6.4,2.5,15.7,0,20.6-4.9l3.4-3.4c9.3-8.8,21.6-13.7,35.4-13.7s26,5.4,35.4,14.2l3.4,3.4
				c4.9,4.9,14.2,7.4,20.6,4.9c0,0,5.9-2,19.6-9.8c13.7-7.9,18.2-11.8,18.2-11.8c5.4-4.4,7.9-13.7,5.9-20.6l-1.5-4.9
				c-2.9-12.3-1.5-25.5,5.4-37.3s17.7-19.6,29.5-23.6l4.9-1c6.9-1.5,13.3-8.3,14.7-15.2c0,0,1-6.4,1-21.6
				C786.2,581.8,785.2,575.4,785.2,575.4L785.2,575.4z M629.1,659.9c-34.4,0-62.4-28-62.4-62.4c0-34.4,28-62.4,62.8-62.4
				c34.4,0,62.8,28,62.8,62.8C691.9,631.9,663.9,659.9,629.1,659.9L629.1,659.9z"/>
			<g>
				<path class="st3" d="M794.9,585.1c-1.2-5.7-5.8-11.3-11.3-14c0.7,1.4,1.3,2.8,1.6,4.3c0,0,1,6.4,1.5,22.1c0,15.2-1,21.6-1,21.6
					c-1.5,6.9-7.9,13.7-14.7,15.2l-4.9,1c-11.8,3.9-22.6,11.8-29.5,23.6c-6.9,11.8-8.3,25-5.4,37.3l1.5,4.9c2,6.9-0.5,16.2-5.9,20.6
					c0,0-4.4,3.9-18.2,11.8c-13.7,7.9-19.6,9.8-19.6,9.8c-6.4,2.5-15.7,0-20.6-4.9l-3.4-3.4c-9.3-8.8-21.6-14.2-35.4-14.2
					s-26,4.9-35.4,13.7l-3.4,3.4c-4.9,4.9-14.2,7.4-20.6,4.9c0,0-5.9-2-19.6-9.8c-5.7-3.4-9.8-6-12.7-7.9c1.1,2.2,2.5,4.3,4.2,5.9
					c0,0,4.9,3.9,18.2,11.8c13.7,7.9,19.6,9.8,19.6,9.8c6.4,2.5,15.7,0,20.6-4.9l3.4-3.4c9.3-8.8,21.6-13.7,35.4-13.7
					s26,5.4,35.4,14.2l3.4,3.4c4.9,4.9,14.2,7.4,20.6,4.9c0,0,5.9-2,19.6-9.8c13.7-7.9,18.2-11.8,18.2-11.8
					c5.4-4.4,7.9-13.7,5.9-20.6l-1.5-4.9c-2.9-12.3-1.5-25.5,5.4-37.3c6.9-11.8,17.7-19.6,29.5-23.6l4.9-1
					c6.9-1.5,13.3-8.3,14.7-15.2c0,0,1-6.4,1-21.6C795.9,591.5,794.9,585.1,794.9,585.1z"/>
				<path class="st3" d="M590.1,646.1c-8.6-10.7-13.7-24.2-13.7-38.9c0-34.4,28-62.4,62.8-62.4c14.8,0,28.5,5.2,39.3,13.9
					c-11.6-14.4-29.3-23.6-49-23.6c-34.9,0-62.8,28-62.8,62.4C566.7,617.2,575.9,634.7,590.1,646.1z"/>
				<path class="st3" d="M732.2,493.9l-1.5,4.9c-2.9,12.3-1.5,25.5,5.4,37.3c3.5,5.8,8,10.7,13.2,14.7c-1.2-1.6-2.4-3.3-3.5-5
					c-6.9-11.8-8.3-25-5.4-37.3l1.5-4.9c2-6.9-0.5-15.7-5.9-20.6c0,0-1.7-1.3-5.4-3.8C732.8,483.8,733.5,489.3,732.2,493.9z"/>
				<path class="st3" d="M493.1,634.8l-4.9-1c-1.2-0.3-2.3-0.7-3.5-1.3c2.6,5.2,7.7,9.8,13.1,10.9l4.9,1c5.7,1.6,11.1,4.3,15.8,7.9
					C512.1,643.8,503.1,637.7,493.1,634.8z"/>
			</g>
			<circle class="st1" cx="629.2" cy="599.9" r="22.7"/>
		</g>
	</g>
</g>
</svg>
