<?xml version="1.0" encoding="utf-8"?>
<!-- Generator: Adobe Illustrator 22.1.0, SVG Export Plug-In . SVG Version: 6.00 Build 0)  -->
<svg version="1.1" id="图层_1" xmlns="http://www.w3.org/2000/svg" xmlns:xlink="http://www.w3.org/1999/xlink" x="0px" y="0px"
	 viewBox="0 0 1000 1000" style="enable-background:new 0 0 1000 1000;" xml:space="preserve">
<style type="text/css">
	.st0{fill:url(#SVGID_1_);}
	.st1{fill:#555E60;}
	.st2{fill:#EDF5F7;}
	.st3{fill:#90A6B4;}
	.st4{fill:#DC544F;}
</style>
<g>
	<g>
		<linearGradient id="SVGID_1_" gradientUnits="userSpaceOnUse" x1="499.5489" y1="50.5388" x2="499.5489" y2="952.4741">
			<stop  offset="0" style="stop-color:#F9F9F9"/>
			<stop  offset="1" style="stop-color:#EDEDED"/>
		</linearGradient>
		<path class="st0" d="M799.4,950H199.7c-82.8,0-149.9-67.1-149.9-149.9V200.4c0-82.8,67.1-149.9,149.9-149.9h599.6
			c82.8,0,149.9,67.1,149.9,149.9v599.6C949.3,882.9,882.2,950,799.4,950z"/>
	</g>
	<g>
		<path class="st1" d="M797,727.5H202.1v-425c0-16.2,13.2-29.4,29.4-29.4h536.1c16.2,0,29.4,13.2,29.4,29.4V727.5z"/>
		<rect x="205.6" y="396.7" class="st2" width="588" height="325.6"/>
		<rect x="205.6" y="458.4" class="st3" width="588" height="7.7"/>
		
			<rect x="208.7" y="555.7" transform="matrix(-1.836970e-16 1 -1 -1.836970e-16 931.0682 188.0092)" class="st3" width="325.6" height="7.7"/>
		<rect x="205.6" y="517.3" class="st3" width="588" height="7.7"/>
		<rect x="205.6" y="576.2" class="st3" width="588" height="7.7"/>
		<rect x="205.6" y="635.1" class="st3" width="588" height="7.7"/>
		<g>
			<path class="st2" d="M393.1,321.6H406v10.5h-12.9v32.8c0,1.3,0.2,2.4,0.9,3.1c0.7,0.7,1.6,1,2.9,1h7.6v10.5h-9.8
				c-5,0-8.7-1.3-11.1-4c-2.2-2.5-3.4-5.9-3.4-10.7v-32.8h-10.4v-10.5h10.4v-13.5l12.8-5.3V321.6z"/>
			<path class="st2" d="M460.9,326.4c3.6,3.7,5.4,9.1,5.4,16.2v37h-11.9v-7.6c-2.2,2.9-5,5-8.3,6.6c-3.7,1.7-8.1,2.6-13.1,2.6
				c-6.1,0-10.8-1.6-14.2-4.6c-3.6-3.1-5.4-7.1-5.4-11.9c0-6.5,2.5-11.6,7.6-15c4.7-3.4,11.3-5.2,19.9-5.4l12.7-0.3v-2.2
				c0-7.6-4.2-11.3-12.4-11.3c-3.6,0-6.4,0.6-8.5,1.9c-2.5,1.5-4.1,3.7-4.8,6.7l-12.7-1c1.2-6.4,4.4-11.1,9.4-14
				c4.3-2.7,10.1-3.9,17.5-3.9C450.4,320,456.8,322.1,460.9,326.4z M441.7,353.4c-10.2,0.2-15.3,3.8-15.3,10.8c0,2,0.8,3.7,2.6,5
				c1.8,1.3,4,2.1,6.8,2.1c4.9,0,9.1-1.5,12.4-4.3c3.4-2.9,5.2-6.6,5.2-11.1v-2.9L441.7,353.4z"/>
			<path class="st2" d="M492.5,297.9v31.6c4.7-6.4,10.5-9.5,17.3-9.5c8.3,0,14.8,3,19.6,9.1c4.4,5.6,6.6,12.7,6.6,21.2
				c0,8.9-2.2,16.2-6.7,21.8c-4.9,6.1-11.7,9.1-20.2,9.1c-7.6,0-13.5-2.6-17.5-7.7v6.2h-11.9v-81.7H492.5z M496.5,335.4
				c-3,3.6-4.5,8.5-4.5,14.7v0.9c0,5.6,1.1,10.3,3.6,13.9c2.7,3.9,6.5,5.9,11.6,5.9c5.6,0,9.8-2,12.4-6.1c2.1-3.4,3.3-8.2,3.3-14.5
				c0-6.3-1.2-11-3.5-14.2c-2.7-3.8-7-5.7-12.7-5.7C502.6,330.3,499.2,332,496.5,335.4z"/>
			<path class="st2" d="M561.1,297.9v81.7h-12.8v-81.7H561.1z"/>
			<path class="st2" d="M622.2,329.6c4.6,5.8,7,14,7,24.5h-43.4c0.4,5.4,1.9,9.5,4.4,12.3c2.5,2.8,6.1,4.3,10.7,4.3
				c3.9,0,7.1-0.9,9.5-2.7c1.9-1.5,3.6-3.8,5.2-7.1h12.8c-1.3,5.4-4,10-8.1,13.6c-5.2,4.4-11.6,6.6-19.3,6.6c-8.6,0-15.5-2.7-20.5-8
				c-5.4-5.5-8.1-13-8.1-22.7c0-8.6,2.5-15.8,7.6-21.6c4.9-5.9,11.8-8.9,20.4-8.9C609.9,320,617.2,323.1,622.2,329.6z M590.7,334
				c-2.4,2.4-3.9,5.8-4.7,10.4h29.8c-1.1-9.4-6.2-14-15.1-14C596.4,330.4,593.2,331.6,590.7,334z"/>
		</g>
		<circle class="st4" cx="308" cy="346.5" r="23.6"/>
		<circle class="st4" cx="695.9" cy="346.5" r="23.6"/>
	</g>
</g>
</svg>
