<?xml version="1.0" encoding="utf-8"?>
<!-- Generator: Adobe Illustrator 22.1.0, SVG Export Plug-In . SVG Version: 6.00 Build 0)  -->
<svg version="1.1" id="图层_1" xmlns="http://www.w3.org/2000/svg" xmlns:xlink="http://www.w3.org/1999/xlink" x="0px" y="0px"
	 viewBox="0 0 1000 1000" style="enable-background:new 0 0 1000 1000;" xml:space="preserve">
<style type="text/css">
	.st0{fill:url(#SVGID_1_);}
	.st1{fill:#EDF5F7;}
	.st2{fill:#90A6B4;}
	.st3{fill:#555E60;}
	.st4{fill:#DC544F;}
</style>
<g>
	<g>
		<linearGradient id="SVGID_1_" gradientUnits="userSpaceOnUse" x1="499.7382" y1="49.5236" x2="499.7382" y2="952.4769">
			<stop  offset="0" style="stop-color:#F9F9F9"/>
			<stop  offset="1" style="stop-color:#EDEDED"/>
		</linearGradient>
		<path class="st0" d="M799.9,950H199.6c-82.9,0-150.1-67.2-150.1-150.1V199.6c0-82.9,67.2-150.1,150.1-150.1h600.3
			c82.9,0,150.1,67.2,150.1,150.1v600.3C950,882.8,882.8,950,799.9,950z"/>
	</g>
	<g>
		<g>
			<polygon class="st1" points="445.1,761.1 211.9,630 211.9,360.4 445.1,491.5 			"/>
			<polygon class="st2" points="445.1,491.5 211.9,360.4 445.1,221.9 678.3,360.4 			"/>
			<polygon class="st3" points="445.1,491.5 343.1,433.2 569,294.8 678.3,360.4 			"/>
			<polygon class="st2" points="678.3,630 445.1,761.1 445.1,491.5 678.3,360.4 			"/>
		</g>
		<path class="st3" d="M773.5,768.4H575.8c-7.8,0-14.1-6.3-14.1-14.1V476.5c0-7.8,6.3-14.1,14.1-14.1h197.7
			c7.8,0,14.1,6.3,14.1,14.1v277.8C787.6,762.1,781.2,768.4,773.5,768.4z"/>
		<path class="st1" d="M575.8,759.7c-3,0-5.4-2.4-5.4-5.4V476.5c0-3,2.4-5.4,5.4-5.4h197.7c3,0,5.4,2.4,5.4,5.4v277.8
			c0,3-2.4,5.4-5.4,5.4H575.8z"/>
		<path class="st4" d="M696.5,440.5h-43.7c-14,0-25.5,11.5-25.5,25.5v0c0,14,11.5,25.5,25.5,25.5h43.7c14,0,25.5-11.5,25.5-25.5v0
			C722,452,710.5,440.5,696.5,440.5z"/>
		<path class="st3" d="M760.2,562.6H691c-3,0-5.5-2.5-5.5-5.5l0,0c0-3,2.5-5.5,5.5-5.5h69.2c3,0,5.5,2.5,5.5,5.5l0,0
			C765.7,560.1,763.2,562.6,760.2,562.6z"/>
		<path class="st3" d="M760.2,642.7H691c-3,0-5.5-2.5-5.5-5.5l0,0c0-3,2.5-5.5,5.5-5.5h69.2c3,0,5.5,2.5,5.5,5.5l0,0
			C765.7,640.3,763.2,642.7,760.2,642.7z"/>
		<path class="st3" d="M760.2,722.9H691c-3,0-5.5-2.5-5.5-5.5l0,0c0-3,2.5-5.5,5.5-5.5h69.2c3,0,5.5,2.5,5.5,5.5l0,0
			C765.7,720.4,763.2,722.9,760.2,722.9z"/>
		<path class="st3" d="M619.2,586.7h-19.1c-5.4,0-9.8-4.4-9.8-9.8v-39.6c0-5.4,4.4-9.8,9.8-9.8h39.6c5.4,0,9.8,4.4,9.8,9.8v6.3
			h-11.8v-4.2h-35.5v35.5h17V586.7z"/>
		<rect x="598.1" y="615.4" class="st3" width="43.7" height="51"/>
		<path class="st3" d="M634.5,579.4L616.1,561c-2.1-2.1-2.1-5.6,0-7.7s5.6-2.1,7.7,0l10.7,10.7l25.3-25.3c2.1-2.1,5.6-2.1,7.7,0
			s2.1,5.6,0,7.7L634.5,579.4z"/>
		<path class="st3" d="M619.2,747h-19.1c-5.4,0-9.8-4.4-9.8-9.8v-39.6c0-5.4,4.4-9.8,9.8-9.8h39.6c5.4,0,9.8,4.4,9.8,9.8v6.3h-11.8
			v-4.2h-35.5v35.5h17V747z"/>
		<path class="st3" d="M634.5,739.7l-18.4-18.4c-2.1-2.1-2.1-5.6,0-7.7c2.1-2.1,5.6-2.1,7.7,0l10.7,10.7l25.3-25.3
			c2.1-2.1,5.6-2.1,7.7,0s2.1,5.6,0,7.7L634.5,739.7z"/>
	</g>
</g>
</svg>
