<?xml version="1.0" encoding="utf-8"?>
<!-- Generator: Adobe Illustrator 22.1.0, SVG Export Plug-In . SVG Version: 6.00 Build 0)  -->
<svg version="1.1" id="图层_1" xmlns="http://www.w3.org/2000/svg" xmlns:xlink="http://www.w3.org/1999/xlink" x="0px" y="0px"
	 viewBox="0 0 1000 1000" style="enable-background:new 0 0 1000 1000;" xml:space="preserve">
<style type="text/css">
	.st0{fill:url(#SVGID_1_);}
	.st1{fill:#555E60;}
	.st2{fill:#EDF5F7;}
	.st3{fill:#90A6B4;}
	.st4{fill:#DC544F;}
</style>
<g>
	<g>
		<linearGradient id="SVGID_1_" gradientUnits="userSpaceOnUse" x1="500.3761" y1="50.0421" x2="500.3761" y2="952.4754">
			<stop  offset="0" style="stop-color:#F9F9F9"/>
			<stop  offset="1" style="stop-color:#EDEDED"/>
		</linearGradient>
		<path class="st0" d="M800.4,950h-600c-82.8,0-150-67.2-150-150V200c0-82.8,67.2-150,150-150h600c82.8,0,150,67.2,150,150v600
			C950.4,882.8,883.2,950,800.4,950z"/>
	</g>
	<g>
		<path class="st1" d="M683.2,787.9H279.3c-6.7,0-12.1-5.4-12.1-12.1V251.7c0-6.7,5.4-12.1,12.1-12.1h403.9
			c6.7,0,12.1,5.4,12.1,12.1v524.1C695.3,782.4,689.9,787.9,683.2,787.9z"/>
		<rect x="294.5" y="239.5" class="st2" width="373.5" height="510.1"/>
		<path class="st3" d="M561,262.3H401.4c-0.8,0-1.5-0.3-1.8-0.7c-1-1.2-1.5-2.5-1.5-3.8c0-0.1,0-0.1,0-0.2l4.8-17.4
			c0.1-9.2,11.8-16.6,26.1-16.6h22.2l-6.4-15.9c0-0.1-0.1-0.2-0.1-0.3c-0.1-3.1,1.7-6,5.1-8.2c3.4-2.2,8-3.5,12.8-3.5h36.9
			c10,0,18.1,5.2,18.1,11.7c0,0.1,0,0.2-0.1,0.3l-6.4,15.9h22.1c14.4,0,26,7.4,26.1,16.6l4.8,17.4c0,0.1,0,0.1,0,0.2
			c0,1.3-0.5,2.5-1.5,3.8C562.5,262,561.8,262.3,561,262.3z"/>
		<path class="st3" d="M330.6,402.3v4.4v30.5v4.4V472v4.4v30.5v4.4v30.5v4.4v30.5v4.4v30.5v4.4v30.5v4.4v30.5v4.4v26.1v4.4h305v-4.4
			v-26.1v-4.4v-30.5v-4.4v-30.5v-4.4V581v-4.4v-30.5v-4.4v-30.5v-4.4v-30.5V472v-30.5v-4.4v-30.5v-4.4H330.6z M335,406.7h148.1v30.5
			H335V406.7z M335,441.5h148.1V472H335V441.5z M335,476.4h148.1v30.5H335V476.4z M335,511.2h148.1v30.5H335V511.2z M335,546.1
			h148.1v30.5H335V546.1z M335,581h148.1v30.5H335V581z M335,615.8h148.1v30.5H335V615.8z M335,650.7h148.1v30.5H335V650.7z
			 M335,711.7v-26.1h148.1v26.1H335z M631.2,711.7H487.4v-26.1h143.8V711.7z M631.2,681.2H487.4v-30.5h143.8V681.2z M631.2,646.3
			H487.4v-30.5h143.8V646.3z M631.2,611.4H487.4V581h143.8V611.4z M631.2,576.6H487.4v-30.5h143.8V576.6z M631.2,541.7H487.4v-30.5
			h143.8V541.7z M631.2,506.9H487.4v-30.5h143.8V506.9z M631.2,472H487.4v-30.5h143.8V472z M631.2,437.2H487.4v-30.5h143.8V437.2z"
			/>
		<g>
			<path class="st3" d="M371.4,280.1h8.1v9.9c7.8,0.5,13.9,2.5,18.6,6c5.3,3.9,8.6,10.3,9.9,18.9h-13.8c-0.8-5.2-2.9-8.9-6.1-11.1
				c-2.2-1.6-5.1-2.5-8.6-2.9v27.6c9.6,3.4,15.3,5.4,16.6,5.9c9,4.7,13.6,11.3,13.6,20c0,8.6-3.5,15-10.3,19.3
				c-5.2,3.1-11.7,4.9-19.8,5.4v10.6h-8.1v-10.6c-8.9-0.5-15.6-2.9-20.3-7.1c-5.5-4.8-8.5-12.1-9.3-22h14.1c0.5,6.5,2.2,11.2,5.3,14
				c2.3,2.2,5.7,3.5,10.2,4v-29.4l-14.7-5.1c-9.1-4.5-13.7-11.1-13.7-20c0-7.8,3.3-13.9,9.8-18.1c5-3.4,11.1-5.2,18.6-5.5V280.1z
				 M371.4,300.8c-3.6,0.2-6.6,1.2-8.9,2.7c-3.7,2.2-5.3,5.5-5.3,10.1c0,4.9,4.6,8.9,13.7,12.1c0.1,0,0.3,0.1,0.5,0.1V300.8z
				 M379.4,368.1c4.2-0.5,7.6-1.6,10.4-3.3c3.7-2.4,5.6-5.7,5.6-9.9c0-5.5-4.6-9.9-13.7-12.8c-0.8-0.2-1.6-0.6-2.3-0.8V368.1z"/>
		</g>
		<g>
			<path class="st1" d="M437.5,544.7v259.6h296.1V544.7H437.5z M712.8,786.1H458.3V562.9h254.5V786.1z"/>
			<rect x="442.8" y="619.8" class="st2" width="284.4" height="177.5"/>
			<path class="st3" d="M442.8,551.2V638h284.4v-86.7H442.8z M517.7,597.6c-8.4,0-15.1-6.8-15.1-15.1s6.8-15.1,15.1-15.1
				s15.1,6.8,15.1,15.1S526.1,597.6,517.7,597.6z M652.9,597.6c-8.4,0-15.1-6.8-15.1-15.1s6.8-15.1,15.1-15.1
				c8.4,0,15.1,6.8,15.1,15.1S661.3,597.6,652.9,597.6z"/>
			<g>
				<path class="st1" d="M517.4,593.6L517.4,593.6c-5.5,0-10.1-4.5-10.1-10.1v-42.4c0-5.5,4.5-10.1,10.1-10.1h0
					c5.5,0,10.1,4.5,10.1,10.1v42.4C527.5,589,522.9,593.6,517.4,593.6z"/>
				<path class="st1" d="M652.6,593.6L652.6,593.6c-5.5,0-10.1-4.5-10.1-10.1v-42.4c0-5.5,4.5-10.1,10.1-10.1l0,0
					c5.5,0,10.1,4.5,10.1,10.1v42.4C662.6,589,658.1,593.6,652.6,593.6z"/>
			</g>
			<g>
				<path class="st4" d="M632.7,781.4H619v-10.1h-64.9v10.2h-13.7V654.3h92.2V781.4z M619,704.6v-37.1h-64.9v37.1H619z M619,758v-40
					h-64.9v40H619z"/>
			</g>
		</g>
	</g>
</g>
</svg>
