<?xml version="1.0" encoding="utf-8"?>
<!-- Generator: Adobe Illustrator 22.1.0, SVG Export Plug-In . SVG Version: 6.00 Build 0)  -->
<svg version="1.1" id="图层_1" xmlns="http://www.w3.org/2000/svg" xmlns:xlink="http://www.w3.org/1999/xlink" x="0px" y="0px"
	 viewBox="0 0 1000 1000" style="enable-background:new 0 0 1000 1000;" xml:space="preserve">
<style type="text/css">
	.st0{fill:url(#SVGID_1_);}
	.st1{fill:#555E60;}
	.st2{fill:#EDF5F7;}
	.st3{fill:#90A6B4;}
	.st4{fill:#DC544F;}
</style>
<g>
	<g>
		<linearGradient id="SVGID_1_" gradientUnits="userSpaceOnUse" x1="499.8037" y1="49.9302" x2="499.8037" y2="952.4758">
			<stop  offset="0" style="stop-color:#F9F9F9"/>
			<stop  offset="1" style="stop-color:#EDEDED"/>
		</linearGradient>
		<path class="st0" d="M799.8,950h-600c-82.8,0-150-67.2-150-150v-600c0-82.8,67.2-150,150-150h600c82.8,0,150,67.2,150,150v600
			C949.8,882.8,882.7,950,799.8,950z"/>
	</g>
	<g>
		<g>
			<rect x="220.8" y="316.1" class="st1" width="398" height="253.3"/>
			<rect x="226.5" y="316.1" class="st2" width="386.6" height="253.3"/>
			<polygon class="st1" points="618.8,316.1 220.8,316.1 220.8,283.7 243.6,260.9 354.1,260.9 373.2,281.8 618.8,281.8 			"/>
			<rect x="220.8" y="569.3" class="st3" width="398" height="11.4"/>
			<rect x="238" y="297" class="st3" width="363.7" height="19"/>
		</g>
		<g>
			<rect x="394.4" y="483.4" class="st1" width="384.4" height="244.6"/>
			<rect x="399.9" y="483.4" class="st2" width="373.3" height="244.6"/>
			<polygon class="st1" points="778.8,483.4 394.4,483.4 394.4,452.2 416.4,430.1 523.1,430.1 541.5,450.3 778.8,450.3 			"/>
			<rect x="394.4" y="728" class="st3" width="384.4" height="11"/>
			<rect x="411" y="465" class="st3" width="351.3" height="18.4"/>
		</g>
		<path class="st4" d="M719.6,566H455.4c-3.8,0-6.8-3.1-6.8-6.8l0,0c0-3.8,3.1-6.8,6.8-6.8h264.2c3.8,0,6.8,3.1,6.8,6.8l0,0
			C726.4,562.9,723.3,566,719.6,566z"/>
		<path class="st4" d="M623.9,611.6H455.4c-3.8,0-6.8-3.1-6.8-6.8l0,0c0-3.8,3.1-6.8,6.8-6.8h168.5c3.8,0,6.8,3.1,6.8,6.8l0,0
			C630.7,608.5,627.7,611.6,623.9,611.6z"/>
		<path class="st4" d="M719.6,611.6h-50.1c-3.8,0-6.8-3.1-6.8-6.8l0,0c0-3.8,3.1-6.8,6.8-6.8h50.1c3.8,0,6.8,3.1,6.8,6.8l0,0
			C726.4,608.5,723.3,611.6,719.6,611.6z"/>
		<path class="st4" d="M500.9,657.1h-45.5c-3.8,0-6.8-3.1-6.8-6.8v0c0-3.8,3.1-6.8,6.8-6.8h45.5c3.8,0,6.8,3.1,6.8,6.8v0
			C507.8,654,504.7,657.1,500.9,657.1z"/>
		<path class="st4" d="M678.6,657.1H551c-3.8,0-6.8-3.1-6.8-6.8v0c0-3.8,3.1-6.8,6.8-6.8h127.5c3.8,0,6.8,3.1,6.8,6.8v0
			C685.4,654,682.3,657.1,678.6,657.1z"/>
		<path class="st3" d="M555.6,397.5H291.4c-3.8,0-6.8-3.1-6.8-6.8l0,0c0-3.8,3.1-6.8,6.8-6.8h264.2c3.8,0,6.8,3.1,6.8,6.8l0,0
			C562.4,394.4,559.3,397.5,555.6,397.5z"/>
		<path class="st3" d="M368.9,443h-77.4c-3.8,0-6.8-3.1-6.8-6.8l0,0c0-3.8,3.1-6.8,6.8-6.8h77.4c3.8,0,6.8,3.1,6.8,6.8l0,0
			C375.7,440,372.6,443,368.9,443z"/>
		<path class="st3" d="M337,488.6h-45.5c-3.8,0-6.8-3.1-6.8-6.8v0c0-3.8,3.1-6.8,6.8-6.8H337c3.8,0,6.8,3.1,6.8,6.8v0
			C343.8,485.5,340.7,488.6,337,488.6z"/>
	</g>
</g>
</svg>
