<?xml version="1.0" encoding="utf-8"?>
<!-- Generator: Adobe Illustrator 22.1.0, SVG Export Plug-In . SVG Version: 6.00 Build 0)  -->
<svg version="1.1" id="图层_1" xmlns="http://www.w3.org/2000/svg" xmlns:xlink="http://www.w3.org/1999/xlink" x="0px" y="0px"
	 viewBox="0 0 1000 1000" style="enable-background:new 0 0 1000 1000;" xml:space="preserve">
<style type="text/css">
	.st0{fill:url(#SVGID_1_);}
	.st1{fill:#555E60;}
	.st2{fill:#EDF5F7;}
	.st3{fill:#90A6B4;}
	.st4{fill:#DC544F;}
</style>
<g>
	<g>
		<linearGradient id="SVGID_1_" gradientUnits="userSpaceOnUse" x1="500.0055" y1="50.0421" x2="500.0055" y2="952.4754">
			<stop  offset="0" style="stop-color:#F9F9F9"/>
			<stop  offset="1" style="stop-color:#EDEDED"/>
		</linearGradient>
		<path class="st0" d="M800,950H200c-82.8,0-150-67.2-150-150V200c0-82.8,67.2-150,150-150h600c82.8,0,150,67.2,150,150v600
			C950,882.8,882.8,950,800,950z"/>
	</g>
	<g>
		<path class="st1" d="M291.3,224.5h332.9L734,326.7v439c0,13-11.3,23.5-25.3,23.5H291.3c-14,0-25.3-10.5-25.3-23.5V248
			C266,235.1,277.3,224.5,291.3,224.5z"/>
		<path class="st2" d="M708.7,783.9c10.7,0,19.5-8.1,19.5-18.1V328.9l-106.4-99H291.3c-10.7,0-19.5,8.1-19.5,18.1v517.7
			c0,10,8.7,18.1,19.5,18.1H708.7z"/>
		<path class="st3" d="M734,326.7v439c0,13-11.3,23.5-25.3,23.5h-3.6V326.7H734z"/>
		<path class="st1" d="M649.5,326.7c-14,0-25.3-10.5-25.3-23.5v-78.7L734,326.7H649.5z"/>
		<g>
			<rect x="298.7" y="381" class="st3" width="66.1" height="15.3"/>
			<rect x="378.2" y="381" class="st3" width="15" height="15.3"/>
			<rect x="298.7" y="408.9" class="st3" width="66.1" height="15.3"/>
			<rect x="378.2" y="408.9" class="st3" width="15" height="15.3"/>
			<rect x="298.7" y="436.7" class="st3" width="66.1" height="15.3"/>
			<rect x="378.2" y="436.7" class="st3" width="15" height="15.3"/>
			<rect x="298.7" y="464.6" class="st3" width="66.1" height="15.3"/>
			<rect x="378.2" y="464.6" class="st3" width="15" height="15.3"/>
			<rect x="442" y="381" class="st3" width="66.1" height="15.3"/>
			<rect x="521.6" y="381" class="st3" width="15" height="15.3"/>
			<rect x="442" y="408.9" class="st3" width="66.1" height="15.3"/>
			<rect x="521.6" y="408.9" class="st3" width="15" height="15.3"/>
			<rect x="442" y="436.7" class="st3" width="66.1" height="15.3"/>
			<rect x="521.6" y="436.7" class="st3" width="15" height="15.3"/>
			<rect x="442" y="464.6" class="st3" width="66.1" height="15.3"/>
			<rect x="521.6" y="464.6" class="st3" width="15" height="15.3"/>
			<rect x="585.4" y="381" class="st3" width="66.1" height="15.3"/>
			<rect x="665" y="381" class="st3" width="15" height="15.3"/>
			<rect x="585.4" y="408.9" class="st3" width="66.1" height="15.3"/>
			<rect x="665" y="408.9" class="st3" width="15" height="15.3"/>
			<rect x="585.4" y="436.7" class="st3" width="66.1" height="15.3"/>
			<rect x="665" y="436.7" class="st3" width="15" height="15.3"/>
			<rect x="585.4" y="464.6" class="st3" width="66.1" height="15.3"/>
			<rect x="665" y="464.6" class="st3" width="15" height="15.3"/>
		</g>
		<g>
			<rect x="298.7" y="498.8" class="st3" width="66.1" height="15.3"/>
			<rect x="378.2" y="498.8" class="st3" width="15" height="15.3"/>
			<rect x="298.7" y="526.7" class="st3" width="66.1" height="15.3"/>
			<rect x="378.2" y="526.7" class="st3" width="15" height="15.3"/>
			<rect x="298.7" y="554.6" class="st3" width="66.1" height="15.3"/>
			<rect x="378.2" y="554.6" class="st3" width="15" height="15.3"/>
			<rect x="298.7" y="582.5" class="st3" width="66.1" height="15.3"/>
			<rect x="378.2" y="582.5" class="st3" width="15" height="15.3"/>
			<rect x="442" y="498.8" class="st3" width="66.1" height="15.3"/>
			<rect x="521.6" y="498.8" class="st3" width="15" height="15.3"/>
			<rect x="442" y="526.7" class="st3" width="66.1" height="15.3"/>
			<rect x="521.6" y="526.7" class="st3" width="15" height="15.3"/>
			<rect x="442" y="554.6" class="st3" width="66.1" height="15.3"/>
			<rect x="521.6" y="554.6" class="st3" width="15" height="15.3"/>
			<rect x="442" y="582.5" class="st3" width="66.1" height="15.3"/>
			<rect x="521.6" y="582.5" class="st3" width="15" height="15.3"/>
			<rect x="585.4" y="498.8" class="st3" width="66.1" height="15.3"/>
			<rect x="665" y="498.8" class="st3" width="15" height="15.3"/>
			<rect x="585.4" y="526.7" class="st3" width="66.1" height="15.3"/>
			<rect x="665" y="526.7" class="st3" width="15" height="15.3"/>
			<rect x="585.4" y="554.6" class="st3" width="66.1" height="15.3"/>
			<rect x="665" y="554.6" class="st3" width="15" height="15.3"/>
			<rect x="585.4" y="582.5" class="st3" width="66.1" height="15.3"/>
			<rect x="665" y="582.5" class="st3" width="15" height="15.3"/>
		</g>
		<g>
			<rect x="298.7" y="616.7" class="st3" width="66.1" height="15.3"/>
			<rect x="378.2" y="616.7" class="st3" width="15" height="15.3"/>
			<rect x="298.7" y="644.6" class="st3" width="66.1" height="15.3"/>
			<rect x="378.2" y="644.6" class="st3" width="15" height="15.3"/>
			<rect x="298.7" y="672.5" class="st3" width="66.1" height="15.3"/>
			<rect x="378.2" y="672.5" class="st3" width="15" height="15.3"/>
			<rect x="298.7" y="700.4" class="st3" width="66.1" height="15.3"/>
			<rect x="378.2" y="700.4" class="st3" width="15" height="15.3"/>
			<rect x="442" y="616.7" class="st3" width="66.1" height="15.3"/>
			<rect x="521.6" y="616.7" class="st3" width="15" height="15.3"/>
			<rect x="442" y="644.6" class="st3" width="66.1" height="15.3"/>
			<rect x="521.6" y="644.6" class="st3" width="15" height="15.3"/>
			<rect x="442" y="672.5" class="st3" width="66.1" height="15.3"/>
			<rect x="521.6" y="672.5" class="st3" width="15" height="15.3"/>
			<rect x="442" y="700.4" class="st3" width="66.1" height="15.3"/>
			<rect x="521.6" y="700.4" class="st3" width="15" height="15.3"/>
			<rect x="585.4" y="616.7" class="st3" width="66.1" height="15.3"/>
			<rect x="665" y="616.7" class="st3" width="15" height="15.3"/>
			<rect x="585.4" y="644.6" class="st3" width="66.1" height="15.3"/>
			<rect x="665" y="644.6" class="st3" width="15" height="15.3"/>
			<rect x="585.4" y="672.5" class="st3" width="66.1" height="15.3"/>
			<rect x="665" y="672.5" class="st3" width="15" height="15.3"/>
			<rect x="585.4" y="700.4" class="st3" width="66.1" height="15.3"/>
			<rect x="665" y="700.4" class="st3" width="15" height="15.3"/>
		</g>
		<path class="st4" d="M359.5,349.8c-22.3,0-40.5-18.2-40.5-40.5c0-22.3,18.2-40.5,40.5-40.5c22.3,0,40.5,18.2,40.5,40.5
			C400,331.6,381.9,349.8,359.5,349.8z M359.5,282.2c-14.9,0-27,12.1-27,27c0,14.9,12.1,27,27,27c14.9,0,27-12.1,27-27
			C386.5,294.3,374.4,282.2,359.5,282.2z"/>
	</g>
</g>
</svg>
