<?xml version="1.0" encoding="utf-8"?>
<!-- Generator: Adobe Illustrator 22.1.0, SVG Export Plug-In . SVG Version: 6.00 Build 0)  -->
<svg version="1.1" id="图层_1" xmlns="http://www.w3.org/2000/svg" xmlns:xlink="http://www.w3.org/1999/xlink" x="0px" y="0px"
	 viewBox="0 0 1000 1000" style="enable-background:new 0 0 1000 1000;" xml:space="preserve">
<style type="text/css">
	.st0{fill:url(#SVGID_1_);}
	.st1{fill:#EDF5F7;}
	.st2{fill:#90A6B4;}
	.st3{fill:#555E60;}
	.st4{fill:#DC544F;}
</style>
<g>
	<g>
		<linearGradient id="SVGID_1_" gradientUnits="userSpaceOnUse" x1="500.0349" y1="49.9302" x2="500.0349" y2="952.4758">
			<stop  offset="0" style="stop-color:#F9F9F9"/>
			<stop  offset="1" style="stop-color:#EDEDED"/>
		</linearGradient>
		<path class="st0" d="M800.1,950H200c-82.8,0-150-67.2-150-150v-600c0-82.8,67.2-150,150-150h600c82.8,0,150,67.2,150,150v600
			C950.1,882.8,882.9,950,800.1,950z"/>
	</g>
	<g>
		<path class="st1" d="M272.7,217.4h272.3l89.8,89.8V693c0,11.4-9.3,20.7-20.7,20.7H272.7c-11.4,0-20.7-9.3-20.7-20.7V238.1
			C252.1,226.7,261.3,217.4,272.7,217.4z"/>
		<path class="st2" d="M592.3,255.2h-9.5l66.2,66.2v385.8c0,11.4-9.3,20.7-20.7,20.7H299.3v3c0,11.4,9.3,20.7,20.7,20.7h341.5
			c11.4,0,20.7-9.3,20.7-20.7V345L592.3,255.2z"/>
		<path class="st2" d="M649,293h-9.5l66.2,66.2V745c0,11.4-9.3,20.7-20.7,20.7H356v3c0,11.4,9.3,20.7,20.7,20.7h341.5
			c11.4,0,20.7-9.3,20.7-20.7V382.8L649,293z"/>
		<path class="st2" d="M634.9,307.2V693c0,11.4-9.3,20.7-20.7,20.7h-3V307.2H634.9z"/>
		<path class="st3" d="M565.7,307.2c-11.4,0-20.7-9.3-20.7-20.7v-69.1l89.8,89.8H565.7z"/>
		<g>
			<path class="st2" d="M301.8,423.5v-6.1l5.7-4.2h5.8v40.4h-5.8v-34.3L301.8,423.5z"/>
		</g>
		<g>
			<path class="st4" d="M291.3,262.4h13.6l43.2,67.8h0.3v-67.8h14.5v95.4h-13.7L306,290h-0.3v67.8h-14.5V262.4z"/>
			<path class="st4" d="M379.7,310.1c0-11.1,0.3-18.5,1-22.2c0.7-3.8,1.8-6.8,3.2-9.1c2.3-4.4,6-8.3,11.1-11.8
				c5-3.5,11.3-5.3,18.8-5.4c7.6,0.1,13.9,1.9,19,5.4c5,3.4,8.6,7.4,10.9,11.8c1.6,2.3,2.7,5.3,3.3,9.1c0.6,3.8,0.9,11.2,0.9,22.2
				c0,10.9-0.3,18.3-0.9,22.1c-0.6,3.8-1.7,6.9-3.3,9.2c-2.2,4.4-5.8,8.3-10.9,11.6c-5.1,3.5-11.4,5.3-19,5.5
				c-7.5-0.2-13.8-2-18.8-5.5c-5.1-3.4-8.8-7.2-11.1-11.6c-0.7-1.4-1.3-2.8-1.9-4.1c-0.5-1.4-1-3.1-1.3-5.1
				C380,328.4,379.7,321,379.7,310.1z M394.2,310.1c0,9.4,0.3,15.7,1,19c0.6,3.3,1.9,6,3.7,8c1.5,2,3.5,3.6,6,4.8
				c2.4,1.4,5.4,2.2,8.8,2.2c3.4,0,6.4-0.7,9-2.2c2.4-1.2,4.3-2.8,5.8-4.8c1.9-2.1,3.2-4.7,3.9-8c0.7-3.3,1-9.7,1-19
				s-0.3-15.8-1-19.2c-0.7-3.2-2-5.9-3.9-7.9c-1.4-2-3.4-3.6-5.8-4.9c-2.5-1.3-5.5-1.9-9-2c-3.4,0.1-6.3,0.8-8.8,2
				c-2.5,1.3-4.5,2.9-6,4.9c-1.9,2.1-3.1,4.7-3.7,7.9C394.6,294.3,394.2,300.7,394.2,310.1z"/>
			<path class="st4" d="M460.5,344.1h13.7v13.7h-13.7V344.1z"/>
		</g>
		<g>
			<path class="st2" d="M298.3,533.3l15.8-19.7c0.6-0.8,1-1.5,1.2-2.2c0.1-0.6,0.2-1.3,0.2-1.8c0-1.5-0.5-2.8-1.4-4
				c-1-1.1-2.4-1.7-4.2-1.7c-1.6,0-2.9,0.5-4,1.5c-1.1,1-1.7,2.4-1.9,4.3h-5.8c0.1-3.4,1.3-6.1,3.4-8.3c2.1-2.1,4.7-3.2,7.8-3.3
				c3.5,0,6.3,1.1,8.4,3.3c2.2,2.2,3.3,4.9,3.4,8.2c0,2.7-0.8,5-2.4,7.1l-13,16.3h15.4v5.8h-23V533.3z"/>
		</g>
		<g>
			<path class="st2" d="M306.5,600.3h2c2,0,3.5-0.5,4.6-1.6c1.1-1.1,1.6-2.4,1.6-4.1c0-1.7-0.6-3.1-1.7-4.2
				c-1.1-1.1-2.5-1.6-4.2-1.6c-1.2,0-2.4,0.4-3.4,1.2c-1.1,0.8-1.8,2-2.2,3.7h-5.8c0.3-3,1.5-5.5,3.6-7.6c2.1-2,4.6-3.1,7.5-3.1
				c3.7,0,6.6,1.2,8.8,3.5c2.1,2.3,3.1,4.9,3.2,8c0,1.6-0.3,3-0.8,4.5c-0.6,1.4-1.8,2.7-3.5,3.8c1.7,1.1,2.9,2.4,3.7,4
				c0.7,1.6,1.1,3.2,1.1,4.9c0,3.8-1.2,6.8-3.5,8.9c-2.3,2.2-5.2,3.4-8.8,3.4c-2.8,0-5.2-0.9-7.3-2.7c-2.1-1.8-3.5-4.3-4.1-7.7h5.8
				c0.5,1.3,1.2,2.4,2.2,3.3c1,0.9,2.2,1.3,3.8,1.3c1.7,0,3.1-0.6,4.3-1.7c1.2-1.1,1.8-2.6,1.8-4.7c0-2-0.6-3.6-1.8-4.8
				c-1.2-1.1-2.6-1.6-4.4-1.6h-2.4V600.3z"/>
		</g>
		<rect x="351.3" y="415.9" class="st2" width="85.1" height="9.5"/>
		<rect x="351.3" y="439.6" class="st2" width="207.9" height="9.5"/>
		<rect x="351.3" y="501" class="st2" width="85.1" height="9.5"/>
		<rect x="351.3" y="524.6" class="st2" width="207.9" height="9.5"/>
		<rect x="351.3" y="586.1" class="st2" width="85.1" height="9.5"/>
		<rect x="351.3" y="609.7" class="st2" width="207.9" height="9.5"/>
	</g>
</g>
</svg>
