<?xml version="1.0" encoding="utf-8"?>
<!-- Generator: Adobe Illustrator 22.1.0, SVG Export Plug-In . SVG Version: 6.00 Build 0)  -->
<svg version="1.1" id="图层_1" xmlns="http://www.w3.org/2000/svg" xmlns:xlink="http://www.w3.org/1999/xlink" x="0px" y="0px"
	 viewBox="0 0 1000 1000" style="enable-background:new 0 0 1000 1000;" xml:space="preserve">
<style type="text/css">
	.st0{fill:url(#SVGID_1_);}
	.st1{fill:#90A6B4;}
	.st2{fill:#EDF5F7;}
	.st3{fill:#3E4546;}
	.st4{fill:#DC544F;}
	.st5{fill:#555E60;}
</style>
<g>
	<g>
		<linearGradient id="SVGID_1_" gradientUnits="userSpaceOnUse" x1="499.75" y1="50.1267" x2="499.75" y2="953.1036">
			<stop  offset="0" style="stop-color:#F9F9F9"/>
			<stop  offset="1" style="stop-color:#EDEDED"/>
		</linearGradient>
		<path class="st0" d="M799.9,950.6H199.6c-82.9,0-150.1-67.2-150.1-150.1V200.2c0-82.9,67.2-150.1,150.1-150.1h600.3
			c82.9,0,150.1,67.2,150.1,150.1v600.3C950,883.4,882.8,950.6,799.9,950.6z"/>
	</g>
	<g>
		<path class="st1" d="M745.7,294.9H305.9c-6.9,0-12.5,5.6-12.5,12.5v267.5c0,3.3-1.3,6.5-3.7,8.9l-80.2,69h-9V666h0
			c-0.1,6.5,5,12.7,12.6,12.7h428.5c11.6,0,22.8-4.6,31-12.8l82.1-82.1c2.4-2.4,3.7-5.5,3.7-8.9V307.4
			C758.2,300.5,752.6,294.9,745.7,294.9z"/>
		<path class="st2" d="M281.2,306.7v255c0,3.3-1.3,6.5-3.7,8.9l-73.4,73.5c-7.9,7.9-2.3,21.4,8.9,21.4h416.3
			c11.6,0,22.8-4.6,31-12.8l82.1-82.1c2.4-2.4,3.7-5.5,3.7-8.9v-255c0-6.9-5.6-12.5-12.5-12.5H293.8
			C286.8,294.2,281.2,299.8,281.2,306.7z"/>
		<path class="st3" d="M682.6,551.2H345.8c-29,0-52.6-23.5-52.6-52.6V364.6c0-29,23.5-52.6,52.6-52.6h336.8
			c29,0,52.6,23.5,52.6,52.6v134.1C735.2,527.7,711.6,551.2,682.6,551.2z"/>
		<path class="st1" d="M635,643H247.4c-1.9,0-2.8-2.2-1.5-3.6l47.2-48.7c3.5-3.7,8.4-5.7,13.5-5.7h386c1.9,0,2.8,2.2,1.5,3.6
			l-48.3,49.8C643,641.3,639.1,643,635,643z"/>
		<path class="st4" d="M492.3,652.2h-98.5c-1.5,0-2.3-1.8-1.2-2.9l28.4-28.6c1.2-1.2,2.9-1.9,4.7-1.9h97.4c1.5,0,2.3,1.8,1.2,2.9
			L495.1,651C494.3,651.8,493.3,652.2,492.3,652.2z"/>
		<path class="st1" d="M620.5,358.4H403.4c-3.1,0-5.6-2.5-5.6-5.6v0c0-3.1,2.5-5.6,5.6-5.6h217.1c3.1,0,5.6,2.5,5.6,5.6v0
			C626.1,355.9,623.6,358.4,620.5,358.4z"/>
		<path class="st1" d="M541.9,395.8H403.4c-3.1,0-5.6-2.5-5.6-5.6l0,0c0-3.1,2.5-5.6,5.6-5.6h138.5c3.1,0,5.6,2.5,5.6,5.6l0,0
			C547.5,393.3,545,395.8,541.9,395.8z"/>
		<path class="st1" d="M620.5,395.8h-41.2c-3.1,0-5.6-2.5-5.6-5.6l0,0c0-3.1,2.5-5.6,5.6-5.6h41.2c3.1,0,5.6,2.5,5.6,5.6l0,0
			C626.1,393.3,623.6,395.8,620.5,395.8z"/>
		<path class="st1" d="M620.5,470.6H403.4c-3.1,0-5.6-2.5-5.6-5.6v0c0-3.1,2.5-5.6,5.6-5.6h217.1c3.1,0,5.6,2.5,5.6,5.6v0
			C626.1,468.1,623.6,470.6,620.5,470.6z"/>
		<path class="st1" d="M541.9,508.1H403.4c-3.1,0-5.6-2.5-5.6-5.6l0,0c0-3.1,2.5-5.6,5.6-5.6h138.5c3.1,0,5.6,2.5,5.6,5.6l0,0
			C547.5,505.5,545,508.1,541.9,508.1z"/>
		<path class="st1" d="M620.5,508.1h-41.2c-3.1,0-5.6-2.5-5.6-5.6l0,0c0-3.1,2.5-5.6,5.6-5.6h41.2c3.1,0,5.6,2.5,5.6,5.6l0,0
			C626.1,505.5,623.6,508.1,620.5,508.1z"/>
		<path class="st1" d="M440.8,433.3h-37.4c-3.1,0-5.6-2.5-5.6-5.6v0c0-3.1,2.5-5.6,5.6-5.6h37.4c3.1,0,5.6,2.5,5.6,5.6v0
			C446.4,430.7,443.9,433.3,440.8,433.3z"/>
		<path class="st1" d="M586.8,433.3H482c-3.1,0-5.6-2.5-5.6-5.6v0c0-3.1,2.5-5.6,5.6-5.6h104.8c3.1,0,5.6,2.5,5.6,5.6v0
			C592.4,430.7,589.9,433.3,586.8,433.3z"/>
		<g>
			<circle class="st2" cx="649.4" cy="556.9" r="149.6"/>
			<path class="st5" d="M738,511.1l-9.5,9.5c-10.1,10.1-26.5,10.2-36.7,0c0,0,0,0,0,0c-10.1-10.2-10.1-26.6,0-36.8l9.5-9.5
				c5.2-5.3,1.7-11.5-7.7-10c-9.9,1.6-19.1,6.2-26.2,13.4c-11.4,11.4-16.2,27.8-12.9,43.6l-79.6,80c-10.1,10.2-10.1,26.6,0,36.8
				c10.1,10.1,26.5,10.2,36.6,0.1c0,0,0,0,0.1-0.1l79.6-80c25.6,5.4,50.8-10.9,56.3-36.6c0.2-0.9,0.4-1.8,0.5-2.7
				C749.4,509.4,743.2,505.9,738,511.1z"/>
			<path class="st4" d="M599.3,625.8c-3.4,3.4-8.8,3.4-12.2,0c0,0,0,0,0,0c-3.4-3.4-3.4-8.9,0-12.3c3.4-3.4,8.9-3.4,12.3,0
				C602.7,616.9,602.7,622.4,599.3,625.8z"/>
			<polygon class="st5" points="590.7,512.7 620.7,542.9 632.9,530.6 602.9,500.4 596.2,487.6 574.8,472.2 562.5,484.5 577.8,506 
				590.7,512.7 			"/>
			<path class="st5" d="M691,576.6c-1.7-1.7-4.4-1.7-6.1,0c0,0,0,0,0,0L666.5,595c-1.7,1.7-1.7,4.4,0,6.1l43.3,43.5
				c6.7,6.8,17.7,6.8,24.4,0c0,0,0,0,0,0c6.8-6.8,6.8-17.8,0-24.6L691,576.6z"/>
		</g>
	</g>
</g>
</svg>
