<?xml version="1.0" encoding="UTF-8"?>
<svg width="40px" height="40px" viewBox="0 0 40 40" version="1.1" xmlns="http://www.w3.org/2000/svg" xmlns:xlink="http://www.w3.org/1999/xlink">
    <!-- Generator: Sketch 55.2 (78181) - https://sketchapp.com -->
    <title>业务设置4</title>
    <desc>Created with Sketch.</desc>
    <g id="业务设置4" stroke="none" stroke-width="1" fill="none" fill-rule="evenodd">
        <g transform="translate(1.000000, 0.000000)">
            <g id="编组-5备份-4" transform="translate(0.000000, 7.333333)" fill-rule="nonzero">
                <path d="M36.4322034,13.0611111 L29.6440678,1.5962963 L8.05932203,1.5962963 L1.27118644,13.0611111 L14.3898305,13.0611111 C14.3898305,13.0611111 14.3898305,13.137037 14.3898305,13.137037 C14.3898305,15.5666667 16.3728814,17.6166667 18.8898305,17.6166667 C21.3305085,17.6166667 23.3898305,15.6425926 23.3898305,13.137037 C23.3898305,13.137037 23.3898305,13.0611111 23.3898305,13.0611111 L36.4322034,13.0611111 Z" id="路径备份-27" fill="#FFFFFF"></path>
                <path d="M18.8135593,18.8018519 C17.5016255,18.8018519 16.2944349,18.3502965 15.3289712,17.6013926 C14.2647682,16.7758974 13.4935798,15.5892986 13.2001098,14.2462963 L1.19491525,14.2462963 C0.984091308,14.2462963 0.773506575,14.1852583 0.593328238,14.0797508 C0.423049499,13.9800402 0.278742332,13.8401641 0.193142362,13.6697391 C0.0571344872,13.4619929 0,13.2614739 0,13.0611111 C0,12.8579722 0.0587287213,12.6546727 0.177008946,12.4812981 L6.96528352,1.01624852 C7.20585047,0.660829209 7.56041425,0.411111111 7.98305085,0.411111111 L29.5677966,0.411111111 C29.7786206,0.411111111 29.9892053,0.472149141 30.1693836,0.577656621 C30.3428093,0.679209924 30.4892946,0.822427167 30.5742551,0.997148434 L37.3738385,12.4812981 C37.4921187,12.6546727 37.5508475,12.8579722 37.5508475,13.0611111 C37.5508475,13.2614739 37.493713,13.4619929 37.3786545,13.6337993 C37.138014,13.9931261 36.78148,14.2462963 36.3559322,14.2462963 L24.3410993,14.2462963 C24.0936831,15.6155174 23.3584261,16.789214 22.3242365,17.6019835 C21.3619325,18.3582582 20.1411177,18.8018519 18.8135593,18.8018519 L18.8135593,18.8018519 Z M3.28215415,11.8759259 L14.3135593,11.8759259 C14.5951248,11.8759259 14.9457759,11.9709611 15.1491807,12.235383 C15.3907152,12.4758241 15.5084746,12.7772469 15.5084746,13.137037 C15.5084746,14.0322779 15.8741803,14.8419245 16.4761742,15.4258275 C17.0674229,15.9993082 17.8875909,16.3555556 18.8135593,16.3555556 C19.7180687,16.3555556 20.5568779,15.9850706 21.1631828,15.3660344 C21.748833,14.7680865 22.1186441,13.9381723 22.1186441,12.9851852 C22.1186441,12.7069177 22.2142206,12.3605021 22.4779379,12.1594571 C22.7166869,11.9217889 23.0143945,11.8 23.3135593,11.8 L34.3430919,11.8 L28.9932991,2.70555556 L8.71069605,2.70555556 L3.28215415,11.8759259 Z" id="形状备份-7" fill="#334764"></path>
                <path d="M23.3135593,13.0611111 C23.3135593,13.0611111 23.3135593,13.137037 23.3135593,13.137037 C23.3135593,15.5666667 21.3305085,17.6166667 18.8135593,17.6166667 C16.3728814,17.6166667 14.3135593,15.6425926 14.3135593,13.137037 C14.3135593,13.137037 14.3135593,13.0611111 14.3135593,13.0611111 L1.19491525,13.0611111 L1.19491525,31.2833333 L36.3559322,31.2833333 L36.3559322,13.0611111 L23.3135593,13.0611111 Z" id="路径备份-28" fill="#A2D9FF"></path>
                <path d="M1.27118644,11.8759259 L14.3898305,11.8759259 C14.671396,11.8759259 15.022047,11.9709611 15.1944697,12.1998173 C15.462447,12.4713053 15.5847458,12.7652449 15.5847458,13.0611111 C15.5847458,13.9908272 15.9471164,14.8139659 16.5411299,15.4052904 C17.1335949,15.9950735 17.9581467,16.3555556 18.8898305,16.3555556 C19.7892454,16.3555556 20.6237135,15.9890182 21.2287973,15.3866735 C21.8217857,14.7963693 22.1949153,13.9802932 22.1949153,13.0611111 C22.1949153,12.7219499 22.2853655,12.3643294 22.5186822,12.1901339 C22.7929581,11.9217889 23.0906657,11.8 23.3898305,11.8 L36.5084746,11.8 C36.8375705,11.8 37.1367316,11.9340499 37.3536299,12.1499664 C37.5689528,12.3643146 37.7033898,12.6597474 37.7033898,12.9851852 L37.7033898,31.1927118 C37.6698023,31.558335 37.517518,31.87948 37.2868926,32.1090614 C37.0619744,32.3329615 36.7624094,32.4685185 36.4322034,32.4685185 L1.27118644,32.4685185 C0.942090512,32.4685185 0.642929403,32.3344686 0.42603114,32.1185522 C0.210708233,31.904204 0.0762711864,31.6087711 0.0762711864,31.2833333 L0.0762711864,13.0611111 C0.0762711864,12.7356733 0.210708233,12.4402405 0.42603114,12.2258923 C0.642929403,12.0099759 0.942090512,11.8759259 1.27118644,11.8759259 Z M2.4677717,30.0981481 L35.2372881,30.0981481 L35.2372881,14.2462963 L24.418634,14.2462963 C24.174041,15.5807963 23.4111013,16.7599769 22.3485572,17.5841854 C21.3697904,18.3434084 20.1359927,18.8018519 18.8135593,18.8018519 C17.5016255,18.8018519 16.2944349,18.3502965 15.3289712,17.6013926 C14.2647682,16.7758974 13.4935798,15.5892986 13.2001098,14.2462963 L2.38815202,14.2462963 L2.4677717,30.0981481 Z" id="形状备份-8" fill="#334764"></path>
            </g>
            <path d="M30.1936231,16.7108856 C33.1237381,16.7108856 31.2874394,13.6733876 33.0614371,13.9906599 C34.3015028,14.2124406 35.9596164,14.2893837 36.5027472,13.9906599 C37.1997043,13.6073312 38.0861874,12.6943832 37.9437847,11.8653427 C37.8206797,11.1486502 35.3248762,10.261247 35.4428417,9.11193297 C35.530934,8.25366722 37.4799546,6.78873193 37.5183625,6.21515173 C37.5796216,5.30031223 37.0827132,3.98760653 36.5027472,3.75073127 C35.8649944,3.49025417 35.0946628,4.35430408 34.1075658,4.37430415 C33.4484317,4.38765921 33.5119207,3.47371587 32.5805348,3.75073127 C32.079326,3.89980221 31.7378882,1.12726031 30.9396824,1.03077176 C30.3669206,0.961535294 30.9834043,1.03077176 30.1936231,1.03077176 C29.6332769,1.03077176 28.5762055,1.48990195 28.5762055,2.31737227 C28.5762055,3.9849239 28.060372,3.73103718 27.3884565,4.69169167 C26.6435663,5.75667986 24.3089338,2.76580693 23.8184377,3.75073127 C23.2553181,4.88148486 22.1586,4.88148486 22.7676562,6.21515173 C23.3767123,7.5488186 25.0674249,8.09406951 24.998334,9.2892765 C24.9702977,9.77427946 23,10.8340903 23,11.3155678 C23,15.2813188 24.4180681,14.0616246 27.3884565,13.4198483 C28.7598504,13.1235476 27.9552415,16.7108856 30.1936231,16.7108856 Z" id="椭圆形" fill="#FFFFFF"></path>
            <path d="M38.9371291,11.8176376 C39.0476345,12.2197887 39.0141006,12.6626034 38.8255469,13.048196 L38.0176247,14.4000062 C37.7981918,14.76716 37.5138997,15.0777866 37.0696767,15.1521137 C36.6364761,15.3178489 36.201468,15.2291031 35.8409278,15.0107073 L34.1912372,14.0791224 C33.6399119,14.5508628 33.0898103,14.881481 32.5382491,15.0661734 L32.5382491,16.208046 C32.5382491,16.6299256 32.3612959,17.0314394 32.0700972,17.3237784 C31.7912147,17.6037531 31.406241,17.7833333 30.9675822,17.7833333 L29.4285355,17.7833333 C29.0075646,17.7833333 28.606763,17.6056203 28.3149994,17.3127141 C28.0366622,17.0332869 27.8578686,16.6476367 27.8578686,16.208046 L27.8578686,15.1140733 C27.6483783,14.9767592 27.4390876,14.8644231 27.2296759,14.7522994 C26.8896218,14.570227 26.548281,14.3900273 26.2085894,14.0770279 L24.5551167,15.0107487 C24.1741225,15.2421261 23.7156895,15.2300931 23.3368804,15.1540345 C22.882218,15.0777866 22.597926,14.76716 22.378493,14.4000062 L21.5637036,13.0367057 C21.3440583,12.6691966 21.3070856,12.2472432 21.4132339,11.8609487 C21.5240491,11.4576704 21.7897564,11.0922792 22.1705791,10.8615381 L23.8823085,9.89491963 C23.683632,9.57638119 23.6933893,9.25568673 23.6933893,8.93711002 C23.6933893,8.81904258 23.7145308,8.70114696 23.7341177,8.58316543 C23.7710396,8.36076677 23.8047475,8.13819052 23.7681549,7.91620271 L22.3525563,7.1041214 C21.9712453,6.87341135 21.705202,6.50775853 21.5942982,6.10415799 C21.4881499,5.7178635 21.5251226,5.2959101 21.7447679,4.92840104 L22.5595574,3.56510055 C22.7789903,3.19794675 23.0632824,2.88732017 23.5075054,2.81299304 C23.9403974,2.64738181 24.3749785,2.73585373 24.7353396,2.95384571 L26.2036393,3.79615994 C26.7553802,3.32385349 27.3058936,2.99287759 27.8578686,2.80804662 L27.8578686,1.57528736 C27.8578686,1.15340777 28.0348219,0.751893947 28.3260205,0.459554926 C28.6049031,0.179580188 28.9898767,0 29.4285355,0 L30.9675822,0 C31.3885531,0 31.7893548,0.177713059 32.0811184,0.47061921 C32.3594556,0.750046437 32.5382491,1.13569667 32.5382491,1.57528736 L32.5382491,2.76014677 C32.7477394,2.89746081 32.9570301,3.00979696 33.1664419,3.12192059 C33.5068992,3.30420894 33.8486464,3.48462019 34.188737,3.79830628 L35.660808,2.95382864 C36.0453159,2.72098939 36.4311433,2.73644961 36.8886123,2.81299304 C37.3328354,2.88732017 37.6171275,3.19794675 37.8365604,3.56510055 L38.6513499,4.92840104 C38.8709951,5.2959101 38.9079678,5.7178635 38.8018195,6.10415799 C38.6909158,6.50775853 38.4248724,6.87341135 38.0435615,7.1041214 L36.5149049,7.9810603 C36.7124499,8.29902003 36.7027285,8.61912 36.7027285,8.93711002 C36.7027285,9.05517745 36.6815869,9.17307307 36.6620001,9.2910546 C36.6363209,9.44573317 36.6121963,9.60049765 36.6121963,9.75509031 C36.6121963,9.82242804 36.6167735,9.88979836 36.6240626,9.95717998 L38.2255264,10.8615311 C38.5918592,11.0835869 38.8312315,11.4322555 38.9371291,11.8176376 Z M37.633344,12.3718422 C37.6838284,12.2458664 37.6735087,12.1258201 37.621748,12.0224941 C37.5841057,11.9473518 37.5214362,11.8800174 37.3213105,11.7879956 L35.1309772,10.538741 L35.2364525,10.1702749 C35.3328547,9.78903785 35.3361369,9.40807774 35.3361369,9.02657177 C35.3361369,8.6450658 35.3328547,8.26410569 35.2364525,7.88286861 L35.1318735,7.51753344 L37.4530193,6.230444 L37.4530193,5.76080216 L36.3518192,4.00221046 L33.8256296,5.4430204 L33.5622493,5.18013769 C32.9903722,4.60934093 32.3226085,4.23007102 31.6556224,4.03986357 L31.2695561,3.92976727 L31.1777654,1.45610003 L28.9418966,1.58008031 L28.9418966,3.93239737 L28.5452524,4.04551022 C27.8881918,4.32469114 27.2307229,4.6999687 26.668921,5.16966271 L26.3928436,5.44521848 L24.1615049,4.20792763 C23.9769459,4.19052961 23.8672801,4.22602826 23.7976838,4.26076071 C23.7268623,4.29610452 23.6817185,4.33945725 23.5822991,4.49695602 L22.7681263,5.85134731 C22.7682591,5.92296596 22.7651073,6.00459006 22.7735282,6.07183007 C22.7826679,6.14480925 22.8048297,6.20776182 22.8351727,6.25857161 C22.8877039,6.34653608 22.9620336,6.41857098 23.0829844,6.44442291 L25.1770055,7.60557025 L25.0724264,7.97090542 C24.9760242,8.3521425 24.972742,8.73310261 24.972742,9.11460858 C24.972742,9.49611455 24.9760242,9.87707466 25.0724264,10.2583117 L25.1779017,10.6267778 L22.7676562,12.0014592 L22.7676562,12.468415 L23.8707194,14.2299821 L26.4852909,12.7001977 L26.7466296,12.9610427 C27.3185067,13.5318394 27.9862704,13.9111093 28.6532565,14.1013168 L29.040049,14.2116202 L29.1321162,16.5089511 L31.3669823,16.3850264 L31.3669823,14.208783 L31.7636266,14.0956701 C32.4206871,13.8164892 33.078156,13.4412117 33.639958,12.9715176 L33.913833,12.69816 L36.2333141,14.0210739 C36.4192406,14.0389773 36.5295182,14.0033306 36.5993986,13.9684565 C36.67022,13.9331126 36.7153638,13.8897599 36.8147438,13.7323674 L37.633344,12.3718422 Z M32.5382491,10.378387 L30.1527928,11.7354394 L27.7673365,10.378387 L27.7673365,7.58671968 L30.1527928,6.22966738 L32.5382491,7.58671968 L32.5382491,10.378387 Z M28.9169627,8.20261305 L28.9169627,9.67160699 L30.1527928,10.4160089 L31.3886229,9.67160699 L31.3886229,8.20261305 L30.1527928,7.45821117 L28.9169627,8.20261305 Z" id="Application-management" fill="#334764" fill-rule="nonzero"></path>
        </g>
    </g>
</svg>