<?xml version="1.0" encoding="UTF-8"?>
<svg width="40px" height="40px" viewBox="0 0 40 40" version="1.1" xmlns="http://www.w3.org/2000/svg" xmlns:xlink="http://www.w3.org/1999/xlink">
    <!-- Generator: Sketch 55.2 (78181) - https://sketchapp.com -->
    <title>业务处理3</title>
    <desc>Created with Sketch.</desc>
    <g id="业务处理3" stroke="none" stroke-width="1" fill="none" fill-rule="evenodd">
        <path d="M5.5,2 L34.5,2 C36.1568542,2 37.5,3.34314575 37.5,5 L37.5,19.5 C37.5,29.1649831 29.6649831,37 20,37 L5.5,37 C3.84314575,37 2.5,35.6568542 2.5,34 L2.5,5 C2.5,3.34314575 3.84314575,2 5.5,2 Z" id="矩形" fill="#FFFFFF"></path>
        <g transform="translate(1.000000, 0.000000)" fill-rule="nonzero">
            <path d="M10.0389308,7.91549952 L28.9654805,7.91549952 C30.5426929,7.91549952 31.8044629,9.18869477 31.8044629,10.7801889 L31.8044629,29.2415201 C31.8044629,30.8330142 30.542693,32.1062094 28.9654805,32.1062094 L10.0389308,32.1062094 C8.46171835,32.1062094 7.19994835,30.8330142 7.19994835,29.2415201 L7.19994835,10.7801889 C7.04222708,9.18869481 8.30399709,7.91549952 10.0389308,7.91549952 Z" id="路径" fill="#A2D9FF" opacity="0.853"></path>
            <path d="M38.9733951,23.0952358 C38.9990502,23.4835455 38.8621423,23.8751142 38.5796689,24.1559446 L27.5698001,37.4874199 L24.3495314,38.7254034 C24.2813946,38.7259911 24.2110619,38.7244695 24.1412577,38.6831713 L25.2195006,35.5609105 L36.235663,22.2218146 C36.5014838,21.8855639 36.8649298,21.7132024 37.2467291,21.6891239 C37.658223,21.6631726 38.089144,21.8070375 38.4471999,22.096076 C38.7781694,22.3632491 38.9491077,22.7276253 38.9733951,23.0952358 Z" id="路径" fill="#334764"></path>
            <path d="M10.5120945,13.5512985 L27.8614317,13.5512985 C28.2677175,13.5512985 28.6093108,13.6829693 28.8472723,13.9230855 C29.0852866,14.163255 29.2157871,14.5080199 29.2157871,14.9180735 C29.2157871,15.328127 29.0852866,15.6728919 28.8472723,15.9130614 C28.6093108,16.1531777 28.2677175,16.2848484 27.8614317,16.2848484 L10.5120945,16.2848484 C10.1058088,16.2848484 9.76421548,16.1531777 9.52625396,15.9130614 C9.28823967,15.6728919 9.15773921,15.328127 9.15773921,14.9180735 C9.15773921,14.5080199 9.28823967,14.163255 9.52625396,13.9230855 C9.76421547,13.6829693 10.1058088,13.5512985 10.5120945,13.5512985 Z M21.5525819,24.2423188 L10.5120945,24.2423188 C10.1058088,24.2423188 9.76421548,24.110648 9.52625396,23.8705318 C9.28823967,23.6303622 9.15773921,23.2855974 9.15773921,22.8755438 C9.15773921,22.4654903 9.28823967,22.1207254 9.52625396,21.8805559 C9.76421548,21.6404396 10.1058088,21.5087689 10.5120945,21.5087689 L21.5525819,21.5087689 C21.9588676,21.5087689 22.3004609,21.6404396 22.5384224,21.8805559 C22.7764367,22.1207254 22.9069372,22.4654903 22.9069372,22.8755438 C22.9069372,23.2855974 22.7764367,23.6303622 22.5384224,23.8705318 C22.3004609,24.110648 21.9588676,24.2423188 21.5525819,24.2423188 Z" id="形状" fill="#334764"></path>
            <path d="M0.00990688125,4.73918249 C0.0869904255,3.44547836 0.653542099,2.26629124 1.50218553,1.40996337 C2.3473928,0.557102775 3.47359205,0.023598873 4.67640838,0.023598873 L34.0125604,0.023598873 C35.2920675,0.023598873 36.4584278,0.55565061 37.3050742,1.40996338 C38.1517768,2.26433287 38.6790619,3.44134038 38.6790619,4.73251141 L38.6790619,14.9180735 C38.6790619,15.328127 38.5485614,15.6728919 38.3105472,15.9130614 C38.0725856,16.1531776 37.7309923,16.2848484 37.3247066,16.2848484 C36.9184209,16.2848485 36.5768275,16.1531777 36.338866,15.9130614 C36.1008517,15.6728919 35.9703512,15.328127 35.9703512,14.9180734 L35.9703512,4.73251141 C35.9703512,4.19379357 35.7486055,3.69954939 35.3925385,3.34025825 C35.0364151,2.98091017 34.5465206,2.75714882 34.0125604,2.75714882 L4.67640838,2.75714882 C4.21509893,2.75714882 3.75023661,2.98903015 3.40800318,3.36889572 C3.08740148,3.72475094 2.87633878,4.20751441 2.87633878,4.73251141 L2.87633878,35.1300482 C2.87633878,35.668766 3.09808455,36.1630102 3.45415152,36.5223014 C3.81027491,36.8816494 4.30016945,37.1054108 4.83412965,37.1054107 L18.7135994,37.1054107 C19.1198851,37.1054107 19.4614784,37.2370815 19.69944,37.4771978 C19.9374543,37.7173673 20.0679547,38.0621322 20.0679547,38.4721857 C20.0679548,38.8883643 19.8953974,39.2694419 19.6205794,39.5467484 C19.3458178,39.8239979 18.9682454,39.9981101 18.5558782,39.9981101 L4.67640838,39.9981101 C3.3969012,39.9981101 2.23054098,39.4660584 1.38389458,38.6117456 C0.537191949,37.7573761 0.00990688125,36.5803686 0.00990688125,35.2891976 L0.00990688125,4.73918249 Z" id="路径" fill="#334764"></path>
        </g>
    </g>
</svg>