<?xml version="1.0" encoding="UTF-8"?>
<svg width="40px" height="40px" viewBox="0 0 40 40" version="1.1" xmlns="http://www.w3.org/2000/svg" xmlns:xlink="http://www.w3.org/1999/xlink">
    <!-- Generator: Sketch 55.2 (78181) - https://sketchapp.com -->
    <title>基本档案6</title>
    <desc>Created with Sketch.</desc>
    <g id="基本档案6" stroke="none" stroke-width="1" fill="none" fill-rule="evenodd">
        <path d="M3.68906372,8.16759991 L9.16838488,1.54849161 L30.6824069,1.54849161 L36.2882694,8.16052419 C36.7477833,8.70251405 37,9.39001433 37,10.1005817 L37,36 C37,37.6568542 35.6568542,39 34,39 L6,39 C4.34314575,39 3,37.6568542 3,36 L3,10.0806011 C3,9.38216422 3.24369353,8.70561428 3.68906372,8.16759991 Z" id="矩形" fill="#FFFFFF"></path>
        <g id="业务设置6" transform="translate(2.000000, 0.000000)" fill-rule="nonzero">
            <path d="M9.84784919,12.7980251 L27.4423084,12.7980251 C29.028694,12.7980251 30.1824291,14.1192621 30.1824291,15.5873034 L30.1824291,31.1485398 C30.1824291,32.7633851 28.8844772,33.9378181 27.4423084,33.9378181 L9.84784919,33.9378181 C8.26146354,33.9378181 7.10772851,32.616581 7.10772851,31.1485398 L7.10772851,15.7341074 C6.96351165,14.1192622 8.26146354,12.7980251 9.84784919,12.7980251 L9.84784919,12.7980251 Z" id="路径" fill="#A2D9FF" opacity="0.853"></path>
            <path d="M17.0586932,20.2911458 L9.12676482,20.2911458 C8.82382522,20.2911458 8.56560503,20.1977988 8.38705419,20.0160448 C8.20716181,19.8329252 8.11517388,19.5680788 8.11517388,19.2574063 C8.11517388,18.9467338 8.20716181,18.6818874 8.38705419,18.4987678 C8.56560503,18.3170138 8.82382522,18.2236668 9.12676482,18.2236668 L17.0586932,18.2236668 C17.3616327,18.2236668 17.6198529,18.3170138 17.7984038,18.4987678 C17.9782961,18.6818874 18.0702841,18.9467338 18.0702841,19.2574063 C18.0702841,19.5680788 17.9782961,19.8329251 17.7984037,20.0160448 C17.6198529,20.1977988 17.3616327,20.2911458 17.0586932,20.2911458 Z M14.1743556,26.1633105 L9.12676482,26.1633105 C8.82382522,26.1633105 8.56560503,26.0699635 8.38705419,25.8882095 C8.20716181,25.7050898 8.11517388,25.4402435 8.11517388,25.129571 C8.11517388,24.8188985 8.20716181,24.5540521 8.38705419,24.3709325 C8.56560503,24.1891785 8.82382522,24.0958315 9.12676482,24.0958315 L14.1743556,24.0958315 C14.4772952,24.0958315 14.7355154,24.1891785 14.9140662,24.3709325 C15.0939586,24.5540521 15.1859465,24.8188985 15.1859465,25.129571 C15.1859465,25.4402435 15.0939586,25.7050898 14.9140662,25.8882095 C14.7355154,26.0699635 14.4772952,26.1633105 14.1743556,26.1633105 Z" id="形状" fill="#334764"></path>
            <path d="M31.8926849,22.9183869 L25.1145684,30.1117072 C24.9135293,30.3144588 24.6148153,30.4206299 24.4137539,30.4206299 C24.2119657,30.4206299 24.0147141,30.3134249 23.8156052,30.2110143 L19.4864465,26.6952368 C19.2794889,26.539997 19.1628702,26.2713169 19.1437637,25.9990277 C19.1260582,25.7467038 19.1937382,25.4817172 19.3835912,25.2884583 C19.571899,25.0394877 19.8325736,24.9185409 20.0992525,24.8991507 C20.3508077,24.8808601 20.6151056,24.9535306 20.8042435,25.1555638 L24.3059367,28.0719838 L30.4916267,21.4681689 C30.6920966,21.2657157 30.9408348,21.1597491 31.1919472,21.1597491 C31.4444582,21.1597491 31.6945589,21.2668998 31.8956036,21.4715512 C32.0982363,21.677819 32.2035382,21.9346537 32.2035382,22.1934886 C32.2035382,22.4535659 32.0972222,22.7116173 31.8926849,22.9183869 Z" id="路径" fill="#334764"></path>
            <path d="M27.7307421,2.08743519 L9.27098172,2.08743519 C8.54581788,2.08743519 8.00039998,2.45595282 7.64433277,2.8267733 L3.01249461,9.16246955 C2.86088096,9.36824767 2.60337902,9.48571302 2.34120323,9.52383863 C2.07964006,9.56187514 1.80068302,9.52288155 1.59892486,9.36884829 C1.39742834,9.21501479 1.27690757,8.98150594 1.24104074,8.72593398 C1.20350838,8.4584942 1.25795922,8.1665731 1.41065131,7.89919969 L6.00313526,1.6173394 C6.78963751,0.689029433 7.96315622,0.0199561848 9.27098172,0.0199561848 L27.874959,0.0199561848 C29.0435268,0.0199561848 30.2116848,0.549221524 30.9914795,1.60759599 L35.8939429,8.21255006 C36.0597996,8.43765963 36.1345331,8.75268483 36.0934729,9.04526295 C36.0613877,9.27388802 35.9542482,9.49289344 35.7412465,9.62901236 C35.5085434,9.74520874 35.1705699,9.86805341 34.941586,9.86805341 C34.6443796,9.86805341 34.3393465,9.77702398 34.1408175,9.46600447 L29.2362805,2.85825216 C28.8580833,2.28940074 28.2982178,2.08743519 27.7307421,2.08743519 Z" id="路径" fill="#334764"></path>
            <path d="M32.7783329,39.9628975 L4.22339097,39.9628975 C3.04757915,39.9628975 1.99982535,39.5362744 1.24510947,38.8400429 C0.497443845,38.1503154 0.0390286843,37.1956061 0.0390286843,36.1398798 L0.0390286843,10.8895716 C0.0390286843,9.83384531 0.497443845,8.87913601 1.24510947,8.18940844 C1.99982535,7.49317698 3.04757915,7.06655383 4.22339097,7.06655383 L32.7783329,7.06655383 C33.9541447,7.06655383 35.0018985,7.49317698 35.7566144,8.18940844 C36.50428,8.87913601 36.9626952,9.83384531 36.9626952,10.8895716 L36.9626952,21.0190557 C36.9626952,21.3297282 36.8707072,21.5945745 36.6908149,21.7776942 C36.512264,21.9594482 36.2540438,22.0527952 35.9511042,22.0527952 C35.6481646,22.0527952 35.3899444,21.9594482 35.2113936,21.7776942 C35.0315012,21.5945745 34.9395133,21.3297282 34.9395133,21.0190557 L34.9395133,10.8895716 C34.9395133,10.3855595 34.6989757,9.92560607 34.2708118,9.59872221 C33.9005928,9.3160767 33.3841793,9.13403283 32.7783329,9.13403283 L4.22339097,9.13403283 C3.61754458,9.13403283 3.10113104,9.3160767 2.73091205,9.59872222 C2.30274812,9.92560608 2.06221057,10.3855596 2.06221057,10.8895716 L2.06221057,36.1398798 C2.06221057,36.6438918 2.30274811,37.1038453 2.73091203,37.4307292 C3.10113101,37.7133747 3.61754455,37.8954186 4.22339095,37.8954186 L32.7783329,37.8954186 C33.4009933,37.8954186 33.9370017,37.6300293 34.3214115,37.2061144 C34.7075731,36.7802676 34.9395133,36.1907249 34.9395133,35.5526633 L34.9395133,28.0656534 C34.9395133,27.7549808 35.0315012,27.4901345 35.2113936,27.3070149 C35.3899444,27.1252608 35.6481646,27.0319139 35.9511042,27.0319139 C36.2540438,27.0319139 36.512264,27.1252608 36.6908149,27.3070149 C36.8707072,27.4901345 36.9626952,27.7549808 36.9626952,28.0656534 L36.9626952,35.5526633 C36.9626952,36.8169115 36.5123762,37.9184849 35.7632338,38.7048976 C35.0111918,39.4943541 33.9601872,39.9628975 32.7783329,39.9628975 Z" id="路径" fill="#334764"></path>
        </g>
    </g>
</svg>