<?xml version="1.0" encoding="UTF-8"?>
<svg width="40px" height="40px" viewBox="0 0 40 40" version="1.1" xmlns="http://www.w3.org/2000/svg" xmlns:xlink="http://www.w3.org/1999/xlink">
    <!-- Generator: Sketch 55.2 (78181) - https://sketchapp.com -->
    <title>报表查询6</title>
    <desc>Created with Sketch.</desc>
    <g id="报表查询6" stroke="none" stroke-width="1" fill="none" fill-rule="evenodd">
        <g transform="translate(0.000000, 5.000000)">
            <path d="M26.1144752,1.95006583 L20.325123,12.9520947 L25.6998947,18.6473623 C26.2926492,18.697338 26.7007112,18.537271 26.9240806,18.1671616 C27.14745,17.7970521 28.7087905,15.5534355 31.608102,11.4363118 L31.9212102,9.66109007 L26.1144752,1.95006583 Z" id="路径-6" fill="#FFFFFF"></path>
            <polygon id="路径-7" fill="#FFFFFF" points="15.3232132 10.3031731 10.7806446 13.4496783 16.1449865 20.647909 20 14.1276087"></polygon>
            <polygon id="路径-8" fill="#FFFFFF" points="7.42749633 9.47487648 10.0820721 13.7460556 3.05962524 18.6562804 3.45030439 15.0845336"></polygon>
            <g id="报表查询8备份">
                <g id="编组-30备份" transform="translate(0.000000, 27.000000)">
                    <g id="编组-29"></g>
                </g>
                <path d="M2.76446291,17.0242263 L7.28497322,8.37248888 L15.2340426,20.4758176 C15.537224,20.9374445 16.1572237,21.06589 16.6188507,20.7627085 C16.7760514,20.6594643 16.9009506,20.5139818 16.9792087,20.3429639 L25.4592891,1.8113942 C25.6890975,1.30919251 26.2825089,1.08837414 26.7847106,1.31818255 C26.980466,1.40776057 27.1420877,1.55811887 27.2455488,1.74690497 C30.3036515,7.32704348 33.3617542,12.907182 36.4198569,18.4873205" id="路径-2" stroke="#334764" stroke-width="2.33333333" stroke-linecap="round" stroke-linejoin="round"></path>
                <path d="M1.30883481,4.90933762 L10.8084342,18.1231104 C11.1308167,18.5715387 11.7556824,18.673719 12.2041107,18.3513365 C12.2249168,18.3363787 12.2451403,18.3206266 12.2647363,18.3041152 L21.6661303,10.3826325 C22.0196553,10.0847573 22.531278,10.0680302 22.9035048,10.3421775 C27.4089555,13.6604698 31.9144062,16.978762 36.4198569,20.2970543" id="路径-2" stroke="#A2D9FF" stroke-width="2" stroke-linecap="round" stroke-linejoin="round" transform="translate(18.864346, 12.603196) scale(-1, 1) translate(-18.864346, -12.603196) "></path>
                <rect id="矩形" fill="#334764" x="0" y="27.5384615" width="40" height="2.33333333" rx="1.16666667"></rect>
            </g>
        </g>
    </g>
</svg>