<?xml version="1.0" encoding="UTF-8"?>
<svg width="40px" height="40px" viewBox="0 0 40 40" version="1.1" xmlns="http://www.w3.org/2000/svg" xmlns:xlink="http://www.w3.org/1999/xlink">
    <!-- Generator: Sketch 55.2 (78181) - https://sketchapp.com -->
    <title>业务处理6</title>
    <desc>Created with Sketch.</desc>
    <g id="业务处理6" stroke="none" stroke-width="1" fill="none" fill-rule="evenodd">
        <path d="M3.68906372,8.16759991 L9.16838488,1.54849161 L29.5922329,1.54849161 L36.1275557,8.12240406 C36.686349,8.684497 37,9.44488095 37,10.2374707 L37,36 C37,37.6568542 35.6568542,39 34,39 L6,39 C4.34314575,39 3,37.6568542 3,36 L3,10.0806011 C3,9.38216422 3.24369353,8.70561428 3.68906372,8.16759991 Z" id="矩形" fill="#FFFFFF"></path>
        <g transform="translate(1.000000, 0.000000)" fill-rule="nonzero">
            <path d="M9.92005993,12.8728612 L27.956535,12.8728612 C29.5695531,12.8728612 30.7426572,14.1806848 30.7426572,15.633822 L30.7426572,31.1823908 C30.7426572,32.7808418 29.4229151,33.9433516 27.956535,33.9433516 L9.92005993,33.9433516 C8.30704186,33.9433516 7.13393778,32.6355281 7.13393778,31.1823908 L7.13393778,15.633822 C7.13393778,14.0353711 8.45367987,12.8728612 9.92005993,12.8728612 Z" id="路径" fill="#A2D9FF" opacity="0.853"></path>
            <path d="M15.347588,18.2744118 C16.4797942,17.4377695 17.8926923,17.0210509 19.3048925,17.0210509 L20.0103059,17.0210509 L20.5458615,17.1537307 L20.8683636,17.3135255 C21.0299662,17.3016237 21.1375792,17.349753 21.2254516,17.3858222 C21.3114937,17.4211401 21.3876094,17.4470901 21.4610956,17.4546991 C21.5802972,17.4935349 21.677736,17.5218416 21.759468,17.5455642 C21.914663,17.5906092 21.9990651,17.6038647 22.0779156,17.682003 C23.2924622,18.1548068 24.1416348,18.8587806 24.850192,19.7013704 C24.9173133,19.7691896 24.9416869,19.823408 24.9682051,19.8759655 C25.0116513,19.9620731 25.0569456,20.0467493 25.1379066,20.1324622 C25.8815078,21.3170135 26.3136975,22.5021535 26.4319439,23.8507961 L28.1029055,23.8507961 L27.6254772,24.5131614 L25.3128114,27.7486159 L22.3945256,23.8507961 L24.2367037,23.8507961 C24.1761023,21.9053566 22.9166322,20.441826 21.3121362,19.6468231 C21.1701217,19.623201 21.1318483,19.5938217 21.0921791,19.5741662 C20.9999619,19.528474 20.9067074,19.4900086 20.8150983,19.4802684 L20.4027225,19.3440512 L19.9280616,19.1872598 L19.3048925,19.1872598 C18.2229528,19.1872598 17.2967068,19.495888 16.5243277,20.108211 C16.3909806,20.2384136 16.1609391,20.3497696 15.9322183,20.3497696 C15.6839803,20.3497696 15.3245666,20.0879125 15.0771863,19.8456539 C14.9075156,19.6151726 14.8482716,19.357584 14.8884,19.0991047 C14.9328316,18.8129075 15.0943987,18.5288408 15.347588,18.2744118 Z M23.4219016,29.9852549 C22.2875099,30.8283652 20.8691686,31.2482992 19.4515305,31.2482992 L18.7461171,31.2482992 L18.2105615,31.1156194 L17.8880593,30.9558246 C17.7264568,30.9677264 17.6188438,30.9195971 17.5309714,30.8835279 C17.4449293,30.8482099 17.3688136,30.82226 17.2953274,30.814651 C17.1761258,30.7758152 17.078687,30.7475085 16.996955,30.723786 C16.84176,30.6787409 16.7573579,30.6654854 16.6785075,30.5873471 C15.4639607,30.1145433 14.6147881,29.4105695 13.906231,28.5679797 C13.8391098,28.5001606 13.8147361,28.4459421 13.7882179,28.3933847 C13.7447717,28.307277 13.6994774,28.2226007 13.6185164,28.1368878 C12.8749152,26.9523366 12.4427255,25.7671967 12.3244791,24.418554 L10.6535175,24.418554 L11.1309458,23.7561887 L13.4436117,20.5207342 L16.3618973,24.418554 L14.5197193,24.418554 C14.5803207,26.3639935 15.8397908,27.8275241 17.4442869,28.622527 C17.5863012,28.6461491 17.6245747,28.6755284 17.6642438,28.6951839 C17.7564611,28.7408761 17.8497156,28.7793415 17.9413248,28.7890817 L18.3537005,28.9252989 L18.8283613,29.0820903 L19.4515305,29.0820903 C20.5334702,29.0820902 21.4597162,28.7734621 22.2320953,28.1611391 C22.3654423,28.0309366 22.5954839,27.9195805 22.8242047,27.9195805 C23.196351,27.9195805 23.4354651,28.1811413 23.678914,28.4232847 C23.8533953,28.6611112 23.9097116,28.9556093 23.8662862,29.2353254 C23.8212205,29.5256067 23.6687254,29.8018088 23.4219016,29.9852549 Z" id="形状" fill="#334764"></path>
            <path d="M9.62678391,0.0193448842 L28.543087,0.0193448842 C29.7950067,0.0193448842 31.0469814,0.570649681 31.8820964,1.67407812 L36.8673052,8.21255934 C37.0665304,8.47579402 37.1585537,8.84391647 37.1091531,9.1865976 C37.0676279,9.47464904 36.9232772,9.7466392 36.6458723,9.91474593 C36.3815041,10.0445392 35.990748,10.1778088 35.7283495,10.1778088 C35.3593481,10.1778088 34.9859911,10.0613479 34.7397581,9.6911069 L29.7537511,3.15157648 C29.4134849,2.65013992 28.9071079,2.47618126 28.3964491,2.47618121 L9.62678391,2.47618121 C8.96273622,2.47618121 8.46408904,2.80509359 8.13540108,3.13492313 L3.43383921,9.39559439 C3.24779211,9.64141693 2.93511813,9.78908548 2.61124027,9.8349359 C2.28727555,9.88079861 1.94530567,9.82574185 1.69718659,9.64133309 C1.44886631,9.4567748 1.29679641,9.17808679 1.25245651,8.87051051 C1.20778402,8.56062711 1.272029,8.22152933 1.45665669,7.91201011 L6.13741357,1.67904564 C6.97606086,0.712478515 8.23081178,0.0193448842 9.62678391,0.0193448842 Z" id="路径" fill="#334764"></path>
            <path d="M4.4944536,6.99440377 L33.5287793,6.99440377 C34.7816258,6.99440377 35.8970351,7.43862158 36.7008612,8.16051028 C37.5038922,8.8816848 37.9950052,9.88026714 37.9950052,10.9837828 L37.9950052,21.0104299 C37.9950052,21.3788783 37.8760665,21.6889569 37.658204,21.9048519 C37.4401447,22.1209419 37.1269503,22.2388481 36.7548155,22.2388481 C36.3826808,22.2388481 36.0694863,22.1209419 35.8514271,21.9048519 C35.6335646,21.688957 35.5146259,21.3788783 35.5146259,21.0104299 L35.5146259,10.9837828 C35.5146259,10.5473536 35.2974441,10.1512036 34.9175731,9.86887325 C34.5730739,9.61283221 34.0916775,9.4512401 33.5287793,9.4512401 L4.4944536,9.4512401 C3.93155547,9.4512401 3.45015906,9.61283221 3.10565985,9.86887325 C2.72578883,10.1512036 2.50860703,10.5473536 2.50860703,10.9837828 L2.50860703,35.9777438 C2.50860703,36.414173 2.72578883,36.810323 3.10565987,37.0926533 C3.45015908,37.3486943 3.93155549,37.5102864 4.49445361,37.5102864 L33.5287793,37.5102864 C34.0987174,37.5102864 34.588976,37.2732482 34.9407158,36.895638 C35.3003696,36.5095317 35.5146259,35.97456 35.5146259,35.3964889 L35.5146259,27.9854888 C35.5146259,27.6170404 35.6335646,27.3069618 35.8514271,27.0910668 C36.0694863,26.8749768 36.3826808,26.7570706 36.7548155,26.7570706 C37.1269503,26.7570707 37.4401447,26.8749768 37.658204,27.0910668 C37.8760665,27.3069618 37.9950052,27.6170404 37.9950052,27.9854888 L37.9950052,35.3964889 C37.9950052,36.705326 37.5135006,37.844276 36.7173081,38.6579345 C35.9139623,39.4789031 34.7915491,39.9671228 33.5287793,39.9671228 L4.4944536,39.9671228 C3.24160712,39.9671228 2.12619788,39.5229049 1.32237173,38.8010163 C0.519340812,38.0798417 0.0282278167,37.0812594 0.0282278167,35.9777438 L0.0282278167,10.9837828 C0.0282278167,9.88026714 0.51934081,8.88168479 1.32237173,8.16051027 C2.12619788,7.43862158 3.24160712,6.99440377 4.4944536,6.99440377 Z" id="路径" fill="#334764"></path>
        </g>
    </g>
</svg>