<?xml version="1.0" encoding="UTF-8"?>
<svg width="40px" height="40px" viewBox="0 0 40 40" version="1.1" xmlns="http://www.w3.org/2000/svg" xmlns:xlink="http://www.w3.org/1999/xlink">
    <!-- Generator: Sketch 55.2 (78181) - https://sketchapp.com -->
    <title>基本档案7</title>
    <desc>Created with Sketch.</desc>
    <g id="基本档案7" stroke="none" stroke-width="1" fill="none" fill-rule="evenodd">
        <g id="业务设置7" transform="translate(2.000000, 0.000000)">
            <rect id="矩形" fill="#FFFFFF" x="2" y="2" width="8" height="19" rx="1"></rect>
            <rect id="矩形备份-69" fill="#FFFFFF" x="15" y="2" width="8" height="19" rx="1"></rect>
            <rect id="矩形备份-70" fill="#FFFFFF" x="27" y="2" width="8" height="19" rx="1"></rect>
            <g id="基本档案7" stroke="#334764">
                <g id="编组-37">
                    <path d="M1,38.113082 L10.6842105,38.113082 L10.6842105,23.5764967 C10.6842105,22.4719272 9.78878003,21.5764967 8.68421053,21.5764967 L3,21.5764967 C1.8954305,21.5764967 1,22.4719272 1,23.5764967 L1,38.113082 Z" id="矩形备份-64" stroke-width="2" fill="#A2D9FF" transform="translate(5.842105, 29.844789) rotate(-180.000000) translate(-5.842105, -29.844789) "></path>
                    <ellipse id="椭圆形" stroke-width="0.975609756" fill="#FFFFFF" cx="5.84210526" cy="27.3170732" rx="1" ry="1"></ellipse>
                    <path d="M13.6578947,38.0243902 L23.3421053,38.0243902 L23.3421053,23.4878049 C23.3421053,22.3832354 22.4466748,21.4878049 21.3421053,21.4878049 L15.6578947,21.4878049 C14.5533252,21.4878049 13.6578947,22.3832354 13.6578947,23.4878049 L13.6578947,38.0243902 Z" id="矩形备份-64" stroke-width="2" fill="#A2D9FF" transform="translate(18.500000, 29.756098) rotate(-180.000000) translate(-18.500000, -29.756098) "></path>
                    <path d="M36,21.4878049 L26.3157895,21.4878049 L26.3157895,36.0243902 C26.3157895,37.1289597 27.21122,38.0243902 28.3157895,38.0243902 L34,38.0243902 C35.1045695,38.0243902 36,37.1289597 36,36.0243902 L36,21.4878049 Z" id="矩形备份-67" stroke-width="2" fill="#A2D9FF"></path>
                    <ellipse id="椭圆形" stroke-width="0.975609756" fill="#FFFFFF" cx="18.5" cy="27.3170732" rx="1" ry="1"></ellipse>
                    <path d="M15.6578947,1 C14.5533252,1 13.6578947,1.8954305 13.6578947,3 L13.6578947,36.0243902 C13.6578947,37.1289597 14.5533252,38.0243902 15.6578947,38.0243902 L21.3421053,38.0243902 C22.4466748,38.0243902 23.3421053,37.1289597 23.3421053,36.0243902 L23.3421053,3 C23.3421053,1.8954305 22.4466748,1 21.3421053,1 L15.6578947,1 Z" id="矩形备份-65" stroke-width="2" transform="translate(18.500000, 19.512195) rotate(-180.000000) translate(-18.500000, -19.512195) "></path>
                    <path d="M28.3157895,1 C27.21122,1 26.3157895,1.8954305 26.3157895,3 L26.3157895,36.0243902 C26.3157895,37.1289597 27.21122,38.0243902 28.3157895,38.0243902 L34,38.0243902 C35.1045695,38.0243902 36,37.1289597 36,36.0243902 L36,3 C36,1.8954305 35.1045695,1 34,1 L28.3157895,1 Z" id="矩形备份-66" stroke-width="2" transform="translate(31.157895, 19.512195) rotate(-180.000000) translate(-31.157895, -19.512195) "></path>
                    <path d="M3,1.0886918 C1.8954305,1.0886918 1,1.9841223 1,3.0886918 L1,36.113082 C1,37.2176515 1.8954305,38.113082 3,38.113082 L8.68421053,38.113082 C9.78878003,38.113082 10.6842105,37.2176515 10.6842105,36.113082 L10.6842105,3.0886918 C10.6842105,1.9841223 9.78878003,1.0886918 8.68421053,1.0886918 L3,1.0886918 Z" id="矩形备份-64" stroke-width="2" transform="translate(5.842105, 19.600887) rotate(-180.000000) translate(-5.842105, -19.600887) "></path>
                    <ellipse id="椭圆形" stroke-width="0.975609756" fill="#FFFFFF" cx="31.1578947" cy="27.3170732" rx="1" ry="1"></ellipse>
                </g>
            </g>
        </g>
    </g>
</svg>