<?xml version="1.0" encoding="UTF-8"?>
<svg width="40px" height="40px" viewBox="0 0 40 40" version="1.1" xmlns="http://www.w3.org/2000/svg" xmlns:xlink="http://www.w3.org/1999/xlink">
    <!-- Generator: Sketch 55.2 (78181) - https://sketchapp.com -->
    <title>单据维护7</title>
    <desc>Created with Sketch.</desc>
    <g id="单据维护7" stroke="none" stroke-width="1" fill="none" fill-rule="evenodd">
        <path d="M4,2 L32,2 C33.6568542,2 35,3.34314575 35,5 L35,31 C35,34.8659932 31.8659932,38 28,38 L4,38 C2.34314575,38 1,36.6568542 1,35 L1,5 C1,3.34314575 2.34314575,2 4,2 Z" id="矩形" fill="#FFFFFF"></path>
        <g fill-rule="nonzero">
            <path d="M9.27631932,6.61435684 L27.2468377,6.61435684 C28.837149,6.61435684 30.2684292,7.89673326 30.2684292,9.66000087 L30.2684292,29.6971328 C30.2684292,31.3001033 28.9961802,32.7427768 27.2468377,32.7427768 L9.27631932,32.7427768 C7.68600798,32.7427768 6.25472772,31.4604004 6.25472772,29.6971328 L6.25472772,9.66000087 C6.25472772,8.05703034 7.68600794,6.61435684 9.27631932,6.61435684 Z" id="路径" fill="#A2D9FF"></path>
            <path d="M39.6437817,29.3835262 L29.9952556,39.7465831 C29.7308131,39.8694409 29.3639153,39.9850723 28.9961801,39.9850723 C28.7694794,39.9850723 28.5475421,39.8663654 28.3236482,39.7524485 L22.1192513,34.6315705 C21.8851258,34.4586497 21.7523617,34.1585975 21.7307751,33.8539792 C21.7108132,33.5722881 21.7876643,33.2767307 22.0015985,33.0610936 C22.2113871,32.7860751 22.5049958,32.6509169 22.8055172,32.6292802 C23.0894238,32.6088398 23.3874495,32.6904098 23.6009315,32.9158579 L29.0362485,37.3672068 L38.0676687,27.7673504 C38.2933842,27.5417238 38.5735237,27.424046 38.8561105,27.424046 C39.1403417,27.424046 39.4220872,27.543098 39.6484779,27.7712908 C39.8763108,28.0009372 39.9944588,28.2869408 39.9944588,28.5750534 C39.9944588,28.865143 39.8746824,29.1530842 39.6437817,29.3835262 Z" id="路径" fill="#334764"></path>
            <path d="M0.0273831799,4.53049512 C0.0273831799,3.27931039 0.503744354,2.13818974 1.29417112,1.31491373 C2.06509265,0.511953569 3.13503055,0.0132495347 4.34635411,0.0132495347 L32.4948651,0.0132495347 C33.6529149,0.0132495347 34.7354971,0.5317927 35.5267043,1.35588155 C36.3133235,2.1751918 36.813836,3.29864856 36.813836,4.53049512 L36.813836,22.0028741 C36.813836,22.3486626 36.7096891,22.6430263 36.5076129,22.846711 C36.3067551,23.0491677 36.0165111,23.1538815 35.6754878,23.1538815 C35.3344646,23.1538815 35.0442205,23.0491677 34.8433627,22.846711 C34.6412865,22.6430263 34.5371396,22.3486626 34.5371396,22.0028741 L34.5371396,4.53049512 C34.5371396,3.91853828 34.323682,3.36228205 33.9634164,2.96283534 C33.6040942,2.56443463 33.0990973,2.31526437 32.4948651,2.31526437 L4.34635411,2.31526437 C3.74212192,2.31526437 3.23712503,2.56443464 2.87780284,2.96283535 C2.51753726,3.36228206 2.30407963,3.91853828 2.30407963,4.53049512 L2.30407963,35.3075297 C2.30407963,35.9194866 2.51753726,36.4757428 2.87780285,36.8751895 C3.23712504,37.2735902 3.74212193,37.5227605 4.34635413,37.5227604 L18.5001252,37.5227604 C18.8411484,37.5227604 19.1313925,37.6274743 19.3322503,37.829931 C19.5343265,38.0336157 19.6384734,38.3279794 19.6384734,38.6737679 C19.6384734,39.0317987 19.4892995,39.3593054 19.2527347,39.5977533 C19.0174726,39.8348881 18.6945275,39.9850723 18.341094,39.9850723 L4.34635411,39.9850723 C3.18830433,39.9850723 2.1057221,39.4665292 1.31451493,38.6424403 C0.527895691,37.8231301 0.0273831799,36.6996733 0.0273831799,35.4678268 L0.0273831799,4.53049512 Z" id="路径" fill="#334764"></path>
            <path d="M23.1330882,19.5536 L9.1383482,19.5536 C8.79732496,19.5536 8.50708088,19.4488861 8.3062231,19.2464295 C8.1041469,19.0427447 8,18.7483811 8,18.4025925 C8,18.056804 8.1041469,17.7624404 8.30622309,17.5587557 C8.50708088,17.356299 8.79732495,17.2515851 9.1383482,17.2515851 L23.1330882,17.2515851 C23.4741114,17.2515851 23.7643555,17.356299 23.9652133,17.5587557 C24.1672895,17.7624404 24.2714364,18.056804 24.2714364,18.4025925 C24.2714364,18.7483811 24.1672895,19.0427447 23.9652133,19.2464295 C23.7643555,19.4488861 23.4741114,19.5536 23.1330882,19.5536 Z M23.1330882,13.3020148 L9.1383482,13.3020148 C8.79732496,13.3020148 8.50708088,13.197301 8.3062231,12.9948443 C8.1041469,12.7911595 8,12.4967959 8,12.1510074 C8,11.8052189 8.1041469,11.5108553 8.30622309,11.3071705 C8.50708088,11.1047139 8.79732495,11 9.1383482,11 L23.1330882,11 C23.4741114,11 23.7643555,11.1047139 23.9652133,11.3071705 C24.1672895,11.5108553 24.2714364,11.8052189 24.2714364,12.1510074 C24.2714364,12.4967959 24.1672895,12.7911595 23.9652133,12.9948443 C23.7643555,13.197301 23.4741114,13.3020148 23.1330882,13.3020148 Z" id="形状" fill="#334764"></path>
            <path d="M16,31.6505681 C15.7006285,31.6505681 15.4432399,31.5628685 15.2660889,31.3843074 C15.0873466,31.2041422 15,30.9423418 15,30.6379089 L15,17.0126592 C15,16.7082263 15.0873466,16.4464258 15.2660889,16.2662607 C15.4432399,16.0876996 15.7006285,16 16,16 C16.2993715,16 16.5567601,16.0876996 16.7339111,16.2662607 C16.9126534,16.4464258 17,16.7082263 17,17.0126592 L17,30.7982059 C17,31.0336919 16.9069086,31.2465359 16.7401808,31.3977855 C16.5595391,31.5616572 16.3014308,31.6505681 16,31.6505681 Z" id="路径" fill="#334764" transform="translate(16.000000, 23.825284) rotate(-90.000000) translate(-16.000000, -23.825284) "></path>
        </g>
    </g>
</svg>