<?xml version="1.0" encoding="UTF-8"?>
<svg width="40px" height="40px" viewBox="0 0 40 40" version="1.1" xmlns="http://www.w3.org/2000/svg" xmlns:xlink="http://www.w3.org/1999/xlink">
    <!-- Generator: Sketch 55.2 (78181) - https://sketchapp.com -->
    <title>报表查询7</title>
    <desc>Created with Sketch.</desc>
    <g id="报表查询7" stroke="none" stroke-width="1" fill="none" fill-rule="evenodd">
        <rect id="矩形" fill="#FFFFFF" transform="translate(20.000000, 20.000000) scale(-1, 1) rotate(-180.000000) translate(-20.000000, -20.000000) " x="3" y="2" width="34" height="36"></rect>
        <g transform="translate(1.000000, 0.000000)" fill-rule="nonzero">
            <path d="M7.52130808,20.5375648 C7.52130808,26.8527736 12.6227112,31.9722619 18.9156109,31.9722619 C25.2085106,31.9722619 30.3099138,26.8527736 30.3099138,20.5375648 C30.3099138,14.2223559 25.2085106,9.10286759 18.9156109,9.10286759 C12.6227112,9.10286759 7.52130808,14.2223559 7.52130808,20.5375648 Z" id="路径" fill="#A2D9FF"></path>
            <path d="M0.036675397,4.67192244 C0.036675397,3.37918914 0.541570762,2.22140861 1.35154843,1.38392768 C2.16926052,0.538449699 3.29794408,0.0194300518 4.53030359,0.0194300518 L33.4433471,0.0194300518 C34.6757066,0.0194300518 35.8043901,0.538449699 36.6221022,1.38392768 C37.4320799,2.22140861 37.9369753,3.37918914 37.9369753,4.67192244 L37.9369753,26.9695819 C37.9369753,27.3362069 37.819786,27.644541 37.6057849,27.8593007 C37.3917839,28.0740604 37.084539,28.1916652 36.7192091,28.1916652 C36.3538793,28.1916652 36.0466344,28.0740604 35.8326334,27.8593007 C35.6186323,27.644541 35.501443,27.3362069 35.501443,26.9695819 L35.501443,4.67192244 C35.501443,4.05202968 35.2717973,3.50930091 34.9093263,3.11756368 C34.5307276,2.70839658 34.0070847,2.46359656 33.4433471,2.46359658 L4.53030359,2.46359658 C3.96656595,2.46359658 3.4429231,2.70839661 3.06432439,3.11756372 C2.7018534,3.50930095 2.47220764,4.05202971 2.47220764,4.67192244 L2.47220764,35.1168036 C2.47220764,35.7366964 2.70185339,36.2794252 3.06432438,36.6711624 C3.44292309,37.0803295 3.96656595,37.3251295 4.53030359,37.3251295 L19.0580397,37.3251295 C19.4233696,37.3251295 19.7306145,37.4427343 19.9446155,37.657494 C20.1586165,37.8722537 20.2758058,38.1805878 20.2758058,38.5472128 C20.2758058,38.8941974 20.1705649,39.1614265 19.971908,39.3408516 C19.7547277,39.5370068 19.4364308,39.6263623 19.0580397,39.6263623 L4.53030359,39.6263623 C3.29794408,39.6263623 2.16926052,39.1073427 1.35154843,38.2618647 C0.541570762,37.4243838 0.036675397,36.2666032 0.036675397,34.9738699 L0.036675397,4.67192244 Z" id="路径" fill="#334764"></path>
            <path d="M19.0580397,33.76608 C15.4833481,33.76608 12.2589975,32.3243015 9.92839799,29.9854397 C7.59779846,27.6465779 6.16111319,24.4107965 6.16111319,20.8234322 C6.16111319,17.2254567 7.60610197,13.9457827 9.9484037,11.5696271 C12.2772395,9.20713214 15.4933027,7.73785063 19.0580397,7.73785063 C22.6401972,7.73785063 25.8705487,9.18571343 28.2021669,11.551031 C30.5245424,13.9069724 31.9549663,17.1727367 31.9549663,20.8234322 C31.9549663,24.4633143 30.5328146,27.685723 28.2220985,30.0046309 C25.8887791,32.3462222 22.65015,33.76608 19.0580397,33.76608 L19.0580397,33.76608 Z M29.519434,20.8234322 C29.519434,17.9535461 28.3353678,15.2690567 26.4144503,13.3145553 C24.5295543,11.3967052 21.9360515,10.1820172 19.0580397,10.1820172 C16.1617427,10.1820172 13.5539417,11.3766143 11.666314,13.2972439 C9.76669881,15.2300706 8.59664544,17.898302 8.59664544,20.8234322 C8.59664544,23.7213183 9.77999728,26.3314074 11.6661428,28.2242396 C13.5762229,30.1410912 16.2069098,31.3219135 19.0580397,31.3219135 C21.891334,31.3219135 24.5072917,30.1200017 26.4145299,28.2060021 C28.3217681,26.2920025 29.519434,23.6667709 29.519434,20.8234322 Z" id="形状" fill="#334764"></path>
            <path d="M36.149494,39.8336162 C35.7222076,39.8336162 35.4373501,39.6906825 35.1524925,39.4048151 L26.7491942,30.9717259 C26.179479,30.3999911 26.179479,29.5423888 26.7491942,28.9706539 C27.3189093,28.398919 28.173482,28.398919 28.7431971,28.9706539 L37.1464955,37.4037431 C37.7162107,37.9754779 37.7162107,38.8330802 37.1464955,39.4048151 C36.8616379,39.6906825 36.4343516,39.8336162 36.149494,39.8336162 Z" id="路径" fill="#334764"></path>
            <path d="M17.5570516,25.0180066 C18.3759511,25.3169549 19.2252494,25.3570043 20.0208109,25.1767245 C20.8339259,24.992467 21.5909091,24.5779007 22.1950772,23.9715908 C23.0913736,23.0721169 23.537425,22.0221696 23.537425,20.8234322 C23.537425,20.2236846 23.3899134,19.6235578 23.0923509,19.0236181 C22.9701215,18.7113323 22.9728782,18.3681252 23.0857489,18.0736209 C23.1923669,17.7954314 23.3984302,17.5605491 23.6924611,17.4425197 C24.0056704,17.3167919 24.3508545,17.318672 24.6467127,17.432867 C24.9239195,17.539863 25.1579721,17.7466568 25.2755845,18.0417301 C25.6960489,18.8872409 25.8305285,19.8558684 25.8305285,20.8234322 C25.8305285,22.6236285 25.1428916,24.4252712 23.7624627,25.6720616 C22.643151,26.9338198 20.9881072,27.762864 19.0580397,27.762864 C18.2284036,27.762864 17.5368972,27.6235245 16.7080242,27.3466926 C16.3985871,27.2207076 16.1530071,26.9688402 16.0165613,26.6721597 C15.8856416,26.3874946 15.8546767,26.0593365 15.9739283,25.7601506 C16.0987251,25.4470525 16.3509059,25.1985197 16.6482644,25.0607908 C16.9319238,24.9294069 17.2589227,24.8983322 17.5570516,25.0180066 Z M12.4230443,19.0106307 C12.7001367,17.9032768 13.3917458,16.7975551 14.2190652,15.9673028 C15.0492023,15.1342227 16.1563414,14.5804851 17.2627513,14.1627889 C17.5771729,14.1041984 17.9212864,14.1739405 18.1991913,14.3366264 C18.4536121,14.4855646 18.6554523,14.7145367 18.7130997,15.0037957 C18.7768301,15.3235774 18.7077479,15.6758308 18.5429197,15.9593951 C18.3945076,16.2147178 18.1663444,16.4172735 17.8781072,16.4751253 C17.1273897,16.6258011 16.5227247,17.071418 15.9210023,17.6752736 C15.3296526,18.2687196 15.0316691,18.8608317 14.7358543,19.6029903 C14.6677763,19.8684319 14.5183561,20.0763273 14.3261927,20.2263176 C14.1301881,20.379306 13.888395,20.4732446 13.6457459,20.4732446 L13.2400372,20.4732446 C12.9607302,20.4104851 12.7392983,20.2112481 12.5941493,19.9615391 C12.4301266,19.6793606 12.3609164,19.3291629 12.4230443,19.0106307 Z" id="形状" fill="#334764"></path>
        </g>
    </g>
</svg>