<?xml version="1.0" encoding="UTF-8"?>
<svg width="40px" height="40px" viewBox="0 0 40 40" version="1.1" xmlns="http://www.w3.org/2000/svg" xmlns:xlink="http://www.w3.org/1999/xlink">
    <!-- Generator: Sketch 55.2 (78181) - https://sketchapp.com -->
    <title>业务设置5</title>
    <desc>Created with Sketch.</desc>
    <g id="业务设置5" stroke="none" stroke-width="1" fill="none" fill-rule="evenodd">
        <g transform="translate(3.000000, 0.000000)">
            <g id="编组备份-7" fill-rule="nonzero">
                <polygon id="路径备份-11" fill="#FFFFFF" points="28.587578 36.8523002 1.20608108 36.8523002 1.20608108 1.21065375 17.6349792 1.21065375 28.587578 13.4527845"></polygon>
                <path d="M1.20608108,0 L17.5578482,0 C17.9172742,0 18.2185416,0.117847952 18.4579842,0.422689327 L29.4071872,12.6610245 C29.5872327,12.9042843 29.7165281,13.1463192 29.7165281,13.4527845 L29.7165281,36.8687606 C29.7502097,37.1936326 29.6351914,37.4893956 29.4318135,37.7044514 C29.2220463,37.9262634 28.9197021,38.062954 28.587578,38.062954 L1.20608108,38.062954 C0.874305522,38.062954 0.572863966,37.9263159 0.354253296,37.7067108 C0.135972742,37.4874373 0,37.1851265 0,36.8523002 L0,1.21065375 C0,0.877827534 0.135972742,0.57551673 0.354253296,0.356243234 C0.572863966,0.136638119 0.874305522,0 1.20608108,0 Z M2.41216216,35.6416465 L27.3814969,35.6416465 L27.3814969,13.8644461 L17.0900282,2.42130751 L2.41216216,2.42130751 L2.41216216,35.6416465 Z" id="形状备份-2" fill="#334764"></path>
                <polyline id="路径备份-12" fill="#A2D9FF" points="16.8636694 1.98547215 16.8636694 13.4527845 27.8162682 13.4527845"></polyline>
                <path d="M18.0697505,12.2421308 L27.8162682,12.2421308 C28.1480437,12.2421308 28.4494853,12.3787689 28.668096,12.598374 C28.8863765,12.8176475 29.0223493,13.1199583 29.0223493,13.4527845 C29.0223493,13.7856107 28.8863765,14.0879215 28.668096,14.307195 C28.4494853,14.5268001 28.1480437,14.6634383 27.8162682,14.6634383 L16.8636694,14.6634383 C16.5318939,14.6634383 16.2304523,14.5268001 16.0118417,14.307195 C15.7935611,14.0879215 15.6575884,13.7856107 15.6575884,13.4527845 L15.6575884,1.98547215 C15.6575884,1.65264594 15.7935611,1.35033513 16.0118417,1.13106164 C16.2304523,0.911456521 16.5318939,0.774818402 16.8636694,0.774818402 C17.195445,0.774818402 17.4968866,0.911456521 17.7154972,1.13106164 C17.9337778,1.35033513 18.0697505,1.65264594 18.0697505,1.98547215 L18.0697505,12.2421308 Z" id="路径备份-13" fill="#334764"></path>
            </g>
            <path d="M26.6354375,39.572526 C29.5655525,39.572526 27.7915549,35.9642163 29.5655525,36.2814886 C30.8056183,36.5032693 32.4014309,37.151024 32.9445617,36.8523002 C33.6415187,36.4689715 34.5280018,35.5560235 34.3855991,34.7269831 C34.2624942,34.0102905 31.7666907,33.1228873 31.8846561,31.9735733 C31.9727484,31.1153075 33.921769,29.6503723 33.9601769,29.0767921 C34.0214361,28.1619526 33.5245277,26.8492469 32.9445617,26.6123716 C32.3068088,26.3518945 31.5364772,27.2159444 30.5493803,27.2359445 C29.8902462,27.2492995 29.9537351,26.3353562 29.0223493,26.6123716 C28.5211405,26.7614425 28.1797027,23.9889006 27.3814969,23.8924121 C26.8087351,23.8231756 27.4252188,23.8924121 26.6354375,23.8924121 C26.0750914,23.8924121 25.0180199,24.3515423 25.0180199,25.1790126 C25.0180199,26.8465642 24.5021864,26.5926775 23.8302709,27.553332 C23.0853808,28.6183202 21.5414333,26.2510201 21.0509372,27.2359445 C20.4878177,28.3666981 19.9203234,27.8243461 19.8185268,29.0767921 C19.7218534,30.2662051 21.5092393,30.9557098 21.4401485,32.1509168 C21.4121121,32.6359198 19.4418145,33.6957306 19.4418145,34.1772081 C19.4418145,38.1429591 20.8598826,36.923265 23.8302709,36.2814886 C25.2016649,35.9851879 24.397056,39.572526 26.6354375,39.572526 Z" id="椭圆形" fill="#FFFFFF"></path>
            <path d="M34.9412846,34.3936159 C35.0443888,34.7675785 35.0132536,35.1793317 34.8375694,35.5379958 L34.0721303,36.8144444 C33.8677489,37.1552714 33.6036088,37.4449961 33.1894306,37.5140646 C32.780072,37.6695686 32.3750686,37.5858811 32.0395559,37.3832317 L30.4614747,36.4950623 C29.9319058,36.9487319 29.4036417,37.2650998 28.8738191,37.4390371 L28.8738191,38.5355264 C28.8738191,38.9276835 28.7086117,39.3008071 28.4370577,39.5725136 C28.1767344,39.8329832 27.8173655,40 27.4079135,40 L25.9487922,40 C25.5557655,40 25.1815886,39.8346013 24.9091992,39.562059 C24.6496823,39.3023963 24.4828866,38.9440502 24.4828866,38.5355264 L24.4828866,37.4886187 C24.2800704,37.3552299 24.0774708,37.246824 23.8747437,37.1386422 C23.5499087,36.9652995 23.2237348,36.7939068 22.8993138,36.4927645 L21.3170686,37.3832774 C20.9607739,37.5990851 20.5319617,37.5868654 20.177885,37.5160103 C19.7530969,37.4449961 19.4889568,37.1552714 19.2845754,36.8144444 L18.5120994,35.5262611 C18.3074622,35.1850074 18.2731574,34.7932004 18.3720425,34.4345406 C18.4755104,34.0592587 18.7236487,33.7193128 19.0791338,33.5045364 L20.7237806,32.5789029 C20.5242709,32.2751864 20.5346759,31.969071 20.5346759,31.6652155 C20.5346759,31.5550064 20.5546088,31.4449732 20.572952,31.3348521 C20.5975241,31.1873365 20.6205066,31.0397331 20.6205066,30.8923055 C20.6205066,30.8241379 20.6155931,30.7559328 20.6078808,30.6877162 L19.2517206,29.9123321 C18.8957407,29.6975868 18.6472615,29.3573767 18.5437038,28.9817692 C18.4448187,28.6231094 18.4791235,28.2313024 18.6837608,27.8900487 L19.4562368,26.6018654 C19.6606182,26.2610384 19.9247582,25.9713138 20.3389364,25.9022453 C20.7479817,25.7468666 21.1525522,25.8302747 21.4878836,26.0325183 L22.8939711,26.8364483 C23.423962,26.382201 23.9526438,26.065469 24.4828866,25.8913939 L24.4828866,24.7090256 C24.4828866,24.3168685 24.648094,23.943745 24.919648,23.6720384 C25.1799714,23.4115688 25.5393402,23.2445521 25.9487922,23.2445521 L27.4079135,23.2445521 C27.8009402,23.2445521 28.1751172,23.4099507 28.4475065,23.6824931 C28.7070234,23.9421558 28.8738191,24.3005019 28.8738191,24.7090256 L28.8738191,25.8418123 C29.0766353,25.9752011 29.279235,26.0836069 29.4819621,26.1917888 C29.8072056,26.3653494 30.1337913,26.5369552 30.4586159,26.8388032 L31.8688557,26.0324991 C32.2287209,25.8152083 32.5899269,25.8308981 33.0177693,25.9022453 C33.4319475,25.9713138 33.6960876,26.2610384 33.9004689,26.6018654 L34.672945,27.8900487 C34.8775822,28.2313024 34.911887,28.6231094 34.8130019,28.9817692 C34.7094442,29.3573767 34.460965,29.6975868 34.1049851,29.9123321 L32.6340951,30.7533129 C32.8323941,31.0564438 32.8220298,31.3619551 32.8220298,31.6652155 C32.8220298,31.7754245 32.8020969,31.8854578 32.7837537,31.9955789 C32.7591816,32.1430944 32.7361991,32.2906978 32.7361991,32.4381255 C32.7361991,32.5067976 32.7411857,32.575508 32.7489967,32.6442298 L34.2775582,33.5045287 C34.6192488,33.7110677 34.8424929,34.0352948 34.9412846,34.3936159 Z M33.9267866,35.0200728 C33.9778017,34.8930336 33.9674685,34.7719742 33.9154121,34.6678031 C33.8775697,34.5920756 33.8145696,34.5242383 33.615471,34.4320085 L31.4953498,33.21983 L31.5952219,32.8700812 C31.6893423,32.4970828 31.6926627,32.1243634 31.6926627,31.7510944 C31.6926627,31.3778254 31.6893423,31.0051059 31.5952219,30.6321075 L31.4962591,30.2855433 L33.7525987,29.031317 L33.7525987,28.5616839 L32.6713239,26.8306722 L30.2104736,28.2376624 L29.9625145,27.989564 C29.4040609,27.4307966 28.7519288,27.0596045 28.1006133,26.8734098 L27.7351047,26.7689201 L27.6456225,24.3515423 L25.4405924,24.4741128 L25.4405924,26.7715922 L25.0642257,26.879186 C24.4230148,27.152214 23.7813845,27.5193517 23.2331935,27.9788943 L22.9723223,28.2399121 L20.8084924,27.0371091 C20.6225815,27.0190623 20.5124496,27.0550035 20.4426209,27.0899374 C20.3713292,27.1256033 20.3258991,27.1693501 20.2262605,27.3271339 L19.4329662,28.6500338 C19.4330628,28.7213899 19.4298614,28.8031443 19.4382579,28.8703544 C19.4474007,28.9435377 19.4696497,29.0066479 19.5,29.0575948 C19.5528494,29.1463094 19.6275594,29.218934 19.7488406,29.2453591 L21.7746159,30.3714221 L21.6756532,30.7179864 C21.5815328,31.0909848 21.5782124,31.4637043 21.5782124,31.8369732 C21.5782124,32.2102422 21.5815328,32.5829617 21.6756532,32.9559601 L21.7755253,33.3057089 L19.4324457,34.6453638 L19.4324457,35.1122625 L20.5156222,36.8463186 L23.0624858,35.3524908 L23.3083605,35.5985036 C23.8668142,36.157271 24.5189463,36.5284631 25.1702618,36.7146578 L25.5365063,36.8193579 L25.62627,39.064711 L27.8302827,38.9421971 L27.8302827,36.8164754 L28.2066494,36.7088816 C28.8478602,36.4358536 29.4894905,36.068716 30.0376815,35.6091733 L30.2963043,35.3504052 L32.5458996,36.6366104 C32.7332113,36.6551819 32.8439669,36.6190877 32.9140848,36.5840091 C32.9853766,36.5483432 33.0308067,36.5045964 33.1304048,36.346921 L33.9267866,35.0200728 Z M28.8738191,33.0128505 L26.6354375,34.2819793 L24.397056,33.0128505 L24.397056,30.4034593 L26.6354375,29.1343305 L28.8738191,30.4034593 L28.8738191,33.0128505 Z M27.8302827,32.3730765 L27.8302827,30.9573545 L26.6354375,30.2400446 L25.4405924,30.9573545 L25.4405924,32.3730765 L26.6354375,33.0903863 L27.8302827,32.3730765 Z" id="Application-management备份" fill="#334764" fill-rule="nonzero"></path>
        </g>
    </g>
</svg>