<?xml version="1.0" encoding="UTF-8"?>
<svg width="40px" height="40px" viewBox="0 0 40 40" version="1.1" xmlns="http://www.w3.org/2000/svg" xmlns:xlink="http://www.w3.org/1999/xlink">
    <!-- Generator: Sketch 55.2 (78181) - https://sketchapp.com -->
    <title>报表查询3</title>
    <desc>Created with Sketch.</desc>
    <g id="报表查询3" stroke="none" stroke-width="1" fill="none" fill-rule="evenodd">
        <g transform="translate(0.000000, 3.000000)" id="编组-29">
            <g>
                <path d="M11.1065375,9.87677371 C11.1065375,9.76575116 11.0636954,9.6642151 10.9872471,9.58758129 C10.9112622,9.5114119 10.8112478,9.46900672 10.7021792,9.46900672 L4.89104116,9.46900672 C4.78197251,9.46900672 4.68195817,9.5114119 4.60597321,9.58758129 C4.52952495,9.6642151 4.48668281,9.76575116 4.48668281,9.87677371 L4.48668281,32.8864824 C4.48668281,32.997505 4.52952495,33.0990411 4.60597321,33.1756749 C4.68195817,33.2518443 4.78197251,33.2942494 4.89104116,33.2942494 L10.7021792,33.2942494 C10.8112478,33.2942494 10.9112622,33.2518443 10.9872471,33.1756749 C11.0636954,33.0990411 11.1065375,32.997505 11.1065375,32.8864824 L11.1065375,9.87677371 Z" id="矩形" stroke="#334764" stroke-width="2" fill="#FFFFFF"></path>
                <path d="M34.3510896,1.72143391 C34.3510896,1.61041135 34.3082474,1.50887529 34.2317992,1.43224148 C34.1558142,1.35607209 34.0557999,1.31366692 33.9467312,1.31366692 L28.1355932,1.31366692 C28.0265246,1.31366692 27.9265102,1.35607209 27.8505253,1.43224148 C27.774077,1.50887529 27.7312349,1.61041135 27.7312349,1.72143391 L27.7312349,32.8864824 C27.7312349,32.997505 27.774077,33.0990411 27.8505253,33.1756749 C27.9265102,33.2518443 28.0265246,33.2942494 28.1355932,33.2942494 L33.9467312,33.2942494 C34.0557999,33.2942494 34.1558142,33.2518443 34.2317992,33.1756749 C34.3082474,33.0990411 34.3510896,32.997505 34.3510896,32.8864824 L34.3510896,1.72143391 Z" id="矩形备份-62" stroke="#334764" stroke-width="2" fill="#FFFFFF"></path>
                <path d="M22.874092,16.6990291 C22.874092,16.5880066 22.8312499,16.4864705 22.7548016,16.4098367 C22.6788166,16.3336673 22.5788023,16.2912621 22.4697337,16.2912621 L16.6585956,16.2912621 C16.549527,16.2912621 16.4495126,16.3336673 16.3735277,16.4098367 C16.2970794,16.4864705 16.2542373,16.5880066 16.2542373,16.6990291 L16.2542373,32.5728155 C16.2542373,32.6838381 16.2970794,32.7853741 16.3735277,32.862008 C16.4495126,32.9381773 16.549527,32.9805825 16.6585956,32.9805825 L22.4697337,32.9805825 C22.5788023,32.9805825 22.6788166,32.9381773 22.7548016,32.862008 C22.8312499,32.7853741 22.874092,32.6838381 22.874092,32.5728155 L22.874092,16.6990291 Z" id="矩形备份-63" stroke="#334764" stroke-width="2" fill="#A2D9FF"></path>
                <path d="M38.5956416,35 L1.40435835,35 C1.0165555,35 0.665465914,34.8893914 0.411327039,34.7105616 C0.157188163,34.5317318 0,34.2846807 0,34.0117955 C0,33.7287231 0.155756877,33.4756906 0.410012628,33.2933379 C0.66397428,33.1111961 1.01572999,33 1.40435835,33 L38.5956416,33 C38.9834445,33 39.3345341,33.1106086 39.588673,33.2894384 C39.8428118,33.4682682 40,33.7153193 40,33.9882045 C40,34.2712769 39.8442431,34.5243094 39.5899874,34.7066621 C39.3360257,34.8888039 38.98427,35 38.5956416,35 Z" id="矩形" fill="#334764"></path>
            </g>
        </g>
    </g>
</svg>