<?xml version="1.0" encoding="UTF-8"?>
<svg width="40px" height="40px" viewBox="0 0 40 40" version="1.1" xmlns="http://www.w3.org/2000/svg" xmlns:xlink="http://www.w3.org/1999/xlink">
    <!-- Generator: Sketch 55.2 (78181) - https://sketchapp.com -->
    <title>业务处理5</title>
    <desc>Created with Sketch.</desc>
    <g id="业务处理5" stroke="none" stroke-width="1" fill="none" fill-rule="evenodd">
        <g transform="translate(2.000000, 0.000000)">
            <path d="M33.9368864,3.14224493 L33.9368864,38.477704 C32.8423803,39.3205345 31.5999423,39.3205345 30.2095724,38.477704 C28.8192024,37.6348734 24.7346874,35.4023818 17.9560273,31.7802292 L3.79016523,39.2151317 C1.88797933,38.209123 0.936886378,37.0315516 0.936886378,35.6824174 C0.936886378,34.3332832 1.12727145,23.2478734 1.5080416,2.42618802 C2.58447847,1.40515716 3.7391562,0.894641732 4.97207481,0.894641732 C6.20499341,0.894641732 15.2131446,0.894641732 31.9965283,0.894641732 L33.9368864,3.14224493 Z" id="路径-5" fill="#FFFFFF"></path>
            <g id="sheet_25" fill-rule="nonzero">
                <path d="M4.21745435,39.8181429 C3.781599,39.818226 3.37337095,39.8222071 2.96592771,39.6832894 C1.82738759,39.3908029 0.998192693,38.6836664 0.440558426,37.6993821 C0.160346273,36.9733141 0.0190913058,36.2473864 0.0190913058,35.5211695 L0.0190913058,4.33648605 C0.0190913058,3.11869151 0.471145783,2.04224649 1.22464963,1.27152539 C1.97723679,0.501741935 3.02825804,0.0395126502 4.21749621,0.0395126502 L31.6103073,0.0395126502 C32.7995455,0.0395126502 33.8505667,0.501741944 34.6031539,1.2715254 C35.3566577,2.0422465 35.8087122,3.11869152 35.8087122,4.33648604 L35.8087122,15.1007423 C35.8087122,15.440408 35.7080125,15.7296412 35.5123785,15.9297453 C35.3176244,16.1289495 35.0361399,16.231758 34.7055402,16.231758 C34.3749404,16.231758 34.0934559,16.1289495 33.8987018,15.9297453 C33.7030678,15.7296412 33.6023682,15.440408 33.6023682,15.1007423 L33.6023682,4.33648605 C33.6023682,3.72635664 33.3935445,3.22410816 33.0475128,2.87016975 C32.7006011,2.51533128 32.2082695,2.30154407 31.6103073,2.30154409 L4.21749621,2.30154409 C3.61953398,2.30154409 3.12720238,2.51533132 2.78029071,2.87016977 C2.43425897,3.22410818 2.22543532,3.72635666 2.22543532,4.33648605 L2.22543532,35.6794674 C2.22543532,36.0778507 2.23255773,36.2750739 2.42665808,36.6721449 C2.63559812,37.0995734 3.0604588,37.5338276 3.71369785,37.7230198 L5.13173875,37.5417145 L15.8866627,31.4833711 C17.144989,30.7683275 18.6829317,30.7683935 19.9449479,31.4855097 L30.7365714,37.4776796 C30.9632974,37.659055 31.3469028,37.7144094 31.7650689,37.7144094 C32.3630312,37.7144094 32.8553628,37.5006222 33.2022744,37.1457837 C33.5483062,36.7918453 33.7571298,36.2895968 33.7571298,35.6794674 L33.7571298,24.5986154 C33.7571298,24.2589496 33.8578295,23.9697165 34.0534635,23.7696123 C34.2482176,23.5704082 34.5297021,23.4675997 34.8603018,23.4675997 C35.1909016,23.4675997 35.4723861,23.5704082 35.6671402,23.7696123 C35.8627742,23.9697165 35.9634738,24.2589496 35.9634738,24.5986154 L35.9634738,35.6794674 C35.9634738,36.8972619 35.5114194,37.973707 34.7579155,38.7444281 C34.0053284,39.5142115 32.9543071,39.9764408 31.7650689,39.9764408 C31.0798205,39.9764408 30.3887162,39.8469496 29.8423706,39.4159658 L19.150549,33.3931722 C18.8479324,33.191775 18.4971032,33.0904828 18.1460442,33.0904828 C17.7949852,33.0904828 17.444156,33.191775 17.1415394,33.3931722 L6.51414373,39.3796742 C5.65549513,39.6696564 4.93683768,39.8181429 4.21745435,39.8181429 Z" id="路径" fill="#334764"></path>
                <path d="M9.63415374,7.50244376 L26.503173,7.50244376 C28.0507895,7.50244376 29.2888826,8.76882686 29.2888826,10.3518057 L29.2888826,27.2896794 C29.2888826,28.8726583 28.0507895,30.1390414 26.503173,30.1390414 C26.0388881,30.1390414 25.7293648,29.9807435 25.2650799,29.8224456 L19.2293757,26.8147858 C18.4555675,26.4981901 17.5269976,26.4981901 16.7531894,26.8147858 L10.8722469,29.8224456 C9.47939212,30.4556372 7.77701401,29.9807435 7.15796745,28.5560625 C7.00320579,28.2394668 6.84844417,27.7645731 6.84844417,27.2896794 L6.84844417,10.3518057 C6.6936825,8.76882686 8.08653733,7.50244376 9.63415374,7.50244376 Z" id="路径" fill="#A2D9FF" opacity="0.853"></path>
                <path d="M23.7174634,23.9883544 L11.0270086,23.9883544 C10.6964088,23.9883544 10.4149243,23.8855459 10.2201702,23.6863417 C10.0245362,23.4862375 9.92383657,23.1970044 9.92383657,22.8573387 C9.92383657,22.5176729 10.0245362,22.2284398 10.2201702,22.0283356 C10.4149243,21.8291315 10.6964088,21.726323 11.0270086,21.726323 L23.7174634,21.726323 C24.0480632,21.726323 24.3295477,21.8291315 24.5243018,22.0283356 C24.7199358,22.2284398 24.8206354,22.5176729 24.8206354,22.8573387 C24.8206354,23.1801036 24.6963953,23.4522978 24.5049925,23.6480741 C24.2950633,23.8628001 24.006788,23.9883544 23.7174634,23.9883544 Z" id="路径" fill="#334764"></path>
                <path d="M24.4823804,10.9862296 L17.6727857,18.2680204 C17.4544206,18.4903351 17.2369208,18.6062263 16.907951,18.6062263 C16.6879729,18.6062263 16.4726552,18.489219 16.2554222,18.3770403 L11.9205646,14.7451215 C11.6939152,14.5753438 11.5654676,14.2806078 11.5445765,13.9814492 C11.52527,13.7049825 11.5995552,13.4148784 11.8064771,13.2032285 C12.0055192,12.9386322 12.2505829,12.7981529 12.5101893,12.7777269 C12.7523392,12.7586743 13.0029711,12.8474237 13.2028577,13.0604299 L16.7927674,16.0329509 L22.9530438,9.40028119 C23.1718735,9.17826908 23.4434875,9.06249211 23.7174634,9.06249211 C23.9930012,9.06249211 24.2661405,9.1795936 24.4856113,9.40407925 C24.7061237,9.62963026 24.8206354,9.9104907 24.8206354,10.1935078 C24.8206354,10.4779067 24.7050019,10.7601206 24.4823804,10.9862296 Z" id="路径" fill="#334764"></path>
            </g>
        </g>
    </g>
</svg>