<?xml version="1.0" encoding="UTF-8"?>
<svg width="40px" height="40px" viewBox="0 0 40 40" version="1.1" xmlns="http://www.w3.org/2000/svg" xmlns:xlink="http://www.w3.org/1999/xlink">
    <!-- Generator: Sketch 55.2 (78181) - https://sketchapp.com -->
    <title>单据维护8</title>
    <desc>Created with Sketch.</desc>
    <g id="单据维护8" stroke="none" stroke-width="1" fill="none" fill-rule="evenodd">
        <path d="M5.07450721,13.7413357 L19.2274703,1.89566212 L23.2670526,1.89566212 L35.349386,14.9733347 C35.8614762,15.5276108 36.145869,16.2545178 36.145869,17.0091424 L36.145869,37.8956621 L7,37.8956621 C5.34314575,37.8956621 4,36.5525164 4,34.8956621 L4,16.0418742 C4,15.1537859 4.3934801,14.3113382 5.07450721,13.7413357 Z" id="矩形" fill="#FFFFFF"></path>
        <g transform="translate(1.000000, 0.000000)" fill-rule="nonzero">
            <path d="M9.72221036,15.6198683 L15.137901,9.5880896 C17.2440029,7.32617256 20.7040274,7.17537808 22.9605652,9.13570617 L23.4118727,9.5880896 L28.8275633,15.6198683 C29.2788709,16.0722518 29.5797426,16.8262241 29.5797426,17.429402 L29.5797426,30.2469318 C29.5797426,31.7548765 28.3762558,32.9612323 26.8718973,32.9612323 L11.8283123,32.9612323 C10.3239537,32.9612323 9.12046698,31.7548765 9.12046698,30.2469318 L9.12046698,17.429402 C9.12046698,16.8262241 9.27090284,16.0722517 9.72221036,15.6198683 Z" id="路径" fill="#A2D9FF" opacity="0.853"></path>
            <path d="M14.397964,2.20306793 C15.709192,0.739923234 17.6056511,0.0111682095 19.5005406,0.0111682095 C21.3954302,0.0111682095 23.2918893,0.739923234 24.6031173,2.20306793 L38.5978565,16.2311687 C38.8534314,16.4873528 38.9834991,16.8070113 38.9834991,17.1278131 C38.9834991,17.4486148 38.8534314,17.7682733 38.5978565,18.0244574 C38.3422628,18.2806604 38.0873503,18.4110386 37.7032785,18.4110386 C37.3192067,18.4110386 37.0642942,18.2806604 36.8087005,18.0244574 L22.8181664,4.00057175 C21.9492644,3.12959842 20.7258001,2.69071526 19.5005406,2.69071526 C18.2752812,2.69071526 17.0518168,3.12959842 16.1829149,4.00057175 L2.19238078,18.0244574 C1.93678707,18.2806604 1.61786258,18.4110386 1.29780275,18.4110386 C0.977742934,18.4110386 0.658818443,18.2806604 0.403224729,18.0244574 C0.147649902,17.7682733 0.0175821973,17.4486148 0.0175821973,17.1278131 C0.0175821973,16.8070113 0.147649902,16.4873528 0.403224729,16.2311687 L14.397964,2.20306793 Z" id="路径" fill="#334764"></path>
            <path d="M6.71349337,37.4081965 L22.8101293,37.4081965 C23.1942018,37.4081965 23.5173057,37.5315321 23.7423163,37.7570792 C23.967311,37.9826102 24.0903499,38.3064607 24.0903499,38.6914221 C24.0903499,39.0643847 23.9398708,39.377222 23.6960792,39.5993791 C23.4320035,39.8400202 23.0621667,39.9746477 22.6596935,39.9746477 L6.71349337,39.9746477 C5.49828875,39.9746477 4.42514276,39.5104229 3.65639998,38.7398475 C2.88767383,37.9692888 2.42455578,36.8936096 2.42455578,35.6755327 L2.42455578,14.7151015 C2.42455578,14.3301402 2.54759467,14.0062896 2.77258937,13.7807586 C2.99760002,13.5552115 3.32070388,13.4318759 3.70477637,13.4318759 C4.08884887,13.4318759 4.41195273,13.5552115 4.63696338,13.7807586 C4.86195806,14.0062896 4.98499693,14.3301402 4.98499692,14.7151015 L4.98499692,35.6755327 C4.98499692,36.1953382 5.16282973,36.62546 5.46436051,36.9277096 C5.76587534,37.2299432 6.19495073,37.4081965 6.71349337,37.4081965 Z M33.8656485,36.731094 L33.8656485,14.7151015 C33.8656485,14.3301402 33.9886873,14.0062896 34.213682,13.7807586 C34.4386927,13.5552115 34.7617966,13.4318759 35.145869,13.4318759 C35.5299415,13.4318759 35.8530454,13.5552115 36.0780561,13.7807586 C36.3030508,14.0062896 36.4260896,14.3301402 36.4260896,14.7151015 L36.4260896,36.8818885 C36.4260896,37.2000906 36.2973233,37.4862748 36.0713098,37.6901718 C35.8454553,37.8939255 35.5255526,38.0143196 35.145869,38.0143196 C34.7617966,38.0143196 34.4386927,37.890984 34.213682,37.6654369 C33.9886873,37.4399059 33.8656485,37.1160554 33.8656485,36.731094 Z" id="形状" fill="#334764"></path>
            <path d="M12.4300557,20.519216 L26.4205897,20.519216 C26.8046622,20.519216 27.1277661,20.6425516 27.3527767,20.8680987 C27.5777714,21.0936297 27.7008103,21.4174802 27.7008103,21.8024416 C27.7649543,22.1461819 27.6415964,22.4422449 27.4384626,22.6684871 C27.2170242,22.9151163 26.895327,23.0856672 26.5710256,23.0856672 L12.4300557,23.0856672 C12.0459832,23.0856672 11.7228793,22.9623316 11.4978687,22.7367845 C11.272874,22.5112535 11.1498351,22.1874029 11.1498351,21.8024416 C11.1498351,21.4174802 11.272874,21.0936297 11.4978687,20.8680986 C11.7228793,20.6425516 12.0459832,20.519216 12.4300557,20.519216 Z" id="路径" fill="#334764"></path>
            <path d="M12.4300557,26.8525837 L26.4205897,26.8525837 C26.8046622,26.8525837 27.1277661,26.9759193 27.3527767,27.2014663 C27.5777714,27.4269974 27.7008103,27.7508479 27.7008103,28.1358093 C27.7008103,28.5163712 27.5807072,28.8370133 27.3774525,29.0633902 C27.1740238,29.2899609 26.8884941,29.4190349 26.5710256,29.4190349 L12.4300557,29.4190349 C12.0459832,29.4190349 11.7228793,29.2956993 11.4978687,29.0701522 C11.272874,28.8446211 11.1498351,28.5207706 11.1498351,28.1358093 C11.1498351,27.7508479 11.272874,27.4269974 11.4978687,27.2014663 C11.7228793,26.9759193 12.0459832,26.8525837 12.4300557,26.8525837 Z" id="路径" fill="#334764"></path>
        </g>
    </g>
</svg>