<?xml version="1.0" encoding="UTF-8"?>
<svg width="40px" height="40px" viewBox="0 0 40 40" version="1.1" xmlns="http://www.w3.org/2000/svg" xmlns:xlink="http://www.w3.org/1999/xlink">
    <!-- Generator: Sketch 55.2 (78181) - https://sketchapp.com -->
    <title>基本档案8</title>
    <desc>Created with Sketch.</desc>
    <g id="基本档案8" stroke="none" stroke-width="1" fill="none" fill-rule="evenodd">
        <g id="业务设置8">
            <circle id="椭圆形" fill="#FFFFFF" cx="20" cy="20" r="18.3050847"></circle>
            <g id="基本档案6" fill-rule="nonzero">
                <polygon id="路径" fill="#A2D9FF" points="22.0338983 16.2840389 26.3319476 2.71186441 32.0115126 5.87356414 36.7700672 11.5800466 38.3050847 15.2815487 24.5666773 18.9830508"></polygon>
                <polygon id="路径" fill="#A2D9FF" points="16.3611535 21.0169492 2.71186441 25.3917493 5.87356414 31.0713144 11.5800466 35.753118 15.3586633 37.2881356 18.9830508 23.5497282"></polygon>
                <path d="M0,20 C0,14.4981413 2.2494059,9.49833961 5.87387275,5.87387275 C9.49833961,2.2494059 14.4981413,0 20,0 C25.5018587,0 30.5016604,2.2494059 34.1261272,5.87387275 C37.7505941,9.49833961 40,14.4981413 40,20 C40,25.5018587 37.7505941,30.5016604 34.1261272,34.1261272 C30.5016604,37.7505941 25.5018587,40 20,40 C14.4981413,40 9.49833961,37.7505941 5.87387275,34.1261272 C2.2494059,30.5016604 0,25.5018587 0,20 Z M37.653582,20.0756096 C37.653582,15.2189473 35.6688477,10.8053565 32.4695504,7.6060592 C29.2702531,4.40676188 24.8566623,2.4220276 20,2.4220276 C15.1433377,2.4220276 10.7297469,4.40676188 7.53044959,7.6060592 C4.33115227,10.8053565 2.346418,15.2189473 2.346418,20.0756096 C2.346418,24.9322719 4.33115227,29.3458627 7.53044959,32.54516 C10.7297469,35.7444573 15.1433377,37.7291916 20,37.7291916 C24.8566623,37.7291916 29.2702531,35.7444573 32.4695504,32.54516 C35.6688477,29.3458627 37.653582,24.9322719 37.653582,20.0756096 Z" id="形状" fill="#334764"></path>
                <path d="M14.2372881,20 C14.2372881,18.4221146 14.8897692,16.9818771 15.9358231,15.9358231 C16.9818771,14.8897692 18.4221146,14.2372881 20,14.2372881 C21.5778854,14.2372881 23.0181229,14.8897692 24.0641769,15.9358231 C25.1102308,16.9818771 25.7627119,18.4221146 25.7627119,20 C25.7627119,21.5778854 25.1102308,23.0181229 24.0641769,24.0641769 C23.0181229,25.1102308 21.5778854,25.7627119 20,25.7627119 C18.4221146,25.7627119 16.9818771,25.1102308 15.9358231,24.0641769 C14.8897692,23.0181229 14.2372881,21.5778854 14.2372881,20 Z M23.535109,20.0726392 C23.535109,19.1085186 23.1344843,18.2240972 22.4915132,17.581126 C21.848542,16.9381549 20.9641206,16.5375303 20,16.5375303 C19.0358794,16.5375303 18.151458,16.9381549 17.5084868,17.581126 C16.8655157,18.2240972 16.464891,19.1085186 16.464891,20.0726392 C16.464891,21.0367599 16.8655157,21.9211813 17.5084868,22.5641524 C18.151458,23.2071236 19.0358794,23.6077482 20,23.6077482 C20.9641206,23.6077482 21.848542,23.2071236 22.4915132,22.5641524 C23.1344843,21.9211813 23.535109,21.0367599 23.535109,20.0726392 Z" id="形状" fill="#334764"></path>
            </g>
        </g>
    </g>
</svg>