<?xml version="1.0" encoding="UTF-8"?>
<svg width="40px" height="40px" viewBox="0 0 40 40" version="1.1" xmlns="http://www.w3.org/2000/svg" xmlns:xlink="http://www.w3.org/1999/xlink">
    <!-- Generator: Sketch 55.2 (78181) - https://sketchapp.com -->
    <title>单据维护6</title>
    <desc>Created with Sketch.</desc>
    <g id="单据维护6" stroke="none" stroke-width="1" fill="none" fill-rule="evenodd">
        <g id="业务设置6" transform="translate(0.000000, 3.000000)" fill-rule="nonzero">
            <rect id="矩形" fill="#A2D9FF" x="1.14996115" y="1.14684466" width="37.6689977" height="26.0163835"></rect>
            <path d="M1.14996115,0 L38.8189588,0 C39.1350975,0 39.4222371,0.12931415 39.6305118,0.336864099 C39.8391088,0.544735216 39.96892,0.831361919 39.96892,1.14684466 L39.96892,27.1632282 C39.96892,27.4787109 39.8391088,27.7653376 39.6305118,27.9732087 C39.4222371,28.1807587 39.1350975,28.3100728 38.8189588,28.3100728 L1.14996115,28.3100728 C0.833822487,28.3100728 0.546682824,28.1807587 0.338408164,27.9732087 C0.129811213,27.7653376 0,27.4787109 0,27.1632282 L0,1.14684466 C0,0.831361919 0.129811213,0.544735216 0.338408164,0.336864099 C0.546682824,0.12931415 0.833822487,0 1.14996115,0 Z M2.2999223,26.0163835 L37.6689977,26.0163835 L37.6689977,2.29368932 L2.2999223,2.29368932 L2.2999223,26.0163835 Z" id="形状" fill="#334764"></path>
            <polygon id="路径" fill="#FFFFFF" points="8.60916861 33.7044903 38.8189588 33.7044903 38.8189588 13.7833738"></polygon>
            <path d="M7.96747331,32.8050438 L38.1884286,12.8765624 C38.3538671,12.7666538 38.5464559,12.7116989 38.7391616,12.7020971 C38.9479906,12.691692 39.1579373,12.7342365 39.3370757,12.8234941 C39.5162877,12.9127883 39.6783008,13.0654931 39.7939459,13.2540721 C39.9014044,13.4293014 39.96892,13.6366855 39.96892,13.8577063 L39.96892,33.7044903 C39.96892,34.019973 39.8391088,34.3065997 39.6305118,34.5144709 C39.4222371,34.7220208 39.1350975,34.851335 38.8189588,34.851335 L8.60916861,34.851335 C8.35018851,34.851335 8.10554389,34.7656414 7.91090858,34.622725 C7.72228812,34.4842251 7.57959202,34.2912914 7.52364246,34.0682719 C7.43009068,33.8134221 7.44723649,33.5691506 7.52670802,33.3513643 C7.61036531,33.1221073 7.7644476,32.9171397 7.96747331,32.8050438 Z M12.3981281,32.5576456 L37.6689977,32.5576456 L37.6689977,15.9005932 L12.3981281,32.5576456 Z" id="形状" fill="#334764"></path>
            <polygon id="路径" fill="#FFFFFF" points="31.3597514 33.7044903 1.14996115 33.7044903 1.14996115 13.7833738"></polygon>
            <path d="M1.865877,12.8093498 L32.0604723,32.7204463 C32.2712726,32.8718703 32.4364739,33.0840765 32.5222206,33.3190594 C32.5957872,33.5206635 32.6102303,33.7401773 32.5346943,33.9481417 C32.4070867,34.230908 32.2342271,34.4681195 32.0177868,34.629885 C31.8295522,34.7705696 31.6082026,34.851335 31.3597514,34.851335 L1.14996115,34.851335 C0.833822487,34.851335 0.546682824,34.7220208 0.338408164,34.5144709 C0.129811213,34.3065997 0,34.019973 0,33.7044903 L0,13.7833738 C0,13.5801055 0.0603864292,13.3772855 0.171138728,13.1966851 C0.280781724,13.0178936 0.439792023,12.8609578 0.640233841,12.7450261 C0.992840992,12.5730893 1.45799403,12.5809193 1.865877,12.8093498 Z M2.2999223,32.5576456 L27.5707919,32.5576456 L2.2999223,15.9005932 L2.2999223,32.5576456 Z" id="形状" fill="#334764"></path>
            <polygon id="路径" fill="#FFFFFF" points="1.14996115 33.7044903 19.9471639 13.7833738 38.8189588 33.7044903"></polygon>
            <path d="M0.351197895,32.9003633 L19.1484079,12.9792391 C19.3813954,12.7490965 19.7011753,12.6365291 20.012432,12.6365291 C20.3150589,12.6365291 20.6149339,12.7428252 20.8121421,12.9703687 L39.6065276,32.8884994 C39.7576218,33.0714845 39.8632678,33.2847085 39.9050329,33.5136173 C39.9439711,33.7270322 39.9266482,33.9535741 39.8414012,34.1801085 C39.7601924,34.3959117 39.6281264,34.5610355 39.4605585,34.6723587 C39.2776277,34.7938883 39.0552235,34.851335 38.8189588,34.851335 L1.14996115,34.851335 C0.926026041,34.851335 0.716054646,34.7822664 0.540061387,34.6653459 C0.356389686,34.5433241 0.209283289,34.3693127 0.121667988,34.1655883 C0.0315862041,33.9561289 0.00406961064,33.7157067 0.0462632537,33.4844491 C0.0851643482,33.2712376 0.184076376,33.0653971 0.351197895,32.9003633 Z M3.79165668,32.5576456 L36.1026712,32.5576456 L19.9471639,15.4423782 L3.79165668,32.5576456 Z" id="形状" fill="#334764"></path>
            <path d="M5.92385392,6.35012136 L21.4390054,6.35012136" id="路径" fill="#D1D3D4"></path>
            <path d="M5.92385392,5.2032767 L21.4390054,5.2032767 C21.7551441,5.2032767 22.0422838,5.33259085 22.2505584,5.5401408 C22.4591554,5.74801192 22.5889666,6.03463862 22.5889666,6.35012136 C22.5889666,6.6656041 22.4591554,6.9522308 22.2505584,7.16010192 C22.0422838,7.36765187 21.7551441,7.49696602 21.4390054,7.49696602 L5.92385392,7.49696602 C5.60771526,7.49696602 5.3205756,7.36765187 5.11230094,7.16010192 C4.90370399,6.9522308 4.77389277,6.6656041 4.77389277,6.35012136 C4.77389277,6.03463862 4.90370399,5.74801192 5.11230094,5.5401408 C5.3205756,5.33259085 5.60771526,5.2032767 5.92385392,5.2032767 Z" id="路径" fill="#334764"></path>
        </g>
    </g>
</svg>