<?xml version="1.0" encoding="UTF-8"?>
<svg width="40px" height="40px" viewBox="0 0 40 40" version="1.1" xmlns="http://www.w3.org/2000/svg" xmlns:xlink="http://www.w3.org/1999/xlink">
    <!-- Generator: Sketch 55.2 (78181) - https://sketchapp.com -->
    <title>报表查询5</title>
    <desc>Created with Sketch.</desc>
    <g id="报表查询5" stroke="none" stroke-width="1" fill="none" fill-rule="evenodd">
        <g transform="translate(5.000000, 0.000000)" fill-rule="nonzero">
            <g id="编组-9">
                <g>
                    <rect id="矩形备份" fill="#FFFFFF" x="1.7032967" y="3.72881356" width="28.6153846" height="34.5762712"></rect>
                    <path d="M1.16797488,3.05084746 L29.8320251,3.05084746 C30.1530419,3.05084746 30.4445854,3.18261242 30.6560646,3.39401682 C30.8681086,3.60598591 31,3.8982812 31,4.21996535 L31,38.8308821 C31,39.1525663 30.8681086,39.4448615 30.6560646,39.6568306 C30.4445854,39.868235 30.1530419,40 29.8320251,40 L1.16797488,40 C0.8469581,40 0.555414558,39.868235 0.343935398,39.6568306 C0.131891352,39.4448615 0,39.1525663 0,38.8308821 L0,4.21996535 C0,3.8982812 0.131891352,3.60598591 0.343935398,3.39401682 C0.555414558,3.18261242 0.8469581,3.05084746 1.16797488,3.05084746 Z M2.41138148,37.6617642 L28.7394819,37.6617642 L28.7394819,5.38908325 L2.41138148,5.38908325 L2.41138148,37.6617642 Z" id="形状备份-2" fill="#334764"></path>
                    <rect id="矩形备份-2" fill="#A2D9FF" x="5.79120879" y="0.677966102" width="20.4395604" height="7.11864407"></rect>
                    <path d="M5.244418,0 L25.755582,0 C26.071535,0 26.3575319,0.138124863 26.565348,0.356976036 C26.7799733,0.582997998 26.9120879,0.895046379 26.9120879,1.2376823 L26.9120879,8.25384312 C26.9120879,8.59647904 26.7799733,8.90852743 26.565348,9.13454939 C26.3575319,9.35340056 26.071535,9.49152542 25.755582,9.49152542 L5.244418,9.49152542 C4.928465,9.49152542 4.64246805,9.35340056 4.434652,9.13454939 C4.22002673,8.90852743 4.08791209,8.59647904 4.08791209,8.25384312 L4.08791209,1.2376823 C4.08791209,0.895046379 4.22002673,0.582997998 4.434652,0.356976036 C4.64246805,0.138124863 4.928465,0 5.244418,0 Z M6.40092392,7.01616082 L24.5990761,7.01616082 L24.5990761,2.4753646 L6.40092392,2.4753646 L6.40092392,7.01616082 Z" id="形状备份-3" fill="#334764"></path>
                    <path d="M7.83516484,14.4067797 L22.1428571,14.4067797" id="路径备份-11" fill="#FFFFFF"></path>
                    <path d="M7.83516484,21.5254237 L14.989011,21.5254237" id="路径备份-13" fill="#FFFFFF"></path>
                </g>
            </g>
            <path d="M15.6021978,23.3898305 L24.4320879,23.3898305 C24.7880769,23.3898305 25.1114863,23.5351107 25.3460405,23.7685108 C25.5805948,24.0019108 25.7265934,24.3237288 25.7265934,24.6779661 C25.7265934,25.0322034 25.5805948,25.3540214 25.3460405,25.5874214 C25.1114863,25.8208215 24.7880769,25.9661017 24.4320879,25.9661017 L15.6021978,25.9661017 C15.2462088,25.9661017 14.9227994,25.8208215 14.6882452,25.5874214 C14.453691,25.3540214 14.3076923,25.0322034 14.3076923,24.6779661 C14.3076923,24.3237288 14.453691,24.0019108 14.6882452,23.7685108 C14.9227994,23.5351107 15.2462088,23.3898305 15.6021978,23.3898305 Z" id="路径备份-15" fill="#334764"></path>
            <path d="M7.42637363,17.2881356 L24.4320879,17.2881356 C24.7880769,17.2881356 25.1114863,17.4334158 25.3460405,17.6668159 C25.5805948,17.9002159 25.7265934,18.2220339 25.7265934,18.5762712 C25.7265934,18.9305085 25.5805948,19.2523265 25.3460405,19.4857265 C25.1114863,19.7191266 24.7880769,19.8644068 24.4320879,19.8644068 L7.42637363,19.8644068 C7.07038462,19.8644068 6.74697521,19.7191266 6.51242099,19.4857265 C6.27786678,19.2523265 6.13186813,18.9305085 6.13186813,18.5762712 C6.13186813,18.2220339 6.27786678,17.9002159 6.51242099,17.6668159 C6.74697521,17.4334158 7.07038462,17.2881356 7.42637363,17.2881356 Z" id="路径备份-14" fill="#334764"></path>
        </g>
    </g>
</svg>