<?xml version="1.0" encoding="UTF-8"?>
<svg width="40px" height="40px" viewBox="0 0 40 40" version="1.1" xmlns="http://www.w3.org/2000/svg" xmlns:xlink="http://www.w3.org/1999/xlink">
    <!-- Generator: Sketch 55.2 (78181) - https://sketchapp.com -->
    <title>业务处理2</title>
    <desc>Created with Sketch.</desc>
    <g id="业务处理2" stroke="none" stroke-width="1" fill="none" fill-rule="evenodd">
        <g transform="translate(0.000000, 2.000000)" fill-rule="nonzero">
            <path d="M6.16563513,1.09241789 L6.16563513,6.11495458" id="路径" fill="#FFFFFF"></path>
            <path d="M5.0928382,6.11495458 L5.0928382,1.09241789 C5.0928382,0.791524679 5.21423846,0.518015841 5.40973406,0.319710371 C5.60372637,0.122929804 5.87108406,0 6.16563513,0 C6.46018621,0 6.72754389,0.122929804 6.9215362,0.319710371 C7.1170318,0.518015841 7.23843207,0.791524679 7.23843207,1.09241789 L7.23843207,6.11495458 C7.23843207,6.41584779 7.1170318,6.68935663 6.9215362,6.8876621 C6.72754389,7.08444266 6.46018621,7.20737247 6.16563513,7.20737247 C5.87108406,7.20737247 5.60372637,7.08444266 5.40973406,6.8876621 C5.21423846,6.68935663 5.0928382,6.41584779 5.0928382,6.11495458 Z" id="路径" fill="#334764"></path>
            <path d="M34.4591807,1.09241789 L34.4591807,6.11495458" id="路径" fill="#FFFFFF"></path>
            <path d="M33.3863837,6.11495458 L33.3863837,1.09241789 C33.3863837,0.791524679 33.507784,0.518015841 33.7032796,0.319710371 C33.8972719,0.122929804 34.1646296,0 34.4591807,0 C34.7537317,0 35.0210894,0.122929804 35.2150817,0.319710371 C35.4105773,0.518015841 35.5319776,0.791524679 35.5319776,1.09241789 L35.5319776,6.11495458 C35.5319776,6.41584779 35.4105773,6.68935663 35.2150817,6.8876621 C35.0210894,7.08444266 34.7537317,7.20737247 34.4591807,7.20737247 C34.1646296,7.20737247 33.8972719,7.08444266 33.7032796,6.8876621 C33.507784,6.68935663 33.3863837,6.41584779 33.3863837,6.11495458 Z" id="路径" fill="#334764"></path>
            <rect id="矩形" fill="#FFFFFF" x="2.48747421" y="9.70248078" width="35.0132626" height="26.1889413"></rect>
            <path d="M2.48747421,8.61006289 L37.5007368,8.61006289 C37.7952879,8.61006289 38.0626456,8.7329927 38.2566379,8.92977326 C38.4521335,9.12807873 38.5735337,9.40158757 38.5735337,9.70248078 L38.5735337,35.8914221 C38.5735337,36.1923153 38.4521335,36.4658241 38.2566379,36.6641296 C38.0626456,36.8609102 37.7952879,36.98384 37.5007368,36.98384 L2.48747421,36.98384 C2.19292314,36.98384 1.92556545,36.8609102 1.73157315,36.6641296 C1.53607754,36.4658241 1.41467728,36.1923153 1.41467728,35.8914221 L1.41467728,9.70248078 C1.41467728,9.40158757 1.53607754,9.12807873 1.73157315,8.92977326 C1.92556545,8.7329927 2.19292314,8.61006289 2.48747421,8.61006289 Z M3.56027115,34.7990042 L36.4279399,34.7990042 L36.4279399,10.7948987 L3.56027115,10.7948987 L3.56027115,34.7990042 Z" id="形状" fill="#334764"></path>
            <rect id="矩形" fill="#A2D9FF" x="1.07279693" y="3.96243885" width="37.8426172" height="8.96881551"></rect>
            <path d="M38.9154141,14.0236723 L1.07279693,14.0236723 C0.778245859,14.0236723 0.510888178,13.9007425 0.316895868,13.7039619 C0.121400264,13.5056564 0,13.2321476 0,12.9312544 L0,3.96243885 C0,3.66154564 0.121400264,3.38803681 0.316895868,3.18973134 C0.510888178,2.99295077 0.778245859,2.87002096 1.07279693,2.87002096 L38.9154141,2.87002096 C39.2099652,2.87002096 39.4773228,2.99295077 39.6713152,3.18973134 C39.8668108,3.38803681 39.988211,3.66154564 39.988211,3.96243885 L39.988211,12.9312544 C39.988211,13.2321476 39.8668108,13.5056564 39.6713152,13.7039619 C39.4773228,13.9007425 39.2099652,14.0236723 38.9154141,14.0236723 Z M2.14559387,11.8388365 L37.8426172,11.8388365 L37.8426172,5.05485674 L2.14559387,5.05485674 L2.14559387,11.8388365 Z" id="形状" fill="#334764"></path>
            <ellipse id="椭圆形" fill="#A2D9FF" cx="10.7633363" cy="20.7520615" rx="1.83908046" ry="1.86551363"></ellipse>
            <ellipse id="椭圆形" fill="#A2D9FF" cx="19.5343354" cy="20.7520615" rx="1.83908046" ry="1.86551363"></ellipse>
            <ellipse id="椭圆形" fill="#A2D9FF" cx="28.3760684" cy="20.7520615" rx="1.83908046" ry="1.86551363"></ellipse>
            <ellipse id="椭圆形" fill="#A2D9FF" cx="10.7633363" cy="27.9271139" rx="1.83908046" ry="1.86551363"></ellipse>
            <ellipse id="椭圆形" fill="#A2D9FF" cx="19.5343354" cy="27.9271139" rx="1.83908046" ry="1.86551363"></ellipse>
        </g>
    </g>
</svg>