<?xml version="1.0" encoding="UTF-8"?>
<svg width="40px" height="40px" viewBox="0 0 40 40" version="1.1" xmlns="http://www.w3.org/2000/svg" xmlns:xlink="http://www.w3.org/1999/xlink">
    <!-- Generator: Sketch 55.2 (78181) - https://sketchapp.com -->
    <title>业务设置7</title>
    <desc>Created with Sketch.</desc>
    <g id="业务设置7" stroke="none" stroke-width="1" fill="none" fill-rule="evenodd">
        <g transform="translate(0.000000, 3.000000)">
            <g id="编组-32" fill-rule="nonzero">
                <rect id="矩形" fill="#FFFFFF" x="1.14996115" y="1.14684466" width="37.6689977" height="26.0163835"></rect>
                <path d="M1.14996115,0 L38.8189588,0 C39.1350975,0 39.4222371,0.12931415 39.6305118,0.336864099 C39.8391088,0.544735216 39.96892,0.831361919 39.96892,1.14684466 L39.96892,27.1632282 C39.96892,27.4787109 39.8391088,27.7653376 39.6305118,27.9732087 C39.4222371,28.1807587 39.1350975,28.3100728 38.8189588,28.3100728 L1.14996115,28.3100728 C0.833822487,28.3100728 0.546682824,28.1807587 0.338408164,27.9732087 C0.129811213,27.7653376 0,27.4787109 0,27.1632282 L0,1.14684466 C0,0.831361919 0.129811213,0.544735216 0.338408164,0.336864099 C0.546682824,0.12931415 0.833822487,0 1.14996115,0 Z M2.2999223,26.0163835 L37.6689977,26.0163835 L37.6689977,2.29368932 L2.2999223,2.29368932 L2.2999223,26.0163835 Z" id="形状" fill="#334764"></path>
                <polygon id="路径" fill="#FFFFFF" points="8.60916861 33.7044903 38.8189588 33.7044903 38.8189588 13.7833738"></polygon>
                <path d="M7.96747331,32.8050438 L38.1884286,12.8765624 C38.3538671,12.7666538 38.5464559,12.7116989 38.7391616,12.7020971 C38.9479906,12.691692 39.1579373,12.7342365 39.3370757,12.8234941 C39.5162877,12.9127883 39.6783008,13.0654931 39.7939459,13.2540721 C39.9014044,13.4293014 39.96892,13.6366855 39.96892,13.8577063 L39.96892,33.7044903 C39.96892,34.019973 39.8391088,34.3065997 39.6305118,34.5144709 C39.4222371,34.7220208 39.1350975,34.851335 38.8189588,34.851335 L8.60916861,34.851335 C8.35018851,34.851335 8.10554389,34.7656414 7.91090858,34.622725 C7.72228812,34.4842251 7.57959202,34.2912914 7.52364246,34.0682719 C7.43009068,33.8134221 7.44723649,33.5691506 7.52670802,33.3513643 C7.61036531,33.1221073 7.7644476,32.9171397 7.96747331,32.8050438 Z M12.3981281,32.5576456 L37.6689977,32.5576456 L37.6689977,15.9005932 L12.3981281,32.5576456 Z" id="形状" fill="#334764"></path>
                <polygon id="路径" fill="#FFFFFF" points="31.3597514 33.7044903 1.14996115 33.7044903 1.14996115 13.7833738"></polygon>
                <path d="M1.865877,12.8093498 L32.0604723,32.7204463 C32.2712726,32.8718703 32.4364739,33.0840765 32.5222206,33.3190594 C32.5957872,33.5206635 32.6102303,33.7401773 32.5346943,33.9481417 C32.4070867,34.230908 32.2342271,34.4681195 32.0177868,34.629885 C31.8295522,34.7705696 31.6082026,34.851335 31.3597514,34.851335 L1.14996115,34.851335 C0.833822487,34.851335 0.546682824,34.7220208 0.338408164,34.5144709 C0.129811213,34.3065997 0,34.019973 0,33.7044903 L0,13.7833738 C0,13.5801055 0.0603864292,13.3772855 0.171138728,13.1966851 C0.280781724,13.0178936 0.439792023,12.8609578 0.640233841,12.7450261 C0.992840992,12.5730893 1.45799403,12.5809193 1.865877,12.8093498 Z M2.2999223,32.5576456 L27.5707919,32.5576456 L2.2999223,15.9005932 L2.2999223,32.5576456 Z" id="形状" fill="#334764"></path>
                <polygon id="路径" fill="#FFFFFF" points="1.14996115 33.7044903 19.9471639 13.7833738 38.8189588 33.7044903"></polygon>
                <path d="M0.351197895,32.9003633 L19.1484079,12.9792391 C19.3813954,12.7490965 19.7011753,12.6365291 20.012432,12.6365291 C20.3150589,12.6365291 20.6149339,12.7428252 20.8121421,12.9703687 L39.6065276,32.8884994 C39.7576218,33.0714845 39.8632678,33.2847085 39.9050329,33.5136173 C39.9439711,33.7270322 39.9266482,33.9535741 39.8414012,34.1801085 C39.7601924,34.3959117 39.6281264,34.5610355 39.4605585,34.6723587 C39.2776277,34.7938883 39.0552235,34.851335 38.8189588,34.851335 L1.14996115,34.851335 C0.926026041,34.851335 0.716054646,34.7822664 0.540061387,34.6653459 C0.356389686,34.5433241 0.209283289,34.3693127 0.121667988,34.1655883 C0.0315862041,33.9561289 0.00406961064,33.7157067 0.0462632537,33.4844491 C0.0851643482,33.2712376 0.184076376,33.0653971 0.351197895,32.9003633 Z M3.79165668,32.5576456 L36.1026712,32.5576456 L19.9471639,15.4423782 L3.79165668,32.5576456 Z" id="形状" fill="#334764"></path>
                <path d="M5.92385392,6.35012136 L21.4390054,6.35012136" id="路径" fill="#D1D3D4"></path>
            </g>
            <path d="M19.6581197,27.1632282 C22.0054697,27.1632282 20.7671917,24.0042308 22.7879689,24.3757585 C26.0131799,24.9687259 26.9256521,23.6389872 26.6370297,21.9116338 C26.4967997,21.0723827 25.2953059,20.6770181 25.4296814,19.3311646 C25.5300282,18.3261305 27.1469655,16.6106827 27.1907163,15.939017 C27.3884699,12.9030864 25.2665745,13.8507039 22.0256372,14.1550364 C21.4323171,14.2107507 22.3482491,11.4876833 21.4390054,11.3746946 C20.7865671,11.2936183 20.2979754,10.9093803 19.3983282,10.9093803 C18.7600327,10.9093803 17.994843,10.3812908 17.6078322,11.3746946 C16.9065997,13.1746626 17.0202414,13.0301044 16.2548563,14.1550364 C15.406345,15.4021438 13.64762,12.6300217 13.0888914,13.7833738 C12.4474366,15.1074928 11.8009986,14.4723955 11.6850411,15.939017 C11.5749195,17.3318266 13.6109475,18.1392406 13.5322455,19.538835 C13.5003091,20.1067762 11.2559246,21.3478208 11.2559246,21.9116338 C11.2559246,26.5555513 12.8712592,25.1272823 16.2548563,24.3757585 C17.8170239,24.0287886 17.8162604,27.1632282 19.6581197,27.1632282 Z" id="椭圆形" fill="#FFFFFF"></path>
            <g id="编组-19备份-2" transform="translate(10.598291, 10.533981)" fill-rule="nonzero">
                <g id="编组-20">
                    <path d="M11.0854663,10.1526575 L8.7366165,11.470345 L6.38776672,10.1526575 L6.38776672,7.44171059 L8.7366165,6.1240231 L11.0854663,7.44171059 L11.0854663,10.1526575 Z M9.97540688,9.47833347 L9.97540688,8.02724171 L8.7366165,7.29140985 L7.49782612,8.02724171 L7.49782612,9.47833347 L8.7366165,10.2141653 L9.97540688,9.47833347 Z M17.4254026,11.5706829 C17.533926,11.9601413 17.5010943,12.3889687 17.3160628,12.7624508 L16.5159563,14.0826093 C16.300843,14.4375416 16.0226164,14.7387577 15.5868361,14.8106604 C15.1585201,14.9718785 14.7323418,14.8852572 14.3792299,14.6742706 L12.7358209,13.7591092 C12.1853505,14.2248758 11.6361894,14.5503524 11.0854663,14.7304766 L11.0854663,15.8562222 C11.0854663,16.2646338 10.9117005,16.6533006 10.6258421,16.9362967 C10.3521471,17.2072511 9.97434095,17.381068 9.54383554,17.381068 L8.01908847,17.381068 C7.60588751,17.381068 7.2125264,17.2089831 6.92616321,16.9254873 C6.65295561,16.6550153 6.47745772,16.2817244 6.47745772,15.8562222 L6.47745772,14.7798455 C6.26737438,14.6435287 6.05750592,14.5324305 5.84750942,14.4215538 C5.50903357,14.2428409 5.16920595,14.0660656 4.83113373,13.7568647 L3.18361421,14.6743151 C2.80933123,14.8985588 2.35891039,14.8862795 1.98689249,14.8126209 C1.54030765,14.7387577 1.26208104,14.4375416 1.04696774,14.0826093 L0.239748706,12.7507153 C0.0242140051,12.3950877 -0.0119630352,11.9867767 0.0921917133,11.6129963 C0.201019967,11.222444 0.461941621,10.8685809 0.835896599,10.645078 L2.54456551,9.69357543 C2.34134847,9.38077695 2.35167153,9.06567887 2.35167153,8.75278759 C2.35167153,8.63820421 2.37255333,8.52379565 2.39182899,8.40929969 C2.41739883,8.25741686 2.44136253,8.10544662 2.44136253,7.9536512 C2.44136253,7.8854632 2.43652691,7.81723994 2.42888228,7.74900516 L1.01622088,6.94985288 C0.641761931,6.72638145 0.380493359,6.37225208 0.271573722,5.98137184 C0.167418973,5.60759138 0.203596013,5.1992804 0.419130714,4.84365279 L1.22634975,3.5117588 C1.44146305,3.1568265 1.71968966,2.85561046 2.15546989,2.78370766 C2.58346708,2.62261592 3.00920455,2.70895666 3.36213183,2.91953367 L4.82581983,3.74755205 C5.37671997,3.28120536 5.92630669,2.95536274 6.47745772,2.77509861 L6.47745772,1.56056005 C6.47745772,1.15214845 6.65122355,0.763481651 6.93708193,0.480485559 C7.21077687,0.209531109 7.58858305,0.0357142857 8.01908847,0.0357142857 L9.54383554,0.0357142857 C9.9570365,0.0357142857 10.3503976,0.207799102 10.6367608,0.491294953 C10.9099684,0.761766933 11.0854663,1.13505787 11.0854663,1.56056005 L11.0854663,2.72572969 C11.2955496,2.86204651 11.5054181,2.97314467 11.7154146,3.08402137 C12.0543068,3.26295414 12.3945542,3.43994452 12.733038,3.7498523 L14.200825,2.91951511 C14.5787444,2.69377699 14.9580321,2.70955399 15.4074541,2.78370766 C15.8432343,2.85561046 16.121461,3.1568265 16.3365743,3.5117588 L17.1437933,4.84365279 C17.359328,5.1992804 17.395505,5.60759138 17.2913503,5.98137184 C17.1824306,6.37225208 16.9211621,6.72638145 16.5467031,6.94985288 L15.0195199,7.81379097 C15.2215362,8.12600114 15.2112525,8.44049355 15.2112525,8.75278759 C15.2112525,8.86737097 15.1903707,8.98177953 15.171095,9.09627549 C15.1455252,9.24815832 15.1215615,9.40012856 15.1215615,9.55192398 C15.1215615,9.62061856 15.1264692,9.68934895 15.1342126,9.75809083 L16.727014,10.6450705 C17.08658,10.8600704 17.3214544,11.1976436 17.4254026,11.5706829 Z M16.3472209,12.2164521 C16.3989022,12.0887618 16.3883186,11.9670989 16.3354344,11.8623895 C16.29676,11.7858152 16.2323254,11.7172937 16.0272056,11.6235742 L13.8033024,10.3654968 L13.9100787,9.99552174 C14.0081468,9.61087195 14.0115021,9.22649951 14.0115021,8.84158052 C14.0115021,8.45666153 14.0081468,8.07228909 13.9100787,7.68763931 L13.8042238,7.32085698 L16.1640862,6.02294965 L16.1640862,5.54725089 L15.0408129,3.76800927 L12.4709096,5.22182125 L12.2067574,4.96031397 C11.6244263,4.38381377 10.9444139,4.00082992 10.2652495,3.80872593 L9.87625235,3.69869674 L9.78285266,1.20215567 L7.49782612,1.32783049 L7.49782612,3.70137353 L7.0977218,3.81454442 C6.42882917,4.09640004 5.75950858,4.47531767 5.18761035,4.94959664 L4.91034374,5.22408699 L2.64490238,3.97811054 C2.45419542,3.96006745 2.34106955,3.99646222 2.26929794,4.0319887 C2.19640764,4.06806893 2.14993735,4.11229131 2.04808589,4.27216404 L1.21994122,5.63858487 C1.22007454,5.71100652 1.21684884,5.79361535 1.22543859,5.86164527 C1.23477374,5.93557867 1.25744976,5.99936628 1.28844335,6.05084314 C1.34252861,6.14067267 1.41909155,6.21399444 1.54331961,6.24053593 L3.6690092,7.40964991 L3.56315433,7.77643224 C3.46508618,8.16108203 3.46173093,8.54545446 3.46173093,8.93037346 C3.46173093,9.31529245 3.46508618,9.69966488 3.56315433,10.0843147 L3.66993064,10.4542897 L1.21945582,11.8405402 L1.21945582,12.313496 L2.34466424,14.0958028 L5.00444496,12.5522331 L5.26647563,12.81164 C5.84880667,13.3881402 6.52881907,13.7711241 7.20798348,13.963228 L7.59772585,14.073468 L7.69141143,16.3921557 L9.97540688,16.2665376 L9.97540688,14.0705804 L10.3755112,13.9574096 C11.0444038,13.6755539 11.7137244,13.2966363 12.2856227,12.8223573 L12.5606006,12.5501327 L14.9156696,13.8824115 C15.1077993,13.9009782 15.2215599,13.8644305 15.2936261,13.8287582 C15.3665164,13.792678 15.4129866,13.7484556 15.5147977,13.5886908 L16.3472209,12.2164521 Z" id="Application-management" fill="#334764"></path>
                    <polygon id="XMLID_1603_-path" fill="#A2D9FF" points="9.63352654 9.28554519 8.7366165 9.81830278 7.83970646 9.28554519 7.83970646 8.22002999 8.7366165 7.6872724 9.63352654 8.22002999"></polygon>
                    <polygon id="XMLID_1603_-path" points="6.04588637 7.24330773 6.04588637 10.3510604 8.7366165 11.8605402 11.4273466 10.3510604 11.4273466 7.24330773 8.7366165 5.73382788"></polygon>
                </g>
            </g>
        </g>
    </g>
</svg>