<?xml version="1.0" encoding="UTF-8"?>
<svg width="40px" height="40px" viewBox="0 0 40 40" version="1.1" xmlns="http://www.w3.org/2000/svg" xmlns:xlink="http://www.w3.org/1999/xlink">
    <!-- Generator: Sketch 55.2 (78181) - https://sketchapp.com -->
    <title>报表查询4</title>
    <desc>Created with Sketch.</desc>
    <g id="报表查询4" stroke="none" stroke-width="1" fill="none" fill-rule="evenodd">
        <path d="M6,2 L27,2 C30.8659932,2 34,5.13400675 34,9 L34,24 C34,30.627417 28.627417,36 22,36 L6,36 C4.8954305,36 4,35.1045695 4,34 L4,4 C4,2.8954305 4.8954305,2 6,2 Z" id="矩形" fill="#FFFFFF" transform="translate(19.000000, 19.000000) scale(-1, 1) rotate(-180.000000) translate(-19.000000, -19.000000) "></path>
        <g transform="translate(2.000000, 0.000000)">
            <circle id="椭圆形" fill="#A2D9FF" cx="26" cy="29" r="6"></circle>
            <path d="M29.8765888,32.5821362 C30.1772146,32.5607012 30.4799087,32.6461382 30.7221316,32.8239003 L36.5443966,37.8906804 C36.7886695,38.1377036 36.9435614,38.445346 36.9656277,38.7537251 C36.9846639,39.0197572 36.8995164,39.2837381 36.6863609,39.4965139 C36.4250632,39.8758965 36.2097231,39.9953277 35.8778827,39.9953277 C35.6337425,39.9953277 35.2758241,39.8732808 35.0209844,39.751499 L29.2218304,34.5563997 C28.9766106,34.309096 28.8210744,34.0007671 28.7989587,33.6916982 C28.7799225,33.4256661 28.86507,33.1616852 29.0782256,32.9489093 C29.306855,32.7206871 29.5907223,32.6025189 29.8765888,32.5821362 Z" id="路径" fill="#334764" fill-rule="nonzero"></path>
            <path d="M25.6928784,36.7060782 C25.2798958,36.7060782 24.8657376,36.7115293 24.4521671,36.5739181 C22.46667,36.2035829 20.8506313,35.1253776 19.8141219,33.6509825 C18.7895485,32.1935659 18.332295,30.3494887 18.6874543,28.4350446 C19.0467025,26.4985596 20.1268331,24.8854499 21.6038237,23.8508113 C23.0639141,22.8280115 24.9113757,22.3715638 26.8293284,22.7261076 C28.7693074,23.0847231 30.3853461,24.1629284 31.4218555,25.6373234 C32.4464288,27.09474 32.9036824,28.9388172 32.5485231,30.8532614 C32.2650625,32.5506631 31.389312,33.9981051 30.1793431,35.0297794 C28.9416756,36.0850707 27.3540719,36.7060782 25.6928784,36.7060782 L25.6928784,36.7060782 Z M30.3701141,30.3794554 C30.6108266,29.0979421 30.2944713,27.8559994 29.597895,26.8709407 C28.8884872,25.8677363 27.7839014,25.1313129 26.4727562,24.8945454 L25.6928784,24.8945454 C24.5647749,24.8945454 23.5169623,25.2957898 22.6903045,25.9787018 C21.8642168,26.6611429 21.2589911,27.625199 21.0156428,28.7593378 C20.7749303,30.0408512 21.0912856,31.2827938 21.7878619,32.2678526 C22.491572,33.2629996 23.5841378,33.9956338 24.881449,34.2384464 C26.165157,34.478713 27.4092207,34.162929 28.395963,33.4676457 C29.3929206,32.7651643 30.1268611,31.6744939 30.3701141,30.3794554 Z" id="形状" fill="#334764" fill-rule="nonzero"></path>
            <path d="M0.00814425308,4.4512636 C0.00814425308,3.20297938 0.454644392,2.09110602 1.18191625,1.29002851 C1.90490714,0.493666422 2.90577885,0.00584033387 4.01229948,0.00584033387 L23.1840722,0.00584033387 C23.4042834,0.00584033387 23.7501791,0.100719054 23.8507561,0.214082887 L32.8400637,7.69182993 C33.0766104,7.93069728 33.3291859,8.27916019 33.3291859,8.63761911 L33.3291859,21.6452237 C33.3291859,21.9920482 33.2209048,22.2856672 33.0167637,22.4894447 C32.8125754,22.6932693 32.518363,22.8013676 32.1708407,22.8013676 C31.8233184,22.8013676 31.529106,22.6932693 31.3249177,22.4894447 C31.1207766,22.2856672 31.0124955,21.9920482 31.0124955,21.6452237 L31.0124955,9.07457192 L22.7057008,2.31812816 L3.86252,2.31812816 C3.3797576,2.31812816 2.94009472,2.55363002 2.62729728,2.96995043 C2.35121862,3.33739967 2.17505518,3.85038407 2.17505518,4.4512636 L2.17505518,34.0547775 C2.17505518,34.6541597 2.42189475,35.1715787 2.79798604,35.5470001 C3.20299231,35.951285 3.75814658,36.1879129 4.31185843,36.1879129 L17.1928932,36.1879129 C17.5404155,36.1879129 17.834628,36.2960112 18.0388163,36.4998359 C18.2429574,36.7036133 18.3512385,36.9972323 18.3512385,37.3440568 C18.3512385,37.6638278 18.2592021,37.9134864 18.0899469,38.08244 C17.9041774,38.2678787 17.636041,38.3506881 17.3426727,38.3506881 L4.46163792,38.3506881 C3.20907642,38.3506881 2.09471119,37.8660848 1.29413303,37.0669326 C0.493604318,36.2678298 0.00814425308,35.1555237 0.00814425308,33.9052648 L0.00814425308,4.4512636 Z" id="路径" fill="#334764" fill-rule="nonzero"></path>
            <path d="M7.90656581,10.9202672 L21.9858364,10.9202672 C22.3333587,10.9202672 22.6275711,11.0283655 22.8317595,11.2321901 C23.0359005,11.4359676 23.1441816,11.7295866 23.1441816,12.0764111 C23.1441816,12.4210911 23.0373773,12.7128796 22.8521175,12.9183572 C22.6713733,13.1188264 22.4175434,13.232555 22.1356159,13.232555 L7.90656581,13.232555 C7.55904357,13.232555 7.2648311,13.1244568 7.06064279,12.9206321 C6.85650171,12.7168546 6.74822063,12.4232356 6.74822063,12.0764111 C6.74822063,11.7295866 6.85650171,11.4359676 7.06064278,11.2321901 C7.2648311,11.0283655 7.55904357,10.9202672 7.90656581,10.9202672 Z M7.90656581,17.1998005 L18.391129,17.1998005 C18.7386513,17.1998005 19.0328638,17.3078988 19.2370521,17.5117234 C19.4411932,17.7155009 19.5494743,18.0091198 19.5494743,18.3559444 C19.5494743,18.7027689 19.4411932,18.9963879 19.2370521,19.2001654 C19.0328638,19.40399 18.7386513,19.5120883 18.391129,19.5120883 L7.90656581,19.5120883 C7.55904357,19.5120883 7.2648311,19.40399 7.06064279,19.2001654 C6.85650171,18.9963879 6.74822063,18.7027689 6.74822063,18.3559444 C6.74822063,18.0091198 6.85650171,17.7155008 7.06064278,17.5117234 C7.2648311,17.3078987 7.55904357,17.1998005 7.90656581,17.1998005 Z" id="形状" fill="#334764" fill-rule="nonzero"></path>
            <path d="M7.90656581,23.4793337 L15.0959806,23.4793337 C15.4435028,23.4793337 15.7377153,23.587432 15.9419036,23.7912566 C16.1460447,23.9950341 16.2543258,24.2886531 16.2543258,24.6354776 C16.2543258,24.9823022 16.1460447,25.2759211 15.9419036,25.4796986 C15.7377153,25.6835233 15.4435028,25.7916216 15.0959806,25.7916216 L7.90656581,25.7916216 C7.55904357,25.7916216 7.2648311,25.6835233 7.06064279,25.4796986 C6.85650171,25.2759212 6.74822063,24.9823022 6.74822063,24.6354776 C6.74822063,24.2886531 6.85650171,23.9950341 7.06064278,23.7912566 C7.2648311,23.587432 7.55904357,23.4793337 7.90656581,23.4793337 Z" id="路径" fill="#334764" fill-rule="nonzero"></path>
        </g>
    </g>
</svg>