<?xml version="1.0" encoding="UTF-8"?>
<svg width="40px" height="40px" viewBox="0 0 40 40" version="1.1" xmlns="http://www.w3.org/2000/svg" xmlns:xlink="http://www.w3.org/1999/xlink">
    <!-- Generator: Sketch 55.2 (78181) - https://sketchapp.com -->
    <title>业务处理1</title>
    <desc>Created with Sketch.</desc>
    <g id="业务处理1" stroke="none" stroke-width="1" fill="none" fill-rule="evenodd">
        <path d="M4,4 L35,4 C36.1045695,4 37,4.8954305 37,6 L37,30 C37,33.8659932 33.8659932,37 30,37 L4,37 C2.8954305,37 2,36.1045695 2,35 L2,6 C2,4.8954305 2.8954305,4 4,4 Z" id="矩形" fill="#FFFFFF"></path>
        <g fill-rule="nonzero">
            <path d="M10.3045689,9.94659233 L28.2954537,9.94659233 C29.8736015,9.94659233 31.1361197,11.2110979 31.1361197,12.7917299 L31.1361197,29.0722396 C31.1361197,30.6528716 29.8736015,31.9173772 28.2954537,31.9173772 L10.3045689,31.9173772 C8.72642111,31.9173772 7.46390287,30.6528716 7.46390287,29.0722396 L7.46390287,12.6336667 C7.62171766,11.2110979 8.88423586,9.94659233 10.3045689,9.94659233 Z" id="路径" fill="#A2D9FF" opacity="0.853"></path>
            <path d="M2.9162391,5.16566416 C2.52347363,5.52328575 2.27749637,6.02579535 2.27749639,6.6272651 L2.27749639,35.0786413 C2.27749639,35.680111 2.52347366,36.1826206 2.91623913,36.5402422 C3.31097787,36.8996605 3.86068602,37.1125203 4.46542208,37.1125203 L20.8781591,37.1125203 C21.2160894,37.1125203 21.5038487,37.2152474 21.7029317,37.4146439 C21.9018197,37.6138449 22.0043438,37.9017647 22.0043438,38.2399053 C22.0043438,38.5780459 21.9018197,38.8659657 21.7029317,39.0651667 C21.5038487,39.2645632 21.2160894,39.3672903 20.8781591,39.3672903 L4.46542208,39.3672903 C3.23587576,39.3672903 2.11457559,38.8945277 1.30556703,38.1103838 C0.515526725,37.3446251 0.025127078,36.2817723 0.025127078,35.0786413 L0.025127078,6.62726508 C0.025127078,5.42413405 0.515526725,4.36128126 1.30556703,3.5955226 C2.11457559,2.81137868 3.23587576,2.33861604 4.46542208,2.33861604 L34.1346006,2.33861604 C35.3641469,2.33861604 36.485447,2.81137868 37.2944556,3.5955226 C38.0844959,4.36128126 38.5748956,5.42413405 38.5748956,6.62726508 L38.5748956,21.6432692 C38.5748956,21.9814098 38.4723715,22.2693296 38.2734835,22.4685306 C38.0744005,22.667927 37.7866412,22.7706542 37.4487109,22.7706542 C37.1107806,22.7706542 36.8230213,22.667927 36.6239383,22.4685306 C36.4250503,22.2693296 36.3225262,21.9814098 36.3225262,21.6432692 L36.3225262,6.62726508 C36.3225262,6.02579534 36.076549,5.52328574 35.6837835,5.16566416 C35.2890448,4.80624588 34.7393366,4.59338607 34.1346006,4.59338607 L4.46542208,4.59338607 C3.86068599,4.59338607 3.31097783,4.80624588 2.9162391,5.16566416 Z" id="路径" fill="#334764"></path>
            <path d="M9.04205066,15.2997985 L26.4016764,15.2997985 C26.7396067,15.2997985 27.027366,15.4025257 27.226449,15.6019221 C27.425337,15.8011232 27.527861,16.089043 27.527861,16.4271836 C27.527861,16.7653242 27.425337,17.053244 27.226449,17.252445 C27.027366,17.4518414 26.7396067,17.5545686 26.4016764,17.5545686 L9.04205066,17.5545686 C8.70412032,17.5545686 8.41636107,17.4518414 8.21727802,17.252445 C8.01839007,17.053244 7.915866,16.7653242 7.915866,16.4271836 C7.915866,16.089043 8.01839007,15.8011232 8.21727802,15.6019221 C8.41636107,15.4025257 8.70412032,15.2997985 9.04205066,15.2997985 Z M20.0890852,25.4577286 L9.04205066,25.4577286 C8.70412032,25.4577286 8.41636107,25.3550015 8.21727802,25.155605 C8.01839007,24.956404 7.915866,24.6684842 7.915866,24.3303436 C7.915866,23.992203 8.01839007,23.7042832 8.21727802,23.5050822 C8.41636107,23.3056858 8.70412032,23.2029586 9.04205066,23.2029586 L20.0890852,23.2029586 C20.4270156,23.2029586 20.7147748,23.3056858 20.9138579,23.5050822 C21.1127458,23.7042832 21.2152699,23.992203 21.2152699,24.3303436 C21.2152699,24.6684842 21.1127458,24.956404 20.9138579,25.155605 C20.7147748,25.3550015 20.4270156,25.4577286 20.0890852,25.4577286 Z" id="形状" fill="#334764"></path>
            <path d="M10.5722504,0.0381327488 L10.5722504,7.68418541 L8.77436918,7.68418541 L8.77436918,0.0381327488 L10.5722504,0.0381327488 Z M28.5631352,0.0381327488 L28.5631352,7.68418541 L26.765254,7.68418541 L26.765254,0.0381327488 L28.5631352,0.0381327488 Z" id="形状" fill="#334764"></path>
            <path d="M39.6503509,30.6523023 L31.1284527,39.6617992 C30.9040839,39.8839516 30.571027,39.9995431 30.3470458,39.9995431 C30.1216645,39.9995431 29.9009486,39.8820411 29.6783025,39.7695031 L24.1525138,35.3517924 C23.9233234,35.1824915 23.7930832,34.8899683 23.771897,34.5928957 C23.7522797,34.3178203 23.8279894,34.0292572 24.0382097,33.8187061 C24.2465329,33.5474224 24.5374658,33.4149602 24.8349447,33.3936783 C25.1162235,33.3735553 25.41169,33.4534005 25.6232803,33.6754393 L30.2299256,37.4349108 L38.0882237,29.0723258 C38.3118273,28.8505206 38.5893228,28.7351706 38.8690439,28.7351706 C39.1506481,28.7351706 39.429986,28.85208 39.6543629,29.07681 C39.8785088,29.3013087 39.9952286,29.5807672 39.9952286,29.8625556 C39.9952286,30.1460241 39.8771118,30.4271254 39.6503509,30.6523023 Z" id="路径" fill="#334764"></path>
        </g>
    </g>
</svg>