<?xml version="1.0" encoding="UTF-8"?>
<svg width="40px" height="40px" viewBox="0 0 40 40" version="1.1" xmlns="http://www.w3.org/2000/svg" xmlns:xlink="http://www.w3.org/1999/xlink">
    <!-- Generator: Sketch 55.2 (78181) - https://sketchapp.com -->
    <title>业务设置3</title>
    <desc>Created with Sketch.</desc>
    <g id="业务设置3" stroke="none" stroke-width="1" fill="none" fill-rule="evenodd">
        <path d="M4,8 L34,8 C35.1045695,8 36,8.8954305 36,10 L36,23 C36,31.2842712 29.2842712,38 21,38 L4,38 C2.8954305,38 2,37.1045695 2,36 L2,10 C2,8.8954305 2.8954305,8 4,8 Z" id="矩形" fill="#FFFFFF"></path>
        <g transform="translate(1.000000, 0.000000)">
            <path d="M29.409063,37.5121681 C33.827341,37.5121681 38,33.418278 38,29 C38,24.581722 34.418278,21 30,21 C26.9335993,21 23.3428184,22.4449414 22,24.977684 C21.4079946,26.0942886 22,27.6481227 22,29 C22,30.6542949 21.1398452,32.6262483 22,33.9018934 C23.4371399,36.0332312 26.6450799,37.5121681 29.409063,37.5121681 Z" id="椭圆形" fill="#A2D9FF"></path>
            <path d="M0.034895135,9.59529269 L0.034895135,4.47413243 C0.034895135,3.20977818 0.515116891,2.09277444 1.31366797,1.29278699 C2.1119502,0.493068885 3.22654433,0.0120277235 4.48823217,0.0120277235 L17.4278943,0.0120277235 C19.0660207,0.0120277235 20.5504043,0.911760424 21.4448114,2.39886318 L23.6814962,6.72022842 C23.8695866,7.02909596 23.907052,7.36980054 23.8162149,7.6655523 C23.7273189,7.95498394 23.5156438,8.19892339 23.2124118,8.32043431 C22.8583088,8.52821793 22.522317,8.56426843 22.2302789,8.47424894 C21.9347426,8.38315113 21.6869526,8.16315873 21.5686829,7.84821861 L19.1542638,3.65569786 C18.7720531,3.07598388 18.1944094,2.69482303 17.4278943,2.69482303 L4.48823217,2.69482303 C3.90714426,2.69482303 3.42749191,2.89636085 3.08998365,3.23447619 C2.75273347,3.57233299 2.55161258,4.05246724 2.55161258,4.63416866 L2.55161258,9.75532893 C2.55161258,10.0635903 2.42722654,10.3411049 2.20804457,10.5387235 C1.98478917,10.7400147 1.66792151,10.8566722 1.29325386,10.8566722 C0.91584826,10.8566722 0.596756027,10.7381375 0.375143085,10.516126 C0.153272066,10.2938559 0.034895135,9.97380884 0.034895135,9.59529269 Z" id="路径" fill="#334764" fill-rule="nonzero"></path>
            <path d="M0.034895135,10.0754015 C0.034895135,8.9674492 0.518221833,7.97191341 1.31352125,7.25485647 C2.11398875,6.53313989 3.22835337,6.09340556 4.48823217,6.09340556 L33.083288,6.09340556 C34.2873364,6.09340556 35.4158631,6.54944402 36.2376574,7.29038932 C37.0292888,8.00413906 37.536625,8.98442644 37.536625,10.0754015 L37.536625,17.2770331 C37.536625,17.6555492 37.4182481,17.9755963 37.1963771,18.1978664 C36.9747642,18.4198779 36.6556719,18.5384126 36.2782663,18.5384126 C35.9008607,18.5384126 35.5817685,18.4198779 35.3601556,18.1978664 C35.1382845,17.9755963 35.0199076,17.6555492 35.0199076,17.2770331 L35.0199076,10.0754015 C35.0199076,9.66279092 34.7896153,9.2870384 34.4058511,9.0179203 C34.0510953,8.76914453 33.5677672,8.61616461 33.083288,8.61616458 L4.48823217,8.61616458 C4.00375295,8.61616458 3.5204249,8.7691445 3.16566906,9.01792027 C2.78190493,9.28703836 2.55161258,9.6627909 2.55161258,10.0754015 L2.55161258,35.0410577 C2.55161258,35.4536683 2.78190493,35.8294208 3.16566908,36.0985389 C3.52042491,36.3473147 4.00375295,36.5002946 4.48823217,36.5002946 L16.3096519,36.5002946 C16.6870575,36.5002946 17.0061497,36.6188293 17.2277627,36.8408408 C17.4496337,37.0631109 17.5680106,37.383158 17.5680106,37.7616741 C17.5680106,38.097109 17.4425398,38.3573818 17.2424932,38.5377475 C16.9971879,38.7589195 16.6517865,38.8630174 16.3096519,38.8630174 L4.48823217,38.8630174 C3.28418375,38.8630174 2.15565713,38.4069789 1.33386276,37.6660336 C0.542231402,36.9522839 0.034895135,35.9719965 0.034895135,34.8810215 L0.034895135,10.0754015 Z" id="路径" fill="#334764" fill-rule="nonzero"></path>
            <path d="M25.1154748,29.4397887 C25.1154748,28.1949569 25.6193226,27.0943213 26.4144643,26.2977494 C27.234127,25.4766124 28.3629953,24.977684 29.5688119,24.977684 C30.8110213,24.977684 31.9092699,25.4823959 32.7041405,26.2786963 C33.524081,27.1001116 34.0221489,28.2314311 34.0221489,29.4397887 C34.0221489,30.6481463 33.524081,31.7794658 32.7041405,32.6008811 C31.9092699,33.3971815 30.8110213,33.9018934 29.5688119,33.9018934 C28.3266025,33.9018934 27.2283539,33.3971815 26.4334832,32.6008811 C25.6135428,31.7794658 25.1154748,30.6481463 25.1154748,29.4397887 Z M32.1444272,29.4397887 C32.1444272,28.7028841 31.8654921,28.0599446 31.4063699,27.5999965 C30.9469804,27.1397807 30.3047945,26.860298 29.5688119,26.860298 C28.8328293,26.860298 28.1906434,27.1397807 27.7312539,27.5999965 C27.2721316,28.0599446 26.9931966,28.7028842 26.9931966,29.4397887 C26.9931966,30.1766932 27.2721317,30.8196328 27.7312539,31.2795809 C28.1906434,31.7397967 28.8328293,32.0192794 29.5688119,32.0192794 C30.3047945,32.0192794 30.9469804,31.7397967 31.4063699,31.2795809 C31.8654921,30.8196328 32.1444272,30.1766932 32.1444272,29.4397887 Z" id="形状" fill="#334764" fill-rule="nonzero"></path>
            <path d="M21.2621713,23.1773184 L27.9905854,19.3255946 C28.4153875,19.0390599 28.9123246,18.8963062 29.409063,18.8963062 C29.9058014,18.8963062 30.4027385,19.0390599 30.8275405,19.3255946 L37.5371223,23.1665377 C38.3911316,23.7403181 38.9743653,24.5936097 38.9743653,25.5989185 L38.9743653,33.2806589 C38.9743653,33.7847702 38.8288379,34.2886053 38.5757875,34.7195648 C38.3286779,35.1404067 37.9784623,35.4929229 37.5559547,35.702259 L30.827619,39.5539379 C30.4017302,39.8405026 29.9767937,39.9832712 29.409063,39.9832712 C28.9833088,39.9832712 28.4143926,39.8405321 27.9906618,39.5540265 L21.2810036,35.7130397 C20.4269943,35.1392593 19.8437607,34.2859677 19.8437607,33.2806589 L19.8437607,25.5989185 C19.8437607,25.0948071 19.989288,24.5909721 20.2423385,24.1600125 C20.489448,23.7391707 20.8396636,23.3866545 21.2621713,23.1773184 Z M36.4576479,33.4771605 L36.4576479,25.4024169 L29.8678089,21.6300213 L29.4570223,21.3282745 L29.1583589,21.5109265 L22.3604781,25.4024169 L22.3604781,33.4771605 L29.409063,37.5121681 L36.4576479,33.4771605 Z" id="形状" fill="#334764" fill-rule="nonzero"></path>
        </g>
    </g>
</svg>