<?xml version="1.0" encoding="UTF-8"?>
<svg width="40px" height="40px" viewBox="0 0 40 40" version="1.1" xmlns="http://www.w3.org/2000/svg" xmlns:xlink="http://www.w3.org/1999/xlink">
    <!-- Generator: Sketch 55.2 (78181) - https://sketchapp.com -->
    <title>报表查询1</title>
    <desc>Created with Sketch.</desc>
    <g id="报表查询1" stroke="none" stroke-width="1" fill="none" fill-rule="evenodd">
        <g fill-rule="nonzero">
            <path d="M38.9073823,32.9357806 L32.8342528,26.8095563 C36.8830058,20.3051699 36.1332367,11.607444 30.5099687,5.93501405 C23.9869779,-0.645004684 13.415234,-0.645004684 6.89224315,5.93501405 C0.369252282,12.5150328 0.369252282,23.1792011 6.89224315,29.7592198 C12.5155111,35.4316498 21.1378554,36.1879738 27.5858694,32.1038242 L33.6589988,38.2300485 C34.1838371,38.7594753 35.1585369,38.7594753 35.6833753,38.2300485 L38.9823592,34.902223 C39.4322206,34.4484286 39.4322206,33.5408398 38.9073823,32.9357806 Z" id="路径" fill="#FFFFFF"></path>
            <g id="编组-14">
                <path d="M5.24098107,5.28539616 C8.73496359,1.76180361 13.3139178,0 17.8928757,0 C22.4718336,0 27.0507878,1.76180361 30.5447703,5.28539616 C33.3660824,8.13061769 35.0744722,11.6935291 35.614537,15.4152471 C36.1700968,19.2437445 35.4893673,23.2399658 33.5135262,26.7950596 L38.9379836,32.265487 C39.4031387,32.7345841 39.6638655,33.4061666 39.6638655,34.1418753 C39.6638655,34.8826569 39.3947227,35.4876826 38.9299082,36.0264075 L35.6500706,39.3340404 C35.1826878,39.7339178 34.5188515,40 33.8549688,40 C33.1871735,40 32.5211229,39.7285627 31.9862381,39.2597874 L26.569891,33.7975391 C23.044672,35.7901247 19.0820323,36.476623 15.2857072,35.9163551 C11.5952641,35.3717134 8.06229317,33.6488458 5.24098107,30.8036243 C1.74699854,27.2800317 0,22.6622729 0,18.0445102 C0,13.4267476 1.74699854,8.80898871 5.24098107,5.28539616 Z M26.7357254,31.1555811 C27.0263888,31.1555811 27.3153459,31.2759291 27.5471941,31.5097422 L33.7800294,37.7953981 L37.4028503,34.1418753 L31.170015,27.8562194 C30.9668999,27.6513829 30.8478965,27.4037775 30.817386,27.1473683 C30.7865956,26.888607 30.8460597,26.6225946 30.9925553,26.3862152 C32.9445978,23.2596422 33.6909338,19.7074866 33.2994517,16.2904265 C32.9076309,12.8704104 31.3759451,9.58508897 28.770187,6.99589286 C25.7464227,3.94649028 21.7635252,2.42058775 17.7804666,2.42058775 C13.797408,2.42058775 9.81451048,3.94649028 6.78897908,6.99766177 C3.76344768,10.0488333 2.25036787,14.0654841 2.25036787,18.0822975 C2.25036787,22.0991108 3.76344768,26.1157617 6.78897908,29.1669332 C9.35457182,31.7542682 12.6285677,33.2795888 16.0269773,33.6755612 C19.4254064,34.0715359 22.9482817,33.3381794 26.0119279,31.4080391 C26.3133769,31.2260539 26.5534348,31.1555811 26.7357254,31.1555811 Z" id="形状" fill="#334764"></path>
                <ellipse id="椭圆形" fill="#A2D9FF" cx="17.8151261" cy="17.9661017" rx="9.07563025" ry="9.15254237"></ellipse>
                <path d="M7.05882353,17.4953584 C7.05882353,14.8468008 8.05373723,12.1980195 10.044429,10.188684 C11.998813,8.21599626 14.5318983,7.11864407 17.2828884,7.11864407 C20.0338785,7.11864407 22.5669639,8.21599626 24.5213479,10.188684 C26.4758453,12.1614861 27.5630252,14.7184585 27.5630252,17.4953584 C27.5630252,20.2722584 26.4758453,22.8292308 24.5213479,24.8020329 C22.5669639,26.7747206 19.9608619,27.7966102 17.2828884,27.7966102 C14.6772927,27.7966102 11.998813,26.7747206 10.044429,24.8020329 C8.05373723,22.7926974 7.05882353,20.1439161 7.05882353,17.4953584 Z M25.2447952,17.4953584 C25.2447952,15.3696245 24.3878745,13.3222762 22.9066188,11.8255303 C21.4221619,10.2500173 19.4704609,9.45918428 17.2828884,9.45918428 C15.1752926,9.45918428 13.1454391,10.325328 11.6622025,11.8224557 C10.1010174,13.398262 9.3209817,15.4469533 9.3209817,17.4953584 C9.3209817,19.5437636 10.1010174,21.5924549 11.6622025,23.1682612 C13.2235041,24.7441851 15.2533517,25.5315326 17.2828884,25.5315326 C19.3124252,25.5315326 21.3422727,24.7441851 22.9035744,23.1682612 C24.3867002,21.6712452 25.2447952,19.6225484 25.2447952,17.4953584 Z" id="形状" fill="#334764"></path>
            </g>
        </g>
    </g>
</svg>