<?xml version="1.0" encoding="UTF-8"?>
<svg width="40px" height="40px" viewBox="0 0 40 40" version="1.1" xmlns="http://www.w3.org/2000/svg" xmlns:xlink="http://www.w3.org/1999/xlink">
    <!-- Generator: Sketch 55.2 (78181) - https://sketchapp.com -->
    <title>报表查询2</title>
    <desc>Created with Sketch.</desc>
    <g id="报表查询2" stroke="none" stroke-width="1" fill="none" fill-rule="evenodd">
        <path d="M6,2 L27,2 C30.8659932,2 34,5.13400675 34,9 L34,24 C34,30.627417 28.627417,36 22,36 L6,36 C4.8954305,36 4,35.1045695 4,34 L4,4 C4,2.8954305 4.8954305,2 6,2 Z" id="矩形" fill="#FFFFFF" transform="translate(19.000000, 19.000000) scale(-1, 1) rotate(-180.000000) translate(-19.000000, -19.000000) "></path>
        <g transform="translate(2.000000, 0.000000)" fill-rule="nonzero">
            <path d="M16.5778968,31.3307273 L8.26329003,31.3307273 C7.07548906,31.3307273 6.03616322,30.4424963 6.03616322,29.2581884 L6.03616322,9.56906922 C6.03616322,8.38476129 6.77853881,7.34849186 7.81786465,7.34849186 L19.9928246,7.34849186 C20.586725,7.34849186 21.1806255,7.49653036 21.6260509,7.94064581 L25.9318294,11.3455311 L25.9318294,31.3307273 L16.5778968,31.3307273 Z" id="路径" fill="#D6E9FF"></path>
            <path d="M29.7358822,32.2611994 C30.0660916,32.2376824 30.3984863,32.3322932 30.6637631,32.5284075 L36.4428188,37.5517426 C36.7098865,37.8200615 36.8766367,38.1557595 36.9006416,38.4908402 C36.922073,38.7899977 36.8264425,39.0869684 36.5864115,39.3262936 C36.3129053,39.7280906 36.0675406,39.8577443 35.6940685,39.8577443 C35.4312059,39.8577443 35.0422002,39.7265592 34.7723185,39.5956513 L29.0073394,34.4371668 C28.7396728,34.1686773 28.5725262,33.8325488 28.5484906,33.4970391 C28.5270592,33.1978816 28.6226897,32.900911 28.8627207,32.6615858 C29.1127647,32.4122771 29.4233027,32.2834609 29.7358822,32.2611994 Z" id="路径" fill="#334764"></path>
            <path d="M25.2754286,36.3936721 C24.8563311,36.3936721 24.463132,36.3973173 24.0706545,36.2668763 C22.1139255,35.9015976 20.5290946,34.8462773 19.5128007,33.4023174 C18.5088632,31.9759135 18.0609657,30.1710634 18.4089644,28.2973964 C18.7611244,26.4013252 19.8196681,24.821644 21.2675885,23.8085476 C22.6981994,22.8075624 24.5083728,22.360982 26.3875661,22.7079574 C28.2892296,23.0590816 29.87357,24.1145124 30.8896545,25.5581749 C31.893592,26.9845787 32.3414896,28.7894288 31.9934908,30.6630959 C31.7154492,32.3260388 30.8571636,33.7429369 29.6713447,34.7528452 C28.4586667,35.7856283 26.903186,36.3936721 25.2754286,36.3936721 Z M29.9898534,30.2228084 C30.2325828,28.9320588 29.9136739,27.6811289 29.2112462,26.6889492 C28.4952453,25.6775976 27.3797613,24.9355113 26.0556444,24.6986029 L25.2754652,24.6986029 C24.1382067,24.6986029 23.0818502,25.1025536 22.2484684,25.7902206 C21.4164303,26.4767789 20.8066068,27.446539 20.5610769,28.5896454 C20.3183475,29.880395 20.6372564,31.1313249 21.3396842,32.1235045 C22.0486794,33.1249608 23.1493773,33.8623911 24.4564752,34.1067512 C25.7510318,34.3487668 27.0056512,34.0307958 28.0007573,33.3304337 C29.0051672,32.6235234 29.7447726,31.5260624 29.9898534,30.2228084 L29.9898534,30.2228084 Z" id="形状" fill="#334764"></path>
            <path d="M0.00807332887,4.53576057 C0.00807332887,3.26537465 0.464178274,2.13446969 1.20498576,1.31943085 C1.94601516,0.504147856 2.97216101,0.00578274773 4.10598666,0.00578274773 L23.1108021,0.00578274773 C23.3595545,0.00578274773 23.7422567,0.121007852 23.8602117,0.246868995 L32.7697002,7.64960887 C33.0279204,7.90896971 33.2961953,8.29181325 33.2961953,8.68083829 L33.2961953,21.5601869 C33.2961953,21.9421262 33.1731239,22.2632223 32.948771,22.4869153 C32.7244182,22.7106084 32.4023751,22.8333179 32.0193093,22.8333179 C31.6362435,22.8333179 31.3142003,22.7106084 31.0898475,22.4869153 C30.8654947,22.2632223 30.7424233,21.9421262 30.7424233,21.5601869 L30.7424233,9.17452246 L22.5908652,2.55204477 L3.95751153,2.55204477 C3.51826289,2.55204477 3.11993412,2.76855117 2.83590887,3.14613784 C2.57661772,3.49084268 2.41337027,3.97261954 2.41337027,4.53576057 L2.41337027,33.8473816 C2.41337027,34.4044371 2.64325668,34.8851914 2.9931535,35.2340592 C3.37031285,35.6101094 3.88706872,35.8310973 4.4029369,35.8310974 L17.1717972,35.8310974 C17.554863,35.8310974 17.8769062,35.9538069 18.101259,36.1774999 C18.3256118,36.401193 18.4486833,36.722289 18.4486833,37.1042283 C18.4486833,37.4619537 18.3405705,37.7380911 18.1519444,37.9261625 C17.9451939,38.132305 17.6482087,38.2293209 17.3202724,38.2293209 L4.55141204,38.2293209 C3.27359802,38.2293209 2.13716833,37.7348492 1.3205859,36.9206681 C0.504003468,36.106487 0.00807332887,34.9733993 0.00807332887,33.6993431 L0.00807332887,4.53576057 Z" id="路径" fill="#334764"></path>
            <path d="M7.96633978,10.8125925 L21.9230011,10.8125925 C22.3060669,10.8125925 22.62811,10.9353021 22.8524628,11.1589951 C23.0768157,11.3826882 23.1998871,11.7037842 23.1998871,12.0857235 C23.1998871,12.4630892 23.079879,12.7808802 22.8773012,13.0053048 C22.6740243,13.2305037 22.3887249,13.3588546 22.0714762,13.3588546 L7.96633978,13.3588546 C7.58327397,13.3588546 7.26123087,13.236145 7.03687804,13.012452 C6.8125252,12.7887589 6.68945376,12.4676628 6.68945376,12.0857235 C6.68945376,11.7037842 6.8125252,11.3826882 7.03687803,11.1589951 C7.26123086,10.935302 7.58327396,10.8125925 7.96633978,10.8125925 Z M7.96633978,17.0302091 L18.3595982,17.0302091 C18.742664,17.0302091 19.0647071,17.1529186 19.28906,17.3766117 C19.5134128,17.6003048 19.6364843,17.9214008 19.6364843,18.3033401 C19.6364843,18.6852794 19.5134128,19.0063755 19.28906,19.2300685 C19.0647071,19.4537616 18.742664,19.5764711 18.3595982,19.5764711 L7.96633978,19.5764711 C7.58327397,19.5764711 7.26123087,19.4537616 7.03687803,19.2300685 C6.8125252,19.0063755 6.68945376,18.6852794 6.68945376,18.3033401 C6.68945376,17.9214008 6.8125252,17.6003047 7.03687803,17.3766117 C7.26123086,17.1529186 7.58327396,17.0302091 7.96633978,17.0302091 Z" id="形状" fill="#334764"></path>
            <path d="M7.96633978,23.2478257 L15.0931455,23.2478257 C15.4762114,23.2478257 15.7982545,23.3705352 16.0226073,23.5942283 C16.2469602,23.8179213 16.3700316,24.1390174 16.3700316,24.5209567 C16.3700316,24.902896 16.2469602,25.2239921 16.0226073,25.4476851 C15.7982545,25.6713782 15.4762114,25.7940877 15.0931455,25.7940877 L7.96633978,25.7940877 C7.58327397,25.7940877 7.26123087,25.6713782 7.03687803,25.4476851 C6.8125252,25.2239921 6.68945376,24.902896 6.68945376,24.5209567 C6.68945376,24.1390174 6.8125252,23.8179213 7.03687803,23.5942283 C7.26123086,23.3705352 7.58327396,23.2478257 7.96633978,23.2478257 Z" id="路径" fill="#334764"></path>
        </g>
    </g>
</svg>