<?xml version="1.0" encoding="UTF-8"?>
<svg width="40px" height="40px" viewBox="0 0 40 40" version="1.1" xmlns="http://www.w3.org/2000/svg" xmlns:xlink="http://www.w3.org/1999/xlink">
    <!-- Generator: Sketch 55.2 (78181) - https://sketchapp.com -->
    <title>单据维护3</title>
    <desc>Created with Sketch.</desc>
    <g id="单据维护3" stroke="none" stroke-width="1" fill="none" fill-rule="evenodd">
        <g transform="translate(2.000000, 0.000000)" fill-rule="nonzero" id="单据维护4备份">
            <g>
                <polygon id="路径" fill="#FFFFFF" points="11.768543 34.3553146 0.566708132 39.2959583 0.566708132 6.68771015 11.768543 1.74706649"></polygon>
                <path d="M1.09177794,39.6612034 C0.868786985,39.6612034 0.663678644,39.6238296 0.507245486,39.5264639 C0.235091,39.2957115 0,38.9637744 0,38.5638685 L0,6.34553985 C0,6.1160142 0.0729423669,5.88705617 0.201339724,5.6951324 C0.320713728,5.51669641 0.489586758,5.36917052 0.699330067,5.29025569 L12.6628965,0.413772812 C12.9800649,0.309470868 13.3508258,0.292817822 13.673496,0.50023987 C13.9462245,0.731038775 14.1820868,1.06341004 14.1820868,1.4639749 L14.1820868,33.6823036 C14.1820868,33.9118292 14.1091444,34.1407873 13.980747,34.332711 C13.861373,34.511147 13.6925,34.6586729 13.4827567,34.7375877 L1.51969952,39.613863 C1.36109337,39.6652355 1.24813891,39.6612034 1.09177794,39.6612034 Z M11.9760344,3.11982928 L2.11926953,7.13159314 L2.11926953,36.9967699 L11.9760344,32.985006 L11.9760344,3.11982928 Z" id="形状" fill="#334764"></path>
                <polygon id="路径" fill="#FFFFFF" points="36.4332919 34.3553146 25.231457 39.2959583 25.231457 6.68771015 36.4332919 1.74706649"></polygon>
                <path d="M23.8990236,39.6612115 C23.6846966,39.6612115 23.4808983,39.6234192 23.3251631,39.5264676 C23.0530068,39.295715 22.8179132,38.9637766 22.8179132,38.5638685 L22.8179132,6.34553985 C22.8179132,6.1160142 22.8908556,5.88705617 23.019253,5.6951324 C23.138627,5.51669641 23.3075,5.36917052 23.5172433,5.29025569 L35.4808094,0.413772944 C35.8056685,0.306943536 36.186841,0.292118542 36.5148907,0.51579015 C36.8421054,0.738892445 37,1.07551058 37,1.4639749 L37,33.6823036 C37,33.9118292 36.9270576,34.1407873 36.7986603,34.332711 C36.6792863,34.511147 36.5104132,34.6586729 36.3006699,34.7375877 L24.338395,39.6135442 C24.1750919,39.6654071 24.0128686,39.6612115 23.8990236,39.6612115 Z M34.7939476,3.11982928 L24.9371828,7.13159314 L24.9371828,36.9967699 L34.7939476,32.985006 L34.7939476,3.11982928 Z" id="形状" fill="#334764"></path>
                <polygon id="路径" fill="#A2D9FF" points="11.768543 34.3553146 24.1958482 39.2959583 24.1958482 6.68771015 11.768543 1.74706649"></polygon>
                <path d="M24.4587298,39.6609431 C24.2845817,39.6627456 24.2056024,39.687235 24.1293851,39.6375213 L12.1084564,34.7376569 C11.8919849,34.6558657 11.7138332,34.5205634 11.59298,34.3399163 C11.4709861,34.1575642 11.4089566,33.9325617 11.4089566,33.6823036 L11.4089566,1.4639749 C11.4089566,1.07551058 11.5668512,0.738892445 11.8940659,0.51579015 C12.2047126,0.264561997 12.5837833,0.318243016 12.9418813,0.419371127 L24.8915436,5.29018652 C25.1080151,5.37197773 25.2861668,5.50727998 25.40702,5.6879271 C25.5290139,5.87027922 25.5910434,6.09528174 25.5910434,6.34553985 L25.5910434,38.5638685 C25.5910434,38.9388426 25.4441358,39.265656 25.139343,39.4884741 C24.9125072,39.5986728 24.6861717,39.6585628 24.4587298,39.6609431 Z M13.5282261,32.985006 L23.384991,36.9967699 L23.384991,7.13159314 L13.5282261,3.11982928 L13.5282261,32.985006 Z" id="形状" fill="#334764"></path>
            </g>
        </g>
    </g>
</svg>