<?xml version="1.0" encoding="UTF-8"?>
<svg width="40px" height="40px" viewBox="0 0 40 40" version="1.1" xmlns="http://www.w3.org/2000/svg" xmlns:xlink="http://www.w3.org/1999/xlink">
    <!-- Generator: Sketch 55.2 (78181) - https://sketchapp.com -->
    <title>单据维护5</title>
    <desc>Created with Sketch.</desc>
    <g id="单据维护5" stroke="none" stroke-width="1" fill="none" fill-rule="evenodd">
        <g transform="translate(20.000000, 20.000000) scale(-1, 1) rotate(-180.000000) translate(-20.000000, -20.000000) translate(4.000000, 0.000000)" fill-rule="nonzero">
            <polygon id="路径备份-11" fill="#FFFFFF" points="30.6236559 38.7118644 1.30752688 38.7118644 1.30752688 1.28813559 18.8972043 1.28813559 30.6236559 14.1423729"></polygon>
            <path d="M1.30752688,-1.8189894e-12 L18.8146237,-1.8189894e-12 C19.2043565,-1.8189894e-12 19.5308496,0.125590615 19.7904693,0.44948591 L31.5134467,13.2999148 C31.7088855,13.5587775 31.8486022,13.8164284 31.8486022,14.1423729 L31.8486022,38.7282207 C31.8849051,39.0743302 31.7599698,39.3894662 31.5389731,39.6186444 C31.3115442,39.8544928 30.9837907,40 30.6236559,40 L1.30752688,40 C0.947956989,40 0.621294417,39.8547198 0.384380828,39.6213197 C0.147467239,39.3879197 9.09494702e-13,39.0661017 9.09494702e-13,38.7118644 L9.09494702e-13,1.28813559 C9.09494702e-13,0.933898305 0.147467239,0.612080305 0.384380828,0.378680265 C0.621294417,0.145280225 0.947956989,-1.8189894e-12 1.30752688,-1.8189894e-12 Z M2.61505376,37.4237288 L29.316129,37.4237288 L29.316129,14.5814145 L18.3068295,2.57627119 L2.61505376,2.57627119 L2.61505376,37.4237288 Z" id="形状备份-2" fill="#334764"></path>
            <polyline id="路径备份-12" fill="#A2D9FF" points="18.0713978 2.10169492 18.0713978 14.1423729 29.7978495 14.1423729"></polyline>
            <path d="M19.3789247,12.8542373 L29.7978495,12.8542373 C30.1574194,12.8542373 30.4840819,12.9995175 30.7209955,13.2329176 C30.9579091,13.4663176 31.1053763,13.7881356 31.1053763,14.1423729 C31.1053763,14.4966102 30.9579091,14.8184282 30.7209955,15.0518282 C30.4840819,15.2852282 30.1574194,15.4305085 29.7978495,15.4305085 L18.0713978,15.4305085 C17.711828,15.4305085 17.3851654,15.2852282 17.1482518,15.0518282 C16.9113382,14.8184282 16.763871,14.4966102 16.763871,14.1423729 L16.763871,2.10169492 C16.763871,1.74745763 16.9113382,1.42563963 17.1482518,1.19223959 C17.3851654,0.958839547 17.711828,0.813559322 18.0713978,0.813559322 C18.4309677,0.813559322 18.7576303,0.958839547 18.9945439,1.19223959 C19.2314575,1.42563963 19.3789247,1.74745763 19.3789247,2.10169492 L19.3789247,12.8542373 Z" id="路径备份-13" fill="#334764"></path>
            <path d="M6.42752688,31.159322 L23.6043011,31.159322 C23.963871,31.159322 24.2905335,31.3046023 24.5274471,31.5380023 C24.7643607,31.7714023 24.911828,32.0932203 24.911828,32.4474576 C24.911828,32.8016949 24.7643607,33.1235129 24.5274471,33.356913 C24.2905335,33.590313 23.963871,33.7355932 23.6043011,33.7355932 L6.42752688,33.7355932 C6.06795699,33.7355932 5.74129442,33.590313 5.50438083,33.356913 C5.26746724,33.1235129 5.12,32.8016949 5.12,32.4474576 C5.12,32.0932203 5.26746724,31.7714023 5.50438083,31.5380023 C5.74129442,31.3046023 6.06795699,31.159322 6.42752688,31.159322 Z" id="路径备份-14" fill="#334764"></path>
            <path d="M6.42752688,24.6508475 L15.3462366,24.6508475 C15.7058065,24.6508475 16.032469,24.7961277 16.2693826,25.0295277 C16.5062962,25.2629278 16.6537634,25.5847458 16.6537634,25.9389831 C16.6537634,26.2932203 16.5062962,26.6150383 16.2693826,26.8484384 C16.032469,27.0818384 15.7058065,27.2271186 15.3462366,27.2271186 L6.42752688,27.2271186 C6.06795699,27.2271186 5.74129442,27.0818384 5.50438083,26.8484384 C5.26746724,26.6150383 5.12,26.2932203 5.12,25.9389831 C5.12,25.5847458 5.26746724,25.2629278 5.50438083,25.0295277 C5.74129442,24.7961277 6.06795699,24.6508475 6.42752688,24.6508475 Z" id="路径备份-15" fill="#334764"></path>
        </g>
    </g>
</svg>