<?xml version="1.0" encoding="UTF-8"?>
<svg width="40px" height="40px" viewBox="0 0 40 40" version="1.1" xmlns="http://www.w3.org/2000/svg" xmlns:xlink="http://www.w3.org/1999/xlink">
    <!-- Generator: Sketch 55.2 (78181) - https://sketchapp.com -->
    <title>基本档案2</title>
    <desc>Created with Sketch.</desc>
    <g id="基本档案2" stroke="none" stroke-width="1" fill="none" fill-rule="evenodd">
        <g transform="translate(2.000000, 0.000000)" fill-rule="nonzero">
            <rect id="矩形备份-3" fill="#FFFFFF" x="6.74101307" y="6.09553159" width="28.7818083" height="32.7642527"></rect>
            <path d="M6.74101307,4.88135593 L35.5228214,4.88135593 C35.8386167,4.88135593 36.1254461,5.00992764 36.3334951,5.21629045 C36.5418488,5.42295553 36.6715142,5.70791778 36.6715142,6.02157165 L36.6715142,38.7858243 C36.6715142,39.0994782 36.5418488,39.3844405 36.3334951,39.5911055 C36.1254461,39.7974683 35.8386167,39.9260401 35.5228214,39.9260401 L6.74101307,39.9260401 C6.42521773,39.9260401 6.13838836,39.7974683 5.93033936,39.5911055 C5.7219856,39.3844405 5.59232026,39.0994782 5.59232026,38.7858243 L5.59232026,6.02157165 C5.59232026,5.70791778 5.7219856,5.42295553 5.93033936,5.21629045 C6.13838836,5.00992764 6.42521773,4.88135593 6.74101307,4.88135593 Z M7.88970588,37.6456086 L34.3741285,37.6456086 L34.3741285,7.16178737 L7.88970588,7.16178737 L7.88970588,37.6456086 Z" id="形状备份-10" fill="#334764"></path>
            <rect id="矩形备份-4" fill="#A2D9FF" x="11.5131264" y="10.459168" width="19.8340959" height="19.8212635"></rect>
            <path d="M11.5131264,9.31895223 L31.3472222,9.31895223 C31.6630176,9.31895223 31.9498469,9.44752395 32.1578959,9.65388675 C32.3662497,9.86055184 32.495915,10.1455141 32.495915,10.459168 L32.495915,30.2804314 C32.495915,30.5940853 32.3662497,30.8790475 32.1578959,31.0857126 C31.9498469,31.2920754 31.6630176,31.4206471 31.3472222,31.4206471 L11.5131264,31.4206471 C11.197331,31.4206471 10.9105017,31.2920754 10.7024526,31.0857126 C10.4940989,30.8790475 10.3644336,30.5940853 10.3644336,30.2804314 L10.3644336,10.459168 C10.3644336,10.1455141 10.4940989,9.86055184 10.7024526,9.65388675 C10.9105017,9.44752395 11.197331,9.31895223 11.5131264,9.31895223 Z M12.6618192,29.1402157 L30.1985294,29.1402157 L30.1985294,11.5993837 L12.6618192,11.5993837 L12.6618192,29.1402157 Z" id="形状备份-11" fill="#334764"></path>
            <polygon id="路径备份-29" fill="#FFFFFF" points="14.4211329 27.3959938 17.478268 21.7750385 21.4301743 25.5469954 25.6803377 23.7719569 28.5883442 27.3959938"></polygon>
            <ellipse id="椭圆形备份-2" fill="#FFFFFF" cx="25.4566449" cy="17.1895223" rx="2.16236383" ry="2.14483821"></ellipse>
            <path d="M0,29.2449923 L0,1.14021572 C0,0.826561845 0.129665334,0.541599601 0.338019096,0.334934514 C0.546068102,0.128571712 0.832897469,0 1.14869281,0 L26.1277233,0 C26.4435187,0 26.730348,0.128571712 26.938397,0.334934514 C27.1467508,0.541599601 27.2764161,0.826561845 27.2764161,1.14021572 C27.2764161,1.45386959 27.1467508,1.73883183 26.938397,1.94549692 C26.730348,2.15185972 26.4435187,2.28043143 26.1277233,2.28043143 L2.29738562,2.28043143 L2.29738562,29.2449923 C2.29738562,29.5586462 2.16772029,29.8436084 1.95936652,30.0502735 C1.75131752,30.2566363 1.46448815,30.385208 1.14869281,30.385208 C0.832897469,30.385208 0.546068102,30.2566363 0.338019096,30.0502735 C0.129665334,29.8436084 0,29.5586462 0,29.2449923 Z" id="路径备份-30" fill="#334764"></path>
        </g>
    </g>
</svg>