<?xml version="1.0" encoding="UTF-8"?>
<svg width="40px" height="40px" viewBox="0 0 40 40" version="1.1" xmlns="http://www.w3.org/2000/svg" xmlns:xlink="http://www.w3.org/1999/xlink">
    <!-- Generator: Sketch 55.2 (78181) - https://sketchapp.com -->
    <title>报表查询8</title>
    <desc>Created with Sketch.</desc>
    <g id="报表查询8" stroke="none" stroke-width="1" fill="none" fill-rule="evenodd">
        <rect id="矩形" fill="#FFFFFF" x="3" y="2" width="35" height="36" rx="2"></rect>
        <g transform="translate(1.000000, 0.000000)" fill-rule="nonzero">
            <path d="M9.76929442,6.6570317 L29.5519031,6.6570317 C31.2789563,6.6570317 32.5349949,8.05319224 32.5349949,9.60448176 L32.5349949,30.7020191 C32.5349949,32.4084376 31.1219514,33.6494692 29.5519031,33.6494692 L9.76929442,33.6494692 C8.04224126,33.6494692 6.78620264,32.2533086 6.78620264,30.7020191 L6.78620264,9.75961072 C6.78620264,8.05319224 8.0422413,6.6570317 9.76929442,6.6570317 Z" id="路径" fill="#A2D9FF" opacity="0.853"></path>
            <path d="M7.7282316,18.6562561 L31.1219514,18.6562561 C31.529379,18.6562561 31.8717791,18.7857908 32.1103606,19.0215218 C32.3489421,19.2572527 32.4800432,19.5955618 32.4800432,19.9981215 C32.4800432,20.4006811 32.3489421,20.7389902 32.1103606,20.9747212 C31.8717791,21.2104522 31.529379,21.3399869 31.1219514,21.3399869 L7.7282316,21.3399869 C7.32080406,21.3399869 6.97840398,21.2104522 6.73982247,20.9747212 C6.50124095,20.7389902 6.37013981,20.4006811 6.37013981,19.9981215 C6.37013981,19.614458 6.52409096,19.2915324 6.75941164,19.0590233 C7.01766695,18.8038536 7.37272993,18.6562561 7.7282316,18.6562561 Z" id="路径" fill="#334764"></path>
            <path d="M24.8762992,10.6903844 L24.8762992,15.3442529 C24.8762992,15.7468126 24.7451981,16.0851217 24.5066166,16.3208527 C24.2680351,16.5565836 23.925635,16.6861184 23.5182074,16.6861184 C23.1107799,16.6861184 22.7683798,16.5565836 22.5297983,16.3208527 C22.2912168,16.0851217 22.1601157,15.7468126 22.1601157,15.3442529 L22.1601157,10.6903844 C22.1601157,10.2878248 22.2912168,9.9495157 22.5297983,9.71378474 C22.7683798,9.47805377 23.1107799,9.34851902 23.5182074,9.34851902 C23.925635,9.34851902 24.2680351,9.47805377 24.5066166,9.71378474 C24.7451981,9.9495157 24.8762992,10.2878248 24.8762992,10.6903844 Z M17.654077,10.3801265 L17.654077,15.7830559 C17.5825136,16.0482451 17.445726,16.2804455 17.2566442,16.4439153 C17.0814554,16.595374 16.861066,16.6861184 16.6099949,16.6861184 C16.3365961,16.6861184 16.0632467,16.5813616 15.8628328,16.4080946 C15.6866702,16.255794 15.5659128,16.0483916 15.5659128,15.8096398 L15.5659128,10.3801265 C15.5659128,10.0762857 15.6802578,9.82872771 15.8581767,9.65293456 C16.0575362,9.45595702 16.3339091,9.34851902 16.6099949,9.34851902 C16.8860807,9.34851902 17.1624536,9.45595704 17.3618131,9.65293457 C17.539732,9.82872772 17.654077,10.0762857 17.654077,10.3801265 Z M24.8762992,24.65199 L24.8762992,29.3058586 C24.8762992,29.7084182 24.7451981,30.0467273 24.5066166,30.2824583 C24.2680351,30.5181892 23.925635,30.647724 23.5182074,30.647724 C23.1107799,30.647724 22.7683798,30.5181892 22.5297983,30.2824583 C22.2912168,30.0467273 22.1601157,29.7084182 22.1601157,29.3058586 L22.1601157,24.65199 C22.1601157,24.2494304 22.2912168,23.9111213 22.5297983,23.6753903 C22.7683798,23.4396593 23.1107799,23.3101246 23.5182074,23.3101246 C23.925635,23.3101246 24.2680351,23.4396593 24.5066166,23.6753903 C24.7451981,23.9111213 24.8762992,24.2494304 24.8762992,24.65199 Z M17.654077,24.3417321 L17.654077,29.7712454 C17.654077,30.0440325 17.5453398,30.3171034 17.3459804,30.5140809 C17.1680614,30.6898741 16.9175099,30.8028529 16.6099949,30.8028529 C16.3339091,30.8028529 16.0575362,30.6954149 15.8581767,30.4984374 C15.6802578,30.3226442 15.5659128,30.0750862 15.5659128,29.7712454 L15.5659128,24.3417321 C15.5659128,24.0378913 15.6802578,23.7903333 15.8581767,23.6145401 C16.0575362,23.4175626 16.3339091,23.3101246 16.6099949,23.3101246 C16.8860807,23.3101246 17.1624536,23.4175626 17.3618131,23.6145402 C17.539732,23.7903333 17.654077,24.0378913 17.654077,24.3417321 Z" id="形状" fill="#334764"></path>
            <path d="M4.67762774,37.2717302 L34.194536,37.2717302 C34.7339923,37.2717302 35.2280605,37.0464273 35.5832609,36.6635656 C35.9207519,36.2997925 36.1335456,35.7925334 36.1335456,35.2007587 L36.1335456,26.5135374 C36.1335456,26.1109778 36.2646468,25.7726687 36.5032283,25.5369377 C36.7418098,25.3012068 37.0842099,25.171672 37.4916374,25.171672 C37.899065,25.171672 38.241465,25.3012068 38.4800465,25.5369377 C38.7186281,25.7726687 38.8497292,26.1109778 38.8497292,26.5135374 L38.8497292,35.2007587 C38.8497292,36.5302275 38.3306577,37.7134194 37.4935681,38.5671879 C36.6480953,39.4295065 35.4784083,39.955461 34.194536,39.955461 L4.67762774,39.955461 C3.39375539,39.955461 2.22406846,39.4295065 1.37859566,38.5671879 C0.54150598,37.7134194 0.0224345215,36.5302275 0.0224345215,35.2007587 L0.0224345215,26.5135374 C0.0224345215,26.1109778 0.15353566,25.7726687 0.392117173,25.5369377 C0.630698686,25.3012068 0.973098768,25.171672 1.38052631,25.171672 C1.78795386,25.171672 2.13035394,25.3012068 2.36893545,25.5369377 C2.60751696,25.7726687 2.7386181,26.1109778 2.7386181,26.5135374 L2.7386181,35.2007587 C2.7386181,35.7925334 2.95141185,36.2997925 3.28890282,36.6635656 C3.6441033,37.0464273 4.13817144,37.2717302 4.67762774,37.2717302 Z M4.67762774,0.0407819454 L34.194536,0.0407819454 C35.4784083,0.0407819454 36.6480953,0.566736459 37.4935681,1.42905509 C38.3306577,2.28282356 38.8497292,3.46601546 38.8497292,4.79548429 L38.8497292,15.6545108 C38.8497292,16.0570705 38.7186281,16.3953796 38.4800465,16.6311106 C38.241465,16.8668415 37.899065,16.9963763 37.4916374,16.9963763 C37.0842099,16.9963763 36.7418098,16.8668415 36.5032283,16.6311106 C36.2646468,16.3953796 36.1335456,16.0570705 36.1335456,15.6545108 L36.1335456,4.79548429 C36.1335456,4.20370957 35.9207519,3.69645042 35.5832609,3.33267734 C35.2280604,2.94981562 34.7339923,2.7245128 34.194536,2.7245128 L4.67762774,2.7245128 C4.13817142,2.7245128 3.64410326,2.94981562 3.28890278,3.33267734 C2.95141182,3.69645042 2.73861808,4.20370957 2.7386181,4.7954843 L2.7386181,15.3442529 C2.7386181,15.7468126 2.60751696,16.0851217 2.36893545,16.3208527 C2.13035394,16.5565836 1.78795386,16.6861184 1.38052631,16.6861184 C0.973098768,16.6861184 0.630698686,16.5565836 0.392117173,16.3208527 C0.15353566,16.0851217 0.0224345215,15.7468126 0.0224345215,15.3442529 L0.0224345215,4.79548429 C0.0224345215,3.46601546 0.54150598,2.28282356 1.37859566,1.42905509 C2.22406846,0.566736459 3.39375539,0.0407819454 4.67762774,0.0407819454 Z" id="形状" fill="#334764"></path>
        </g>
    </g>
</svg>