<?xml version="1.0" encoding="UTF-8"?>
<svg width="40px" height="40px" viewBox="0 0 40 40" version="1.1" xmlns="http://www.w3.org/2000/svg" xmlns:xlink="http://www.w3.org/1999/xlink">
    <!-- Generator: Sketch 55.2 (78181) - https://sketchapp.com -->
    <title>业务设置2</title>
    <desc>Created with Sketch.</desc>
    <g id="业务设置2" stroke="none" stroke-width="1" fill="none" fill-rule="evenodd">
        <g>
            <circle id="椭圆形" fill="#FFFFFF" cx="20.4912123" cy="20.4912123" r="13.5"></circle>
            <rect id="矩形" fill="#FFFFFF" x="16.1810137" y="2.91509376" width="8" height="35.6457702" rx="1.11393032"></rect>
            <rect id="矩形" fill="#FFFFFF" transform="translate(20.158663, 20.629459) rotate(59.000000) translate(-20.158663, -20.629459) " x="16.1586625" y="1.6294594" width="8" height="38" rx="1.11393032"></rect>
            <rect id="矩形" fill="#FFFFFF" transform="translate(20.158663, 20.629459) rotate(-240.000000) translate(-20.158663, -20.629459) " x="16.1586625" y="1.6294594" width="8" height="38" rx="1.11393032"></rect>
            <g fill-rule="nonzero" id="编组-20">
                <g>
                    <path d="M39.8321646,26.6498393 C40.0779362,27.5372254 40.0038163,28.514279 39.5851315,29.3654096 L37.7564613,32.4010963 C37.2701104,33.2084639 36.6421623,33.8958592 35.6561957,34.0595347 C34.6885766,34.426023 33.7208301,34.2326774 32.9182421,33.7500195 L29.138938,31.6325986 C27.8700234,32.7160404 26.6042941,33.4707849 25.3347078,33.8841763 L25.3347078,36.4991913 C25.3347078,37.4294294 24.9411571,38.3145973 24.2940438,38.9591422 C23.6744675,39.5762593 22.8192133,39.9721517 21.8446541,39.9721517 L18.3583374,39.9721517 C17.4228194,39.9721517 16.5323012,39.5800215 15.8839821,38.9342757 C15.2655699,38.318318 14.8682837,37.4682181 14.8682837,36.4991913 L14.8682837,34.0041028 C14.3817553,33.6853784 13.8957665,33.4263833 13.4093943,33.1680144 C12.6158082,32.7464732 11.8443819,32.3407899 11.0742561,31.6268824 L7.28454705,33.7501329 C6.43633992,34.2616871 5.41539293,34.232135 4.57260232,34.0642459 C3.56190076,33.89606 2.93320611,33.2090035 2.44653014,32.4010963 L0.60083306,29.337144 C0.113143828,28.5275547 0.0315273754,27.5980333 0.267181108,26.7471791 C0.513678369,25.8571731 1.1046574,25.0508088 1.95156206,24.5413835 L5.89274498,22.3332672 C5.41641179,21.6267587 5.43450124,20.913858 5.43471094,20.2078885 C5.43471995,19.908891 5.47880642,19.6557747 5.52125423,19.4024017 C5.61393975,18.8485255 5.68868998,18.3387575 5.59936507,17.8219179 L2.36396199,15.9804542 C1.51585652,15.4711041 0.924051046,14.6641015 0.677336016,13.7733092 C0.441682283,12.922455 0.523298736,11.9929336 1.01098797,11.1833443 L2.85668505,8.11939204 C3.34303596,7.31202447 3.97098414,6.62462912 4.95695067,6.46095359 C5.92377281,6.09477838 6.89051087,6.28745366 7.69265548,6.76911746 L11.0609916,8.68624141 C12.3309311,7.60139893 13.5976754,6.84577283 14.8682837,6.43204857 L14.8682837,3.61277003 C14.8682837,2.68253197 15.2618344,1.79736406 15.9089477,1.15281919 C16.528524,0.535702061 17.3837782,0.139809621 18.3583374,0.139809621 L21.8446541,0.139809621 C22.7801721,0.139809621 23.6706903,0.531939814 24.3190093,1.17768564 C24.9374216,1.79364336 25.3347078,2.64374329 25.3347078,3.61277003 L25.3347078,6.31212206 C25.8212362,6.63084644 26.307225,6.88984153 26.7935972,7.14821045 C27.5881883,7.5702855 28.3605963,7.97647733 29.1317071,8.69209968 L32.5104104,6.76907512 C33.367327,6.25396233 34.2275071,6.29187175 35.2460408,6.46095359 C36.2320073,6.62462912 36.8599555,7.31202447 37.3463064,8.11939204 L39.1920035,11.1833443 C39.6796928,11.9929336 39.7613092,12.922455 39.5256555,13.7733092 C39.2789404,14.6641015 38.687135,15.4711041 37.8390295,15.9804542 L34.3131453,17.9872483 C34.786485,18.6923502 34.7684898,19.4037872 34.7682806,20.1083363 C34.7682715,20.4073338 34.7241851,20.6604501 34.6817373,20.9138232 C34.5888396,21.4689673 34.513957,21.9799169 34.6042599,22.4979933 L38.2513967,24.5413651 C39.0653229,25.0311832 39.5968453,25.8001928 39.8321646,26.6498393 Z M37.4300762,28.1445926 C37.5571989,27.8380312 37.5304543,27.5463996 37.4047284,27.2959459 C37.3133491,27.1139126 37.1611893,26.9509243 36.9644065,26.8410109 C36.8769011,26.7921347 36.7811148,26.7541676 36.6814066,26.7292592 L31.6249518,23.8513248 L31.8616857,23.0260448 C32.0867567,22.1381501 32.0947898,21.2509228 32.0947898,20.3623759 C32.0947898,19.473829 32.0867567,18.5866017 31.8616857,17.6987071 L31.6271526,16.8810994 L37.0166487,13.898819 L37.0166487,12.7819406 L35.1324787,9.65412141 C35.0803332,9.46567102 34.9831963,9.32795718 34.8774654,9.22264595 C34.6008753,8.94715363 34.1879442,8.91748655 33.8767897,8.95620631 L28.5431848,11.9918837 L27.9580002,11.4090218 C26.6220007,10.0783249 25.0618389,9.19443685 23.5037025,8.75102199 L22.6612269,8.51127005 L22.6612269,3.81703351 C22.6612254,3.81819148 22.6656481,2.79619722 21.6395766,2.79619722 L18.1532599,2.79619722 C18.1521082,2.79619722 17.1316097,2.80058086 17.1316097,3.81703351 L17.1316097,8.51127005 L16.2400223,8.76499824 C14.7064108,9.41498198 13.171771,10.2891083 11.8606776,11.3832831 L11.2441854,11.9973284 L6.08152139,9.14056562 C5.62896359,9.09530232 5.36340465,9.18356286 5.19596365,9.26695107 C5.02367383,9.35275407 4.91388526,9.45797313 4.83782091,9.55267619 C4.75968533,9.64995801 4.71076939,9.74449983 4.67946534,9.82749539 L2.77618791,13.0516449 C2.77667355,13.2043002 2.77256046,13.3714642 2.79013881,13.5115328 C2.81215326,13.6869494 2.86579679,13.8382194 2.9388753,13.9603355 C3.06618531,14.173074 3.24848232,14.3400698 3.53169414,14.4076625 L8.37076139,17.0853629 L8.13622833,17.9029705 C7.91115731,18.7908652 7.90312425,19.6780925 7.90312425,20.5666394 C7.90312425,21.4551863 7.91115731,22.3424136 8.13622833,23.2303082 L8.37296223,24.0555882 L2.77618791,27.2410513 L2.77618791,28.3513382 L4.66035783,31.4791574 C4.71250336,31.6676078 4.80964027,31.8053216 4.91537116,31.9106328 C5.19165811,32.1858232 5.60404561,32.2160333 5.92134367,32.1759718 L11.4597966,28.9421788 L12.0399138,29.5199935 C13.3759134,30.8506904 14.9360751,31.7345785 16.4942115,32.1779933 L17.3366871,32.4177453 L17.3366871,36.7034548 C17.3366886,36.7022969 17.3322659,37.7242911 18.3583374,37.7242911 L21.8446541,37.7242911 C21.8458058,37.7242911 22.8663044,37.7199075 22.8663044,36.7034548 L22.8663044,32.4177453 L23.7578918,32.1640171 C25.2915032,31.5140333 26.8261431,30.639907 28.1372364,29.5457322 L28.7482623,28.9371316 L34.1158287,31.9921385 C34.5718755,32.0387295 34.838925,31.9500455 35.0070278,31.8663277 C35.1793177,31.7805247 35.2891062,31.6753057 35.3651706,31.5806026 C35.4425312,31.4842856 35.4912483,31.3906546 35.5225888,31.3082575 L37.4300762,28.1445926 Z M25.3347078,23.3580818 L19.998957,26.369673 L14.6632062,23.3580818 L14.6632062,17.1624066 L19.998957,14.1508153 L25.3347078,17.1624066 L25.3347078,23.3580818 Z M22.8663044,21.8469746 L22.8663044,18.4692503 L19.998957,16.7556703 L17.1316097,18.4692503 L17.1316097,21.8469746 L19.998957,23.5605546 L22.8663044,21.8469746 Z" id="Application-management" fill="#334764"></path>
                    <polygon id="XMLID_1603_-path" fill="#A2D9FF" points="22.9535025 21.8626579 19.998957 23.5672033 17.0444116 21.8626579 17.0444116 18.453567 19.998957 16.7490215 22.9535025 18.453567"></polygon>
                    <polygon id="XMLID_1603_-path" points="13.8466334 16.6856332 13.8466334 23.8348552 19.998957 27.3073344 26.1512806 23.8348552 26.1512806 16.6856332 19.998957 13.2131539"></polygon>
                </g>
            </g>
        </g>
    </g>
</svg>