<?xml version="1.0" encoding="UTF-8"?>
<svg width="40px" height="40px" viewBox="0 0 40 40" version="1.1" xmlns="http://www.w3.org/2000/svg" xmlns:xlink="http://www.w3.org/1999/xlink">
    <!-- Generator: Sketch 55.2 (78181) - https://sketchapp.com -->
    <title>单据维护4</title>
    <desc>Created with Sketch.</desc>
    <g id="单据维护4" stroke="none" stroke-width="1" fill="none" fill-rule="evenodd">
        <rect id="矩形" fill="#FFFFFF" x="3" y="2.5" width="34" height="36" rx="1"></rect>
        <g id="业务设置4" transform="translate(1.000000, 0.000000)" fill-rule="nonzero">
            <path d="M10.3210741,7.39776495 L28.8483133,7.39776495 C30.4184183,7.39776495 31.6745023,8.64119548 31.6745023,10.1954836 L31.6745023,29.934943 C31.6745023,31.4892312 30.4184182,32.7326617 28.8483133,32.7326617 L10.3210741,32.7326617 C8.75096909,32.7326617 7.49488507,31.4892312 7.49488507,29.934943 L7.49488507,10.1954836 C7.49488507,8.64119548 8.75096909,7.39776495 10.3210741,7.39776495 Z" id="路径" fill="#A2D9FF" opacity="0.853"></path>
            <path d="M14.3336134,24.4949345 C14.3336134,24.8273009 14.1972187,25.1585129 13.9290863,25.4239442 C13.6577959,25.6925016 13.2841702,25.8245035 12.9117474,25.8245035 C12.5376484,25.8245035 12.1623358,25.6913108 11.8907519,25.42031 L6.7095144,20.7575437 C6.44172874,20.4887829 6.32651676,19.954555 6.45665521,19.4287646 C6.59596191,19.0223187 6.8722911,18.7518628 7.14804409,18.6232543 L12.0447538,14.5577086 C12.3020917,14.2985458 12.6560671,14.2009538 13.0106618,14.2243553 C13.4035742,14.2502856 13.8002346,14.4234999 14.0860968,14.7064824 C14.3570534,14.9747095 14.4941587,15.3106371 14.469876,15.6471702 C14.4464597,15.9716957 14.2728775,16.2911197 13.9460601,16.5492989 L11.5783659,18.502501 L22.8819142,18.502501 C23.2849578,18.502501 23.6239107,18.6304917 23.8600005,18.8642032 C24.0960009,19.0978262 24.225275,19.4332343 24.225275,19.8320701 C24.225275,20.212128 24.0730835,20.5320339 23.8404106,20.7623629 C23.5849072,21.0152925 23.2336391,21.1616391 22.8819142,21.1616391 L11.3132784,21.1616391 L13.9319501,23.5687673 C14.1981899,23.8337187 14.3336134,24.1637535 14.3336134,24.4949345 Z" id="路径" fill="#334764"></path>
            <path d="M26.6495172,10.66177 L26.6495172,15.3246345 C26.6495172,15.7234702 26.5202431,16.0588783 26.2842426,16.2925014 C26.0481529,16.5262128 25.7091999,16.6542035 25.3061563,16.6542035 C24.9031128,16.6542035 24.5641598,16.5262128 24.32807,16.2925014 C24.0920696,16.0588783 23.9627955,15.7234702 23.9627955,15.3246345 L23.9627955,10.66177 C23.9627955,10.2817121 24.114987,9.96180617 24.3476599,9.73147717 C24.6031633,9.47854766 24.9544315,9.33220099 25.3061563,9.33220099 C25.7091999,9.33220099 26.0481529,9.46019167 26.2842426,9.69390315 C26.5202431,9.92752619 26.6495172,10.2629343 26.6495172,10.66177 Z M20.2120866,10.1954836 L20.2120866,15.6354921 C20.2120866,15.9354339 20.0995654,16.1799036 19.9242336,16.3534691 C19.7276137,16.5481083 19.4550211,16.6542035 19.1827468,16.6542035 C18.9312317,16.6542035 18.7101406,16.5613661 18.5552073,16.3860833 C18.3978294,16.2080347 18.3104175,15.9509082 18.3104175,15.6354921 L18.3104175,10.1954836 C18.3104175,9.94886317 18.4018235,9.73186958 18.5579342,9.57733156 C18.7141373,9.42270194 18.9334778,9.33220099 19.1827468,9.33220099 C19.4526279,9.33220099 19.722464,9.4357993 19.9203008,9.60716262 C20.0931525,9.75688427 20.2120866,9.96064344 20.2120866,10.1954836 Z M26.6495172,24.6503633 L26.6495172,29.3132278 C26.6495172,29.7120635 26.5202431,30.0474716 26.2842427,30.2810946 C26.0481529,30.5148061 25.7091999,30.6427968 25.3061563,30.6427968 C24.9031128,30.6427968 24.5641598,30.5148061 24.3280701,30.2810946 C24.0920696,30.0474716 23.9627955,29.7120635 23.9627955,29.3132278 L23.9627955,24.6503633 C23.9627955,24.2703054 24.114987,23.9503995 24.3476599,23.7200705 C24.6031633,23.467141 24.9544315,23.3207943 25.3061563,23.3207943 C25.7091999,23.3207943 26.0481529,23.448785 26.2842426,23.6824965 C26.5202431,23.9161195 26.6495172,24.2515276 26.6495172,24.6503633 Z M20.2120866,24.1840769 L20.2120866,29.6240854 C20.2120866,29.878739 20.0777777,30.1301701 19.8860647,30.3199518 C19.6942507,30.5098335 19.4401063,30.6427968 19.1827468,30.6427968 C18.9104724,30.6427968 18.6378799,30.5367016 18.44126,30.3420624 C18.2659282,30.1684969 18.153407,29.9240272 18.153407,29.6240854 L18.153407,24.2127005 C18.2242984,23.9508109 18.3591967,23.7214204 18.5457093,23.5598659 C18.7182941,23.4103755 18.9354036,23.3207943 19.1827468,23.3207943 C19.4526279,23.3207943 19.722464,23.4243926 19.9203008,23.5957559 C20.0931525,23.7454776 20.2120866,23.9492367 20.2120866,24.1840769 Z" id="形状" fill="#334764"></path>
            <path d="M34.3436808,39.9685257 L4.66869603,39.9685257 C3.3888731,39.9685257 2.22287551,39.4432349 1.38006941,38.5820056 C0.545543939,37.729238 0.0281146883,36.5474184 0.0281146883,35.2195227 L0.0281146883,26.5155091 C0.0281146883,26.1166734 0.15738877,25.7812653 0.393389222,25.5476422 C0.629479015,25.3139308 0.968431924,25.1859401 1.37147552,25.1859401 C1.77451911,25.1859401 2.11347202,25.3139308 2.34956181,25.5476422 C2.58556227,25.7812653 2.71483635,26.1166734 2.71483635,26.5155091 L2.71483635,35.2195227 C2.71483635,35.8165953 2.92927182,36.328312 3.26911387,36.6953141 C3.62709136,37.081901 4.12502434,37.3093876 4.66869603,37.3093876 L34.3436808,37.3093876 C34.8873525,37.3093876 35.3852855,37.081901 35.743263,36.6953141 C36.083105,36.328312 36.2975405,35.8165953 36.2975405,35.2195227 L36.2975405,26.5155091 C36.2975405,26.1166734 36.4268146,25.7812653 36.662815,25.5476422 C36.8989048,25.3139308 37.2378577,25.1859401 37.6409013,25.1859401 C38.0439449,25.1859401 38.3828978,25.3139308 38.6189876,25.5476422 C38.8549881,25.7812653 38.9842622,26.1166734 38.9842622,26.5155091 L38.9842622,35.2132204 C38.9070618,36.5636063 38.3741638,37.7638255 37.5347881,38.6215494 C36.7150766,39.4591792 35.6029415,39.9685257 34.3436808,39.9685257 Z M4.66869603,0.00647215601 L34.3436808,0.00647215601 C35.6235037,0.00647215601 36.7895013,0.531762891 37.6323074,1.39299218 C38.4668329,2.24575983 38.9842622,3.42757947 38.9842622,4.75547511 L38.9842622,15.6164523 C38.9117879,16.0276119 38.7386219,16.3718986 38.474114,16.6099381 C38.2205115,16.8381633 37.8841647,16.9650611 37.4838908,16.9650611 C37.0808472,16.9650611 36.7418943,16.8370705 36.5058045,16.603359 C36.2698041,16.3697359 36.14053,16.0343278 36.14053,15.6354921 L36.14053,4.75547511 C36.14053,4.14755779 35.9584027,3.62999294 35.6502926,3.26398541 C35.3336169,2.88780267 34.8836811,2.66561025 34.3436808,2.66561025 L4.66869603,2.66561025 C4.12502431,2.66561025 3.62709132,2.89309684 3.26911384,3.27968372 C2.92927179,3.64668579 2.71483633,4.15840257 2.71483635,4.75547512 L2.71483635,15.3246345 C2.71483635,15.7234702 2.58556227,16.0588783 2.34956181,16.2925014 C2.11347202,16.5262128 1.77451911,16.6542035 1.37147552,16.6542035 C0.968431924,16.6542035 0.629479015,16.5262128 0.393389222,16.2925014 C0.15738877,16.0588783 0.0281146883,15.7234702 0.0281146883,15.3246345 L0.0281146883,4.75547511 C0.0281146883,3.42757946 0.545543939,2.24575983 1.38006941,1.39299217 C2.22287551,0.531762889 3.3888731,0.00647215601 4.66869603,0.00647215601 Z" id="形状" fill="#334764"></path>
        </g>
    </g>
</svg>