<?xml version="1.0" encoding="UTF-8"?>
<svg width="40px" height="40px" viewBox="0 0 40 40" version="1.1" xmlns="http://www.w3.org/2000/svg" xmlns:xlink="http://www.w3.org/1999/xlink">
    <!-- Generator: Sketch 55.2 (78181) - https://sketchapp.com -->
    <title>业务设置1</title>
    <desc>Created with Sketch.</desc>
    <g id="业务设置1" stroke="none" stroke-width="1" fill="none" fill-rule="evenodd">
        <g>
            <g>
                <path d="M1.04302477,30.2477184 L13.261315,30.2477184 C14.5779931,30.2477184 15.6453716,31.3150969 15.6453716,32.631775 L15.6453716,37.5488918 L1.04302477,37.5488918 L1.04302477,30.2477184 Z" id="矩形备份-60" fill="#A2D9FF" transform="translate(8.344198, 33.898305) rotate(-180.000000) translate(-8.344198, -33.898305) "></path>
                <g id="编组-20" fill="#FFFFFF" stroke="#334764" stroke-width="2.37288136">
                    <path d="M1.18644068,1.18644068 L1.18644068,14.3043397 C1.18644068,14.9657647 1.7226316,15.5019557 2.38405662,15.5019557 L14.3043397,15.5019557 C14.9657647,15.5019557 15.5019557,14.9657647 15.5019557,14.3043397 L15.5019557,2.38405662 C15.5019557,1.7226316 14.9657647,1.18644068 14.3043397,1.18644068 L1.18644068,1.18644068 Z" id="矩形备份-59" transform="translate(8.344198, 8.344198) rotate(-180.000000) translate(-8.344198, -8.344198) "></path>
                    <path d="M22.6429503,1.18644068 L22.6429503,14.3043397 C22.6429503,14.9657647 23.1791412,15.5019557 23.8405662,15.5019557 L35.7608493,15.5019557 C36.4222743,15.5019557 36.9584653,14.9657647 36.9584653,14.3043397 L36.9584653,2.38405662 C36.9584653,1.7226316 36.4222743,1.18644068 35.7608493,1.18644068 L22.6429503,1.18644068 Z" id="矩形备份-60" transform="translate(29.800708, 8.344198) rotate(-180.000000) translate(-29.800708, -8.344198) "></path>
                    <path d="M1.18644068,22.6429503 L1.18644068,35.7608493 C1.18644068,36.4222743 1.7226316,36.9584653 2.38405662,36.9584653 L14.3043397,36.9584653 C14.9657647,36.9584653 15.5019557,36.4222743 15.5019557,35.7608493 L15.5019557,23.8405662 C15.5019557,23.1791412 14.9657647,22.6429503 14.3043397,22.6429503 L1.18644068,22.6429503 Z" id="矩形备份-61" transform="translate(8.344198, 29.800708) rotate(-180.000000) translate(-8.344198, -29.800708) "></path>
                </g>
            </g>
            <g id="业务设置2备份" transform="translate(19.452412, 19.452412)">
                <circle id="椭圆形" fill="#FFFFFF" cx="10.5546084" cy="10.5546084" r="6.17791596"></circle>
                <rect id="矩形" fill="#FFFFFF" x="8.86972219" y="1.56854879" width="2.80814362" height="17.9721191" rx="0.561628723"></rect>
                <rect id="矩形" fill="#FFFFFF" transform="translate(10.262525, 10.499894) rotate(59.000000) translate(-10.262525, -10.499894) " x="8.85845305" y="1.23302039" width="2.80814362" height="18.5337479" rx="0.561628723"></rect>
                <rect id="矩形" fill="#FFFFFF" transform="translate(10.262525, 10.499894) rotate(-240.000000) translate(-10.262525, -10.499894) " x="8.85845305" y="1.23302039" width="2.80814362" height="18.5337479" rx="0.561628723"></rect>
                <g id="业务设置2" fill-rule="nonzero">
                    <g id="编组-20">
                        <path d="M12.9449395,11.9180894 L10.1820035,13.4775389 L7.41906749,11.9180894 L7.41906749,8.7093925 L10.1820035,7.149943 L12.9449395,8.7093925 L12.9449395,11.9180894 Z M8.80904741,9.45200456 L8.80904741,11.0724904 L10.1820035,11.8929945 L11.5549595,11.0724904 L11.5549595,9.45200456 L10.1820035,8.63150054 L8.80904741,9.45200456 Z M20.2517244,13.5158787 C20.3805768,13.9811147 20.3412115,14.4934267 20.1209637,14.9393433 L19.1973918,16.4725204 C18.9407023,16.8986381 18.606968,17.2567607 18.0880824,17.3428984 C17.5910579,17.5325465 17.0816801,17.4317398 16.6592208,17.1780057 L14.7987959,16.1356702 C14.1805289,16.6572017 13.5634299,17.0252262 12.9449395,17.235203 L12.9449395,18.5012003 C12.9449395,18.9895927 12.7386683,19.4545278 12.3988485,19.7929989 C12.073485,20.1170709 11.6243503,20.3249423 11.1125792,20.3249423 L9.35482507,20.3249423 C8.86383343,20.3249423 8.39628884,20.1194311 8.05596848,19.7804615 C7.73108822,19.4568708 7.52246479,19.0102492 7.52246479,18.5012003 L7.52246479,17.2827068 C7.29006578,17.1329318 7.05785343,17.0093087 6.82552308,16.885891 C6.44133212,16.6818024 6.05586465,16.4795548 5.67198415,16.1337789 L3.8081172,17.1780428 C3.36466527,17.4449798 2.83124671,17.4327462 2.39003486,17.3448541 C1.86043629,17.2567607 1.52670198,16.8986381 1.2700125,16.4725204 L0.339436792,14.9277167 C0.0828542455,14.5017765 0.039406043,14.0127334 0.163423065,13.564956 C0.292579067,13.0986238 0.602258332,12.6760472 1.04623463,12.4093339 L2.96685266,11.3332742 C2.75674716,10.9768898 2.76618894,10.6185533 2.76618894,10.2622475 C2.76618894,10.1263281 2.79051037,9.99058311 2.81323928,9.85475091 C2.85367338,9.61310924 2.89100512,9.37129771 2.85512587,9.13002758 L1.25397062,8.21871321 C0.809490683,7.9520319 0.499464935,7.5291876 0.370217668,7.06252586 C0.246200645,6.6147485 0.289648848,6.12570546 0.546231395,5.6997652 L1.47680711,4.15496156 C1.73349658,3.7288438 2.06723089,3.3707212 2.58611641,3.28458353 C3.08282329,3.09506197 3.59176098,3.1955923 4.01403512,3.44891026 L5.66733208,4.38990163 C6.2860261,3.86779985 6.90354874,3.49941324 7.52246479,3.28929203 L7.52246479,1.92030781 C7.52246479,1.43191538 7.72873594,0.966980278 8.06855577,0.628509223 C8.39391924,0.304437142 8.84305392,0.096565755 9.35482507,0.096565755 L11.1125792,0.096565755 C11.6035708,0.096565755 12.0711154,0.302076947 12.4114358,0.641046552 C12.736316,0.964637331 12.9449395,1.41125884 12.9449395,1.92030781 L12.9449395,3.24178817 C13.1773385,3.39156323 13.4095508,3.51518627 13.6418812,3.63860398 C14.0264881,3.84291352 14.4123743,4.04537817 14.796667,4.39183973 L16.4533953,3.44889536 C16.9004541,3.18047433 17.3488638,3.19619839 17.8812878,3.28458353 C18.4001734,3.3707212 18.7339077,3.7288438 18.9905971,4.15496156 L19.9211729,5.6997652 C20.1777554,6.12570546 20.2212036,6.6147485 20.0971866,7.06252586 C19.9679393,7.5291876 19.6579136,7.9520319 19.2134336,8.21871321 L17.5016084,9.19301656 C17.7106254,9.54880894 17.7012153,9.90654017 17.7012153,10.2622475 C17.7012153,10.3981669 17.6768939,10.5339119 17.654165,10.6697441 C17.6136453,10.9118972 17.5762411,11.1542208 17.6125072,11.3959993 L19.4211586,12.4093277 C19.8486779,12.6662486 20.1281626,13.0697449 20.2517244,13.5158787 Z M18.9058922,14.2553048 C18.957544,14.1248923 18.9464832,14.0006786 18.8927673,13.8936732 C18.8528494,13.8141543 18.7862084,13.7431528 18.5662196,13.6437249 L15.9580036,12.1592313 L16.0928152,11.6892634 C16.2045157,11.2479181 16.2078381,10.8068485 16.2078381,10.3652344 C16.2078381,9.92362032 16.2045157,9.48255074 16.0928152,9.04120539 L15.9589172,8.57442253 L18.6893733,7.06352326 L18.6893733,6.56015836 L17.4309554,4.55468128 L14.477772,6.23551669 L14.1435264,5.90259774 C13.4793321,5.2410396 12.7038177,4.80134718 11.9291442,4.58089038 L11.4421789,4.44230967 L11.3351043,1.56277124 L8.80904741,1.70255073 L8.80904741,4.44497998 L8.31104087,4.58670281 C7.54657085,4.91110438 6.78167843,5.3467267 6.12783867,5.89188498 L5.78056837,6.23777694 L3.14291966,4.77823267 C2.94488664,4.76097403 2.82637759,4.7986029 2.75095167,4.83616617 C2.67582153,4.87358215 2.62784002,4.91935774 2.52212435,5.087956 L1.57156711,6.66593002 C1.57182197,6.74339094 1.56867309,6.83011371 1.57770419,6.90207577 C1.58740672,6.97938793 1.61070915,7.04620827 1.64294079,7.10006822 C1.69886686,7.1935222 1.7784534,7.26927269 1.90798153,7.29563335 L4.40508971,8.67740944 L4.27119173,9.1441923 C4.15949124,9.58553765 4.15616886,10.0266072 4.15616886,10.4682213 C4.15616886,10.9098354 4.15949124,11.350905 4.27119173,11.7922503 L4.40600334,12.2622182 L1.57123633,13.8756557 L1.57123633,14.3762843 L2.83157299,16.3848191 L5.88833851,14.6000343 L6.22048053,14.930858 C6.8846749,15.5924161 7.66018922,16.0321085 8.43486273,16.2525653 L8.92256693,16.3913563 L9.02992496,19.0646541 L11.5549595,18.9249312 L11.5549595,16.3884757 L12.0529661,16.2467529 C12.8174361,15.9223514 13.5823285,15.486729 14.2361683,14.9415708 L14.5811693,14.597939 L17.3221651,16.1580056 C17.521593,16.175762 17.6407326,16.1379862 17.7164526,16.1002765 C17.7915827,16.0628605 17.8395642,16.0170849 17.945242,15.848592 L18.9058922,14.2553048 Z" id="Application-management" fill="#334764"></path>
                        <polygon id="XMLID_1603_-path" fill="#A2D9FF" points="11.2159765 10.880169 10.1820035 11.4980904 9.14803047 10.880169 9.14803047 9.64432604 10.1820035 9.02640458 11.2159765 9.64432604"></polygon>
                        <polygon id="XMLID_1603_-path" points="7.08008444 8.51147003 7.08008444 12.1160119 10.1820035 13.8667893 13.2839225 12.1160119 13.2839225 8.51147003 10.1820035 6.76069257"></polygon>
                    </g>
                </g>
            </g>
        </g>
    </g>
</svg>