<?xml version="1.0" encoding="UTF-8"?>
<svg width="40px" height="40px" viewBox="0 0 40 40" version="1.1" xmlns="http://www.w3.org/2000/svg" xmlns:xlink="http://www.w3.org/1999/xlink">
    <!-- Generator: Sketch 55.2 (78181) - https://sketchapp.com -->
    <title>业务处理7</title>
    <desc>Created with Sketch.</desc>
    <g id="业务处理7" stroke="none" stroke-width="1" fill="none" fill-rule="evenodd">
        <g transform="translate(2.000000, 0.000000)">
            <path d="M35.81626,6.09485253 C35.81626,6.09485253 27.7193051,11.3590599 18.6603357,1.86753448 L18.6603357,1.54849161 C18.5801679,1.62825233 18.5801679,1.62825233 18.5,1.70801305 C18.4198321,1.62825233 18.4198321,1.62825233 18.3396643,1.54849161 L18.3396643,1.86753448 C9.28069491,11.4388206 1.18374,6.09485253 1.18374,6.09485253 C1.18374,34.0908645 16.0949639,37.9991397 18.3396643,38.3979433 L18.3396643,38.477704 C18.3396643,38.477704 18.4198321,38.477704 18.5,38.477704 C18.5801679,38.477704 18.6603357,38.477704 18.6603357,38.477704 L18.6603357,38.3979433 C20.9050361,37.9991397 35.81626,34.1706252 35.81626,6.09485253 Z" id="路径" fill="#FFFFFF" fill-rule="nonzero"></path>
            <path d="M1.27101011,4.90901485 C1.48335168,4.91957801 1.69550472,4.98015535 1.87777824,5.10105388 C2.04229745,5.21017632 5.13694228,7.1024431 9.5499356,6.02865974 C11.7829403,5.48531803 14.3599483,4.17966523 17.0572854,1.46836087 C17.2680832,0.949884452 17.5241985,0.625042378 17.9090478,0.426748786 C18.0944501,0.366283962 18.3356229,0.301611653 18.5782947,0.361971487 C18.7755572,0.372021022 18.9530641,0.357970799 19.0701554,0.416219126 C19.3058808,0.497966366 19.4812258,0.609703218 19.6150477,0.753940697 C19.7337821,0.881916329 19.8203246,1.03606338 19.8487281,1.20561835 C22.6404287,4.10000111 25.2202447,5.40618249 27.4557168,5.95012455 C31.9931429,7.05418527 35.1185621,5.034213 35.1739941,4.97906254 C35.3044953,4.90039463 35.5166483,4.83981729 35.7289899,4.82925413 C35.9586152,4.81783118 36.1894481,4.86459658 36.3864154,4.96258004 C36.569391,5.05360322 36.7193267,5.20773029 36.8251726,5.39728527 C36.9372874,5.5980671 37,5.83873186 37,6.09485253 C37,16.4134376 35.0322641,23.5914695 32.3615507,28.5765642 C27.882267,36.9374963 21.43131,39.0886029 19.1496572,39.5820953 C18.909684,39.6596241 18.7055005,39.7339353 18.5,39.7339353 C18.2216219,39.7339353 18.0137143,39.6608068 17.8053061,39.5916902 C15.3994437,39.0415402 9.03247172,36.8841982 4.60951655,28.6112731 C1.95308702,23.6425493 0,16.4826565 0,6.17461325 C0,5.73107541 0.25562761,5.2912565 0.63238415,5.03319287 C0.825159953,4.94145581 1.04865127,4.89795337 1.27101011,4.90901485 Z M30.0030949,27.640146 C32.3382397,23.42249 34.1813634,17.3620964 34.4719957,8.65849305 C34.477455,8.49500234 34.4823055,8.33240577 34.4865546,8.1706985 C34.3309001,8.22622614 34.178703,8.2771996 34.0304842,8.32395712 C32.1633188,8.91297839 29.3945139,9.31655197 26.1874797,8.38387223 C23.8720635,7.71049562 21.3316898,6.34161432 18.7348827,3.85610789 C18.6560685,3.78067172 18.5782856,3.70524379 18.5015224,3.62982932 C18.424306,3.70473996 18.3460486,3.77965441 18.2667434,3.85456173 C12.0683673,9.70920995 6.18244418,9.1797024 2.96229028,8.24200498 C2.81706294,8.19971529 2.66771019,8.15381516 2.51470912,8.1039582 C2.51857696,8.2614332 2.52300123,8.41946806 2.52798259,8.57806222 C2.85177857,18.8869101 5.37649314,26.6899887 9.9074919,31.8419737 C13.5104043,35.9154009 17.3600136,36.9685789 18.5733766,37.2134582 C19.9854627,36.9012549 25.7962754,35.238355 30.0030949,27.640146 Z" id="形状" fill="#334764"></path>
            <polygon id="路径" fill="#A2D9FF" points="20.1835253 9.20552052 13.2089206 22.4457997 18.5 22.4457997 15.6139567 30.9004358 24.1117509 19.255371 18.6603357 19.255371"></polygon>
        </g>
    </g>
</svg>