<?xml version="1.0" encoding="UTF-8"?>
<svg width="40px" height="40px" viewBox="0 0 40 40" version="1.1" xmlns="http://www.w3.org/2000/svg" xmlns:xlink="http://www.w3.org/1999/xlink">
    <!-- Generator: Sketch 55.2 (78181) - https://sketchapp.com -->
    <title>基本档案4</title>
    <desc>Created with Sketch.</desc>
    <g id="基本档案4" stroke="none" stroke-width="1" fill="none" fill-rule="evenodd">
        <g transform="translate(4.000000, 0.000000)" fill-rule="nonzero" id="编组备份-8">
            <g transform="translate(14.437500, 17.966102) scale(-1, 1) rotate(-180.000000) translate(-14.437500, -17.966102) ">
                <polygon id="路径备份-11" fill="#FFFFFF" points="27.6933594 34.8067797 1.1515625 34.8067797 1.1515625 1.12542373 17.0766406 1.12542373 27.6933594 12.6942373"></polygon>
                <path d="M1.1515625,0 L17.001875,0 C17.3450127,0 17.6328497,0.109337867 17.8614652,0.393369317 L28.4747165,11.9584045 C28.6462506,12.1844514 28.7701563,12.4092503 28.7701563,12.6942373 L28.7701563,34.8233861 C28.8025368,35.124838 28.6930087,35.3992143 28.499511,35.5986862 C28.2992065,35.8051752 28.0104396,35.9322034 27.6933594,35.9322034 L1.1515625,35.9322034 C0.834611471,35.9322034 0.546584827,35.8050363 0.337723487,35.6004918 C0.129728535,35.3967957 0,35.1160066 0,34.8067797 L0,1.12542373 C0,0.816196837 0.129728535,0.535407646 0.337723487,0.331711617 C0.546584827,0.127167107 0.834611471,0 1.1515625,0 Z M2.303125,33.6813559 L26.5417969,33.6813559 L26.5417969,13.0756592 L16.5557436,2.25084746 L2.303125,2.25084746 L2.303125,33.6813559 Z" id="形状备份-2" fill="#334764"></path>
                <polyline id="路径备份-12" fill="#A2D9FF" points="16.3289844 1.85762712 16.3289844 12.6942373 26.9457031 12.6942373"></polyline>
                <path d="M26.9457031,14.1586441 L16.3289844,14.1586441 C15.5065625,14.1586441 14.8336719,13.499661 14.8336719,12.6942373 L14.8336719,1.85762712 C14.8336719,1.05220339 15.5065625,0.393220339 16.3289844,0.393220339 C17.1514062,0.393220339 17.8242969,1.05220339 17.8242969,1.85762712 L17.8242969,11.2298305 L26.9457031,11.2298305 C27.768125,11.2298305 28.4410156,11.8888136 28.4410156,12.6942373 C28.4410156,13.499661 27.768125,14.1586441 26.9457031,14.1586441 Z" id="路径备份-13" fill="#1C2C43"></path>
                <path d="M21.3382812,30.6332203 L5.78703125,30.6332203 C4.96460937,30.6332203 4.29171875,29.9742373 4.29171875,29.1688136 C4.29171875,28.3633898 4.96460937,27.7044068 5.78703125,27.7044068 L21.3382812,27.7044068 C22.1607031,27.7044068 22.8335937,28.3633898 22.8335937,29.1688136 C22.8335937,29.9742373 22.1607031,30.6332203 21.3382812,30.6332203 Z" id="路径备份-14" fill="#1C2C43"></path>
                <path d="M13.8617187,24.7755932 L5.78703125,24.7755932 C4.96460937,24.7755932 4.29171875,24.1166102 4.29171875,23.3111864 C4.29171875,22.5057627 4.96460937,21.8467797 5.78703125,21.8467797 L13.8617187,21.8467797 C14.6841406,21.8467797 15.3570312,22.5057627 15.3570312,23.3111864 C15.3570312,24.1166102 14.6841406,24.7755932 13.8617187,24.7755932 Z" id="路径备份-15" fill="#1C2C43"></path>
            </g>
            <g transform="translate(18.562500, 22.033898) scale(-1, 1) rotate(-180.000000) translate(-18.562500, -22.033898) translate(4.125000, 4.067797)">
                <polygon id="路径备份-11" fill="#FFFFFF" points="27.6933594 34.8067797 1.1515625 34.8067797 1.1515625 1.12542373 17.0766406 1.12542373 27.6933594 12.6942373"></polygon>
                <path d="M1.1515625,0 L17.001875,0 C17.3450127,0 17.6328497,0.109337867 17.8614652,0.393369317 L28.4747165,11.9584045 C28.6462506,12.1844514 28.7701563,12.4092503 28.7701563,12.6942373 L28.7701563,34.8233861 C28.8025368,35.124838 28.6930087,35.3992143 28.499511,35.5986862 C28.2992065,35.8051752 28.0104396,35.9322034 27.6933594,35.9322034 L1.1515625,35.9322034 C0.834611471,35.9322034 0.546584827,35.8050363 0.337723487,35.6004918 C0.129728535,35.3967957 0,35.1160066 0,34.8067797 L0,1.12542373 C0,0.816196837 0.129728535,0.535407646 0.337723487,0.331711617 C0.546584827,0.127167107 0.834611471,0 1.1515625,0 Z M2.303125,33.6813559 L26.5417969,33.6813559 L26.5417969,13.0756592 L16.5557436,2.25084746 L2.303125,2.25084746 L2.303125,33.6813559 Z" id="形状备份-2" fill="#334764"></path>
                <polyline id="路径备份-12" fill="#A2D9FF" points="16.3289844 1.85762712 16.3289844 12.6942373 26.9457031 12.6942373"></polyline>
                <path d="M26.9457031,13.819661 L16.3289844,13.819661 C16.0120333,13.819661 15.7240067,13.6924939 15.5151454,13.4879494 C15.3071504,13.2842534 15.1774219,13.0034642 15.1774219,12.6942373 L15.1774219,1.85762712 C15.1774219,1.54840023 15.3071504,1.26761104 15.5151454,1.06391501 C15.7240067,0.859370497 16.0120333,0.73220339 16.3289844,0.73220339 C16.6459354,0.73220339 16.933962,0.859370497 17.1428234,1.06391501 C17.3508183,1.26761104 17.4805469,1.54840023 17.4805469,1.85762712 L17.4805469,11.5688136 L26.9457031,11.5688136 C27.2626542,11.5688136 27.5506808,11.6959807 27.7595421,11.9005252 C27.9675371,12.1042212 28.0972656,12.3850104 28.0972656,12.6942373 C28.0972656,13.0034642 27.9675371,13.2842534 27.7595421,13.4879494 C27.5506808,13.6924939 27.2626542,13.819661 26.9457031,13.819661 Z" id="路径备份-13" fill="#334764"></path>
                <path d="M5.78703125,28.0433898 L21.3382812,28.0433898 C21.6552323,28.0433898 21.9432589,28.1705569 22.1521203,28.3751014 C22.3601152,28.5787975 22.4898437,28.8595867 22.4898437,29.1688136 C22.4898437,29.4780405 22.3601152,29.7588296 22.1521203,29.9625257 C21.9432589,30.1670702 21.6552323,30.2942373 21.3382812,30.2942373 L5.78703125,30.2942373 C5.47008022,30.2942373 5.18205358,30.1670702 4.97319224,29.9625257 C4.76519729,29.7588296 4.63546875,29.4780405 4.63546875,29.1688136 C4.63546875,28.8595867 4.76519729,28.5787975 4.97319224,28.3751014 C5.18205358,28.1705569 5.47008022,28.0433898 5.78703125,28.0433898 Z" id="路径备份-14" fill="#334764"></path>
                <path d="M5.78703125,22.1857627 L13.8617187,22.1857627 C14.1786698,22.1857627 14.4666964,22.3129298 14.6755578,22.5174743 C14.8835527,22.7211704 15.0132812,23.0019595 15.0132812,23.3111864 C15.0132812,23.6204133 14.8835527,23.9012025 14.6755578,24.1048986 C14.4666964,24.3094431 14.1786698,24.4366102 13.8617187,24.4366102 L5.78703125,24.4366102 C5.47008022,24.4366102 5.18205358,24.3094431 4.97319224,24.1048986 C4.76519729,23.9012025 4.63546875,23.6204133 4.63546875,23.3111864 C4.63546875,23.0019595 4.76519729,22.7211704 4.97319224,22.5174743 C5.18205358,22.3129298 5.47008022,22.1857627 5.78703125,22.1857627 Z" id="路径备份-15" fill="#334764"></path>
            </g>
        </g>
    </g>
</svg>