<?xml version="1.0" encoding="UTF-8"?>
<svg width="40px" height="40px" viewBox="0 0 40 40" version="1.1" xmlns="http://www.w3.org/2000/svg" xmlns:xlink="http://www.w3.org/1999/xlink">
    <!-- Generator: Sketch 55.2 (78181) - https://sketchapp.com -->
    <title>业务处理8</title>
    <desc>Created with Sketch.</desc>
    <g id="业务处理8" stroke="none" stroke-width="1" fill="none" fill-rule="evenodd">
        <g transform="translate(0.000000, 3.000000)" fill-rule="nonzero">
            <polygon id="路径备份-11" fill="#A2D9FF" points="10.1944711 21.0247736 10.1944711 32.514713 28.4995558 12.3372584"></polygon>
            <path d="M10.1944711,33.5724907 C10.09885,33.5724907 9.95086526,33.5864997 9.85342293,33.5378298 C9.60689708,33.4435064 9.43147842,33.3111271 9.31165155,33.1361799 C9.19361793,32.9638508 9.13076566,32.7517784 9.13076566,32.514713 L9.13076566,21.0247736 C9.13076566,20.8077819 9.18368587,20.6036777 9.28702995,20.4347472 C9.38300214,20.2778671 9.52282956,20.1525263 9.70048667,20.0777919 L27.9377145,11.4592611 C28.1862774,11.349524 28.4487172,11.3208327 28.6901752,11.3787217 C28.9180467,11.4333533 29.1252852,11.5660824 29.2817711,11.7745106 C29.4351486,11.9787986 29.5034966,12.2075912 29.4945182,12.4318158 C29.4850086,12.669306 29.3901333,12.8996387 29.2284691,13.0894423 L11.0027385,33.1866698 C10.7866879,33.4008561 10.5204122,33.5724907 10.1944711,33.5724907 Z M24.0941571,15.5604361 L11.2581765,21.6470518 L11.2581765,29.6813845 L24.0941571,15.5604361 Z" id="形状备份-2" fill="#334764"></path>
            <polygon id="路径备份-12" fill="#FFFFFF" points="12.5790415 22.7762887 38.8794506 1.26768267 26.8864641 32.9350766"></polygon>
            <path d="M27.1312938,33.8699032 C26.9188936,33.9406288 26.6956436,33.9654278 26.4891886,33.9149322 C26.4037287,33.8826704 26.3233191,33.8379609 26.2431575,33.7774718 L11.9401946,23.6218505 C11.6780754,23.4100177 11.5153361,23.1473952 11.5153361,22.7762887 C11.5153361,22.4604173 11.6109129,22.1377945 11.8802119,21.9225543 L38.1838073,0.411342527 C38.365314,0.254833037 38.5855623,0.175616396 38.8063137,0.166428102 C39.0359052,0.156871857 39.266535,0.222434801 39.4557389,0.357438241 C39.6398227,0.488788235 39.7691353,0.686993094 39.8349751,0.903096381 C39.9008331,1.11925928 39.9039748,1.35565971 39.8253839,1.56501901 L27.8297393,33.2394316 C27.7247395,33.5619924 27.4482323,33.7643682 27.1312938,33.8699032 L27.1312938,33.8699032 Z M14.331468,22.7252761 L26.3461141,31.2981335 L36.4205068,4.61045563 L14.331468,22.7252761 Z" id="形状备份-3" fill="#334764"></path>
            <polygon id="路径备份-13" fill="#FFFFFF" points="1.07699594 14.5091372 12.5790415 22.7062281 38.8794506 1.05750085"></polygon>
            <path d="M12.5790415,23.7640059 C12.3647133,23.7640059 12.1503109,23.7104065 11.9359461,23.5487831 L0.425647395,15.3458105 C0.273074065,15.2455956 0.160372879,15.0935071 0.0890214755,14.9242258 C0.0122290512,14.7420358 -0.0174005753,14.5383169 0.00978761836,14.3481999 C0.0374612656,14.1546882 0.123028601,13.9615497 0.250283169,13.8050936 C0.364149903,13.6650974 0.512469578,13.5532981 0.687310661,13.5059566 L38.4973795,0.051610786 C38.7346596,-0.026579089 38.9845785,-0.0126431989 39.2088143,0.0713567058 C39.4420626,0.158732773 39.6484758,0.321871502 39.7854265,0.540762017 C39.9145095,0.74707739 39.9510514,0.992441307 39.9046948,1.22398022 C39.8575675,1.45936908 39.7246526,1.68082473 39.513725,1.83658004 L13.1932976,23.501785 C13.0412565,23.6585021 12.83656,23.7640059 12.5790415,23.7640059 Z M33.5200075,4.0720673 L3.36120306,14.8262842 L12.5233715,21.3855938 L33.5200075,4.0720673 Z" id="形状备份-4" fill="#334764"></path>
        </g>
    </g>
</svg>