<?xml version="1.0" encoding="UTF-8"?>
<svg width="40px" height="40px" viewBox="0 0 40 40" version="1.1" xmlns="http://www.w3.org/2000/svg" xmlns:xlink="http://www.w3.org/1999/xlink">
    <!-- Generator: Sketch 55.2 (78181) - https://sketchapp.com -->
    <title>业务处理4</title>
    <desc>Created with Sketch.</desc>
    <g id="业务处理4" stroke="none" stroke-width="1" fill="none" fill-rule="evenodd">
        <g fill-rule="nonzero">
            <rect id="矩形" fill="#FFFFFF" x="1.54878049" y="11.803681" width="37.6768293" height="26.6380368"></rect>
            <path d="M1.18839707,11.2699387 L38.5677005,11.2699387 C38.8944547,11.2699387 39.1911709,11.405131 39.4064166,11.6219126 C39.6218382,11.8388713 39.7560976,12.1379727 39.7560976,12.4673034 L39.7560976,38.7182271 C39.7560976,39.083661 39.6251138,39.4060609 39.4067872,39.6369396 C39.1925394,39.8635049 38.895229,40 38.5677005,40 L1.18839707,40 C0.861642825,40 0.564926671,39.8648077 0.349680938,39.6480261 C0.134259343,39.4310674 0,39.1319659 0,38.8026352 L0,12.4673034 C0,12.1379727 0.134259343,11.8388713 0.349680938,11.6219126 C0.564926671,11.405131 0.861642825,11.2699387 1.18839707,11.2699387 Z M2.37679414,37.6052705 L37.3793034,37.6052705 L37.3793034,13.6646682 L2.37679414,13.6646682 L2.37679414,37.6052705 Z" id="形状" fill="#334764"></path>
            <rect id="矩形" fill="#FFFFFF" x="1.54878049" y="20" width="17.3109756" height="10.2453988"></rect>
            <path d="M1.19532352,19.4662577 L18.1949204,19.4662577 C18.5238809,19.4662577 18.8227244,19.6014189 19.0394663,19.8185243 C19.2554203,20.0348406 19.3902439,20.3329908 19.3902439,20.6614118 L19.3902439,30.6085268 C19.3902439,30.9369479 19.2554203,31.2350981 19.0394663,31.4514143 C18.8227244,31.6685198 18.5238809,31.803681 18.1949204,31.803681 L1.19532352,31.803681 C0.866362984,31.803681 0.567519472,31.6685198 0.350777597,31.4514143 C0.134823582,31.2350981 0,30.9369479 0,30.6085268 L0,20.6614118 C0,20.3329908 0.134823582,20.0348406 0.350777597,19.8185243 C0.567519472,19.6014189 0.866362984,19.4662577 1.19532352,19.4662577 Z M2.39064705,29.4133727 L16.9995969,29.4133727 L16.9995969,21.856566 L2.39064705,21.856566 L2.39064705,29.4133727 Z" id="形状" fill="#334764"></path>
            <ellipse id="椭圆形" fill="#A2D9FF" cx="13.2591463" cy="25.6349693" rx="1.52743902" ry="1.53680982"></ellipse>
            <polygon id="路径" fill="#A2D9FF" points="39.2256098 11.803681 11.7317073 1.55828221 11.7317073 11.803681"></polygon>
            <path d="M11.8397495,0.112449739 L39.0384161,11.0249709 C39.2941952,11.1101553 39.4894625,11.3024909 39.6113056,11.5343729 C39.7423809,11.7838248 39.791061,12.0820636 39.73054,12.3647751 C39.6704527,12.6454605 39.5013796,12.8921268 39.2762499,13.0701834 C39.0482043,13.2505461 38.7603957,13.3619632 38.4567039,13.3619632 L11.36246,13.3619632 C11.0397729,13.3619632 10.7474891,13.2231459 10.5351777,13.0027529 C10.3174212,12.7767075 10.1829268,12.4647393 10.1829268,12.1219555 L10.1829268,1.21788225 C10.1829268,0.995747628 10.2254604,0.788270426 10.319595,0.614549846 C10.3984625,0.469003967 10.514753,0.349509177 10.6690629,0.269417326 C10.8946352,0.0965756849 11.0616153,0.0255121187 11.2423907,0.00575878703 C11.4325378,-0.0150185841 11.6361342,0.0204547039 11.8397495,0.112449739 Z M12.5419932,10.8819477 L32.062201,10.8819477 L12.5419932,3.00179729 L12.5419932,10.8819477 Z" id="形状" fill="#334764"></path>
        </g>
    </g>
</svg>