<?xml version="1.0" encoding="UTF-8"?>
<svg width="40px" height="40px" viewBox="0 0 40 40" version="1.1" xmlns="http://www.w3.org/2000/svg" xmlns:xlink="http://www.w3.org/1999/xlink">
    <!-- Generator: Sketch 55.2 (78181) - https://sketchapp.com -->
    <title>单据维护2</title>
    <desc>Created with Sketch.</desc>
    <g id="单据维护2" stroke="none" stroke-width="1" fill="none" fill-rule="evenodd">
        <g id="业务设置2" transform="translate(5.000000, 0.000000)" fill-rule="nonzero">
            <g id="报表查询5">
                <g id="编组-9">
                    <rect id="矩形备份" fill="#FFFFFF" x="1.7032967" y="3.72881356" width="28.6153846" height="34.5762712"></rect>
                    <path d="M1.16797488,3.05084746 L29.8320251,3.05084746 C30.1530419,3.05084746 30.4445854,3.18261242 30.6560646,3.39401682 C30.8681086,3.60598591 31,3.8982812 31,4.21996535 L31,38.8308821 C31,39.1525663 30.8681086,39.4448615 30.6560646,39.6568306 C30.4445854,39.868235 30.1530419,40 29.8320251,40 L1.16797488,40 C0.8469581,40 0.555414558,39.868235 0.343935398,39.6568306 C0.131891352,39.4448615 0,39.1525663 0,38.8308821 L0,4.21996535 C0,3.8982812 0.131891352,3.60598591 0.343935398,3.39401682 C0.555414558,3.18261242 0.8469581,3.05084746 1.16797488,3.05084746 Z M2.41138148,37.6617642 L28.7394819,37.6617642 L28.7394819,5.38908325 L2.41138148,5.38908325 L2.41138148,37.6617642 Z" id="形状备份-2" fill="#334764"></path>
                    <rect id="矩形备份-2" fill="#A2D9FF" x="5.79120879" y="0.677966102" width="20.4395604" height="7.11864407"></rect>
                    <path d="M5.244418,0 L25.755582,0 C26.071535,0 26.3575319,0.138124863 26.565348,0.356976036 C26.7799733,0.582997998 26.9120879,0.895046379 26.9120879,1.2376823 L26.9120879,8.25384312 C26.9120879,8.59647904 26.7799733,8.90852743 26.565348,9.13454939 C26.3575319,9.35340056 26.071535,9.49152542 25.755582,9.49152542 L5.244418,9.49152542 C4.928465,9.49152542 4.64246805,9.35340056 4.434652,9.13454939 C4.22002673,8.90852743 4.08791209,8.59647904 4.08791209,8.25384312 L4.08791209,1.2376823 C4.08791209,0.895046379 4.22002673,0.582997998 4.434652,0.356976036 C4.64246805,0.138124863 4.928465,0 5.244418,0 Z M6.40092392,7.01616082 L24.5990761,7.01616082 L24.5990761,2.4753646 L6.40092392,2.4753646 L6.40092392,7.01616082 Z" id="形状备份-3" fill="#334764"></path>
                    <path d="M7.83516484,14.4067797 L22.1428571,14.4067797" id="路径备份-11" fill="#FFFFFF"></path>
                    <path d="M7.83516484,21.5254237 L14.989011,21.5254237" id="路径备份-13" fill="#FFFFFF"></path>
                </g>
            </g>
            <path d="M7.29450549,20 L16.1243956,20 C16.4803846,20 16.803794,20.1452802 17.0383482,20.3786803 C17.2729025,20.6120803 17.4189011,20.9338983 17.4189011,21.2881356 C17.4189011,21.6423729 17.2729025,21.9641909 17.0383482,22.1975909 C16.803794,22.430991 16.4803846,22.5762712 16.1243956,22.5762712 L7.29450549,22.5762712 C6.93851648,22.5762712 6.61510708,22.430991 6.38055286,22.1975909 C6.14599864,21.9641909 6,21.6423729 6,21.2881356 C6,20.9338983 6.14599864,20.6120803 6.38055286,20.3786803 C6.61510708,20.1452802 6.93851648,20 7.29450549,20 Z" id="路径备份-15" fill="#334764" transform="translate(11.709451, 21.288136) scale(-1, -1) translate(-11.709451, -21.288136) "></path>
            <path d="M7.29450549,14 L24.3002198,14 C24.6562088,14 24.9796182,14.1452802 25.2141724,14.3786803 C25.4487266,14.6120803 25.5947253,14.9338983 25.5947253,15.2881356 C25.5947253,15.6423729 25.4487266,15.9641909 25.2141724,16.1975909 C24.9796182,16.430991 24.6562088,16.5762712 24.3002198,16.5762712 L7.29450549,16.5762712 C6.93851648,16.5762712 6.61510708,16.430991 6.38055286,16.1975909 C6.14599864,15.9641909 6,15.6423729 6,15.2881356 C6,14.9338983 6.14599864,14.6120803 6.38055286,14.3786803 C6.61510708,14.1452802 6.93851648,14 7.29450549,14 Z" id="路径备份-14" fill="#334764" transform="translate(15.797363, 15.288136) scale(-1, -1) translate(-15.797363, -15.288136) "></path>
        </g>
    </g>
</svg>