<?xml version="1.0" encoding="UTF-8"?>
<svg width="40px" height="40px" viewBox="0 0 40 40" version="1.1" xmlns="http://www.w3.org/2000/svg" xmlns:xlink="http://www.w3.org/1999/xlink">
    <!-- Generator: Sketch 55.2 (78181) - https://sketchapp.com -->
    <title>业务设置8</title>
    <desc>Created with Sketch.</desc>
    <g id="业务设置8" stroke="none" stroke-width="1" fill="none" fill-rule="evenodd">
        <g transform="translate(2.000000, 0.000000)" fill-rule="nonzero">
            <path d="M30.7581871,31.8270327 L20.8789924,37.8999811 C18.9461065,39.0246011 16.5836904,39.0246011 14.6508045,37.8999811 L4.77160981,31.8270327 C2.8387239,30.7024126 1.76489843,28.4531725 1.76489843,26.2039324 L1.76489843,14.2829598 C1.76489843,12.0337197 2.83872395,9.78447953 4.77160981,8.65985951 L14.6508045,2.58691117 C16.5836904,1.46229109 18.9461065,1.46229109 20.8789924,2.58691117 L30.7581871,8.65985951 C32.691073,9.78447959 33.7648984,12.0337197 33.7648984,14.2829598 L33.7648984,26.2039324 L32.905838,29.3528686 L30.7581871,31.8270327 L30.7581871,31.8270327 Z" id="路径" fill="#FFFFFF"></path>
            <path d="M27.5421742,28.2364066 L20.1082125,32.6890266 C18.6537417,33.5135859 16.8760552,33.5135859 15.4215844,32.6890266 L7.98762262,28.2364066 C6.53315183,27.4118473 5.72511254,25.7627288 5.72511254,24.1136102 L5.72511254,15.373282 C5.72511254,13.7241635 6.53315187,12.0750449 7.98762262,11.2504857 L15.4215844,6.79786558 C16.8760552,5.9733063 18.6537417,5.9733063 20.1082125,6.79786558 L27.5421742,11.2504857 C28.996645,12.0750449 29.8046843,13.7241635 29.8046843,15.373282 L29.8046843,24.1136102 L29.1582529,26.4223762 L27.5421742,28.2364066 L27.5421742,28.2364066 Z" id="路径" fill="#A2D9FF"></path>
            <path d="M0.0284581159,13.8890753 C0.0284581159,11.0829737 1.56034085,8.59265703 3.84944751,7.18973486 L14.1923593,1.08799128 C15.3366068,0.386573938 16.6722498,0.0375174258 18.0073102,0.0375174258 C19.3423706,0.0375174258 20.6780137,0.386573938 21.8222612,1.08799128 L32.1649866,7.18962492 C32.4436069,7.36120697 32.6163939,7.61369352 32.6954422,7.89601903 C32.7856877,8.21833571 32.7581395,8.57599258 32.6374922,8.90285391 C32.4697838,9.17127891 32.2292225,9.33871165 31.9614677,9.41677703 C31.6438887,9.50936897 31.2913483,9.48070609 30.9695003,9.35620634 L20.6526083,3.10531588 C19.0670891,2.20358807 16.9503588,2.20314697 15.3643239,3.104002 L5.02142108,9.20574024 C4.21914293,9.66142109 3.55091147,10.3455145 3.08631306,11.1672824 C2.63132471,11.9720524 2.37172652,12.9084935 2.37172652,13.8890753 L2.37172652,26.0925525 C2.37172652,27.0731342 2.63132471,28.0095754 3.08631306,28.8143453 C3.55091147,29.6361132 4.21914293,30.3202067 5.02142108,30.7758875 L15.3643239,36.8776258 C16.9495878,37.7780429 19.0650327,37.7780429 20.6502966,36.8776258 L30.9931994,30.7758875 C31.7954775,30.3202067 32.463709,29.6361132 32.9283074,28.8143453 C33.3832957,28.0095754 33.6428939,27.0731342 33.6428939,26.0925525 L33.6428939,13.8890753 C33.6428939,13.5308403 33.7500885,13.2261623 33.9567894,13.0152354 C34.1638298,12.8039622 34.4629036,12.6945022 34.8145281,12.6945022 C35.1661527,12.6945022 35.4652264,12.8039622 35.6722668,13.0152354 C35.8789678,13.2261623 35.9861623,13.5308403 35.9861623,13.8890753 L35.9861623,26.0925525 C35.9861623,28.898654 34.4542796,31.3889707 32.165173,32.7918929 L21.8187247,38.8957228 C20.5989873,39.675281 19.379206,39.9853383 18.0073102,39.9853383 C16.6354144,39.9853383 15.4156332,39.675281 14.1958957,38.8957228 L3.84944751,32.7918929 C1.56034089,31.3889707 0.0284581159,28.8986541 0.0284581159,26.0925525 L0.0284581159,13.8890753 Z" id="路径" fill="#334764"></path>
            <path d="M9.66431563,19.9908139 C9.66431563,17.6618273 10.6093017,15.5339634 12.1241755,13.9881189 C13.6392302,12.4420896 15.724737,11.4777584 18.0073102,11.4777584 C20.2898835,11.4777584 22.3753902,12.4420896 23.890445,13.9881189 C25.4053187,15.5339634 26.3503048,17.6618273 26.3503048,19.9908139 C26.3503048,22.3198004 25.4053187,24.4476643 23.890445,25.9935089 C22.3753902,27.5395382 20.2898835,28.5038694 18.0073102,28.5038694 C15.724737,28.5038694 13.6392302,27.5395382 12.1241755,25.9935089 C10.6093017,24.4476644 9.66431563,22.3198005 9.66431563,19.9908139 Z M23.562592,19.9908139 C23.562592,18.4445672 22.9319865,17.0267177 21.9216523,15.9957277 C20.9114995,14.9649229 19.5223316,14.32145 18.0073102,14.32145 C16.4922889,14.32145 15.103121,14.9649229 14.0929682,15.9957278 C13.082634,17.0267177 12.4520285,18.4445672 12.4520285,19.9908139 C12.4520285,21.5370606 13.082634,22.95491 14.0929682,23.9859 C15.103121,25.0167049 16.4922889,25.6601778 18.0073102,25.6601778 C19.5223316,25.6601778 20.9114995,25.0167049 21.9216523,23.9859 C22.9319865,22.9549101 23.562592,21.5370606 23.562592,19.9908139 Z" id="形状" fill="#334764"></path>
        </g>
    </g>
</svg>