<?xml version="1.0" encoding="UTF-8"?>
<svg width="40px" height="40px" viewBox="0 0 40 40" version="1.1" xmlns="http://www.w3.org/2000/svg" xmlns:xlink="http://www.w3.org/1999/xlink">
    <!-- Generator: Sketch 55.2 (78181) - https://sketchapp.com -->
    <title>基本档案5</title>
    <desc>Created with Sketch.</desc>
    <g id="基本档案5" stroke="none" stroke-width="1" fill="none" fill-rule="evenodd">
        <g transform="translate(4.000000, 0.000000)" fill-rule="nonzero" id="编组-9备份">
            <g>
                <path d="M4.77290491,6.47149461 L30.9620495,6.47149461 C31.2475291,6.47149461 31.5068568,6.58799246 31.6949451,6.77507431 C31.882895,6.9620186 32,7.2197505 32,7.50351242 L32,38.9679822 C32,39.2517441 31.882895,39.509476 31.6949451,39.6964203 C31.5068568,39.8835021 31.2475291,40 30.9620495,40 L4.77290491,40 C4.48742528,40 4.22809759,39.8835021 4.04000935,39.6964203 C3.85205941,39.509476 3.73495441,39.2517441 3.73495441,38.9679822 L3.73495441,7.50351242 C3.73495441,7.2197505 3.85205941,6.9620186 4.04000935,6.77507431 C4.22809759,6.58799246 4.48742528,6.47149461 4.77290491,6.47149461 Z M5.87977421,37.9359644 L29.9930178,37.9359644 L29.9930178,8.53553023 L5.87977421,8.53553023 L5.87977421,37.9359644 Z" id="形状备份-2" fill="#334764"></path>
                <path d="M7.12948328,13.0662558 L20.2018237,13.0662558" id="路径备份-11" fill="#FFFFFF"></path>
                <path d="M7.12948328,19.5377504 L13.6656535,19.5377504" id="路径备份-13" fill="#FFFFFF"></path>
                <g id="编组-33">
                    <rect id="矩形备份" fill="#FFFFFF" x="1.52705167" y="3.35901387" width="26.1446809" height="31.4329738"></rect>
                    <path d="M1.0379505,2.77349769 L27.2270951,2.77349769 C27.5125747,2.77349769 27.7719024,2.88999554 27.9599906,3.07707739 C28.1479406,3.26402168 28.2650456,3.52175358 28.2650456,3.8055155 L28.2650456,35.2699853 C28.2650456,35.5537472 28.1479406,35.8114791 27.9599906,35.9984234 C27.7719024,36.1855052 27.5125747,36.3020031 27.2270951,36.3020031 L1.0379505,36.3020031 C0.752470873,36.3020031 0.493143186,36.1855052 0.305054947,35.9984234 C0.117105005,35.8114791 0,35.5537472 0,35.2699853 L0,3.8055155 C0,3.52175358 0.117105005,3.26402168 0.305054947,3.07707739 C0.493143186,2.88999554 0.752470873,2.77349769 1.0379505,2.77349769 Z M2.1448198,34.2379675 L26.2580634,34.2379675 L26.2580634,4.83753331 L2.1448198,4.83753331 L2.1448198,34.2379675 Z" id="形状备份-2" fill="#334764"></path>
                    <rect id="矩形备份-2" fill="#A2D9FF" x="5.26200608" y="0.585516179" width="18.674772" height="6.47149461"></rect>
                    <path d="M4.76242619,0 L23.5026194,0 C23.7832893,0 24.0373252,0.12214052 24.221926,0.315571909 C24.412665,0.515435079 24.5300912,0.791366493 24.5300912,1.09434909 L24.5300912,7.47267711 C24.5300912,7.7756597 24.412665,8.05159112 24.221926,8.25145429 C24.0373252,8.44488567 23.7832893,8.56702619 23.5026194,8.56702619 L4.76242619,8.56702619 C4.4817563,8.56702619 4.22772039,8.44488567 4.04311958,8.25145429 C3.85238061,8.05159112 3.73495441,7.7756597 3.73495441,7.47267711 L3.73495441,1.09434909 C3.73495441,0.791366493 3.85238061,0.515435079 4.04311958,0.315571909 C4.22772039,0.12214052 4.4817563,0 4.76242619,0 Z M5.78989797,6.37832802 L22.4751476,6.37832802 L22.4751476,2.18869818 L5.78989797,2.18869818 L5.78989797,6.37832802 Z" id="形状备份-3" fill="#334764"></path>
                    <path d="M6.61872029,12.01849 L19.7788481,12.01849 C20.0573395,12.01849 20.3098595,12.1360247 20.4931848,12.3234084 C20.6796981,12.5140507 20.7951368,12.7770944 20.7951368,13.0662558 C20.7951368,13.3554172 20.6796981,13.6184609 20.4931848,13.8091031 C20.3098595,13.9964869 20.0573395,14.1140216 19.7788481,14.1140216 L6.61872029,14.1140216 C6.34022889,14.1140216 6.08770891,13.9964869 5.90438356,13.8091031 C5.71787031,13.6184609 5.60243161,13.3554172 5.60243161,13.0662558 C5.60243161,12.7770944 5.71787031,12.5140507 5.90438356,12.3234084 C6.08770891,12.1360247 6.34022889,12.01849 6.61872029,12.01849 Z" id="路径备份-12" fill="#334764"></path>
                    <path d="M6.698527,18.4899846 L13.1628712,18.4899846 C13.4655241,18.4899846 13.7409004,18.6091004 13.9404581,18.8017439 C14.1361241,18.9906305 14.2589666,19.2507771 14.2589666,19.5377504 C14.2589666,19.8247237 14.1361241,20.0848703 13.9404581,20.2737569 C13.7409004,20.4664004 13.4655241,20.5855162 13.1628712,20.5855162 L6.698527,20.5855162 C6.39587409,20.5855162 6.1204978,20.4664004 5.92094009,20.2737569 C5.7252741,20.0848703 5.60243161,19.8247237 5.60243161,19.5377504 C5.60243161,19.2507771 5.7252741,18.9906305 5.92094009,18.8017439 C6.1204978,18.6091004 6.39587409,18.4899846 6.698527,18.4899846 Z" id="路径备份-14" fill="#334764"></path>
                </g>
            </g>
        </g>
    </g>
</svg>