<?xml version="1.0" encoding="UTF-8"?>
<svg width="40px" height="40px" viewBox="0 0 40 40" version="1.1" xmlns="http://www.w3.org/2000/svg" xmlns:xlink="http://www.w3.org/1999/xlink">
    <!-- Generator: Sketch 55.2 (78181) - https://sketchapp.com -->
    <title>基本档案1</title>
    <desc>Created with Sketch.</desc>
    <g id="基本档案1" stroke="none" stroke-width="1" fill="none" fill-rule="evenodd">
        <g transform="translate(1.000000, 0.000000)" fill-rule="nonzero">
            <path d="M36.7592105,20.3988604 L29.9085526,8.92687559 L8.125,8.92687559 L1.27434211,20.3988604 L14.5138158,20.3988604 C14.5138158,20.3988604 14.5138158,20.4748338 14.5138158,20.4748338 C14.5138158,22.9059829 16.5151316,24.957265 19.0552632,24.957265 C21.5184211,24.957265 23.5967105,22.9819563 23.5967105,20.4748338 C23.5967105,20.4748338 23.5967105,20.3988604 23.5967105,20.3988604 L36.7592105,20.3988604 Z" id="路径备份-27" fill="#FFFFFF"></path>
            <path d="M0.17734064,19.823109 L7.02814685,8.35087588 C7.26924441,7.9978084 7.62437691,7.74928775 8.04802632,7.74928775 L29.8315789,7.74928775 C30.0428164,7.74928775 30.2538046,7.8099507 30.4343322,7.91476344 C30.6079872,8.015586 30.7547311,8.15773661 30.839741,8.33125411 L37.7022646,19.823109 C37.82078,19.9952515 37.8796053,20.1971395 37.8796053,20.3988604 C37.8796053,20.5977407 37.8224251,20.7967833 37.707236,20.9673217 C37.4660597,21.324385 37.1088951,21.5764482 36.6822368,21.5764482 L24.5495696,21.5764482 C24.3014865,22.9474069 23.559852,24.1226456 22.5159631,24.936059 C21.5462591,25.6916663 20.3160527,26.1348528 18.9782895,26.1348528 C17.656262,26.1348528 16.4397913,25.6836784 15.4669025,24.9354346 C14.392677,24.1092534 13.6147077,22.9210781 13.3200511,21.5764482 L1.19736842,21.5764482 C0.986130932,21.5764482 0.775142808,21.5157853 0.594615181,21.4109726 C0.42420568,21.3120343 0.279710815,21.1732984 0.19403718,21.0041778 C0.057180133,20.7967833 0,20.5977407 0,20.3988604 C0,20.1971395 0.0588252428,19.9952515 0.17734064,19.823109 Z M3.2889579,19.2212726 L14.4368421,19.2212726 C14.7184003,19.2212726 15.0694822,19.3149294 15.2740759,19.5784754 C15.5162519,19.8175043 15.6342105,20.1171887 15.6342105,20.4748338 C15.6342105,21.3729609 16.004257,22.1852092 16.6133703,22.7709918 C17.2115839,23.346292 18.0414033,23.7037037 18.9782895,23.7037037 C19.8934964,23.7037037 20.7422352,23.3320414 21.355714,22.7110091 C21.9481933,22.1112347 22.3223684,21.2787995 22.3223684,20.322887 C22.3223684,20.0469642 22.417366,19.7030312 22.6825031,19.502502 C22.9217127,19.2664009 23.2199653,19.1452991 23.5197368,19.1452991 L34.6656842,19.1452991 L29.2567226,10.02849 L8.77745649,10.02849 L3.2889579,19.2212726 Z" id="形状备份-7" fill="#334764"></path>
            <path d="M23.5197368,20.3988604 C23.5197368,20.3988604 23.5197368,20.4748338 23.5197368,20.4748338 C23.5197368,22.9059829 21.5184211,24.957265 18.9782895,24.957265 C16.5151316,24.957265 14.4368421,22.9819563 14.4368421,20.4748338 C14.4368421,20.4748338 14.4368421,20.3988604 14.4368421,20.3988604 L1.19736842,20.3988604 L1.19736842,38.6324786 L36.6822368,38.6324786 L36.6822368,20.3988604 L23.5197368,20.3988604 Z" id="路径备份-28" fill="#FFFFFF"></path>
            <path d="M1.27434211,19.2212726 L14.5138158,19.2212726 C14.7953739,19.2212726 15.1464559,19.3149294 15.3189941,19.5419909 C15.5885314,19.8128711 15.7111842,20.1048836 15.7111842,20.3988604 C15.7111842,21.3314977 16.0778634,22.1571929 16.6788456,22.7503653 C17.2783023,23.342032 18.1125733,23.7037037 19.0552632,23.7037037 C19.9652963,23.7037037 20.8096263,23.3360116 21.4218572,22.7317366 C22.0218143,22.139576 22.3993421,21.3209372 22.3993421,20.3988604 C22.3993421,20.0623769 22.489038,19.7069558 22.7227094,19.5339797 C22.9986864,19.2664009 23.296939,19.1452991 23.5967105,19.1452991 L36.8361842,19.1452991 C37.1659474,19.1452991 37.4657051,19.278495 37.6830397,19.4930053 C37.8988223,19.7059838 38.0335526,19.9995273 38.0335526,20.322887 L38.0335526,38.5414243 C37.9997769,38.905058 37.8470593,39.2244987 37.6156877,39.4528636 C37.390299,39.6753234 37.0901233,39.8100665 36.7592105,39.8100665 L1.27434211,39.8100665 C0.944578962,39.8100665 0.64482121,39.6768706 0.427486615,39.4623603 C0.211704035,39.2493818 0.0769736842,38.9558384 0.0769736842,38.6324786 L0.0769736842,20.3988604 C0.0769736842,20.0755007 0.211704035,19.7819572 0.427486615,19.5689787 C0.64482121,19.3544684 0.944578962,19.2212726 1.27434211,19.2212726 Z M2.47343805,37.4548908 L35.5618421,37.4548908 L35.5618421,21.5764482 L24.6278363,21.5764482 C24.3827335,22.9125894 23.6130931,24.0933298 22.5405505,24.9182167 C21.5542351,25.6767867 20.3109258,26.1348528 18.9782895,26.1348528 C17.656262,26.1348528 16.4397913,25.6836784 15.4669025,24.9354346 C14.392677,24.1092534 13.6147077,22.9210781 13.3200511,21.5764482 L2.39300055,21.5764482 L2.47343805,37.4548908 Z" id="形状备份-8" fill="#334764"></path>
            <ellipse id="椭圆形备份" fill="#A2D9FF" cx="31.2171053" cy="7.63532764" rx="6.54276316" ry="6.45773979"></ellipse>
            <path d="M23.4769737,7.63532764 C23.4769737,5.52700398 24.3427705,3.61879558 25.742207,2.23754474 C27.1431911,0.854766495 29.0788636,0 31.2171053,0 C33.3553469,0 35.2910195,0.854766495 36.6920035,2.23754474 C38.0914401,3.61879558 38.9572368,5.52700398 38.9572368,7.63532764 C38.9572368,9.74365129 38.0914401,11.6518597 36.6920035,13.0331105 C35.2910195,14.4158888 33.3553469,15.2706553 31.2171053,15.2706553 C29.0788636,15.2706553 27.1431911,14.4158888 25.742207,13.0331105 C24.3427705,11.6518597 23.4769737,9.74365129 23.4769737,7.63532764 Z M36.5625,7.63532764 C36.5625,6.17264801 35.965684,4.85212828 34.9982925,3.89730806 C34.0324458,2.94401252 32.6968748,2.35517569 31.2171053,2.35517569 C29.7373357,2.35517569 28.4017647,2.94401252 27.435918,3.89730806 C26.4685265,4.85212828 25.8717105,6.17264801 25.8717105,7.63532764 C25.8717105,9.09800726 26.4685265,10.418527 27.435918,11.3733472 C28.4017647,12.3266428 29.7373357,12.9154796 31.2171053,12.9154796 C32.6968748,12.9154796 34.0324458,12.3266428 34.9982925,11.3733472 C35.965684,10.418527 36.5625,9.09800726 36.5625,7.63532764 Z" id="形状备份-9" fill="#334764"></path>
        </g>
    </g>
</svg>