<svg id="图层_1" xmlns="http://www.w3.org/2000/svg" viewBox="0 0 65 65"><style>.st1{fill:#fff}</style><radialGradient id="Oval-6-Copy-6_1_" cx="-265.449" cy="448.469" r=".637" gradientTransform="matrix(0 101.8666 101.0097 0 -45283.746 27034.967)" gradientUnits="userSpaceOnUse"><stop offset="0" stop-color="#ff6907"/><stop offset=".763" stop-color="#fb9c00"/><stop offset="1" stop-color="#ffbd55"/></radialGradient><ellipse id="Oval-6-Copy-6_22_" cx="32.5" cy="32.5" rx="32.5" ry="32.5" fill="url(#Oval-6-Copy-6_1_)"/><g id="XMLID_224_"><path id="XMLID_197_" class="st1" d="M25.4 32.9v2.3c0 .6-.5 1.2-1.2 1.2s-1.2-.5-1.2-1.2v-2.3h-7v10.4c0 1.3 1.1 2.3 2.3 2.3h13.2c-3.2-3.5-3.6-8.7-.9-12.7h-5.2zm13.5-9.8H26.1v-3.3h12.8v3.3zm7.6 0h-4.7v-3.5c0-1.3-1.1-2.3-2.4-2.4h-14c-1.3 0-2.3 1.1-2.4 2.4v3.5h-4.7c-1.3 0-2.3 1.1-2.4 2.4v5.9H23c0-.6.5-1.2 1.2-1.2.6 0 1.2.5 1.2 1.2h6.2c2-2.2 4.9-3.5 7.9-3.5s5.9 1.3 7.9 3.5h1.5v-5.9c0-1.4-1.1-2.4-2.4-2.4z"/><path id="XMLID_192_" class="st1" d="M44.2 44.2h-2.4v-5.9h2.4v5.9zm-3.5 0h-2.4V32.5h2.4v11.7zm-3.6 0h-2.4V36h2.4v8.2zm2.4-15.3c-5.2 0-9.4 4.2-9.4 9.4s4.2 9.4 9.4 9.4 9.4-4.2 9.4-9.4-4.2-9.4-9.4-9.4z"/></g><radialGradient id="Oval-6-Copy-7_1_" cx="-267.817" cy="460.002" r=".834" gradientTransform="matrix(34.3643 -47.4967 -47.0972 -34.6558 30908.576 3274.248)" gradientUnits="userSpaceOnUse"><stop offset="0" stop-color="#ff9203" stop-opacity="0"/><stop offset="1" stop-color="#d48200" stop-opacity=".84"/></radialGradient><path id="Oval-6-Copy-7_22_" d="M32.5 64.8C50.4 64.8 65 50.3 65 32.4c0-1.3 0-1.9-.1-2.6-.1-.6-.1-1.3-.2-1.7-.9-2.2-3.4 1.1-14.5 4.3C34.3 37 34 47.3 29.2 50c-9.8 5.6-10.8 0-15.9-4.1-5.6-4.6-11.8-2-9.1 2.7 5.7 9.7 16.3 16.2 28.3 16.2z" fill="url(#Oval-6-Copy-7_1_)"/><radialGradient id="Oval-6-Copy-8_1_" cx="-267.977" cy="460.3" r=".649" gradientTransform="matrix(34.6002 -46.4016 -46.0113 -34.8937 30497.727 3671.257)" gradientUnits="userSpaceOnUse"><stop offset="0" stop-color="#ffb703" stop-opacity="0"/><stop offset="1" stop-color="#ffdd6a" stop-opacity=".84"/></radialGradient><path id="Oval-6-Copy-8_22_" d="M32.5 65C50.4 65 65 50.5 65 32.5c0-1.3 0-1.9-.1-2.6-.1-.6-.1-1.3-.2-1.7-.9-2.2-1.3 11-8.3 11-17.8 0-11.3 13.5-24.7 5-9.3-5.9-8.5 16.2-19.8 5.1S1.6 44 4.3 48.7C9.9 58.5 20.5 65 32.5 65z" fill="url(#Oval-6-Copy-8_1_)"/></svg>