<svg xmlns="http://www.w3.org/2000/svg" xmlns:xlink="http://www.w3.org/1999/xlink" viewBox="0 0 65 65"><radialGradient id="a" cx="-265.449" cy="450.132" r=".637" gradientTransform="matrix(0 101.8666 101.0097 0 -45451.746 27034.967)" gradientUnits="userSpaceOnUse"><stop offset="0" stop-color="#f95625"/><stop offset=".763" stop-color="#fb4a29"/><stop offset="1" stop-color="#e9005b"/></radialGradient><ellipse cx="32.5" cy="32.5" rx="32.5" ry="32.5" fill="url(#a)"/><defs><path id="b" d="M19.4 16.8h30.1V47H19.4z"/></defs><clipPath id="c"><use xlink:href="#b" overflow="visible"/></clipPath><path d="M42.4 31.2c.8 0 1.5.2 2.3.4v-6.4l-8.5-8.3H21.5c-1.2 0-2.1.9-2.1 2.1v24.4c0 1.2.9 2.1 2.1 2.1h14.1c-1.1-1.7-1.9-3.6-1.9-5.6 0-5 4-8.7 8.7-8.7zm-7.2-4.7v-6.4m-9.9 6.5h14c.5 0 .9.4.9.9s-.4.9-.9.9h-14c-.5 0-.9-.4-.9-.9-.1-.4.3-.9.9-.9zm4.4 10h-4.4c-.5 0-.9-.4-.9-.9s.4-.9.9-.9h4.4c.6 0 1 .5.9 1 0 .4-.4.8-.9.8zm4-4.1h-8.4c-.5 0-.9-.4-.9-.9s.4-.9.9-.9h8.4c.5 0 .9.4.9.9s-.4.9-.9.9zm-1.5 0" clip-path="url(#c)" fill="#fff"/><path d="M41.8 39.4l4-5.8c-1.1-.6-2.3-.9-3.4-.9-4 0-7.1 3.2-7.1 7.1 0 4 3 7.1 6.8 7.1h.4c4 0 7-3 7.1-7l-7.8-.5zm0 0" fill="#fff"/><radialGradient id="d" cx="-266.118" cy="457.675" r=".834" gradientTransform="matrix(34.3643 -47.4967 -47.0972 -34.6558 30740.576 3274.248)" gradientUnits="userSpaceOnUse"><stop offset="0" stop-color="#bf2a00" stop-opacity="0"/><stop offset="1" stop-color="#ff5a3f" stop-opacity=".84"/></radialGradient><path d="M32.5 64.8C50.4 64.8 65 50.3 65 32.4c0-1.3 0-1.9-.1-2.6-.1-.6-.1-1.3-.2-1.7-.9-2.2-3.4 1.1-14.5 4.3C34.3 37 34 47.3 29.2 50c-9.8 5.6-10.8 0-15.9-4.1-5.6-4.6-11.8-2-9.1 2.7 5.7 9.7 16.3 16.2 28.3 16.2z" fill="url(#d)"/><radialGradient id="e" cx="-270.027" cy="452.835" r=".913" gradientTransform="matrix(55.721 14.5928 14.4701 -56.1937 8540.337 29431.195)" gradientUnits="userSpaceOnUse"><stop offset="0" stop-color="#ff8415" stop-opacity="0"/><stop offset="1" stop-color="#ff94a0" stop-opacity=".84"/></radialGradient><path d="M32.5 65C50.4 65 65 50.5 65 32.5c0-1.3 0-1.9-.1-2.6-.1-.6-.1-1.3-.2-1.7-.9-2.2-1.3 11-8.3 11-17.8 0-11.3 13.5-24.7 5-9.3-5.9-8.5 16.2-19.8 5.1S1.6 44 4.3 48.7C9.9 58.5 20.5 65 32.5 65z" fill="url(#e)"/></svg>