<svg id="图层_1" xmlns="http://www.w3.org/2000/svg" viewBox="0 0 65 65"><style>.st2{fill:#fff}.st3{fill:#0089fb}</style><radialGradient id="Oval-6-Copy-6_1_" cx="-265.449" cy="451.796" r=".637" gradientTransform="matrix(0 101.8666 101.0097 0 -45619.746 27034.969)" gradientUnits="userSpaceOnUse"><stop offset="0" stop-color="#0776ff"/><stop offset=".763" stop-color="#0089fb"/><stop offset="1" stop-color="#3f81ff"/></radialGradient><ellipse id="Oval-6-Copy-6_23_" cx="32.5" cy="32.5" rx="32.5" ry="32.5" fill="url(#Oval-6-Copy-6_1_)"/><path id="XMLID_210_" fill="none" d="M18.5 14.5h31.4v35H18.5z"/><g id="XMLID_240_"><g id="XMLID_98_"><path id="XMLID_235_" class="st2" d="M44.7 20.3h-4.8v4.3H25.1v-4.3h-4.8c-1 0-1.8.8-1.8 1.8v23.4c0 1 .8 1.8 1.8 1.8h24.3c1 0 1.8-.8 1.8-1.8V22.1c0-1-.8-1.8-1.7-1.8z"/><path id="XMLID_229_" class="st2" d="M37.7 18.6h-2.2v-.3c0-.8-.7-1.5-1.5-1.5h-3.1c-.8 0-1.5.7-1.5 1.5v.3h-2.2v4.3h10.4v-4.3zm-5.2 2.6c-.7 0-1.3-.6-1.3-1.3 0-.7.6-1.3 1.3-1.3s1.3.6 1.3 1.3c0 .7-.6 1.3-1.3 1.3z"/></g><path id="XMLID_237_" class="st3" d="M24.7 35.2c0-.5.4-.9.9-.9h9.2c.5 0 .9.4.9.9s-.4.9-.9.9h-9.2c-.5 0-.9-.4-.9-.9z"/><path id="XMLID_236_" class="st3" d="M24.7 30.3v-.2c0-.5.4-.8.8-.8h15.2c.5 0 .8.4.8.8v.2c0 .5-.4.8-.8.8H25.5c-.4 0-.8-.4-.8-.8z"/><path id="XMLID_238_" class="st3" d="M24.7 40.2c0-.5.4-.9.9-.9h14.5c.5 0 .9.4.9.9s-.4.9-.9.9H25.6c-.5 0-.9-.4-.9-.9z"/></g><radialGradient id="Oval-6-Copy-7_1_" cx="-264.42" cy="455.347" r=".834" gradientTransform="matrix(34.3643 -47.4967 -47.0972 -34.6558 30572.576 3274.25)" gradientUnits="userSpaceOnUse"><stop offset="0" stop-color="#94adff" stop-opacity="0"/><stop offset="1" stop-color="#002dff" stop-opacity=".84"/></radialGradient><path id="Oval-6-Copy-7_23_" d="M32.5 64.8C50.4 64.8 65 50.3 65 32.4c0-1.3 0-1.9-.1-2.6-.1-.6-.1-1.3-.2-1.7-.9-2.2-3.4 1.1-14.5 4.3C34.3 37 34 47.3 29.2 50c-9.8 5.6-10.8 0-15.9-4.1-5.6-4.6-11.8-2-9.1 2.7 5.7 9.7 16.3 16.2 28.3 16.2z" fill="url(#Oval-6-Copy-7_1_)"/><radialGradient id="Oval-6-Copy-8_1_" cx="-264.469" cy="455.635" r=".649" gradientTransform="matrix(34.6002 -46.4016 -46.0113 -34.8937 30161.727 3671.258)" gradientUnits="userSpaceOnUse"><stop offset="0" stop-color="#032aff" stop-opacity="0"/><stop offset="1" stop-color="#00bbfb" stop-opacity=".84"/></radialGradient><path id="Oval-6-Copy-8_23_" d="M32.5 65C50.4 65 65 50.5 65 32.5c0-1.3 0-1.9-.1-2.6-.1-.6-.1-1.3-.2-1.7-.9-2.2-1.3 11-8.3 11-17.8 0-11.3 13.5-24.7 5-9.3-5.9-8.5 16.2-19.8 5.1S1.6 44 4.3 48.7C9.9 58.5 20.5 65 32.5 65z" fill="url(#Oval-6-Copy-8_1_)"/></svg>