<svg id="图层_1" xmlns="http://www.w3.org/2000/svg" viewBox="0 0 65 65"><style>.st1{fill:#fff}</style><g id="XMLID_218_"><radialGradient id="Oval-6-Copy-6_1_" cx="-267.44" cy="454.579" r="1" gradientTransform="matrix(0 64.915 64.3689 0 -29244.793 17355.447)" gradientUnits="userSpaceOnUse"><stop offset="0" stop-color="#823fff"/><stop offset=".763" stop-color="#586be6"/><stop offset="1" stop-color="#3f71ff"/></radialGradient><ellipse id="Oval-6-Copy-6_20_" cx="32.5" cy="32.5" rx="32.5" ry="32.5" fill="url(#Oval-6-Copy-6_1_)"/></g><g id="XMLID_178_"><path id="XMLID_182_" class="st1" d="M46.8 23.3h-5.5v-3.6c0-.9-.8-1.7-1.7-1.7H25.3c-.9 0-1.7.8-1.7 1.7v3.6h-5.5c-.9 0-1.7.8-1.7 1.7v6.7h32V25c.1-.9-.6-1.7-1.6-1.7zm-20.2 0v-2.5h11.8v2.5H26.6z"/><path id="XMLID_179_" class="st1" d="M16.5 44.4c0 .9.8 1.7 1.7 1.7h28.7c.9 0 1.7-.8 1.7-1.7v-11h-32v11zm13.7-9h4.6c.3 0 .6.3.6.6s-.3.6-.6.6h-4.6c-.3 0-.6-.3-.6-.6 0-.4.2-.6.6-.6z"/></g><radialGradient id="Oval-6-Copy-7_1_" cx="-263.088" cy="457.488" r="1.806" gradientTransform="matrix(35.8896 9.687 9.6055 -36.1941 5088.155 19159.805)" gradientUnits="userSpaceOnUse"><stop offset="0" stop-color="#2d00ba" stop-opacity="0"/><stop offset="1" stop-color="#9f94ff" stop-opacity=".84"/></radialGradient><path id="Oval-6-Copy-7_20_" d="M32.5 64.8C50.4 64.8 65 50.3 65 32.4c0-1.3 0-1.9-.1-2.6-.1-.6-.1-1.3-.2-1.7-.9-2.2-3.4 1.1-14.5 4.3C34.3 37 34 47.3 29.2 50c-9.8 5.6-10.8 0-15.9-4.1-5.6-4.6-11.8-2-9.1 2.7 5.7 9.7 16.3 16.2 28.3 16.2z" fill="url(#Oval-6-Copy-7_1_)"/><radialGradient id="Oval-6-Copy-8_1_" cx="-258.948" cy="453.296" r="1.019" gradientTransform="matrix(22.0491 -29.5696 -29.3209 -22.2362 19047.322 2466.808)" gradientUnits="userSpaceOnUse"><stop offset="0" stop-color="#b794ff" stop-opacity="0"/><stop offset="1" stop-color="#9e6aff" stop-opacity=".84"/></radialGradient><path id="Oval-6-Copy-8_20_" d="M32.5 65C50.4 65 65 50.5 65 32.5c0-1.3 0-1.9-.1-2.6-.1-.6-.1-1.3-.2-1.7-.9-2.2-1.3 11-8.3 11-17.8 0-11.3 13.5-24.7 5-9.3-5.9-8.5 16.2-19.8 5.1S1.6 44 4.3 48.7C9.9 58.5 20.5 65 32.5 65z" fill="url(#Oval-6-Copy-8_1_)"/></svg>