<svg id="图层_1" xmlns="http://www.w3.org/2000/svg" viewBox="0 0 65 65"><style>.st1{fill:#fff}</style><radialGradient id="Oval-6-Copy-3_1_" cx="-271.102" cy="455.122" r=".637" gradientTransform="matrix(0 101.8666 101.0097 0 -45955.746 27610.836)" gradientUnits="userSpaceOnUse"><stop offset="0" stop-color="#00dd8e"/><stop offset=".763" stop-color="#00b46b"/><stop offset="1" stop-color="#00bf47"/></radialGradient><ellipse id="Oval-6-Copy-3_4_" cx="32.5" cy="32.5" rx="32.5" ry="32.5" fill="url(#Oval-6-Copy-3_1_)"/><g id="XMLID_211_"><path id="XMLID_217_" class="st1" d="M38.6 22.6h-6.4c-.4 0-.8.2-.8.5v.7c0 .3.3.5.8.5h6.4c.4 0 .8-.2.8-.5V23c0-.2-.4-.4-.8-.4z"/><path id="XMLID_216_" class="st1" d="M38.6 27h-6.4c-.4 0-.8.2-.8.4v.6c0 .2.3.4.8.4h6.4c.4 0 .8-.2.8-.4v-.6c0-.3-.4-.4-.8-.4z"/><path id="XMLID_212_" class="st1" d="M45.1 33.9V18.2c0-.9-.8-1.7-1.8-1.7H27.5c-1 0-1.8.7-1.8 1.7v.8h-5c-.7 0-1.2.5-1.2 1.1v13.8h-2.6v9.9c0 .9.8 1.7 1.8 1.7H46c1 0 1.8-.7 1.8-1.7v-9.9h-2.7zM22.2 22.1c0-.3.3-.6.6-.6H25c.4 0 .6.3.6.6v11.8h-3.5V22.1zm13.2 14.4c0 .4-.3.7-.8.7H30c-.4 0-.8-.3-.8-.7v-2.6h-.9V20.5c0-.7.6-1.3 1.4-1.3H41c.8 0 1.4.6 1.4 1.3V34h-7.1v2.5z"/></g><radialGradient id="Oval-6-Copy-4_1_" cx="-264.197" cy="464.344" r="1.151" gradientTransform="matrix(56.3191 15.2012 15.0733 -56.7969 7920.573 30442.287)" gradientUnits="userSpaceOnUse"><stop offset="0" stop-color="#00941a" stop-opacity="0"/><stop offset="1" stop-color="#00bf61" stop-opacity=".84"/></radialGradient><path id="Oval-6-Copy-4_4_" d="M32.5 64.8C50.4 64.8 65 50.3 65 32.4c0-1.3 0-1.9-.1-2.6-.1-.6-.1-1.3-.2-1.7-.9-2.2-3.4 1.1-14.5 4.3C34.3 37 34 47.3 29.2 50c-9.8 5.6-10.8 0-15.9-4.1-5.6-4.6-11.8-2-9.1 2.7 5.7 9.7 16.3 16.2 28.3 16.2z" fill="url(#Oval-6-Copy-4_1_)"/><radialGradient id="Oval-6-Copy-5_1_" cx="-253.034" cy="456.932" r=".649" gradientTransform="matrix(34.6002 -46.4016 -46.0113 -34.8937 29825.727 4247.124)" gradientUnits="userSpaceOnUse"><stop offset="0" stop-color="#00f142" stop-opacity="0"/><stop offset=".986" stop-color="#00e9b5" stop-opacity=".84"/></radialGradient><path id="Oval-6-Copy-5_4_" d="M32.5 65C50.4 65 65 50.5 65 32.5c0-1.3 0-1.9-.1-2.6-.1-.6-.1-1.3-.2-1.7-.9-2.2-1.3 11-8.3 11-17.8 0-11.3 13.5-24.7 5-9.3-5.9-8.5 16.2-19.8 5.1S1.6 44 4.3 48.7C9.9 58.5 20.5 65 32.5 65z" fill="url(#Oval-6-Copy-5_1_)"/></svg>