<svg id="图层_1" xmlns="http://www.w3.org/2000/svg" viewBox="0 0 65 65"><style>.st1{fill:#fff}</style><radialGradient id="Oval-6-Copy-6_1_" cx="-267.44" cy="454.579" r="1" gradientTransform="matrix(0 64.915 64.3689 0 -29244.793 17355.447)" gradientUnits="userSpaceOnUse"><stop offset="0" stop-color="#823fff"/><stop offset=".763" stop-color="#586be6"/><stop offset="1" stop-color="#3f71ff"/></radialGradient><ellipse id="Oval-6-Copy-6_24_" cx="32.5" cy="32.5" rx="32.5" ry="32.5" fill="url(#Oval-6-Copy-6_1_)"/><path class="st1" d="M46.1 36.6h-5.6l-4.2 3.1c-.3.3-.8.4-1.2.4h-5c-.5 0-.9-.1-1.3-.4L25.6 37c-.4-.3-.8-.4-1.3-.4h-5.5c-1.1 0-2 .9-2 2v6.5c0 1.1.9 2 2 2h27.3c1.1 0 2-.9 2-2v-6.5c0-.5-.2-1-.6-1.4-.3-.4-.8-.6-1.4-.6zm0 0"/><path class="st1" d="M20.9 33.8h3.5c.3 0 .6.1.9.3l3.7 3c.2.2.5.3.9.3h5.4c.3 0 .6-.1.8-.3l3.9-3c.2-.2.5-.3.8-.3h2.9c.4 0 .7-.1 1-.4.3-.3.4-.6.4-1V18.6c0-.4-.1-.7-.4-1-.3-.3-.6-.4-1-.4H20.9c-.8 0-1.4.6-1.4 1.4v13.8c0 .4.1.7.4 1 .3.3.7.4 1 .4zm3.5-13.1h16.8c.6 0 1.1.5 1.1 1.1 0 .6-.5 1.1-1.1 1.1H24.4c-.6 0-1.1-.5-1.1-1.1 0-.6.5-1.1 1.1-1.1zm0 5.6h8.9c.6 0 1.1.5 1.1 1.1 0 .6-.5 1.1-1.1 1.1h-8.9c-.6 0-1.1-.5-1.1-1.1 0-.6.5-1.1 1.1-1.1zm0 0"/><radialGradient id="Oval-6-Copy-7_1_" cx="-263.088" cy="457.488" r="1.806" gradientTransform="matrix(35.8896 9.687 9.6055 -36.1941 5088.155 19159.805)" gradientUnits="userSpaceOnUse"><stop offset="0" stop-color="#2d00ba" stop-opacity="0"/><stop offset="1" stop-color="#9f94ff" stop-opacity=".84"/></radialGradient><path id="Oval-6-Copy-7_24_" d="M32.5 64.8C50.4 64.8 65 50.3 65 32.4c0-1.3 0-1.9-.1-2.6-.1-.6-.1-1.3-.2-1.7-.9-2.2-3.4 1.1-14.5 4.3C34.3 37 34 47.3 29.2 50c-9.8 5.6-10.8 0-15.9-4.1-5.6-4.6-11.8-2-9.1 2.7 5.7 9.7 16.3 16.2 28.3 16.2z" fill="url(#Oval-6-Copy-7_1_)"/><radialGradient id="Oval-6-Copy-8_1_" cx="-258.948" cy="453.296" r="1.019" gradientTransform="matrix(22.0491 -29.5696 -29.3209 -22.2362 19047.322 2466.808)" gradientUnits="userSpaceOnUse"><stop offset="0" stop-color="#b794ff" stop-opacity="0"/><stop offset="1" stop-color="#9e6aff" stop-opacity=".84"/></radialGradient><path id="Oval-6-Copy-8_24_" d="M32.5 65C50.4 65 65 50.5 65 32.5c0-1.3 0-1.9-.1-2.6-.1-.6-.1-1.3-.2-1.7-.9-2.2-1.3 11-8.3 11-17.8 0-11.3 13.5-24.7 5-9.3-5.9-8.5 16.2-19.8 5.1S1.6 44 4.3 48.7C9.9 58.5 20.5 65 32.5 65z" fill="url(#Oval-6-Copy-8_1_)"/></svg>