<?xml version="1.0" encoding="UTF-8"?>
<svg width="56px" height="56px" viewBox="0 0 56 56" version="1.1" xmlns="http://www.w3.org/2000/svg" xmlns:xlink="http://www.w3.org/1999/xlink">
    <!-- Generator: Sketch 52.2 (67145) - http://www.bohemiancoding.com/sketch -->
    <title>单据维护02</title>
    <desc>Created with Sketch.</desc>
    <g id="单据维护02" stroke="none" stroke-width="1" fill="none" fill-rule="evenodd">
        <g id="发票管理系统-(1)" transform="translate(7.000000, 7.000000)">
            <path d="M39.2,12.5155556 L2.8,12.5155556 C1.26,12.5155556 0,11.264 0,9.73432099 L0,2.78123457 C0,1.25155556 1.26,0 2.8,0 L39.2,0 C40.74,0 42,1.25155556 42,2.78123457 L42,9.73432099 C42,11.264 40.74,12.5155556 39.2,12.5155556" id="Path" fill="#F4A096"></path>
            <path d="M36.4,9.73432099 L5.6,9.73432099 C4.83,9.73432099 4.2,9.10854321 4.2,8.3437037 L4.2,5.56246914 C4.2,4.79762963 4.83,4.17185185 5.6,4.17185185 L36.4,4.17185185 C37.17,4.17185185 37.8,4.79762963 37.8,5.56246914 L37.8,8.3437037 C37.8,9.10854321 37.17,9.73432099 36.4,9.73432099" id="Path" fill="#FFFFFF"></path>
            <path d="M34.574,41.1937422 L29.394,37.3361699 C28.793271,36.8879693 27.9791559,36.8456398 27.3346,37.2290923 L22.2988,40.9267437 C21.7456473,41.254927 21.0557527,41.254927 20.5026,40.9267437 L15.4668,37.2277017 C14.8210973,36.8441672 14.0059132,36.8870444 13.4046,37.3361699 L8.2638,41.1645393 C7.84071044,41.4817192 7.27366241,41.5346434 6.79849525,41.3013004 C6.32332809,41.0679574 6.0213671,40.5882839 6.0182,40.0617798 L6,37.9841975 L6,7.06660346 C6,6.47976296 6.483,6 7.0724,6 L35.7276,6 C36.3184,6 36.8,6.47976296 36.8,7.06660346 L36.8,37.9841975 L36.7832,40.1076701 C36.7776865,40.6245444 36.4802901,41.0945094 36.0137788,41.3235589 C35.5472676,41.5526084 34.9907647,41.5018942 34.574,41.1923516" id="Path" fill="#EA5241"></path>
            <rect id="Rectangle" fill="#FFFFFF" x="13" y="14" width="16" height="4" rx="2"></rect>
            <rect id="Rectangle-Copy" fill="#FFFFFF" x="13" y="24" width="16" height="4" rx="2"></rect>
        </g>
    </g>
</svg>