<?xml version="1.0" encoding="UTF-8"?>
<svg width="56px" height="56px" viewBox="0 0 56 56" version="1.1" xmlns="http://www.w3.org/2000/svg" xmlns:xlink="http://www.w3.org/1999/xlink">
    <!-- Generator: Sketch 52.2 (67145) - http://www.bohemiancoding.com/sketch -->
    <title>报表查询08</title>
    <desc>Created with Sketch.</desc>
    <g id="报表查询08" stroke="none" stroke-width="1" fill="none" fill-rule="evenodd">
        <g id="bookopen" transform="translate(7.000000, 11.000000)">
            <path d="M3.36,2.92155243 C1.50432324,2.92155243 2.2725486e-16,4.40814082 0,6.24194053 L0,29.0696088 C2.2725486e-16,30.9034085 1.50432324,32.3899969 3.36,32.3899969 L14.63406,32.3899969 C16.6630745,32.3900008 18.6356769,33.0499929 20.24736,34.2680914 C20.4645,34.4320356 20.727,34.529572 21,34.529572 C21.273,34.529572 21.5355,34.4320356 21.75264,34.2680914 C23.3643231,33.0499929 25.3369255,32.3900008 27.36594,32.3899969 L38.64,32.3899969 C40.4956768,32.3899969 42,30.9034085 42,29.0696088 L42,6.24194053 C42,4.40814082 40.4956768,2.92155243 38.64,2.92155243 L27.36594,2.92155243 C25.1919729,2.92151717 23.0876059,3.678976 21.42294,5.06071246 L21,5.41184351 L20.57706,5.06071246 C18.9123941,3.678976 16.8080271,2.92151717 14.63406,2.92155243 L3.36,2.92155243 Z" id="Path" fill="#FFCA72"></path>
            <path d="M3.36,0.0162128326 C1.50432324,0.0162128326 2.2725486e-16,1.50280122 0,3.33660094 L0,26.1642692 C2.2725486e-16,27.9980689 1.50432324,29.4846573 3.36,29.4846573 L14.63406,29.4846573 C16.6630745,29.4846612 18.6356769,30.1446533 20.24736,31.3627518 C20.4645,31.526696 20.727,31.6242324 21,31.6242324 C21.273,31.6242324 21.5355,31.526696 21.75264,31.3627518 C23.3643231,30.1446533 25.3369255,29.4846612 27.36594,29.4846573 L38.64,29.4846573 C40.4956768,29.4846573 42,27.9980689 42,26.1642692 L42,3.33660094 C42,1.50280122 40.4956768,0.0162128326 38.64,0.0162128326 L27.36594,0.0162128326 C25.1919203,0.0162938366 23.0875473,0.773901773 21.42294,2.15578792 L21,2.50650391 L20.57706,2.15578792 C18.9124527,0.773901773 16.8080797,0.0162938366 14.63406,0.0162128326 L3.36,0.0162128326 Z" id="Path" fill="#F9A315"></path>
            <path d="M27.3,7.48708607 C27.3,6.79941118 27.8641212,6.24194053 28.56,6.24194053 L36.96,6.24194053 C37.6558788,6.24194053 38.22,6.79941118 38.22,7.48708607 C38.22,8.17476096 37.6558788,8.73223161 36.96,8.73223161 L28.56,8.73223161 C27.8641212,8.73223161 27.3,8.17476096 27.3,7.48708607 Z M27.3,14.9579593 C27.3,14.2702844 27.8641212,13.7128138 28.56,13.7128138 L36.96,13.7128138 C37.6558788,13.7128138 38.22,14.2702844 38.22,14.9579593 C38.22,15.6456342 37.6558788,16.2031049 36.96,16.2031049 L28.56,16.2031049 C27.8641212,16.2031049 27.3,15.6456342 27.3,14.9579593 Z M27.3,22.4288326 C27.3,21.7411577 27.8641212,21.183687 28.56,21.183687 L36.96,21.183687 C37.6558788,21.183687 38.22,21.7411577 38.22,22.4288326 C38.22,23.1165074 37.6558788,23.6739781 36.96,23.6739781 L28.56,23.6739781 C27.8641212,23.6739781 27.3,23.1165074 27.3,22.4288326 Z M3.78,6.24194053 C3.78,5.55426564 4.34412122,4.99679499 5.04,4.99679499 L13.44,4.99679499 C14.1358788,4.99679499 14.7,5.55426564 14.7,6.24194053 C14.7,6.92961543 14.1358788,7.48708607 13.44,7.48708607 L5.04,7.48708607 C4.70582722,7.48708607 4.38534129,7.35590147 4.14904546,7.12239139 C3.91274962,6.8888813 3.78,6.57217366 3.78,6.24194053 Z M3.78,13.7128138 C3.78,13.0251389 4.34412122,12.4676682 5.04,12.4676682 L13.44,12.4676682 C14.1358788,12.4676682 14.7,13.0251389 14.7,13.7128138 C14.7,14.4004887 14.1358788,14.9579593 13.44,14.9579593 L5.04,14.9579593 C4.34412122,14.9579593 3.78,14.4004887 3.78,13.7128138 Z M3.78,21.183687 C3.78,20.4960121 4.34412122,19.9385415 5.04,19.9385415 L13.44,19.9385415 C14.1358788,19.9385415 14.7,20.4960121 14.7,21.183687 C14.7,21.8713619 14.1358788,22.4288326 13.44,22.4288326 L5.04,22.4288326 C4.34412122,22.4288326 3.78,21.8713619 3.78,21.183687 Z" id="Shape" fill="#FFFFFF" fill-rule="nonzero"></path>
        </g>
    </g>
</svg>