<?xml version="1.0" encoding="UTF-8"?>
<svg width="56px" height="56px" viewBox="0 0 56 56" version="1.1" xmlns="http://www.w3.org/2000/svg" xmlns:xlink="http://www.w3.org/1999/xlink">
    <!-- Generator: Sketch 52.2 (67145) - http://www.bohemiancoding.com/sketch -->
    <title>报表查询03</title>
    <desc>Created with Sketch.</desc>
    <g id="报表查询03" stroke="none" stroke-width="1" fill="none" fill-rule="evenodd">
        <g id="Group-2" transform="translate(8.000000, 10.000000)">
            <g id="Group">
                <path d="M38.8974359,23.3632265 C37.3474642,20.6495826 34.4257947,18.8205128 31.0769231,18.8205128 C26.1063603,18.8205128 22.0769231,22.8499501 22.0769231,27.8205128 C22.0769231,30.0399754 22.8803177,32.0717951 24.2121607,33.6410256 L15.7692308,33.6410256 C15.7692308,31.8992045 14.3572057,30.4871795 12.6153846,30.4871795 C10.8735635,30.4871795 9.46153846,31.8992045 9.46153846,33.6410256 L3,33.6410256 C1.34314575,33.6410256 1.61770449e-14,32.2978799 1.37667655e-14,30.6410256 L1.33226763e-14,3 C1.31197702e-14,1.34314575 1.34314575,7.48448398e-16 3,4.4408921e-16 L9.46153846,8.72256281e-17 C9.46153846,1.74182113 10.8735635,3.15384615 12.6153846,3.15384615 C14.3572057,3.15384615 15.7692308,1.74182113 15.7692308,4.4408921e-16 L35.8974359,4.4408921e-16 C37.5542901,1.39730022e-16 38.8974359,1.34314575 38.8974359,3 L38.8974359,23.3632265 Z" id="Combined-Shape" fill="#418BF8"></path>
                <path d="M38.3686302,34.1017085 L36.5606233,32.1198549 C38.2243793,29.8785776 38.4096436,26.8669076 37.033139,24.4386072 C36.1386564,22.8331687 34.6368848,21.6542254 32.8649877,21.1664625 C32.2794228,21.005083 31.6748074,20.9232202 31.0674117,20.9230769 C27.9382958,20.9436252 25.2128304,23.0626553 24.4215956,26.0901519 C23.9399684,27.8799387 24.1828058,29.7874119 25.0975121,31.3994336 C25.9915502,33.00511 27.4933325,34.18416 29.2653156,34.6715784 C31.1989759,35.2064849 33.2703962,34.8528589 34.9170755,33.7067286 L36.7375994,35.7000562 C36.9440663,35.9202543 37.2308542,36.0475292 37.5326603,36.0528998 C37.8344664,36.0582705 38.125601,35.9412798 38.3397716,35.728567 C38.7900493,35.2836414 38.8025563,34.5605492 38.3679348,34.1003178 L38.3686302,34.1017085 Z M29.8581332,32.4508592 C28.6696997,32.1234059 27.6625288,31.3324511 27.0626764,30.2555216 C26.4488831,29.1742871 26.2856234,27.8948157 26.6082409,26.6940958 C27.1387078,24.663284 28.9664261,23.2414877 31.0653255,23.2268949 C32.728116,23.2294385 34.2592103,24.1320231 35.0665838,25.5856485 C35.6803771,26.666883 35.8436368,27.9463544 35.5210193,29.1470743 C34.9905916,31.1782044 33.1624398,32.6001161 31.0632393,32.6142752 C30.6560385,32.6139167 30.2507246,32.5589549 29.8581332,32.4508592 Z" id="Shape" fill="#88B8FA"></path>
            </g>
            <path d="M13.7065613,15.4100854 L13.7065613,17.2258229 L16.9063737,17.2258229 C17.4956979,17.2258229 17.9700675,17.7022724 17.9700675,18.2963817 C17.9716882,18.8853803 17.4963815,19.3650528 16.9063737,19.3698457 L13.7065613,19.3698457 L13.7065613,21.1245743 C13.6768899,21.691814 13.2075044,22.1365538 12.638502,22.1365538 C12.0694996,22.1365538 11.6001141,21.691814 11.5704427,21.1245743 L11.5704427,19.3698457 L8.6310971,19.3698457 C8.03800972,19.3698456 7.55721742,18.8898898 7.55721742,18.2978343 C7.55721742,17.7057788 8.03800972,17.2258229 8.6310971,17.2258229 L11.5704427,17.2258229 L11.5704427,15.4100854 L7.30111595,15.4100854 C6.72380007,15.3888603 6.26675957,14.9155025 6.26675957,14.3388004 C6.26675957,13.7620982 6.72380007,13.2887404 7.30111595,13.2675153 L9.88104656,13.2675153 L7.12359112,10.4930684 C6.70647982,10.0738786 6.70647982,9.39720695 7.12359112,8.97801712 C7.32364072,8.77816851 7.59505463,8.66588237 7.87807167,8.66588237 C8.16108871,8.66588237 8.43250262,8.77816851 8.63255222,8.97801712 L12.5468293,12.9130833 L16.4654718,8.97656453 C16.6651399,8.77600023 16.9366968,8.66321925 17.2199524,8.66321925 C17.503208,8.66321925 17.7747648,8.77600023 17.9744329,8.97656453 C18.3934751,9.39609209 18.3934751,10.0749935 17.9744329,10.494521 L15.2155224,13.2675153 L17.9802534,13.2675153 C18.5681225,13.2675153 19.0424922,13.7468699 19.0424922,14.3380741 C19.0449121,14.9265968 18.5697932,15.4060868 17.9802534,15.4100854 L13.7065613,15.4100854 Z" id="Path" fill="#FFFFFF"></path>
        </g>
    </g>
</svg>