<?xml version="1.0" encoding="UTF-8"?>
<svg width="56px" height="56px" viewBox="0 0 56 56" version="1.1" xmlns="http://www.w3.org/2000/svg" xmlns:xlink="http://www.w3.org/1999/xlink">
    <!-- Generator: Sketch 52.2 (67145) - http://www.bohemiancoding.com/sketch -->
    <title>基础档案03</title>
    <desc>Created with Sketch.</desc>
    <g id="基础档案03" stroke="none" stroke-width="1" fill="none" fill-rule="evenodd">
        <g id="项目信息" transform="translate(11.000000, 7.000000)">
            <path d="M6.02,0 L30.77,0 C32.87,0 34.52,1.64999998 34.52,3.74999998 L34.52,18 L0.0200000117,18 L0.0200000117,5.99999999 C0.0200000117,2.69999998 2.71999999,0 6.02,0 Z" id="Path" fill="#88B8FA"></path>
            <path d="M22.82,0 L3.76999999,0 C1.66999999,0 0.0200000117,1.64999998 0.0200000117,3.74999998 L0.0200000117,38.25 C0.0200000117,40.35 1.66999999,42 3.76999999,42 L30.62,42 C32.72,42 34.37,40.35 34.37,38.25 L34.37,11.55 L22.82,0 Z" id="Path" fill="#418BF8"></path>
            <path d="M22.97,0 L22.97,8.70000001 C22.97,10.2 24.17,11.55 25.82,11.55 L34.52,11.55 L22.97,0 Z" id="Path" fill="#1890FF"></path>
            <path d="M6.02,16.5 C6.02,17.7426407 7.02735932,18.75 8.27000001,18.75 C9.5126407,18.75 10.52,17.7426407 10.52,16.5 C10.52,15.2573593 9.5126407,14.25 8.27000001,14.25 C7.02735932,14.25 6.02,15.2573593 6.02,16.5 Z" id="Path" fill="#FFFFFF"></path>
            <path d="M16.52,15 L25.52,15 C26.42,15 27.02,15.6 27.02,16.5 C27.02,17.4 26.42,18 25.52,18 L16.52,18 C15.62,18 15.02,17.4 15.02,16.5 C15.02,15.6 15.62,15 16.52,15 Z M16.52,22.5 L25.52,22.5 C26.42,22.5 27.02,23.1 27.02,24 C27.02,24.9 26.42,25.5 25.52,25.5 L16.52,25.5 C15.62,25.5 15.02,24.9 15.02,24 C15.02,23.1 15.62,22.5 16.52,22.5 Z M16.52,30 L25.52,30 C26.42,30 27.02,30.6 27.02,31.5 C27.02,32.4 26.42,33 25.52,33 L16.52,33 C15.62,33 15.02,32.4 15.02,31.5 C15.02,30.6 15.62,30 16.52,30 Z" id="Shape" fill="#FFFFFF" fill-rule="nonzero"></path>
            <path d="M6.02,24 C6.02,25.2426407 7.02735932,26.25 8.27000001,26.25 C9.5126407,26.25 10.52,25.2426407 10.52,24 C10.52,22.7573593 9.5126407,21.75 8.27000001,21.75 C7.02735932,21.75 6.02,22.7573593 6.02,24 Z" id="Path" fill="#FFFFFF"></path>
            <path d="M6.02,31.5 C6.02,32.7426407 7.02735932,33.75 8.27000001,33.75 C9.5126407,33.75 10.52,32.7426407 10.52,31.5 C10.52,30.2573593 9.5126407,29.25 8.27000001,29.25 C7.02735932,29.25 6.02,30.2573593 6.02,31.5 Z" id="Path" fill="#FFFFFF"></path>
        </g>
    </g>
</svg>