<?xml version="1.0" encoding="UTF-8"?>
<svg width="56px" height="56px" viewBox="0 0 56 56" version="1.1" xmlns="http://www.w3.org/2000/svg" xmlns:xlink="http://www.w3.org/1999/xlink">
    <!-- Generator: Sketch 52.2 (67145) - http://www.bohemiancoding.com/sketch -->
    <title>基础档案02</title>
    <desc>Created with Sketch.</desc>
    <g id="基础档案02" stroke="none" stroke-width="1" fill="none" fill-rule="evenodd">
        <g id="项目云盘" transform="translate(7.000000, 8.000000)">
            <path d="M5.99999999,6.04210525 L36,6.04210525 C36.9,6.04210525 37.5,6.64497604 37.5,7.5492823 L37.5,30.1569378 L4.50000001,30.1569378 L4.50000001,7.5492823 C4.50000001,6.64497608 5.09999999,6.04210525 5.99999999,6.04210525 Z" id="Path" fill="#F08275"></path>
            <path d="M7.65000001,0.0133971233 L32.85,0.0133971233 C33.75,0.0133971233 34.5,0.766985628 34.5,1.52057417 C34.5,2.27416272 33.75,3.02775123 32.85,3.02775118 L7.65000001,3.02775118 C6.75000002,3.02775118 5.99999999,2.27416268 5.99999999,1.52057417 C5.99999999,0.76698567 6.74999998,0.0133971233 7.65000001,0.0133971233 Z" id="Path" fill="#F08275"></path>
            <path d="M2.25000001,16.5923445 L11.7,16.5923445 L14.55,23.2239234 L27.3,23.2239234 L30.75,16.5923445 L39.75,16.5923445 C40.95,16.5923445 42,17.6473684 42,18.85311 L42,36.9392344 C42,38.1449761 40.95,39.2 39.75,39.2 L2.25000001,39.2 C1.05,39.2 0,38.1449761 0,36.9392344 L0,18.85311 C0.150000006,17.6473684 1.05,16.5923445 2.25000001,16.5923445 Z" id="Path" fill="#EA5241"></path>
            <path d="M10.5,30.1569378 L31.5,30.1569378 C32.4,30.1569378 33,30.7598086 33,31.6641148 C33,32.568421 32.4,33.1712919 31.5,33.1712919 L10.5,33.1712919 C9.60000001,33.1712919 8.99999998,32.5684211 8.99999998,31.6641148 C8.99999998,30.7598086 9.59999996,30.1569378 10.5,30.1569378 Z" id="Path" fill="#FFFFFF"></path>
        </g>
    </g>
</svg>