<?xml version="1.0" encoding="UTF-8"?>
<svg width="56px" height="56px" viewBox="0 0 56 56" version="1.1" xmlns="http://www.w3.org/2000/svg" xmlns:xlink="http://www.w3.org/1999/xlink">
    <!-- Generator: Sketch 52.2 (67145) - http://www.bohemiancoding.com/sketch -->
    <title>报表查询05</title>
    <desc>Created with Sketch.</desc>
    <g id="报表查询05" stroke="none" stroke-width="1" fill="none" fill-rule="evenodd">
        <g id="Group" transform="translate(10.000000, 7.000000)">
            <path d="M33.6,27.3864879 C32.0600415,25.4834225 29.7054484,24.2666667 27.0666667,24.2666667 C22.4274748,24.2666667 18.6666667,28.0274748 18.6666667,32.6666667 C18.6666667,35.3054484 19.8834225,37.6600415 21.7864879,39.2 L3,39.2 C1.34314575,39.2 -1.44520378e-14,37.8568542 -1.46549439e-14,36.2 L-1.46549439e-14,3 C-1.48578501e-14,1.34314575 1.34314575,3.04359188e-16 3,0 L30.6,-4.4408921e-16 C32.2568542,-7.48448398e-16 33.6,1.34314575 33.6,3 L33.6,27.3864879 Z" id="Combined-Shape" fill="#44B27D"></path>
            <path d="M34.8193489,39.1745527 L33.0203443,37.2025668 C34.6758163,34.972449 34.8601582,31.9757744 33.4905072,29.5595647 C32.6004784,27.9621198 31.1061842,26.7890465 29.3431095,26.3037122 C28.7604602,26.1431362 28.1588552,26.061681 27.5544837,26.0615385 C24.440948,26.0819844 21.7290528,28.1904637 20.9417577,31.2028862 C20.4625285,32.9837615 20.7041568,34.8817373 21.6143087,36.4857327 C22.5038954,38.0834142 23.9982001,39.2565937 25.7613604,39.7415852 C27.6853929,40.2738283 29.7464995,39.921963 31.3849798,38.7815394 L33.1964392,40.7649421 C33.4018781,40.9840438 33.687238,41.110685 33.9875414,41.1160289 C34.2878448,41.1213729 34.5775299,41.0049647 34.7906341,40.793311 C35.2386698,40.3506006 35.2511145,39.6311088 34.818657,39.1731689 L34.8193489,39.1745527 Z M26.3512264,37.5319231 C25.1687101,37.2061002 24.166554,36.4190837 23.5696884,35.3475163 C22.9589512,34.2716653 22.7965044,32.9985645 23.1175154,31.803823 C23.6453412,29.7831228 25.4639591,28.3684057 27.552408,28.3538855 C29.2069193,28.3564165 30.7303902,29.2545071 31.5337437,30.7008948 C32.1444809,31.7767458 32.3069277,33.0498466 31.9859166,34.244588 C31.4581299,36.2656049 29.6390805,37.6804368 27.5503322,37.6945254 C27.1451588,37.6941688 26.741863,37.6394806 26.3512264,37.5319231 Z" id="Shape" fill="#AFE0C9"></path>
            <path d="M24.2666667,5.6 L24.2666667,5.6 C25.2975982,5.6 26.1333333,6.43573513 26.1333333,7.46666667 L26.1333333,24.2666667 C26.1333333,25.2975982 25.2975982,26.1333333 24.2666667,26.1333333 L24.2666667,26.1333333 C23.2357351,26.1333333 22.4,25.2975982 22.4,24.2666667 L22.4,7.46666667 C22.4,6.43573513 23.2357351,5.6 24.2666667,5.6 Z M9.33333333,16.8 L9.33333333,16.8 C10.3642649,16.8 11.2,17.6357351 11.2,18.6666667 L11.2,24.2666667 C11.2,25.2975982 10.3642649,26.1333333 9.33333333,26.1333333 L9.33333333,26.1333333 C8.3024018,26.1333333 7.46666667,25.2975982 7.46666667,24.2666667 L7.46666667,18.6666667 C7.46666667,17.6357351 8.3024018,16.8 9.33333333,16.8 Z M16.8,9.33333333 L16.8,9.33333333 C17.8309315,9.33333333 18.6666667,10.1690685 18.6666667,11.2 L18.6666667,24.2666667 C18.6666667,25.2975982 17.8309315,26.1333333 16.8,26.1333333 L16.8,26.1333333 C15.7690685,26.1333333 14.9333333,25.2975982 14.9333333,24.2666667 L14.9333333,11.2 C14.9333333,10.1690685 15.7690685,9.33333333 16.8,9.33333333 Z" id="Shape" fill="#FFFFFF" transform="translate(16.800000, 15.866667) scale(-1, 1) rotate(270.000000) translate(-16.800000, -15.866667) "></path>
        </g>
    </g>
</svg>