<?xml version="1.0" encoding="UTF-8"?>
<svg width="56px" height="56px" viewBox="0 0 56 56" version="1.1" xmlns="http://www.w3.org/2000/svg" xmlns:xlink="http://www.w3.org/1999/xlink">
    <!-- Generator: Sketch 52.2 (67145) - http://www.bohemiancoding.com/sketch -->
    <title>单据维护03</title>
    <desc>Created with Sketch.</desc>
    <g id="单据维护03" stroke="none" stroke-width="1" fill="none" fill-rule="evenodd">
        <g id="报销申请" transform="translate(7.000000, 7.000000)">
            <path d="M34.3446809,21.1582298 C33.7251064,21.0533787 33.0874213,21 32.4382979,21 C26.1214979,21 21,26.1214979 21,32.4382979 C21,35.450383 22.1638468,38.1908085 24.0673702,40.2334979 L22.6928681,41.4421447 C22.3454252,41.7480834 21.8283949,41.7601448 21.4670638,41.4707404 L17.973617,38.671217 C17.604713,38.3757044 17.0749648,38.3951745 16.7287489,38.7169702 L13.8291404,41.4106894 C13.4829246,41.7324851 12.9531764,41.7519552 12.5842723,41.4564426 L9.07557447,38.6454809 C8.72078967,38.3615354 8.21489614,38.36752 7.86692764,38.6597787 L3.92262128,41.9702128 L3.84255319,41.9702128 C1.73682071,41.9702128 0.0297872489,40.2631793 0.0297872489,38.1574468 L0.0297872489,3.84255319 C0.0297872489,1.73682071 1.73682071,0.0297872489 3.84255319,0.0297872489 L30.5319149,0.0297872489 C31.5431233,0.0297872371 32.5129152,0.431488205 33.2279476,1.14652052 C33.9429799,1.86155284 34.3446809,2.83134478 34.3446809,3.84255319 L34.3446809,21.1582298 Z M27.6297872,8.76312058 L27.6297872,8.76312058 C27.6297872,7.73218905 26.7940521,6.89645392 25.7631206,6.89645392 L8.96312058,6.89645392 C7.93218905,6.89645392 7.09645392,7.73218905 7.09645392,8.76312058 L7.09645392,8.76312058 C7.09645392,9.79405212 7.93218905,10.6297872 8.96312058,10.6297872 L25.7631206,10.6297872 C26.7940521,10.6297872 27.6297872,9.79405212 27.6297872,8.76312058 Z M19.6297872,23.7631207 L19.6297872,23.7631207 C19.6297872,22.7321893 18.7940522,21.8964542 17.7631207,21.8964542 L9.16312075,21.8964542 C8.13218931,21.8964542 7.29645425,22.7321893 7.29645425,23.7631207 L7.29645425,23.7631207 C7.29645425,24.7940522 8.13218931,25.6297872 9.16312075,25.6297872 L17.7631207,25.6297872 C18.7940522,25.6297872 19.6297872,24.7940522 19.6297872,23.7631207 Z M23.8964539,16.2964539 L23.8964539,16.2964539 C23.8964539,15.2655224 23.0607188,14.4297872 22.0297872,14.4297872 L8.96312058,14.4297872 C7.93218905,14.4297872 7.09645392,15.2655224 7.09645392,16.2964539 L7.09645392,16.2964539 C7.09645392,17.3273854 7.93218905,18.1631206 8.96312058,18.1631206 L22.0297872,18.1631206 C23.0607188,18.1631206 23.8964539,17.3273854 23.8964539,16.2964539 Z" id="Shape" fill="#418BF8"></path>
            <path d="M32.4382979,41.9702128 C27.1738213,41.9702128 22.906383,37.7027745 22.906383,32.4382979 C22.906383,27.1738213 27.1738213,22.906383 32.4382979,22.906383 C37.7027745,22.906383 41.9702128,27.1738213 41.9702128,32.4382979 C41.9702128,37.7027745 37.7027745,41.9702128 32.4382979,41.9702128 Z M37.1403915,33.6803064 L33.3524085,33.6803064 L33.3524085,31.9979234 L37.1403915,31.9979234 C37.4930723,32.0236596 37.8295489,31.871149 38.0173277,31.6013957 C38.2045455,31.3383602 38.2045455,30.9855887 38.0173277,30.7225532 C37.8352681,30.4528 37.4930724,30.3002893 37.1403915,30.3260255 L34.6916426,30.3260255 L37.1346723,28.1556085 C37.3107771,28.0083409 37.4135376,27.7913246 37.4158638,27.5617702 C37.4114356,27.3324335 37.309092,27.1159509 37.1346723,26.9669787 C36.7493478,26.6416105 36.1855288,26.6416105 35.8002043,26.9669787 L32.3210553,30.0457872 L28.8476255,26.9669787 C28.4620619,26.6363771 27.893002,26.6363771 27.5074383,26.9669787 C27.3310814,27.1144617 27.2282948,27.3318816 27.2262468,27.5617702 C27.2262468,27.784817 27.3310979,27.9983319 27.5074383,28.1556085 L29.9609532,30.3260255 L27.6675745,30.3260255 C27.1661958,30.3517617 26.7744341,30.716834 26.774434,31.1648341 C26.774434,31.6118809 27.1652426,31.9779064 27.6675745,32.0036426 L31.4555574,32.0036426 L31.4555574,33.6803064 L27.6618553,33.6803064 C27.1433192,33.6803064 26.7191489,34.0558638 26.7191489,34.5191149 C26.7191489,34.9814128 27.1385532,35.3579234 27.6628085,35.3579234 L31.4555574,35.3579234 L31.4555574,37.3138723 C31.4555574,37.7809362 31.8797276,38.1574468 32.403983,38.1574468 C32.9282383,38.1574468 33.3524085,37.7809362 33.3524085,37.3138723 L33.3524085,35.3569702 L37.1403915,35.3569702 C37.6589276,35.3569702 38.0830979,34.9814128 38.0830979,34.5181617 C38.0830979,34.0558638 37.6636936,33.6793532 37.1394383,33.6793532 L37.1403915,33.6803064 Z" id="Combined-Shape" fill="#88B8FA"></path>
        </g>
    </g>
</svg>