<?xml version="1.0" encoding="UTF-8"?>
<svg width="56px" height="56px" viewBox="0 0 56 56" version="1.1" xmlns="http://www.w3.org/2000/svg" xmlns:xlink="http://www.w3.org/1999/xlink">
    <!-- Generator: Sketch 52.2 (67145) - http://www.bohemiancoding.com/sketch -->
    <title>单据维护04</title>
    <desc>Created with Sketch.</desc>
    <g id="单据维护04" stroke="none" stroke-width="1" fill="none" fill-rule="evenodd">
        <g id="处罚单" transform="translate(11.000000, 7.000000)">
            <path d="M23.9814815,0.0297872489 L23.9814815,6.70212766 C23.9814815,7.71333607 24.3857396,8.68312801 25.1053236,9.39816033 C25.8249076,10.1131926 26.800873,10.5148936 27.8185185,10.5148936 L34.5333333,10.5148936 L34.5333333,38.1574468 C34.5333333,40.2631793 32.8154333,41.9702128 30.6962963,41.9702128 L3.83703702,41.9702128 C2.81939153,41.9702128 1.84342615,41.5685118 1.12384212,40.8534795 C0.404258097,40.1384471 -1.27799006e-15,39.1686552 0,38.1574468 L0,3.84255319 C-6.3899503e-16,1.73682071 1.71789999,0.0297872489 3.83703702,0.0297872489 L23.9814815,0.0297872489 Z M18.9152245,29.0650853 L20.219698,23.649131 C20.2717087,23.4297277 20.1702582,23.2027639 19.9715645,23.0940097 C19.7725066,22.9842784 19.5245509,23.017512 19.3618649,23.1757281 L12.1518126,30.2204137 C12.0044754,30.3632911 11.959549,30.5809218 12.0383801,30.7698992 C12.1180441,30.9593298 12.3046402,31.082477 12.5112518,31.0819788 L15.7221,31.0819788 L14.4318055,36.499342 C14.3790919,36.719197 14.4806423,36.9469611 14.6799391,37.0558722 C14.879452,37.1650584 15.12746,37.1309581 15.2896387,36.9720404 L22.4833851,29.9273548 C22.6307787,29.7841885 22.675441,29.5661972 22.5961086,29.3771648 C22.5163458,29.1874968 22.3293973,29.0643017 22.1225279,29.0650853 L18.9152245,29.0650853 Z" id="Shape" fill="#FF8226"></path>
            <path d="M21.2297872,8.89645392 L21.2297872,8.89645392 C22.2607188,8.89645392 23.0964539,9.73218905 23.0964539,10.7631206 L23.0964539,22.5631202 C23.0964539,23.5940518 22.2607188,24.4297869 21.2297872,24.4297869 L21.2297872,24.4297869 C20.1988557,24.4297869 19.3631206,23.5940518 19.3631206,22.5631202 L19.3631206,10.7631206 C19.3631206,9.73218905 20.1988557,8.89645392 21.2297872,8.89645392 Z M13.2297872,-0.103546084 L13.2297872,-0.103546084 C14.2607188,-0.103546084 15.0964539,0.732189049 15.0964539,1.76312058 L15.0964539,22.8297872 C15.0964539,23.8607188 14.2607188,24.6964539 13.2297872,24.6964539 L13.2297872,24.6964539 C12.1988557,24.6964539 11.3631206,23.8607188 11.3631206,22.8297872 L11.3631206,1.76312058 C11.3631206,0.732189049 12.1988557,-0.103546084 13.2297872,-0.103546084 Z" id="Shape" fill="#FFFFFF" transform="translate(17.229787, 12.296454) scale(-1, 1) rotate(270.000000) translate(-17.229787, -12.296454) "></path>
            <path d="M23.9814815,0.0297872489 L34.5333333,10.5148936 L27.8185185,10.5148936 C26.800873,10.5148936 25.8249076,10.1131926 25.1053236,9.39816033 C24.3857396,8.68312801 23.9814815,7.71333607 23.9814815,6.70212766 L23.9814815,0.0297872489 Z" id="Path" fill="#FFBE8A"></path>
        </g>
    </g>
</svg>