<?xml version="1.0" encoding="UTF-8"?>
<svg width="56px" height="56px" viewBox="0 0 56 56" version="1.1" xmlns="http://www.w3.org/2000/svg" xmlns:xlink="http://www.w3.org/1999/xlink">
    <!-- Generator: Sketch 52.2 (67145) - http://www.bohemiancoding.com/sketch -->
    <title>基础档案08</title>
    <desc>Created with Sketch.</desc>
    <g id="基础档案08" stroke="none" stroke-width="1" fill="none" fill-rule="evenodd">
        <g id="任务-蓝" transform="translate(7.000000, 8.000000)">
            <path d="M5.99571736,4.45925927 L35.9743041,4.45925927 C39.2856473,4.45925927 41.9700214,7.12123042 41.9700214,10.4049383 L41.9700214,36.4172839 C41.9700214,37.4028415 41.5752153,38.3480332 40.8724558,39.0449277 C40.1696964,39.7418221 39.21655,40.1333333 38.2226981,40.1333333 L5.99571736,40.1333333 C2.6843741,40.1333333 3.19516005e-16,37.4713622 0,34.1876543 L0,10.4049383 C2.1854866e-08,7.12123042 2.68437411,4.45925927 5.99571736,4.45925927 Z" id="Path" fill="#FFCA72"></path>
            <path d="M5.99571736,4.45925927 L35.9743041,4.45925927 C39.2856473,4.45925927 41.9700214,7.12123042 41.9700214,10.4049383 L41.9700214,28.9851852 L35.9743041,34.3511605 L35.8843683,34.4403457 L29.9785867,40.1333333 L5.99571736,40.1333333 C2.6843741,40.1333333 3.19516005e-16,37.4713622 0,34.1876543 L0,10.4049383 C2.1854866e-08,7.12123042 2.68437411,4.45925927 5.99571736,4.45925927 Z" id="Path" fill="#EE9707"></path>
            <path d="M5.99571736,4.45925927 L35.9743041,4.45925927 C39.2856473,4.45925927 41.9700214,7.12123042 41.9700214,10.4049383 L41.9700214,28.9851852 L33.7708779,28.9851852 C31.7012884,28.9851852 30.0235546,30.6489172 30.0235546,32.7012346 L30.0235546,40.1333333 L5.99571736,40.1333333 C2.6843741,40.1333333 3.19516005e-16,37.4713622 0,34.1876543 L0,10.4049383 C2.1854866e-08,7.12123042 2.68437411,4.45925927 5.99571736,4.45925927 Z" id="Path" fill="#F9A315"></path>
            <path d="M13.490364,-6.78857793e-15 C13.8879048,-7.10542736e-15 14.2691633,0.156604489 14.5502671,0.435362267 C14.8313709,0.714120045 14.9892934,1.09219673 14.9892934,1.48641976 L14.9892934,8.27935801 C14.9892934,8.67358104 14.8313709,9.05165772 14.5502671,9.3304155 C14.2691633,9.60917328 13.8879048,9.76577776 13.490364,9.76577776 C13.0928232,9.76577776 12.7115647,9.60917328 12.4304609,9.3304155 C12.1493571,9.05165772 11.9914347,8.67358104 11.9914347,8.27935801 L11.9914347,1.48641976 C11.9914347,1.09219673 12.1493571,0.714120045 12.4304609,0.435362267 C12.7115647,0.156604489 13.0928232,-1.1827464e-10 13.490364,-6.78857793e-15 Z M28.4796574,-6.78857793e-15 C28.8771982,-1.18273372e-10 29.2584567,0.156604489 29.5395605,0.435362267 C29.8206643,0.714120044 29.9785867,1.09219673 29.9785867,1.48641976 L29.9785867,8.27935801 C29.9785867,8.67358104 29.8206643,9.05165772 29.5395605,9.3304155 C29.2584567,9.60917328 28.8771982,9.76577776 28.4796574,9.76577776 C28.0821166,9.76577776 27.7008581,9.60917328 27.4197543,9.3304155 C27.1386505,9.05165772 26.9807281,8.67358104 26.9807281,8.27935801 L26.9807281,1.48641976 C26.9807281,1.09219673 27.1386505,0.714120045 27.4197543,0.435362267 C27.7008581,0.156604489 28.0821166,-1.1827464e-10 28.4796574,-7.10542736e-15 Z" id="Shape" fill="#FFCA72" fill-rule="nonzero"></path>
            <path d="M10.4925053,19.3234568 C10.492494,20.1200342 10.921033,20.856107 11.6166932,21.254399 C12.3123534,21.6526909 13.1694453,21.6526909 13.8651055,21.254399 C14.5607657,20.856107 14.9893047,20.1200342 14.9892934,19.3234568 C14.9893047,18.5268793 14.5607657,17.7908066 13.8651055,17.3925146 C13.1694453,16.9942226 12.3123534,16.9942226 11.6166932,17.3925146 C10.921033,17.7908066 10.492494,18.5268793 10.4925053,19.3234568 Z" id="Path" fill="#FFFFFF"></path>
            <path d="M20.9850107,17.837037 L29.9785867,17.837037 C30.8064225,17.8370371 31.477516,18.5025298 31.477516,19.3234568 C31.477516,20.1443837 30.8064225,20.8098765 29.9785867,20.8098765 L20.9850107,20.8098765 C20.5874699,20.8098765 20.2062114,20.6532721 19.9251076,20.3745143 C19.6440038,20.0957565 19.4860814,19.7176798 19.4860814,19.3234568 C19.4860814,18.9292338 19.6440038,18.5511571 19.9251076,18.2723993 C20.2062114,17.9936415 20.5874699,17.837037 20.9850107,17.837037 Z M20.9850107,25.2691358 L29.9785867,25.2691358 C30.8064225,25.2691358 31.477516,25.9346286 31.477516,26.7555556 C31.477516,27.5764825 30.8064225,28.2419753 29.9785867,28.2419753 L20.9850107,28.2419753 C20.5874699,28.2419753 20.2062114,28.0853708 19.9251076,27.8066131 C19.6440038,27.5278553 19.4860814,27.1497786 19.4860814,26.7555556 C19.4860814,26.3613325 19.6440038,25.9832559 19.9251076,25.7044981 C20.2062114,25.4257403 20.5874699,25.2691358 20.9850107,25.2691358 Z" id="Shape" fill="#FFFFFF" fill-rule="nonzero"></path>
            <path d="M10.4925053,26.7555556 C10.492494,27.552133 10.921033,28.2882058 11.6166932,28.6864977 C12.3123534,29.0847897 13.1694453,29.0847897 13.8651055,28.6864977 C14.5607657,28.2882058 14.9893047,27.552133 14.9892934,26.7555556 C14.9893047,25.9589781 14.5607657,25.2229054 13.8651055,24.8246134 C13.1694453,24.4263214 12.3123534,24.4263214 11.6166932,24.8246134 C10.921033,25.2229054 10.492494,25.9589781 10.4925053,26.7555556 Z" id="Path" fill="#FFFFFF"></path>
        </g>
    </g>
</svg>