<?xml version="1.0" encoding="UTF-8"?>
<svg width="56px" height="56px" viewBox="0 0 56 56" version="1.1" xmlns="http://www.w3.org/2000/svg" xmlns:xlink="http://www.w3.org/1999/xlink">
    <!-- Generator: Sketch 52.2 (67145) - http://www.bohemiancoding.com/sketch -->
    <title>基础档案01</title>
    <desc>Created with Sketch.</desc>
    <g id="基础档案01" stroke="none" stroke-width="1" fill="none" fill-rule="evenodd">
        <g id="课程" transform="translate(9.000000, 8.000000)">
            <path d="M5.7188125,0.09375 L26.9688438,0.09375 C32.8368125,0.09375 37.59375,4.8506875 37.59375,10.7186563 L37.59375,29.2813438 C37.59375,35.1493125 32.8368125,39.90625 26.9688438,39.90625 L5.7188125,39.90625 C2.78471875,39.90625 0.40625,37.5277813 0.40625,34.5936875 L0.40625,5.4063125 C0.40625,2.47221875 2.78471875,0.09375 5.7188125,0.09375 Z" id="Path" fill="#44B27D"></path>
            <path d="M8.37509375,5.40215625 L19,5.40215625 C20.4669375,5.40215625 21.6562813,6.59128125 21.6562813,8.0584375 L21.6562813,24.1096562 C21.6564464,24.6030373 21.3830787,25.0558432 20.9464041,25.2854955 C20.5097295,25.5151479 19.9817337,25.4837887 19.5753125,25.2040625 L14.6691875,21.82875 C14.2274501,21.5248481 13.6462988,21.5163919 13.1959063,21.8073125 L7.76740625,25.3125625 C7.3588851,25.5764363 6.83880418,25.5959047 6.4116986,25.3633112 C5.98459303,25.1307176 5.71878584,24.6832696 5.7188125,24.1969375 L5.7188125,8.0584375 C5.7188125,6.59128125 6.9079375,5.40215625 8.37509375,5.40215625 Z" id="Path" fill="#AFE0C9"></path>
        </g>
    </g>
</svg>