<?xml version="1.0" encoding="UTF-8"?>
<svg width="56px" height="56px" viewBox="0 0 56 56" version="1.1" xmlns="http://www.w3.org/2000/svg" xmlns:xlink="http://www.w3.org/1999/xlink">
    <!-- Generator: Sketch 52.2 (67145) - http://www.bohemiancoding.com/sketch -->
    <title>报表查询07</title>
    <desc>Created with Sketch.</desc>
    <g id="报表查询07" stroke="none" stroke-width="1" fill="none" fill-rule="evenodd">
        <g id="Put-in-query" transform="translate(7.000000, 7.000000)">
            <path d="M14.6448116,8.09879708 L14.646942,8.10092753 C14.8000479,8.25554322 14.9864764,8.37310853 15.1919783,8.44463769 C15.3670695,8.50525636 15.5524325,8.53059895 15.7373696,8.51920292 C15.8821545,8.51132158 16.0247724,8.48052089 16.1599058,8.42794927 L16.2412174,8.42794927 L16.3069058,8.36155073 C16.3285652,8.35018842 16.3530652,8.33598551 16.3839565,8.31823191 L16.4627826,8.26745652 L16.2497392,7.9571232 L16.5671739,8.18721017 C16.6001957,8.15915944 16.6321522,8.13004348 16.685058,8.07607247 L19.1531667,5.58452899 L19.1531667,18.4360217 C19.1491307,18.818917 19.2995264,19.1872915 19.5703895,19.4579541 C19.8412526,19.7286167 20.2097383,19.8787397 20.5926304,19.8744203 L20.5958261,19.8744203 C20.9580212,19.8697596 21.3046137,19.7262675 21.5641087,19.4735435 C21.8432489,19.2010936 22.000597,18.8275038 22.0004928,18.437442 L22.0004928,5.54689129 L24.5950072,8.11371017 C24.8189184,8.33410277 25.1094074,8.47429148 25.4212608,8.51245652 C25.4776643,8.51971846 25.5344716,8.52339492 25.5913406,8.52346376 L25.701413,8.51849275 C25.7832434,8.51202504 25.8643745,8.49860217 25.9439275,8.47836955 C26.115605,8.43495727 26.2773628,8.35902033 26.4204348,8.25467393 C26.7629137,8.00519229 26.9787572,7.61806951 27.010941,7.1955803 C27.0431248,6.77309108 26.8884111,6.35774052 26.5876739,6.05926085 L21.5687247,1.09215219 C21.3553051,0.883872844 21.0822404,0.747340486 20.7875652,0.701572471 C20.7430081,0.69425974 20.6980829,0.689399762 20.6529928,0.687014494 C20.5209749,0.67808231 20.3883638,0.68897365 20.2595725,0.71932607 C20.0868104,0.758525011 19.9229065,0.829698576 19.7763188,0.92917393 C19.7006684,0.981550404 19.6301656,1.04099628 19.5657608,1.10671017 L14.6480072,6.07133332 C14.4642368,6.25670627 14.3345864,6.48875107 14.2730507,6.74242028 C14.2466671,6.85103231 14.2327296,6.96229407 14.2315072,7.07405798 C14.2281556,7.41612691 14.3460201,7.74833618 14.5642102,8.01180433 C14.5904855,8.04021012 14.617116,8.07039129 14.6448116,8.09879708 Z M40.1194855,15.1160942 L26.5503913,10.1866232 C25.6591594,9.86279713 24.7427174,10.6002826 24.7427174,11.6424203 L24.7427174,11.8281232 C24.7247902,12.4678105 25.1086874,13.0504661 25.7035435,13.2864058 L36.7249928,17.1797753 L20.7978623,22.8058985 C20.4434074,22.9316869 20.055982,22.9286699 19.703529,22.7973768 L4.52311595,17.1797753 L15.5623188,13.0946667 C16.1471876,12.8527709 16.5221754,12.2751061 16.5050362,11.6424203 C16.5050362,10.6013478 15.5889493,9.86386231 14.6977174,10.1866232 L1.12720292,15.1171594 C0.446698799,15.3936581 0.00926265329,16.063469 0.0296739297,16.7977174 L0.0296739297,32.2149638 C-0.00872823581,33.6026989 0.817952613,34.8686159 2.10400725,35.391442 L19.2859638,41.6343261 C20.1499755,41.9499981 21.0977781,41.9499981 21.9617898,41.6343261 L29.6487536,38.8413261 C26.2781427,37.0348273 24.5679582,33.1674679 25.4995684,29.4584844 C26.4311786,25.749501 29.7658646,23.1492955 33.590058,23.1499638 C34.3260422,23.1507025 35.0587163,23.2484799 35.7691377,23.4407681 C38.1967938,24.1060265 40.1971357,25.8267508 41.2177247,28.1277247 L41.2177247,16.7980725 C41.2382968,16.0639011 40.8011866,15.3940146 40.1209058,15.1171594 L40.1194855,15.1160942 Z" id="Shape" fill="#2FC8C2"></path>
            <path d="M40.6978985,37.5399855 L38.9370942,35.6030652 C40.5575032,33.408457 40.7382386,30.4669175 39.3986884,28.090442 C38.5308722,26.5221609 37.0688336,25.368755 35.3416304,24.8898188 C34.7718854,24.7318817 34.1834189,24.65162 33.5921884,24.6512102 C30.5408575,24.6771577 27.8879165,26.7506237 27.1256087,29.7053116 C26.6569617,31.4556972 26.8931769,33.3200508 27.783558,34.8982464 C28.6512922,36.466453 30.11319,37.6198488 31.8402608,38.0988696 C33.722658,38.6218619 35.7403013,38.2756676 37.3406884,37.155087 L39.1125,39.1047898 C39.3130427,39.3198717 39.5923387,39.4442833 39.8863631,39.4495051 C40.1803874,39.4547268 40.4639249,39.3403109 40.6719783,39.1324855 C41.1101446,38.6963477 41.1222559,37.990907 40.6993188,37.5399855 L40.6978985,37.5399855 Z M32.4147681,35.925471 C31.2564472,35.6037937 30.2760828,34.829943 29.6942029,33.7779928 C29.0967053,32.7194998 28.9378734,31.4689856 29.2517826,30.2947319 C29.7628301,28.3123196 31.5425535,26.9209683 33.5897029,26.9034348 C33.9863883,26.9038031 34.3812205,26.9575462 34.7635725,27.0632174 C35.9219488,27.3847855 36.9023512,28.1586661 37.4841377,29.2106957 C38.0816353,30.2691886 38.2404672,31.5197028 37.926558,32.6939565 C37.4151898,34.6766058 35.6350334,36.0679539 33.5875725,36.0852536 C33.1916155,36.0844765 32.7975415,36.0307391 32.4158333,35.925471 L32.4147681,35.925471 Z" id="Shape" fill="#ACF3E9"></path>
        </g>
    </g>
</svg>