<?xml version="1.0" encoding="UTF-8"?>
<svg width="56px" height="56px" viewBox="0 0 56 56" version="1.1" xmlns="http://www.w3.org/2000/svg" xmlns:xlink="http://www.w3.org/1999/xlink">
    <!-- Generator: Sketch 52.2 (67145) - http://www.bohemiancoding.com/sketch -->
    <title>业务设置08</title>
    <desc>Created with Sketch.</desc>
    <g id="业务设置08" stroke="none" stroke-width="1" fill="none" fill-rule="evenodd">
        <g id="系统设置" transform="translate(7.000000, 7.000000)">
            <g id="Group">
                <path d="M36.138803,30.6962079 L37.3457609,32.7076712 C37.6994006,33.2970866 37.6065136,34.0515459 37.1204674,34.5375815 L34.5375815,37.1204674 C34.0515459,37.6065136 33.2970866,37.6994006 32.7076712,37.3457609 L30.6962079,36.138803 C28.9066257,37.2883233 26.926217,38.1091648 24.8481644,38.5627052 L24.279538,40.8368111 C24.1128298,41.5036508 23.5136774,41.9714607 22.8263152,41.9714674 L19.1736848,41.9714674 C18.4863226,41.9714607 17.8871702,41.5036508 17.720462,40.8368111 L17.1518356,38.5627052 C15.073783,38.1091648 13.0933743,37.2883233 11.3037921,36.138803 L9.2923288,37.3457609 C8.70291337,37.6994006 7.94845412,37.6065136 7.46241848,37.1204674 L4.87953261,34.5375815 C4.39348637,34.0515459 4.30059944,33.2970866 4.65423913,32.7076712 L5.86119701,30.6962079 C4.7116767,28.9066257 3.89083516,26.926217 3.43729484,24.8481644 L1.16318886,24.279538 C0.49634923,24.1128298 0.0285393034,23.5136774 0.0285326087,22.8263152 L0.0285326087,19.1736848 C0.0285393034,18.4863226 0.49634923,17.8871702 1.16318886,17.720462 L3.43729484,17.1518356 C3.89083516,15.073783 4.7116767,13.0933743 5.86119701,11.3037921 L4.65423913,9.2923288 C4.30059944,8.70291337 4.39348637,7.94845412 4.87953261,7.46241848 L7.46241848,4.87953261 C7.94845412,4.39348637 8.70291337,4.30059944 9.2923288,4.65423913 L11.3037921,5.86119701 C13.0933743,4.7116767 15.073783,3.89083516 17.1518356,3.43729484 L17.720462,1.16318886 C17.8871702,0.49634923 18.4863226,0.0285393034 19.1736848,0.0285326087 L22.8263152,0.0285326087 C23.5136774,0.0285393034 24.1128298,0.49634923 24.279538,1.16318886 L24.8481644,3.43729484 C26.926217,3.89083516 28.9066257,4.7116767 30.6962079,5.86119701 L32.7076712,4.65423913 C33.2970866,4.30059944 34.0515459,4.39348637 34.5375815,4.87953261 L37.1204674,7.46241848 C37.6065136,7.94845412 37.6994006,8.70291337 37.3457609,9.2923288 L36.138803,11.3037921 C37.2883233,13.0933743 38.1091648,15.073783 38.5627052,17.1518356 L40.8368111,17.720462 C41.5036508,17.8871702 41.9714607,18.4863226 41.9714674,19.1736848 L41.9714674,22.8263152 C41.9714607,23.5136774 41.5036508,24.1128298 40.8368111,24.279538 L38.5627052,24.8481644 C38.1091648,26.926217 37.2883233,28.9066257 36.138803,30.6962079 Z M21,32.9836957 C27.6183954,32.9836957 32.9836957,27.6183954 32.9836957,21 C32.9836957,14.3816046 27.6183954,9.01630435 21,9.01630435 C14.3816046,9.01630435 9.01630435,14.3816046 9.01630435,21 C9.01630435,27.6183954 14.3816046,32.9836957 21,32.9836957 Z" id="Shape" fill="#F9A315"></path>
                <path d="M15.0081522,21 C15.0081522,24.3092062 17.6907938,26.9918478 21,26.9918478 C24.3092062,26.9918478 26.9918478,24.3092062 26.9918478,21 C26.9918478,17.6907938 24.3092062,15.0081522 21,15.0081522 C17.6907938,15.0081522 15.0081522,17.6907938 15.0081522,21 Z" id="Path" fill="#FFCA72"></path>
            </g>
        </g>
    </g>
</svg>