<?xml version="1.0" encoding="UTF-8"?>
<svg width="56px" height="56px" viewBox="0 0 56 56" version="1.1" xmlns="http://www.w3.org/2000/svg" xmlns:xlink="http://www.w3.org/1999/xlink">
    <!-- Generator: Sketch 52.2 (67145) - http://www.bohemiancoding.com/sketch -->
    <title>业务处理08</title>
    <desc>Created with Sketch.</desc>
    <g id="业务处理08" stroke="none" stroke-width="1" fill="none" fill-rule="evenodd">
        <g id="figerprint" transform="translate(7.000000, 10.000000)">
            <path d="M0,11.4315006 L42,11.4315006 L42,33.8548922 C42,34.5281435 41.7345008,35.1738202 41.2619091,35.6498807 C40.7893174,36.1259413 40.1483456,36.3933893 39.48,36.3933893 L2.52,36.3933893 C1.12824243,36.3933893 1.70441145e-16,35.2568654 0,33.8548922 L0,11.4315006 Z" id="Path" fill="#FFCA72"></path>
            <path d="M16.8,0.00826333712 C14.01666,0.00826333712 11.76,2.28148755 11.76,5.08525766 L11.76,6.7775891 L2.52,6.7775891 C1.85165445,6.7775891 1.21068259,7.04503714 0.738090911,7.52109771 C0.265499238,7.99715827 -5.11761374e-16,8.64283496 0,9.31608627 L0,15.4474031 C0.000118451668,16.6657476 0.859483511,17.7121908 2.0475,17.9406304 L21,21.5854892 L39.9525,17.9406304 C41.1405165,17.7121908 41.9998815,16.6657476 42,15.4474031 L42,9.31608627 C42,8.64283496 41.7345008,7.99715827 41.2619091,7.52109771 C40.7893174,7.04503714 40.1483456,6.7775891 39.48,6.7775891 L30.24,6.7775891 L30.24,5.08525766 C30.24,2.28148755 27.98334,0.00826333712 25.2,0.00826333712 L16.8,0.00826333712 Z M26.88,6.7775891 L26.88,5.08525766 C26.88,4.15060881 26.1278384,3.39292622 25.2,3.39292622 L16.8,3.39292622 C15.8721616,3.39292622 15.12,4.15060881 15.12,5.08525766 L15.12,6.7775891 L26.88,6.7775891 Z" id="Shape" fill="#F9A315"></path>
            <path d="M19.32,18.2008263 L22.68,18.2008263 C23.52,18.2008263 23.94,18.6239092 23.94,19.4700749 L23.94,24.5470692 C23.94,25.393235 23.52,25.8163178 22.68,25.8163178 L19.32,25.8163178 C18.48,25.8163178 18.06,25.393235 18.06,24.5470692 L18.06,19.4700749 C18.06,18.6239092 18.48,18.2008263 19.32,18.2008263 Z" id="Path" fill="#F9A315"></path>
        </g>
    </g>
</svg>