<?xml version="1.0" encoding="UTF-8"?>
<svg width="56px" height="56px" viewBox="0 0 56 56" version="1.1" xmlns="http://www.w3.org/2000/svg" xmlns:xlink="http://www.w3.org/1999/xlink">
    <!-- Generator: Sketch 52.2 (67145) - http://www.bohemiancoding.com/sketch -->
    <title>业务处理06</title>
    <desc>Created with Sketch.</desc>
    <g id="业务处理06" stroke="none" stroke-width="1" fill="none" fill-rule="evenodd">
        <g id="work-experience" transform="translate(7.000000, 10.000000)" fill="#44B27D">
            <path d="M39.3473147,5.19458624 L31.4778614,5.19458624 L31.4778614,2.59664595 C31.4778614,1.16975148 30.2974554,0 28.8547103,0 L13.1155155,0 C11.6727704,0 10.4926045,1.16975148 10.4926045,2.59664595 L10.4926045,5.19458624 L2.62291103,5.19458624 C1.18045402,5.19458624 0,6.3627557 0,7.79099248 L0,33.761191 C0,35.1896674 1.18040601,36.3581245 2.62291103,36.3581245 L39.3472667,36.3581245 C40.7900118,36.3581245 41.9704178,35.1896674 41.9704178,33.761191 L41.9704178,7.79099248 C41.9704658,6.3627557 40.7900599,5.19458624 39.3473147,5.19458624 Z M13.1155155,2.60263827 C13.1171002,2.6010563 13.1183968,2.59870731 13.1207498,2.59659798 L28.8504844,2.59659798 C28.8520691,2.59870726 28.8546623,2.60000164 28.8560068,2.60263827 L28.8560068,5.19458624 L13.1171002,5.19458624 L13.1171002,2.60263827 L13.1155155,2.60263827 Z M39.3473147,15.5827519 L34.1010125,15.5827519 L34.1010125,22.075709 C34.1010125,22.7887488 33.5107855,23.3737923 32.789413,23.3737923 L30.1662618,23.3737923 C29.4446492,23.3737923 28.8546623,22.7887967 28.8546623,22.075709 L28.8546623,15.5827519 L13.1155155,15.5827519 L13.1155155,22.075709 C13.1155155,22.7887488 12.5255766,23.3737923 11.803916,23.3737923 L9.18081285,23.3737923 C8.45972841,23.3737923 7.86950143,22.7887967 7.86950143,22.0757091 L7.86950138,15.5827519 L2.62291103,15.5827519 L2.62291103,12.985291 L39.3473147,12.985291 L39.3472667,15.5827519 L39.3473147,15.5827519 Z" id="Shape"></path>
        </g>
    </g>
</svg>