<?xml version="1.0" encoding="UTF-8"?>
<svg width="56px" height="56px" viewBox="0 0 56 56" version="1.1" xmlns="http://www.w3.org/2000/svg" xmlns:xlink="http://www.w3.org/1999/xlink">
    <!-- Generator: Sketch 52.2 (67145) - http://www.bohemiancoding.com/sketch -->
    <title>单据维护07</title>
    <desc>Created with Sketch.</desc>
    <g id="单据维护07" stroke="none" stroke-width="1" fill="none" fill-rule="evenodd">
        <g id="公告" transform="translate(7.000000, 7.000000)">
            <g id="Group">
                <path d="M23.8806458,9.04166667 L20.7375,6.02408333 L17.5943542,9.04166667 L9.929325,9.04166667 L17.142125,2.11735417 C19.1510738,0.188700052 22.3239262,0.188700052 24.332875,2.11735417 L31.545675,9.04166667 L23.8806458,9.04166667 Z" id="Path" fill="#ACF3E9"></path>
                <path d="M5.124875,8.93958333 L36.350125,8.93958333 C39.003475,8.93958333 41.1541667,11.090275 41.1541667,13.743625 L41.1541667,36.8022083 C41.1541667,39.4555583 39.003475,41.60625 36.350125,41.60625 L5.124875,41.60625 C2.47132083,41.60625 0.320833333,39.4555583 0.320833333,36.8022083 L0.320833333,13.743625 C0.320833333,11.0900708 2.471525,8.93958333 5.124875,8.93958333 Z" id="Path" fill="#2FC8C2"></path>
                <path d="M9.91666667,18.025 L31.5583333,18.025 C32.7833333,18.025 33.3958333,18.6375 33.3958333,19.8625 C33.3958333,21.0875 32.7833333,21.7 31.5583333,21.7 L9.91666667,21.7 C8.69166667,21.7 8.07916667,21.0875 8.07916667,19.8625 C8.07916667,18.6375 8.69166667,18.025 9.91666667,18.025 Z" id="Path" fill="#FFFFFF"></path>
                <path d="M9.91666667,28.8458333 L22.1666667,28.8458333 C23.3916667,28.8458333 24.0041667,29.4583333 24.0041667,30.6833333 C24.0041667,31.9083333 23.3916667,32.5208333 22.1666667,32.5208333 L9.91666667,32.5208333 C8.69166667,32.5208333 8.07916667,31.9083333 8.07916667,30.6833333 C8.07916667,29.4583333 8.69166667,28.8458333 9.91666667,28.8458333 Z" id="Path" fill="#FFFFFF"></path>
            </g>
        </g>
    </g>
</svg>