<?xml version="1.0" encoding="UTF-8"?>
<svg width="56px" height="56px" viewBox="0 0 56 56" version="1.1" xmlns="http://www.w3.org/2000/svg" xmlns:xlink="http://www.w3.org/1999/xlink">
    <!-- Generator: Sketch 52.2 (67145) - http://www.bohemiancoding.com/sketch -->
    <title>业务设置02</title>
    <desc>Created with Sketch.</desc>
    <g id="业务设置02" stroke="none" stroke-width="1" fill="none" fill-rule="evenodd">
        <g id="门户设置" transform="translate(7.000000, 9.000000)">
            <path d="M38.4168399,0 L3.56206148,0 C2.61320605,0.00414251336 1.70485667,0.385788301 1.03684447,1.06097771 C0.368832271,1.73616711 -0.00412127621,2.64959072 3.1248e-05,3.60030112 L3.1248e-05,28.2545369 C1.24667856e-05,30.2281861 1.59228206,31.8305659 3.56206148,31.8391845 L14.8574469,31.8391845 L14.8574469,35.3142577 L12.232793,35.3142577 C11.4217317,35.3142577 10.7642367,35.9730382 10.7642367,36.7856851 C10.7642367,37.598332 11.4217317,38.2571125 12.232793,38.2571125 L29.6836166,38.2571125 C30.4946779,38.2571125 31.1521729,37.598332 31.1521729,36.7856851 C31.1521729,35.9730382 30.4946779,35.3142577 29.6836166,35.3142577 L27.1370774,35.3142577 L27.1370774,31.8861449 L38.4168399,31.8861449 C40.3805397,31.8775717 41.9703135,30.2846897 41.9788701,28.3171508 L41.9788701,3.60030112 C41.9872047,2.64833231 41.6156031,1.73248115 40.9466874,1.05637849 C40.2777716,0.380275831 39.3669877,-3.66276448e-05 38.4168399,0 Z M38.885528,28.3328043 C38.885528,28.6267404 38.6477107,28.8650227 38.3543481,28.8650227 L3.56206148,28.8650227 C3.31717687,28.8212741 3.13538921,28.6131106 3.12461919,28.3641112 L3.12461919,3.4907267 C3.14672749,3.21513189 3.36511911,2.99631331 3.64017618,2.97416179 L38.3543481,2.97416179 C38.4937687,2.96992671 38.6289524,3.02247494 38.7290438,3.11981247 C38.8291353,3.21715 38.8855921,3.3509694 38.885528,3.4907267 L38.885528,28.3328043 Z" id="Shape" fill="#EA5241"></path>
            <path d="M5.6086666,5.96397704 L5.6086666,26.313505 L36.307743,26.313505 L36.307743,5.96397704 L5.6086666,5.96397704 Z M24.7623906,20.5373697 L24.2937024,20.9600138 C24.1204961,21.135918 23.8841603,21.2349407 23.6375389,21.2349407 C23.3909176,21.2349407 23.1545818,21.135918 22.9813755,20.9600138 L19.4662141,17.0153361 L17.1852649,19.0033284 C16.8103143,19.379012 16.4978555,19.2224772 16.4509867,18.6902587 L15.9822985,12.4288655 C15.9274553,12.1998276 15.9990883,11.9588931 16.1700826,11.7972624 C16.3410768,11.6356317 16.5853028,11.5780034 16.8103143,11.6461914 L23.0594902,12.7419352 C23.5906701,12.8515096 23.6844077,13.2115397 23.3250802,13.5402628 L21.4034586,15.2777995 L24.8248824,19.2224772 C24.9924635,19.4042704 25.080218,19.6458449 25.06847,19.8930363 C25.0567219,20.1402277 24.9464543,20.3723542 24.7623906,20.5373697 Z" id="Shape" fill="#F4A096"></path>
        </g>
    </g>
</svg>