<?xml version="1.0" encoding="UTF-8"?>
<svg width="56px" height="56px" viewBox="0 0 56 56" version="1.1" xmlns="http://www.w3.org/2000/svg" xmlns:xlink="http://www.w3.org/1999/xlink">
    <!-- Generator: Sketch 52.2 (67145) - http://www.bohemiancoding.com/sketch -->
    <title>基础档案06</title>
    <desc>Created with Sketch.</desc>
    <g id="基础档案06" stroke="none" stroke-width="1" fill="none" fill-rule="evenodd">
        <g id="项目动态" transform="translate(11.000000, 7.000000)">
            <path d="M6.02,42 L30.77,42 C32.87,42 34.52,40.35 34.52,38.25 L34.52,24 L0.0200000117,24 L0.0200000117,36 C0.0200000117,39.3 2.71999999,42 6.02,42 Z" id="Path" fill="#F08275"></path>
            <path d="M22.82,42 L3.76999999,42 C1.66999999,42 0.0200000117,40.35 0.0200000117,38.25 L0.0200000117,3.74999998 C0.0200000117,1.64999998 1.66999999,0 3.76999999,0 L30.62,0 C32.87,0 34.52,1.64999998 34.52,3.74999998 L34.52,30.45 L22.82,42 Z" id="Path" fill="#EA5241"></path>
            <path d="M22.97,42 L22.97,33.3 C22.97,31.8 24.17,30.45 25.82,30.45 L34.52,30.45 L22.97,42 Z" id="Path" fill="#E43420"></path>
            <path d="M7.52000002,27 L27.02,27 C27.92,27 28.52,26.4 28.52,25.5 C28.52,24.6 27.92,24 27.02,24 L7.52000002,24 C6.62000002,24 6.02,24.6 6.02,25.5 C6.02,26.4 6.61999998,27 7.52000002,27 Z M19.52,19.5 L27.02,19.5 C27.92,19.5 28.52,18.9 28.52,18 C28.52,17.1 27.92,16.5 27.02,16.5 L19.52,16.5 C18.62,16.5 18.02,17.1 18.02,18 C18.0200001,18.9 18.62,19.5 19.52,19.5 Z" id="Shape" fill="#FFFFFF" fill-rule="nonzero"></path>
            <path d="M7.52000002,19.5 L13.52,19.5 C14.42,19.5 15.02,18.9 15.02,18 L15.02,10.5 C15.02,9.60000001 14.42,8.99999998 13.52,8.99999998 L7.52000002,8.99999998 C6.62000002,8.99999998 6.02,9.59999996 6.02,10.5 L6.02,18 C6.02,18.9 6.61999998,19.5 7.52000002,19.5 Z" id="Path" fill="#FFFFFF"></path>
            <path d="M19.52,12 L27.02,12 C27.92,12 28.52,11.4 28.52,10.5 C28.52,9.59999996 27.92,8.99999998 27.02,8.99999998 L19.52,8.99999998 C18.62,8.99999998 18.02,9.59999996 18.02,10.5 C18.0200001,11.4 18.62,12 19.52,12 Z" id="Path" fill="#FFFFFF"></path>
        </g>
    </g>
</svg>