<?xml version="1.0" encoding="UTF-8"?>
<svg width="56px" height="56px" viewBox="0 0 56 56" version="1.1" xmlns="http://www.w3.org/2000/svg" xmlns:xlink="http://www.w3.org/1999/xlink">
    <!-- Generator: Sketch 52.2 (67145) - http://www.bohemiancoding.com/sketch -->
    <title>业务处理03</title>
    <desc>Created with Sketch.</desc>
    <g id="业务处理03" stroke="none" stroke-width="1" fill="none" fill-rule="evenodd">
        <g id="角色管理" transform="translate(9.000000, 7.000000)">
            <path d="M20.5068097,26.3252677 C20.554482,25.3501512 20.8660597,24.4055412 21.4090392,23.5899787 C22.4188055,22.2965245 23.1570605,20.8168366 23.5805069,19.2376956 C24.7823526,18.2600542 25.5460315,16.8538274 25.7060985,15.3236633 C25.8437267,12.9964008 25.2626297,12.8755041 25.2626297,12.875504 C26.1189832,10.3366723 26.3789476,0.785828859 20.1703851,1.88901173 C19.1916954,-0.136008879 12.6772924,-1.70766664 9.63417928,3.65712674 C7.99678241,6.48944033 7.67358743,9.88160523 8.74724178,12.9661766 C8.74724178,13.1777459 8.33435707,12.7546073 8.19672884,14.1146958 C8.13074276,15.5701084 8.53218241,17.0088656 9.34363081,18.2251853 C9.62287833,18.5670223 9.98616595,18.8323798 10.3987806,18.9959021 C10.786015,20.6575964 11.5551914,22.2088739 12.6467084,23.5295303 C12.8469284,24.6252828 12.3012954,25.7220907 11.3010101,26.2345951 C5.39828813,27.4284505 0.000202995951,30.6473265 0.000202995951,34.1382202 L0.000202995951,36.8432851 C0.688344162,41.7244914 14.0994508,41.3769133 23.1523301,41.1804561 C23.509742,40.938144 23.622287,40.4670914 23.4122946,40.0923853 C22.8395629,39.2942998 22.0339711,38.6879886 21.1031987,38.3544945 C21.1031987,38.278934 20.8279422,38.2335977 20.7973582,38.1580372 C20.4281681,37.4079259 20.3052071,36.5626101 20.4456416,35.7401022 C20.4456416,35.7401022 20.4762256,26.4612765 20.5068097,26.3252677 Z" id="Path" fill="#418BF8"></path>
            <path d="M35.7988355,23.7259875 L25.7213905,23.7259875 C24.415274,23.6919417 23.3244648,24.7025427 23.2746663,25.9928016 L23.2746663,36.4050344 C23.3526354,36.9040587 23.5637746,37.373532 23.8863474,37.7651228 L29.6973172,41.6942672 C30.007982,41.9144063 30.3863024,42.021226 30.767759,41.9965091 C31.1699991,42.0069616 31.5563021,41.84098 31.8229088,41.5431463 L37.4809584,37.7651228 C37.9242503,37.5137267 38.2111466,37.0600938 38.2455597,36.5561553 L38.2455597,26.1439226 C38.3315333,25.4802157 38.1015472,24.8145881 37.6227724,24.3414468 C37.1439977,23.8683055 36.4704448,23.6410255 35.7988355,23.7259875 Z M35.9058797,29.6801526 L33.7497041,31.7353973 L34.284925,34.5915831 C34.32647,34.7822219 34.2480817,34.9788661 34.0861286,35.0902822 C33.9999198,35.1599502 33.8916436,35.1974009 33.7802881,35.1960668 C33.6994841,35.2115606 33.6164197,35.2115606 33.5356157,35.1960668 L30.8289271,33.8813146 L28.1069465,35.1960668 C28.0311058,35.2096691 27.9534068,35.2096691 27.8775661,35.1960668 C27.7609962,35.2010623 27.6466566,35.1633976 27.5564336,35.0902822 C27.4007288,34.9740804 27.3239646,34.7815103 27.3576372,34.5915831 L27.9234422,31.7353973 L25.7672666,29.755713 C25.6190985,29.6221036 25.5650685,29.4144595 25.6296383,29.2267897 C25.6958454,29.0412525 25.8607853,28.9073603 26.057815,28.8792116 L29.0550521,28.2898399 L30.3548743,25.6905597 C30.4472774,25.5163366 30.6298815,25.4071789 30.8289271,25.4071789 C31.0279727,25.4071789 31.2105768,25.5163366 31.3029799,25.6905597 L32.6333862,28.3502883 L35.6153312,28.8640994 C35.8065715,28.8973639 35.9645796,29.0303797 36.0282159,29.2116776 C36.0690412,29.3782258 36.0231595,29.5539255 35.9058797,29.6801526 Z" id="Shape" fill="#88B8FA"></path>
        </g>
    </g>
</svg>