<?xml version="1.0" encoding="UTF-8"?>
<svg width="56px" height="56px" viewBox="0 0 56 56" version="1.1" xmlns="http://www.w3.org/2000/svg" xmlns:xlink="http://www.w3.org/1999/xlink">
    <!-- Generator: Sketch 52.2 (67145) - http://www.bohemiancoding.com/sketch -->
    <title>业务处理07</title>
    <desc>Created with Sketch.</desc>
    <g id="业务处理07" stroke="none" stroke-width="1" fill="none" fill-rule="evenodd">
        <g id="works" transform="translate(7.000000, 9.000000)">
            <path d="M4.98643478,9.0159204 L36.9827246,9.0159204 C40.3070145,9.0159204 41.9691594,10.6869254 41.9691594,14.0289353 L41.9691594,33.2454925 C41.9691594,36.5875025 40.3070145,38.2585075 36.9827246,38.2585075 L4.98643478,38.2585075 C1.66214493,38.2585075 0,36.5875025 0,33.2454925 L0,14.0289353 C0,10.6869254 1.66214493,9.0159204 4.98643478,9.0159204 Z" id="Path" fill="#E14230"></path>
            <path d="M4.98643478,8.18041791 L36.9827246,8.18041791 C40.3070145,8.18041791 41.9691594,9.85142289 41.9691594,13.1934328 L41.9691594,31.5744876 C41.9691594,34.9164975 40.3070145,36.5875025 36.9827246,36.5875025 L4.98643478,36.5875025 C1.66214493,36.5875025 0,34.9164975 0,31.5744876 L0,13.1934328 C0,9.85142289 1.66214493,8.18041791 4.98643478,8.18041791 Z" id="Path" fill="#EA5241"></path>
            <path d="M4.98643478,8.18041791 L36.9827246,8.18041791 C40.3070145,8.18041791 41.9691594,9.85142289 41.9691594,13.1934328 L41.9691594,17.7886965 C41.9691594,21.1307065 40.3070145,22.8017114 36.9827246,22.8017114 L4.98643478,22.8017114 C1.66214493,22.8017114 0,21.1307065 0,17.7886965 L0,13.1934328 C0,9.85142289 1.66214493,8.18041791 4.98643478,8.18041791 Z" id="Path" fill="#E14230"></path>
            <path d="M4.98643478,8.18041791 L36.9827246,8.18041791 C40.3070145,8.18041791 41.9691594,9.85142289 41.9691594,13.1934328 L41.9691594,16.1176915 C41.9691594,19.4597015 40.3070145,21.1307065 36.9827246,21.1307065 L4.98643478,21.1307065 C1.66214493,21.1307065 0,19.4597015 0,16.1176915 L0,13.1934328 C0,9.85142289 1.66214493,8.18041791 4.98643478,8.18041791 Z" id="Path" fill="#EA5241"></path>
            <path d="M28.8797681,21.7573333 L33.2428986,21.7573333 L33.2428986,23.5327761 C33.2428986,24.7440437 32.2661785,25.7259701 31.0613333,25.7259701 C29.8564881,25.7259701 28.8797681,24.7440437 28.8797681,23.5327761 L28.8797681,21.7573333 Z" id="Path" fill="#E14230"></path>
            <path d="M31.0613333,16.5354428 C32.2663884,16.5354428 33.2428986,17.5171582 33.2428986,18.7286368 L33.2428986,22.0706468 C33.2428986,23.2819144 32.2661785,24.2638408 31.0613333,24.2638408 C29.8564881,24.2638408 28.8797681,23.2819144 28.8797681,22.0706468 L28.8797681,18.7286368 C28.8797681,17.5171582 29.8562783,16.5354428 31.0613333,16.5354428 Z" id="Path" fill="#EDB5AE"></path>
            <path d="M8.93402899,21.7573333 L13.2971594,21.7573333 L13.2971594,23.5327761 C13.2971594,24.7440437 12.3204394,25.7259701 11.1155942,25.7259701 C9.91074903,25.7259701 8.93402902,24.7440437 8.93402899,23.5327761 L8.93402899,21.7573333 Z" id="Path" fill="#E14230"></path>
            <path d="M11.1155942,16.5354428 C12.3206493,16.5354428 13.2971594,17.5171582 13.2971594,18.7286368 L13.2971594,22.0706468 C13.2971594,23.2819144 12.3204394,24.2638407 11.1155942,24.2638407 C9.91074903,24.2638407 8.93402902,23.2819144 8.93402899,22.0706468 L8.93402899,18.7286368 C8.93402899,17.5171582 9.91053913,16.5354428 11.1155942,16.5354428 Z" id="Path" fill="#EDB5AE"></path>
            <path d="M11.4272464,11.1046766 C11.4272464,12.3736236 12.4504769,13.4023085 13.7126957,13.4023085 C14.9749144,13.4023085 15.9981449,12.3736236 15.9981449,11.1046766 C15.9981449,9.83572959 14.9749144,8.80704478 13.7126957,8.80704478 C12.4504769,8.80704478 11.4272464,9.83572959 11.4272464,11.1046766 Z" id="Path" fill="#EDB5AE"></path>
            <path d="M25.9710145,11.1046766 C25.9710145,12.3736236 26.994245,13.4023085 28.2564638,13.4023085 C29.5186825,13.4023085 30.541913,12.3736236 30.541913,11.1046766 C30.541913,9.83572959 29.5186825,8.80704478 28.2564638,8.80704478 C26.994245,8.80704478 25.9710145,9.83572959 25.9710145,11.1046766 Z" id="Path" fill="#EDB5AE"></path>
            <path d="M14.9593043,11.1046766 L14.9593043,8.59816915 C14.9593043,5.25281719 17.6569656,2.54077612 20.9845797,2.54077612 C24.3121939,2.54077612 27.0098551,5.25281719 27.0098551,8.59816915 L27.0098551,11.1046766 C27.0098551,11.7968295 27.5679808,12.3579303 28.2564638,12.3579303 C28.9449467,12.3579303 29.5030725,11.7968295 29.5030725,11.1046766 L29.5030725,8.59816915 C29.5030725,3.86838957 25.6892809,0.0342686567 20.9845797,0.0342686567 C16.2798785,0.0342686567 12.466087,3.86838957 12.466087,8.59816915 L12.466087,11.1046766 C12.466087,11.7968295 13.0242127,12.3579303 13.7126957,12.3579303 C14.4011786,12.3579303 14.9593043,11.7968295 14.9593043,11.1046766 Z" id="Path" fill="#F08275"></path>
        </g>
    </g>
</svg>