<?xml version="1.0" encoding="UTF-8"?>
<svg width="56px" height="56px" viewBox="0 0 56 56" version="1.1" xmlns="http://www.w3.org/2000/svg" xmlns:xlink="http://www.w3.org/1999/xlink">
    <!-- Generator: Sketch 52.2 (67145) - http://www.bohemiancoding.com/sketch -->
    <title>基础档案07</title>
    <desc>Created with Sketch.</desc>
    <g id="基础档案07" stroke="none" stroke-width="1" fill="none" fill-rule="evenodd">
        <g id="企业档案-01" transform="translate(7.000000, 8.000000)">
            <path d="M17.2048558,6.6189596 L35.4031731,0.0212828283 L38.941875,6.6189596 L17.2048558,6.6189596 Z M10.6373077,6.6189596 L18.2195192,0.0212828283 L21.2534135,4.08022222 L16.1952404,6.6189596 L10.6373077,6.6189596 Z" id="Shape" fill="#ACF3E9"></path>
            <path d="M4.06471154,40.1090101 C1.89403846,39.9620572 0.167596154,38.2290269 0.0212019231,36.0500707 L0.0212019231,10.677899 C0.167596154,8.49894276 1.89403846,6.76591246 4.06471154,6.6189596 L37.9373077,6.6189596 C40.1079808,6.76591246 41.8344231,8.49894276 41.9808173,10.677899 L41.9808173,35.5433367 C41.8344231,37.7222929 40.1079808,39.4553232 37.9373077,39.6022761 L4.06471154,40.1090101 Z" id="Path" fill="#2FC8C2"></path>
            <path d="M17.2704808,22.8091111 C14.9332212,22.8091111 13.0452404,20.9088586 13.0452404,18.5677475 C13.0452404,16.221569 14.9382692,14.3263838 17.2704808,14.3263838 C19.6026923,14.3263838 21.4957212,16.2266364 21.4957212,18.5677475 C21.4957212,20.9088586 19.6026923,22.8091111 17.2704808,22.8091111 Z M17.2704808,16.7688418 C16.2861058,16.7688418 15.4834615,17.5694815 15.4834615,18.5626801 C15.4834615,19.5508114 16.2810577,20.3565185 17.2704808,20.3565185 C18.2548558,20.3565185 19.0575,19.5558788 19.0575,18.5626801 C19.0524519,17.5745488 18.2548558,16.7739091 17.2704808,16.7688418 Z M23.6310577,32.8221751 C22.9596635,32.8221751 22.4144712,32.2749024 22.4094231,31.6009461 C22.404375,28.9557946 20.2690385,26.8123098 17.6339423,26.8072424 L16.8969231,26.8072424 C14.2618269,26.8123098 12.1264904,28.9557946 12.1214423,31.6009461 C12.10125,32.2749024 11.5358654,32.8069731 10.8594231,32.7816364 C10.2183173,32.761367 9.70341346,32.2444983 9.68322115,31.6009461 C9.68826923,27.6028148 12.9139904,24.3647845 16.8969231,24.3597172 L17.6339423,24.3597172 C21.616875,24.3647845 24.8425962,27.6028148 24.8476442,31.6009461 C24.8476442,32.2749024 24.3024519,32.8221751 23.6310577,32.8221751 Z M29.6483654,20.3109125 L24.6002885,20.3109125 C23.9288942,20.3311818 23.3635096,19.8041785 23.3382692,19.1302222 C23.3180769,18.456266 23.8430769,17.8887239 24.5144712,17.8633872 L29.6433173,17.8633872 C30.3147115,17.8431178 30.8800962,18.3701212 30.9053365,19.0440774 C30.9255288,19.7180337 30.4005288,20.2855758 29.7291346,20.3109125 L29.6483654,20.3109125 Z M32.1724038,25.3681178 L24.6002885,25.3681178 C23.9288942,25.3883872 23.3635096,24.8613838 23.3382692,24.1874276 C23.3180769,23.5134714 23.8430769,22.9459293 24.5144712,22.9205926 L32.1623077,22.9205926 C32.8337019,22.940862 33.36375,23.508404 33.3385096,24.1874276 C33.3233654,24.8259125 32.8084615,25.3427811 32.1724038,25.3681178 Z" id="Shape" fill="#FFFFFF" fill-rule="nonzero"></path>
        </g>
    </g>
</svg>