<?xml version="1.0" encoding="UTF-8"?>
<svg width="56px" height="56px" viewBox="0 0 56 56" version="1.1" xmlns="http://www.w3.org/2000/svg" xmlns:xlink="http://www.w3.org/1999/xlink">
    <!-- Generator: Sketch 52.2 (67145) - http://www.bohemiancoding.com/sketch -->
    <title>报表查询01</title>
    <desc>Created with Sketch.</desc>
    <g id="报表查询01" stroke="none" stroke-width="1" fill="none" fill-rule="evenodd">
        <g id="Receiving-goods-query" transform="translate(7.000000, 9.000000)">
            <path d="M40.71593,22.8975823 C40.7489296,22.9316943 40.7811876,22.966177 40.8138164,23.0006596 C41.1002296,23.2928341 41.3664468,23.6041434 41.6106263,23.9324341 L41.531279,8.80454003 C41.5246201,7.94773043 41.2525956,7.11404003 40.7526374,6.41818887 L36.2687741,1.64808207 C35.5008348,0.597670486 34.2721256,-0.0162696472 32.9710415,0.00032812355 L20.7107732,0.0585408779 L8.45050495,0.116753582 C7.14975107,0.112336628 5.92735833,0.7379718 5.17019906,1.79565323 L0.753447273,6.60951226 C0.260677738,7.31025973 -0.00256374999,8.14662146 1.8822094e-05,9.00327902 L0.123859925,32.5961197 C0.134612575,34.6847332 1.93549939,36.3691945 4.14572922,36.3588126 L20.9087707,36.2790945 L27.9428706,36.2457242 C25.3133331,33.9247821 24.2259704,30.3143186 25.1364238,26.927238 C26.006811,23.7748347 28.4715942,21.3128868 31.6249973,20.4461287 C34.7784004,19.5793705 38.1552494,20.4356618 40.5145956,22.7003265 C40.5828194,22.7648425 40.6484478,22.8312124 40.71593,22.8975823 Z M7,25 L14,25 C15.1045695,25 16,25.8954305 16,27 L16,27 C16,28.1045695 15.1045695,29 14,29 L7,29 C5.8954305,29 5,28.1045695 5,27 L5,27 C5,25.8954305 5.8954305,25 7,25 Z M7,18 L19,18 C20.1045695,18 21,18.8954305 21,20 L21,20 C21,21.1045695 20.1045695,22 19,22 L7,22 C5.8954305,22 5,21.1045695 5,20 L5,20 C5,18.8954305 5.8954305,18 7,18 Z M39.4167109,9.75781982 L2.21358566,9.94321068 L2.20876548,9.94321068 C1.68412658,9.94454172 1.2577437,9.52031688 1.25641266,8.99567799 C1.25508162,8.47103909 1.67930646,8.04465621 2.20394536,8.04332517 L39.4070706,7.85793431 L39.4118907,7.85793431 C39.7556256,7.85032562 40.0766435,8.02904714 40.2512462,8.32523191 C40.425849,8.62141667 40.4267813,8.98883061 40.253684,9.28589768 C40.0805866,9.58296475 39.7604799,9.76331316 39.4167109,9.75744905 L39.4167109,9.75781982 Z" id="Combined-Shape" fill="#44B27D"></path>
            <path d="M41.8701735,35.9305597 L39.9421086,33.8171039 C41.7163438,31.4269979 41.9139104,28.2153424 40.4460009,25.6257942 C39.4921216,23.9137489 37.890627,22.6565196 36.0010697,22.1363675 C35.3766212,21.9642719 34.7318572,21.8769731 34.0841282,21.8768203 C30.747228,21.898733 27.840782,24.1584742 26.9970064,27.3870074 C26.4833974,29.2956423 26.7423602,31.3297785 27.7178061,33.0488442 C28.6712116,34.7611431 30.2727175,36.0184863 32.1623666,36.5382709 C34.2244288,37.1086971 36.4333988,36.7315891 38.1894234,35.5093517 L40.1308365,37.6350433 C40.3510135,37.8698633 40.6568451,38.0055897 40.9786922,38.011317 C41.3005394,38.0170443 41.6110063,37.892285 41.8393986,37.6654473 C42.3195763,37.1909771 42.3329139,36.419869 41.869432,35.9290766 L41.8701735,35.9305597 Z M32.7945494,34.1700881 C31.5271996,33.8208908 30.4531491,32.9774138 29.8134644,31.8289724 C29.158913,30.67594 28.9848123,29.3115072 29.3288527,28.0310552 C29.8945445,25.8653903 31.8436297,24.3491817 34.0819035,24.3336199 C35.8551092,24.3363324 37.4878736,25.2988518 38.3488596,26.8490031 C39.0034109,28.0020355 39.1775116,29.3664683 38.8334712,30.6469202 C38.2678212,32.8129245 36.3182736,34.3292562 34.0796788,34.3443555 C33.6454384,34.3439733 33.2132102,34.2853618 32.7945494,34.1700881 Z" id="Shape" fill="#AFE0C9"></path>
        </g>
    </g>
</svg>