<?xml version="1.0" encoding="UTF-8"?>
<svg width="56px" height="56px" viewBox="0 0 56 56" version="1.1" xmlns="http://www.w3.org/2000/svg" xmlns:xlink="http://www.w3.org/1999/xlink">
    <!-- Generator: Sketch 52.2 (67145) - http://www.bohemiancoding.com/sketch -->
    <title>业务处理04</title>
    <desc>Created with Sketch.</desc>
    <g id="业务处理04" stroke="none" stroke-width="1" fill="none" fill-rule="evenodd">
        <g id="出纳付款-(1)-copy" transform="translate(7.000000, 8.000000)">
            <path d="M40.418,23.9986158 C38.0548,22.7679893 28.0812,29.6511072 26.2472,29.6511072 C26.2472,29.6511072 22.8382,30.6314132 18.1104,27.9282301 C13.384,25.4711724 9.9736,23.0127162 9.9736,23.0127162 C9.9736,23.0127162 6.8236,21.2926359 3.15,23.5035683 C2.13022266,24.1309281 1.07883549,24.7055124 2.84217094e-14,25.225047 L2.84217094e-14,37.759258 C2.84217094e-14,37.759258 2.884,34.5652227 6.825,34.5652227 C10.7604,34.5652227 19.684,38.5004308 19.684,38.5004308 C19.684,38.5004308 23.093,39.9771826 25.718,38.5004308 L41.1992,27.6835032 C42.2562,27.1940495 42.5152,24.9803202 40.418,23.9986158 Z" id="Path" fill="#FF8226"></path>
            <path d="M22.6361333,0 C15.3561333,0 9.33333333,5.76856187 9.33333333,13.0334537 C9.33333333,20.3011425 15.3575333,26.5703456 22.6361333,26.5703456 C29.9133333,26.5703456 35.9333333,20.5514631 35.9333333,13.2823759 C35.9333333,6.0188825 29.9091333,0 22.6361333,0 Z" id="Path" fill="#FFBE8A"></path>
            <path d="M30.5102908,9.30763231 L29.044519,10.7799919 L25.558613,7.28785703 L27.0243848,5.81549748 C27.287472,5.53707051 27.7243848,5.52763231 27.996868,5.79190197 C28.006264,5.79662108 28.010962,5.80605928 28.0203579,5.81549748 L30.5008949,8.30718287 C30.7780761,8.57145254 30.782774,9.01032894 30.5196868,9.28875591 L30.5008949,9.30763231 L30.5102908,9.30763231 Z M15.8666667,20.5249357 L20.0807606,19.7887559 L16.5948546,16.2871829 L15.8666667,20.5249357 Z M17.0834452,15.8152728 L20.5599553,19.3074076 L28.5042506,11.3274076 L25.0277405,7.83055366 L17.0834452,15.8105537 L17.0834452,15.8152728 Z" id="Shape" fill="#FFFFFF" fill-rule="nonzero"></path>
        </g>
    </g>
</svg>