<?xml version="1.0" encoding="UTF-8"?>
<svg width="56px" height="56px" viewBox="0 0 56 56" version="1.1" xmlns="http://www.w3.org/2000/svg" xmlns:xlink="http://www.w3.org/1999/xlink">
    <!-- Generator: Sketch 52.2 (67145) - http://www.bohemiancoding.com/sketch -->
    <title>业务设置07</title>
    <desc>Created with Sketch.</desc>
    <g id="业务设置07" stroke="none" stroke-width="1" fill="none" fill-rule="evenodd">
        <g id="自定义" transform="translate(5.000000, 9.000000)">
            <path d="M31.720305,13.1274738 C28.3053033,13.9674386 28.3053033,18.3995109 31.720305,19.2491527 C31.4034427,20.4383719 31.0148539,21.6069515 30.5567103,22.7483608 C26.6620737,21.7971104 24.9257947,25.3805086 26.808842,27.6952502 C26.5507983,29.0761601 25.203983,29.3751798 24.2255275,30.0274105 C22.2225715,27.6013832 17.5336592,28.4229616 17.884752,32.3711832 L13.8318358,32.3711832 C14.2567925,28.693918 9.53046854,27.3401038 7.79514889,30.0274105 C6.48478592,29.6925858 5.55237537,28.982293 4.89815316,27.9942699 C6.66992509,25.4550215 5.284739,21.8251737 1.15028477,22.7493285 C0.725328135,21.6374396 0.309964143,20.4703918 0.00587554448,19.248185 C3.28178299,18.7256262 3.28178299,13.6500326 0.00587554448,13.1265062 C0.309964188,11.89559 0.725328135,10.7285422 1.15028477,9.61762099 C5.06314761,10.5795161 6.79846725,6.97579626 4.89719386,4.67169929 C5.18305634,3.28111243 6.52123816,3.00144675 7.50065298,2.34921601 C9.49401631,4.77621104 14.173336,3.9439879 13.8318358,0.0151203187 L17.8837928,0.0151203187 C17.4597954,3.68270848 22.1937934,5.03555499 23.9291131,2.34824833 C25.2222092,2.69371772 26.1642125,3.3933658 26.808842,4.3736473 C25.0735223,6.91192797 26.4212968,10.5417758 30.5567103,9.61858868 C31.0162617,10.7624395 31.4048762,11.934005 31.720305,13.1265062 L31.720305,13.1274738 Z M15.8626106,22.2625748 C19.1663369,22.2625748 21.8714787,19.5384954 21.8714787,16.1883133 C21.8714787,12.8284541 19.1663369,10.1140518 15.8626106,10.1140518 C14.2668751,10.1143058 12.7367516,10.7547545 11.6095664,11.8942066 C10.4823812,13.0336588 9.85068611,14.5785554 9.8537426,16.1883133 C9.8537426,19.5384954 12.5396989,22.2635424 15.8626106,22.2635424 L15.8626106,22.2625748 Z" id="Shape" fill="#2FC8C2"></path>
            <path d="M45.9798553,28.4229617 C44.1064008,28.6561777 43.8483571,30.998015 45.5923102,31.6705674 C45.3438592,32.2869932 45.0579967,32.8743879 44.771175,33.434687 C42.7586263,32.6963309 41.6334024,34.4885138 42.4823565,35.832651 C42.242539,36.5516531 41.5230864,36.6068121 40.9590355,36.8971225 C40.0544438,35.4968587 37.5152558,35.6458847 37.451944,37.7545059 C36.7397089,37.6585481 36.0255305,37.5778881 35.3098938,37.5125806 C35.7626692,35.5713716 33.34339,34.5639945 32.245985,35.8703914 C31.5908035,35.609112 31.1476207,35.1794526 30.8703917,34.6191535 C31.9409371,33.3872697 31.4430759,31.3725154 29.1916689,31.5960544 C29.0192096,30.9679892 28.889407,30.3287913 28.8031645,29.6829088 C30.5567103,29.6180729 30.8703916,26.9114121 29.1724836,26.425626 C29.4123011,25.800491 29.6981636,25.2121285 29.9936188,24.6527971 C32.0148009,25.3998626 33.1496175,23.6076796 32.29203,22.2625748 C32.5222548,21.5542174 33.233074,21.4797043 33.8143917,21.1816523 C34.7189834,22.6090118 37.2581714,22.4503088 37.2946237,20.3591062 C38.0236689,20.4442639 38.7335288,20.5187769 39.4453073,20.6116762 C38.9752649,22.5432081 41.4300371,23.5341344 42.5005826,22.2258021 C43.1109042,22.457369 43.6164288,22.9057415 43.9222209,23.486717 C42.8142639,24.7089238 43.3322698,26.723678 45.5740841,26.500139 C45.7496305,27.1068878 45.8695393,27.7513769 45.9798553,28.4229617 Z M37.0087612,32.2676392 C38.7709404,32.4727919 40.3681251,31.2031677 40.5436716,29.4303388 C40.7834891,27.6381559 39.5009449,26.043384 37.7464399,25.8382313 C35.9842607,25.6234016 34.4244875,26.9027028 34.1933033,28.6658547 C33.9995308,30.4483606 35.2456227,32.0624865 37.0087612,32.2676392 Z" id="Combined-Shape" fill="#ACF3E9"></path>
        </g>
    </g>
</svg>