<?xml version="1.0" encoding="UTF-8"?>
<svg width="56px" height="56px" viewBox="0 0 56 56" version="1.1" xmlns="http://www.w3.org/2000/svg" xmlns:xlink="http://www.w3.org/1999/xlink">
    <!-- Generator: Sketch 52.2 (67145) - http://www.bohemiancoding.com/sketch -->
    <title>业务设置05</title>
    <desc>Created with Sketch.</desc>
    <g id="业务设置05" stroke="none" stroke-width="1" fill="none" fill-rule="evenodd">
        <g id="contract_management_fill" transform="translate(9.000000, 6.000000)">
            <path d="M18.4542184,39.5467577 L18.4542184,29.4204778 C18.4542184,28.7293515 18.8281017,28.0930034 19.4298759,27.7602389 L28.7179529,22.6187713 C29.2830297,22.3059684 29.9678636,22.3059684 30.5329404,22.6187713 L34.0927171,24.5892491 C34.5937717,24.8667235 35.206737,24.5017065 35.206737,23.9262799 L35.206737,2.81774744 C35.206737,1.26143345 33.9533375,0 32.4069355,0 L2.79980149,0 C1.2533995,0 -1.22147906e-16,1.26143345 -1.22147906e-16,2.81774744 L-1.22147906e-16,42.1167235 C-1.22147906e-16,43.6730375 1.2533995,44.934471 2.79980149,44.934471 L23.2378908,44.934471 C24.0151613,44.934471 24.2812035,43.8921502 23.6000744,43.5153584 L19.4298759,41.2069966 C18.8282653,40.8739423 18.454419,40.2377824 18.4542184,39.5467577 Z" id="Shape" fill="#44B27D"></path>
            <path d="M24.8,5 L24.8,5 C25.8309315,5 26.6666667,5.83573513 26.6666667,6.86666667 L26.6666667,23.6666667 C26.6666667,24.6975982 25.8309315,25.5333333 24.8,25.5333333 L24.8,25.5333333 C23.7690685,25.5333333 22.9333333,24.6975982 22.9333333,23.6666667 L22.9333333,6.86666667 C22.9333333,5.83573513 23.7690685,5 24.8,5 Z M9.86666667,16.2 L9.86666667,16.2 C10.8975982,16.2 11.7333333,17.0357351 11.7333333,18.0666667 L11.7333333,23.6666667 C11.7333333,24.6975982 10.8975982,25.5333333 9.86666667,25.5333333 L9.86666667,25.5333333 C8.83573513,25.5333333 8,24.6975982 8,23.6666667 L8,18.0666667 C8,17.0357351 8.83573513,16.2 9.86666667,16.2 Z M17.3333333,8.73333333 L17.3333333,8.73333333 C18.3642649,8.73333333 19.2,9.56906847 19.2,10.6 L19.2,23.6666667 C19.2,24.6975982 18.3642649,25.5333333 17.3333333,25.5333333 L17.3333333,25.5333333 C16.3024018,25.5333333 15.4666667,24.6975982 15.4666667,23.6666667 L15.4666667,10.6 C15.4666667,9.56906847 16.3024018,8.73333333 17.3333333,8.73333333 Z" id="Shape" fill="#FFFFFF" transform="translate(17.333333, 15.266667) scale(-1, 1) rotate(270.000000) translate(-17.333333, -15.266667) "></path>
            <path d="M37.9887345,28.8158703 L30.5700744,24.7095563 C30.0051772,24.3967578 29.3204928,24.3967578 28.7555955,24.7095563 L21.3369355,28.8158703 C20.7351428,29.1487356 20.3612262,29.785015 20.3612779,30.4761092 L20.3612779,38.5325939 C20.3612779,39.2237201 20.7351613,39.8600683 21.3369355,40.1928328 L28.7555955,44.2991468 C29.3204928,44.6119452 30.0051772,44.6119452 30.5700744,44.2991468 L37.9887345,40.1928328 C38.5905272,39.8599675 38.9644437,39.2236881 38.9643921,38.5325939 L38.9643921,30.4761092 C38.9643921,29.7849829 38.5905087,29.1486348 37.9887345,28.8158703 Z M29.6625806,37.312628 C28.1212655,37.312628 26.8719355,36.0552901 26.8719355,34.5040956 C26.8719355,32.952901 28.1212655,31.6955631 29.6625806,31.6955631 C31.2038958,31.6955631 32.4532258,32.952901 32.4532258,34.5040956 C32.4532258,36.0552901 31.2038958,37.312628 29.6625806,37.312628 Z" id="Shape" fill="#AFE0C9"></path>
        </g>
    </g>
</svg>