<?xml version="1.0" encoding="UTF-8"?>
<svg width="56px" height="56px" viewBox="0 0 56 56" version="1.1" xmlns="http://www.w3.org/2000/svg" xmlns:xlink="http://www.w3.org/1999/xlink">
    <!-- Generator: Sketch 52.2 (67145) - http://www.bohemiancoding.com/sketch -->
    <title>基础档案04</title>
    <desc>Created with Sketch.</desc>
    <g id="基础档案04" stroke="none" stroke-width="1" fill="none" fill-rule="evenodd">
        <g id="合同签订" transform="translate(11.000000, 7.000000)" fill="#FF8226">
            <path d="M3.83703702,0.0297872489 L30.6962963,0.0297872489 C32.8154333,0.0297872489 34.5333333,1.73682071 34.5333333,3.84255319 L34.5333333,38.1574468 C34.5333333,40.2631793 32.8154333,41.9702128 30.6962963,41.9702128 L3.83703702,41.9702128 C2.81939153,41.9702128 1.84342615,41.5685118 1.12384212,40.8534795 C0.404258097,40.1384471 -1.27799006e-15,39.1686552 0,38.1574468 L0,3.84255319 C-6.3899503e-16,1.73682071 1.71789999,0.0297872489 3.83703702,0.0297872489 Z M17.2666667,22.906383 C22.034725,22.906383 25.9,19.0655577 25.9,14.3276596 C25.9,9.58976148 22.034725,5.74893619 17.2666667,5.74893619 C12.4986083,5.74893619 8.63333333,9.58976148 8.63333333,14.3276596 C8.63333333,19.0655577 12.4986083,22.906383 17.2666667,22.906383 Z M5.27592591,25.7659575 C4.48124952,25.7659575 3.83703702,26.406095 3.83703702,27.1957447 C3.83703702,27.9853944 4.48124952,28.6255319 5.27592591,28.6255319 L21.5833333,28.6255319 C22.3780097,28.6255319 23.0222222,27.9853944 23.0222222,27.1957447 C23.0222222,26.406095 22.3780097,25.7659575 21.5833333,25.7659575 L5.27592591,25.7659575 Z M5.27592591,32.4382979 C4.48124952,32.4382979 3.83703702,33.0784354 3.83703702,33.8680851 C3.83703702,34.6577348 4.48124952,35.2978723 5.27592591,35.2978723 L15.8277778,35.2978723 C16.6224542,35.2978723 17.2666667,34.6577348 17.2666667,33.8680851 C17.2666667,33.0784354 16.6224542,32.4382979 15.8277778,32.4382979 L5.27592591,32.4382979 Z M14.0138185,15.9385532 L11.6972074,13.5708255 C11.5250714,13.3968183 11.4664246,13.1412163 11.5456444,12.9102638 C11.6223852,12.6786383 11.8238296,12.5099234 12.0674815,12.4746553 L15.2503037,11.9980596 L16.6824778,8.98025533 C16.791429,8.75243565 17.0228515,8.60750097 17.2766914,8.60811269 C17.5305313,8.60872441 17.7612435,8.75477279 17.8690815,8.98311491 L19.2907037,12.0094979 L22.4677704,12.4956255 C22.7109356,12.5320013 22.9125677,12.7017326 22.9886481,12.9340936 C23.0661907,13.1645559 23.0068687,13.4187637 22.8351667,13.5917957 L20.5137592,15.9518979 L21.0375148,19.1908425 C21.1036868,19.3891039 21.0701034,19.6068757 20.9472215,19.7763501 C20.8243397,19.9458244 20.627084,20.0464179 20.4168741,20.0468085 L20.4082408,20.0468085 C20.3025841,20.0456151 20.1985901,20.0205145 20.1041556,19.9734128 L17.2609111,18.4025532 L14.4215037,19.9553021 C14.2018651,20.0761238 13.932019,20.0613977 13.7270167,19.9174024 C13.5220143,19.7734071 13.4180177,19.5255431 13.4593667,19.2794893 L14.0138185,15.9395064 L14.0138185,15.9385532 Z M29.4252778,25.7020936 L22.1368259,32.7728681 C21.8506632,33.0502159 21.6588316,33.4094578 21.5881296,33.8004085 L21.2408778,35.7287149 C21.2116451,35.8915315 21.2694491,36.0577678 21.3935997,36.1679224 C21.5177503,36.2780769 21.6904968,36.3164 21.8500074,36.2691745 L23.8644519,35.674383 C24.1627904,35.5861979 24.4350565,35.4272083 24.6577592,35.2111319 L31.9116778,28.1784851 C32.0968507,27.9990834 32.2012779,27.7529855 32.2012779,27.496 C32.2012779,27.2390145 32.0968507,26.9929165 31.9116778,26.8135149 L30.765363,25.7020936 C30.3927148,25.3406562 29.797926,25.3406562 29.4252778,25.7020936 Z" id="Shape"></path>
        </g>
    </g>
</svg>