<?xml version="1.0" encoding="UTF-8"?>
<svg width="56px" height="56px" viewBox="0 0 56 56" version="1.1" xmlns="http://www.w3.org/2000/svg" xmlns:xlink="http://www.w3.org/1999/xlink">
    <!-- Generator: Sketch 52.2 (67145) - http://www.bohemiancoding.com/sketch -->
    <title>业务设置03</title>
    <desc>Created with Sketch.</desc>
    <g id="业务设置03" stroke="none" stroke-width="1" fill="none" fill-rule="evenodd">
        <g id="window" transform="translate(7.000000, 10.000000)">
            <path d="M3.36,2 L38.64,2 C40.88,2 42,3.1269418 42,5.3808254 L42,32.8500317 C42,35.1039153 40.88,36.2308571 38.64,36.2308571 L3.36,36.2308571 C1.12,36.2308571 0,35.1039153 0,32.8500317 L0,5.3808254 C0,3.1269418 1.12,2 3.36,2 Z" id="Path" fill="#418BF8"></path>
            <path d="M27.3363917,25.1219681 C26.3468746,25.2919638 25.5909935,26.1419422 25.6494025,27.1653163 C25.7662205,28.9230717 23.6738041,29.8886472 22.333833,28.6986774 C21.5779518,28.0186946 20.4166435,28.0186946 19.6607624,28.6986774 C18.3826361,29.8886472 16.2318107,28.8686731 16.3451929,27.1653163 C16.4036019,26.1453421 15.7061297,25.2919638 14.6582036,25.1219681 C12.9128054,24.8397752 12.3905602,22.6264313 13.8439135,21.6608558 C14.7166126,21.0930702 14.9502486,20.0152975 14.4245676,19.1075205 C13.5518685,17.5741594 15.0052218,15.816404 16.692211,16.326391 C17.6817282,16.6085839 18.7262185,16.1563953 19.0766724,15.1908198 C19.7157356,13.6030601 22.100197,13.6030601 22.7392601,15.1908198 C23.0897141,16.0985968 24.1342044,16.6085839 25.1237215,16.326391 C26.8107108,15.816404 28.264064,17.6319579 27.3913649,19.1075205 C26.8691198,19.957499 27.1577289,21.0930702 27.9720191,21.6608558 C29.6624441,22.6230314 29.140199,24.8363753 27.3363917,25.1219681 Z M21.0041693,18.8729265 C19.3103084,18.8729265 17.9291074,20.2396918 17.9291074,21.9158493 C17.9291074,23.5920068 19.3103084,24.9587722 21.0041693,24.9587722 C22.6980302,24.9587722 24.0792312,23.5920068 24.0792312,21.9158493 C24.0792312,20.2396918 22.6980302,18.8729265 21.0041693,18.8729265 Z" id="Combined-Shape" fill="#FFFFFF"></path>
            <path d="M3.36,0.0280634921 L38.64,0.0280634921 C40.4956768,0.0280634921 42,1.54171058 42,3.40888889 L42,7.63492063 L0,7.63492063 L0,3.40888889 C-2.2725486e-16,1.54171058 1.50432324,0.0280634921 3.36,0.0280634921 Z" id="Path" fill="#88B8FA"></path>
            <path d="M2.94,3.83149206 C2.94,4.76508122 3.69216162,5.52190476 4.62,5.52190476 C5.54783838,5.52190476 6.3,4.76508122 6.3,3.83149206 C6.3,2.89790291 5.54783838,2.14107937 4.62,2.14107937 C3.69216162,2.14107937 2.94,2.89790291 2.94,3.83149206 Z" id="Path" fill="#CDE2FF"></path>
            <path d="M7.98,3.83149206 C7.98,4.76508122 8.73216162,5.52190476 9.66,5.52190476 C10.5878384,5.52190476 11.34,4.76508122 11.34,3.83149206 C11.34,2.89790291 10.5878384,2.14107937 9.66,2.14107937 C8.73216162,2.14107937 7.98,2.89790291 7.98,3.83149206 Z" id="Path" fill="#CDE2FF"></path>
            <path d="M13.02,3.83149206 C13.02,4.43541837 13.3402062,4.99346929 13.86,5.29543245 C14.3797938,5.5973956 15.0202062,5.5973956 15.54,5.29543245 C16.0597938,4.99346929 16.38,4.43541837 16.38,3.83149206 C16.38,3.22756576 16.0597938,2.66951484 15.54,2.36755168 C15.0202062,2.06558853 14.3797938,2.06558853 13.86,2.36755168 C13.3402062,2.66951484 13.02,3.22756576 13.02,3.83149206 Z" id="Path" fill="#CDE2FF"></path>
        </g>
    </g>
</svg>