<?xml version="1.0" encoding="UTF-8"?>
<svg width="56px" height="56px" viewBox="0 0 56 56" version="1.1" xmlns="http://www.w3.org/2000/svg" xmlns:xlink="http://www.w3.org/1999/xlink">
    <!-- Generator: Sketch 52.2 (67145) - http://www.bohemiancoding.com/sketch -->
    <title>业务处理01</title>
    <desc>Created with Sketch.</desc>
    <g id="业务处理01" stroke="none" stroke-width="1" fill="none" fill-rule="evenodd">
        <g id="安全中心" transform="translate(10.000000, 7.000000)">
            <path d="M4.77921196,39.2863207 C4.77921196,40.5486725 10.8151557,41.5720109 18.2608696,41.5720109 C25.7065835,41.5720109 31.7425272,40.5486725 31.7425272,39.2863207 C31.7425272,38.0239688 25.7065835,37.0006304 18.2608696,37.0006304 C10.8151557,37.0006304 4.77921196,38.0239688 4.77921196,39.2863207 Z" id="Path" fill="#B8E4CF"></path>
            <path d="M19.2255571,0.628316576 C21.4389457,1.6023913 23.9321535,2.5606875 26.7047813,3.50360462 C29.2960762,4.38590983 31.9172245,5.17797665 34.5634891,5.87837364 C35.5496183,6.13894303 36.2365308,7.03104354 36.236413,8.05101766 L36.236413,16.8646264 C36.2365045,23.4881156 33.0302624,29.7018842 27.6321196,33.5399389 L19.5630978,39.2767337 C18.7835136,39.8310865 17.7384253,39.8310865 16.958841,39.2767337 L8.88981929,33.5397391 C3.49167645,29.7016844 0.285434393,23.4879159 0.285525815,16.8644266 L0.285525815,8.0837731 C0.28554072,7.04648015 0.995616593,6.1440078 2.00378804,5.89994429 C5.42393478,5.07227038 8.26606793,4.27355707 10.5301875,3.50360462 C12.8542382,2.7120916 15.1228674,1.76634015 17.3209484,0.67265625 C17.9178239,0.376143687 18.6155299,0.359900949 19.2255571,0.628316576 Z M16.8082459,18.3795652 L13.9031984,15.4241861 C13.5212462,15.032826 12.9975294,14.8121538 12.4506746,14.8121538 C11.9038198,14.8121538 11.380103,15.032826 10.9981508,15.4241861 C10.1960421,16.2402758 10.1960421,17.5632758 10.9981508,18.3795652 L15.355822,22.8123342 C15.7377742,23.2036944 16.261491,23.4243666 16.8083458,23.4243666 C17.3552006,23.4243666 17.8789174,23.2036944 18.2608696,22.8123342 L25.5235883,15.4243859 C26.325697,14.6080965 26.325697,13.2850965 25.5235883,12.4690068 C25.1416362,12.0776467 24.6179194,11.8569745 24.0710645,11.8569745 C23.5242097,11.8569745 23.0004929,12.0776467 22.6185408,12.4690068 L16.8084457,18.3795652 L16.8082459,18.3795652 Z" id="Shape" fill="#4DBB88" fill-rule="nonzero"></path>
        </g>
    </g>
</svg>