<?xml version="1.0" encoding="UTF-8"?>
<svg width="56px" height="56px" viewBox="0 0 56 56" version="1.1" xmlns="http://www.w3.org/2000/svg" xmlns:xlink="http://www.w3.org/1999/xlink">
    <!-- Generator: Sketch 52.2 (67145) - http://www.bohemiancoding.com/sketch -->
    <title>业务处理02</title>
    <desc>Created with Sketch.</desc>
    <g id="业务处理02" stroke="none" stroke-width="1" fill="none" fill-rule="evenodd">
        <g id="角色管理" transform="translate(9.000000, 7.000000)">
            <path d="M20.5068097,26.3252677 C20.554482,25.3501512 20.8660597,24.4055412 21.4090392,23.5899787 C22.4188055,22.2965245 23.1570605,20.8168366 23.5805069,19.2376956 C24.7823526,18.2600542 25.5460315,16.8538274 25.7060985,15.3236633 C25.8437267,12.9964008 25.2626297,12.8755041 25.2626297,12.875504 C26.1189832,10.3366723 26.3789476,0.785828859 20.1703851,1.88901173 C19.1916954,-0.136008879 12.6772924,-1.70766664 9.63417928,3.65712674 C7.99678241,6.48944033 7.67358743,9.88160523 8.74724178,12.9661766 C8.74724178,13.1777459 8.33435707,12.7546073 8.19672884,14.1146958 C8.13074276,15.5701084 8.53218241,17.0088656 9.34363081,18.2251853 C9.62287833,18.5670223 9.98616595,18.8323798 10.3987806,18.9959021 C10.786015,20.6575964 11.5551914,22.2088739 12.6467084,23.5295303 C12.8469284,24.6252828 12.3012954,25.7220907 11.3010101,26.2345951 C5.39828813,27.4284505 0.000202995951,30.6473265 0.000202995951,34.1382202 L0.000202995951,36.8432851 C0.688344162,41.7244914 14.0994508,41.3769133 23.1523301,41.1804561 C23.509742,40.938144 23.622287,40.4670914 23.4122946,40.0923853 C22.8395629,39.2942998 22.0339711,38.6879886 21.1031987,38.3544945 C21.1031987,38.278934 20.8279422,38.2335977 20.7973582,38.1580372 C20.4281681,37.4079259 20.3052071,36.5626101 20.4456416,35.7401022 C20.4456416,35.7401022 20.4762256,26.4612765 20.5068097,26.3252677 Z" id="Path" fill="#EA5241"></path>
            <path d="M33.2439966,25.5020835 L31.1436385,23.426121 C31.1177336,23.401378 31.0896609,23.3790093 31.0597579,23.3592839 C30.9872126,23.3099034 30.9045471,23.2773624 30.8178073,23.2640409 C30.7991253,23.2608603 30.7802627,23.2588513 30.7613299,23.2580256 C30.7061632,23.2542117 30.6507366,23.2587179 30.5969105,23.271393 C30.5252565,23.287996 30.4572812,23.3176785 30.396399,23.3589497 C30.364883,23.3807995 30.3354602,23.4055236 30.3085081,23.4328048 L28.2515942,25.5074305 C28.1749006,25.5849564 28.1207246,25.6818727 28.094861,25.7878125 C28.0836216,25.8330814 28.0777883,25.8795231 28.0774834,25.9261654 C28.0759143,26.0691766 28.1251822,26.2080979 28.2165047,26.3181654 C28.2271986,26.3311986 28.238561,26.3438977 28.2499233,26.3559284 C28.3139712,26.4205463 28.3919221,26.4696942 28.477838,26.4996283 C28.5510379,26.5248278 28.6284784,26.5353879 28.7057528,26.5307076 C28.766444,26.5275189 28.8262365,26.5146578 28.8828713,26.4926104 L28.9162899,26.4926104 L28.9440273,26.464873 L28.9774459,26.4464927 L29.0108645,26.425439 L28.9216369,26.2957749 L29.0553111,26.3920205 C29.0690128,26.380324 29.0823802,26.3679591 29.1044365,26.3455686 L30.1367366,25.3042455 L30.1367366,30.6749463 C30.1350197,30.8350033 30.1978441,30.9890055 30.311028,31.1021894 C30.4242119,31.2153733 30.5782141,31.2781976 30.7382711,31.2764808 C30.8110086,31.2757491 30.8829729,31.2614696 30.9504791,31.2343734 C31.0222584,31.2054722 31.0877448,31.1629117 31.1433043,31.1090537 C31.2188397,31.0353593 31.2737927,30.9431949 31.302711,30.841705 C31.3180593,30.7881347 31.3258211,30.732677 31.3257698,30.6769514 L31.3257698,25.2898755 L32.4108713,26.3626121 C32.4428428,26.3942611 32.4783951,26.4220749 32.5168082,26.4454902 C32.5897573,26.4902718 32.6714676,26.5188761 32.7564195,26.5293708 C32.780045,26.5321684 32.8038106,26.5336189 32.827601,26.5337153 L32.8733845,26.5317101 C32.9072271,26.5290807 32.9407741,26.5234896 32.9736402,26.5150009 C33.0795231,26.4879029 33.1757881,26.4319026 33.2516829,26.3532549 C33.290435,26.3135922 33.3232972,26.2685756 33.3492651,26.2195805 C33.4762239,25.9837582 33.4329872,25.6925223 33.242994,25.5037545 L33.2439966,25.5020835 Z" id="Path" fill="#F08275"></path>
            <path d="M38.8168798,29.3378687 L33.2025576,27.3147076 C33.01966,27.2595798 32.8213517,27.2977994 32.6720431,27.4169528 C32.5227345,27.5361062 32.441472,27.7209935 32.4546496,27.9115635 L32.4546496,27.9877579 C32.4478252,28.2510403 32.6067113,28.4903716 32.8519966,28.5862847 L37.4126309,30.1836931 L30.8221518,32.4922489 C30.6754205,32.5438591 30.5152834,32.5426773 30.3693299,32.4889071 L24.086636,30.1830247 L28.6546223,28.5067485 C28.8960165,28.4086685 29.0514634,28.1713725 29.0449514,27.9108951 C29.0580057,27.7202966 28.976658,27.5354342 28.8273078,27.4163009 C28.6779575,27.2971676 28.479638,27.2589457 28.2967093,27.3140392 L22.682387,29.3372003 C22.4018805,29.4495618 22.2208655,29.7245499 22.2285626,30.0266257 L22.2285626,36.3530981 C22.2139501,36.9242507 22.5562998,37.4441743 23.0867519,37.6564228 L30.1965558,40.2179574 C30.5542179,40.347629 30.9460515,40.347629 31.3037136,40.2179574 L38.4135175,37.6564228 C38.9440366,37.4442032 39.2865022,36.9243061 39.2720409,36.3530981 L39.2720409,30.0272941 C39.2794272,29.7249128 39.0978478,29.4498775 38.8168798,29.3378687 Z" id="Path" fill="#F08275"></path>
        </g>
    </g>
</svg>