<?xml version="1.0" encoding="UTF-8"?>
<svg width="56px" height="56px" viewBox="0 0 56 56" version="1.1" xmlns="http://www.w3.org/2000/svg" xmlns:xlink="http://www.w3.org/1999/xlink">
    <!-- Generator: Sketch 52.2 (67145) - http://www.bohemiancoding.com/sketch -->
    <title>业务处理05</title>
    <desc>Created with Sketch.</desc>
    <g id="业务处理05" stroke="none" stroke-width="1" fill="none" fill-rule="evenodd">
        <g id="出纳付款-(1)" transform="translate(7.000000, 8.000000)">
            <path d="M40.418,23.9986158 C38.0548,22.7679893 28.0812,29.6511072 26.2472,29.6511072 C26.2472,29.6511072 22.8382,30.6314132 18.1104,27.9282301 C13.384,25.4711724 9.9736,23.0127162 9.9736,23.0127162 C9.9736,23.0127162 6.8236,21.2926359 3.15,23.5035683 C2.13022266,24.1309281 1.07883549,24.7055124 2.84217094e-14,25.225047 L2.84217094e-14,37.759258 C2.84217094e-14,37.759258 2.884,34.5652227 6.825,34.5652227 C10.7604,34.5652227 19.684,38.5004308 19.684,38.5004308 C19.684,38.5004308 23.093,39.9771826 25.718,38.5004308 L41.1992,27.6835032 C42.2562,27.1940495 42.5152,24.9803202 40.418,23.9986158 Z" id="Path" fill="#2FC8C2"></path>
            <path d="M22.9712,0 C15.6912,0 9.6684,5.76856187 9.6684,13.0334537 C9.6684,20.3011425 15.6926,26.5703456 22.9712,26.5703456 C30.2484,26.5703456 36.2684,20.5514631 36.2684,13.2823759 C36.2684,6.0188825 30.2442,0 22.9712,0 Z" id="Path" fill="#ACF3E9"></path>
            <path d="M21,13.9843924 L16.8,13.9843924 C16.0268014,13.9843924 15.4,13.3582898 15.4,12.5859532 C15.4,11.8136165 16.0268014,11.1875139 16.8,11.1875139 L19.0204,11.1875139 L15.8102,7.98089275 C15.4462608,7.62978036 15.3003024,7.10983587 15.428424,6.62090035 C15.5565456,6.13196483 15.9388085,5.75012804 16.4282897,5.62214926 C16.917771,5.49417048 17.4382957,5.63996618 17.7898,6.00349967 L22.4,10.6085601 L27.0102,6.00349967 C27.5595304,5.47353006 28.4327187,5.48110937 28.972746,6.02053465 C29.5127733,6.55995993 29.5203611,7.43217472 28.9898,7.98089275 L25.7796,11.1875139 L28,11.1875139 C28.7731986,11.1875139 29.4,11.8136165 29.4,12.5859532 C29.4,13.3582898 28.7731986,13.9843924 28,13.9843924 L23.8,13.9843924 L23.8,15.3828317 L26.6,15.3828317 C27.3731986,15.3828317 28,16.0089342 28,16.7812709 C28,17.5536076 27.3731986,18.1797101 26.6,18.1797101 L23.8,18.1797101 L23.8,19.5781494 C23.8,20.3504861 23.1731986,20.9765886 22.4,20.9765886 C21.6268014,20.9765886 21,20.3504861 21,19.5781494 L21,18.1797101 L18.2,18.1797101 C17.4268014,18.1797101 16.8,17.5536076 16.8,16.7812709 C16.8,16.0089342 17.4268014,15.3828317 18.2,15.3828317 L21,15.3828317 L21,13.9843924 Z" id="Path" fill="#FFFFFF"></path>
        </g>
    </g>
</svg>