<?xml version="1.0" encoding="UTF-8"?>
<svg width="56px" height="56px" viewBox="0 0 56 56" version="1.1" xmlns="http://www.w3.org/2000/svg" xmlns:xlink="http://www.w3.org/1999/xlink">
    <!-- Generator: Sketch 52.2 (67145) - http://www.bohemiancoding.com/sketch -->
    <title>业务设置04</title>
    <desc>Created with Sketch.</desc>
    <g id="业务设置04" stroke="none" stroke-width="1" fill="none" fill-rule="evenodd">
        <g id="服务集成" transform="translate(7.000000, 9.000000)">
            <path d="M40.9215815,27.2525106 L40.6153248,26.976898 C39.8611799,26.2355929 39.4223326,25.2317971 39.3902979,24.1748366 C39.369499,23.1249832 39.7596237,22.108529 40.4775093,21.3421517 L40.7684532,21.0665391 C41.2104963,20.6200861 41.3643628,19.9632387 41.1665869,19.3669281 C40.9273982,18.8405327 40.6563697,18.3291924 40.3550066,17.8357471 C40.0722239,17.326241 39.7496521,16.8398557 39.3902979,16.3811251 C38.9727079,15.9341882 38.3409153,15.7570619 37.7518244,15.9217708 L37.3536906,16.0442653 C35.2364153,16.5520067 33.0896381,15.3244007 32.453583,13.242204 L32.361706,12.8440969 C32.1768722,12.2742102 31.7056317,11.843723 31.1213662,11.7110229 C30.535385,11.6623083 29.9463712,11.6623083 29.36039,11.7110229 C28.7793037,11.6678356 28.195813,11.6678356 27.6147267,11.7110229 C27.0250212,11.8568912 26.5579996,12.3063694 26.3896997,12.8900323 L26.2978227,13.3034512 C26.0146771,14.3060165 25.3567411,15.1612761 24.4602823,15.6920936 C23.5384901,16.2383342 22.4416271,16.4083366 21.397715,16.1667598 L21.0148941,16.0902007 C20.4250817,15.9494809 19.8051476,16.1366183 19.3917335,16.5801786 C19.0405613,17.0682211 18.7233486,17.5798202 18.4423376,18.1113597 C18.1467046,18.6029605 17.885752,19.1145978 17.6613829,19.6425408 C17.496743,20.2307585 17.6604298,20.8620797 18.0901423,21.2962163 L18.3963991,21.5718289 C19.8898337,23.1532522 19.8898337,25.6251518 18.3963991,27.2065751 L18.1054552,27.4821877 C17.683082,27.9208853 17.5360079,28.5562029 17.7226343,29.1358633 C17.9509588,29.6675292 18.2223905,30.1796302 18.5342146,30.6670443 C18.8178717,31.2037227 19.1456754,31.7158816 19.5142362,32.1982253 C19.9389098,32.6333706 20.5636982,32.8085332 21.1527097,32.6575797 L21.5202177,32.5350852 C23.6347158,32.0072331 25.7930457,33.2241538 26.4356382,35.3065229 L26.5428281,35.70463 C26.7185017,36.2863541 27.1914056,36.7300366 27.7831678,36.8683276 C28.3694111,36.9102541 28.9579007,36.9102541 29.544144,36.8683276 C30.1280944,36.8866466 30.7124853,36.8507653 31.2898074,36.7611449 C31.8801906,36.6223073 32.3455847,36.1687258 32.4995215,35.5821355 L32.5913985,35.1840284 C32.8790755,34.1753801 33.5420863,33.3151676 34.4442517,32.7800741 C35.3433589,32.2483621 36.4128931,32.0838294 37.4302548,32.3207198 L37.8130757,32.4279025 C38.4030705,32.5754304 39.0264378,32.3872566 39.4362364,31.9379246 C39.7927364,31.4534647 40.1101995,30.9414617 40.3856323,30.4067435 C40.6857231,29.9200476 40.9419457,29.4076366 41.1512741,28.8755625 C41.3671265,28.3319953 41.2797885,27.7148483 40.9215815,27.2525106 Z M32.1779519,28.6918207 C30.3962594,29.759941 28.1462216,29.6481328 26.4792136,28.4086409 C24.8122055,27.169149 24.0573648,25.0467012 24.5674058,23.0330536 C25.0774468,21.019406 26.7516659,19.5121374 28.8077509,19.2155491 C30.8638359,18.9189607 32.895829,19.8916118 33.9542409,21.6790115 C34.6438507,22.851852 34.8376688,24.2511178 34.4928136,25.5672271 C34.1479583,26.8833363 33.2928582,28.0077949 32.1167006,28.6918207 L32.1779519,28.6918207 Z" id="Shape" fill="#FFCA72"></path>
            <path d="M14.1241177,30.6976679 C13.9012762,29.9440482 14.0934593,29.1287806 14.6294413,28.5540144 L15.0275751,28.186531 C15.9532187,27.1532492 16.4513614,25.8067119 16.4210432,24.4198256 C16.4283179,23.9014724 16.3560169,23.3850713 16.2066635,22.8886446 L6.05425288,22.8886446 C4.40484567,22.8308841 3.09786428,21.47659 3.09887546,19.8262825 L3.09887546,6.04565306 C3.09786428,4.39534555 4.40484567,3.04105143 6.05425288,2.98329095 L36.0827252,2.98329095 C37.7321324,3.04105141 39.0391138,4.39534554 39.0381027,6.04565306 L39.0381027,13.4718811 C39.295979,13.4422146 39.5517086,13.3961864 39.8037445,13.3340748 L40.3243809,13.1809567 C40.8752184,13.0259926 41.465152,13.097662 41.9628544,13.3800103 L41.9628544,3.07516183 C42.0136927,2.28039852 41.7329853,1.5000881 41.187495,0.919818205 C40.6420048,0.339548305 39.8804803,0.0111756201 39.0840412,0.0127997193 L2.99168562,0.0127997193 C1.34227839,0.0705601783 0.0352969738,1.42485431 0.0363081538,3.07516183 L0.0363081538,29.1052396 C0.0352969738,30.7555471 1.34227839,32.1098413 2.99168562,32.1676017 L14.8897595,32.1676017 C14.6202943,31.7031909 14.3799306,31.2224958 14.1700562,30.7282916 L14.1241177,30.6976679 Z M23.1280656,35.6740063 C21.9216618,34.9838623 20.4952789,34.7863764 19.1467281,35.1227811 L18.6567173,35.291211 C17.8792036,35.4925578 17.0535584,35.2583479 16.4976074,34.6787387 C16.087289,34.16807 15.7185985,33.625312 15.3950832,33.0556867 C14.4564537,33.6922623 13.5751743,34.4095347 12.7612753,35.1993402 C11.5056227,35.1993402 10.4643498,35.8730599 10.4643498,36.7305213 C10.4643498,37.5879826 11.5056227,38.2617023 12.7612753,38.2617023 L25.4403038,38.2617023 C24.974081,37.1728994 24.1612234,36.2685887 23.1280656,35.6893181 L23.1280656,35.6740063 Z" id="Shape" fill="#F9A315"></path>
        </g>
    </g>
</svg>