<?xml version="1.0" encoding="UTF-8"?>
<svg width="56px" height="56px" viewBox="0 0 56 56" version="1.1" xmlns="http://www.w3.org/2000/svg" xmlns:xlink="http://www.w3.org/1999/xlink">
    <!-- Generator: Sketch 52.2 (67145) - http://www.bohemiancoding.com/sketch -->
    <title>单据维护06</title>
    <desc>Created with Sketch.</desc>
    <g id="单据维护06" stroke="none" stroke-width="1" fill="none" fill-rule="evenodd">
        <g id="news" transform="translate(7.000000, 7.000000)">
            <path d="M32.5624263,13.5562264 L37.4677808,13.5562264 C39.4380736,13.5562264 41.0353114,15.1709298 41.0353114,17.1627673 L41.0353114,37.6749686 C41.0353114,40.0402756 39.1385915,41.9577358 36.7988689,41.9577358 C34.4591462,41.9577358 32.5624263,40.0402756 32.5624263,37.6749686 L32.5624263,13.5562264 Z" id="Path" fill="#F08275"></path>
            <path d="M0.00870979145,3.63823899 C0.00870979145,1.64640147 1.60594764,0.0316981132 3.57624037,0.0316981132 L29.6664834,0.0316981132 C31.6367761,0.0316981132 33.2340139,1.64640147 33.2340139,3.63823899 L33.2340139,37.6700096 C33.2340139,40.0380554 35.1329301,41.9577358 37.4753618,41.9577358 L37.9137222,41.9577358 L3.57624037,41.9577358 C1.60594764,41.9577358 0.00870979145,40.3430325 0.00870979145,38.351195 L0.00870979145,3.63823899 Z" id="Path" fill="#EA5241"></path>
            <rect id="Rectangle-Copy" fill="#FFFFFF" transform="translate(15.900000, 21.866667) rotate(90.000000) translate(-15.900000, -21.866667) " x="14.0333333" y="10.9666667" width="3.73333333" height="21.8" rx="1.86666667"></rect>
            <rect id="Rectangle-Copy-2" fill="#FFFFFF" transform="translate(15.900000, 28.338868) rotate(90.000000) translate(-15.900000, -28.338868) " x="14.0333333" y="17.4388679" width="3.73333333" height="21.8" rx="1.86666667"></rect>
            <path d="M6.78376529,7 L12.1350612,7 C13.324238,7 13.9188264,7.60109015 13.9188264,8.80327044 L13.9188264,14.2130818 C13.9188264,15.4152621 13.324238,16.0163522 12.1350612,16.0163522 L6.78376529,16.0163522 C5.59458843,16.0163522 5,15.4152621 5,14.2130818 L5,8.80327044 C5,7.60109015 5.59458843,7 6.78376529,7 Z" id="Path" fill="#FFFFFF"></path>
            <path d="M18.7382453,7.69559748 L25.8733065,7.69559748 C26.7651891,7.69559748 27.2111304,8.14641509 27.2111304,9.04805031 C27.2111304,9.94968553 26.7651891,10.4005031 25.8733065,10.4005031 L18.7382453,10.4005031 C17.8463627,10.4005031 17.4004214,9.94968553 17.4004214,9.04805031 C17.4004214,8.14641509 17.8463627,7.69559748 18.7382453,7.69559748 Z" id="Path" fill="#FFFFFF"></path>
            <path d="M18.7382453,13.5562264 L25.8733065,13.5562264 C26.7651891,13.5562264 27.2111304,14.007044 27.2111304,14.9086792 C27.2111304,15.8103145 26.7651891,16.2611321 25.8733065,16.2611321 L18.7382453,16.2611321 C17.8463627,16.2611321 17.4004214,15.8103145 17.4004214,14.9086792 C17.4004214,14.007044 17.8463627,13.5562264 18.7382453,13.5562264 Z" id="Path" fill="#FFFFFF"></path>
        </g>
    </g>
</svg>