<?xml version="1.0" encoding="UTF-8"?>
<svg width="56px" height="56px" viewBox="0 0 56 56" version="1.1" xmlns="http://www.w3.org/2000/svg" xmlns:xlink="http://www.w3.org/1999/xlink">
    <!-- Generator: Sketch 52.2 (67145) - http://www.bohemiancoding.com/sketch -->
    <title>单据维护05</title>
    <desc>Created with Sketch.</desc>
    <g id="单据维护05" stroke="none" stroke-width="1" fill="none" fill-rule="evenodd">
        <g id="文件,文档file_document" transform="translate(7.000000, 7.000000)">
            <path d="M21,6.99950561 L39.6466806,6.99950561 C40.9342555,6.99950561 41.9780105,8.04428086 41.9780105,9.33311437 L41.9780105,39.6634249 C41.9780105,40.9522584 40.9342555,41.9970337 39.6466806,41.9970337 L21,41.9970337 L21,6.99950561 Z" id="Path" fill="#AFE0C9"></path>
            <path d="M41.9780105,34.9975281 L41.9780105,39.6638651 C41.9780105,40.9526986 40.9342555,41.9974739 39.6466806,41.9974739 L2.35331939,41.9974739 C1.0657445,41.9974739 0.021989543,40.9526986 0.021989543,39.6638651 L0.021989543,34.9975281 C0.021989543,36.2863616 1.0657445,37.3311368 2.35331939,37.3311368 L39.6466806,37.3311368 C40.9342555,37.3311368 41.9780105,36.2863615 41.9780105,34.9975281 Z" id="Path" fill="#AFE0C9"></path>
            <path d="M25.8410827,13.9990112 L34.9849005,13.9990112 C36.2724754,13.9990112 37.3162304,15.0437865 37.3162304,16.33262 L37.3162304,39.6634249 C37.3162304,40.9522584 36.2724754,41.9970337 34.9849005,41.9970337 L2.35331939,41.9970337 C1.0657445,41.9970337 0.021989543,40.9522584 0.021989543,39.6634249 L0.021989543,2.33360876 C0.021989543,1.04477525 1.0657445,0 2.35331939,0 L19.8160398,0 C20.8395204,0 21.7432901,0.668166628 22.0442827,1.64730503 L25.8410827,13.9990112 Z" id="Path" fill="#44B27D"></path>
            <path d="M37.3162304,34.9975281 L37.3162304,39.6638651 C37.3162304,40.9526986 36.2724754,41.9974739 34.9849005,41.9974739 L2.35331939,41.9974739 C1.0657445,41.9974739 0.021989543,40.9526986 0.021989543,39.6638651 L0.021989543,34.9975281 C0.021989543,36.2863616 1.0657445,37.3311368 2.35331939,37.3311368 L34.9849005,37.3311368 C36.2724754,37.3311368 37.3162304,36.2863615 37.3162304,34.9975281 Z" id="Path" fill="#44B27D"></path>
            <path d="M7.0146597,20.2207793 L21,20.2207793 L21,23.3316854 L7.0146597,23.3316854 L7.0146597,20.2207793 Z M7.0146597,27.9980224 L25.6617801,27.9980224 L25.6617801,31.1089285 L7.0146597,31.1089285 L7.0146597,27.9980224 Z" id="Shape" fill="#FFFFFF" fill-rule="nonzero"></path>
        </g>
    </g>
</svg>