<?xml version="1.0" encoding="UTF-8"?>
<svg width="56px" height="56px" viewBox="0 0 56 56" version="1.1" xmlns="http://www.w3.org/2000/svg" xmlns:xlink="http://www.w3.org/1999/xlink">
    <!-- Generator: Sketch 52.2 (67145) - http://www.bohemiancoding.com/sketch -->
    <title>基础档案05</title>
    <desc>Created with Sketch.</desc>
    <g id="基础档案05" stroke="none" stroke-width="1" fill="none" fill-rule="evenodd">
        <g id="foldertext" transform="translate(7.000000, 10.000000)">
            <path d="M3.36,0.00816143498 L17.64,0.00816143498 C19.88,0.00816143498 21,1.12246936 21,3.3510852 L21,27.5872825 C21,29.8158984 19.88,30.9302063 17.64,30.9302063 L3.36,30.9302063 C1.12,30.9302063 -4.26325641e-14,29.8158984 -4.26325641e-14,27.5872825 L-4.26325641e-14,3.3510852 C-4.26325641e-14,1.12246936 1.12,0.00816143498 3.36,0.00816143498 Z" id="Path" fill="#AFE0C9"></path>
            <path d="M3.36,5.44041256 L38.64,5.44041256 C40.88,5.44041256 42,6.55472048 42,8.78333632 L42,33.0195336 C42,35.2481495 40.88,36.3624574 38.64,36.3624574 L3.36,36.3624574 C1.12,36.3624574 -4.26325641e-14,35.2481495 -4.26325641e-14,33.0195336 L-4.26325641e-14,8.78333632 C-4.26325641e-14,6.55472048 1.12,5.44041256 3.36,5.44041256 Z" id="Path" fill="#44B27D"></path>
            <path d="M4.62,14.6334529 C4.62,13.2487686 5.74824243,12.1262601 7.14,12.1262601 L13.44,12.1262601 C14.8317576,12.1262601 15.96,13.2487686 15.96,14.6334529 L15.96,20.901435 C15.96,22.2861193 14.8317576,23.4086278 13.44,23.4086278 L7.14,23.4086278 C5.74824243,23.4086278 4.62,22.2861193 4.62,20.901435 L4.62,14.6334529 Z" id="Path" fill="#FFFFFF"></path>
            <path d="M20.16,13.797722 C20.16,12.8745991 20.9121616,12.1262601 21.84,12.1262601 L34.86,12.1262601 C35.7878384,12.1262601 36.54,12.8745991 36.54,13.797722 C36.54,14.7208449 35.7878384,15.4691839 34.86,15.4691839 L21.84,15.4691839 C20.9121616,15.4691839 20.16,14.7208449 20.16,13.797722 Z M20.16,20.901435 C20.16,20.4581357 20.3369995,20.0329929 20.6520606,19.7195329 C20.9671217,19.406073 21.3944363,19.2299731 21.84,19.2299731 L34.86,19.2299731 C35.7878384,19.2299731 36.54,19.9783121 36.54,20.901435 C36.54,21.8245579 35.7878384,22.5728969 34.86,22.5728969 L21.84,22.5728969 C21.3944363,22.5728969 20.9671217,22.3967969 20.6520606,22.083337 C20.3369995,21.7698771 20.16,21.3447342 20.16,20.901435 Z M20.16,28.8408789 C20.16,27.917756 20.9121616,27.169417 21.84,27.169417 L34.86,27.169417 C35.7878384,27.169417 36.54,27.917756 36.54,28.8408789 C36.54,29.7640018 35.7878384,30.5123408 34.86,30.5123408 L21.84,30.5123408 C20.9121616,30.5123408 20.16,29.7640018 20.16,28.8408789 Z" id="Shape" fill="#FFFFFF" fill-rule="nonzero"></path>
        </g>
    </g>
</svg>