<?xml version="1.0" encoding="UTF-8"?>
<svg width="56px" height="56px" viewBox="0 0 56 56" version="1.1" xmlns="http://www.w3.org/2000/svg" xmlns:xlink="http://www.w3.org/1999/xlink">
    <!-- Generator: Sketch 52.2 (67145) - http://www.bohemiancoding.com/sketch -->
    <title>报表查询06</title>
    <desc>Created with Sketch.</desc>
    <g id="报表查询06" stroke="none" stroke-width="1" fill="none" fill-rule="evenodd">
        <g id="Query-statistics" transform="translate(8.000000, 8.000000)">
            <path d="M29.6668863,27.0395179 L33.0400627,30.2977189 C33.3802262,30.6263072 33.8370053,30.8062811 34.3098832,30.7980365 C34.782761,30.7897919 35.2329887,30.5940042 35.561491,30.2537577 L37.3871488,28.3630035 C38.0715034,27.6543524 38.0518215,26.5251023 37.3431876,25.8407298 L30.5055307,19.2376735 C31.6175364,17.434392 32.2048145,15.3568154 32.2014184,13.2382382 C32.2050551,10.6232392 31.310281,8.08635454 29.6668863,6.05227327 L29.6668863,1.78634634 C29.6667741,1.31332821 29.8546302,0.85965148 30.1891045,0.525177148 C30.5235788,0.190702817 30.9772556,0.00284677068 31.4502737,0.00295892673 L36.208885,0.00295892673 C37.1938911,0.00295889907 37.9924617,0.801340294 37.9926951,1.78634634 L37.9926951,33.420232 C37.9926951,33.8933278 37.8047586,34.3470469 37.4702293,34.6815762 C37.1357,35.0161055 36.6819809,35.2040421 36.208885,35.2040421 L31.4502737,35.2040421 C30.9772167,35.2040421 30.5235411,35.016092 30.1890789,34.6815506 C29.8546167,34.3470091 29.6667741,33.893289 29.6668863,33.420232 L29.6668863,27.0395179 Z M23.1612862,33.4198093 C23.1612862,34.4049804 22.5173351,35.2036194 21.7229812,35.2036194 L16.2731006,35.2036194 C15.8917011,35.2036195 15.5259327,35.0156559 15.2563064,34.6811023 C14.9866801,34.3465487 14.8352965,33.8928274 14.8354774,33.4198093 L14.8354772,24.0466576 C16.2737152,25.1251928 17.9229875,25.693651 19.6036968,25.69013 C20.8249023,25.6920781 22.0342248,25.3927746 23.1612862,24.809638 L23.1612862,33.4198093 Z M3.09655284,17.0400363 L7.23680696,17.0400363 C7.5265967,17.0401484 7.80448635,17.228206 8.00932579,17.5628267 C8.21416523,17.8974475 8.32916973,18.3512122 8.32903235,18.8242691 L8.32903235,33.420232 C8.32916975,33.8932501 8.21415699,34.3469714 8.0093101,34.681525 C7.80446321,35.0160786 7.52657289,35.2040422 7.23680696,35.2040421 L3.09655284,35.2040421 C2.49314852,35.2038087 2.00406849,34.4052381 2.0040685,33.420232 L2.0040685,18.8242691 C2.00399982,18.3511733 2.11906193,17.8974097 2.32394249,17.5628011 C2.52882305,17.2281925 2.8067393,17.0401484 3.09655284,17.0400363 Z M1.27091187,36.6116458 L38.7245837,36.6116458 C39.4244472,36.611879 39.9918059,37.1790484 39.9922724,37.8789119 L39.9922724,38.7234741 C39.9918059,39.4233375 39.4244472,39.990507 38.7245837,39.9907401 L1.27091187,39.9907401 C0.571281898,39.9902736 0.00430165651,39.4231042 0.00406852425,38.7234741 L0.00406852425,37.8789119 C0.00430165651,37.1792818 0.571281898,36.6121124 1.27091187,36.6116458 Z" id="Shape" fill="#EA5241"></path>
            <path d="M28.701008,19.4515616 L28.7018535,19.4532524 L35.5555732,26.0715261 C36.0588675,26.5578215 36.0726823,27.3600312 35.5864305,27.8633676 L34.9992949,28.470793 C34.7660666,28.7127786 34.4461897,28.8520961 34.1101582,28.8580428 C33.7741267,28.8639896 33.4495207,28.7360776 33.2078762,28.5024958 L26.3545792,21.8837994 C26.303328,21.8342128 26.2562487,21.7804887 26.2138188,21.7231719 C24.5852349,22.774272 22.6874248,23.3319593 20.7491038,23.3290237 C15.175754,23.3290237 10.6578956,18.8111653 10.6578956,13.2382382 C10.6578956,7.66531104 15.175754,3.14745263 20.7491038,3.14745263 C26.3224537,3.14745263 30.8403121,7.66488834 30.8403121,13.2382382 C30.8437104,15.4905732 30.0903033,17.6787437 28.701008,19.4515616 Z M20.7491038,20.5129709 C24.7664809,20.5129709 28.0238365,17.256038 28.0238365,13.2382382 C28.0238365,9.22043839 24.7664809,5.96350547 20.7491038,5.96350547 C16.731304,5.96350547 13.4743711,9.22043839 13.4743711,13.2382382 C13.4743711,17.256038 16.731304,20.5129709 20.7491038,20.5129709 Z" id="Combined-Shape" fill="#F08275"></path>
        </g>
    </g>
</svg>