<?xml version="1.0" encoding="UTF-8"?>
<svg width="56px" height="56px" viewBox="0 0 56 56" version="1.1" xmlns="http://www.w3.org/2000/svg" xmlns:xlink="http://www.w3.org/1999/xlink">
    <!-- Generator: Sketch 52.2 (67145) - http://www.bohemiancoding.com/sketch -->
    <title>报表查询02</title>
    <desc>Created with Sketch.</desc>
    <g id="报表查询02" stroke="none" stroke-width="1" fill="none" fill-rule="evenodd">
        <g id="数据看板" transform="translate(7.000000, 9.000000)">
            <path d="M2.99977501,-2.72132605e-14 L38.9970752,-2.72132605e-14 C40.9969252,-2.72132605e-14 41.9968502,0.99303663 41.9968502,2.97910989 L41.9968502,29.791099 C41.9968502,31.7771723 40.9969252,32.7702089 38.9970752,32.7702089 L2.99977501,32.7702089 C0.999925002,32.7702089 -2.84217094e-14,31.7771723 -2.84217094e-14,29.791099 L-2.84217094e-14,2.97910989 C-2.84217094e-14,0.99303663 0.999925002,-2.84217094e-14 2.99977501,-2.72132605e-14 Z" id="Path" fill="#EA5241"></path>
            <path d="M41.9968502,26.8119891 L41.9968502,29.791099 C41.9968502,31.436416 40.6538052,32.7702089 38.9970752,32.7702089 L25.2281079,32.7702089 L29.3078019,37.2388737 L28.1978852,38.2368756 L23.2182586,32.7702089 L18.7185961,32.7702089 L13.7989651,38.2666667 L12.6890483,37.2388737 L16.7687423,32.7702089 L2.99977501,32.7702089 C1.34304502,32.7702089 3.04207899e-16,31.436416 0,29.791099 L0,26.8119891 L41.9968502,26.8119891 Z" id="Path" fill="#F4A096"></path>
            <path d="M12.4992126,9.46866485 L12.4992126,9.46866485 C13.6037821,9.46866485 14.4992126,10.3640954 14.4992126,11.4686649 L14.4992126,22.4686649 C14.4992126,23.5732344 13.6037821,24.4686649 12.4992126,24.4686649 L12.4992126,24.4686649 C11.3946431,24.4686649 10.4992126,23.5732344 10.4992126,22.4686649 L10.4992126,11.4686649 C10.4992126,10.3640954 11.3946431,9.46866485 12.4992126,9.46866485 Z M20,14.4686649 L20,14.4686649 C21.1045695,14.4686649 22,15.3640954 22,16.4686649 L22,22.4686649 C22,23.5732344 21.1045695,24.4686649 20,24.4686649 L20,24.4686649 C18.8954305,24.4686649 18,23.5732344 18,22.4686649 L18,16.4686649 C18,15.3640954 18.8954305,14.4686649 20,14.4686649 Z M28,17.4686649 L28,17.4686649 C29.1045695,17.4686649 30,18.3640954 30,19.4686649 L30,22.4686649 C30,23.5732344 29.1045695,24.4686649 28,24.4686649 L28,24.4686649 C26.8954305,24.4686649 26,23.5732344 26,22.4686649 L26,19.4686649 C26,18.3640954 26.8954305,17.4686649 28,17.4686649 Z M19.9035072,4.96866485 L19.9035072,10.2396912 C19.9035072,10.5158336 20.1273649,10.7396912 20.4035072,10.7396912 L28.9028323,10.7396912 L28.9028323,9.09016592 C28.9028323,8.9244805 29.0371469,8.79016592 29.2028323,8.79016592 C29.2677027,8.79016592 29.3308254,8.81119292 29.3827371,8.85009456 L32.6637713,11.3088377 C32.796359,11.4081964 32.8232965,11.5962261 32.7239378,11.7288139 C32.7044858,11.7547714 32.6809527,11.7774024 32.6542551,11.7958255 L29.3882198,14.049606 C29.2518516,14.143709 29.0650178,14.1094464 28.9709148,13.9730782 C28.9363451,13.9229821 28.9178311,13.8635557 28.9178311,13.8026896 L28.9178311,12.2292461 L18.7086343,12.2292461 C18.432492,12.2292461 18.2086343,12.0053885 18.2086343,11.7292461 L18.2086343,6.45821981 C18.2086343,6.18207744 17.9847767,5.95821981 17.7086343,5.95821981 L10.9992126,5.95821981 C10.7230702,5.95821981 10.4992126,5.73436219 10.4992126,5.45821981 L10.4992126,4.96866485 C10.4992126,4.69252248 10.7230702,4.46866485 10.9992126,4.46866485 L19.4035072,4.46866485 C19.6796496,4.46866485 19.9035072,4.69252248 19.9035072,4.96866485 Z" id="Shape" fill="#FFFFFF"></path>
            <path d="M19.4985376,29.791099 C19.4985285,30.3232717 19.7844035,30.8150235 20.248474,31.0811124 C20.7125446,31.3472014 21.2843057,31.3472014 21.7483762,31.0811124 C22.2124467,30.8150235 22.4983217,30.3232717 22.4983126,29.791099 C22.4983217,29.2589263 22.2124467,28.7671745 21.7483762,28.5010856 C21.2843057,28.2349966 20.7125446,28.2349966 20.248474,28.5010856 C19.7844035,28.7671745 19.4985285,29.2589263 19.4985376,29.791099 Z" id="Path" fill="#FFFFFF"></path>
        </g>
    </g>
</svg>