<?xml version="1.0" encoding="UTF-8"?>
<svg width="56px" height="56px" viewBox="0 0 56 56" version="1.1" xmlns="http://www.w3.org/2000/svg" xmlns:xlink="http://www.w3.org/1999/xlink">
    <!-- Generator: Sketch 52.2 (67145) - http://www.bohemiancoding.com/sketch -->
    <title>单据维护01</title>
    <desc>Created with Sketch.</desc>
    <g id="单据维护01" stroke="none" stroke-width="1" fill="none" fill-rule="evenodd">
        <g id="反馈-(1)" transform="translate(7.000000, 7.000000)">
            <g id="Group">
                <path d="M9.06815199,0.119318182 L32.931848,0.119318182 C36.2268196,0.119318182 38.8976676,2.790375 38.8976676,6.08513778 L38.8976676,29.9488338 L3.10233239,29.9488338 L3.10233239,6.08513778 C3.10233239,2.79016619 5.7733892,0.119318182 9.06815199,0.119318182 Z" id="Path" fill="#AFE0C9"></path>
                <path d="M11.5738338,6.08513778 L30.4261662,6.08513778 C32.0966207,6.08513778 32.931848,6.92036506 32.931848,8.5908196 C32.931848,10.2612741 32.0966207,11.0965014 30.4261662,11.0965014 L11.5738338,11.0965014 C9.90337926,11.0965014 9.06815199,10.2612741 9.06815199,8.5908196 C9.06815199,6.92036506 9.90337926,6.08513778 11.5738338,6.08513778 Z" id="Path" fill="#FFFFFF"></path>
                <path d="M11.5738338,17.1817585 L21.4773324,17.1817585 C23.1477869,17.1817585 23.9830142,18.0169858 23.9830142,19.6874403 C23.9830142,21.3578949 23.1477869,22.1931222 21.4773324,22.1931222 L11.5738338,22.1931222 C9.90337926,22.1931222 9.06815199,21.3578949 9.06815199,19.6874403 C9.06815199,18.0169858 9.90337926,17.1817585 11.5738338,17.1817585 Z" id="Path" fill="#FFFFFF"></path>
                <path d="M2.35000142,16.306858 L20.2915185,26.5436122 C20.7502498,26.8053232 21.3131796,26.8049261 21.7715412,26.5425682 L39.6483281,16.3116605 C40.1099476,16.0474749 40.6773209,16.0490991 41.1374204,16.3159232 C41.5975198,16.5827473 41.880717,17.0743919 41.8806818,17.6062628 L41.8806818,35.9148622 C41.8806818,39.2098338 39.209625,41.8806818 35.9148622,41.8806818 L6.08492898,41.8806818 C2.79016619,41.8806818 0.119318182,39.209625 0.119318182,35.9148622 L0.119318182,17.6022955 C0.119325576,17.0707895 0.402176813,16.5794472 0.861799217,16.3125281 C1.32142162,16.0456089 1.88835844,16.0434489 2.35000142,16.306858 Z" id="Path" fill="#44B27D"></path>
            </g>
        </g>
    </g>
</svg>