<?xml version="1.0" encoding="UTF-8"?>
<svg width="56px" height="56px" viewBox="0 0 56 56" version="1.1" xmlns="http://www.w3.org/2000/svg" xmlns:xlink="http://www.w3.org/1999/xlink">
    <!-- Generator: Sketch 52.2 (67145) - http://www.bohemiancoding.com/sketch -->
    <title>单据维护08</title>
    <desc>Created with Sketch.</desc>
    <g id="单据维护08" stroke="none" stroke-width="1" fill="none" fill-rule="evenodd">
        <g id="文件文档file_document" transform="translate(8.000000, 8.000000)">
            <path d="M2.27820756,18.2222222 L38.7217924,18.2222222 C40.2405975,18.2222222 41,18.9816247 41,20.5004298 L41,38.7217924 C41,40.2405975 40.2405975,41 38.7217924,41 L2.27820756,41 C0.759402521,41 2.84217094e-14,40.2405975 2.84217094e-14,38.7217924 L2.84217094e-14,20.5004298 C2.84217094e-14,18.9816247 0.759402521,18.2222222 2.27820756,18.2222222 Z" id="Path" fill="#F9A315"></path>
            <path d="M2.27820756,18.2222222 L38.7217924,18.2222222 C40.2405975,18.2222222 41,18.9816247 41,20.5004298 L41,34.1662369 C41,35.685042 40.2405975,36.4444445 38.7217924,36.4444444 L2.27820756,36.4444444 C0.759402521,36.4444444 2.84217094e-14,35.6850419 2.84217094e-14,34.1662369 L2.84217094e-14,20.5004298 C2.84217094e-14,18.9816247 0.759402521,18.2222222 2.27820756,18.2222222 Z" id="Path" fill="#F9A315"></path>
            <path d="M6.83333335,25.0555556 L34.1666667,25.0555556 C35.6851852,25.0555556 36.4444444,25.8148148 36.4444444,27.3333333 C36.4444444,28.8518519 35.6851852,29.6111111 34.1666667,29.6111111 L6.83333335,29.6111111 C5.31481483,29.6111111 4.55555556,28.8518519 4.55555556,27.3333333 C4.55555556,25.8148148 5.31481483,25.0555556 6.83333335,25.0555556 Z" id="Path" fill="#E49109"></path>
            <path d="M9.11154087,0 L31.8884591,0 C33.146695,0 34.1666667,1.01997169 34.1666667,2.27820756 L34.1666667,27.3333333 L6.83333335,27.3333333 L6.83333335,2.27820756 C6.83333335,1.01997169 7.85330504,0 9.11154087,0 Z" id="Path" fill="#FFCA72"></path>
            <path d="M4.55555556,27.3333333 L36.4444444,27.3333333 C36.4444444,28.5913113 35.4246446,29.6111111 34.1666667,29.6111111 L6.83333335,29.6111111 C5.57535537,29.6111111 4.55555556,28.5913113 4.55555556,27.3333333 Z" id="Path" fill="#FFCA72"></path>
            <polygon id="Path" fill="#FBBC52" points="6.83333335 27.3333333 34.1666667 27.3333333 34.1666667 29.6111111 6.83333335 29.6111111"></polygon>
            <path d="M11.3888889,6.83333335 L27.3333333,6.83333335 L27.3333333,9.87038468 L11.3888889,9.87038468 L11.3888889,6.83333335 Z M11.3888889,14.4259402 L20.5,14.4259402 L20.5,17.4629916 L11.3888889,17.4629916 L11.3888889,14.4259402 Z" id="Shape" fill="#FFFFFF" fill-rule="nonzero"></path>
        </g>
    </g>
</svg>