<?xml version="1.0" encoding="UTF-8"?>
<svg width="56px" height="56px" viewBox="0 0 56 56" version="1.1" xmlns="http://www.w3.org/2000/svg" xmlns:xlink="http://www.w3.org/1999/xlink">
    <!-- Generator: Sketch 52.2 (67145) - http://www.bohemiancoding.com/sketch -->
    <title>业务设置01</title>
    <desc>Created with Sketch.</desc>
    <g id="业务设置01" stroke="none" stroke-width="1" fill="none" fill-rule="evenodd">
        <g id="安全中心" transform="translate(8.000000, 5.000000)">
            <g id="Group">
                <path d="M5.234375,43.027875 C5.234375,44.4104508 11.8451705,45.53125 20,45.53125 C28.1548295,45.53125 34.765625,44.4104508 34.765625,43.027875 C34.765625,41.6452992 28.1548295,40.5245 20,40.5245 C11.8451705,40.5245 5.234375,41.6452992 5.234375,43.027875 Z" id="Path" fill="#B8E4CF"></path>
                <path d="M20.7438437,0.208409818 C23.1680312,1.27525357 25.8986875,2.32481607 28.935375,3.35753482 C31.77346,4.32386909 34.6442415,5.19137085 37.5425313,5.95847232 C38.6225775,6.24385783 39.3749102,7.2209203 39.3747812,8.33803482 L39.3747812,17.9910348 C39.3748814,25.2453326 35.8632829,32.0508886 29.9510312,36.2544723 L21.1135313,42.5376286 C20.2597009,43.1447768 19.1150804,43.1447768 18.26125,42.5376286 L9.42375,36.2542536 C3.51149831,32.0506699 -0.000100128771,25.2451138 0,17.9908161 L0,8.37390982 C1.63243292e-05,7.23782706 0.777718471,6.24940497 1.88190625,5.98209732 C5.62778125,5.07559732 8.74059375,4.20081607 11.2203437,3.35753482 C13.7657326,2.49063961 16.2504217,1.45481659 18.6578437,0.256972318 C19.3115645,-0.0677795367 20.0757188,-0.0855692018 20.7438437,0.208409818 Z" id="Shape" fill="#4DBB88" fill-rule="nonzero"></path>
                <path d="M27.9204897,24.9024601 C26.6835933,25.1149547 25.7387419,26.1774278 25.8117531,27.4566453 C25.9577756,29.6538396 23.3422551,30.860809 21.6672912,29.3733467 C20.7224398,28.5233683 19.2708044,28.5233683 18.325953,29.3733467 C16.7282951,30.860809 14.0397634,29.5858414 14.1814911,27.4566453 C14.2545023,26.1816776 13.3826622,25.1149547 12.0727545,24.9024601 C9.89100671,24.549719 9.23820027,21.7830392 11.0548919,20.5760697 C12.1457658,19.8663377 12.4378108,18.5191219 11.7807095,17.3844007 C10.6898356,15.4676992 12.5065272,13.2705049 14.6152638,13.9079888 C15.8521602,14.2607298 17.1577731,13.6954942 17.5958405,12.4885248 C18.3946695,10.5038251 21.3752462,10.5038251 22.1740751,12.4885248 C22.6121426,13.623246 23.9177555,14.2607298 25.1546519,13.9079888 C27.2633885,13.2705049 29.08008,15.5399474 27.9892061,17.3844007 C27.3363997,18.4468737 27.6971612,19.8663377 28.7150238,20.5760697 C30.8280552,21.7787893 30.1752487,24.5454691 27.9204897,24.9024601 Z M20.0052117,17.0911581 C17.8878855,17.0911581 16.1613843,18.7996148 16.1613843,20.8948117 C16.1613843,22.9900086 17.8878855,24.6984652 20.0052117,24.6984652 C22.1225378,24.6984652 23.849039,22.9900086 23.849039,20.8948117 C23.849039,18.7996148 22.1225378,17.0911581 20.0052117,17.0911581 Z" id="Combined-Shape" fill="#FFFFFF"></path>
            </g>
        </g>
    </g>
</svg>