<?xml version="1.0" encoding="UTF-8"?>
<svg width="56px" height="56px" viewBox="0 0 56 56" version="1.1" xmlns="http://www.w3.org/2000/svg" xmlns:xlink="http://www.w3.org/1999/xlink">
    <!-- Generator: Sketch 52.2 (67145) - http://www.bohemiancoding.com/sketch -->
    <title>报表查询04</title>
    <desc>Created with Sketch.</desc>
    <g id="报表查询04" stroke="none" stroke-width="1" fill="none" fill-rule="evenodd">
        <g id="安全中心" transform="translate(7.000000, 9.000000)">
            <g id="invoice_statistics_fill">
                <path d="M38.2347395,34 L4.06401985,34 C3.4764268,34 3,34.4764268 3,35.0640199 L3,36.5657568 C3,37.1533499 3.4764268,37.6297767 4.06401985,37.6297767 L38.2347395,37.6297767 C38.8223325,37.6297767 39.2987593,37.1533499 39.2987593,36.5657568 L39.2987593,35.0640199 C39.2987593,34.4764268 38.8223325,34 38.2347395,34 Z" id="Path" fill="#FFCA72"></path>
                <path d="M39.1340856,0 L2.86591428,0 C1.28313612,0 0,1.14517279 0,2.55776998 L0,28.111709 C0,29.5243062 1.28313612,30.669479 2.86591428,30.669479 L39.1340856,30.669479 C40.7168637,30.669479 41.9999998,29.5243062 41.9999998,28.111709 L41.9999998,2.55823587 C42.0005219,1.14517279 40.7173857,6.62078279e-16 39.1340856,0 Z" id="Shape" fill="#F9A315"></path>
                <path d="M9,13 L9,13 C10.1045695,13 11,13.8954305 11,15 L11,23 C11,24.1045695 10.1045695,25 9,25 L9,25 C7.8954305,25 7,24.1045695 7,23 L7,15 C7,13.8954305 7.8954305,13 9,13 Z M32.5007874,9 L32.5007874,9 C33.6053569,9 34.5007874,9.8954305 34.5007874,11 L34.5007874,23 C34.5007874,24.1045695 33.6053569,25 32.5007874,25 L32.5007874,25 C31.3962179,25 30.5007874,24.1045695 30.5007874,23 L30.5007874,11 C30.5007874,9.8954305 31.3962179,9 32.5007874,9 Z M16.5007874,5 L16.5007874,5 C17.6053569,5 18.5007874,5.8954305 18.5007874,7 L18.5007874,23 C18.5007874,24.1045695 17.6053569,25 16.5007874,25 L16.5007874,25 C15.3962179,25 14.5007874,24.1045695 14.5007874,23 L14.5007874,7 C14.5007874,5.8954305 15.3962179,5 16.5007874,5 Z M24.5007874,18 L24.5007874,18 C25.6053569,18 26.5007874,18.8954305 26.5007874,20 L26.5007874,23 C26.5007874,24.1045695 25.6053569,25 24.5007874,25 L24.5007874,25 C23.3962179,25 22.5007874,24.1045695 22.5007874,23 L22.5007874,20 C22.5007874,18.8954305 23.3962179,18 24.5007874,18 Z" id="Shape" fill="#FFFFFF"></path>
            </g>
        </g>
    </g>
</svg>