<?xml version="1.0" standalone="no"?><!DOCTYPE svg PUBLIC "-//W3C//DTD SVG 1.1//EN" "http://www.w3.org/Graphics/SVG/1.1/DTD/svg11.dtd"><svg t="1552292403783" class="icon" style="" viewBox="0 0 1024 1024" version="1.1" xmlns="http://www.w3.org/2000/svg" p-id="5021" xmlns:xlink="http://www.w3.org/1999/xlink" width="200" height="200"><defs><style type="text/css"></style></defs><path d="M576 192l192 0 0 576L576 768 576 192M512 192l0 576c0 35.392 28.608 64 64 64l192 0c35.392 0 64-28.608 64-64L832 192c0-35.392-28.608-64-64-64L576 128C540.608 128 512 156.608 512 192L512 192zM192 384l0 384c0 35.392 28.608 64 64 64l128 0c35.392 0 64-28.608 64-64L448 384c0-35.392-28.608-64-64-64L256 320C220.608 320 192 348.608 192 384L192 384zM64 928C64 945.728 78.336 960 96 960l832 0c17.664 0 32-14.272 32-32l0 0c0-17.6-14.336-32-32-32l-832 0C78.336 896 64 910.4 64 928L64 928z" p-id="5022"></path></svg>