<?xml version="1.0" encoding="UTF-8"?>
<svg width="60px" height="60px" viewBox="0 0 60 60" version="1.1" xmlns="http://www.w3.org/2000/svg" xmlns:xlink="http://www.w3.org/1999/xlink">
    <!-- Generator: Sketch 55.2 (78181) - https://sketchapp.com -->
    <title>画板备份 15</title>
    <desc>Created with Sketch.</desc>
    <g id="画板备份-15" stroke="none" stroke-width="1" fill="none" fill-rule="evenodd">
        <g id="业务" transform="translate(8.000000, 8.000000)" fill-rule="nonzero">
            <rect id="矩形" fill="#000000" opacity="0" x="0" y="0" width="45" height="45"></rect>
            <path d="M34.2121865,21.3402062 C35.3338975,21.3402062 36.4556086,21.6209984 37.5773196,21.9017906 L37.5773196,12.3548562 L24.9580705,0 L4,0 C1.790861,4.05812251e-16 -2.705415e-16,1.790861 0,4 L0,38.6804124 C2.705415e-16,40.8895514 1.790861,42.6804124 4,42.6804124 L24.1167872,42.6804124 C22.4342206,40.1532827 21.3125096,37.3453608 21.3125096,34.2566468 C21.3125096,26.9560499 27.2014925,21.3402062 34.2121865,21.3402062 Z M23.5559317,4.77346717 L33.0904755,14.3204015 L23.5559317,14.3204015 L23.5559317,4.77346717 Z M7.4257371,11.1396552 L14.9602809,11.1396552 C15.5125656,11.1396552 15.9602809,11.5873705 15.9602809,12.1396552 L15.9602809,12.7358091 C15.9602809,13.2880938 15.5125656,13.7358091 14.9602809,13.7358091 L7.4257371,13.7358091 C6.87345235,13.7358091 6.4257371,13.2880938 6.4257371,12.7358091 L6.4257371,12.1396552 C6.4257371,11.5873705 6.87345235,11.1396552 7.4257371,11.1396552 Z M14.9602809,30.1367962 L7.4257371,30.1367962 C6.87345235,30.1367962 6.4257371,29.6890809 6.4257371,29.1367962 L6.4257371,28.5406423 C6.4257371,27.9883576 6.87345235,27.5406423 7.4257371,27.5406423 L14.9602809,27.5406423 C15.5125656,27.5406423 15.9602809,27.9883576 15.9602809,28.5406423 L15.9602809,29.1367962 C15.9602809,29.6890809 15.5125656,30.1367962 14.9602809,30.1367962 Z M21.0026602,21.3632142 L7.4257371,21.3632142 C6.87345235,21.3632142 6.4257371,20.915499 6.4257371,20.3632142 L6.4257371,19.7670604 C6.4257371,19.2147756 6.87345235,18.7670604 7.4257371,18.7670604 L21.0026602,18.7670604 C21.5549449,18.7670604 22.0026602,19.2147756 22.0026602,19.7670604 L22.0026602,20.3632142 C22.0026602,20.915499 21.5549449,21.3632142 21.0026602,21.3632142 Z" id="形状" fill="#A0ACB6"></path>
            <path d="M33.4875203,33.7683125 L39.3841563,25.0637547 C37.6994031,24.2213782 36.01465,23.6597938 34.3298969,23.6597938 C28.433261,23.6597938 23.6597938,28.433261 23.6597938,34.3298969 C23.6597938,40.2265328 28.1524688,45 33.7683125,45 L34.3298969,45 C40.2265328,45 44.7192078,40.507325 45,34.6106891 L33.4875203,33.7683125 Z" id="路径" fill="#54698D"></path>
        </g>
    </g>
</svg>