<?xml version="1.0" encoding="UTF-8"?>
<svg width="60px" height="60px" viewBox="0 0 60 60" version="1.1" xmlns="http://www.w3.org/2000/svg" xmlns:xlink="http://www.w3.org/1999/xlink">
    <!-- Generator: Sketch 55.2 (78181) - https://sketchapp.com -->
    <title>画板备份 16</title>
    <desc>Created with Sketch.</desc>
    <g id="画板备份-16" stroke="none" stroke-width="1" fill="none" fill-rule="evenodd">
        <g id="预警" transform="translate(6.000000, 4.000000)">
            <rect id="矩形" fill="#000000" fill-rule="nonzero" opacity="0" x="0" y="0" width="48" height="48.0825593"></rect>
            <path d="M40.4343873,30.5545208 C39.6008191,30.3709572 38.734766,30.274204 37.8461538,30.274204 C31.2187368,30.274204 25.8461538,35.6560278 25.8461538,42.2948439 C25.8461538,44.3930476 26.3828113,46.3656928 27.32613,48.0825593 L2.06746677,48.0825593 C0.925614269,48.0825593 0,47.1461196 0,45.9910188 C0,44.835918 0.925614269,43.8994783 2.06746677,43.8994783 L8.22193942,43.8994783 L8.22189244,43.8994783 L8.22189244,28.8660555 C8.22189244,19.873382 15.4300213,12.5799901 24.3281164,12.5799901 C33.2262114,12.5799901 40.4343873,19.8734296 40.4343873,28.8660555 L40.4343873,30.5545208 Z M37.6775613,4.60874898 C38.4234939,5.04782988 38.6783562,6.01683109 38.248746,6.77102159 L35.3929166,11.7924301 L32.692805,10.2124614 L35.5487284,5.19105287 C35.9734988,4.43690991 36.9270239,4.17917508 37.6681638,4.60874898 L37.6775613,4.60874898 Z M24.3234176,0.890417766 C25.2581005,0.890417766 26.0133837,1.60163661 26.0133837,2.48469452 L26.0133837,8.17430266 L22.6334984,8.17430266 L22.6334984,2.47994102 C22.6334515,1.60168414 23.3887347,0.890417766 24.3234176,0.890417766 L24.3233706,0.890417766 L24.3234176,0.890417766 Z M10.9787184,4.60874898 C11.7198583,4.17437404 12.6733363,4.43210888 13.1029465,5.18154587 C13.1029465,5.18154587 13.1029465,5.18629937 13.1076453,5.18629937 L15.9635687,10.2077079 L13.2634101,11.787629 L10.4074867,6.76622055 C9.9780175,6.01203006 10.2328798,5.04782988 10.9786714,4.60874898 L10.9787184,4.60874898 Z M1.20725963,14.5322531 C1.63207706,13.778015 2.58560213,13.5154792 3.33148775,13.9498541 C3.33148775,13.9498541 3.33618654,13.9498541 3.33618654,13.9546551 L8.28321162,16.8567627 L6.72546939,19.5965857 L1.77839732,16.6896296 C1.03260567,16.2553022 0.777649431,15.286301 1.20725963,14.532158 L1.20725963,14.5322531 Z M47.4489731,14.5322531 C47.8785833,15.2863485 47.6236271,16.2553497 46.8778354,16.6944306 L41.9307164,19.5917846 L40.3729741,16.8520092 L45.3199992,13.9498541 C46.0611391,13.5155267 47.0146171,13.7732615 47.4442273,14.522651 C47.4442273,14.5274045 47.4489261,14.5274045 47.4489261,14.532158 L47.4489261,14.5322531 L47.4489731,14.5322531 Z" id="形状结合" fill="#A0ACB6"></path>
            <path d="M38.3076923,52.4661545 C32.9547786,52.4661545 28.6153846,48.1192968 28.6153846,42.7571762 C28.6153846,37.3950555 32.9547786,33.0481978 38.3076923,33.0481978 C43.660606,33.0481978 48,37.3950555 48,42.7571762 C48,48.1192968 43.660606,52.4661545 38.3076923,52.4661545 Z M39.9247878,34.2125903 L34.1538462,44.2518008 L38.7692137,44.2518008 L37.6136737,51.7812178 L43.3846154,41.7420072 L38.7691796,41.7420072 L39.9247537,34.2125903 L39.9247878,34.2125903 Z" id="形状结合" fill="#54698D"></path>
        </g>
    </g>
</svg>