<?xml version="1.0" encoding="UTF-8"?>
<svg width="60px" height="60px" viewBox="0 0 60 60" version="1.1" xmlns="http://www.w3.org/2000/svg" xmlns:xlink="http://www.w3.org/1999/xlink">
    <!-- Generator: Sketch 55.2 (78181) - https://sketchapp.com -->
    <title>画板备份 18</title>
    <desc>Created with Sketch.</desc>
    <g id="画板备份-18" stroke="none" stroke-width="1" fill="none" fill-rule="evenodd">
        <g id="分组-24" transform="translate(4.000000, 4.000000)">
            <g id="审批管理">
                <rect id="矩形" fill="#000000" fill-rule="nonzero" opacity="0" x="0" y="0" width="52" height="52"></rect>
                <path d="M27.5315198,19.4746149 C26.2083275,20.503015 26.0016295,22.176399 26.0016295,22.9416065 L26.0016295,24.4703971 C26.0016295,26.4849564 27.3036638,28.1729622 29.1069814,28.7968257 L27.8684212,30.0331802 L26.3124902,31.592839 L27.2971537,33.5667823 L27.9514259,34.8729965 L26.5663869,35.332771 L24.4749942,36.0313681 L24.4749942,38.2343862 L0,38.2343862 L0,32.1175993 C-0.00129207956,31.3069774 0.320281109,30.5290898 0.893889768,29.9552837 C1.46749843,29.3814776 2.24608814,29.0588236 3.05815707,29.0583935 L12.2358716,29.0583935 C14.7714663,29.0548072 16.8248158,27.0014788 16.823915,24.4703971 L16.823915,22.9416065 C16.823915,22.176399 16.613962,20.503015 15.2956522,19.4746149 C12.3123661,17.2943419 10.7076087,14.2546318 10.7076087,10.7047833 C10.7076087,4.78782765 15.4974675,0 21.4119585,0 C27.3264495,0 32.1195633,4.78945229 32.1195633,10.7047833 C32.1195633,14.2546318 30.5099234,17.2943419 27.5315198,19.4746149 Z M24.4717392,39.7631768 L24.4717392,42.8256319 L3.05978461,42.8256319 C2.24715045,42.8252033 1.46806602,42.5021033 0.894363512,41.9275938 C0.320661007,41.3530842 -0.000529942894,40.5743611 0.00162060548,39.7631768 L24.4717392,39.7631768 L24.4717392,39.7631768 Z" id="形状" fill="#A0ACB6"></path>
                <path d="M51.0188679,38.2327616 L51.0188679,41.293592 L47.5375536,42.4552129 C47.361779,43.0075921 47.1550811,43.5518481 46.8800263,44.0587372 L48.5173345,47.3356453 L46.3527024,49.4964227 L43.0325148,47.8376605 C42.5357376,48.0985248 42.0180081,48.3175295 41.4847215,48.4923923 L40.3128907,52 L37.25311,52 L36.0845341,48.4923923 C35.5493889,48.3239194 35.0316368,48.1046746 34.5383684,47.8376605 L31.2165533,49.4964227 L29.0519212,47.3356453 L30.6892294,44.0587372 C30.4186329,43.5469064 30.1989492,43.0098303 30.0333296,42.4552129 L26.5503877,41.293592 L26.5503877,38.2327616 L30.0333296,37.07439 C30.1995229,36.5194527 30.4191821,35.9818923 30.6892294,35.4692411 L29.0519212,32.1939576 L31.2165533,30.0315556 L34.5383684,31.6919424 C35.0341842,31.4297971 35.5514368,31.2102203 36.0845341,31.0355859 L37.25311,27.5263536 L40.3128907,27.5263536 L41.4847215,31.0355859 C42.0283209,31.2029244 42.5361143,31.4271253 43.0325148,31.6919424 L46.3527024,30.0315556 L48.5173345,32.1939576 L46.8800263,35.4692411 C47.155081,35.9777549 47.361779,36.5138876 47.5375536,37.07439 L51.0188679,38.2327616 Z M38.7846279,35.1751804 C37.5666574,35.1760417 36.3989386,35.6599544 35.5384667,36.5204175 C34.6779948,37.3808806 34.1952888,38.5473757 34.1965772,39.7631768 C34.194424,40.9793909 34.6768,42.1465543 35.5374124,43.0074627 C36.3980249,43.8683711 37.5662422,44.3523685 38.7846279,44.3527979 C41.3205956,44.3492111 43.3737423,42.2946296 43.3710464,39.7631768 C43.3723394,38.5476569 42.8898569,37.3814079 42.0297369,36.5209915 C41.1696169,35.6605752 40.0023162,35.1764724 38.7846279,35.1751804 Z" id="形状结合" fill="#54698D"></path>
            </g>
        </g>
    </g>
</svg>