<?xml version="1.0" encoding="UTF-8"?>
<svg width="60px" height="60px" viewBox="0 0 60 60" version="1.1" xmlns="http://www.w3.org/2000/svg" xmlns:xlink="http://www.w3.org/1999/xlink">
    <!-- Generator: Sketch 55.2 (78181) - https://sketchapp.com -->
    <title>画板备份 17</title>
    <desc>Created with Sketch.</desc>
    <g id="画板备份-17" stroke="none" stroke-width="1" fill="none" fill-rule="evenodd">
        <g id="分组-13" transform="translate(4.000000, 5.000000)">
            <g id="消息通知" fill-rule="nonzero">
                <rect id="矩形" fill="#000000" opacity="0" x="0" y="0" width="49.3559322" height="49.5145763"></rect>
                <path d="M27.8853846,39.6226643 L6.21979659,39.6226643 C4.87994916,39.6226643 3.79661017,38.6461268 3.79661017,37.4247672 C3.79661017,36.2089093 4.87994916,35.2186178 6.28255933,35.2186178 C8.64844066,35.1443459 8.64844066,27.5080979 8.64844066,27.5080979 L8.64844066,21.448064 C8.64844071,13.754049 14.1497288,7.24838379 20.8462373,5.13026027 C20.8025762,4.89644142 20.7834746,4.65161935 20.7834746,4.40129566 C20.7834746,1.96957979 22.9610678,0 25.6353051,0 C28.3122712,0 30.481678,1.97783224 30.481678,4.40129566 L30.4871356,4.40404647 C30.4871356,4.65161935 30.4571186,4.88818902 30.408,5.13026027 C37.4674407,7.24013135 42.6057966,13.7485473 42.6057966,21.4535656 L42.6057966,24.3062518 C41.7639097,24.1560171 40.8924542,24.0771429 40,24.0771429 C32.8205453,24.0771429 27,29.1816026 27,35.4786815 C27,36.9405943 27.3137397,38.3382417 27.8853846,39.6226643 Z M32.4573576,44.7657532 C31.5558384,47.3771193 29.2894217,49.5145763 25.6325763,49.5145763 C20.7698305,49.5145763 18.363017,45.7459668 18.3575593,42.0873898 L29.4055056,42.0873898 C30.2459564,43.1218431 31.2784563,44.0279731 32.4573576,44.7657532 Z" id="形状结合" fill="#A0ACB6"></path>
            </g>
            <g id="消息" transform="translate(40.977273, 36.243242) scale(-1, 1) translate(-40.977273, -36.243242) translate(29.477273, 25.709492)" fill="#54698D">
                <path d="M4.78161077,16.7326518 C2.1642632,15.0651514 0.477272727,12.4435318 0.477272727,9.49531084 C0.477272727,4.45764776 5.4023245,0.374079903 11.4772727,0.374079903 C17.5521959,0.374079903 22.4772727,4.45764773 22.4772727,9.49531084 C22.4772727,14.5327352 17.5521959,18.6163508 11.4772727,18.6163508 C10.3979023,18.6163508 9.35495895,18.4876151 8.36949796,18.2473786 L5.54663112,20.2840422 C5.12395091,20.5886346 4.78158571,20.4285804 4.78158571,19.9251435 L4.78158571,16.7326518 L4.78161077,16.7326518 Z M16.4595922,10.3872508 C17.2616032,10.3872508 17.9114811,9.74286446 17.9114811,8.94805441 C17.9114811,8.15304344 17.2616285,7.50865715 16.4595922,7.50865715 C15.6575559,7.50865715 15.007678,8.15304344 15.007678,8.94805441 C15.007678,9.74286446 15.6575559,10.3872508 16.4595922,10.3872508 Z M11.0671435,10.3872508 C11.8691545,10.3872508 12.5190324,9.74286446 12.5190324,8.94805441 C12.5190324,8.15304344 11.8691798,7.50865715 11.0671435,7.50865715 C10.2651072,7.50865715 9.6152293,8.15304344 9.6152293,8.94805441 C9.6152293,9.74286446 10.2651072,10.3872508 11.0671435,10.3872508 Z M5.55483936,10.3872508 C6.35685031,10.3872508 7.00672823,9.74286446 7.00672823,8.94805441 C7.00672823,8.15304344 6.35687566,7.50865715 5.55483936,7.50865715 C4.75280305,7.50865715 4.10292516,8.15304344 4.10292516,8.94805441 C4.10292516,9.74286446 4.75280308,10.3872508 5.55483936,10.3872508 Z" id="形状结合"></path>
            </g>
        </g>
    </g>
</svg>