<?xml version="1.0" encoding="utf-8"?>
<!-- Generator: Adobe Illustrator 22.1.0, SVG Export Plug-In . SVG Version: 6.00 Build 0)  -->
<svg version="1.1" id="图层_1" xmlns="http://www.w3.org/2000/svg" xmlns:xlink="http://www.w3.org/1999/xlink" x="0px" y="0px"
	 viewBox="0 0 200 200" style="enable-background:new 0 0 200 200;" xml:space="preserve">
<style type="text/css">
	.st0{fill:#CDCDCD;}
	.st1{fill:#FF9B9B;}
</style>
<path class="st0" d="M163.7,90.8H63.2c-0.4,0-0.8-0.4-0.8-0.8V61c0-0.4,0.4-0.8,0.8-0.8h100.5c0.4,0,0.8,0.4,0.8,0.8v29
	C164.5,90.4,164.2,90.8,163.7,90.8L163.7,90.8z M130.9,139.3H63.2c-0.4,0-0.8-0.4-0.8-0.8v-29c0-0.4,0.4-0.8,0.8-0.8h67.7
	c0.4,0,0.8,0.4,0.8,0.8v29C131.7,139,131.4,139.3,130.9,139.3z M40.8,170.1c-3,0-5.4-2.4-5.4-5.4V35.3c0-3,2.4-5.4,5.4-5.4
	s5.4,2.4,5.4,5.4v129.4C46.2,167.7,43.8,170.1,40.8,170.1z"/>
<path class="st1" d="M100,35.6c-35.6,0-64.4,28.8-64.4,64.4s28.8,64.4,64.4,64.4s64.4-28.8,64.4-64.4S135.6,35.6,100,35.6z
	 M100,157.2c-7.7,0-15.2-1.5-22.2-4.5c-6.8-2.9-12.9-7-18.2-12.3s-9.4-11.4-12.3-18.2c-3-7-4.5-14.5-4.5-22.2s1.5-15.2,4.5-22.2
	c2.4-5.7,5.7-10.9,9.8-15.5l80.7,80.7c-4.6,4.1-9.8,7.4-15.5,9.8C115.2,155.7,107.7,157.2,100,157.2z M142.9,137.8L62.2,57.1
	c4.6-4.1,9.8-7.4,15.5-9.8c7-3,14.5-4.5,22.2-4.5c7.7,0,15.2,1.5,22.2,4.5c6.8,2.9,12.9,7,18.2,12.3c5.3,5.3,9.4,11.4,12.3,18.2
	c3,7,4.5,14.5,4.5,22.2s-1.5,15.2-4.5,22.2C150.3,127.9,147,133.2,142.9,137.8L142.9,137.8z"/>
</svg>
