<?xml version="1.0" encoding="utf-8"?>
<!-- Generator: Adobe Illustrator 22.1.0, SVG Export Plug-In . SVG Version: 6.00 Build 0)  -->
<svg version="1.1" id="图层_1" xmlns="http://www.w3.org/2000/svg" xmlns:xlink="http://www.w3.org/1999/xlink" x="0px" y="0px"
	 viewBox="0 0 200 200" style="enable-background:new 0 0 200 200;" xml:space="preserve">
<style type="text/css">
	.st0{fill:#BFBFBF;}
</style>
<path class="st0" d="M36.3,109.2h100.5c0.4,0,0.8,0.4,0.8,0.8v29c0,0.4-0.4,0.8-0.8,0.8H36.3c-0.4,0-0.8-0.4-0.8-0.8v-29
	C35.5,109.6,35.8,109.2,36.3,109.2z M69.1,60.7h67.7c0.4,0,0.8,0.4,0.8,0.8v29c0,0.4-0.4,0.8-0.8,0.8H69.1c-0.4,0-0.8-0.4-0.8-0.8
	v-29C68.3,61,68.6,60.7,69.1,60.7z M159.2,29.9c3,0,5.4,2.4,5.4,5.4v129.4c0,3-2.4,5.4-5.4,5.4s-5.4-2.4-5.4-5.4V35.3
	C153.8,32.3,156.2,29.9,159.2,29.9z"/>
</svg>
