<?xml version="1.0" encoding="utf-8"?>
<!-- Generator: Adobe Illustrator 22.1.0, SVG Export Plug-In . SVG Version: 6.00 Build 0)  -->
<svg version="1.1" id="图层_1" xmlns="http://www.w3.org/2000/svg" xmlns:xlink="http://www.w3.org/1999/xlink" x="0px" y="0px"
	 viewBox="0 0 200 200" style="enable-background:new 0 0 200 200;" xml:space="preserve">
<style type="text/css">
	.st0{fill:#BFBFBF;}
</style>
<path class="st0" d="M109.2,163.7V63.2c0-0.4,0.4-0.8,0.8-0.8h29c0.4,0,0.8,0.4,0.8,0.8v100.5c0,0.4-0.4,0.8-0.8,0.8h-29
	C109.6,164.5,109.2,164.2,109.2,163.7L109.2,163.7z M60.7,130.9V63.2c0-0.4,0.4-0.8,0.8-0.8h29c0.4,0,0.8,0.4,0.8,0.8v67.7
	c0,0.4-0.4,0.8-0.8,0.8h-29C61,131.7,60.7,131.4,60.7,130.9z M29.9,40.8c0-3,2.4-5.4,5.4-5.4h129.4c3,0,5.4,2.4,5.4,5.4
	s-2.4,5.4-5.4,5.4H35.3C32.3,46.2,29.9,43.8,29.9,40.8z"/>
</svg>
