<?xml version="1.0" standalone="no"?><!DOCTYPE svg PUBLIC "-//W3C//DTD SVG 1.1//EN" "http://www.w3.org/Graphics/SVG/1.1/DTD/svg11.dtd"><svg t="1556082117327" class="icon" style="" viewBox="0 0 1024 1024" version="1.1" xmlns="http://www.w3.org/2000/svg" p-id="9547" xmlns:xlink="http://www.w3.org/1999/xlink" width="200" height="200"><defs><style type="text/css"></style></defs><path d="M185.7536 559.104H700.416c2.2528 0 4.096 1.8432 4.096 4.096v148.2752c0 2.2528-1.8432 4.096-4.096 4.096H185.7536c-2.2528 0-4.096-1.8432-4.096-4.096V563.2c0-2.2528 1.8432-4.096 4.096-4.096zM353.6896 310.6816H700.416c2.2528 0 4.096 1.8432 4.096 4.096v148.2752c0 2.2528-1.8432 4.096-4.096 4.096H353.6896c-2.2528 0-4.096-1.8432-4.096-4.096v-148.2752c0-2.2528 1.8432-4.096 4.096-4.096zM814.8992 152.9856c15.1552 0 27.4432 12.288 27.4432 27.648v662.7328c0 15.1552-12.288 27.648-27.4432 27.648s-27.4432-12.288-27.4432-27.648V180.6336c-0.2048-15.1552 12.0832-27.648 27.4432-27.648z" p-id="9548"></path></svg>