<?xml version="1.0" standalone="no"?><!DOCTYPE svg PUBLIC "-//W3C//DTD SVG 1.1//EN" "http://www.w3.org/Graphics/SVG/1.1/DTD/svg11.dtd"><svg t="1556082185790" class="icon" style="" viewBox="0 0 1024 1024" version="1.1" xmlns="http://www.w3.org/2000/svg" p-id="865" xmlns:xlink="http://www.w3.org/1999/xlink" width="200" height="200"><defs><style type="text/css"></style></defs><path d="M464.896 185.7536V700.416c0 2.2528-1.8432 4.096-4.096 4.096h-148.2752c-2.2528 0-4.096-1.8432-4.096-4.096V185.7536c0-2.2528 1.8432-4.096 4.096-4.096H460.8c2.2528 0 4.096 1.8432 4.096 4.096zM713.3184 353.6896V700.416c0 2.2528-1.8432 4.096-4.096 4.096h-148.2752c-2.2528 0-4.096-1.8432-4.096-4.096V353.6896c0-2.2528 1.8432-4.096 4.096-4.096h148.2752c2.2528 0 4.096 1.8432 4.096 4.096zM871.0144 814.8992c0 15.1552-12.288 27.4432-27.648 27.4432H180.6336c-15.1552 0-27.648-12.288-27.648-27.4432s12.288-27.4432 27.648-27.4432h662.7328c15.1552-0.2048 27.648 12.0832 27.648 27.4432z" p-id="866"></path></svg>