<?xml version="1.0" encoding="utf-8"?>
<!-- Generator: Adobe Illustrator 22.1.0, SVG Export Plug-In . SVG Version: 6.00 Build 0)  -->
<svg version="1.1" id="图层_1" xmlns="http://www.w3.org/2000/svg" xmlns:xlink="http://www.w3.org/1999/xlink" x="0px" y="0px"
	 viewBox="0 0 200 200" style="enable-background:new 0 0 200 200;" xml:space="preserve">
<style type="text/css">
	.st0{fill:#00246F;}
</style>
<g>
	<path class="st0" d="M157,36.6c-12.1-9.8-21.5-1.6-21.9-1.1c-0.4,0.5-7.7,7.1-7.7,7.1s27.6,27.6,29,29c6.9-6.8,8.3-8,9.8-10.2
		C172,50.8,159.9,39.1,157,36.6z"/>
	<path class="st0" d="M48.8,120.9c-4.5,4.7-6.9,6.9-10,14.1c-2.5,7.7-6.9,19.7-7.6,26.6c-0.6,7,4.8,6,7.8,5.5
		c10.6-2.3,19.7-5.7,25.8-8.1c6.2-2.3,8.4-4.8,8.4-4.8l5.9-5.2l65.4-65.8l-29-29C115.6,54.2,53.3,116.2,48.8,120.9z"/>
</g>
</svg>
