<?xml version="1.0" encoding="utf-8"?>
<!-- Generator: Adobe Illustrator 22.1.0, SVG Export Plug-In . SVG Version: 6.00 Build 0)  -->
<svg version="1.1" id="图层_1" xmlns="http://www.w3.org/2000/svg" xmlns:xlink="http://www.w3.org/1999/xlink" x="0px" y="0px"
	 viewBox="0 0 200.4 200" style="enable-background:new 0 0 200.4 200;" xml:space="preserve">
<style type="text/css">
	.st0{fill:#CDCDCD;}
	.st1{fill:#FF9B9B;}
</style>
<path class="st0" d="M147.8,109.7h-42.1v-19h24.6c3.6,0,6.5-2.9,6.5-6.5V64.8c0-3.6-2.9-6.5-6.5-6.5h-24.6V31.5
	c0-3.2-2.6-5.7-5.7-5.7s-5.7,2.6-5.7,5.7v26.9H69.7c-3.6,0-6.5,2.9-6.5,6.5v19.4c0,3.6,2.9,6.5,6.5,6.5h24.6v19H52.2
	c-3.6,0-6.5,2.9-6.5,6.5v19.4c0,3.6,2.9,6.5,6.5,6.5h42.1v26.4c0,3.2,2.6,5.7,5.7,5.7s5.7-2.6,5.7-5.7v-26.4h42.1
	c3.6,0,6.5-2.9,6.5-6.5v-19.4C154.2,112.6,151.3,109.7,147.8,109.7z"/>
<path class="st1" d="M100.2,35.6c-35.6,0-64.4,28.8-64.4,64.4s28.8,64.4,64.4,64.4s64.4-28.8,64.4-64.4S135.8,35.6,100.2,35.6z
	 M100.2,157.2c-7.7,0-15.2-1.5-22.2-4.5c-6.8-2.9-12.9-7-18.2-12.3s-9.4-11.4-12.3-18.2c-3-7-4.5-14.5-4.5-22.2s1.5-15.2,4.5-22.2
	c2.4-5.7,5.7-10.9,9.8-15.5l80.7,80.7c-4.6,4.1-9.8,7.4-15.5,9.8C115.4,155.7,107.9,157.2,100.2,157.2z M143.1,137.8L62.4,57.1
	c4.6-4.1,9.8-7.4,15.5-9.8c7-3,14.5-4.5,22.2-4.5c7.7,0,15.2,1.5,22.2,4.5c6.8,2.9,12.9,7,18.2,12.3c5.3,5.3,9.4,11.4,12.3,18.2
	c3,7,4.5,14.5,4.5,22.2s-1.5,15.2-4.5,22.2C150.5,127.9,147.2,133.2,143.1,137.8L143.1,137.8z"/>
</svg>
