<?xml version="1.0" encoding="utf-8"?>
<!-- Generator: Adobe Illustrator 22.1.0, SVG Export Plug-In . SVG Version: 6.00 Build 0)  -->
<svg version="1.1" id="图层_1" xmlns="http://www.w3.org/2000/svg" xmlns:xlink="http://www.w3.org/1999/xlink" x="0px" y="0px"
	 viewBox="0 0 200 200" style="enable-background:new 0 0 200 200;" xml:space="preserve">
<style type="text/css">
	.st0{fill:#CDCDCD;}
	.st1{fill:#FF9B9B;}
</style>
<path class="st0" d="M84.7,156.1l0.7,0.1c4.1,0.2,7.1,0.3,9,0.3c11.8,0,20.4-2.1,25.8-6.4c5.4-4.3,8.1-11.2,8.1-20.7
	c0-8.6-2.6-15-7.6-19.3c-5-4.2-12.6-6.3-22.8-6.3c-3,0-5.5,0-7.4,0.1c-2,0.1-3.9,0.1-5.9,0.3L84.7,156.1L84.7,156.1z M84.9,92.4
	c0.6,0.1,1.2,0.1,2,0.1c0.8,0,1.9,0.1,3.5,0.1c10.5,0,18.2-2.1,23.2-6.3c5-4.2,7.5-10.8,7.5-19.9c0-7.9-2.3-13.7-6.9-17.5
	c-4.6-3.8-11.7-5.7-21.2-5.7c-1.6,0-4.1,0.1-7.5,0.4h-0.6L84.9,92.4z M43.4,32.3H104c14.8,0,26,2.6,33.5,7.9
	c7.5,5.3,11.3,13.2,11.3,23.7c0,7.9-2.4,14.6-7.3,19.9c-4.8,5.4-12,9.2-21.5,11.8c11.5,0.2,20.6,3.2,27,8.8
	c6.4,5.7,9.7,13.6,9.7,23.7c0,12.8-4.3,22.5-13.1,29.3c-8.8,6.8-21.3,10.2-37.8,10.2H43.4v-9.9l11.9-1.1l3.2-3.2V46l-3.2-2.8
	l-11.9-1C43.4,42.2,43.4,32.3,43.4,32.3z"/>
<path class="st1" d="M100,35.6c-35.6,0-64.4,28.8-64.4,64.4s28.8,64.4,64.4,64.4s64.4-28.8,64.4-64.4S135.6,35.6,100,35.6z
	 M100,157.2c-7.7,0-15.2-1.5-22.2-4.5c-6.8-2.9-12.9-7-18.2-12.3s-9.4-11.4-12.3-18.2c-3-7-4.5-14.5-4.5-22.2s1.5-15.2,4.5-22.2
	c2.4-5.7,5.7-10.9,9.8-15.5l80.7,80.7c-4.6,4.1-9.8,7.4-15.5,9.8C115.2,155.7,107.7,157.2,100,157.2z M142.9,137.8L62.2,57.1
	c4.6-4.1,9.8-7.4,15.5-9.8c7-3,14.5-4.5,22.2-4.5c7.7,0,15.2,1.5,22.2,4.5c6.8,2.9,12.9,7,18.2,12.3c5.3,5.3,9.4,11.4,12.3,18.2
	c3,7,4.5,14.5,4.5,22.2s-1.5,15.2-4.5,22.2C150.3,127.9,147,133.2,142.9,137.8L142.9,137.8z"/>
</svg>
