<?xml version="1.0" encoding="utf-8"?>
<!-- Generator: Adobe Illustrator 22.1.0, SVG Export Plug-In . SVG Version: 6.00 Build 0)  -->
<svg version="1.1" id="图层_1" xmlns="http://www.w3.org/2000/svg" xmlns:xlink="http://www.w3.org/1999/xlink" x="0px" y="0px"
	 viewBox="0 0 200.4 200" style="enable-background:new 0 0 200.4 200;" xml:space="preserve">
<style type="text/css">
	.st0{fill:#BFBFBF;}
</style>
<path class="st0" d="M90.3,147.8v-42.1h19v24.6c0,3.6,2.9,6.5,6.5,6.5h19.4c3.6,0,6.5-2.9,6.5-6.5v-24.6h26.9c3.2,0,5.7-2.6,5.7-5.7
	s-2.6-5.7-5.7-5.7h-26.9V69.7c0-3.6-2.9-6.5-6.5-6.5h-19.4c-3.6,0-6.5,2.9-6.5,6.5v24.6h-19V52.2c0-3.6-2.9-6.5-6.5-6.5H64.4
	c-3.6,0-6.5,2.9-6.5,6.5v42.1H31.5c-3.2,0-5.7,2.6-5.7,5.7s2.6,5.7,5.7,5.7h26.4v42.1c0,3.6,2.9,6.5,6.5,6.5h19.4
	C87.4,154.2,90.3,151.3,90.3,147.8z"/>
</svg>
