<?xml version="1.0" encoding="utf-8"?>
<!-- Generator: Adobe Illustrator 22.1.0, SVG Export Plug-In . SVG Version: 6.00 Build 0)  -->
<svg version="1.1" id="图层_1" xmlns="http://www.w3.org/2000/svg" xmlns:xlink="http://www.w3.org/1999/xlink" x="0px" y="0px"
	 viewBox="0 0 200 200" style="enable-background:new 0 0 200 200;" xml:space="preserve">
<style type="text/css">
	.st0{fill:#666666;}
</style>
<path class="st0" d="M62.2,172.3c-0.1-1.2-0.1-2.4,0-3.7c-0.2-2.5,1.7-4.8,4.2-5.1l0.2,0c3.1-0.3,6.2-1.3,9-2.9
	c1.7-1.2,2.8-3,3.1-5.1L99.4,43.2l0-0.1c0.5-1.5,0.2-3.1-0.8-4.3c-2.4-1.5-5.2-2.4-8-2.5c-2.7-0.2-4.8-2.4-5-5
	c-0.1-0.6-0.1-1.1,0-1.7v-4l2.2,0.2c4.3,0.5,8.6,0.8,12.8,1c2.1,0.1,4.1,0.1,6,0.1c1.9,0,3.8,0,5.6-0.1l11.2,0c4.2,0,8.3-0.3,12.1-1
	l2.1-0.4l0.2,2.2c0.1,1.1,0.1,2.3,0,3.4c0.2,2.6-1.6,4.9-4.2,5.3c-0.2,0-0.5,0-0.7,0c-0.1,0-0.2,0-0.2,0c-3.1,0.2-6.1,1.1-8.7,2.7
	c-1.6,1.3-2.6,3.2-2.9,5.2l-20.5,112.1l-0.1,0.1c-0.5,1.4-0.2,3,0.8,4.1c2.7,1.6,5.7,2.5,8.8,2.7c2.7,0.3,4.8,2.5,4.8,5.2
	c0.1,1.2,0.1,2.5,0,3.7l-0.2,2l-2-0.2c-4.3-0.5-8.7-0.8-13.2-1l-23.1,0c-4.2,0-8.2,0.3-12,1l-2.1,0.4L62.2,172.3z"/>
</svg>
