<?xml version="1.0" standalone="no"?><!DOCTYPE svg PUBLIC "-//W3C//DTD SVG 1.1//EN" "http://www.w3.org/Graphics/SVG/1.1/DTD/svg11.dtd"><svg t="1556082104232" class="icon" style="" viewBox="0 0 1024 1024" version="1.1" xmlns="http://www.w3.org/2000/svg" p-id="9137" xmlns:xlink="http://www.w3.org/1999/xlink" width="200" height="200"><defs><style type="text/css"></style></defs><path d="M838.2464 464.896H323.584c-2.2528 0-4.096-1.8432-4.096-4.096v-148.2752c0-2.2528 1.8432-4.096 4.096-4.096h514.6624c2.2528 0 4.096 1.8432 4.096 4.096V460.8c0 2.2528-1.8432 4.096-4.096 4.096zM670.3104 713.3184H323.584c-2.2528 0-4.096-1.8432-4.096-4.096v-148.2752c0-2.2528 1.8432-4.096 4.096-4.096h346.5216c2.2528 0 4.096 1.8432 4.096 4.096v148.2752c0.2048 2.2528-1.6384 4.096-3.8912 4.096zM209.1008 871.0144c-15.1552 0-27.4432-12.288-27.4432-27.648V180.6336c0-15.1552 12.288-27.648 27.4432-27.648s27.4432 12.288 27.4432 27.648v662.7328c0.2048 15.1552-12.0832 27.648-27.4432 27.648z" p-id="9138"></path></svg>