<?xml version="1.0" encoding="utf-8"?>
<!-- Generator: Adobe Illustrator 22.1.0, SVG Export Plug-In . SVG Version: 6.00 Build 0)  -->
<svg version="1.1" id="图层_1" xmlns="http://www.w3.org/2000/svg" xmlns:xlink="http://www.w3.org/1999/xlink" x="0px" y="0px"
	 viewBox="0 0 200 200" style="enable-background:new 0 0 200 200;" xml:space="preserve">
<style type="text/css">
	.st0{fill:#CDCDCD;}
	.st1{fill:#FF9B9B;}
</style>
<path class="st0" d="M62.2,172.3c-0.1-1.2-0.1-2.4,0-3.7c-0.2-2.5,1.7-4.8,4.2-5.1h0.2c3.1-0.3,6.2-1.3,9-2.9c1.7-1.2,2.8-3,3.1-5.1
	L99.4,43.2v-0.1c0.5-1.5,0.2-3.1-0.8-4.3c-2.4-1.5-5.2-2.4-8-2.5c-2.7-0.2-4.8-2.4-5-5c-0.1-0.6-0.1-1.1,0-1.7v-4l2.2,0.2
	c4.3,0.5,8.6,0.8,12.8,1c2.1,0.1,4.1,0.1,6,0.1s3.8,0,5.6-0.1h11.2c4.2,0,8.3-0.3,12.1-1l2.1-0.4l0.2,2.2c0.1,1.1,0.1,2.3,0,3.4
	c0.2,2.6-1.6,4.9-4.2,5.3c-0.2,0-0.5,0-0.7,0c-0.1,0-0.2,0-0.2,0c-3.1,0.2-6.1,1.1-8.7,2.7c-1.6,1.3-2.6,3.2-2.9,5.2l-20.5,112.1
	l-0.1,0.1c-0.5,1.4-0.2,3,0.8,4.1c2.7,1.6,5.7,2.5,8.8,2.7c2.7,0.3,4.8,2.5,4.8,5.2c0.1,1.2,0.1,2.5,0,3.7l-0.2,2l-2-0.2
	c-4.3-0.5-8.7-0.8-13.2-1H76.4c-4.2,0-8.2,0.3-12,1l-2.1,0.4L62.2,172.3z"/>
<path class="st1" d="M99,34.7c-35.6,0-64.4,28.8-64.4,64.4s28.8,64.4,64.4,64.4s64.4-28.8,64.4-64.4S134.6,34.7,99,34.7z M99,156.3
	c-7.7,0-15.2-1.5-22.2-4.5c-6.8-2.9-12.9-7-18.2-12.3c-5.3-5.3-9.4-11.4-12.3-18.2c-3-7-4.5-14.5-4.5-22.2s1.5-15.2,4.5-22.2
	c2.4-5.7,5.7-10.9,9.8-15.5l80.7,80.7c-4.6,4.1-9.8,7.4-15.5,9.8C114.2,154.8,106.7,156.3,99,156.3z M141.9,136.9L61.2,56.2
	c4.6-4.1,9.8-7.4,15.5-9.8c7-3,14.5-4.5,22.2-4.5c7.7,0,15.2,1.5,22.2,4.5c6.8,2.9,12.9,7,18.2,12.3c5.3,5.3,9.4,11.4,12.3,18.2
	c3,7,4.5,14.5,4.5,22.2s-1.5,15.2-4.5,22.2C149.3,127,146,132.3,141.9,136.9L141.9,136.9z"/>
</svg>
