<?xml version="1.0" encoding="utf-8"?>
<!-- Generator: Adobe Illustrator 22.1.0, SVG Export Plug-In . SVG Version: 6.00 Build 0)  -->
<svg version="1.1" id="图层_1" xmlns="http://www.w3.org/2000/svg" xmlns:xlink="http://www.w3.org/1999/xlink" x="0px" y="0px"
	 viewBox="0 0 200 200" style="enable-background:new 0 0 200 200;" xml:space="preserve">
<style type="text/css">
	.st0{fill:#BFBFBF;}
</style>
<path class="st0" d="M163.7,90.8H63.2c-0.4,0-0.8-0.4-0.8-0.8V61c0-0.4,0.4-0.8,0.8-0.8h100.5c0.4,0,0.8,0.4,0.8,0.8v29
	C164.5,90.4,164.2,90.8,163.7,90.8L163.7,90.8z M130.9,139.3H63.2c-0.4,0-0.8-0.4-0.8-0.8v-29c0-0.4,0.4-0.8,0.8-0.8h67.7
	c0.4,0,0.8,0.4,0.8,0.8v29C131.7,139,131.4,139.3,130.9,139.3z M40.8,170.1c-3,0-5.4-2.4-5.4-5.4V35.3c0-3,2.4-5.4,5.4-5.4
	s5.4,2.4,5.4,5.4v129.4C46.2,167.7,43.8,170.1,40.8,170.1z"/>
</svg>
