<?xml version="1.0" standalone="no"?><!DOCTYPE svg PUBLIC "-//W3C//DTD SVG 1.1//EN" "http://www.w3.org/Graphics/SVG/1.1/DTD/svg11.dtd"><svg t="1556082196249" class="icon" style="" viewBox="0 0 1026 1024" version="1.1" xmlns="http://www.w3.org/2000/svg" p-id="982" xmlns:xlink="http://www.w3.org/1999/xlink" width="200.390625" height="200"><defs><style type="text/css"></style></defs><path d="M462.132631 756.656287V541.227944h97.290219v126.109381c0 18.190818 14.716168 33.111377 33.111378 33.111378h99.538522c18.190818 0 33.111377-14.716168 33.111378-33.111378v-126.109381h137.555289c16.146906 0 29.227944-13.081038 29.227944-29.227944s-13.081038-29.227944-29.227944-29.227944h-137.555289v-126.109381c0-18.190818-14.716168-33.111377-33.111378-33.111378h-99.538522c-18.190818 0-33.111377 14.716168-33.111378 33.111378v126.109381h-97.290219V267.343713c0-18.190818-14.716168-33.111377-33.111378-33.111378h-99.538522c-18.190818 0-33.111377 14.716168-33.111378 33.111378v215.428343H161.268758c-16.146906 0-29.227944 13.081038-29.227944 29.227944s13.081038 29.227944 29.227944 29.227944H296.371353v215.428343c0 18.190818 14.716168 33.111377 33.111378 33.111378h99.538522c18.39521-0.204391 33.111377-14.920559 33.111378-33.111378z" p-id="983"></path></svg>