<?xml version="1.0" encoding="utf-8"?>
<!-- Generator: Adobe Illustrator 22.1.0, SVG Export Plug-In . SVG Version: 6.00 Build 0)  -->
<svg version="1.1" id="图层_1" xmlns="http://www.w3.org/2000/svg" xmlns:xlink="http://www.w3.org/1999/xlink" x="0px" y="0px"
	 viewBox="0 0 200 200" style="enable-background:new 0 0 200 200;" xml:space="preserve">
<style type="text/css">
	.st0{fill:#CDCDCD;}
	.st1{fill:#FF9B9B;}
</style>
<path class="st0" d="M37.4,156.8h123.9v10.3H37.4V156.8z M37.4,32.9h53.4V41l-11.5,0.8l-2.6,2.3v58.2c0,11.1,2.3,19,7,23.8
	s12.5,7.1,23.2,7.1c9.9,0,17.1-2.6,21.5-7.6c4.4-5,6.6-13.4,6.6-24.9V44.8l-2.8-2.8l-11.9-1v-8.1h42.2V41l-11.3,1l-2.6,2.8v57.7
	c0,15.4-3.9,26.6-11.6,33.6c-7.7,6.9-20.3,10.4-37.5,10.4c-9,0-16.9-1.2-23.8-3.6c-6.8-2.3-12.1-5.7-16-10.1c-3-3.5-5-7.4-6.3-11.9
	c-1.2-4.5-1.9-10.9-1.9-19.2V44.2L49,41.8L37.4,41V32.9z"/>
<path class="st1" d="M99,34.7c-35.6,0-64.4,28.8-64.4,64.4s28.8,64.4,64.4,64.4s64.4-28.8,64.4-64.4S134.6,34.7,99,34.7z M99,156.3
	c-7.7,0-15.2-1.5-22.2-4.5c-6.8-2.9-12.9-7-18.2-12.3s-9.4-11.4-12.3-18.2c-3-7-4.5-14.5-4.5-22.2s1.5-15.2,4.5-22.2
	c2.4-5.7,5.7-10.9,9.8-15.5l80.7,80.7c-4.6,4.1-9.8,7.4-15.5,9.8C114.2,154.8,106.7,156.3,99,156.3z M141.9,136.9L61.2,56.2
	c4.6-4.1,9.8-7.4,15.5-9.8c7-3,14.5-4.5,22.2-4.5s15.2,1.5,22.2,4.5c6.8,2.9,12.9,7,18.2,12.3s9.4,11.4,12.3,18.2
	c3,7,4.5,14.5,4.5,22.2s-1.5,15.2-4.5,22.2C149.3,127,146,132.3,141.9,136.9L141.9,136.9z"/>
</svg>
