<?xml version="1.0" encoding="utf-8"?>
<!-- Generator: Adobe Illustrator 22.1.0, SVG Export Plug-In . SVG Version: 6.00 Build 0)  -->
<svg version="1.1" id="图层_1" xmlns="http://www.w3.org/2000/svg" xmlns:xlink="http://www.w3.org/1999/xlink" x="0px" y="0px"
	 viewBox="0 0 200.4 200" style="enable-background:new 0 0 200.4 200;" xml:space="preserve">
<style type="text/css">
	.st0{fill:#BFBFBF;}
</style>
<path class="st0" d="M147.8,109.7h-42.1v-19h24.6c3.6,0,6.5-2.9,6.5-6.5V64.8c0-3.6-2.9-6.5-6.5-6.5h-24.6V31.5
	c0-3.2-2.6-5.7-5.7-5.7s-5.7,2.6-5.7,5.7v26.9H69.7c-3.6,0-6.5,2.9-6.5,6.5v19.4c0,3.6,2.9,6.5,6.5,6.5h24.6v19H52.2
	c-3.6,0-6.5,2.9-6.5,6.5v19.4c0,3.6,2.9,6.5,6.5,6.5h42.1v26.4c0,3.2,2.6,5.7,5.7,5.7s5.7-2.6,5.7-5.7v-26.4h42.1
	c3.6,0,6.5-2.9,6.5-6.5v-19.4C154.2,112.6,151.3,109.7,147.8,109.7z"/>
</svg>
