<?xml version="1.0" encoding="utf-8"?>
<!-- Generator: Adobe Illustrator 22.1.0, SVG Export Plug-In . SVG Version: 6.00 Build 0)  -->
<svg version="1.1" id="图层_1" xmlns="http://www.w3.org/2000/svg" xmlns:xlink="http://www.w3.org/1999/xlink" x="0px" y="0px"
	 viewBox="0 0 200.4 200" style="enable-background:new 0 0 200.4 200;" xml:space="preserve">
<style type="text/css">
	.st0{fill:#CDCDCD;}
	.st1{fill:#FF9B9B;}
</style>
<path class="st0" d="M90.3,147.8v-42.1h19v24.6c0,3.6,2.9,6.5,6.5,6.5h19.4c3.6,0,6.5-2.9,6.5-6.5v-24.6h26.9c3.2,0,5.7-2.6,5.7-5.7
	s-2.6-5.7-5.7-5.7h-26.9V69.7c0-3.6-2.9-6.5-6.5-6.5h-19.4c-3.6,0-6.5,2.9-6.5,6.5v24.6h-19V52.2c0-3.6-2.9-6.5-6.5-6.5H64.4
	c-3.6,0-6.5,2.9-6.5,6.5v42.1H31.5c-3.2,0-5.7,2.6-5.7,5.7s2.6,5.7,5.7,5.7h26.4v42.1c0,3.6,2.9,6.5,6.5,6.5h19.4
	C87.4,154.2,90.3,151.3,90.3,147.8z"/>
<path class="st1" d="M100.2,35.6c-35.6,0-64.4,28.8-64.4,64.4s28.8,64.4,64.4,64.4s64.4-28.8,64.4-64.4S135.8,35.6,100.2,35.6z
	 M100.2,157.2c-7.7,0-15.2-1.5-22.2-4.5c-6.8-2.9-12.9-7-18.2-12.3s-9.4-11.4-12.3-18.2c-3-7-4.5-14.5-4.5-22.2s1.5-15.2,4.5-22.2
	c2.4-5.7,5.7-10.9,9.8-15.5l80.7,80.7c-4.6,4.1-9.8,7.4-15.5,9.8C115.4,155.7,107.9,157.2,100.2,157.2z M143.1,137.8L62.4,57.1
	c4.6-4.1,9.8-7.4,15.5-9.8c7-3,14.5-4.5,22.2-4.5c7.7,0,15.2,1.5,22.2,4.5c6.8,2.9,12.9,7,18.2,12.3c5.3,5.3,9.4,11.4,12.3,18.2
	c3,7,4.5,14.5,4.5,22.2s-1.5,15.2-4.5,22.2C150.5,127.9,147.2,133.2,143.1,137.8L143.1,137.8z"/>
</svg>
