<?xml version="1.0" encoding="utf-8"?>
<!-- Generator: Adobe Illustrator 22.1.0, SVG Export Plug-In . SVG Version: 6.00 Build 0)  -->
<svg version="1.1" id="图层_1" xmlns="http://www.w3.org/2000/svg" xmlns:xlink="http://www.w3.org/1999/xlink" x="0px" y="0px"
	 viewBox="0 0 200 200" style="enable-background:new 0 0 200 200;" xml:space="preserve">
<style type="text/css">
	.st0{fill:#CDCDCD;}
	.st1{fill:#FF9B9B;}
</style>
<path class="st0" d="M109.2,163.7V63.2c0-0.4,0.4-0.8,0.8-0.8h29c0.4,0,0.8,0.4,0.8,0.8v100.5c0,0.4-0.4,0.8-0.8,0.8h-29
	C109.6,164.5,109.2,164.2,109.2,163.7L109.2,163.7z M60.7,130.9V63.2c0-0.4,0.4-0.8,0.8-0.8h29c0.4,0,0.8,0.4,0.8,0.8v67.7
	c0,0.4-0.4,0.8-0.8,0.8h-29C61,131.7,60.7,131.4,60.7,130.9z M29.9,40.8c0-3,2.4-5.4,5.4-5.4h129.4c3,0,5.4,2.4,5.4,5.4
	s-2.4,5.4-5.4,5.4H35.3C32.3,46.2,29.9,43.8,29.9,40.8z"/>
<path class="st1" d="M100,35.7c-35.6,0-64.4,28.8-64.4,64.4s28.8,64.4,64.4,64.4s64.4-28.8,64.4-64.4S135.6,35.7,100,35.7z
	 M100,157.3c-7.7,0-15.2-1.5-22.2-4.5c-6.8-2.9-12.9-7-18.2-12.3c-5.3-5.3-9.4-11.4-12.3-18.2c-3-7-4.5-14.5-4.5-22.2
	s1.5-15.2,4.5-22.2c2.4-5.7,5.7-10.9,9.8-15.5l80.7,80.7c-4.6,4.1-9.8,7.4-15.5,9.8C115.2,155.8,107.7,157.3,100,157.3z
	 M142.9,137.9L62.2,57.2c4.6-4.1,9.8-7.4,15.5-9.8c7-3,14.5-4.5,22.2-4.5c7.7,0,15.2,1.5,22.2,4.5c6.8,2.9,12.9,7,18.2,12.3
	c5.3,5.3,9.4,11.4,12.3,18.2c3,7,4.5,14.5,4.5,22.2s-1.5,15.2-4.5,22.2C150.3,128,147,133.3,142.9,137.9L142.9,137.9z"/>
</svg>
