<?xml version="1.0" encoding="utf-8"?>
<!-- Generator: Adobe Illustrator 22.1.0, SVG Export Plug-In . SVG Version: 6.00 Build 0)  -->
<svg version="1.1" id="图层_1" xmlns="http://www.w3.org/2000/svg" xmlns:xlink="http://www.w3.org/1999/xlink" x="0px" y="0px"
	 viewBox="0 0 200 200" style="enable-background:new 0 0 200 200;" xml:space="preserve">
<style type="text/css">
	.st0{fill:#BFBFBF;}
</style>
<path class="st0" d="M83.7,156.1l0.7,0.1c4.1,0.2,7.1,0.3,9,0.3c11.8,0,20.4-2.1,25.8-6.4c5.4-4.3,8.1-11.2,8.1-20.7
	c0-8.6-2.6-15-7.6-19.3c-5-4.2-12.6-6.3-22.8-6.3c-3,0-5.5,0-7.4,0.1c-2,0.1-3.9,0.1-5.9,0.3L83.7,156.1L83.7,156.1z M83.9,92.4
	c0.6,0.1,1.2,0.1,2,0.1s1.9,0.1,3.5,0.1c10.5,0,18.2-2.1,23.2-6.3c5-4.2,7.5-10.8,7.5-19.9c0-7.9-2.3-13.7-6.9-17.5
	s-11.7-5.7-21.2-5.7c-1.6,0-4.1,0.1-7.5,0.4h-0.6V92.4z M42.4,32.3H103c14.8,0,26,2.6,33.5,7.9s11.3,13.2,11.3,23.7
	c0,7.9-2.4,14.6-7.3,19.9c-4.8,5.4-12,9.2-21.5,11.8c11.5,0.2,20.6,3.2,27,8.8c6.4,5.7,9.7,13.6,9.7,23.7c0,12.8-4.3,22.5-13.1,29.3
	s-21.3,10.2-37.8,10.2H42.4v-9.9l11.9-1.1l3.2-3.2V46l-3.2-2.8l-11.9-1V32.3z"/>
</svg>
