<?xml version="1.0" encoding="utf-8"?>
<!-- Generator: Adobe Illustrator 22.1.0, SVG Export Plug-In . SVG Version: 6.00 Build 0)  -->
<svg version="1.1" id="图层_1" xmlns="http://www.w3.org/2000/svg" xmlns:xlink="http://www.w3.org/1999/xlink" x="0px" y="0px"
	 viewBox="0 0 200 200" style="enable-background:new 0 0 200 200;" xml:space="preserve">
<path d="M37.4,155.8h123.9v10.3H37.4V155.8z M37.4,31.9h53.4V40l-11.5,0.8l-2.6,2.3v58.2c0,11.1,2.3,19,7,23.8s12.5,7.1,23.2,7.1
	c9.9,0,17.1-2.6,21.5-7.6c4.4-5,6.6-13.4,6.6-24.9V43.8l-2.8-2.8l-11.9-1v-8.1h42.2V40l-11.3,1l-2.6,2.8v57.7
	c0,15.4-3.9,26.6-11.6,33.6c-7.7,6.9-20.3,10.4-37.5,10.4c-9,0-16.9-1.2-23.8-3.6c-6.8-2.3-12.1-5.7-16-10.1c-3-3.5-5-7.4-6.3-11.9
	c-1.2-4.5-1.9-10.9-1.9-19.2V43.2L49,40.8L37.4,40V31.9z"/>
</svg>
