<?xml version="1.0" standalone="no"?><!DOCTYPE svg PUBLIC "-//W3C//DTD SVG 1.1//EN" "http://www.w3.org/Graphics/SVG/1.1/DTD/svg11.dtd"><svg t="1556082129210" class="icon" style="" viewBox="0 0 1026 1024" version="1.1" xmlns="http://www.w3.org/2000/svg" p-id="9825" xmlns:xlink="http://www.w3.org/1999/xlink" width="200.390625" height="200"><defs><style type="text/css"></style></defs><path d="M756.660375 561.871457H541.232032v-97.290219h126.109381c18.190818 0 33.111377-14.716168 33.111377-33.111378v-99.538523c0-18.190818-14.716168-33.111377-33.111377-33.111377h-126.109381V161.264671c0-16.146906-13.081038-29.227944-29.227944-29.227944s-29.227944 13.081038-29.227944 29.227944v137.555289h-126.109382c-18.190818 0-33.111377 14.716168-33.111377 33.111377v99.538523c0 18.190818 14.716168 33.111377 33.111377 33.111378h126.109382v97.290219H267.3478c-18.190818 0-33.111377 14.716168-33.111377 33.111377v99.538523c0 18.190818 14.716168 33.111377 33.111377 33.111378h215.428344v135.102594c0 16.146906 13.081038 29.227944 29.227944 29.227944s29.227944-13.081038 29.227944-29.227944V727.632735h215.428343c18.190818 0 33.111377-14.716168 33.111377-33.111378v-99.538523c-0.204391-18.39521-14.920559-33.111377-33.111377-33.111377z" p-id="9826"></path></svg>