<?xml version="1.0" encoding="utf-8"?>
<!-- Generator: Adobe Illustrator 22.1.0, SVG Export Plug-In . SVG Version: 6.00 Build 0)  -->
<svg version="1.1" id="图层_1" xmlns="http://www.w3.org/2000/svg" xmlns:xlink="http://www.w3.org/1999/xlink" x="0px" y="0px"
	 viewBox="0 0 200 200" style="enable-background:new 0 0 200 200;" xml:space="preserve">
<style type="text/css">
	.st0{fill:#F32B2B;}
</style>
<path class="st0" d="M114.4,100l42,42c3.8,3.8,3.8,9.9,0,13.7l-0.7,0.7c-3.8,3.8-9.9,3.8-13.7,0l-42-42l-42,42
	c-3.8,3.8-9.9,3.8-13.7,0l-0.7-0.7c-3.8-3.8-3.8-9.9,0-13.7l42-42l-42-42c-3.8-3.8-3.8-9.9,0-13.7l0.7-0.7c3.8-3.8,9.9-3.8,13.7,0
	l42,42l42-42c3.8-3.8,9.9-3.8,13.7,0l0.7,0.7c3.8,3.8,3.8,9.9,0,13.7L114.4,100z"/>
</svg>
