<?xml version="1.0" encoding="utf-8"?>
<!-- Generator: Adobe Illustrator 22.1.0, SVG Export Plug-In . SVG Version: 6.00 Build 0)  -->
<svg version="1.1" id="图层_1" xmlns="http://www.w3.org/2000/svg" xmlns:xlink="http://www.w3.org/1999/xlink" x="0px" y="0px"
	 viewBox="0 0 200 200" style="enable-background:new 0 0 200 200;" xml:space="preserve">
<style type="text/css">
	.st0{fill:#BFBFBF;}
</style>
<path class="st0" d="M90.8,36.3v100.5c0,0.4-0.4,0.8-0.8,0.8H61c-0.4,0-0.8-0.4-0.8-0.8V36.3c0-0.4,0.4-0.8,0.8-0.8h29
	C90.4,35.5,90.8,35.8,90.8,36.3z M139.3,69.1v67.7c0,0.4-0.4,0.8-0.8,0.8h-29c-0.4,0-0.8-0.4-0.8-0.8V69.1c0-0.4,0.4-0.8,0.8-0.8h29
	C139,68.3,139.3,68.6,139.3,69.1z M170.1,159.2c0,3-2.4,5.4-5.4,5.4H35.3c-3,0-5.4-2.4-5.4-5.4s2.4-5.4,5.4-5.4h129.4
	C167.7,153.8,170.1,156.2,170.1,159.2z"/>
</svg>
