<?xml version="1.0" standalone="no"?><!DOCTYPE svg PUBLIC "-//W3C//DTD SVG 1.1//EN" "http://www.w3.org/Graphics/SVG/1.1/DTD/svg11.dtd"><svg t="1556082142974" class="icon" style="" viewBox="0 0 1024 1024" version="1.1" xmlns="http://www.w3.org/2000/svg" p-id="9964" xmlns:xlink="http://www.w3.org/1999/xlink" width="200" height="200"><defs><style type="text/css"></style></defs><path d="M559.104 838.2464V323.584c0-2.2528 1.8432-4.096 4.096-4.096h148.2752c2.2528 0 4.096 1.8432 4.096 4.096v514.6624c0 2.2528-1.8432 4.096-4.096 4.096H563.2c-2.2528 0-4.096-1.8432-4.096-4.096zM310.6816 670.3104V323.584c0-2.2528 1.8432-4.096 4.096-4.096h148.2752c2.2528 0 4.096 1.8432 4.096 4.096v346.5216c0 2.2528-1.8432 4.096-4.096 4.096h-148.2752c-2.2528 0.2048-4.096-1.6384-4.096-3.8912zM152.9856 209.1008c0-15.1552 12.288-27.4432 27.648-27.4432h662.7328c15.1552 0 27.648 12.288 27.648 27.4432s-12.288 27.4432-27.648 27.4432H180.6336c-15.1552 0.2048-27.648-12.0832-27.648-27.4432z" p-id="9965"></path></svg>