<?xml version="1.0" encoding="utf-8"?>
<!-- Generator: Adobe Illustrator 22.1.0, SVG Export Plug-In . SVG Version: 6.00 Build 0)  -->
<svg version="1.1" id="图层_1" xmlns="http://www.w3.org/2000/svg" xmlns:xlink="http://www.w3.org/1999/xlink" x="0px" y="0px"
	 viewBox="0 0 56 56" style="enable-background:new 0 0 56 56;" xml:space="preserve">
<style type="text/css">
	.st0{fill-opacity:0;}
	.st1{fill:#A0ACB6;}
	.st2{fill:#54698D;}
</style>
<title>合并执行备份 2</title>
<desc>Created with Sketch.</desc>
<g id="业务" transform="translate(6.000000, 6.000000)">
	<rect id="矩形" class="st0" width="45" height="45"/>
	<path id="形状" class="st1" d="M34.2,21.3c1.1,0,2.2,0.3,3.4,0.6v-9.5L25,0H4C1.8,0,0,1.8,0,4v34.7c0,2.2,1.8,4,4,4h20.1
		c-1.7-2.5-2.8-5.3-2.8-8.4C21.3,27,27.2,21.3,34.2,21.3z M23.6,4.8l9.5,9.5h-9.5V4.8z M7.4,11.1H15c0.6,0,1,0.4,1,1v0.6
		c0,0.6-0.4,1-1,1H7.4c-0.6,0-1-0.4-1-1v-0.6C6.4,11.6,6.9,11.1,7.4,11.1z M15,30.1H7.4c-0.6,0-1-0.4-1-1v-0.6c0-0.6,0.4-1,1-1H15
		c0.6,0,1,0.4,1,1v0.6C16,29.7,15.5,30.1,15,30.1z M21,21.4H7.4c-0.6,0-1-0.4-1-1v-0.6c0-0.6,0.4-1,1-1H21c0.6,0,1,0.4,1,1v0.6
		C22,20.9,21.6,21.4,21,21.4z"/>
	<path id="路径" class="st2" d="M33.5,33.8l5.9-8.7c-1.7-0.8-3.4-1.4-5.1-1.4c-5.9,0-10.7,4.8-10.7,10.7S28.2,45,33.8,45h0.6
		c5.9,0,10.4-4.5,10.7-10.4L33.5,33.8z"/>
</g>
</svg>
