<?xml version="1.0" encoding="utf-8"?>
<!-- Generator: Adobe Illustrator 22.1.0, SVG Export Plug-In . SVG Version: 6.00 Build 0)  -->
<svg version="1.1" id="图层_1" xmlns="http://www.w3.org/2000/svg" xmlns:xlink="http://www.w3.org/1999/xlink" x="0px" y="0px"
	 viewBox="0 0 56 56" style="enable-background:new 0 0 56 56;" xml:space="preserve">
<style type="text/css">
	.st0{fill-opacity:0;}
	.st1{fill:#A0ACB6;}
	.st2{fill:#54698D;}
</style>
<title>123</title>
<desc>Created with Sketch.</desc>
<g id="分组-24" transform="translate(2.000000, 2.000000)">
	<g id="审批管理">
		<rect id="矩形" class="st0" width="52" height="52"/>
		<path id="形状" class="st1" d="M27.5,19.5c-1.3,1-1.5,2.7-1.5,3.5v1.5c0,2,1.3,3.7,3.1,4.3L27.9,30l-1.6,1.6l1,2l0.7,1.3
			l-1.4,0.5L24.5,36v2.2H0v-6.1c0-0.8,0.3-1.6,0.9-2.2c0.6-0.6,1.4-0.9,2.2-0.9h9.2c2.5,0,4.6-2.1,4.6-4.6v-1.5
			c0-0.8-0.2-2.4-1.5-3.5c-3-2.2-4.6-5.2-4.6-8.8C10.7,4.8,15.5,0,21.4,0s10.7,4.8,10.7,10.7C32.1,14.3,30.5,17.3,27.5,19.5z
			 M24.5,39.8v3.1H3.1c-0.8,0-1.6-0.3-2.2-0.9S0,40.6,0,39.8H24.5L24.5,39.8z"/>
		<path id="形状结合" class="st2" d="M51,38.2v3.1l-3.5,1.2c-0.2,0.6-0.4,1.1-0.7,1.6l1.6,3.3l-2.2,2.2L43,47.8
			c-0.5,0.3-1,0.5-1.5,0.7L40.3,52h-3.1l-1.2-3.5c-0.5-0.2-1.1-0.4-1.5-0.7l-3.3,1.7l-2.2-2.2l1.6-3.3c-0.3-0.5-0.5-1-0.7-1.6
			l-3.5-1.2v-3.1l3.5-1.2c0.2-0.6,0.4-1.1,0.7-1.6l-1.6-3.3l2.2-2.2l3.3,1.7c0.5-0.3,1-0.5,1.5-0.7l1.2-3.5h3.1l1.2,3.5
			c0.5,0.2,1.1,0.4,1.5,0.7l3.3-1.7l2.2,2.2l-1.6,3.3c0.3,0.5,0.5,1,0.7,1.6L51,38.2z M38.8,35.2c-1.2,0-2.4,0.5-3.2,1.3
			c-0.9,0.9-1.3,2-1.3,3.2c0,1.2,0.5,2.4,1.3,3.2c0.9,0.9,2,1.3,3.2,1.3c2.5,0,4.6-2.1,4.6-4.6c0-1.2-0.5-2.4-1.3-3.2
			C41.2,35.7,40,35.2,38.8,35.2z"/>
	</g>
</g>
</svg>
