<?xml version="1.0" encoding="utf-8"?>
<!-- Generator: Adobe Illustrator 22.1.0, SVG Export Plug-In . SVG Version: 6.00 Build 0)  -->
<svg version="1.1" id="图层_1" xmlns="http://www.w3.org/2000/svg" xmlns:xlink="http://www.w3.org/1999/xlink" x="0px" y="0px"
	 viewBox="0 0 56 56" style="enable-background:new 0 0 56 56;" xml:space="preserve">
<style type="text/css">
	.st0{fill-opacity:0;}
	.st1{fill:#A0ACB6;}
	.st2{fill:#54698D;}
</style>
<title>合并执行备份 3</title>
<desc>Created with Sketch.</desc>
<g id="预警" transform="translate(4.000000, 2.000000)">
	<rect id="矩形" class="st0" width="48" height="48.4"/>
	<path id="形状结合" class="st1" d="M40.4,30.7c-0.8-0.2-1.7-0.3-2.6-0.3c-6.6,0-12,5.4-12,12.1c0,2.1,0.5,4.1,1.5,5.8H2.1
		c-1.1,0-2.1-0.9-2.1-2.1c0-1.2,0.9-2.1,2.1-2.1h6.2h0V29c0-9,7.2-16.4,16.1-16.4S40.4,20,40.4,29V30.7z M37.7,4.6
		c0.7,0.4,1,1.4,0.6,2.2l-2.9,5l-2.7-1.6l2.9-5C36,4.5,36.9,4.2,37.7,4.6L37.7,4.6z M24.3,0.9c0.9,0,1.7,0.7,1.7,1.6v5.7h-3.4V2.5
		C22.6,1.6,23.4,0.9,24.3,0.9L24.3,0.9L24.3,0.9z M11,4.6c0.7-0.4,1.7-0.2,2.1,0.6c0,0,0,0,0,0l2.9,5l-2.7,1.6l-2.9-5
		C10,6,10.2,5.1,11,4.6L11,4.6z M1.2,14.6c0.4-0.8,1.4-1,2.1-0.6c0,0,0,0,0,0L8.3,17l-1.6,2.8l-4.9-2.9C1,16.3,0.8,15.4,1.2,14.6
		L1.2,14.6z M47.4,14.6c0.4,0.8,0.2,1.7-0.6,2.2l-4.9,2.9l-1.6-2.8l4.9-2.9C46.1,13.6,47,13.9,47.4,14.6
		C47.4,14.6,47.4,14.6,47.4,14.6L47.4,14.6L47.4,14.6z"/>
	<path id="形状结合_1_" class="st2" d="M38.3,52.8c-5.4,0-9.7-4.4-9.7-9.8s4.3-9.8,9.7-9.8S48,37.6,48,43S43.7,52.8,38.3,52.8z
		 M39.9,34.4l-5.8,10.1h4.6l-1.2,7.6L43.4,42h-4.6L39.9,34.4L39.9,34.4z"/>
</g>
</svg>
