<?xml version="1.0" encoding="utf-8"?>
<!-- Generator: Adobe Illustrator 22.1.0, SVG Export Plug-In . SVG Version: 6.00 Build 0)  -->
<svg version="1.1" id="图层_1" xmlns="http://www.w3.org/2000/svg" xmlns:xlink="http://www.w3.org/1999/xlink" x="0px" y="0px"
	 viewBox="0 0 56 56" style="enable-background:new 0 0 56 56;" xml:space="preserve">
<style type="text/css">
	.st0{fill-opacity:0;}
	.st1{fill:#A0ACB6;}
	.st2{fill:#54698D;}
</style>
<title>合并执行备份 4</title>
<desc>Created with Sketch.</desc>
<g id="分组-13" transform="translate(2.000000, 3.000000)">
	<g id="消息通知">
		<rect id="矩形" class="st0" width="49.4" height="49.4"/>
		<path id="形状结合" class="st1" d="M27.9,39.5H6.2c-1.3,0-2.4-1-2.4-2.2c0-1.2,1.1-2.2,2.5-2.2c2.4-0.1,2.4-7.7,2.4-7.7v-6
			c0-7.7,5.5-14.2,12.2-16.3c0-0.2-0.1-0.5-0.1-0.7C20.8,2,23,0,25.6,0c2.7,0,4.8,2,4.8,4.4l0,0c0,0.2,0,0.5-0.1,0.7
			c7.1,2.1,12.2,8.6,12.2,16.3v2.8C41.8,24.1,40.9,24,40,24c-7.2,0-13,5.1-13,11.4C27,36.8,27.3,38.2,27.9,39.5z M32.5,44.6
			c-0.9,2.6-3.2,4.7-6.8,4.7c-4.9,0-7.3-3.8-7.3-7.4h11C30.2,43,31.3,43.9,32.5,44.6z"/>
	</g>
	
		<g id="消息" transform="translate(40.977273, 36.127119) scale(-1, 1) translate(-40.977273, -36.127119) translate(29.477273, 25.627119)">
		<path id="形状结合_1_" class="st2" d="M4.8,16.7C2.2,15,0.5,12.4,0.5,9.5c0-5,4.9-9.1,11-9.1c6.1,0,11,4.1,11,9.1
			c0,5-4.9,9.1-11,9.1c-1.1,0-2.1-0.1-3.1-0.4l-2.8,2c-0.4,0.3-0.8,0.1-0.8-0.4L4.8,16.7L4.8,16.7z M16.5,10.4
			c0.8,0,1.5-0.6,1.5-1.4c0-0.8-0.6-1.4-1.5-1.4c-0.8,0-1.5,0.6-1.5,1.4C15,9.7,15.7,10.4,16.5,10.4z M11.1,10.4
			c0.8,0,1.5-0.6,1.5-1.4c0-0.8-0.6-1.4-1.5-1.4S9.6,8.1,9.6,8.9C9.6,9.7,10.3,10.4,11.1,10.4z M5.6,10.4C6.4,10.4,7,9.7,7,8.9
			c0-0.8-0.6-1.4-1.5-1.4S4.1,8.1,4.1,8.9C4.1,9.7,4.8,10.4,5.6,10.4z"/>
	</g>
</g>
</svg>
