<?xml version="1.0" standalone="no"?><!DOCTYPE svg PUBLIC "-//W3C//DTD SVG 1.1//EN" "http://www.w3.org/Graphics/SVG/1.1/DTD/svg11.dtd"><svg t="1552292683486" class="icon" style="" viewBox="0 0 1024 1024" version="1.1" xmlns="http://www.w3.org/2000/svg" p-id="5963" xmlns:xlink="http://www.w3.org/1999/xlink" width="200" height="200"><defs><style type="text/css"></style></defs><path d="M832 640l0 192L256 832l0-192L832 640M832 576 256 576c-35.392 0-64 28.608-64 64l0 192c0 35.392 28.608 64 64 64l576 0c35.392 0 64-28.608 64-64l0-192C896 604.608 867.392 576 832 576L832 576zM640 192 256 192C220.608 192 192 220.608 192 256l0 128c0 35.392 28.608 64 64 64l384 0c35.392 0 64-28.608 64-64L704 256C704 220.608 675.392 192 640 192L640 192zM96 64C78.336 64 64 78.336 64 96l0 896C64 1009.664 78.336 1024 96 1024l0 0C113.664 1024 128 1009.664 128 992l0-896C128 78.336 113.664 64 96 64L96 64z" p-id="5964"></path></svg>