<?xml version="1.0" standalone="no"?><!DOCTYPE svg PUBLIC "-//W3C//DTD SVG 1.1//EN" "http://www.w3.org/Graphics/SVG/1.1/DTD/svg11.dtd"><svg t="1552370031143" class="icon" style="" viewBox="0 0 1024 1024" version="1.1" xmlns="http://www.w3.org/2000/svg" p-id="27182" xmlns:xlink="http://www.w3.org/1999/xlink" width="200" height="200"><defs><style type="text/css"></style></defs><path d="M898.71 91.142H125.315c-18.639 0-33.75 15.111-33.75 33.75v773.395c0 18.639 15.111 33.75 33.75 33.75h507.543s15.326-0.641 24.818-10.133c11.074-11.074 10.352-24.375 10.352-24.375s0.957-12.714-10.469-24.141c-10.723-10.723-24.701-9.298-24.701-9.298H159.849V159.593h704.496v472.84s-1.59 17.242 7.785 26.617c12.422 12.422 25.898 11.953 25.898 11.953s12.714 0.761 25.313-11.836c8.964-8.964 9.12-26.735 9.12-26.735V124.89c0-18.639-15.111-33.75-33.75-33.75z m-96.489 664.173L617.929 571.022c-0.44-0.44-0.89-0.862-1.347-1.272l94.913-94.917c12.467-11.719 12.467-26.449 12.467-26.449 0-18.639-15.111-33.75-33.75-33.75h-241.86c-18.639 0-33.75 15.111-33.75 33.75v241.859c0 18.639 15.111 33.75 33.75 33.75 0 0 16.004-0.528 26.394-12.403l94.183-94.187c0.41 0.457 0.832 0.907 1.271 1.345l184.293 184.294c13.179 13.179 34.548 13.179 47.727 0s13.179-34.548 0-47.727z" p-id="27183"></path></svg>