<?xml version="1.0" standalone="no"?><!DOCTYPE svg PUBLIC "-//W3C//DTD SVG 1.1//EN" "http://www.w3.org/Graphics/SVG/1.1/DTD/svg11.dtd"><svg t="1552292603469" class="icon" style="" viewBox="0 0 1024 1024" version="1.1" xmlns="http://www.w3.org/2000/svg" p-id="5137" xmlns:xlink="http://www.w3.org/1999/xlink" width="200" height="200"><defs><style type="text/css"></style></defs><path d="M192 640l0 192 576 0 0-192L192 640M192 576l576 0c35.392 0 64 28.608 64 64l0 192c0 35.392-28.608 64-64 64L192 896c-35.392 0-64-28.608-64-64l0-192C128 604.608 156.608 576 192 576L192 576zM384 192l384 0c35.392 0 64 28.608 64 64l0 128c0 35.392-28.608 64-64 64L384 448C348.608 448 320 419.392 320 384L320 256C320 220.608 348.608 192 384 192L384 192zM928 64C945.664 64 960 78.336 960 96l0 896c0 17.664-14.336 32-32 32l0 0c-17.664 0-32-14.336-32-32l0-896C896 78.336 910.336 64 928 64L928 64z" p-id="5138"></path></svg>