<?xml version="1.0" encoding="utf-8"?>
<!-- Generator: Adobe Illustrator 21.0.0, SVG Export Plug-In . SVG Version: 6.00 Build 0)  -->
<svg version="1.1" id="图层_1" xmlns="http://www.w3.org/2000/svg" xmlns:xlink="http://www.w3.org/1999/xlink" x="0px" y="0px"
	 viewBox="0 0 56 56" style="enable-background:new 0 0 56 56;" xml:space="preserve">
<style type="text/css">
	.st0{fill:#FFFFFF;}
	.st1{fill:#334764;}
	.st2{fill:#FFA2A2;}
	.st3{fill:#D1D3D4;}
</style>
<title>简约-预警中心</title>
<desc>Created with Sketch.</desc>
<g id="业务处理8备份-3" transform="translate(12.000000, 6.000000)">
	<path id="路径" class="st0" d="M29.2,23.1c0-6.8-5.6-12.3-12.6-12.3C9.7,10.8,4,16.3,4,23.1c0,5.4,3.5,9.9,8.4,11.6v9.2h8.2v-9.1
		C25.7,33,29.2,28.5,29.2,23.1z"/>
	<path id="形状" class="st1" d="M3,23.1c0-3.7,1.5-7.1,4-9.5c2.5-2.4,5.9-3.9,9.7-3.9c3.8,0,7.2,1.5,9.7,3.9c2.5,2.4,4,5.8,4,9.5
		c0,2.7-0.8,5.2-2.2,7.3c-1.5,2.2-3.6,4-6.2,5v8.4c0,0.3-0.2,0.6-0.4,0.8c-0.2,0.2-0.5,0.3-0.8,0.3h-8.2c-0.3,0-0.6-0.1-0.8-0.3
		c-0.2-0.2-0.3-0.5-0.3-0.8v-8.4c-2.6-1.1-4.7-2.8-6.2-5C3.8,28.3,3,25.8,3,23.1z M13.7,42.8h5.9v-8c0-0.3,0.1-0.5,0.2-0.7
		c0.1-0.2,0.3-0.3,0.5-0.4c2.3-0.8,4.2-2.2,5.6-4.1c1.3-1.8,2.1-4.1,2.1-6.5c0-3.1-1.3-5.9-3.4-7.9c-2.1-2-4.9-3.3-8.1-3.3
		c-3.1,0-6,1.3-8.1,3.3c-2.1,2-3.3,4.8-3.3,7.9c0,2.4,0.8,4.6,2.1,6.5c1.3,1.8,3.3,3.3,5.6,4.1c0.2,0.1,0.4,0.2,0.5,0.4
		c0.1,0.2,0.2,0.4,0.2,0.7L13.7,42.8z"/>
	<path id="形状_1_" class="st2" d="M13.7,42.8h5.9v-8c0-0.3,0.1-0.5,0.2-0.7c0.1-0.2,0.3-0.3,0.5-0.4c2.3-0.8,4.2-2.2,5.6-4.1
		c1.3-1.8,2.1-4.1,2.1-6.5c0-3.1-1.3-5.9-3.4-7.9c-2.1-2-4.9-3.3-8.1-3.3c-3.1,0-6,1.3-8.1,3.3c-2.1,2-3.3,4.8-3.3,7.9
		c0,2.4,0.8,4.6,2.1,6.5c1.3,1.8,3.3,3.3,5.6,4.1c0.2,0.1,0.4,0.2,0.5,0.4c0.1,0.2,0.2,0.4,0.2,0.7L13.7,42.8z"/>
	<rect id="矩形" x="9.7" y="37.8" class="st0" width="14" height="4.1"/>
	<path id="形状_2_" class="st1" d="M23.8,43.1H9.6c-0.3,0-0.6-0.1-0.8-0.3c-0.2-0.2-0.3-0.4-0.3-0.7v-4.9c0-0.3,0.1-0.5,0.3-0.7
		c0.2-0.2,0.5-0.3,0.8-0.3h14.1c0.3,0,0.6,0.1,0.8,0.3c0.2,0.2,0.3,0.4,0.3,0.7v4.9c0,0.3-0.1,0.5-0.3,0.7
		C24.3,43,24.1,43.1,23.8,43.1z M10.9,41.2h12v-3.1h-12V41.2z"/>
	<path id="路径_1_" class="st3" d="M16.6,1.1V4"/>
	<path id="路径_2_" class="st1" d="M15.5,4V1.1c0-0.3,0.1-0.6,0.3-0.8C16,0.1,16.3,0,16.6,0c0.3,0,0.6,0.1,0.8,0.3
		c0.2,0.2,0.3,0.5,0.3,0.8V4c0,0.3-0.1,0.6-0.3,0.8c-0.2,0.2-0.5,0.3-0.8,0.3c-0.3,0-0.6-0.1-0.8-0.3C15.6,4.6,15.5,4.3,15.5,4z"/>
	<path id="路径_3_" class="st3" d="M31.7,6.7l-1.9,2.2"/>
	<path id="路径_4_" class="st1" d="M28.9,8.2L30.7,6c0.2-0.3,0.5-0.4,0.8-0.4c0.3,0,0.6,0,0.8,0.2c0.3,0.2,0.4,0.5,0.4,0.8
		c0,0.3-0.1,0.6-0.3,0.8l-1.9,2.2c-0.1,0.1-0.2,0.3-0.3,0.3C30.2,10,30,10,29.8,10c-0.2,0-0.5,0-0.7-0.3c-0.3-0.2-0.4-0.5-0.5-0.8
		C28.6,8.7,28.7,8.4,28.9,8.2z"/>
	<path id="路径_5_" class="st3" d="M1.1,6.7L3,8.9"/>
	<path id="路径_6_" class="st1" d="M0.4,5.9C0.7,5.7,1,5.6,1.3,5.7c0.3,0,0.5,0.2,0.7,0.4l1.8,2.2c0.2,0.3,0.3,0.6,0.3,0.8
		c0,0.3-0.2,0.5-0.4,0.7C3.5,10,3.3,10,3,10C2.6,10,2.3,10,2.1,9.7L0.3,7.5C0.1,7.2,0,6.9,0,6.6C0,6.4,0.2,6.1,0.4,5.9z"/>
</g>
</svg>
