<?xml version="1.0" encoding="utf-8"?>
<!-- Generator: Adobe Illustrator 21.0.0, SVG Export Plug-In . SVG Version: 6.00 Build 0)  -->
<svg version="1.1" id="图层_1" xmlns="http://www.w3.org/2000/svg" xmlns:xlink="http://www.w3.org/1999/xlink" x="0px" y="0px"
	 viewBox="0 0 56 56" style="enable-background:new 0 0 56 56;" xml:space="preserve">
<style type="text/css">
	.st0{fill:#FFFFFF;}
	.st1{fill:#FFA2A2;}
	.st2{fill:#334764;}
</style>
<title>简约-业务中心</title>
<desc>Created with Sketch.</desc>
<path id="矩形" class="st0" d="M10,26.1h38c1.1,0,2,0.9,2,2V46c0,1.1-0.9,2-2,2H10c-1.1,0-2-0.9-2-2V28.1C8,27,8.9,26.1,10,26.1z"
	/>
<g id="yewu备份" transform="translate(6.000000, 7.000000)">
	<rect id="矩形_1_" x="2" y="10" class="st1" width="41" height="10"/>
	<path id="形状" class="st2" d="M45,10.8v29.1c0,0.9-0.3,1.6-0.9,2.2c-0.6,0.6-1.3,0.9-2.2,0.9H3.1c-0.9,0-1.6-0.3-2.2-0.9
		C0.3,41.5,0,40.8,0,39.9V10.8C0,10,0.3,9.2,0.9,8.6c0.6-0.6,1.3-0.9,2.2-0.9h8.5V1.8c0-0.6,0.2-1,0.6-1.3C12.9,0.1,13.8,0,14.7,0
		h15.5c1,0,1.9,0.1,2.5,0.5c0.4,0.3,0.6,0.7,0.6,1.3v5.9h8.5c0.9,0,1.6,0.3,2.2,0.9C44.6,9.2,45,10,45,10.8z M27,21.7h-9
		c0.5,2,2.3,3.5,4.5,3.5S26.5,23.7,27,21.7z M39.4,10.1c-1.8,0-4.5,0-7.5,0c-15,0-29.5,0.7-29.5,0.7l0,0.1l0,0c0,0,0,0.1,0,0.2
		c0,0.1,0,0.3,0,0.6c0,0.5,0,1.1,0,1.9c0,1.5,0,3.6,0,5.8h39.1c0,0,0.1,0,0.1,0c0,0,0.1,0,0.1,0l1,0.2v-8.8l-0.9-0.8l0,0l0.1,0l0,0
		l0,0l0,0l0,0h0h0l0,0c0,0-0.1,0-0.1,0c-0.1,0-0.3,0-0.5,0C40.8,10.1,40.2,10.1,39.4,10.1z M42.6,40.2l0.1-0.2l0,0l0-0.1l0,0l0,0
		l0,0l0,0l0,0c0,0,0,0,0-0.1c0,0,0-0.1,0-0.2c0-0.2,0-0.4,0-0.8c0-0.7,0-1.8,0-3.1c0-3.5,0-8.7,0-13.4v-1l-1,0.2c0,0-0.1,0-0.1,0
		c0,0-0.1,0-0.1,0H29.4c-0.3,1.8-1.3,3.3-2.6,4.4c-1.2,0.9-2.6,1.5-4.2,1.5s-3.1-0.5-4.2-1.5c-1.4-1.1-2.3-2.6-2.6-4.4H2.3v19l0.8,0
		l0,0c0,0,0.1,0,0.1,0c0.1,0,0.3,0,0.5,0c0.4,0,1.1,0,1.9,0c1.8,0,4.5,0,7.5,0c11.7,0,29.2-0.1,29.2-0.1L42.6,40.2z M31,7.7V2.3H14
		v5.4H31z"/>
</g>
</svg>
