<?xml version="1.0" encoding="utf-8"?>
<!-- Generator: Adobe Illustrator 21.0.0, SVG Export Plug-In . SVG Version: 6.00 Build 0)  -->
<svg version="1.1" id="图层_1" xmlns="http://www.w3.org/2000/svg" xmlns:xlink="http://www.w3.org/1999/xlink" x="0px" y="0px"
	 viewBox="0 0 56 56" style="enable-background:new 0 0 56 56;" xml:space="preserve">
<style type="text/css">
	.st0{fill:#FFFFFF;}
	.st1{fill:#FFA2A2;}
	.st2{fill:#334764;}
</style>
<title>简约-通知中心</title>
<desc>Created with Sketch.</desc>
<g id="编组" transform="translate(6.000000, 9.000000)">
	<polygon id="矩形" class="st0" points="10,12 32.3,2 32.3,37.4 10,27 	"/>
	<g id="laba备份">
		<rect id="矩形_1_" x="2" y="12" class="st1" width="7" height="16"/>
		<path id="形状" class="st2" d="M40,19.5c0,2-0.6,3.9-1.8,5.5c-0.2,0.3-0.5,0.5-0.9,0.5c-0.4,0.1-0.7,0-1-0.3
			c-0.3-0.2-0.5-0.6-0.5-0.9c0-0.4,0-0.7,0.3-1c0.8-1.1,1.3-2.5,1.3-3.9c0-1.4-0.4-2.7-1.3-3.9c-0.2-0.3-0.3-0.7-0.3-1
			c0-0.4,0.2-0.7,0.5-0.9c0.3-0.2,0.7-0.3,1-0.3c0.4,0.1,0.7,0.2,0.9,0.5C39.4,15.6,40,17.5,40,19.5z M45,19.5
			c0,3.4-1.1,6.6-3.1,9.3c-0.2,0.3-0.5,0.5-0.9,0.5c-0.4,0.1-0.7,0-1-0.3c-0.3-0.2-0.5-0.6-0.5-0.9c0-0.4,0-0.7,0.3-1
			c1.6-2.2,2.5-4.8,2.5-7.6c0-2.7-0.9-5.4-2.5-7.6c-0.2-0.3-0.3-0.7-0.3-1c0-0.4,0.2-0.7,0.5-0.9c0.3-0.2,0.7-0.3,1-0.3
			c0.4,0.1,0.7,0.2,0.9,0.5C43.9,12.9,45,16.1,45,19.5z M33.6,3V36c0,0.8-0.3,1.6-0.9,2.1c-0.5,0.5-1.3,0.9-2.1,0.9L10,29.1l-7,0
			c-0.8,0-1.6-0.3-2.1-0.9C0.3,27.7,0,26.9,0,26.1V12.9c0-0.8,0.3-1.6,0.9-2.1C1.4,10.2,2.2,9.9,3,9.9h7L30.7,0
			c0.8,0,1.5,0.4,2.1,0.9C33.3,1.4,33.6,2.2,33.6,3z M11.2,12.4l-0.3,0.1v14l0.3,0.1L30.9,36V3L11.2,12.4z M8.1,26.3V12.7H2.7v10.1
			v3.5H8.1z"/>
	</g>
</g>
</svg>
