<?xml version="1.0" encoding="utf-8"?>
<!-- Generator: Adobe Illustrator 21.0.0, SVG Export Plug-In . SVG Version: 6.00 Build 0)  -->
<svg version="1.1" id="图层_1" xmlns="http://www.w3.org/2000/svg" xmlns:xlink="http://www.w3.org/1999/xlink" x="0px" y="0px"
	 viewBox="0 0 56 56" style="enable-background:new 0 0 56 56;" xml:space="preserve">
<style type="text/css">
	.st0{fill:#FFA2A2;}
	.st1{fill:#334764;}
	.st2{fill:#FFFFFF;}
	.st3{fill:#D1D3D4;}
</style>
<title>简约-审批中心</title>
<desc>Created with Sketch.</desc>
<rect id="矩形" x="7.3" y="9.3" class="st0" width="42.4" height="29.3"/>
<path id="形状" class="st1" d="M7.3,8h42.4c0.4,0,0.7,0.1,0.9,0.4C50.8,8.6,51,8.9,51,9.3v29.3c0,0.4-0.1,0.7-0.4,0.9
	c-0.2,0.2-0.6,0.4-0.9,0.4H7.3c-0.4,0-0.7-0.1-0.9-0.4C6.1,39.2,6,38.9,6,38.6V9.3c0-0.4,0.1-0.7,0.4-0.9C6.6,8.1,6.9,8,7.3,8z
	 M8.6,37.3h39.8V10.6H8.6V37.3z"/>
<polygon id="路径" class="st2" points="15.7,45.9 49.7,45.9 49.7,23.5 "/>
<path id="形状_1_" class="st1" d="M15,44.9l34-22.4c0.2-0.1,0.4-0.2,0.6-0.2c0.2,0,0.5,0,0.7,0.1c0.2,0.1,0.4,0.3,0.5,0.5
	c0.1,0.2,0.2,0.4,0.2,0.7v22.3c0,0.4-0.1,0.7-0.4,0.9c-0.2,0.2-0.6,0.4-0.9,0.4h-34c-0.3,0-0.6-0.1-0.8-0.3
	c-0.2-0.2-0.4-0.4-0.4-0.6c-0.1-0.3-0.1-0.6,0-0.8C14.6,45.3,14.7,45,15,44.9z M19.9,44.6h28.4V25.9L19.9,44.6z"/>
<polygon id="路径_1_" class="st2" points="41.3,45.9 7.3,45.9 7.3,23.5 "/>
<path id="形状_2_" class="st1" d="M8.1,22.4l34,22.4c0.2,0.2,0.4,0.4,0.5,0.7c0.1,0.2,0.1,0.5,0,0.7c-0.1,0.3-0.3,0.6-0.6,0.8
	c-0.2,0.2-0.5,0.2-0.7,0.2h-34c-0.4,0-0.7-0.1-0.9-0.4C6.1,46.6,6,46.3,6,45.9V23.5c0-0.2,0.1-0.5,0.2-0.7c0.1-0.2,0.3-0.4,0.5-0.5
	C7.1,22.1,7.6,22.2,8.1,22.4z M8.6,44.6H37L8.6,25.9V44.6z"/>
<polygon id="路径_2_" class="st2" points="7.3,45.9 28.4,23.5 49.7,45.9 "/>
<path id="形状_3_" class="st1" d="M6.4,45l21.1-22.4c0.3-0.3,0.6-0.4,1-0.4c0.3,0,0.7,0.1,0.9,0.4L50.6,45
	c0.2,0.2,0.3,0.4,0.3,0.7c0,0.2,0,0.5-0.1,0.7c-0.1,0.2-0.2,0.4-0.4,0.6c-0.2,0.1-0.5,0.2-0.7,0.2H7.3c-0.3,0-0.5-0.1-0.7-0.2
	c-0.2-0.1-0.4-0.3-0.5-0.6C6,46.2,6,45.9,6.1,45.7C6.1,45.4,6.2,45.2,6.4,45z M10.3,44.6h36.3L28.4,25.4L10.3,44.6z"/>
<path id="路径_3_" class="st3" d="M12.7,15.1h17.5"/>
<path id="路径_4_" class="st1" d="M12.7,13.9h17.5c0.4,0,0.7,0.1,0.9,0.4c0.2,0.2,0.4,0.6,0.4,0.9s-0.1,0.7-0.4,0.9
	c-0.2,0.2-0.6,0.4-0.9,0.4H12.7c-0.4,0-0.7-0.1-0.9-0.4c-0.2-0.2-0.4-0.6-0.4-0.9s0.1-0.7,0.4-0.9C12,14,12.3,13.9,12.7,13.9z"/>
</svg>
