<?xml version="1.0" standalone="no"?><!DOCTYPE svg PUBLIC "-//W3C//DTD SVG 1.1//EN" "http://www.w3.org/Graphics/SVG/1.1/DTD/svg11.dtd"><svg t="1551432534201" class="icon" style="fill:#007ACE;" viewBox="0 0 1024 1024" version="1.1" xmlns="http://www.w3.org/2000/svg" p-id="7952" xmlns:xlink="http://www.w3.org/1999/xlink" width="200" height="200"><defs><style type="text/css"></style></defs><path d="M136.192 397.7216h748.8512c2.3552 0 4.8128-0.3072 7.168-0.7168 6.8608-1.2288 13.2096-4.5056 18.1248-9.5232 13.312-13.312 13.312-35.0208 0-48.3328L749.9776 177.9712c-13.312-13.312-34.816-13.312-48.128 0s-13.312 35.0208 0 48.3328L803.84 328.704H136.192c-18.8416 0-33.9968 15.4624-33.9968 34.5088-0.1024 19.0464 15.1552 34.5088 33.9968 34.5088z m748.8512 229.7856H136.192c-2.56 0-5.0176 0.3072-7.4752 0.8192-6.3488 1.4336-12.288 4.608-16.896 9.216-11.264 11.3664-13.0048 28.672-5.0176 41.8816 2.048 3.4816 4.608 6.5536 7.68 9.1136l157.5936 158.5152c13.312 13.312 34.816 13.312 48.128 0s13.312-35.0208 0-48.3328l-101.6832-102.2976h666.5216c18.8416 0 33.9968-15.4624 33.9968-34.5088 0.1024-18.944-15.1552-34.4064-33.9968-34.4064z" p-id="7953"></path></svg>