<?xml version="1.0" standalone="no"?><!DOCTYPE svg PUBLIC "-//W3C//DTD SVG 1.1//EN" "http://www.w3.org/Graphics/SVG/1.1/DTD/svg11.dtd"><svg t="1552292656151" class="icon" style="" viewBox="0 0 1024 1024" version="1.1" xmlns="http://www.w3.org/2000/svg" p-id="5847" xmlns:xlink="http://www.w3.org/1999/xlink" width="200" height="200"><defs><style type="text/css"></style></defs><path d="M576 896l192 0L768 320 576 320 576 896M512 896 512 320c0-35.392 28.608-64 64-64l192 0c35.392 0 64 28.608 64 64l0 576c0 35.392-28.608 64-64 64L576 960C540.608 960 512 931.392 512 896L512 896zM192 704 192 320c0-35.392 28.608-64 64-64l128 0c35.392 0 64 28.608 64 64l0 384c0 35.392-28.608 64-64 64L256 768C220.608 768 192 739.392 192 704L192 704zM64 160C64 142.336 78.336 128 96 128l832 0C945.664 128 960 142.336 960 160l0 0C960 177.664 945.664 192 928 192l-832 0C78.336 192 64 177.664 64 160L64 160z" p-id="5848"></path></svg>