<?xml version="1.0" encoding="utf-8"?>
<!-- Generator: Adobe Illustrator 22.1.0, SVG Export Plug-In . SVG Version: 6.00 Build 0)  -->
<svg version="1.1" id="图层_1" xmlns="http://www.w3.org/2000/svg" xmlns:xlink="http://www.w3.org/1999/xlink" x="0px" y="0px"
	 viewBox="0 0 1000 1000" style="enable-background:new 0 0 1000 1000;" xml:space="preserve">
<style type="text/css">
	.st0{fill:url(#SVGID_1_);}
	.st1{fill:#90A6B4;}
	.st2{fill:#EDF5F7;}
	.st3{fill:#555E60;}
	.st4{fill:#DC544F;}
</style>
<g>
	<g>
		<linearGradient id="SVGID_1_" gradientUnits="userSpaceOnUse" x1="499.9079" y1="50.0421" x2="499.9079" y2="952.7024">
			<stop  offset="0" style="stop-color:#F9F9F9"/>
			<stop  offset="1" style="stop-color:#EDEDED"/>
		</linearGradient>
		<path class="st0" d="M800,950.2H199.8c-82.9,0-150-67.2-150-150V200.1c0-82.9,67.2-150,150-150H800c82.9,0,150,67.2,150,150v600.1
			C950,883.1,882.8,950.2,800,950.2z"/>
	</g>
	<g>
		<g>
			<path class="st1" d="M295.6,205.7c-24.6,0-44.6,20-44.6,44.6s20,44.6,44.6,44.6c1.4,0,2.8-0.1,4.2-0.2h292.4v-88.7H299.8
				C298.4,205.8,297,205.7,295.6,205.7z"/>
			<path class="st1" d="M251.1,250.3v440c0,24.6,20,44.6,44.6,44.6c1.4,0,2.8-0.1,4.2-0.2h382.7V294.8H296.3v0c-0.2,0-0.4,0-0.6,0
				C271,294.8,251.1,274.9,251.1,250.3z"/>
			<path class="st2" d="M678.5,730.6H299.8c-1.6,0.1-2.9,0.2-4.2,0.2c-22.4,0-40.5-18.2-40.5-40.5V277c8.1,12.3,21.6,20.6,37.1,21.7
				v0.1l4,0h382.2V730.6z"/>
			<path class="st1" d="M327,390.4v4.2V424v4.2v29.5v4.2v29.5v4.2V525v4.2v29.5v4.2v29.5v4.2V626v4.2v29.5v4.2v25.2v4.2h294.5v-4.2
				v-25.2v-4.2v-29.5V626v-29.5v-4.2v-29.5v-4.2v-29.5V525v-29.5v-4.2v-29.5v-4.2v-29.5V424v-29.5v-4.2H327z M331.2,394.6h143.1V424
				H331.2V394.6z M331.2,428.3h143.1v29.5H331.2V428.3z M331.2,461.9h143.1v29.5H331.2V461.9z M331.2,495.6h143.1V525H331.2V495.6z
				 M331.2,529.2h143.1v29.5H331.2V529.2z M331.2,562.9h143.1v29.5H331.2V562.9z M331.2,596.6h143.1V626H331.2V596.6z M331.2,630.2
				h143.1v29.5H331.2V630.2z M331.2,689.1v-25.2h143.1v25.2H331.2z M617.4,689.1H478.5v-25.2h138.8V689.1z M617.4,659.7H478.5v-29.5
				h138.8V659.7z M617.4,626H478.5v-29.5h138.8V626z M617.4,592.3H478.5v-29.5h138.8V592.3z M617.4,558.7H478.5v-29.5h138.8V558.7z
				 M617.4,525H478.5v-29.5h138.8V525z M617.4,491.4H478.5v-29.5h138.8V491.4z M617.4,457.7H478.5v-29.5h138.8V457.7z M617.4,424
				H478.5v-29.5h138.8V424z"/>
			<rect x="328.8" y="344.6" class="st1" width="72.6" height="16.1"/>
			<rect x="433.6" y="344.6" class="st1" width="72.6" height="16.1"/>
			<rect x="538.5" y="344.6" class="st1" width="72.6" height="16.1"/>
		</g>
		<g>
			<g>
				<g>
					<path class="st2" d="M713.9,509.1c6.1,0,10.2,5.9,9.1,13.1l-14.3,93.1c-1.1,7.2-7,13.1-13.1,13.1H486.8
						c-6.1,0-10.2-5.9-9.1-13.1l14.3-93.1c1.1-7.2,7-13.1,13.1-13.1H713.9z"/>
				</g>
				<path class="st3" d="M482.2,619.8l14.3-93.1c1.1-7.2,7-13.1,13.1-13.1h208.7c1.3,0,2.5,0.3,3.6,0.8c-1.5-3.2-4.4-5.3-8-5.3
					H505.2c-6.1,0-12,5.9-13.1,13.1l-14.3,93.1c-0.9,5.7,1.5,10.5,5.5,12.3C482.2,625.5,481.8,622.8,482.2,619.8z"/>
				<path class="st3" d="M730.4,523.6c0-0.4,0-0.7,0-1.1c0-0.1,0-0.2,0-0.3c0-0.3,0-0.5-0.1-0.8c0-0.1,0-0.2-0.1-0.4
					c0-0.2-0.1-0.4-0.1-0.6c0,0,0-0.1,0-0.1c0-0.2-0.1-0.3-0.1-0.4c0-0.1,0-0.2-0.1-0.2c-0.1-0.3-0.2-0.5-0.2-0.8c0,0,0,0,0,0
					c-0.1-0.3-0.2-0.6-0.4-0.9c0,0,0,0,0-0.1c0-0.1-0.1-0.2-0.2-0.3c-0.1-0.1-0.1-0.3-0.2-0.4c0,0,0,0,0-0.1
					c-0.1-0.1-0.2-0.3-0.2-0.4c0-0.1-0.1-0.2-0.1-0.2c0,0,0,0,0,0c-0.1-0.2-0.3-0.4-0.4-0.6c0,0,0,0,0,0c0,0-0.1-0.1-0.1-0.1
					c-0.1-0.1-0.2-0.3-0.3-0.4c0,0-0.1-0.1-0.1-0.1c-0.1-0.1-0.1-0.1-0.2-0.2c-0.1-0.1-0.1-0.1-0.2-0.2c-0.1-0.1-0.1-0.1-0.2-0.2
					c-0.1-0.1-0.1-0.1-0.2-0.2c0,0-0.1-0.1-0.1-0.1c-0.1-0.1-0.3-0.2-0.4-0.3c0,0-0.1,0-0.1-0.1c0,0,0,0,0,0
					c-0.2-0.1-0.3-0.2-0.5-0.3c0,0-0.1,0-0.1,0c-0.1,0-0.1-0.1-0.2-0.1c-0.1-0.1-0.2-0.1-0.3-0.2c-0.1-0.1-0.2-0.1-0.3-0.1l-7.2-3.4
					c0.2,0.1,0.4,0.2,0.6,0.3c0.1,0,0.1,0.1,0.2,0.1c0.2,0.1,0.4,0.3,0.6,0.4c0,0,0.1,0,0.1,0.1c0.2,0.1,0.3,0.3,0.5,0.4
					c0.1,0.1,0.1,0.1,0.2,0.2c0.1,0.1,0.3,0.2,0.4,0.4c0.1,0.1,0.1,0.1,0.2,0.2c0.1,0.1,0.3,0.3,0.4,0.5c0,0,0.1,0.1,0.1,0.1
					c0.2,0.2,0.3,0.4,0.5,0.6c0,0.1,0.1,0.1,0.1,0.2c0.1,0.2,0.2,0.3,0.3,0.5c0.1,0.1,0.1,0.3,0.2,0.4c0.1,0.1,0.1,0.2,0.2,0.4
					c0.1,0.3,0.3,0.6,0.4,0.9c0.1,0.3,0.2,0.5,0.2,0.8c0,0.1,0,0.2,0.1,0.2c0,0.2,0.1,0.4,0.1,0.6c0,0.2,0.1,0.4,0.1,0.6
					c0,0.1,0,0.2,0.1,0.4c0,0.2,0.1,0.5,0.1,0.8c0,0.1,0,0.2,0,0.3c0,0.3,0,0.7,0,1.1c0,0.1,0,0.2,0,0.2c0,0.3,0,0.6-0.1,0.8
					c0,0.3-0.1,0.6-0.1,1l-14.3,93.1c-0.1,0.4-0.1,0.7-0.2,1.1c0,0.2-0.1,0.4-0.1,0.5c-0.1,0.3-0.1,0.5-0.2,0.8
					c0,0.1-0.1,0.2-0.1,0.3c-0.1,0.4-0.3,0.7-0.4,1.1c0,0,0,0.1-0.1,0.1c-0.1,0.3-0.3,0.7-0.5,1c0,0.1-0.1,0.1-0.1,0.2
					c-0.2,0.3-0.4,0.7-0.6,1c0,0.1-0.1,0.1-0.1,0.2c-0.2,0.3-0.4,0.7-0.6,1c0,0,0,0,0,0.1c-0.2,0.3-0.4,0.6-0.7,0.9
					c0,0.1-0.1,0.1-0.1,0.2c-0.2,0.3-0.5,0.6-0.7,0.8c-0.1,0.1-0.1,0.1-0.2,0.2c-0.2,0.2-0.4,0.4-0.6,0.6c-0.1,0.1-0.2,0.1-0.3,0.2
					c-0.2,0.2-0.4,0.3-0.6,0.5c-0.1,0.1-0.2,0.1-0.3,0.2c-0.1,0.1-0.3,0.2-0.4,0.3c-0.2,0.1-0.4,0.3-0.6,0.4
					c-0.3,0.2-0.6,0.3-0.9,0.5c-0.1,0-0.1,0.1-0.2,0.1c-0.3,0.1-0.6,0.3-1,0.4c0,0,0,0,0,0c-0.3,0.1-0.7,0.2-1,0.3
					c-0.1,0-0.1,0-0.2,0c-0.3,0.1-0.7,0.1-1,0.2c-0.1,0-0.1,0-0.2,0c-0.3,0-0.7,0.1-1,0.1H486.8c-1.4,0-2.6-0.3-3.7-0.8l7.2,3.4
					c1.1,0.5,2.4,0.8,3.7,0.8h208.7c0.3,0,0.7,0,1-0.1c0.1,0,0.1,0,0.2,0c0.3,0,0.7-0.1,1-0.2c0.1,0,0.1,0,0.2,0
					c0.3-0.1,0.7-0.2,1-0.3c0,0,0,0,0,0c0.3-0.1,0.7-0.2,1-0.4c0.1,0,0.1-0.1,0.2-0.1c0.3-0.1,0.5-0.3,0.8-0.4c0,0,0.1,0,0.1-0.1
					c0.2-0.1,0.4-0.3,0.6-0.4c0.1-0.1,0.2-0.1,0.4-0.2c0,0,0,0,0.1-0.1c0.1-0.1,0.2-0.1,0.3-0.2c0.2-0.1,0.3-0.2,0.5-0.4
					c0.1,0,0.1-0.1,0.2-0.1c0.1-0.1,0.2-0.1,0.3-0.2c0.1-0.1,0.2-0.2,0.3-0.3c0.1-0.1,0.2-0.2,0.3-0.3c0.1-0.1,0.1-0.1,0.2-0.2
					c0,0,0.1-0.1,0.1-0.1c0.2-0.2,0.4-0.4,0.6-0.6c0,0,0.1-0.1,0.1-0.1c0-0.1,0.1-0.1,0.1-0.2c0.1-0.1,0.2-0.2,0.3-0.3
					c0.1-0.2,0.3-0.4,0.4-0.5c0,0,0,0,0-0.1c0,0,0,0,0,0c0.2-0.2,0.3-0.4,0.4-0.6c0.1-0.1,0.1-0.2,0.2-0.3c0-0.1,0.1-0.1,0.1-0.2
					c0-0.1,0.1-0.1,0.1-0.2c0.1-0.2,0.3-0.5,0.4-0.7c0,0,0-0.1,0.1-0.1c0-0.1,0.1-0.1,0.1-0.2c0.1-0.1,0.1-0.3,0.2-0.4
					c0.1-0.2,0.2-0.4,0.3-0.6c0,0,0-0.1,0.1-0.1c0,0,0,0,0-0.1c0.1-0.3,0.2-0.6,0.3-0.9c0-0.1,0-0.1,0.1-0.2c0-0.1,0.1-0.2,0.1-0.3
					c0-0.1,0.1-0.3,0.1-0.4c0-0.1,0.1-0.2,0.1-0.4c0-0.2,0.1-0.4,0.1-0.5c0-0.1,0.1-0.2,0.1-0.3c0.1-0.3,0.1-0.5,0.1-0.8l14.3-93.1
					c0-0.3,0.1-0.6,0.1-0.9c0,0,0-0.1,0-0.1c0-0.3,0-0.6,0.1-0.8C730.4,523.7,730.4,523.6,730.4,523.6z"/>
			</g>
			<g>
				<g>
					<path class="st3" d="M687.8,603.5c16.9,0,30.7,16.8,30.7,37.4v100.2c0,20.7-13.7,37.4-30.7,37.4H446.7
						c-16.9,0-30.7-16.8-30.7-37.4V640.9c0-20.7,13.7-37.4,30.7-37.4H687.8z"/>
				</g>
				<path class="st1" d="M776.3,639.5c0-0.1,0-0.2,0-0.3c0-0.2,0-0.5,0-0.7c0-0.4,0-0.7-0.1-1.1c0-0.2,0-0.5-0.1-0.7
					c0-0.2,0-0.3,0-0.5c0-0.1,0-0.2,0-0.3c-0.1-0.6-0.1-1.2-0.2-1.8c0-0.2,0-0.3-0.1-0.5c-0.1-0.7-0.3-1.5-0.4-2.2
					c0-0.1,0-0.1,0-0.2c0-0.1-0.1-0.3-0.1-0.4c-0.1-0.5-0.2-1-0.4-1.5c-0.1-0.2-0.1-0.5-0.2-0.7c-0.1-0.5-0.3-1-0.4-1.4
					c-0.1-0.2-0.1-0.4-0.2-0.6c-0.2-0.6-0.5-1.3-0.7-1.9c0-0.1,0-0.1-0.1-0.2c-0.2-0.6-0.5-1.1-0.7-1.7c0-0.1-0.1-0.1-0.1-0.2
					c0-0.1-0.1-0.2-0.2-0.3c-0.3-0.5-0.5-1.1-0.8-1.6c-0.1-0.2-0.2-0.3-0.2-0.5c-0.3-0.6-0.7-1.3-1.1-1.9c0,0,0-0.1-0.1-0.1
					c-0.1-0.2-0.3-0.5-0.4-0.7c-0.1-0.2-0.2-0.4-0.4-0.5c-0.2-0.3-0.4-0.6-0.6-0.9c-0.1-0.1-0.2-0.3-0.3-0.4c0,0,0,0,0,0
					c-0.3-0.4-0.6-0.8-0.9-1.1c-0.1-0.1-0.2-0.2-0.3-0.3c-0.2-0.2-0.3-0.4-0.5-0.5c-0.1-0.1-0.1-0.1-0.2-0.2c-0.4-0.5-0.9-1-1.3-1.4
					c0,0,0,0,0,0c0,0,0,0,0,0c-0.4-0.4-0.9-0.9-1.3-1.3c0,0-0.1-0.1-0.1-0.1c-0.1-0.1-0.2-0.2-0.3-0.3c-0.3-0.2-0.6-0.5-0.9-0.7
					c-0.1-0.1-0.1-0.1-0.2-0.2c-0.1-0.1-0.2-0.2-0.3-0.2c-0.3-0.2-0.5-0.4-0.8-0.6c-0.1-0.1-0.2-0.2-0.3-0.2
					c-0.1-0.1-0.2-0.1-0.3-0.2c-0.3-0.2-0.5-0.3-0.8-0.5c-0.1-0.1-0.2-0.2-0.4-0.2c-0.1,0-0.2-0.1-0.2-0.1c-0.3-0.2-0.5-0.3-0.8-0.4
					c-0.1-0.1-0.3-0.2-0.4-0.2c-0.1,0-0.1-0.1-0.2-0.1c-0.3-0.1-0.5-0.3-0.8-0.4c-0.2-0.1-0.3-0.2-0.5-0.2c-0.1,0-0.1,0-0.2-0.1
					c-0.3-0.1-0.6-0.2-0.8-0.4c-0.2-0.1-0.3-0.1-0.5-0.2c0,0-0.1,0-0.1,0c-0.3-0.1-0.6-0.2-0.9-0.3c-0.2-0.1-0.3-0.1-0.5-0.2
					c0,0-0.1,0-0.1,0c-0.5-0.2-1-0.3-1.4-0.4c0,0-0.1,0-0.1,0c0,0,0,0,0,0c-0.5-0.1-1.1-0.2-1.6-0.3c0,0-0.1,0-0.1,0
					c-0.1,0-0.3,0-0.4-0.1c-0.4-0.1-0.8-0.1-1.3-0.2c-0.1,0-0.2,0-0.2,0c-0.3,0-0.7-0.1-1-0.1c0,0,0,0,0,0c-0.4,0-0.7,0-1.1,0
					c-0.2,0-0.3,0-0.5,0h-57.9c0.5,0,1,0,1.6,0c0,0,0,0,0,0c0.4,0,0.8,0.1,1.2,0.1c0.4,0,0.8,0.1,1.3,0.2c0.2,0,0.3,0,0.5,0.1
					c0.5,0.1,1.1,0.2,1.6,0.3c0,0,0.1,0,0.1,0c0.5,0.1,1,0.3,1.4,0.4c0.2,0.1,0.4,0.1,0.6,0.2c0.3,0.1,0.6,0.2,0.9,0.3
					c0.2,0.1,0.4,0.2,0.6,0.3c0.3,0.1,0.6,0.2,0.8,0.4c0.2,0.1,0.4,0.2,0.6,0.3c0.3,0.1,0.5,0.3,0.8,0.4c0.2,0.1,0.4,0.2,0.6,0.3
					c0.3,0.1,0.5,0.3,0.8,0.4c0.2,0.1,0.4,0.2,0.6,0.4c0.3,0.2,0.5,0.3,0.8,0.5c0.2,0.1,0.4,0.3,0.6,0.4c0.3,0.2,0.5,0.4,0.8,0.6
					c0.2,0.1,0.4,0.3,0.5,0.4c0.3,0.2,0.6,0.5,0.9,0.7c0.2,0.1,0.3,0.3,0.5,0.4c0.5,0.4,0.9,0.8,1.3,1.3c0,0,0,0,0,0
					c0.4,0.5,0.9,0.9,1.3,1.4c0.2,0.2,0.4,0.5,0.6,0.7c0.1,0.1,0.2,0.2,0.3,0.3c0.3,0.4,0.6,0.8,0.9,1.2c0.1,0.1,0.2,0.3,0.3,0.4
					c0.2,0.3,0.4,0.6,0.6,0.9c0.1,0.2,0.2,0.4,0.4,0.5c0.2,0.3,0.3,0.5,0.5,0.8c0.4,0.6,0.7,1.2,1.1,1.9c0.1,0.1,0.2,0.3,0.2,0.5
					c0.3,0.5,0.5,1.1,0.8,1.6c0.1,0.2,0.2,0.3,0.2,0.5c0.3,0.6,0.5,1.1,0.7,1.7c0,0.1,0,0.1,0.1,0.2c0.2,0.6,0.5,1.3,0.7,1.9
					c0.1,0.2,0.1,0.4,0.2,0.6c0.2,0.5,0.3,0.9,0.4,1.4c0.1,0.2,0.1,0.5,0.2,0.7c0.1,0.5,0.3,1,0.4,1.5c0,0.2,0.1,0.4,0.1,0.6
					c0.2,0.7,0.3,1.5,0.4,2.2c0,0.2,0,0.3,0.1,0.5c0.1,0.6,0.2,1.2,0.2,1.8c0,0.3,0.1,0.6,0.1,0.9c0,0.2,0,0.5,0.1,0.7
					c0,0.4,0,0.7,0.1,1.1c0,0.2,0,0.5,0,0.7c0,0.6,0,1.1,0,1.7v100.2c0,0.6,0,1.1,0,1.6c0,0.7-0.1,1.5-0.1,2.2c0,0.1,0,0.2,0,0.3
					c-0.1,0.6-0.1,1.2-0.2,1.7c0,0.3-0.1,0.5-0.1,0.8c-0.1,0.4-0.1,0.8-0.2,1.2c0,0.3-0.1,0.5-0.2,0.8c-0.1,0.4-0.1,0.7-0.2,1.1
					c-0.1,0.3-0.1,0.6-0.2,0.8c-0.1,0.3-0.2,0.7-0.3,1c-0.1,0.3-0.1,0.5-0.2,0.8c-0.1,0.3-0.2,0.6-0.3,1c-0.1,0.3-0.2,0.5-0.3,0.8
					c-0.1,0.3-0.2,0.6-0.3,0.9c-0.1,0.3-0.2,0.5-0.3,0.8c-0.1,0.3-0.3,0.6-0.4,0.9c-0.1,0.2-0.2,0.5-0.3,0.7c-0.2,0.3-0.3,0.7-0.5,1
					c-0.1,0.2-0.2,0.4-0.3,0.6c-0.2,0.5-0.5,0.9-0.7,1.4c-0.1,0.1-0.1,0.2-0.2,0.3c-0.3,0.6-0.6,1.1-1,1.6c-0.1,0.1-0.2,0.3-0.3,0.4
					c-0.3,0.4-0.5,0.8-0.8,1.2c-0.1,0.2-0.2,0.3-0.4,0.5c-0.3,0.5-0.7,0.9-1,1.4c-0.1,0.1-0.2,0.2-0.3,0.3c-0.1,0.1-0.2,0.2-0.3,0.3
					c-0.2,0.3-0.5,0.5-0.7,0.8c-0.1,0.1-0.2,0.3-0.4,0.4c-0.2,0.2-0.4,0.4-0.6,0.6c-0.2,0.2-0.4,0.4-0.6,0.6
					c-0.2,0.2-0.4,0.4-0.6,0.5c-0.2,0.2-0.4,0.4-0.6,0.6c-0.2,0.2-0.4,0.4-0.7,0.6c-0.1,0.1-0.2,0.2-0.4,0.3
					c-0.3,0.2-0.6,0.5-0.9,0.7c-0.1,0.1-0.2,0.1-0.3,0.2c-0.4,0.3-0.8,0.6-1.2,0.8c-0.1,0.1-0.2,0.1-0.3,0.2
					c-0.3,0.2-0.6,0.4-0.9,0.6c-0.1,0.1-0.3,0.2-0.4,0.2c-0.3,0.2-0.6,0.3-0.9,0.5c-0.1,0.1-0.3,0.1-0.4,0.2
					c-0.4,0.2-0.8,0.4-1.3,0.6l0,0c-0.4,0.2-0.9,0.4-1.3,0.5c-0.1,0.1-0.3,0.1-0.4,0.1c-0.3,0.1-0.6,0.2-0.9,0.3
					c-0.1,0-0.3,0.1-0.4,0.1c-0.3,0.1-0.7,0.2-1,0.3c-0.1,0-0.2,0.1-0.3,0.1c-0.5,0.1-0.9,0.2-1.4,0.3c-0.1,0-0.2,0-0.3,0.1
					c-0.4,0.1-0.7,0.1-1.1,0.2c-0.2,0-0.3,0-0.5,0.1c-0.3,0-0.7,0.1-1,0.1c-0.1,0-0.3,0-0.4,0c-0.5,0-1,0-1.4,0h57.9
					c0.5,0,1,0,1.4,0c0.1,0,0.3,0,0.4,0c0.3,0,0.7-0.1,1-0.1c0.2,0,0.3,0,0.5-0.1c0.4,0,0.7-0.1,1.1-0.2c0.1,0,0.2,0,0.3-0.1
					c0.5-0.1,0.9-0.2,1.4-0.3c0.1,0,0.2-0.1,0.3-0.1c0.3-0.1,0.7-0.2,1-0.3c0.1,0,0.3-0.1,0.4-0.1c0.3-0.1,0.6-0.2,0.9-0.3
					c0.1,0,0.3-0.1,0.4-0.1c0.4-0.2,0.9-0.3,1.3-0.5l0,0c0.4-0.2,0.8-0.4,1.3-0.6c0.1-0.1,0.3-0.1,0.4-0.2c0.3-0.2,0.6-0.3,0.9-0.5
					c0.1-0.1,0.3-0.2,0.4-0.2c0.3-0.2,0.6-0.4,0.9-0.6c0.1-0.1,0.2-0.1,0.3-0.2c0.4-0.3,0.8-0.5,1.2-0.8c0.1-0.1,0.2-0.1,0.3-0.2
					c0.3-0.2,0.6-0.5,0.9-0.7c0.1-0.1,0.2-0.2,0.4-0.3c0.1-0.1,0.2-0.2,0.3-0.3c0.1-0.1,0.2-0.2,0.3-0.3c0.2-0.2,0.4-0.4,0.6-0.6
					c0.2-0.2,0.4-0.4,0.6-0.5c0.2-0.2,0.4-0.4,0.6-0.6c0.1-0.1,0.2-0.2,0.3-0.3c0.1-0.1,0.2-0.2,0.3-0.3c0.1-0.1,0.2-0.3,0.4-0.4
					c0.2-0.3,0.5-0.5,0.7-0.8c0.1-0.1,0.2-0.2,0.3-0.3c0,0,0.1-0.1,0.1-0.1c0.1-0.1,0.1-0.2,0.2-0.2c0.4-0.5,0.7-0.9,1-1.4
					c0.1-0.1,0.1-0.2,0.2-0.3c0.1-0.1,0.1-0.2,0.2-0.2c0.3-0.4,0.5-0.8,0.8-1.2c0.1-0.1,0.1-0.2,0.2-0.3c0,0,0-0.1,0.1-0.1
					c0.3-0.5,0.6-1.1,1-1.6c0,0,0,0,0,0c0-0.1,0.1-0.2,0.1-0.3c0.2-0.4,0.5-0.9,0.7-1.4c0,0,0-0.1,0.1-0.1c0.1-0.2,0.2-0.3,0.2-0.5
					c0.2-0.3,0.3-0.7,0.5-1c0-0.1,0.1-0.1,0.1-0.2c0.1-0.2,0.1-0.3,0.2-0.5c0.1-0.3,0.3-0.6,0.4-0.9c0-0.1,0.1-0.2,0.1-0.3
					c0.1-0.2,0.1-0.3,0.2-0.5c0.1-0.3,0.2-0.6,0.3-0.9c0-0.1,0.1-0.2,0.1-0.3c0.1-0.2,0.1-0.3,0.1-0.5c0.1-0.3,0.2-0.6,0.3-1
					c0-0.1,0.1-0.3,0.1-0.4c0-0.1,0.1-0.3,0.1-0.4c0.1-0.3,0.2-0.7,0.3-1c0-0.1,0.1-0.3,0.1-0.4c0-0.1,0.1-0.3,0.1-0.4
					c0.1-0.4,0.2-0.7,0.2-1.1c0-0.2,0.1-0.3,0.1-0.5c0-0.1,0-0.2,0-0.3c0.1-0.4,0.1-0.8,0.2-1.2c0-0.2,0.1-0.4,0.1-0.6
					c0-0.1,0-0.1,0-0.2c0.1-0.6,0.1-1.2,0.2-1.7c0-0.1,0-0.2,0-0.3c0,0,0,0,0,0c0.1-0.7,0.1-1.5,0.1-2.2c0-0.1,0-0.1,0-0.2
					c0-0.5,0-1,0-1.4V640.9C776.3,640.4,776.3,640,776.3,639.5z"/>
			</g>
			<g>
				<g>
					<path class="st2" d="M690.2,746.6c6.1,0,8,2.6,4.1,5.7l-37.5,30.5c-3.9,3.2-12,5.7-18.2,5.7H409c-6.1,0-8-2.6-4.1-5.7
						l37.5-30.5c3.9-3.2,12-5.7,18.2-5.7H690.2z"/>
				</g>
				<path class="st3" d="M699.5,761.3c0-0.1,0-0.2,0-0.3c0,0,0,0,0,0c0,0,0,0,0-0.1c0-0.1,0-0.1,0-0.2c0-0.1,0-0.1,0-0.2l-3.2-11.8
					c0,0.1,0,0.2,0,0.3c0,0,0,0,0,0.1c0,0.1,0,0.2,0,0.3c0,0,0,0.1,0,0.1c0,0.1-0.1,0.2-0.1,0.3c0,0,0,0,0,0.1
					c0,0.1-0.1,0.3-0.2,0.4c0,0,0,0.1-0.1,0.1c-0.1,0.1-0.1,0.2-0.2,0.3c0,0,0,0.1-0.1,0.1c-0.1,0.1-0.2,0.3-0.3,0.4
					c0,0-0.1,0.1-0.1,0.1c-0.1,0.1-0.2,0.2-0.3,0.3c-0.1,0.1-0.1,0.1-0.2,0.2c-0.1,0.1-0.3,0.3-0.4,0.4l-37.5,30.5
					c-0.2,0.1-0.4,0.3-0.5,0.4c-0.1,0.1-0.3,0.2-0.5,0.3c-0.1,0.1-0.3,0.2-0.5,0.3c-0.1,0.1-0.2,0.1-0.4,0.2
					c-0.2,0.1-0.4,0.2-0.5,0.3c-0.1,0.1-0.2,0.1-0.4,0.2c-0.2,0.1-0.3,0.2-0.5,0.2c-0.2,0.1-0.4,0.2-0.6,0.3
					c-0.2,0.1-0.3,0.2-0.5,0.2c-0.2,0.1-0.4,0.2-0.6,0.3c-0.2,0.1-0.3,0.1-0.5,0.2c-0.3,0.1-0.6,0.2-0.9,0.3
					c-0.2,0.1-0.4,0.1-0.6,0.2c-0.1,0-0.2,0.1-0.3,0.1c-0.3,0.1-0.7,0.2-1,0.3c0,0,0,0,0,0c-0.4,0.1-0.8,0.2-1.1,0.3
					c0,0-0.1,0-0.1,0c-0.4,0.1-0.8,0.2-1.1,0.3c-0.1,0-0.1,0-0.2,0c-0.4,0.1-0.7,0.2-1.1,0.3c-0.1,0-0.1,0-0.2,0
					c-0.4,0.1-0.7,0.1-1.1,0.2c-0.1,0-0.1,0-0.2,0c-0.4,0.1-0.7,0.1-1.1,0.2c-0.1,0-0.1,0-0.2,0c-0.4,0-0.7,0.1-1.1,0.1c0,0,0,0,0,0
					c-0.4,0-0.7,0.1-1.1,0.1c-0.1,0-0.2,0-0.3,0c-0.4,0-0.7,0-1,0H409c-0.1,0-0.1,0-0.2,0c-0.3,0-0.7,0-1,0c0,0,0,0-0.1,0
					c-0.3,0-0.6-0.1-0.9-0.1c0,0-0.1,0-0.1,0c-0.3,0-0.5-0.1-0.8-0.1c0,0-0.1,0-0.1,0c-0.2-0.1-0.5-0.1-0.7-0.2c0,0-0.1,0-0.1,0
					c-0.2-0.1-0.4-0.1-0.6-0.2c0,0,0,0,0,0c-0.2-0.1-0.3-0.2-0.5-0.3c0,0,0,0-0.1,0c-0.1-0.1-0.3-0.2-0.4-0.3c0,0,0,0-0.1-0.1
					c-0.1-0.1-0.2-0.2-0.3-0.3c0,0,0,0,0-0.1c-0.1-0.1-0.1-0.3-0.2-0.4l3.2,11.8c0,0.1,0.1,0.3,0.2,0.4c0,0,0,0,0,0.1
					c0.1,0.1,0.2,0.2,0.3,0.3c0,0,0,0,0.1,0.1c0.1,0.1,0.2,0.2,0.4,0.3c0,0,0,0,0.1,0c0.2,0.1,0.3,0.2,0.5,0.3c0,0,0,0,0,0
					c0.2,0.1,0.4,0.2,0.6,0.2c0,0,0.1,0,0.1,0c0.2,0.1,0.4,0.1,0.7,0.2c0,0,0.1,0,0.1,0c0.2,0.1,0.5,0.1,0.8,0.1c0,0,0.1,0,0.1,0
					c0.3,0,0.6,0.1,0.9,0.1c0,0,0,0,0,0c0,0,0,0,0.1,0c0.3,0,0.6,0,1,0c0,0,0.1,0,0.1,0c0,0,0.1,0,0.1,0h229.6c0.3,0,0.5,0,0.8,0
					c0.1,0,0.2,0,0.3,0c0.1,0,0.2,0,0.3,0c0.1,0,0.2,0,0.3,0c0.3,0,0.5,0,0.8-0.1c0,0,0,0,0,0c0,0,0,0,0,0c0.2,0,0.4,0,0.7-0.1
					c0.1,0,0.3,0,0.4-0.1c0.1,0,0.1,0,0.2,0c0,0,0.1,0,0.1,0c0.2,0,0.5-0.1,0.7-0.1c0.1,0,0.2,0,0.3,0c0.1,0,0.1,0,0.2,0
					c0.1,0,0.1,0,0.2,0c0.2,0,0.5-0.1,0.7-0.1c0.1,0,0.1,0,0.2,0c0.1,0,0.1,0,0.2,0c0.1,0,0.2,0,0.3-0.1c0.2,0,0.5-0.1,0.7-0.2
					c0,0,0.1,0,0.1,0c0.1,0,0.1,0,0.2,0c0.1,0,0.3-0.1,0.4-0.1c0.2-0.1,0.5-0.1,0.7-0.2c0,0,0,0,0.1,0c0,0,0.1,0,0.1,0
					c0.2,0,0.3-0.1,0.5-0.1c0.2-0.1,0.4-0.1,0.6-0.2c0,0,0,0,0,0c0,0,0,0,0,0c0.3-0.1,0.5-0.2,0.8-0.2c0.1,0,0.2-0.1,0.3-0.1
					c0.1,0,0.2-0.1,0.3-0.1c0.1,0,0.2-0.1,0.3-0.1c0.1,0,0.2-0.1,0.3-0.1c0.3-0.1,0.6-0.2,0.9-0.3c0.1,0,0.2-0.1,0.3-0.1
					c0.1,0,0.1-0.1,0.2-0.1c0.2-0.1,0.4-0.2,0.6-0.3c0.2-0.1,0.3-0.2,0.5-0.2c0.2-0.1,0.4-0.2,0.6-0.3c0.1-0.1,0.2-0.1,0.3-0.2
					c0,0,0.1,0,0.1-0.1c0.1-0.1,0.2-0.1,0.4-0.2c0.2-0.1,0.4-0.2,0.5-0.3c0.1-0.1,0.2-0.1,0.4-0.2c0.1-0.1,0.2-0.1,0.3-0.2
					c0.1,0,0.1-0.1,0.2-0.1c0.2-0.1,0.3-0.2,0.5-0.3c0.1-0.1,0.2-0.1,0.2-0.2c0.1-0.1,0.2-0.2,0.3-0.2l37.5-30.5
					c0.1-0.1,0.2-0.2,0.3-0.2c0.1,0,0.1-0.1,0.2-0.1c0.1-0.1,0.1-0.1,0.2-0.2c0,0,0.1-0.1,0.1-0.1c0.1-0.1,0.1-0.1,0.2-0.2
					c0,0,0.1-0.1,0.1-0.1c0,0,0,0,0,0c0.1-0.1,0.2-0.2,0.3-0.3c0,0,0,0,0,0c0,0,0-0.1,0.1-0.1c0-0.1,0.1-0.1,0.1-0.2
					c0,0,0.1-0.1,0.1-0.1c0,0,0-0.1,0.1-0.1c0,0,0,0,0-0.1c0.1-0.1,0.1-0.2,0.1-0.3c0,0,0,0,0,0c0,0,0,0,0-0.1c0-0.1,0-0.1,0.1-0.2
					c0,0,0-0.1,0-0.1C699.5,761.4,699.5,761.4,699.5,761.3C699.5,761.3,699.5,761.3,699.5,761.3z"/>
			</g>
			
				<ellipse transform="matrix(0.1602 -0.9871 0.9871 0.1602 -250.9259 996.6489)" class="st4" cx="460.2" cy="645.8" rx="17.3" ry="17.3"/>
		</g>
	</g>
</g>
</svg>
