<?xml version="1.0" encoding="utf-8"?>
<!-- Generator: Adobe Illustrator 22.1.0, SVG Export Plug-In . SVG Version: 6.00 Build 0)  -->
<svg version="1.1" id="图层_1" xmlns="http://www.w3.org/2000/svg" xmlns:xlink="http://www.w3.org/1999/xlink" x="0px" y="0px"
	 viewBox="0 0 1000 1000" style="enable-background:new 0 0 1000 1000;" xml:space="preserve">
<style type="text/css">
	.st0{fill:url(#SVGID_1_);}
	.st1{fill:#555E60;}
	.st2{fill:#EDF5F7;}
	.st3{fill:#90A6B4;}
	.st4{fill:#DC544F;}
</style>
<g>
	<g>
		<linearGradient id="SVGID_1_" gradientUnits="userSpaceOnUse" x1="500" y1="49.5236" x2="500" y2="951.9991">
			<stop  offset="0" style="stop-color:#F9F9F9"/>
			<stop  offset="1" style="stop-color:#EDEDED"/>
		</linearGradient>
		<path class="st0" d="M800,949.5H200c-82.8,0-150-67.2-150-150v-600c0-82.8,67.2-150,150-150h600c82.8,0,150,67.2,150,150v600
			C950,882.4,882.8,949.5,800,949.5z"/>
	</g>
	<g>
		<path class="st1" d="M707.9,313.7H248c-14.9,0-26.9,12.1-26.9,26.9v316c0,14.9,12.1,26.9,26.9,26.9h459.9
			c14.9,0,26.9-12.1,26.9-26.9v-316C734.8,325.7,722.8,313.7,707.9,313.7z"/>
		<path class="st2" d="M248,676.7c-11,0-20-9-20-20v-316c0-11,9-20,20-20h459.9c11,0,20,9,20,20v316c0,11-9,20-20,20H248z"/>
		<rect x="221.1" y="411" class="st3" width="513.8" height="47.8"/>
		<path class="st3" d="M365.4,494.5c0-3.7,3-6.8,6.8-6.8h13c3.8,0,6.8,3,6.8,6.8v19.8c0,3.7-3,6.8-6.8,6.8h-13c-3.8,0-6.8-3-6.8-6.8
			V494.5z"/>
		<path class="st3" d="M319,494.5c0-3.7,3-6.8,6.8-6.8h13c3.8,0,6.8,3,6.8,6.8v19.8c0,3.7-3,6.8-6.8,6.8h-13c-3.8,0-6.8-3-6.8-6.8
			L319,494.5L319,494.5L319,494.5z"/>
		<path class="st3" d="M272.3,494.5c0-3.7,3-6.8,6.8-6.8h13c3.8,0,6.8,3,6.8,6.8v19.8c0,3.7-3,6.8-6.8,6.8h-13c-3.8,0-6.8-3-6.8-6.8
			L272.3,494.5L272.3,494.5z"/>
		<path class="st3" d="M323.3,627.4l0.3-0.9h-4.7l-0.3,0.9h4.1C323.2,627.4,323.3,627.4,323.3,627.4 M324.3,624.5l0.3-1.1h-4.7
			l-0.7,2.3c0,0,0.9-0.8,2.5-1.1C322.1,624.5,324.3,624.5,324.3,624.5 M333.5,608.8c0.9-0.4,1.5-1.3,1.8-2.3c0.3-1.1-0.1-2-1-2.3
			c-0.1,0-2.2-0.2-2.2-0.2l-0.4-0.1l-0.1,0.2v0.3l-1,4.6l-0.1,0.2h0.6C331.9,609.2,332.8,609.2,333.5,608.8 M308.6,615.3
			c0.4,0,0.7-0.2,1-0.6c0.4-0.5,0.7-1.8,0.8-2.1c0.4-1.5,0.3-2.5-0.5-2.5c-1,0-1.4,1.3-1.8,2.8c-0.1,0.5-0.2,1-0.2,1.5
			C307.8,615.3,308.5,615.3,308.6,615.3 M330.9,633.7h2.5l0.7-2.3h-2.5L330.9,633.7z M341.1,615.5c0.4,0,1-0.3,1.3-0.6
			c0.2-0.2,0.3-0.5,0.4-0.8c0.1-0.4,0.2-0.9,0.3-1.3c0.1-0.3,0.1-0.6,0.2-0.8c0.1-1-0.3-1.6-0.9-1.6c-1,0-1.5,1.3-1.8,2.8
			c-0.1,0.5-0.2,1-0.2,1.5C340.4,615.5,341,615.5,341.1,615.5 M334,623.3l-0.8,2.7c0,0,0.9-0.4,1.4-0.5c0.5-0.2,1.3-0.2,1.3-0.2
			l0.6-1.9H334L334,623.3z M361,585.2h-25.3c-3.6,0-7.2,2.9-8.1,6.6l-3.2,13.9c-0.4-0.3-1.2-0.3-1.6-0.3l3.2-13.9
			c0.6-2.7,2.6-5.1,5-6.3h-23.8c-3.6,0-7.2,2.9-8.1,6.6l-3.1,13.5c-0.6,0.1-1.4,0.1-1.7,0.2l3.2-13.9c0.6-2.7,2.6-5.1,5-6.3H283
			c-3.6,0-7.2,2.9-8.1,6.6l-12,51.6c-0.8,3.6,1.4,6.6,5,6.6H288c-0.5-0.3-0.9-0.7-1.3-1.2c-1.2-1.5-1.6-3.5-1.1-5.6l5.3-22.9h1.7
			l-5.4,23.2c-0.8,3.6,1.4,6.6,5,6.6h24.2c-0.5-0.3-0.9-0.7-1.3-1.2c-1.2-1.5-1.6-3.5-1.1-5.6l0.9-4.1h1.7l-1,4.3
			c-0.8,3.6,1.4,6.6,5,6.6H346c3.6,0,7.2-2.9,8.1-6.6l12-51.6C366.8,588.1,364.6,585.2,361,585.2 M342.6,608.3
			c0.5,0.2,0.9,0.6,1.1,0.9c0-0.1,0.1-0.3,0.1-0.4l0.1-0.1c1.6-0.2,2-0.3,3.6-0.6l0.1,0.2c-0.3,1.3-0.6,2.5-0.9,3.7
			c-0.6,2.6-0.8,3.9-1,5.2l-0.2,0.1c-1.6,0-2,0-3.4,0.1l-0.1-0.1c0.1-0.2,0.1-0.4,0.2-0.5c-0.5,0.4-1.1,0.7-1.7,0.8
			c-0.6,0-1.1-0.1-1.8-0.3c-2-0.8-1.7-3-1.4-4.2c0.3-1.2,0.7-2.5,1.7-3.3C340.3,608.4,341.9,608,342.6,608.3 M327.3,606.8l1-4.7
			c0,0,0.1-0.4,0.1-0.6c0.5,0.1,1.6,0.1,4.4,0.1h1.1c2.2,0,4.1,0.1,5.1,1.4c0.4,0.5,0.5,1.1,0.5,1.8c0,0.5-0.1,1-0.2,1.4
			c-0.4,1.7-1.3,3.1-2.6,4c-1.9,1.4-4.3,1.4-6.4,1.4h-0.2c-0.2,0.1-0.3,0.3-0.3,0.3c-0.1,0.1-0.5,2.1-0.5,2.1s-0.6,2.8-0.7,3.2
			c-0.4-0.1-1.4-0.1-3.9,0C324.8,616.7,327.3,606.8,327.3,606.8 M314.8,614c0.6-2.9,0.8-3.9,1-5.4l0.1-0.1c1.5-0.2,1.9-0.3,3.5-0.6
			l0.2,0.2l-0.2,0.9c0.3-0.2,0.5-0.3,0.8-0.5c0.8-0.4,1.6-0.5,2.1-0.5c0.7,0,1.5,0.2,1.8,1c0.3,0.7,0.1,1.6-0.3,3.4l-0.2,0.9
			c-0.4,2-0.5,2.3-0.7,3.7l-0.2,0.1c-1.3,0-1.8,0-3.3,0.1l-0.1-0.1c0.1-0.6,0.3-1.1,0.4-1.7l0.2-0.8c0.3-1.3,0.6-2.7,0.6-3.1
			c0-0.3,0.1-0.9-0.6-0.9c-0.3,0-0.6,0.2-1,0.3c-0.2,0.6-0.6,2.5-0.7,3.3c-0.4,1.8-0.4,2-0.6,2.8l-0.1,0.1c-1.4,0-1.8,0-3.3,0.1
			l-0.1-0.1C314.3,616.1,314.5,615,314.8,614 M316.1,622.3l-0.6,2h-4.6l-0.5,0.4c-0.2,0.2-0.3,0.1-0.6,0.3s-0.8,0.4-1.5,0.4h-1.5
			l0.6-2h0.5c0.4,0,0.6-0.1,0.8-0.1c0.2-0.1,0.3-0.3,0.5-0.6l0.8-1.5h3.3l-0.6,1.1H316.1L316.1,622.3z M287.2,611.5
			c-0.5,1.6-1,3.5-3,4.7c-1.1,0.7-2.9,1.1-4.7,1.1c-1.4,0-3.9-0.3-4.8-1.8c-0.3-0.5-0.4-1-0.4-1.7l0.3-2.3l0.2-0.7l1.9-8.5
			c0,0,0.1-0.5,0.1-0.5c0.1,0.1,0.7,0.1,4.3,0.1v0.1c-0.3,1-2.2,8.6-2.2,8.6l-0.4,2.2v0.4c0.1,1.1,0.8,1.7,2,1.7
			c0.7,0,1.4-0.2,1.9-0.7c0.9-0.8,1.3-2,1.6-3.6c0,0,1.8-8.3,1.9-8.7c0.3,0.1,1,0.1,3.7,0.1v0.1c-0.3,1-2.3,8.9-2.3,8.9L287.2,611.5
			L287.2,611.5z M297.9,612.5l-0.2,0.9c-0.4,2-0.5,2.3-0.7,3.7l-0.2,0.1c-1.3,0-1.8,0-3.3,0.1l-0.1-0.1c0.2-0.6,0.3-1.1,0.4-1.7
			l0.2-0.8c0.3-1.3,0.6-2.7,0.6-3.1c0.1-0.3,0.1-0.9-0.6-0.9c-0.3,0-0.6,0.2-1,0.3c-0.2,0.6-0.6,2.5-0.7,3.3c-0.4,1.8-0.4,2-0.6,2.8
			l-0.1,0.1c-1.4,0-1.8,0-3.3,0.1l-0.1-0.1l0.8-3.1c0.6-2.9,0.8-3.9,1-5.4l0.1-0.1c1.5-0.2,1.9-0.3,3.5-0.6l0.2,0.2l-0.3,0.9
			c0.3-0.2,0.5-0.3,0.8-0.5c0.8-0.4,1.6-0.5,2.1-0.5c0.7,0,1.5,0.2,1.8,1C298.5,609.8,298.3,610.7,297.9,612.5 M303.3,611.9
			c-0.2,0.6-0.3,1.3-0.4,1.9c-0.3,1.3-0.4,1.8-0.5,2.1c-0.1,0.3-0.1,0.5-0.2,1.2l-0.1,0.1l-0.1,0.1h-1.8c-0.5,0-1,0.1-1.7,0.1
			l-0.1-0.1l-0.1-0.1c0.2-0.7,0.3-1,0.4-1.3c0.1-0.3,0.2-0.5,0.4-1.3c0.2-1,0.4-1.7,0.5-2.3c0.1-0.6,0.2-1.1,0.3-1.7l0.1-0.1
			l0.1-0.1c0.8-0.1,1.3-0.2,1.8-0.3c0.5-0.1,1-0.2,1.8-0.3l0.1,0.1v0.1L303.3,611.9 M303.5,609.2c-0.9,0.6-2.1,0.7-2.9,0.3
			c-0.7-0.4-0.6-1.3,0.3-1.9c0.9-0.6,2.1-0.7,2.9-0.3C304.4,607.8,304.3,608.6,303.5,609.2 M304.6,612.8c0.3-1.2,0.7-2.5,1.7-3.3
			c1.4-1.3,3.2-1.4,3.9-1.4c1.3,0,2.5,0.3,3.1,1.1c0.5,0.6,0.8,1.5,0.4,3.5c-0.2,0.6-0.5,2.1-1.4,3c-1.1,1.2-2.7,1.6-4.2,1.6
			c-0.6,0-1.5-0.1-2.1-0.4C304,616.2,304.3,614,304.6,612.8 M311.7,636.5h-3.8c-0.3,0-0.5-0.1-0.9-0.1c-0.3-0.1-0.5-0.2-0.6-0.4
			c-0.2-0.2-0.4-0.4-0.2-0.9l1.1-3.6h-1.9l0.6-2.1h1.9l0.5-1.7h-1.9l0.6-2h8.3l-0.6,2h-3.3l-0.5,1.7h3.4l-0.6,2h-3.4l-0.8,2.7
			c-0.1,0.3,0.8,0.4,1.1,0.4l1.7-0.3L311.7,636.5L311.7,636.5z M318.5,636.5h-2.2c-0.7,0-1.2,0-1.6-0.1c-0.3-0.1-0.7,0-0.9-0.2
			c-0.2-0.2-0.5-0.4-0.5-0.7c0-0.2,0.1-0.6,0.3-1.1l4-13.3h2.9l-0.4,1.5c0,0,0.9-0.7,1.6-1c0.6-0.3,2.1-0.5,2.1-0.5h4.6l-1.6,5.3
			c-0.3,0.9-0.6,1.5-0.8,1.8c-0.2,0.3-0.4,0.5-0.8,0.7c-0.4,0.2-0.7,0.3-1.1,0.4c-0.3,0-0.8,0.1-1.4,0.1h-4.5l-1.3,4.2
			c-0.1,0.4-0.2,0.6-0.1,0.7c0.1,0.1,0.2,0.2,0.4,0.2l2-0.2L318.5,636.5L318.5,636.5z M325.7,630.9c-0.1,0.4-0.2,0.7-0.5,0.9
			c-0.3,0.3-0.7,0.5-1.6,0.5l-1.6,0.1v1.5c0,0.4,0.1,0.4,0.2,0.4c0.1,0.1,0.2,0.1,0.2,0.1h0.5l1.5-0.1l-0.6,2.1H322
			c-1.2,0-2.1-0.1-2.5-0.3c-0.3-0.2-0.3-0.4-0.3-0.8l0.1-5.6h2.8l-0.1,1.1h0.7c0.2,0,0.4,0,0.5-0.1c0.1-0.1,0.2-0.2,0.2-0.3l0.3-0.9
			h2.2L325.7,630.9z M335.5,636.5h-3l0.2-0.7h-6.1l0.6-2h0.6l3.2-10.6l0.6-2.1h3.1l-0.3,1.1c0,0,0.8-0.6,1.6-0.8
			c0.6-0.2,3.8-0.3,4.8-0.3h3.2l0.1,1.2c0,0.2,0.2,0.3,0.5,0.3h0.7l-0.6,2h-1.8c-1.5,0.1-2.1-0.5-2.1-1.3l-0.1-1.2l-0.3,1h-1
			l-3.1,10.4h0.8l-0.7,2.1h-0.8L335.5,636.5L335.5,636.5z M349,627.3h-3.3l-0.5,1.6h3.3l-0.5,1.8h-3.5l-0.6,0.8h1.4l0.4,2.2
			c0.1,0.2,0.1,0.4,0.1,0.5c0.1,0.1,0.5,0.1,0.8,0.1h0.4l-0.7,2.2h-1.1c-0.2,0-0.4,0-0.8-0.1c-0.3,0-0.6-0.2-0.8-0.3
			c-0.2-0.1-0.5-0.4-0.6-0.8l-0.4-2.2l-1.6,2.2c-0.5,0.7-1.2,1.3-2.4,1.3h-2.2l0.6-1.9h0.9c0.3,0,0.5-0.1,0.6-0.2
			c0.2-0.1,0.3-0.2,0.5-0.4l2.3-3.3h-3.1l0.5-1.8h3.5l0.5-1.6h-3.5l0.6-2h9.8L349,627.3L349,627.3z M351,621.1l-0.2,0.2l-1.3,2.1
			c-0.4,0.7-1.1,1.3-2.3,1.3l-2-0.1l0.6-1.9h0.4c0.2,0,0.4,0,0.5-0.1c0.1-0.1,0.2-0.1,0.3-0.2l0.7-1.1c1-1.5,1.3-2.2,2.3-3.9
			c-0.2-1.9-0.3-2.6-0.4-3.8c-0.1-0.8-0.2-1.5-0.3-2.3c-0.2-1.6-0.2-1.4-0.4-2.3v-0.2l0.1-0.1c1.6-0.2,1.6-0.3,3.3-0.6l0.2,0.2
			l0.2,4.3v0.3c0.9-2,0.8-1.5,2-4v-0.1l0.1-0.1c1.5-0.2,1.8-0.3,3.4-0.6l0.1,0.2C358.3,608.1,351.8,619.3,351,621.1 M332,630
			c0,0,0.9-0.5,1.4-0.6c0.5-0.1,1.3-0.2,1.3-0.2l0.6-1.9h-2.5L332,630L332,630z"/>
		<g>
			<path class="st1" d="M815.6,601c-0.6-3.4-3.6-5.9-7.1-5.9l-21.7,0V418.2c0-4-3.2-7.2-7.2-7.2H620.2c-4,0-7.2,3.2-7.2,7.2V595
				l-21.7,0l-1.3,0.1c-3.4,0.6-5.9,3.6-5.9,7.1v3.6c0,2.3,1.1,4.4,2.9,5.8l108.6,81.4c2.6,1.9,6.1,1.9,8.7,0l108.6-81.4
				c1.8-1.4,2.9-3.5,2.9-5.8v-3.6L815.6,601z"/>
			<path class="st1" d="M620.2,393.7h159.2c4,0,7.2-3.2,7.2-7.2c0-4-3.2-7.2-7.2-7.2H620.2c-4,0-7.2,3.2-7.2,7.2
				C613,390.5,616.2,393.7,620.2,393.7z"/>
		</g>
		<path class="st2" d="M665,452.7l-1.4,0.8l-1.3,1l-1,1.3c-2.1,3.1-2.1,7.2,0,10.3l1,1.3l29.9,29.9h-32.5l-1.6,0.1
			c-4.9,0.9-8.2,5.6-7.3,10.5c0.7,3.7,3.6,6.6,7.3,7.3l1.6,0.1H696v18.1h-36.3l-1.6,0.1c-4.9,0.9-8.2,5.6-7.3,10.5
			c0.7,3.7,3.6,6.6,7.3,7.3l1.6,0.1H696v27.2l0.1,1.6c0.7,3.7,3.6,6.6,7.3,7.3l1.6,0.1l1.6-0.1c3.7-0.7,6.6-3.6,7.3-7.3l0.1-1.6
			v-27.2h36.3l1.6-0.1c4.9-0.9,8.2-5.6,7.3-10.5c-0.7-3.7-3.6-6.6-7.3-7.3l-1.6-0.1h-36.3v-18.1h36.3l1.6-0.1
			c4.9-0.9,8.2-5.6,7.3-10.5c-0.7-3.7-3.6-6.6-7.3-7.3l-1.6-0.1h-32.6l29.9-29.9l1-1.3c2.8-4.1,1.8-9.8-2.4-12.6
			c-3.1-2.1-7.2-2.1-10.2,0l-1.3,1l-29.9,29.9l-29.9-29.9l-1.3-1C671.3,451.7,667.9,451.4,665,452.7z"/>
		<path class="st4" d="M661.5,449.2l-1.4,0.8l-1.3,1l-1,1.3c-2.1,3.1-2.1,7.2,0,10.3l1,1.3l29.9,29.9h-32.5l-1.6,0.1
			c-4.9,0.9-8.2,5.6-7.3,10.5c0.7,3.7,3.6,6.6,7.3,7.3l1.6,0.1h36.3v18.2h-36.3l-1.6,0.1c-4.9,0.9-8.2,5.6-7.3,10.5
			c0.7,3.7,3.6,6.6,7.3,7.3l1.6,0.1h36.3v27.2l0.1,1.6c0.7,3.7,3.6,6.6,7.3,7.3l1.6,0.1l1.6-0.1c3.7-0.7,6.6-3.6,7.3-7.3l0.1-1.6
			v-27.2H747l1.6-0.1c4.9-0.9,8.2-5.6,7.3-10.5c-0.7-3.7-3.6-6.6-7.3-7.3l-1.6-0.1h-36.3v-18.2H747l1.6-0.1
			c4.9-0.9,8.2-5.6,7.3-10.5c-0.7-3.7-3.6-6.6-7.3-7.3l-1.6-0.1h-32.6l29.9-29.9l1-1.3c2.8-4.1,1.8-9.8-2.4-12.6
			c-3.1-2.1-7.2-2.1-10.2,0l-1.3,1L701.6,481l-29.9-29.9l-1.3-1C667.8,448.2,664.4,447.9,661.5,449.2z"/>
	</g>
</g>
</svg>
