<?xml version="1.0" encoding="utf-8"?>
<!-- Generator: Adobe Illustrator 22.1.0, SVG Export Plug-In . SVG Version: 6.00 Build 0)  -->
<svg version="1.1" id="图层_1" xmlns="http://www.w3.org/2000/svg" xmlns:xlink="http://www.w3.org/1999/xlink" x="0px" y="0px"
	 viewBox="0 0 1000 1000" style="enable-background:new 0 0 1000 1000;" xml:space="preserve">
<style type="text/css">
	.st0{fill:url(#SVGID_1_);}
	.st1{fill:#555E60;}
	.st2{fill:#EDF5F7;}
	.st3{fill:#90A6B4;}
	.st4{fill:#FF6C6C;}
</style>
<g>
	<g>
		<linearGradient id="SVGID_1_" gradientUnits="userSpaceOnUse" x1="500.0969" y1="50.1267" x2="500.0969" y2="952.4078">
			<stop  offset="0" style="stop-color:#F9F9F9"/>
			<stop  offset="1" style="stop-color:#EDEDED"/>
		</linearGradient>
		<path class="st0" d="M800,949.9H200.2c-82.8,0-150-67.1-150-150V200.1c0-82.8,67.1-150,150-150H800c82.8,0,150,67.1,150,150V800
			C950,882.8,882.9,949.9,800,949.9z"/>
	</g>
	<g>
		
			<rect x="180.7" y="257.4" transform="matrix(-1.836970e-16 1 -1 -1.836970e-16 966.9731 7.7453)" class="st1" width="597.9" height="460"/>
		<rect x="255.3" y="194.1" class="st2" width="448.6" height="586.4"/>
		<rect x="476.8" y="194.1" class="st1" width="5.7" height="586.4"/>
		<path class="st1" d="M658.4,371.2H300.9c-25.2,0-45.6-20.4-45.6-45.6V206h448.6v119.6C703.9,350.8,683.5,371.2,658.4,371.2z"/>
		<path class="st3" d="M658.4,359.3H300.9c-25.2,0-45.6-20.4-45.6-45.6V194.1h448.6v119.6C703.9,338.9,683.5,359.3,658.4,359.3z"/>
		<polygon class="st1" points="451.7,432.1 444.5,441.9 444.5,312.4 451.7,322.7 		"/>
		<polygon class="st1" points="514.7,442.4 507.5,432.1 507.5,322.7 514.7,312.9 		"/>
		<path class="st1" d="M479.6,328.4c-19.5,0-35.4-15.9-35.4-35.4c0-19.5,15.9-35.4,35.4-35.4c19.5,0,35.4,15.9,35.4,35.4
			C515,312.5,499.1,328.4,479.6,328.4z M479.6,273.1c-11,0-19.9,8.9-19.9,19.9c0,11,8.9,19.9,19.9,19.9c11,0,19.9-8.9,19.9-19.9
			C499.5,282,490.6,273.1,479.6,273.1z"/>
		<path class="st1" d="M479.6,498.2c-19.5,0-35.4-15.9-35.4-35.4s15.9-35.4,35.4-35.4c19.5,0,35.4,15.9,35.4,35.4
			S499.1,498.2,479.6,498.2z M479.6,443c-11,0-19.9,8.9-19.9,19.9c0,11,8.9,19.9,19.9,19.9c11,0,19.9-8.9,19.9-19.9
			C499.5,451.9,490.6,443,479.6,443z"/>
		<g>
			<path class="st4" d="M312.2,627.1 M339,639.9c-3.7-0.6-6.1-1.8-9.2-3.1v0.6c0-0.6-1.2,0-0.6-0.6c-0.6,0-1.2,0.6-1.8-0.6
				c-1.2-1.2-1.8-1.8-3.7-1.8c0,0.6-0.6,0.6-0.6,0.6c0-0.6,0.6-0.6,0.6-1.2c-1.2-0.6-1.8-1.8-3.7-1.8l-0.6,0.6
				c-0.6-0.6-0.6-0.6-1.2-0.6c0.6-1.8-1.8-2.4-3.7-3.1c0.6-1.2-1.2-0.6-0.6-1.8c-0.6-0.6-0.6,0.6-0.6,0.6h-0.6c0,0.6,0,1.8-0.6,1.8
				c-0.6-1.2-1.8-0.6-1.8-1.2v-0.6h0.6c-0.6-0.6-0.6-1.2,0-1.8c0-0.6-0.6,0.6-1.2,0.6c-0.6,0.6,0.6,0.6,0,0.6c0,0,0-0.6-0.6-0.6
				c-0.6,0.6-0.6,1.2-0.6,1.8c1.2,0,1.2,0.6,1.8,1.2c0-0.6,0-0.6,0.6-0.6v1.2c1.8,1.2,4.3,3.1,6.7,4.3c0.6-1.8,1.8,0.6,2.4-0.6
				c0,0.6,0.6,0.6,0.6,0.6c-0.6,0-0.6,0.6-0.6,1.2c1.8-0.6,1.8,0.6,3.1,1.2c0.6-0.6-0.6-0.6,0-1.2c0.6,1.2,0.6,1.8,0.6,3.1
				c1.8,0.6,3.1,0.6,4.9,1.8c0.6-0.6-0.6-0.6-0.6-1.8c0.6-0.6,0,0.6,0.6,0.6c0.6-0.6,0.6-0.6,0.6-1.8c0.6,0.6,1.8,1.2,0.6,1.8
				c0,0,0-0.6-0.6-0.6c0,0.6,0.6,1.2,0.6,1.8c1.8-0.6,1.8,0.6,3.1,0.6c0-0.6,0.6-0.6,0.6-1.2c0,0,0.6,0.6,0.6,1.2h1.2
				c-0.6,0.6,0,0.6,0,1.2c1.2,0,1.8,0.6,2.4,0.6c0.6,0,1.2,0,1.8,0.6c-0.6-0.6,0.6-1.2,0.6-1.8c0.6,0-0.6,1.2,0.6,0.6
				c0.6-0.6-0.6-0.6-0.6-1.2h1.2v-0.6c-0.6,0-1.2,0.6-1.8,0.6C339.7,640.6,339,640.6,339,639.9 M327.4,636.9
				C327.4,636.9,326.8,637.5,327.4,636.9C326.8,636.9,327.4,636.9,327.4,636.9 M352.5,643.6C352.5,644.2,352.5,643.6,352.5,643.6
				 M352.5,643.6v-1.2c-1.2-0.6-2.4-0.6-4.3,0c0-0.6-0.6-0.6-1.2-0.6c0,0.6,0.6,0.6,0,0.6s-0.6-0.6-0.6-0.6c-0.6,0.6-1.8,0.6-1.8,0
				v3.1c0.6,0.6,0.6,1.2,1.8,0.6c0.6-0.6-0.6,0-0.6-0.6c1.2,0,3.7-0.6,3.1,0.6v-0.6l-1.2,1.2c1.8,0,3.7,0.6,4.3-0.6v1.2
				C351.9,646,351.9,644.2,352.5,643.6"/>
			<path class="st4" d="M342.7,642.4c0.6-1.2,2.4-0.6,0-1.2c0,1.2-0.6,1.8-0.6,2.4c0,0-1.2,0.6-0.6,0.6c1.2-0.6,1.2,0.6,2.4,0.6V643
				C343.9,643,343.3,642.4,342.7,642.4z M304.2,622.2c1.2,0.6,1.2,0,1.2,0v-0.6h-0.6C305.5,622.2,304.2,622.2,304.2,622.2z
				 M402.5,514.2c-0.6,1.2-1.8,3.7,0,3.7c0.6,0.6,0-0.6,0.6-0.6c0.6,1.2-0.6,0.6,0,1.2c1.8,1.2,2.4,3.7,5.5,3.7
				c0,0.6-1.2-0.6-0.6,0.6c0.6,0,0.6,0.6,0.6,1.2h0.6c0,1.2,2.4,1.2,1.2,1.8c0.6,0,0.6-0.6,1.2,0c0,0-0.6-0.6,0-0.6
				c0.6,0.6,0.6,0,0.6,0c0,0.6,0.6,0.6,0.6,1.8h-0.6v0.6c0.6,0,0.6,0,1.8-0.6c0,0.6-0.6,0.6-1.2,0.6c0.6,0.6,0.6,0.6,1.2,1.8
				l4.3-1.2c-0.6,0-0.6,0.6-0.6,0l-1.8-1.8c-0.6-0.6-0.6,0.6-0.6,0c0,0,0.6,0,0.6-0.6l-0.6-0.6c-0.6-0.6-0.6,0.6-1.2,0h0.6
				c0-0.6-0.6-0.6-0.6-1.8h-1.2v-1.2c-3.7-1.8-3.7-6.1-8.5-6.1c0,0,0.6,0.6,0,0.6c0.6-0.6-0.6-1.2,0-1.8c0.6,0.6,0.6-0.6,1.2,0.6
				c0-1.2-1.8-2.4-3.1-1.8C401.9,514.2,402.5,513.5,402.5,514.2L402.5,514.2z M321.9,614.9c0,0.6,0,0.6-0.6,0.6
				c-0.6,0.6,0.6,0,0.6,0.6c0.6,0,0-0.6,0.6-0.6c0.6,0.6-0.6,0.6-0.6,1.8c0.6-0.6,0.6,0.6,1.2,0.6c0-0.6,0-1.2,0.6-1.2
				C323.2,615.5,322.6,614.9,321.9,614.9z M398.9,515.4C398.9,516,399.5,516,398.9,515.4C399.5,516,399.5,515.4,398.9,515.4z
				 M351.9,646.7h0.6c-0.6-1.2,0.6-1.2,0.6-1.8C353.7,644.2,351.9,644.8,351.9,646.7z M311,627.1h0.6
				C311.6,626.5,311.6,627.1,311,627.1z M304.8,622.8v1.2c0.6,0,0.6-0.6,0.6-1.2C304.8,623.5,305.5,622.2,304.8,622.8z"/>
			<path class="st4" d="M372.6,624.1c-1.2,0.6-3.7,0.6-4.3,1.8c-0.6-0.6-1.2,0-1.8,0.6c-2.4-0.6-6.1,0.6-9.2,0.6c0,0,0,0.6-0.6,0.6
				c0-0.6,0.6-0.6,0.6-0.6c-2.4,0-4.3-0.6-6.1,0.6v-0.6c-1.2,0-1.8,0-3.1-0.6c-0.6,0.6-0.6,0.6-0.6,1.2c0-0.6-0.6-0.6-0.6-0.6
				c0.6,0,0.6-0.6,0.6-0.6c-1.2,0-1.8-0.6-3.1-0.6c0,0.6,0.6,0.6,0,0.6c-0.6-0.6-1.8-1.2-3.1-1.8c0,0.6,0.6,0.6,0,0.6
				c0,0-0.6,0.6-0.6,0c0,0,0.6,0,0.6-0.6c-1.2,0-1.8-0.6-3.7-0.6c-0.6,0,0,0.6-0.6,0.6c0,0-0.6,0.6-0.6,0c0.6,0,0.6,0,0.6-0.6
				c-0.6-0.6-1.8,0.6-2.4,0c0-0.6,1.2,0.6,0.6-0.6c-2.4-0.6-3.7-2.4-6.1-3.1c0,0.6-0.6,0.6-0.6,0.6c-0.6-0.6,0.6-0.6,0.6-1.2
				c-2.4-1.2-4.3-2.4-6.1-4.3v1.2h-0.6l1.8,1.8c0.6-0.6-0.6,0-0.6-0.6h0.6c0,0.6,0.6,1.2,0.6,1.8c0.6,0,0.6-0.6,0.6-0.6
				c0.6,1.2,1.8,2.4,4.9,2.4c-0.6,0.6,0,0.6,0,0.6c0.6,0,1.2,0.6,1.8,0.6c0-0.6,0.6-0.6,1.2-0.6c-0.6,0-0.6,0.6-0.6,1.2
				c0.6,0,1.8,0,1.8,0.6c0.6,0.6,0-0.6,0.6-0.6c-0.6,0.6,0.6,0,0.6,0.6c3.7,0.6,8.5,3.7,12.8,2.4c0.6,0,0,0.6,0.6,0.6
				c0.6,0,0.6-0.6,1.2-0.6v0.6c1.2-0.6,2.4,0,3.7,0.6c-0.6-0.6,0.6-0.6,0.6-1.2c-0.6,0-0.6,0.6-1.2,0c0.6-0.6,0.6-0.6,1.2-0.6
				c0,0.6,0.6,0,0.6,0.6v1.8c-0.6,0-0.6,0-0.6,0.6c2.4,0,4.9-0.6,7.9-0.6c0-0.6-0.6-0.6,0-0.6v0.6c0.6-0.6,3.1-0.6,3.7-1.2
				c0,0,0,0.6,0.6,0.6c3.7-1.2,7.3-1.8,10.4-3.7c1.2,0,3.7-0.6,3.7-1.8c0,0,0,0.6,0.6,0.6c1.8-1.2,3.7-1.8,5.5-3.7l1.2-1.2
				c0.6-0.6-0.6,0.6-0.6-0.6c1.2,0.6,1.8,0,1.8-0.6c0.6,0,0,0.6,0,0.6c0.6,0,0.6-1.2,1.8-0.6c0.6-0.6-0.6-0.6,0-1.2l0.6,0.6l0.6-0.6
				h0.6v-0.6h0.6v-0.6c1.8-0.6,3.1-3.1,4.9-4.3c0-1.8,1.8-1.8,1.8-3.7h2.4c0-0.6,0.6-1.8,0-3.1c1.2,0.6,1.8-0.6,1.8-0.6
				c3.1-5.5,4.9-9.2,6.7-15.9c-1.2-0.6-1.2,1.2-2.4,0.6c-1.8,7.3-3.7,11-7.3,15.9c0,0.6,0.6,2.4,0,3.1c-0.6-0.6-0.6-0.6-1.8-0.6
				c-3.7,4.3-7.3,8.5-11.6,11.6v0.6c-1.8-0.6-3.1,0.6-3.7,1.8c-3.1,0.6-4.9,3.1-8.5,3.7c0,0.6,0.6,0.6,0,0.6c-0.6-0.6-3.1,0-3.7,1.2
				C372.6,625.3,373.2,624.1,372.6,624.1L372.6,624.1z M303.6,621c0.6,0.6,0,1.2,0.6,1.2C304.2,622.2,304.2,621,303.6,621z
				 M356.1,602.7c0.6,0.6,0.6,0.6,1.2,0.6C357.4,602.7,357.4,602.7,356.1,602.7z M394,530v-0.6C393.4,529.4,393.4,530,394,530z
				 M369.6,516.6c-1.2-0.6-0.6,0.6-1.2,0.6V516c-3.1,0-3.7,0-6.1-0.6c-0.6,0.6-0.6,0.6-1.8,0.6v-1.2h-1.2c0.6,0.6,0,0.6,0.6,1.8
				c0.6,0,1.8,0.6,1.8,0c0.6,0.6,2.4,0,3.1,0.6c-0.6-0.6,0.6-1.2,1.8-0.6v0.6c-0.6,0-1.2-0.6-1.2,0.6c1.8-0.6,1.8,0.6,3.7,0.6
				C368.4,517.2,369.6,517.2,369.6,516.6L369.6,516.6z M376.9,520.3c0,0.6,1.2,1.2,2.4,1.2c0-0.6,0-0.6,0.6-0.6
				c-0.6,0-0.6,0-0.6-0.6V519c-0.6,0.6-2.4-0.6-3.1-1.2c-0.6,0-0.6,0.6-0.6,0.6c0-0.6-1.2-0.6-1.8,0c0.6-1.2-1.2,0-3.1,0
				c0-0.6-0.6-0.6,0-1.2c-0.6,0-0.6-0.6-1.2-0.6v1.8c1.2-0.6,1.8,0.6,3.1,0C373.8,520.3,375.1,520.3,376.9,520.3v-0.6
				c0,0.6,0.6,0.6,0.6,1.2C376.9,520.9,377.5,519.7,376.9,520.3z M379.3,520.3c0,0.6-0.6,0.6-0.6,0H379.3z M386.7,523.3
				c0,0.6-0.6,0.6-0.6,1.2C385.4,523.9,386.7,522.7,386.7,523.3c-1.8-0.6-1.2-1.8-3.1-1.2c0.6,0.6,1.2,0.6,1.2,0.6l-0.6,0.6
				c0.6,0.6,1.2,1.2,2.4,1.8c0-0.6,0-0.6,1.2-0.6c-0.6-0.6-0.6-0.6,0-1.2C386.7,523.9,387.9,522.7,386.7,523.3z"/>
			<path class="st4" d="M381.8,520.3c0,0.6,0.6,0.6,0.6,1.2h-0.6c-0.6,0.6,0,0.6,0,0.6c0.6,0.6,0.6-0.6,1.2-0.6
				c0,0.6,0.6,0.6,1.8,1.2c0.6-0.6-0.6-0.6-0.6-1.8C383,521.5,382.4,520.3,381.8,520.3z M318.3,531.3
				C318.3,531.3,317.7,531.3,318.3,531.3C317.7,531.3,317.7,531.3,318.3,531.3C317.7,531.9,317.7,531.9,318.3,531.3z M358,514.2
				h-1.8c0,0.6,0.6,0.6,0,0.6c0.6,0,1.2,0.6,0.6,0.6c0-0.6,0-0.6-0.6-0.6c-0.6,0-1.8,0-1.8,0.6c-0.6-0.6-3.7-0.6-4.3,0
				c0,0.6,0.6,0.6-0.6,0.6c-0.6,0,0.6-0.6-0.6-0.6c-0.6,0-0.6,0.6-1.2,0.6c-0.6-1.2-3.7-0.6-4.9,0c-0.6,0.6,0.6,0,0.6,0.6
				c-0.6-0.6,0,0.6-0.6,0.6c0.6-1.2,0,0-0.6-0.6c0,0.6,0.6,1.2,0,1.2v-1.2c-3.1,0-3.7,1.8-6.7,1.8c0.6,0.6-0.6,0.6-0.6,0.6
				c-4.3,1.8-7.9,3.7-11,6.1v0.6c0,0.6-0.6,1.2-0.6,1.8c4.9-2.4,8.5-6.1,14.7-7.3c0.6-0.6,2.4-0.6,2.4-1.8c0,0.6,0,0.6,0.6,0.6
				c1.8-1.2,5.5-0.6,7.3-1.8c1.8,0.6,4.9-0.6,7.9-0.6h1.8c0-0.6-0.6-0.6-0.6-0.6C357.4,515.4,358,514.8,358,514.2z M318.9,531.3
				 M398.9,533.7c0.6-0.6-0.6,0-0.6-0.6c0,0.6-0.6,0.6-0.6,1.2C398.9,533.7,398.3,533.1,398.9,533.7z M394,531.3
				c0.6,0.6,1.8,0.6,1.8,1.2c0.6-0.6,0.6-1.2,0.6-1.8c-0.6,1.2-0.6-1.8-2.4-1.2l1.2,1.2C394.6,530,394,530.6,394,531.3z
				 M387.9,525.8c0.6,0,0,0.6,0.6,1.2c0.6,0,1.2,0.6,1.8,0.6c0.6,0,0-0.6,0.6-0.6v-1.2c-0.6,0-0.6-0.6-1.8-0.6v-0.6
				c-0.6,0.6-0.6-0.6-0.6-0.6c-0.6,0.6,0,0.6,0,0.6C389.1,525.2,387.9,524.5,387.9,525.8z"/>
			<path class="st4" d="M394,528.8C394,528.8,394,529.4,394,528.8C394,529.4,394,528.8,394,528.8z M318.3,531.3
				c0,0.6-0.6,0.6-0.6,0.6L318.3,531.3c-1.2,0-1.2,0.6-1.8,1.2c0,0.6,0.6,1.2,0,1.2c-0.6-1.8-1.2,1.2-2.4,1.2
				c0.6,1.2-1.8,1.8-0.6,3.1c-0.6,0.6,0-0.6-0.6-0.6v1.2c-1.2-0.6-0.6,1.2-1.8,1.2c0,0.6-0.6,0.6-0.6,1.8c0.6,0,0.6-0.6,0.6,0v0.6
				c-0.6,0-1.2,0.6-1.8,0.6c0,0,0.6-1.2,0-0.6c0,1.2-0.6,1.2-1.2,1.8c0.6,0,1.2-0.6,1.2,0c-0.6,0-0.6,0-0.6,0.6
				c3.7-3.1,5.5-7.9,9.2-11c-0.6,0-0.6-0.6-0.6-1.2h0.6L318.3,531.3C318.3,531.9,318.3,531.9,318.3,531.3z M397.7,532.5
				C397,532.5,397,532.5,397.7,532.5l-1.8-0.6c0,0.6,0.6,0.6,0.6,1.2C397,533.7,397,533.1,397.7,532.5z M393.4,528.2
				c-1.2,0-1.8,0-2.4-0.6c0.6,0.6-0.6,0-0.6,0.6s2.4,0.6,2.4,1.2C392.8,528.2,393.4,528.2,393.4,528.2z M359.2,644.8v0.6
				c0.6-0.6,0.6,0.6,0.6,0C359.2,645.4,359.2,645.4,359.2,644.8z M318.3,533.1c0-0.6,0-1.2,0.6-1.2h-0.6V533.1z"/>
			<path class="st4" d="M290.8,546.5c0,0-0.6-0.6,0-1.2C291.4,545.3,290.8,547.1,290.8,546.5c0-1.8,1.2-1.8,1.2-3.7
				c0-0.6-0.6-1.2-0.6-1.2V541c0.6,0,0,0.6,1.2,0.6c0.6-0.6-0.6,0-0.6-0.6v-0.6h-0.6c0-0.6-0.6-0.6-0.6-1.2c0,0.6,0.6,0,0.6,0.6
				c0.6,0.6,0-0.6,0.6-0.6l1.2,0.6h-0.6c0,0,0,0.6,0.6,0.6c1.8-4.3,4.3-8.5,7.3-11.6v-1.2h0.6c0-1.8,1.8-1.8,2.4-3.7h1.8
				c0-1.2,1.2-2.4,3.1-3.1c1.8-1.2,2.4-3.1,4.3-3.7c0.6-0.6,0.6-1.2,1.2-1.8c1.2,0.6,0.6-0.6,1.8-0.6c1.8-2.4,6.1-3.7,8.5-6.1
				c6.1-1.8,11.6-5.5,19.5-6.1c0.6-0.6-0.6-0.6,0-0.6c4.9,0.6,11.6-0.6,18.3-0.6c0-0.6,0-0.6,0.6-0.6c-0.6,0.6,0.6,0.6,0.6,0.6
				c1.8-0.6,3.7,0.6,4.3,0c0.6,0.6,3.7,1.8,3.7,0v1.2c0.6,0,1.8,0,1.8,0.6c0.6-0.6-0.6-0.6-0.6-1.2c0.6,0.6,0-0.6,0.6-0.6
				c0.6,0.6-0.6,0-0.6,0.6c0.6,0,0.6,0.6,0.6,0.6c1.8,0,3.7,0.6,4.9,1.2c0,0,0-0.6,0.6-0.6c-0.6-0.6,0.6-0.6-0.6-1.8h0.6
				c0,0.6,0,0.6,0.6,0.6c-0.6,0.6-0.6,0.6-0.6,1.8c0.6,0.6,0-0.6,0.6-0.6c0,0,0.6-0.6,0.6,0c0,0-0.6,0-0.6,0.6c0.6,0,0.6,0,0.6,0.6
				c0.6,0.6,0.6-0.6,0.6-0.6v2.4c6.7,1.8,11.6,6.1,17.7,9.2c0-0.6,0.6-0.6,1.2-0.6v0.6h0.6c0.6-1.2,0.6-3.1,0.6-4.3
				c-1.2,0.6-1.2-1.2-2.4-0.6c0.6-0.6,0-0.6,0-0.6c-4.9-2.4-8.5-4.9-13.4-7.3c-0.6,0,0,0.6-0.6,0.6v-0.6c-1.8,0-3.7-1.8-5.5-1.2
				c0.6,0,0.6,0,0.6,0.6c-0.6,0.6-1.8,0.6-2.4,0.6c0-0.6,0.6-0.6,0.6-1.2c0.6-0.6-0.6,0.6,0.6,0.6c0-0.6,0.6,0,0.6-0.6
				c-3.1-0.6-6.1-1.8-9.2-1.8c0,0.6,0,0.6-0.6,0.6c0.6-0.6-0.6-0.6-1.8-0.6c0,0.6-0.6,0.6-1.2,0.6v-1.8c-1.8-0.6-3.7,1.2-4.3-0.6
				c-1.2,0.6-1.2,0-2.4,0.6c-1.2-0.6-4.3,0-6.7,0.6c0,0.6-1.2,0.6-0.6,1.2h-0.6c0-0.6,0.6-0.6,0.6-0.6c-3.7-0.6-4.9,0.6-7.9,0.6
				c-1.2-0.6-1.8-0.6-1.8,0c-1.8-0.6-4.9,0.6-6.1,1.8c-0.6,0.6,0-0.6-0.6-0.6c-1.8,0.6-3.7,0.6-4.9,1.8c0,0.6,0.6,0.6,0,0.6
				c-0.6-1.2-1.8,0-1.8,0c0,0.6,0.6,1.2,0,1.2c-0.6,0,0.6-1.8-0.6-1.2l-1.8,1.2c-11.6,4.9-19.5,11.6-26.9,20.1
				c0,0.6,0.6,0.6,0.6,0.6c-0.6,0,0,1.2-0.6,0.6c0-0.6,0.6-0.6,0-0.6v1.2c-1.2,0-2.4,0-2.4,0.6v0.6c-0.6,0-0.6,0-1.2,0.6
				c0,0.6,0,1.2-0.6,1.8c0,0.6,0,0.6-0.6,1.2l-0.6,0.6c0,0.6,0,1.2-0.6,1.8c0.6,0.6,0-1.2,0.6-0.6c0,0.6-0.6,1.2-0.6,1.8l0,0H292
				c-0.6,1.8-1.2,3.7-1.8,4.9c0.6,0,0.6,1.2,0,1.8c0,0,0-0.6-0.6-0.6c0,0,0,0.6,0.6,0.6c-0.6,0-0.6,2.4-1.8,1.8c0-1.2,0-1.2,0.6-2.4
				h-0.6c0,0.6,0.6,1.8-0.6,1.8c0,0.6,0.6,0.6,0.6,1.2h-1.2c0.6,0.6-0.6,0.6-0.6,1.2c0.6,0,0.6,0.6,1.2,0.6c0.6-0.6,0-1.2,0.6-1.2
				c-0.6,1.2-0.6,1.8,0,3.1c-0.6,0-1.2,0.6-1.2,0c-0.6-0.6,0.6-0.6,0.6-0.6c-1.2,0.6-0.6-0.6-1.8-0.6c0.6,1.8-0.6,1.8,0,3.7h-0.6
				c0,3.1-1.2,4.9-1.8,7.9c-0.6,3.1,0,3.7-0.6,6.7h3.7C286.5,556.9,289,552.6,290.8,546.5z M292,540.4 M417.8,605.7
				c-0.6,0.6,0.6,0,0.6,0.6c-0.6,0-0.6,0.6-1.2,0.6c-0.6,1.2-0.6,2.4-0.6,4.3l-0.6-0.6c0.6,0,0.6,0,0.6-0.6
				c-0.6,1.2-1.8,1.8-2.4,3.7c-0.6,0.6,0.6,0.6,0.6,1.2c0,0-0.6,0-0.6-0.6c-0.6,0.6-1.8,1.8-1.8,3.1c-0.6,0.6-0.6,0-0.6,0
				c0,0.6,0,1.2-1.2,1.2c-0.6,1.8-3.7,3.1-3.1,4.9l-1.8-1.2v0.6c-3.1,0.6-4.3,3.7-7.3,4.9c-0.6,0-1.2,0.6-1.8,0.6v0.6
				c-4.3,2.4-8.5,4.3-12.2,6.7c-0.6-0.6-2.4,0.6-3.1,1.2c0,0,0-0.6-0.6-0.6c-1.8,1.2-4.9,1.8-7.3,1.8c-0.6,0.6,0.6,0.6,0.6,1.2
				c-0.6,0-0.6,0.6-1.2,0c0.6,0,0.6,0,0.6-0.6c-0.6,0.6,0-0.6-0.6-0.6c-1.2,0.6-4.3,0-4.9,1.2c-0.6-0.6-3.1,0-3.7,0
				c0.6,0.6-0.6,0.6,0,1.8c0,0,0,0.6-0.6,0.6c0.6-0.6-0.6-0.6-0.6-0.6c-0.6-0.6,0.6-0.6,0.6-0.6c-1.2,0-0.6,1.8-2.4,1.2
				c0-0.6-0.6-0.6,0-0.6c0.6-0.6,0,1.2,0.6,0.6v-1.8c-0.6-0.6-1.2,0.6-1.8,0c0,0.6-1.8,0.6-1.8,0.6c0,0.6,0.6,1.2,0,1.2
				c-0.6-1.2-0.6,0.6-0.6,0.6c-0.6-0.6,0.6-0.6,0.6-1.8h-1.8c0,0.6,1.2,0.6,1.2,0.6s0,0.6-0.6,0.6s0-0.6-0.6-0.6
				c0.6,0.6,0.6,1.2,0,1.8h1.8l-0.6,0.6c0,0.6,0,0.6,0.6,0.6c0-0.6,1.2-0.6,1.2-1.2c2.4,0,4.3-0.6,5.5,0c1.2,0,3.1-0.6,4.3-0.6v0.6
				h0.6v-1.2c0.6,0,0.6-0.6,1.2-0.6c0.6,0.6-0.6,0.6-0.6,0.6c1.2-0.6,3.1-0.6,3.7-1.2c0.6,0,0.6,0,0.6,0.6c0.6,0,0.6-0.6,1.8-0.6
				c0,0.6,0,0.6,0.6,0.6c0.6-0.6,1.2-0.6,2.4-0.6c0-0.6-0.6-1.2,0-1.2c0.6,1.2,1.8,0.6,2.4,0.6l-0.6-0.6v-1.2
				c0.6-0.6,0.6,0.6,1.8,0.6c0,0.6,0,1.2-0.6,1.2c0.6,0,1.2,0,1.8-0.6h0.6c1.2-0.6,3.1-1.2,4.3-1.8c0,0.6,0.6,0.6,0.6,0v-0.6
				c1.2-0.6,3.1-1.2,4.3-2.4h1.2v-1.2c0,0,0.6,0,0.6-0.6c0,0,0.6,0,0.6-0.6c0.6,0,1.2-0.6,1.8-0.6c0-0.6-0.6-0.6,0-1.2
				c0,0.6,0,0.6,0.6,0.6c3.1-1.2,4.9-3.7,7.3-4.9c0.6-0.6-0.6,0-0.6-0.6c0.6-0.6,0,0.6,0.6,0.6c0-0.6-0.6-1.2,0-1.2
				c0.6,0-0.6,1.2,0.6,0.6c2.4-3.7,6.1-5.5,8.5-9.2c-0.6,0-0.6,0.6-0.6,0c0.6,0,0.6-0.6,0.6-0.6v0.6c1.2-0.6,1.8-1.8,2.4-3.7
				c0.6-0.6,0.6-0.6,1.2-0.6c0.6-0.6,0-1.2,0.6-1.8c0.6-0.6,1.2-0.6,1.8-1.2s0.6-1.8,0.6-2.4c0-0.6,0.6,0,0.6-0.6v-0.6l1.2-1.2
				c0.6-1.2,0.6-3.1,1.2-3.7c0.6,0,0.6,0,0.6-0.6c0-0.6-0.6-1.2,0-1.8c0-0.6,0.6-0.6,0.6-0.6V596c0,0,0.6,0,0.6-0.6v-1.2l0.6-0.6
				c0-1.2,0-2.4,0.6-3.7l0.6-0.6c0.6-2.4,0.6-5.5,1.2-7.3l-3.7-0.6C425.1,592.3,422.7,600.9,417.8,605.7L417.8,605.7z M364.7,644.2
				c0,0-0.6,0-0.6-0.6h0.6C364.7,643.6,365.3,644.2,364.7,644.2z M353.7,643c0.6,0.6-0.6,0-0.6,0.6h1.2
				C354.3,643.6,354.3,643,353.7,643z"/>
			<path class="st4" d="M301.2,560c0.6,0,1.2-0.6,1.8-0.6v-1.8C301.8,557.5,301.8,559.3,301.2,560z M380.6,640.6 M306.7,544.7
				c-0.6,0.6,0,1.2,0,1.8h-1.2c-1.2,3.7-3.1,6.1-3.7,10.4h1.2c0,0,0-0.6,0.6-0.6c0-0.6-0.6-1.8,0-1.8h0.6c0.6-0.6,0,0.6,0.6,0.6
				c0-0.6,0.6-0.6,0.6-1.8c1.8-1.8,1.8-4.9,3.7-6.7c-0.6-0.6,0-0.6,0-1.8H306.7z M318.9,531.3C318.9,530.6,318.9,530.6,318.9,531.3
				C318.9,530.6,318.9,530.6,318.9,531.3C318.9,530.6,318.9,530.6,318.9,531.3z M321.3,527c-0.6,0.6,0.6,0,0.6,0.6
				C320.7,528.2,321.9,527,321.3,527c-0.6,0.6,0,1.2-0.6,1.2h-0.6c0,0.6-0.6,0.6-0.6,0.6v2.4c1.2-0.6,1.8-1.8,3.1-2.4
				c-0.6-1.2,0-1.8,0-3.1C321.9,525.8,322.6,527,321.3,527z M278,605.1c0,0,0,0.6,0.6,0.6L278,605.1z M279.8,602.1
				c-0.6-3.7-1.2-6.7-3.1-9.2v-1.2c0,0,0.6,0,0.6-0.6v-1.2c-0.6,0-0.6,1.2-0.6,0.6c0.6-4.3-1.8-8.5-2.4-12.8c-0.6-0.6,0,0.6-0.6,0.6
				c0-0.6,1.2-2.4,0-2.4v1.8c-0.6,0-0.6,0.6-0.6,0.6c0-0.6-0.6-0.6-0.6-0.6c-0.6,0.6-0.6,1.2-1.2,0.6c0.6,0.6,0.6,1.2,0.6,2.4
				c0.6,0.6,1.2,0,1.2,0.6s-1.2,0-0.6,0.6c1.2,2.4,1.2,6.1,3.1,7.3c-0.6,1.2,0.6,4.3,1.2,4.9c0,0.6-0.6,0.6-0.6,0.6l3.1,11
				C278.6,603.9,278.6,602.7,279.8,602.1z M359.2,597.2C359.2,597.8,359.2,597.8,359.2,597.2C359.8,597.8,359.2,597.8,359.2,597.2z"
				/>
			<path class="st4" d="M303,613.7c10.4-1.8,20.1-4.9,30.5-7.3c0.6-0.6,0-0.6,0.6-0.6c1.2,0.6,3.1-0.6,4.3-0.6
				c0.6-0.6,0-0.6,0.6-0.6c2.4,0.6,7.3-1.8,11.6-2.4v-0.6h1.2c0.6-0.6,0.6-1.2,1.2-2.4c0.6,0,0.6,1.2,0,1.2c2.4,0.6,3.1-0.6,4.9-0.6
				c0.6-0.6-1.2,0-0.6-0.6c-0.6-0.6,0,0.6-0.6,0.6c-0.6-0.6,0.6,0,0.6-0.6h-3.1c0-1.2,0.6-1.2,1.2-1.8c0.6,1.2,1.8,0.6,3.1,0.6v-0.6
				c0-0.6,0-0.6-0.6-0.6c0,0.6,0,0.6-0.6,0.6c-0.6,0.6,0.6,0,0.6,0.6c-0.6-0.6-1.2,0-1.2-0.6c0-0.6,0.6-0.6,0.6-0.6
				c-1.2,0.6-3.1,1.2-4.9,1.2c0.6,1.2-1.8,0.6-0.6,1.2c-0.6,0-1.2-0.6-0.6-0.6c-1.2,0-2.4,0.6-1.8,1.2c0-0.6,0-0.6,0.6-0.6
				c-0.6,0.6,0,1.2-0.6,1.2c-0.6-0.6-0.6-0.6-1.2-0.6c0-0.6,0.6-0.6,0.6-0.6c-1.2-0.6-1.2,0.6-1.8,0.6c-1.2-0.6-4.3,1.2-6.1,1.2
				c-0.6,0.6,0,0.6-0.6,0.6c-0.6,0.6-1.2-0.6-1.2-0.6c0,1.2-1.2,1.2-1.8,1.8c-0.6-0.6,0.6-0.6,0.6-1.2c-0.6,0.6-1.2,1.2-2.4,0.6
				c-0.6,0.6-1.2,0.6-2.4,0.6c-4.3,1.2-8.5,2.4-13.4,3.1c-0.6,0.6,0,0.6-0.6,1.2c0-0.6-0.6-0.6-0.6-0.6h-0.6c0-0.6-0.6-0.6-1.2-0.6
				c-13.4,4.3-16.5,3.7-30.5,7.3c0.6,0,0.6,0,0.6,0.6c-1.2,0.6-0.6-0.6-1.8-0.6c-0.6,0.6-0.6,1.2-1.2,2.4c-1.2-1.2,0-2.4-0.6-4.3
				c-0.6,0.6-1.2,1.2-1.2,0.6s0.6-0.6,1.2-0.6V610c-0.6,0-0.6,0.6-0.6,0.6c0.6-2.4-1.2-4.9-1.2-7.3c-0.6-0.6-0.6,0-0.6-0.6
				s-0.6-0.6-0.6-0.6c0,1.8-1.2,1.8-1.2,3.1l1.8,7.3c0.6,0.6,1.2,0,1.2,0.6c-0.6,0.6,0,0.6-0.6,0.6c-0.6,0-0.6-0.6-0.6-0.6
				c0,1.2,0,2.4,1.2,3.1c-1.2,0.6,0,1.8,0,2.4c7.9-1.8,3.7-0.6,11.6-2.4l3.1-1.2C298.1,614.9,300,614.3,303,613.7
				c0-0.6-1.8-0.6-1.2-1.2C302.4,613.1,303,613.1,303,613.7z M353.1,598.4c0.6,0.6,1.2,0.6,1.2,0.6c-0.6,0.6-1.2,0.6-1.8,1.2
				C353.1,599,353.1,599,353.1,598.4z M349.4,600.9C349.4,601.5,349.4,601.5,349.4,600.9C349.4,601.5,348.8,600.9,349.4,600.9z
				 M449.6,564.8c-2.4-2.4-1.2-7.3-3.7-10.4c1.2-1.8-1.2-3.7-0.6-6.1c-1.2-0.6,0,1.2-0.6,1.2c0.6-2.4-0.6-4.9-2.4-6.1
				c0.6-0.6,0,0.6,1.2,0.6c-0.6-1.2-0.6-4.3-1.8-4.9c1.2-2.4-1.2-4.9-1.2-7.3c-0.6-0.6-0.6,0-0.6-0.6c0.6-0.6,0-1.8,0-3.7H438h-0.6
				v1.2h-0.6c0,0.6,0,1.2,0.6,1.2c0.6-0.6,0-1.8,0.6-1.8c0,0.6,0,1.2,1.2,1.2c-1.2,0-0.6,1.8-1.8,1.2c1.2,4.3,2.4,7.9,3.1,12.2
				c0.6,0.6,0.6,0,0.6,0.6c0,0.6-0.6,0.6-0.6,1.2s0,0.6,0.6,1.2c0,0,0.6,0,0-0.6h0.6c0,0.6-0.6,0.6-1.2,0.6
				c1.2,4.3,2.4,8.5,3.7,12.2c0.6,0,0-1.2,0.6-1.2c0,0.6,1.2,0,1.2,0.6s0,0.6-0.6,0.6c0,0,1.2,0.6,0.6,1.2c-0.6,0,0-1.2-0.6-0.6
				c-1.2,4.3,2.4,7.9,2.4,12.8c1.2,0.6,0-1.2,0.6-1.2c1.2,0.6,0.6,1.8,0,2.4c-3.7-1.2-6.7,2.4-11,1.8c0,0,0,1.2-1.2,1.2
				c-0.6-0.6,0.6,0,0.6-0.6c-0.6,0-1.2,0.6-1.2,0.6h-0.6c0,0.6-1.2,0.6-1.2,0.6c-0.6,0.6,0.6,0,0.6,0.6c-1.8-0.6-4.9,0.6-6.7,1.2
				c0-0.6-1.2,0.6-2.4,0c-0.6,0,0,1.2-0.6,1.2c0,0,0-1.2-1.2-0.6v0.6c-3.1,0-5.5,2.4-7.3,1.2c-1.2,1.2-4.9,1.2-6.1,2.4
				c-6.1,0.6-9.8,2.4-14.7,3.1c-0.6,0,0,1.2-0.6,1.2c-0.6,0-0.6-0.6-0.6-1.2c-0.6,0.6-1.2,0-1.8,0.6c-1.2,0.6-1.2,2.4-2.4,1.8
				c0.6-0.6,1.2,0,0.6-0.6c-1.8,0-3.7,1.2-4.3,0.6c-1.8,1.2-3.7,1.8-6.1,1.8c-5.5,1.2-11,3.7-15.9,4.3c-0.6,0.6,0,0.6-0.6,0.6
				c0-0.6-0.6-0.6-1.2-0.6c0,0.6-0.6,1.2-0.6,0.6c0,0.6,0.6,1.2,0.6,1.8c-0.6,0-0.6,0.6-0.6,0.6s0-0.6-1.2-0.6
				c0.6,1.2-1.2,0-1.2,1.2c2.4,0.6,4.3-0.6,7.3-1.2c0.6,0,0-1.2,0.6-1.2c0.6,0,0,0.6,0.6,0.6c12.8-3.7,26.3-6.7,38.5-10.4
				c0.6-0.6,0-0.6,0.6-0.6c3.1,1.2,6.7-1.2,10.4-1.8c0.6-0.6-0.6-1.2-0.6-1.2c0.6,0,1.2,0,1.2,1.2c3.7,0,6.7-1.2,9.8-3.1
				c0,0,0-1.2,0.6-1.2c0,0.6,1.2,0,0.6,1.2c1.2,0,1.2-0.6,2.4-0.6h4.9c7.9-2.4,7.9-3.1,16.5-4.9
				C451.4,572.2,450.2,569.7,449.6,564.8L449.6,564.8z M438,533.1c0.6,0,0.6,0,0.6,1.2C438,534.3,438,533.7,438,533.1z M438,528.2
				c0.6,0,1.2,0,1.2,0.6C438,528.8,438,528.8,438,528.2z M442.2,549.6c0-1.2-0.6-1.2-0.6-2.4c0,0.6,0,0.6,1.2,0.6
				C442.8,548.4,442.8,549.6,442.2,549.6z M447.7,563.6h0.6c0,0.6,0,0.6-0.6,1.2h-0.6C447.1,564.2,447.7,564.2,447.7,563.6z
				 M446.5,562.4h0.6v1.2C446.5,563,445.9,563,446.5,562.4z M447.7,565.4c0-0.6-0.6-0.6-0.6-0.6v-0.6
				C447.1,564.8,447.7,564.8,447.7,565.4c1.2-0.6,0-1.8,1.2-1.2v1.2C447.7,564.8,448.3,565.4,447.7,565.4z M448.3,568.5
				c0.6-0.6,0.6-1.2,0.6-1.2C448.9,567.9,448.3,567.9,448.3,568.5z M367.1,596.6c-0.6,0-1.2-0.6-0.6-1.2h0.6V596.6z M369.6,594.8
				v-0.6c0.6,0,0.6,0.6,0.6,0.6H369.6z M424.5,580.7c0-0.6-0.6-0.6-1.2-1.2C423.9,579.5,425.1,580.1,424.5,580.7z M430,580.1
				c-0.6,0.6-1.2,0-0.6-0.6h0.6V580.1z M414.8,534.3h0.6C414.8,533.7,414.8,533.7,414.8,534.3z M291.4,566.7c0,0-0.6-0.6,0-0.6h-0.6
				l1.2-0.6c-2.4,1.2-6.7,1.2-8.5,2.4c-0.6,0-0.6-0.6-0.6-0.6c-0.6,0.6,0,0.6-0.6,0.6c-0.6-1.2-2.4,0-2.4,0.6s0.6-0.6,0.6,0.6v0.6
				h-1.2c0.6-1.2-0.6-0.6-0.6-1.2c-1.2,0.6-3.1,0-3.1,1.2c0-0.6,0-1.2-0.6-0.6c0,0.6-0.6,0.6-1.2,1.2c-1.2-1.2-1.8,0.6-3.1,0v0.6
				c0.6,0,0.6,0.6,1.2,0.6v0.6c1.2,0,0-0.6,0.6-0.6v1.2h1.2c-0.6,0-0.6-0.6-0.6-1.2c0.6,0,0.6,0,1.2,0.6c0,0,0.6-0.6,1.2-0.6
				c0,0.6,0.6,1.2,0.6,0.6c0.6,0,0-1.2,0.6-1.2c0.6,0,0.6,0.6,0.6,1.2c1.2-0.6,2.4-0.6,3.7-0.6c0.6,0,0.6-0.6,0.6-1.2
				c0.6,0,0,0.6,0.6,0.6c0.6-0.6,0.6-1.2,1.2-1.8h0.6c-0.6,0-0.6,0-0.6,1.2c0.6-0.6,2.4-0.6,3.1-0.6c0.6-0.6-0.6-0.6,0-0.6
				c1.2,1.2,1.8-0.6,3.7-1.2h0.6v-0.6h0.6C290.8,567.3,290.8,567.3,291.4,566.7C290.8,567.3,290.8,566.7,291.4,566.7z M276.2,570.9
				c0.6,0,0.6,0.6,0.6,1.2C276.8,571.6,276.8,570.9,276.2,570.9z M278.6,571.6c-0.6,0-0.6-0.6-0.6-0.6h0.6V571.6z M280.4,569.1
				c0.6,0,1.2,0,1.8,0.6C281.6,569.7,281,569.7,280.4,569.1z M284.1,570.3c-0.6,0-1.2,0-1.2-0.6
				C283.5,569.7,284.7,569.7,284.1,570.3z M289.6,567.3 M290.2,566.7H289c0-0.6,0-0.6,1.2-0.6V566.7z M356.1,549h0.6H356.1z"/>
			<path class="st4" d="M436.1,530C436.7,530,436.7,530,436.1,530C436.7,530,436.7,530,436.1,530z M436.7,528.2
				c-0.6,0,0-0.6-0.6-0.6c-1.2-0.6-1.2,0.6-1.8,0.6v0.6C436.1,528.8,436.7,528.2,436.7,528.2z M437.3,527.6c-0.6,0,0,0.6,0,0.6
				C436.7,528.2,437.3,528.2,437.3,527.6z M292.6,567.3h-1.8l0.6,1.2c0,0,0-0.6,0.6-0.6C292,567.9,292.6,567.9,292.6,567.3z
				 M353.7,550.2c0.6,0,1.2,0,1.2-0.6L353.7,550.2C354.3,550.2,353.7,550.2,353.7,550.2z"/>
			<path class="st4" d="M322.6,558.1c-3.1,0.6-6.7,2.4-10.4,2.4c-2.4,0.6-5.5,1.2-7.9,2.4c-0.6,0.6,0,0.6-0.6,0.6
				c-3.7-0.6-6.7,1.8-10.4,2.4c-0.6,0.6,0.6,0,0.6,1.2c0,0-1.2,0-1.2-0.6h-1.8c1.2,0,1.2,0.6,1.8,0.6c0,0,0-0.6,0.6-0.6v1.2h1.2
				c-0.6-0.6-1.2-0.6-1.2-0.6c1.2,0,0.6,1.2,1.2,0.6c0.6-0.6-0.6,0-0.6-1.2c1.8,1.2,4.3,0.6,5.5-0.6c0.6,1.2,1.8-0.6,3.1,0
				c0.6-0.6-0.6,0-0.6-1.2h1.2c0,0.6,0,0.6,0.6,0.6c1.2,0,2.4-1.2,4.3-1.2c14-4.3,28.1-7.3,42.1-11h-0.6V552c-0.6,0-0.6,0-0.6-0.6
				c-0.6,0-1.8,0.6-3.1,0.6C338.4,553.8,330.5,556.3,322.6,558.1z M304.2,564.2c0-0.6,0.6-0.6,0.6-0.6
				C305.5,563.6,304.8,564.8,304.2,564.2z M348.8,550.8h1.2v-0.6C348.8,549.6,348.8,550.2,348.8,550.8z M354.9,549.6
				C355.5,549.6,355.5,549.6,354.9,549.6C355.5,549.6,354.9,549.6,354.9,549.6z M436.7,529.4h0.6v-0.6L436.7,529.4
				C436.7,528.8,436.7,528.8,436.7,529.4z M352.5,550.2c-0.6,0.6,0,0.6-0.6,0.6H350c0,0.6,0.6,1.2,0.6,1.2s-0.6-0.6,0-1.2
				c0.6,1.2,1.2,0.6,1.8,1.2c0.6-0.6,0.6-0.6,1.2-0.6v-0.6c-0.6-0.6-1.2,1.2-1.2,0.6s1.2-0.6,1.2-1.2c0.6,0,0.6,0,0.6,0.6
				c0,0,0-0.6-0.6-0.6h-0.6C353.7,549.6,352.5,550.2,352.5,550.2z M409.9,534.9 M355.5,551.4h-0.6c0,0.6,0.6,1.2,0.6,1.2V551.4z
				 M354.9,550.2c0.6,0,0.6-0.6,1.2-1.2C355.5,550.2,354.9,550.2,354.9,550.2 M356.1,549C356.1,549,356.1,549.6,356.1,549
				C356.1,549.6,356.1,549.6,356.1,549 M441,547.1C441,547.1,441.6,547.1,441,547.1C441,546.5,441,547.1,441,547.1 M435.5,530
				c0-0.6,0-0.6-0.6-0.6h-0.6c-0.6,0.6,1.2,0.6,0.6,1.2c-0.6,0-1.2,0-0.6-1.2c-3.7,0.6-6.7,2.4-11,2.4l-3.1,1.2
				c-1.2,0.6-3.1,0.6-4.3,1.2h0.6v0.6c-1.2-0.6-0.6,0.6-1.8,0.6c0-0.6,0.6-0.6,0.6-1.2c-1.2,0-2.4,0.6-3.7,0.6v0.6
				c0,0-0.6,0-0.6-0.6c-0.6,0.6,0.6,0,0.6,1.2c-0.6,0,0-0.6-1.2-0.6c-17.7,4.3-34.8,9.2-52.5,14v0.6h-0.6c1.2,0.6-1.2,1.2,0,2.4
				c0.6,0,0-1.2,0.6-1.2c1.2,0.6,1.8-0.6,2.4,0c0.6-0.6,0.6,0,0-1.2h1.2v1.2c0,0,0.6,0,1.2-0.6c0-0.6-1.2,0-1.2-0.6h1.2
				c0,0-0.6,0-0.6,1.2c1.2-0.6,1.8-0.6,3.1,0c0.6,0,0.6-0.6,0.6-1.2c1.2,1.2,3.1-0.6,4.9-0.6c14-4.3,28.7-7.9,42.7-11.6
				c0.6-1.2,0-1.2-0.6-1.8c0.6,0,0.6-0.6,0.6-0.6v1.2c6.1-1.2,12.2-3.1,18.3-4.9c1.2-0.6,2.4-1.2,4.3-1.2c-0.6,0-1.8,0-3.1,0.6
				C434.3,530.6,434.9,530,435.5,530 M428.2,532.5v-1.2h1.2C429.4,531.9,428.8,531.9,428.2,532.5 M430.6,530.6
				C431.2,530.6,431.2,530.6,430.6,530.6C431.2,530.6,430.6,530.6,430.6,530.6 M350.6,552.6C350,552,350,552.6,350.6,552.6
				C350,552.6,350.6,553.2,350.6,552.6 M291.4,566.1C290.8,566.1,290.8,566.1,291.4,566.1 M270,574v-2.4c0,0,0-0.6-1.2-0.6
				C269.4,572.2,269.4,572.8,270,574 M270,571.6C270.7,571.6,270.7,571.6,270,571.6C270.7,571.6,270.7,571.6,270,571.6
				C270.7,571.6,270.7,571.6,270,571.6 M291.4,568.5C291.4,569.1,291.4,569.1,291.4,568.5C291.4,569.1,291.4,569.1,291.4,568.5"/>
		</g>
		<path class="st1" d="M497.1,797.8h253.5v13.8H497.1V797.8z M732.1,740.3h-29.9c-21.6,0-39.2-17.6-39.2-39.2
			c0-10.2,3.9-19.5,10.4-26.6l-0.2-0.3c12.2-12.8,19.7-30.2,19.7-49.3c0-39.5-32-71.5-71.5-71.5S550,585.5,550,625
			c0,19.2,7.7,36.8,20,49.6l-0.2,0.3c6.2,6.9,10.1,16.1,10.1,26.1c0,20.9-16.4,37.8-36.8,39v0.2h-27.5c-10.2,0-18.5,8.3-18.5,18.5
			v30h253.5v-29.9C750.6,748.6,742.3,740.3,732.1,740.3L732.1,740.3z"/>
	</g>
</g>
</svg>
