<?xml version="1.0" encoding="UTF-8"?>
<svg width="40px" height="40px" viewBox="0 0 40 40" version="1.1" xmlns="http://www.w3.org/2000/svg" xmlns:xlink="http://www.w3.org/1999/xlink">
    <!-- Generator: Sketch 55.2 (78181) - https://sketchapp.com -->
    <title>业务设置6</title>
    <desc>Created with Sketch.</desc>
    <g id="业务设置6" stroke="none" stroke-width="1" fill="none" fill-rule="evenodd">
        <g transform="translate(2.000000, 0.000000)" fill-rule="nonzero">
            <g id="编组-5">
                <path d="M35.81626,6.09485253 C35.81626,6.09485253 27.7193051,11.3590599 18.6603357,1.86753448 L18.6603357,1.54849161 C18.5801679,1.62825233 18.5801679,1.62825233 18.5,1.70801305 C18.4198321,1.62825233 18.4198321,1.62825233 18.3396643,1.54849161 L18.3396643,1.86753448 C9.28069491,11.4388206 1.18374,6.09485253 1.18374,6.09485253 C1.18374,34.0908645 16.0949639,37.9991397 18.3396643,38.3979433 L18.3396643,38.477704 C18.3396643,38.477704 18.4198321,38.477704 18.5,38.477704 C18.5801679,38.477704 18.6603357,38.477704 18.6603357,38.477704 L18.6603357,38.3979433 C20.9050361,37.9991397 35.81626,34.1706252 35.81626,6.09485253 Z" id="路径" fill="#FFFFFF"></path>
                <path d="M1.27101011,4.90901485 C1.48335168,4.91957801 1.69550472,4.98015535 1.87777824,5.10105388 C2.04229745,5.21017632 5.13694228,7.1024431 9.5499356,6.02865974 C11.7829403,5.48531803 14.3599483,4.17966523 17.0572854,1.46836087 C17.2680832,0.949884452 17.5241985,0.625042378 17.9090478,0.426748786 C18.0944501,0.366283962 18.3356229,0.301611653 18.5782947,0.361971487 C18.7755572,0.372021022 18.9530641,0.357970799 19.0701554,0.416219126 C19.3058808,0.497966366 19.4812258,0.609703218 19.6150477,0.753940697 C19.7337821,0.881916329 19.8203246,1.03606338 19.8487281,1.20561835 C22.6404287,4.10000111 25.2202447,5.40618249 27.4557168,5.95012455 C31.9931429,7.05418527 35.1185621,5.034213 35.1739941,4.97906254 C35.3044953,4.90039463 35.5166483,4.83981729 35.7289899,4.82925413 C35.9586152,4.81783118 36.1894481,4.86459658 36.3864154,4.96258004 C36.569391,5.05360322 36.7193267,5.20773029 36.8251726,5.39728527 C36.9372874,5.5980671 37,5.83873186 37,6.09485253 C37,16.4134376 35.0322641,23.5914695 32.3615507,28.5765642 C27.882267,36.9374963 21.43131,39.0886029 19.1496572,39.5820953 C18.909684,39.6596241 18.7055005,39.7339353 18.5,39.7339353 C18.2216219,39.7339353 18.0137143,39.6608068 17.8053061,39.5916902 C15.3994437,39.0415402 9.03247172,36.8841982 4.60951655,28.6112731 C1.95308702,23.6425493 0,16.4826565 0,6.17461325 C0,5.73107541 0.25562761,5.2912565 0.63238415,5.03319287 C0.825159953,4.94145581 1.04865127,4.89795337 1.27101011,4.90901485 Z M30.0030949,27.640146 C32.3382397,23.42249 34.1813634,17.3620964 34.4719957,8.65849305 C34.477455,8.49500234 34.4823055,8.33240577 34.4865546,8.1706985 C34.3309001,8.22622614 34.178703,8.2771996 34.0304842,8.32395712 C32.1633188,8.91297839 29.3945139,9.31655197 26.1874797,8.38387223 C23.8720635,7.71049562 21.3316898,6.34161432 18.7348827,3.85610789 C18.6560685,3.78067172 18.5782856,3.70524379 18.5015224,3.62982932 C18.424306,3.70473996 18.3460486,3.77965441 18.2667434,3.85456173 C12.0683673,9.70920995 6.18244418,9.1797024 2.96229028,8.24200498 C2.81706294,8.19971529 2.66771019,8.15381516 2.51470912,8.1039582 C2.51857696,8.2614332 2.52300123,8.41946806 2.52798259,8.57806222 C2.85177857,18.8869101 5.37649314,26.6899887 9.9074919,31.8419737 C13.5104043,35.9154009 17.3600136,36.9685789 18.5733766,37.2134582 C19.9854627,36.9012549 25.7962754,35.238355 30.0030949,27.640146 Z" id="形状" fill="#334764"></path>
            </g>
            <g id="编组-19备份" transform="translate(9.504587, 10.847458)">
                <g id="编组-20">
                    <path d="M11.6395421,10.7072308 L9.16678243,12.1009817 L6.69402272,10.7072308 L6.69402272,7.839678 L9.16678243,6.44592709 L11.6395421,7.839678 L11.6395421,10.7072308 Z M7.88992981,8.47507334 L7.88992981,9.97859551 L9.16678243,10.7406177 L10.4436351,9.97859551 L10.4436351,8.47507334 L9.16678243,7.71305117 L7.88992981,8.47507334 Z M18.2650611,12.1810958 C18.3796971,12.594433 18.3448924,13.049568 18.1492601,13.4458739 L17.3126418,14.8327948 C17.0849969,15.2101777 16.7900004,15.5293124 16.3291966,15.6057031 C15.8804885,15.7758556 15.4292137,15.6847872 15.0551745,15.460314 L13.3486439,14.5055145 C12.7786063,14.9885356 12.2098207,15.3272485 11.6395421,15.51679 L11.6395421,16.6860292 C11.6395421,17.1196495 11.4560032,17.5323562 11.1539092,17.8328376 C10.8646685,18.1205343 10.4654013,18.3050847 10.0104452,18.3050847 L8.41685996,18.3050847 C7.9802587,18.3050847 7.56457941,18.1224667 7.26198425,17.8214868 C6.97322744,17.5342713 6.78776303,17.1378658 6.78776303,16.6860292 L6.78776303,15.5654116 C6.57136708,15.4249855 6.35517481,15.3100174 6.13885864,15.1952646 C5.78703582,15.0086274 5.43389388,14.8238898 5.08243878,14.503401 L3.37205606,15.4603558 C2.97699597,15.6980459 2.50164961,15.6858021 2.10883641,15.6076588 C1.63730473,15.5293124 1.34230828,15.2101777 1.11466341,14.8327948 L0.271000636,13.4341958 C0.0431073785,13.0564011 0.00473241999,12.6226382 0.114867843,12.2255284 C0.229807084,11.8110977 0.505386744,11.4355824 0.900395488,11.1984648 L2.67007608,10.2083331 C2.46574874,9.88189847 2.47570885,9.55329682 2.47570885,9.22683443 C2.47570885,9.10553549 2.49761393,8.98441096 2.5179243,8.86319923 C2.55601519,8.63587383 2.59082607,8.40836909 2.5534195,8.18145665 L1.08881424,7.34900672 C0.693303687,7.11192079 0.417378672,6.73613909 0.30234846,6.32138038 C0.192213037,5.92427057 0.230587995,5.49050765 0.458481252,5.112713 L1.30214403,3.71411398 C1.5297889,3.3367311 1.82478535,3.01759641 2.28558923,2.94120571 C2.73398013,2.77117934 3.18481619,2.86196922 3.5586713,3.08603102 L5.07738574,3.94923544 C5.64785041,3.46563858 6.21705914,3.12656171 6.78776303,2.93687886 L6.78776303,1.67439974 C6.78776303,1.24077943 6.97130199,0.828072757 7.27339593,0.52759136 C7.56263662,0.239894592 7.96190387,0.0553441716 8.41685996,0.0553441716 L10.0104452,0.0553441716 C10.4470465,0.0553441716 10.8627258,0.237962174 11.1653209,0.53894212 C11.4540777,0.826157584 11.6395421,1.22256308 11.6395421,1.67439974 L11.6395421,2.88825729 C11.8559381,3.02868336 12.0721304,3.14365146 12.2884465,3.25840425 C12.6406839,3.44526142 12.9942435,3.63021437 13.3461088,3.95140133 L14.8686641,3.08601385 C15.2673352,2.84683537 15.6673627,2.86256885 16.1417159,2.94120571 C16.6025198,3.01759641 16.8975163,3.3367311 17.1251611,3.71411398 L17.9688239,5.112713 C18.1967172,5.49050765 18.2350921,5.92427057 18.1249567,6.32138038 C18.0099265,6.73613909 17.7340015,7.11192079 17.3384909,7.34900672 L15.7583475,8.24712604 C15.9615201,8.57297178 15.9515963,8.90096883 15.9515963,9.22683443 C15.9515963,9.34813336 15.9296912,9.46925789 15.9093809,9.59046963 C15.8712043,9.81830655 15.8363225,10.0463236 15.8741393,10.273744 L17.5268972,11.1984578 C17.9069097,11.4266691 18.155212,11.7850184 18.2650611,12.1810958 Z M17.1048733,12.8561011 C17.1563142,12.7277424 17.145621,12.6054567 17.0926993,12.5001783 C17.0537908,12.4227767 16.9889226,12.353565 16.7798431,12.2581308 L14.4411685,10.9288787 L14.5565623,10.5271563 C14.6586191,10.1247931 14.6619489,9.7227062 14.6619489,9.32007436 C14.6619489,8.91744252 14.6586191,8.51535565 14.5565623,8.11299242 L14.4420834,7.71445502 L16.9117163,6.34976037 L16.9117163,5.86588943 L15.7495595,4.01636396 L13.066692,5.54124776 L12.7809828,5.25706368 C12.1746701,4.65398739 11.4666836,4.25328287 10.759539,4.05232003 L10.3404985,3.93323326 L10.2430759,1.31686317 L7.88992981,1.44689569 L7.88992981,3.93590357 L7.45985108,4.05812729 C6.76291193,4.35328698 6.06554856,4.74993022 5.46959813,5.24636467 L5.17086017,5.54350801 L2.79469573,4.23046313 C2.60246204,4.21271867 2.48808804,4.24944798 2.4154465,4.28557488 C2.34214862,4.32202819 2.29539152,4.36668067 2.19271776,4.52913927 L1.32853354,5.96175814 C1.32871345,6.03570362 1.32552777,6.11949092 1.33422205,6.18867389 C1.34363548,6.26357939 1.36641549,6.32824375 1.39767493,6.38040735 C1.45212359,6.47126749 1.52933618,6.54526028 1.65474928,6.57169895 L3.89148148,7.80769495 L3.77700258,8.20623236 C3.67494574,8.60859558 3.67161593,9.01068245 3.67161593,9.41331429 C3.67161593,9.81594614 3.67494574,10.218033 3.77700258,10.6203962 L3.89239637,11.0221187 L1.32810822,12.4796045 L1.32810822,12.9607392 L2.49218646,14.8133224 L5.26897935,13.1942361 L5.55258202,13.476325 C6.15889473,14.0794013 6.86688129,14.4801058 7.57402589,14.6810686 L7.99380626,14.8003657 L8.09151274,17.229989 L10.4436351,17.1000131 L10.4436351,14.7974851 L10.8737138,14.6752614 C11.5706529,14.3801017 12.2680163,13.9834584 12.8639667,13.487024 L13.1604323,13.1921409 L15.6302784,14.595948 C15.8239194,14.6142064 15.938924,14.5773264 16.0118587,14.5410537 C16.0851565,14.5046004 16.1319136,14.4599479 16.234548,14.2975962 L17.1048733,12.8561011 Z" id="Application-management" fill="#334764"></path>
                    <polygon id="XMLID_1603_-path" fill="#A2D9FF" points="10.1041855 9.78627403 9.16678243 10.3457136 8.22937935 9.78627403 8.22937935 8.66739482 9.16678243 8.10795521 10.1041855 8.66739482"></polygon>
                    <polygon id="XMLID_1603_-path" points="6.35457318 7.64175554 6.35457318 10.9051532 9.16678243 12.4902321 11.9789917 10.9051532 11.9789917 7.64175554 9.16678243 6.05667666"></polygon>
                </g>
            </g>
        </g>
    </g>
</svg>