<?xml version="1.0" encoding="UTF-8"?>
<svg width="56px" height="56px" viewBox="0 0 56 56" version="1.1" xmlns="http://www.w3.org/2000/svg" xmlns:xlink="http://www.w3.org/1999/xlink">
    <!-- Generator: Sketch 52.2 (67145) - http://www.bohemiancoding.com/sketch -->
    <title>业务设置06</title>
    <desc>Created with Sketch.</desc>
    <g id="业务设置06" stroke="none" stroke-width="1" fill="none" fill-rule="evenodd">
        <g id="消息设置" transform="translate(8.000000, 7.000000)">
            <path d="M25.920466,19.1848926 C25.8039363,18.4960386 25.7451959,17.7984661 25.7448715,17.0996166 C25.8272332,14.6396587 25.1855755,12.2103105 23.9011299,10.1191185 C22.7799503,8.39964298 21.0967255,7.13289846 19.1454472,6.54013428 C19.5522905,5.84040703 19.7693282,5.04460289 19.7746606,4.23302046 C19.7761761,3.6729396 19.661526,3.1187556 19.4381046,2.60620945 C19.2240668,2.10204806 18.9216763,1.64111165 18.5454995,1.24560389 C18.1759269,0.855607626 17.7332083,0.543902252 17.2431741,0.328674059 C15.6825256,-0.321619845 13.8895751,0.0141694542 12.6630857,1.18644712 C11.8652644,1.95746659 11.4200901,3.02872867 11.4339247,4.14428534 C11.4487903,4.98075872 11.6973541,5.79593932 12.1509353,6.49576668 C10.2670847,7.13043111 8.65560635,8.39893285 7.58547988,10.0895401 C6.33843893,12.1818046 5.73251609,14.6005108 5.84416836,17.0404599 C5.85191625,18.5103801 5.65487782,19.9740837 5.25885354,21.388482 C4.88453094,22.7352982 4.39492062,24.0466262 3.79556653,25.3076176 C3.25325931,26.4839811 2.64752437,27.6293987 1.98109066,28.7387099 C1.33724439,29.7887425 0.781195311,30.7648291 0.298310619,31.6965481 C0.0224886674,32.05977 -0.0441929699,32.5427603 0.122716189,32.9684185 C0.299692075,33.2940571 0.648800635,33.4849367 1.01532123,33.4564619 L16.0871773,33.4564619 C16.0196707,32.9658495 16.0196707,32.4681551 16.0871773,31.9775428 C16.1470392,31.5793675 16.2602645,31.191284 16.4237334,30.8239859 C16.5230379,30.6625215 16.6522137,30.5219229 16.804188,30.4098885 C16.9550274,30.2959415 17.1448223,30.2479859 17.3309713,30.2767858 C17.9157848,30.3603099 18.4929442,30.0803138 18.7942583,29.5669046 C19.1128733,29.0212608 19.3916391,28.4528302 19.6283319,27.8661476 C19.7453948,27.5703638 19.847825,27.3337368 19.9209893,27.1710557 C19.9678167,27.0320105 19.9678167,26.8812144 19.9209893,26.7421691 C19.8790195,26.5982226 19.8037861,26.4664249 19.7014962,26.3576502 L19.2039786,25.7956609 C18.9327391,25.3917789 18.8991421,24.8711218 19.1161814,24.4350554 C19.2257504,24.1803992 19.3684617,23.9416641 19.5405347,23.7251742 C19.740486,23.4661967 19.9606864,23.2238614 20.1990138,23.0005038 C20.4252776,22.7820333 20.6701006,22.5840826 20.9306573,22.4089362 C21.1562137,22.2586822 21.4104466,22.1579179 21.6769337,22.1131524 C21.8357306,22.0440737 22.0156543,22.0440737 22.1744513,22.1131524 C22.3177886,22.2119503 22.4502403,22.3259849 22.5695388,22.4533037 C22.719362,22.6571636 22.9484246,22.7863783 23.1987521,22.8082444 C23.4335966,22.8018759 23.6638687,22.7411632 23.8718642,22.630774 C24.1373725,22.4990421 24.3918469,22.3457156 24.6327734,22.1723091 C24.9135457,21.9922063 25.2128341,21.8434429 25.5253785,21.7286334 C25.687143,21.6833423 25.8370322,21.6025474 25.9643646,21.4920064 L26.3009206,21.1814333 C26.1381035,20.5234454 26.0110948,19.856932 25.920466,19.1848926 Z M16.6139607,5.10558273 C16.367131,5.35511346 16.0401628,5.5072305 15.6920898,5.53446928 L15.6042926,5.53446928 C15.2372535,5.51463241 14.8894119,5.36246571 14.6238903,5.10558273 C14.3797769,4.85833222 14.2429117,4.52315429 14.2434357,4.17386372 C14.2353881,3.80567841 14.3722186,3.44930988 14.6238903,3.1829879 C14.8855156,2.90411123 15.2536353,2.7531335 15.6335584,2.76889056 C15.9939724,2.7663074 16.338961,2.91650547 16.5846949,3.1829879 C16.847515,3.44303018 16.9907665,3.80230371 16.9797824,4.17386372 C16.9842051,4.52104593 16.8527186,4.85593169 16.6139607,5.10558273 Z" id="Shape" fill="#EA5241"></path>
            <path d="M19.1015486,36.2516189 C19.1462419,36.2897031 19.1771294,36.3417323 19.1893458,36.3995109 C19.4319151,36.9818407 19.4579016,37.6331923 19.2625101,38.2333705 C19.1045815,38.7777458 18.782267,39.2586263 18.3406393,39.6087653 C18.3337289,39.6329192 18.3337289,39.6585574 18.3406393,39.6827113 L18.2528421,39.6827113 C17.516752,40.1221712 16.6786868,40.3568871 15.8237857,40.363014 C15.0331438,40.3538451 14.25963,40.1290203 13.5849566,39.7122896 C12.9140462,39.3437253 12.2816315,38.907702 11.6973164,38.4108408 C11.2329042,37.9629779 10.8160448,37.467316 10.4535224,36.9319217 C10.1462321,36.488246 10.0584349,36.2664081 10.1754979,36.2664081 L19.1015486,36.2516189 Z M39.0607832,31.0162453 C39.0098853,30.8811696 38.910663,30.7703313 38.7827587,30.7056723 C38.6707951,30.6562854 38.5435334,30.6562854 38.4315698,30.7056723 C37.9726033,30.7127294 37.5178067,30.6167575 37.0999787,30.4246777 C36.711869,30.2275599 36.4058322,29.8972838 36.2366393,29.4929586 C36.0811115,29.0769184 36.0555752,28.6226774 36.163475,28.1915099 C36.260005,27.7761576 36.4856463,27.4029819 36.8073212,27.1266881 C36.8910309,27.0870654 36.9583447,27.0190325 36.9975486,26.9344286 C37.0493554,26.844155 37.0794307,26.742833 37.0853458,26.6386448 C37.0175866,26.1697904 36.7960045,25.7375162 36.4561324,25.411142 C36.1603628,25.0914891 35.8079774,24.8306469 35.4171986,24.642104 C35.2820031,24.5819755 35.1280409,24.5819755 34.9928454,24.642104 C34.8518338,24.6878015 34.7221171,24.7634375 34.6123907,24.8639419 C34.3456864,25.1709408 33.9851893,25.3791398 33.5880899,25.4555095 C33.1650748,25.543456 32.7254973,25.4969623 32.329663,25.3224068 C31.9282845,25.162839 31.5962729,24.8639822 31.3931593,24.4794229 C31.1823897,24.1341792 31.0850729,23.7304006 31.1151348,23.325866 C31.1343497,23.1885166 31.1343497,23.0491181 31.1151348,22.9117687 C31.0722584,22.7669461 30.9635086,22.6515389 30.8224774,22.6011957 C30.4294909,22.4487175 30.0140399,22.3637399 29.5933163,22.3497794 C29.1086693,22.2815732 28.6165619,22.4032688 28.2178265,22.6899308 C28.153177,22.7589064 28.112143,22.8470354 28.1007636,22.9413471 C28.1090457,23.039764 28.1090457,23.1387139 28.1007636,23.2371309 C28.016231,23.5755851 27.8934848,23.9030969 27.7349419,24.2132175 C27.5567899,24.6470017 27.2219539,24.9959902 26.7984382,25.1893041 C26.3880803,25.3143134 25.9503692,25.3143134 25.5400113,25.1893041 C25.1359287,25.0893371 24.766558,24.8796662 24.4718118,24.5829472 C24.3370867,24.3942853 24.1163081,24.2882952 23.886497,24.3019526 C23.4959915,24.3641899 23.1418046,24.5694966 22.8914619,24.8787311 C22.611381,25.1609946 22.3834313,25.4915468 22.2183499,25.8548177 C22.1587645,26.0206828 22.12903,26.1959867 22.1305526,26.3724394 C22.1102814,26.5146011 22.1593557,26.6578857 22.2622485,26.7569583 C22.5780987,27.0730623 22.8096583,27.4648136 22.9353605,27.895726 C23.1110496,28.3113723 23.1110496,28.7815285 22.9353605,29.1971749 C22.766464,29.6165892 22.4403484,29.9515047 22.0281225,30.1288939 C21.6094038,30.3198942 21.1559042,30.4206292 20.6965314,30.4246777 C20.5928993,30.4012855 20.4844223,30.4286945 20.403874,30.4986236 C20.2953736,30.5719436 20.2092328,30.6743683 20.1551152,30.7944075 C19.9491803,31.2064443 19.8485702,31.6640265 19.8624578,32.1254346 C19.8095969,32.5615954 19.9134505,33.0024403 20.1551152,33.3677267 C20.3008754,33.4840053 20.471076,33.5649554 20.6526328,33.6043538 C21.1764554,33.6854102 21.6761099,33.8823572 22.1159198,34.1811322 C22.3310764,34.3380701 22.4902096,34.5611613 22.5695388,34.8170674 C22.6999814,35.200428 22.6999814,35.6168421 22.5695388,36.0002027 C22.449866,36.3639988 22.2319216,36.6867238 21.9403253,36.9319217 C21.7818918,37.036411 21.6512526,37.1786024 21.5598707,37.3460191 C21.52412,37.4463906 21.52412,37.5562205 21.5598707,37.6565921 C21.6723063,38.0865367 21.8943011,38.4791778 22.203717,38.7953598 C22.4863017,39.1405193 22.8283725,39.4311288 23.213385,39.6531329 C23.5211426,39.8183661 23.8991562,39.7646401 24.1498887,39.5200301 C24.4331771,39.1791437 24.8182991,38.9404121 25.247354,38.8397274 C25.6886884,38.7194064 26.1570622,38.7506181 26.5789451,38.9284625 C26.9879475,39.1061028 27.3202677,39.4262292 27.5154488,39.8306031 C27.7170625,40.2225144 27.8129556,40.6611937 27.7934733,41.1024736 C27.7522584,41.3707898 27.8970673,41.6330108 28.1446622,41.7384088 C28.5443099,41.9029816 28.9715444,41.9883371 29.403089,41.989825 C29.7857003,42.0284381 30.1713039,41.9566471 30.5151872,41.7827764 C30.7710565,41.6168387 30.9125724,41.3193412 30.8810089,41.0137384 C30.8804045,40.5962794 30.9808787,40.1850118 31.1736663,39.815814 C31.3608165,39.4340611 31.6936401,39.1457362 32.0955371,39.0171976 C32.5059635,38.8618037 32.9581703,38.8618037 33.3685968,39.0171976 C33.7170325,39.1248433 34.0337228,39.3179035 34.2904676,39.5791869 C34.3865837,39.6829897 34.5006378,39.7681911 34.6270236,39.8306031 C34.7835924,39.8774122 34.9468085,39.8974073 35.1099083,39.8897599 C35.5395046,39.7993147 35.9262496,39.5647888 36.2073736,39.2242463 C36.5493314,38.9368001 36.7947185,38.5492867 36.9097513,38.115057 C36.9112866,37.9365037 36.8603607,37.7615057 36.7634226,37.6122245 C36.7080425,37.5297819 36.6637557,37.4402621 36.6317268,37.3460191 C36.3186931,37.0695825 36.1072742,36.694344 36.0317791,36.2811973 C35.9540146,35.8642327 35.9945995,35.4335379 36.1488421,35.0389053 C36.3158329,34.622147 36.621051,34.2770692 37.0121814,34.0628187 C37.4168636,33.8320488 37.8806435,33.7290303 38.3437726,33.7670349 C38.4782848,33.7598007 38.6089582,33.719164 38.7242272,33.6487213 C38.8742239,33.5506715 38.9795059,33.3963819 39.0168846,33.2198348 C39.1333904,32.831428 39.192559,32.4277736 39.192479,32.0219103 C39.2162367,31.6811395 39.1714369,31.3390364 39.0607832,31.0162453 Z M32.2857644,33.5008294 C31.9585725,34.2855279 31.3532218,34.9184427 30.5883515,35.2755323 C29.8045222,35.6448167 28.8992258,35.6448167 28.1153965,35.2755323 C27.2746834,34.9715013 26.6172948,34.2961979 26.3301863,33.4416726 C26.0281923,32.6519056 26.0534808,31.7725185 26.4003495,31.0018116 C26.7472182,30.2311047 27.3864603,29.6339723 28.173928,29.3450668 C28.9414671,29.0196919 29.8061795,29.0196919 30.5737186,29.3450668 C30.9484217,29.5123067 31.282877,29.7595214 31.5541209,30.0697371 C31.8166706,30.3655405 32.033713,30.6995676 32.1979672,31.0606129 C32.3696122,31.4304754 32.4547287,31.8353027 32.446726,32.2437482 C32.4699855,32.6643593 32.4153977,33.0856646 32.2857644,33.4860402 L32.2857644,33.5008294 Z" id="Shape" fill="#F08275"></path>
        </g>
    </g>
</svg>